<?xml version="1.0" encoding="UTF-8" standalone="no"?>
<!DOCTYPE svg PUBLIC "-//W3C//DTD SVG 1.1//EN" "http://www.w3.org/Graphics/SVG/1.1/DTD/svg11.dtd">
<svg xmlns:dc="http://purl.org/dc/elements/1.1/" version="1.1" xmlns:xl="http://www.w3.org/1999/xlink" xmlns="http://www.w3.org/2000/svg" viewBox="0 0 50 50" width="50" height="50">
  <defs/>
  <title>􀑁</title>
  <path d="M 5 43.504597 L 5 11.514332 C 5 11.110508 5.148277 10.757168 5.444835 10.4543 C 5.741393 10.151432 6.104198 10 6.533261 10 C 6.949705 10 7.3062 10.151432 7.602758 10.4543 C 7.899316 10.757168 8.047593 11.110508 8.047593 11.514332 L 8.047593 41.44132 C 8.047593 41.794666 8.224264 41.971336 8.57761 41.971336 L 44.164413 41.971336 C 44.580857 41.971336 44.940507 42.119613 45.243375 42.41617 C 45.546243 42.71273 45.697674 43.069225 45.697674 43.48567 C 45.697674 43.91473 45.546243 44.27438 45.243375 44.56463 C 44.940507 44.85488 44.580857 45 44.164413 45 L 6.514332 45 C 6.06003 45 5.69407 44.86434 5.416441 44.593023 C 5.1388124 44.321704 5 43.9589 5 43.504597 Z M 32.106544 17.079502 L 43.180097 14.296917 C 43.457726 14.2212 43.71642 14.24013 43.95619 14.353705 C 44.195963 14.46728 44.37579 14.640796 44.495673 14.874256 C 44.61556 15.107717 44.63764 15.369568 44.561925 15.659816 L 41.76041 26.7523 C 41.672075 27.080405 41.526953 27.335946 41.32504 27.51893 C 41.12313 27.701912 40.899136 27.793402 40.653056 27.793402 C 40.406976 27.793402 40.170363 27.679828 39.943213 27.452677 L 31.406165 18.8967 C 31.179015 18.66955 31.06544 18.432938 31.06544 18.186858 C 31.06544 17.940778 31.15693 17.716785 31.339913 17.514873 C 31.522896 17.31296 31.778437 17.167839 32.106544 17.079502 Z M 16.508924 21.187128 C 16.950606 21.187128 17.382817 21.288083 17.80557 21.489995 C 18.228324 21.691907 18.647916 22.00739 19.06436 22.436452 L 26.030287 29.572742 C 26.20696 29.749415 26.37732 29.83775 26.541374 29.83775 C 26.62971 29.83775 26.718045 29.81251 26.806382 29.762034 C 26.894718 29.711556 26.983053 29.64846 27.07139 29.572742 L 36.6874 19.881017 C 37.002886 19.56553 37.38462 19.407788 37.83261 19.407788 C 38.280604 19.407788 38.66865 19.56553 38.996755 19.881017 C 39.299623 20.183885 39.451055 20.562464 39.451055 21.016766 C 39.451055 21.471068 39.299623 21.849647 38.996755 22.152515 L 29.115738 32.09032 C 28.270232 32.923206 27.41212 33.339643 26.541374 33.339643 C 26.09969 33.339643 25.664325 33.23869 25.235262 33.036777 C 24.8062 32.834865 24.389762 32.519382 23.985938 32.09032 L 17.02001 24.95403 C 16.855957 24.777356 16.685597 24.68902 16.508924 24.68902 C 16.33225 24.68902 16.16189 24.777356 15.997837 24.95403 L 8.028664 33.074635 C 7.713177 33.390122 7.331443 33.547864 6.8834505 33.547864 C 6.435458 33.547864 6.047415 33.390122 5.719308 33.074635 C 5.41644 32.759148 5.265008 32.377413 5.265008 31.92942 C 5.265008 31.48143 5.41644 31.106005 5.719308 30.803137 L 13.953488 22.436452 C 14.382551 21.99477 14.805298 21.676132 15.221741 21.48053 C 15.638185 21.284928 16.067241 21.187128 16.508924 21.187128 Z" fill="currentColor"/>
</svg>
