<?xml version="1.0" encoding="UTF-8" standalone="no"?>
<!DOCTYPE svg PUBLIC "-//W3C//DTD SVG 1.1//EN" "http://www.w3.org/Graphics/SVG/1.1/DTD/svg11.dtd">
<svg xmlns:dc="http://purl.org/dc/elements/1.1/" version="1.1" xmlns:xl="http://www.w3.org/1999/xlink" xmlns="http://www.w3.org/2000/svg" viewBox="0 0 50 50" width="50" height="50">
  <defs/>
  <title>􀇃</title>
  <path d="M 13.1764 45 C 11.529988 45 10.09496 44.68296 8.871275 44.04887 C 7.64759 43.414776 6.6964674 42.53874 6.0178784 41.42074 C 5.3392894 40.302736 5 39.020667 5 37.574493 C 5 36.395306 5.23639 35.310692 5.7091776 34.32062 C 6.181965 33.330547 6.8410764 32.485105 7.686532 31.784267 C 8.531987 31.08343 9.505358 30.577276 10.606675 30.265793 C 10.740168 28.61938 11.160108 27.089796 11.866508 25.676996 C 12.572908 24.264196 13.493439 23.029405 14.628129 21.972586 C 15.762819 20.915767 17.056012 20.089792 18.507747 19.494636 C 19.959483 18.89948 21.49741 18.601907 23.121573 18.601907 C 25.602317 18.601907 27.824384 19.233208 29.787843 20.495828 C 31.7513 21.75845 33.283666 23.496612 34.384982 25.71037 C 35.886777 25.699245 37.274527 25.932854 38.54827 26.411204 C 39.822017 26.889553 40.93166 27.56257 41.877235 28.430274 C 42.82281 29.297978 43.55979 30.315846 44.0882 31.48391 C 44.61661 32.651972 44.88081 33.9257 44.88081 35.305125 C 44.88081 36.662303 44.627734 37.930467 44.121573 39.109654 C 43.615413 40.28884 42.909023 41.317834 42.002384 42.196663 C 41.095744 43.07549 40.03894 43.762413 38.831943 44.25745 C 37.624944 44.752486 36.320627 45 34.91895 45 Z" fill="currentColor"/>
</svg>
