<?xml version="1.0" encoding="UTF-8" standalone="no"?>
<!DOCTYPE svg PUBLIC "-//W3C//DTD SVG 1.1//EN" "http://www.w3.org/Graphics/SVG/1.1/DTD/svg11.dtd">
<svg xmlns:dc="http://purl.org/dc/elements/1.1/" version="1.1" xmlns:xl="http://www.w3.org/1999/xlink" xmlns="http://www.w3.org/2000/svg" viewBox="0 0 50 50" width="50" height="50">
  <defs/>
  <title>􀌌</title>
  <path d="M 36.55143 45 L 14.564426 45 C 13.201875 45 11.940469 44.771137 10.780171 44.313405 C 9.619873 43.855673 8.605958 43.23029 7.738396 42.437245 C 6.870834 41.644197 6.1975516 40.726085 5.7185295 39.68288 C 5.2395074 38.63968 5 37.53262 5 36.36168 C 5 35.062996 5.236846 33.86546 5.710546 32.76903 C 6.1842455 31.672603 6.860189 30.762474 7.738396 30.03862 C 8.616603 29.314763 9.65713 28.857038 10.860007 28.66543 C 10.881297 27.54771 11.136772 26.539118 11.626439 25.63962 C 12.116106 24.740124 12.760115 23.99499 13.558485 23.404196 C 14.356855 22.813402 15.243033 22.419545 16.217044 22.222614 C 17.191056 22.025683 18.167714 22.070923 19.147048 22.358336 C 19.785744 21.421582 20.55483 20.56734 21.454326 19.79558 C 22.353823 19.023823 23.386366 18.406426 24.551987 17.943372 C 25.717607 17.480317 27.024253 17.248793 28.471964 17.248793 C 30.111284 17.248793 31.63615 17.549508 33.046602 18.150947 C 34.457056 18.752386 35.69185 19.603968 36.75102 20.705719 C 37.81019 21.80747 38.6325 23.106132 39.217973 24.601745 C 39.803444 26.09736 40.096175 27.733993 40.096175 29.511697 C 41.13938 29.94814 42.03886 30.546908 42.794653 31.30802 C 43.550443 32.069134 44.130583 32.942005 44.53509 33.92666 C 44.9396 34.91132 45.14185 35.96249 45.14185 37.08021 C 45.14185 38.176636 44.92363 39.203857 44.48719 40.1619 C 44.050747 41.119945 43.441333 41.960883 42.65893 42.68474 C 41.87653 43.408594 40.96374 43.97543 39.920535 44.38526 C 38.87733 44.79509 37.754307 45 36.55143 45 Z" fill="currentColor"/>
</svg>
