<?xml version="1.0" encoding="UTF-8" standalone="no"?>
<!DOCTYPE svg PUBLIC "-//W3C//DTD SVG 1.1//EN" "http://www.w3.org/Graphics/SVG/1.1/DTD/svg11.dtd">
<svg xmlns:dc="http://purl.org/dc/elements/1.1/" version="1.1" xmlns:xl="http://www.w3.org/1999/xlink" xmlns="http://www.w3.org/2000/svg" viewBox="0 0 50 50" width="50" height="50">
  <defs/>
  <g id="Canvas_1" fill="none" stroke-opacity="1" stroke="none" stroke-dasharray="none" fill-opacity="1">
  <title>􀃫</title>
  <path d="M 11.822379 45 C 9.548241 45 7.842664 44.438716 6.705595 43.31613 C 5.568526 42.19355 5 40.51694 5 38.286257 L 5 11.73547 C 5 9.490302 5.568526 7.806451 6.705595 6.6838675 C 7.842664 5.5612835 9.548241 5 11.822379 5 L 38.17762 5 C 40.45176 5 42.157336 5.564905 43.294405 6.694731 C 44.431474 7.8245575 45 9.504787 45 11.73547 L 45 38.286257 C 45 40.51694 44.431474 42.19355 43.294405 43.31613 C 42.157336 44.438716 40.45176 45 38.17762 45 Z M 19.231396 35.939707 C 20.114978 35.939707 20.64367 35.512407 20.81749 34.657795 L 21.860402 29.83433 L 26.01032 29.83433 L 25.097773 34.22325 C 24.996378 34.686767 25.083287 35.08872 25.3585 35.429115 C 25.633715 35.76951 26.003076 35.939707 26.466594 35.939707 C 27.408116 35.939707 27.96578 35.512407 28.139598 34.657795 L 29.139055 29.812602 L 31.46388 29.812602 C 31.898427 29.812602 32.260545 29.667754 32.550244 29.378055 C 32.839944 29.088356 32.98479 28.73348 32.98479 28.313417 C 32.98479 27.936808 32.86167 27.621765 32.615426 27.368278 C 32.369182 27.11479 32.05776 26.98805 31.68115 26.98805 L 29.725693 26.98805 L 30.703422 22.44704 L 33.049973 22.44704 C 33.499006 22.44704 33.864746 22.302192 34.147203 22.012493 C 34.42966 21.722794 34.570885 21.360676 34.570885 20.926127 C 34.570885 20.535033 34.447765 20.21637 34.20152 19.970125 C 33.955277 19.72388 33.651097 19.60076 33.288973 19.60076 L 31.29006 19.60076 L 32.18088 15.429115 C 32.253305 14.965596 32.14829 14.563645 31.865834 14.223248 C 31.583377 13.882852 31.210395 13.712656 30.746877 13.712656 C 29.84881 13.712656 29.312874 14.147198 29.139055 15.016295 L 28.161325 19.60076 L 23.98968 19.60076 L 24.858772 15.429115 C 24.960167 14.980081 24.87326 14.58175 24.598045 14.234112 C 24.32283 13.886473 23.946227 13.712656 23.468224 13.712656 C 22.555672 13.712656 22.012494 14.147198 21.838675 15.016295 L 20.882672 19.60076 L 18.536122 19.60076 C 18.101573 19.60076 17.739455 19.745608 17.449756 20.035307 C 17.160056 20.325006 17.01521 20.687124 17.01521 21.121673 C 17.01521 21.512767 17.13833 21.83143 17.384574 22.077675 C 17.630818 22.32392 17.934997 22.44704 18.297121 22.44704 L 20.274307 22.44704 L 19.340033 26.98805 L 16.950027 26.98805 C 16.500994 26.98805 16.135254 27.132897 15.852797 27.422596 C 15.57034 27.712295 15.429115 28.06717 15.429115 28.487235 C 15.429115 28.87833 15.552235 29.196993 15.79848 29.443237 C 16.044723 29.68948 16.348903 29.812602 16.711027 29.812602 L 18.731668 29.812602 L 17.797393 34.22325 C 17.724968 34.686767 17.829982 35.08872 18.112439 35.429115 C 18.394895 35.76951 18.767877 35.939707 19.231396 35.939707 Z M 22.251494 27.248778 L 23.294405 22.20804 L 27.79196 22.20804 L 26.727322 27.248778 Z" fill="currentColor"/>
</svg>
