<?xml version="1.0" encoding="UTF-8" standalone="no"?>
<!DOCTYPE svg PUBLIC "-//W3C//DTD SVG 1.1//EN" "http://www.w3.org/Graphics/SVG/1.1/DTD/svg11.dtd">
<svg xmlns:dc="http://purl.org/dc/elements/1.1/" version="1.1" xmlns:xl="http://www.w3.org/1999/xlink" xmlns="http://www.w3.org/2000/svg" viewBox="0 0 50 50" width="50" height="50">
  <defs/>
  <title>􀍼</title>
  <path d="M 36.97664 39.07058 L 10.890434 12.984375 L 12.964805 10.910003 L 39.05101 36.99621 Z M 24.960937 44.921875 C 22.20814 44.921875 19.624987 44.403287 17.211397 43.366096 C 14.797808 42.328905 12.677795 40.89708 10.851294 39.07058 C 9.024794 37.24408 7.59297 35.124067 6.555779 32.710478 C 5.518588 30.29689 5 27.713734 5 24.960938 C 5 22.20814 5.518588 19.624987 6.555779 17.211397 C 7.59297 14.797808 9.024794 12.674533 10.851294 10.84151 C 12.677795 9.008486 14.797808 7.576662 17.211397 6.545994 C 19.624987 5.515326 22.20814 5 24.960937 5 C 27.713734 5 30.29689 5.515326 32.710478 6.545994 C 35.124067 7.576662 37.24408 9.008486 39.07058 10.84151 C 40.89708 12.674533 42.328905 14.797808 43.366096 17.211397 C 44.403287 19.624987 44.921875 22.20814 44.921875 24.960938 C 44.921875 27.713734 44.403287 30.29689 43.366096 32.710478 C 42.328905 35.124067 40.89708 37.24408 39.07058 39.07058 C 37.24408 40.89708 35.124067 42.328905 32.710478 43.366096 C 30.29689 44.403287 27.713734 44.921875 24.960937 44.921875 Z M 24.960937 41.59505 C 27.25711 41.59505 29.409738 41.164526 31.418888 40.30346 C 33.42804 39.4424 35.195803 38.248667 36.722235 36.722235 C 38.248667 35.195803 39.4424 33.42804 40.30346 31.418888 C 41.164526 29.409738 41.59505 27.25711 41.59505 24.960938 C 41.59505 22.664766 41.164526 20.508876 40.30346 18.493202 C 39.4424 16.477529 38.248667 14.709764 36.722235 13.189855 C 35.195803 11.669946 33.42804 10.479477 31.418888 9.618413 C 29.409738 8.757349 27.25711 8.326823 24.960937 8.326823 C 22.664766 8.326823 20.512137 8.757349 18.502987 9.618413 C 16.493837 10.479477 14.726072 11.669946 13.19964 13.189855 C 11.673208 14.709764 10.479477 16.477529 9.618413 18.493202 C 8.757349 20.508876 8.326823 22.664766 8.326823 24.960938 C 8.326823 27.25711 8.757349 29.409738 9.618413 31.418888 C 10.479477 33.42804 11.673208 35.195803 13.19964 36.722235 C 14.726072 38.248667 16.493837 39.4424 18.502987 40.30346 C 20.512137 41.164526 22.664766 41.59505 24.960937 41.59505 Z" fill="currentColor"/>
</svg>
