<?xml version="1.0" encoding="UTF-8" standalone="no"?>
<!DOCTYPE svg PUBLIC "-//W3C//DTD SVG 1.1//EN" "http://www.w3.org/Graphics/SVG/1.1/DTD/svg11.dtd">
<svg xmlns:dc="http://purl.org/dc/elements/1.1/" version="1.1" xmlns:xl="http://www.w3.org/1999/xlink" xmlns="http://www.w3.org/2000/svg" viewBox="0 0 50 50" width="50" height="50">
  <defs/>
  <title>Reminders</title>
  <path d="M 44.972556 38.0864 L 44.972556 11.913585 C 44.972556 7.304547 42.66801 5 37.976657 5 L 11.995887 5 C 7.331955 5 5 7.304547 5 11.913585 L 5 38.0864 C 5 42.69547 7.331955 45 11.995887 45 L 37.976657 45 C 42.66801 45 44.972556 42.69547 44.972556 38.0864 Z M 26.04879 33.50942 L 26.04879 33.50942 C 25.185728 33.50942 24.488326 32.750085 24.488326 31.910868 C 24.488326 31.047743 25.178073 30.31131 26.04879 30.31131 L 37.901873 30.31131 C 38.779054 30.31131 39.471 31.032557 39.471 31.910868 C 39.471 32.765333 38.771524 33.50942 37.901873 33.50942 Z M 16.08925 37.49655 L 16.08925 37.49655 C 13.020904 37.49655 10.501558 34.9629 10.501558 31.910868 C 10.501558 28.8557 13.012182 26.33077 16.08925 26.33077 C 19.142284 26.33077 21.658493 28.856704 21.658493 31.910868 C 21.658493 34.96183 19.142284 37.49655 16.08925 37.49655 Z M 16.08925 34.688054 L 16.08925 34.688054 C 17.591483 34.688054 18.84899 33.421823 18.84899 31.910868 C 18.84899 30.405497 17.591483 29.14027 16.08925 29.14027 C 14.57729 29.14027 13.309993 30.4065 13.309993 31.910868 C 13.309993 33.421823 14.569572 34.688054 16.08925 34.688054 Z M 26.04879 19.682102 L 26.04879 19.682102 C 25.185728 19.682102 24.488326 18.922828 24.488326 18.082543 C 24.488326 17.220485 25.178073 16.484052 26.04879 16.484052 L 37.901873 16.484052 C 38.779054 16.484052 39.471 17.205237 39.471 18.082543 C 39.471 18.938013 38.771524 19.682102 37.901873 19.682102 Z M 16.08925 23.66051 L 16.08925 23.66051 C 13.020904 23.66051 10.501558 21.126856 10.501558 18.073821 C 10.501558 15.019657 13.012182 12.503448 16.08925 12.503448 C 19.142284 12.503448 21.658493 15.020724 21.658493 18.073821 C 21.658493 21.125852 19.142284 23.66051 16.08925 23.66051 Z M 15.420022 21.059964 L 15.420022 21.059964 C 15.72574 21.059964 16.019095 20.894116 16.19925 20.627806 L 18.79578 16.666968 C 18.93659 16.446465 18.982523 16.281558 18.982523 16.10134 C 18.982523 15.67803 18.60709 15.351479 18.170476 15.351479 C 17.871536 15.351479 17.637855 15.491286 17.45883 15.796878 L 15.403581 19.089491 L 14.57384 18.08656 C 14.374232 17.845474 14.202673 17.737356 13.918918 17.737356 C 13.489897 17.737356 13.147157 18.080222 13.147157 18.535221 C 13.147157 18.754783 13.208338 18.913039 13.356679 19.110387 L 14.6455 20.65623 C 14.851759 20.894053 15.096044 21.059964 15.420022 21.059964 Z" fill="currentColor"/>
</svg>
