<?xml version="1.0" encoding="UTF-8" standalone="no"?>
<!DOCTYPE svg PUBLIC "-//W3C//DTD SVG 1.1//EN" "http://www.w3.org/Graphics/SVG/1.1/DTD/svg11.dtd">
<svg xmlns="http://www.w3.org/2000/svg" xmlns:dc="http://purl.org/dc/elements/1.1/" xmlns:xl="http://www.w3.org/1999/xlink" version="1.1" viewBox="0 0 570 655">
    <style>
        path {
            fill: linear-gradient(red, yellow);
        }
    </style>
    <defs>
        <linearGradient id="holographicGradient" x1="0%" y1="0%" x2="100%" y2="100%">
            <stop offset="0%" stop-color="rgb(255, 255, 255)" />
            <stop offset="10%" stop-color="rgb(255, 177, 250)" />
            <stop offset="20%" stop-color="rgb(132, 250, 255)" />
            <stop offset="30%" stop-color="rgb(255, 255, 183)" />
            <stop offset="40%" stop-color="rgb(182, 255, 252)" />
            <stop offset="50%" stop-color="rgb(255, 209, 220)" />
            <stop offset="60%" stop-color="rgb(173, 255, 166)" />
            <stop offset="70%" stop-color="rgb(221, 179, 255)" />
            <stop offset="80%" stop-color="rgb(255, 255, 255)" />
            <stop offset="100%" stop-color="rgb(255, 240, 205)" />
        </linearGradient>
    </defs>
    <path id="gamepak" d="M 569.99956 145 L 564.99956 145 L 564.99956 135 L 569.99956 135 L 569.99956 125 L 564.99956 125 L 564.99956 115 L 569.99956 115 L 569.99956 105 L 564.99956 105 L 564.99956 95 L 569.99956 95 L 569.99956 85 L 564.99956 85 L 564.99956 75 L 569.99956 75 L 569.99956 65 L 564.99956 65 L 564.99956 55 L 569.99956 55 L 569.99956 40 C 569.99956 40 569.62256 30 559.99956 30 L 519.9996 30 C 511.3646 30 509.9996 28.764 509.9996 20 L 509.9996 10 C 509.9996 .614 499.9996 -5684342e-20 499.9996 -5684342e-20 L 9.999992 -5684342e-20 C .6919995 .019 0 10 0 10 L 0 55 L 4.999996 55 L 4.999996 65 L 0 65 L 0 75 L 4.999996 75 L 4.999996 85 L 0 85 L 0 95 L 4.999996 95 L 4.999996 105 L 0 105 L 0 115 L 4.999996 115 L 4.999996 125 L 0 125 L 0 135 L 4.999996 135 L 4.999996 145 L 0 145 L 0 645 C 0 645 .28699978 655 9.999992 655 L 559.99956 655 C 559.99956 655 569.99956 654.714 569.99956 645 C 570.00056 630 569.99956 145 569.99956 145 Z" fill="#5b5b5b"/>
    <path id="case" d="M 4316547e-11 55 L 85.33098 55 C 81.95298 57.981 78.91198 61.335 76.27398 65 L 4316547e-11 65 L 4316547e-11 75 L 70.44799 75 C 68.98099 78.192 67.78599 81.536 66.89399 85 L 4316547e-11 85 L 4316547e-11 95 L 65.20599 95 C 65.06899 96.652 64.99999 98.318 64.99999 100 C 64.99999 101.682 65.06899 103.348 65.20599 105 L 4316547e-11 105 L 4316547e-11 115 L 66.89399 115 C 67.78599 118.464 68.98099 121.806 70.44799 125 L 4316547e-11 125 L 4316547e-11 135 L 76.27398 135 C 78.91198 138.665 81.95298 142.02 85.33098 145 L 4316547e-11 145 L 4316547e-11 310 L 25.000043 310 L 25.000043 655 L 545.00004 655 L 545.00004 310 L 570.00004 310 L 569.9996 145 L 484.66867 145 C 488.04666 142.019 491.08766 138.665 493.72566 135 L 569.9996 135 L 569.9996 125 L 499.55165 125 C 501.01865 121.808 502.21365 118.464 503.10565 115 L 569.9996 115 L 569.9996 105 L 504.79365 105 C 504.93065 103.348 504.99965 101.682 504.99965 100 C 504.99965 98.318 504.93065 96.652 504.79365 95 L 569.9996 95 L 569.9996 85 L 503.10565 85 C 502.21365 81.536 501.01865 78.194 499.55165 75 L 569.9996 75 L 569.9996 65 L 493.72566 65 C 491.08766 61.335 488.04666 57.98 484.66867 55 L 569.9996 55 L 569.9996 40 C 569.9996 40 569.6226 30 559.9996 30 L 519.99964 30 C 511.36464 30 509.99965 28.764 509.99965 20 L 509.99965 10 C 509.99965 .614 499.99965 11368684e-20 499.99965 11368684e-20 L 10.000035 11368684e-20 C .6920426 .019 4316547e-11 10 4316547e-11 10 Z" fill="#8c8c8c"/>
    <path id="SidesTop" d="M 25.000043 310 L 4316547e-11 310 L 4316547e-11 305 L 25.000043 305 Z M 570.00004 310 L 545.00004 310 L 545.00004 305 L 570.00004 305 Z" fill="#444"/>
    <path id="Header" d="M 495.00004 100 C 495.00004 72.404 472.59604 50 445.00004 50 L 125.00004 50 C 97.40404 50 75.00004 72.404 75.00004 100 C 75.00004 127.596 97.40404 150 125.00004 150 L 445.00004 150 C 472.59604 150 495.00004 127.596 495.00004 100 Z" fill="#6f6f6f"/>
    <path id="LabelGroove" d="M 495.00004 186.96971 C 495.00004 178.7081 488.29204 171.99998 480.03004 171.99998 L 89.97004 171.99998 C 81.70804 171.99998 75.00004 178.7081 75.00004 186.96971 L 75.00004 557.0303 C 75.00004 565.2919 81.70804 572 89.97004 572 L 480.03004 572 C 488.29204 572 495.00004 565.2919 495.00004 557.0303 Z" fill="gray"/>
    <path id="Label" d="M 485.00004 189.6 C 485.00004 185.40562 481.59433 182 477.40004 182 L 92.60004 182 C 88.40576 182 85.00004 185.40562 85.00004 189.6 L 85.00004 554.4 C 85.00004 558.5944 88.40576 562 92.60004 562 L 477.40004 562 C 481.59433 562 485.00004 558.5944 485.00004 554.4 Z" fill="url(#holographicGradient)"/>
    <path id="ArrowDown" d="M 290.00132 630.50635 C 284.96634 635.5413 285.07034 635.5063 280.00135 630.50635 C 274.06837 624.6544 254.81842 605.81545 250.00144 600.5065 C 245.53845 595.5885 245.65145 595.3725 255.00142 595.5065 C 265.8654 595.6625 304.1363 595.5705 315.00125 595.5065 C 324.35122 595.4515 324.46422 595.5885 320.00124 600.5065 C 315.18425 605.81545 295.8943 624.6134 290.00132 630.50635 Z" fill="#595959"/>
</svg>
