<?xml version="1.0" encoding="UTF-8" standalone="no"?>
<!DOCTYPE svg PUBLIC "-//W3C//DTD SVG 1.1//EN" "http://www.w3.org/Graphics/SVG/1.1/DTD/svg11.dtd">
<svg xmlns="http://www.w3.org/2000/svg" xmlns:dc="http://purl.org/dc/elements/1.1/" xmlns:xl="http://www.w3.org/1999/xlink" version="1.1" viewBox="0 0 570 655">
    <style>
        path {
            fill: linear-gradient(red, yellow);
        }
    </style>
    <defs>
        <linearGradient id="holographicGradient" x1="0%" y1="0%" x2="100%" y2="100%">
            <stop offset="0%" stop-color="rgb(255, 255, 255)" />
            <stop offset="10%" stop-color="rgb(255, 177, 250)" />
            <stop offset="20%" stop-color="rgb(132, 250, 255)" />
            <stop offset="30%" stop-color="rgb(255, 255, 183)" />
            <stop offset="40%" stop-color="rgb(182, 255, 252)" />
            <stop offset="50%" stop-color="rgb(255, 209, 220)" />
            <stop offset="60%" stop-color="rgb(173, 255, 166)" />
            <stop offset="70%" stop-color="rgb(221, 179, 255)" />
            <stop offset="80%" stop-color="rgb(255, 255, 255)" />
            <stop offset="100%" stop-color="rgb(255, 240, 205)" />
        </linearGradient>
    </defs>
    <path id="gamepak" d="M 569.99956 145 L 564.99956 145 L 564.99956 135 L 569.99956 135 L 569.99956 125 L 564.99956 125 L 564.99956 115 L 569.99956 115 L 569.99956 105 L 564.99956 105 L 564.99956 95 L 569.99956 95 L 569.99956 85 L 564.99956 85 L 564.99956 75 L 569.99956 75 L 569.99956 65 L 564.99956 65 L 564.99956 55 L 569.99956 55 L 569.99956 40 C 569.99956 40 569.62256 30 559.99956 30 L 519.9996 30 C 511.3646 30 509.9996 28.764 509.9996 20 L 509.9996 10 C 509.9996 .614 499.9996 -5684342e-20 499.9996 -5684342e-20 L 9.999992 -5684342e-20 C .6919995 .019 0 10 0 10 L 0 55 L 4.999996 55 L 4.999996 65 L 0 65 L 0 75 L 4.999996 75 L 4.999996 85 L 0 85 L 0 95 L 4.999996 95 L 4.999996 105 L 0 105 L 0 115 L 4.999996 115 L 4.999996 125 L 0 125 L 0 135 L 4.999996 135 L 4.999996 145 L 0 145 L 0 645 C 0 645 .28699978 655 9.999992 655 L 559.99956 655 C 559.99956 655 569.99956 654.714 569.99956 645 C 570.00056 630 569.99956 145 569.99956 145 Z" fill="#5b5b5b"/>
    <path id="GroovesShadow" d="M 5 55 L 5 60 L 565 60 L 565 55 Z M 5 75 L 5 80 L 565 80 L 565 75 Z M 5 95 L 5 100 L 565 100 L 565 95 Z M 5 115 L 5 120 L 565 120 L 565 115 Z M 5 135 L 5 140 L 565 140 L 565 135 Z" fill="#454445"/>
    <path id="case" d="M 4316547e-11 55 L 85.33098 55 C 81.95298 57.981 78.91198 61.335 76.27398 65 L 4316547e-11 65 L 4316547e-11 75 L 70.44799 75 C 68.98099 78.192 67.78599 81.536 66.89399 85 L 4316547e-11 85 L 4316547e-11 95 L 65.20599 95 C 65.06899 96.652 64.99999 98.318 64.99999 100 C 64.99999 101.682 65.06899 103.348 65.20599 105 L 4316547e-11 105 L 4316547e-11 115 L 66.89399 115 C 67.78599 118.464 68.98099 121.806 70.44799 125 L 4316547e-11 125 L 4316547e-11 135 L 76.27398 135 C 78.91198 138.665 81.95298 142.02 85.33098 145 L 4316547e-11 145 L 4316547e-11 310 L 25.000043 310 L 25.000043 655 L 545.00004 655 L 545.00004 310 L 570.00004 310 L 569.9996 145 L 484.66867 145 C 488.04666 142.019 491.08766 138.665 493.72566 135 L 569.9996 135 L 569.9996 125 L 499.55165 125 C 501.01865 121.808 502.21365 118.464 503.10565 115 L 569.9996 115 L 569.9996 105 L 504.79365 105 C 504.93065 103.348 504.99965 101.682 504.99965 100 C 504.99965 98.318 504.93065 96.652 504.79365 95 L 569.9996 95 L 569.9996 85 L 503.10565 85 C 502.21365 81.536 501.01865 78.194 499.55165 75 L 569.9996 75 L 569.9996 65 L 493.72566 65 C 491.08766 61.335 488.04666 57.98 484.66867 55 L 569.9996 55 L 569.9996 40 C 569.9996 40 569.6226 30 559.9996 30 L 519.99964 30 C 511.36464 30 509.99965 28.764 509.99965 20 L 509.99965 10 C 509.99965 .614 499.99965 11368684e-20 499.99965 11368684e-20 L 10.000035 11368684e-20 C .6920426 .019 4316547e-11 10 4316547e-11 10 Z" fill="#8c8c8c"/>
    <path id="SidesTop" d="M 25.000043 310 L 4316547e-11 310 L 4316547e-11 305 L 25.000043 305 Z M 570.00004 310 L 545.00004 310 L 545.00004 305 L 570.00004 305 Z" fill="#444"/>
    <g id="Group_38">
        <title>Header</title>
        <g id="Graphic_10">
          <title>Header4</title>
          <path d="M 495.00004 100 C 495.00004 72.404 472.59604 50 445.00004 50 L 125.00004 50 C 97.40404 50 75.00004 72.404 75.00004 100 C 75.00004 127.596 97.40404 150 125.00004 150 L 445.00004 150 C 472.59604 150 495.00004 127.596 495.00004 100 Z" fill="#454446"/>
        </g>
        <g id="Graphic_29">
          <title>Header3</title>
          <path d="M 494.00004 100 C 494.00004 72.95592 471.70273 51 444.23814 51 L 125.76195 51 C 98.29736 51 76.00004 72.95592 76.00004 100 C 76.00004 127.04408 98.29736 149 125.76195 149 L 444.23814 149 C 471.70273 149 494.00004 127.04408 494.00004 100 Z" fill="#5c5c5b"/>
        </g>
        <g id="Graphic_28">
          <title>Header2</title>
          <path d="M 491 100 C 491 74.61168 469.02274 54 441.9524 54 L 128.04762 54 C 100.97726 54 79 74.61168 79 100 C 79 125.38832 100.97726 146 128.04762 146 L 441.9524 146 C 469.02274 146 491 125.38832 491 100 Z" fill="#6f6f6f"/>
        </g>
        <g id="Graphic_33">
          <title>Header1</title>
          <path d="M 487 100 C 487 76.81936 465.4495 58 438.90476 58 L 131.09524 58 C 104.55051 58 83 76.81936 83 100 C 83 123.18064 104.55051 142 131.09524 142 L 438.90476 142 C 465.4495 142 487 123.18064 487 100 Z" fill="gray"/>
        </g>
    </g>
    <g id="Group_39">
        <title>LabelGrooveShadow</title>
        <g id="Graphic_8">
          <title>LabelGroove3</title>
          <path d="M 495.00004 186.96971 C 495.00004 178.7081 488.29204 171.99998 480.03004 171.99998 L 89.97004 171.99998 C 81.70804 171.99998 75.00004 178.7081 75.00004 186.96971 L 75.00004 557.0303 C 75.00004 565.2919 81.70804 572 89.97004 572 L 480.03004 572 C 488.29204 572 495.00004 565.2919 495.00004 557.0303 Z" fill="#5b5c5b"/>
        </g>
        <g id="Graphic_30">
          <title>LabelGroove2</title>
          <path d="M 493.9116 187.89485 C 493.9116 178.02525 487.23696 172.99997 479.01605 172.99997 L 90.89596 172.99997 C 81.02338 173 76.00041 179.67453 76.00041 187.89485 L 76.00041 556.1051 C 74.99581 564.9697 82.67504 571 90.89596 571 L 479.01605 571 C 488.8886 571 493.9116 564.3254 493.9116 556.1051 Z" fill="#6e6f6f"/>
        </g>
        <g id="Graphic_31">
          <title>LabelGroove1</title>
          <path d="M 491 190.67034 C 491 179 484.42117 176 476.31826 176 L 93.76927 176 C 83 176 79.08753 182.57395 79.08753 190.67034 L 79.08753 553.32966 C 78 564 85.66636 568 93.76927 568 L 476.31826 568 C 488 568 491 561.42605 491 553.32966 Z" fill="gray"/>
        </g>
    </g>
    <g id="Graphic_32">
        <title>LabelShadow</title>
        <path d="M 486 188.64 C 486 184.42355 482 181 478.362 181 L 91.638 181 C 87.42274 181 84 185 84 188.64 L 84 555.36 C 84 559.57645 88 563 91.638 563 L 478.362 563 C 482.57726 563 486 559 486 555.36 Z" fill="#6f6e6f"/>
    </g>
    <path id="Label" d="M 485.00004 189.6 C 485.00004 185.40562 481.59433 182 477.40004 182 L 92.60004 182 C 88.40576 182 85.00004 185.40562 85.00004 189.6 L 85.00004 554.4 C 85.00004 558.5944 88.40576 562 92.60004 562 L 477.40004 562 C 481.59433 562 485.00004 558.5944 485.00004 554.4 Z" fill="url(#holographicGradient)"/>
    <g id="Group_40">
        <title>ArrowDown</title>
        <g id="Graphic_4">
          <title>ArrowDown3</title>
          <path d="M 290.00132 630.50635 C 284.96634 635.5413 285.07034 635.5063 280.00135 630.50635 C 274.06837 624.6544 254.81842 605.81545 250.00144 600.5065 C 245.53845 595.5885 245.65145 595.3725 255.00142 595.5065 C 265.8654 595.6625 304.1363 595.5705 315.00125 595.5065 C 324.35122 595.4515 324.46422 595.5885 320.00124 600.5065 C 315.18425 605.81545 295.8943 624.6134 290.00132 630.50635 Z" fill="#5b5c5b"/>
        </g>
        <g id="Graphic_36">
          <title>ArrowDown2</title>
          <path d="M 289.75572 629.4468 C 284.96806 634.2009 285.06695 634.16786 280.24695 629.4468 C 274.6054 623.9213 256.301 606.1333 251.72064 601.1205 C 247.47687 596.47684 247.58432 596.2729 256.47502 596.3994 C 266.80535 596.5467 303.19637 596.45984 313.52765 596.3994 C 322.41835 596.3475 322.5258 596.47684 318.28204 601.1205 C 313.70166 606.1333 295.35924 623.8826 289.75572 629.4468 Z" fill="#6e6f6f"/>
        </g>
        <g id="Graphic_37">
          <title>ArrowDown1</title>
          <path d="M 289.3663 628.23785 C 284.9708 632.60254 285.06157 632.5722 280.6364 628.23785 C 275.45695 623.1649 258.6519 606.834 254.4467 602.2318 C 250.55056 597.9685 250.6492 597.78126 258.81166 597.8974 C 268.2958 598.03265 301.706 597.9529 311.19102 597.8974 C 319.35347 597.84974 319.4521 597.9685 315.55597 602.2318 C 311.35078 606.834 294.5108 623.1294 289.3663 628.23785 Z" fill="#81807f"/>
        </g>
    </g>
</svg>
