<?xml version="1.0" encoding="UTF-8" standalone="no"?>
<!DOCTYPE svg PUBLIC "-//W3C//DTD SVG 1.1//EN" "http://www.w3.org/Graphics/SVG/1.1/DTD/svg11.dtd">
<svg width="100%" height="100%" viewBox="0 0 624 465" version="1.1" xmlns="http://www.w3.org/2000/svg" xmlns:xlink="http://www.w3.org/1999/xlink" xml:space="preserve" xmlns:serif="http://www.serif.com/" style="fill-rule:evenodd;clip-rule:evenodd;stroke-linecap:square;stroke-linejoin:round;stroke-miterlimit:1;">
    <g id="Layer1">
    </g>
    <rect id="Post-it-note" serif:id="Post it note" x="0" y="0" width="623.538" height="465" style="fill:none;"/>
    <g id="Notes">
        <path d="M26.054,285.958L26.054,226.042L361.059,32.628L593.356,166.745L587.759,170.008L593.356,173.226L588.129,176.251L593.356,179.226L588.407,182.09L593.356,185.226L588.745,187.894L593.356,191.226L588.651,193.949L593.356,197.226L588.644,199.953L593.356,203.226L588.356,206.082L593.356,209.226L588.616,211.969L593.356,215.226L589.274,217.588L593.356,221.226L589.694,223.345L593.356,226.66L258.352,420.074L26.054,285.958Z" style="fill:rgb(255,217,0);stroke:black;stroke-width:3px;"/>
        <g>
            <path d="M593.356,173.226L258.352,367.074L26.054,232.888" style="fill:none;stroke:black;stroke-width:3px;stroke-linecap:round;"/>
            <path d="M593.356,166.745L258.352,361.359L26.054,227.664" style="fill:none;stroke:black;stroke-width:3px;stroke-linecap:round;"/>
            <path d="M593.356,179.226L258.352,373.074L26.054,238.888" style="fill:none;stroke:black;stroke-width:3px;stroke-linecap:round;"/>
            <path d="M593.356,185.226L258.352,379.074L26.054,244.888" style="fill:none;stroke:black;stroke-width:3px;stroke-linecap:round;"/>
            <path d="M593.356,191.226L258.352,385.074L26.054,250.888" style="fill:none;stroke:black;stroke-width:3px;stroke-linecap:round;"/>
            <path d="M593.356,197.226L258.352,391.074L26.054,256.888" style="fill:none;stroke:black;stroke-width:3px;stroke-linecap:round;"/>
            <path d="M593.356,203.226L258.352,397.074L26.054,262.888" style="fill:none;stroke:black;stroke-width:3px;stroke-linecap:round;"/>
            <path d="M593.356,209.226L258.352,403.074L26.054,268.888" style="fill:none;stroke:black;stroke-width:3px;stroke-linecap:round;"/>
            <path d="M593.356,215.226L258.352,409.074L26.054,274.888" style="fill:none;stroke:black;stroke-width:3px;stroke-linecap:round;"/>
            <path d="M593.356,221.226L258.352,415.074L26.054,280.888" style="fill:none;stroke:black;stroke-width:3px;stroke-linecap:round;"/>
        </g>
        <path id="shadow" d="M360.985,31.585L542.85,136.585L540.015,191.778L254.3,356.736L26.054,224.958L360.985,31.585Z" style="fill-opacity:0.2;"/>
        <path d="M360.985,32.585L414.073,63.236C451.623,85.021 494.999,105.524 541.6,125.316L541.6,185.935L259.166,348.998C194.429,320.035 134.22,289.126 78.551,256.267L26.054,225.958L360.985,32.585Z" style="fill:rgb(255,217,0);stroke:black;stroke-width:3px;"/>
        <path id="shadow1" serif:id="shadow" d="M541.6,125.618L541.6,185.935L489.364,155.776L541.6,125.618Z" style="fill-opacity:0.2;"/>
        <path d="M541.6,125.618L541.6,185.935L505.382,154.684L541.6,125.618Z" style="fill:rgb(255,232,102);stroke:black;stroke-width:3px;"/>
        <path d="M78.551,256.267L26.054,225.958L360.985,32.585L413.482,62.894" style="fill:rgb(247,210,0);stroke:black;stroke-width:3px;"/>
        <g>
            <path d="M297.478,256.197C297.591,256.59 297.931,256.946 298.498,257.263C299.065,257.581 299.605,257.904 300.119,258.232C300.632,258.56 300.994,258.899 301.203,259.249C301.413,259.598 301.22,259.969 300.626,260.36C300.761,260.557 300.89,260.639 301.011,260.607C301.133,260.574 301.422,260.624 301.879,260.756C301.378,261.016 301.141,261.256 301.169,261.474C301.197,261.692 301.132,261.921 300.974,262.161C299.965,262.508 298.777,262.647 297.409,262.579C296.041,262.511 294.642,262.36 293.214,262.128C291.786,261.896 290.376,261.62 288.983,261.301C287.591,260.982 286.342,260.734 285.235,260.557C285.035,260.469 284.998,260.393 285.123,260.327C285.248,260.262 285.354,260.197 285.44,260.132C284.797,260.021 284.128,259.856 283.432,259.637C282.736,259.417 282.088,259.295 281.488,259.272C279.222,257.282 276.877,255.188 274.451,252.99C272.026,250.792 269.557,248.567 267.046,246.314C264.535,244.062 261.999,241.798 259.438,239.524C256.876,237.249 254.342,235.029 251.834,232.864C253.136,232.474 254.503,232.139 255.937,231.858C257.371,231.578 258.852,231.395 260.381,231.311C261.911,231.227 263.484,231.274 265.102,231.452C266.72,231.63 268.35,231.994 269.991,232.543C270.233,232.718 270.262,232.816 270.076,232.837C269.89,232.859 269.868,232.935 270.011,233.066C270.454,233.089 270.745,233.122 270.884,233.166C271.023,233.21 271.141,233.27 271.237,233.347C271.333,233.424 271.481,233.506 271.681,233.593C271.881,233.681 272.227,233.747 272.72,233.792C272.527,233.879 272.464,233.971 272.531,234.07C272.599,234.168 272.511,234.25 272.268,234.315C273.111,234.513 273.703,234.721 274.045,234.94C274.387,235.159 274.663,235.383 274.873,235.613C275.084,235.842 275.34,236.067 275.643,236.285C275.946,236.504 276.479,236.713 277.243,236.911C277.129,236.998 277.087,237.074 277.119,237.14C277.151,237.205 277.203,237.271 277.274,237.336C277.345,237.402 277.397,237.467 277.429,237.533C277.461,237.598 277.394,237.664 277.23,237.729C278.614,238.234 279.954,238.787 281.249,239.39C282.544,239.993 283.863,240.607 285.208,241.231C286.553,241.856 287.964,242.475 289.441,243.089C290.918,243.703 292.531,244.274 294.279,244.801C294.263,243.318 293.636,241.849 292.397,240.396C291.159,238.942 289.538,237.51 287.535,236.098C285.532,234.687 283.254,233.274 280.7,231.862C278.147,230.449 275.551,229.009 272.912,227.542C272.678,227.061 272.255,226.575 271.642,226.082C271.029,225.59 270.362,225.109 269.642,224.638C268.922,224.168 268.19,223.691 267.445,223.21C266.7,222.728 266.092,222.247 265.622,221.766C266.238,221.418 266.937,221.202 267.72,221.116C268.502,221.03 269.313,220.983 270.153,220.974C270.993,220.965 271.809,220.928 272.602,220.865C273.396,220.801 274.125,220.606 274.791,220.28C276.191,220.414 277.525,220.553 278.792,220.698C280.06,220.842 281.326,221.123 282.589,221.54C282.917,221.89 283.337,222.229 283.85,222.558C284.364,222.886 284.87,223.22 285.369,223.559C285.868,223.898 286.281,224.243 286.609,224.592C286.936,224.942 287.117,225.314 287.152,225.706C288.564,226.429 289.833,227.141 290.96,227.842C292.087,228.542 293.203,229.221 294.308,229.878C295.413,230.535 296.583,231.203 297.817,231.882C299.05,232.561 300.481,233.24 302.108,233.92C303.298,234.752 304.497,235.621 305.705,236.529C306.914,237.437 308.095,238.231 309.25,238.91C309.455,239.652 309.949,240.384 310.733,241.106C311.516,241.827 312.286,242.56 313.041,243.303C313.097,243.5 313.049,243.581 312.895,243.548C312.742,243.515 312.525,243.575 312.246,243.727C312.724,243.902 312.961,244.067 312.957,244.219C312.953,244.372 313.322,244.526 314.065,244.68C313.977,245.225 314.072,245.782 314.349,246.35C314.625,246.917 314.816,247.491 314.922,248.069C315.027,248.647 314.873,249.198 314.461,249.721C314.048,250.243 313.069,250.732 311.525,251.187C308.323,251.464 304.989,251.511 301.524,251.33C298.06,251.148 294.399,250.605 290.544,249.703C290.407,249.986 290.517,250.292 290.873,250.62C291.229,250.948 291.625,251.276 292.06,251.604C292.494,251.932 292.879,252.238 293.214,252.523C293.549,252.807 293.602,253.036 293.373,253.21C293.765,253.451 294.069,253.714 294.286,253.998C294.503,254.282 294.727,254.561 294.959,254.834C295.19,255.107 295.495,255.369 295.872,255.621C296.25,255.873 296.786,256.065 297.478,256.197Z" style="fill-rule:nonzero;"/>
            <path d="M329.453,213.425C330.023,213.71 330.626,213.941 331.262,214.117C331.897,214.292 332.541,214.446 333.195,214.579C333.848,214.711 334.507,214.854 335.171,215.008C335.835,215.163 336.47,215.338 337.077,215.536C337.833,215.8 338.595,216.134 339.362,216.539C340.128,216.944 340.827,217.371 341.458,217.82C342.089,218.269 342.602,218.717 342.997,219.165C343.392,219.613 343.582,220.023 343.566,220.394C344.064,221.093 344.276,221.77 344.202,222.424C344.129,223.078 344.198,223.744 344.41,224.421C344.445,224.814 344.343,225.19 344.106,225.549C343.869,225.909 343.625,226.274 343.374,226.644C343.358,227.015 343.298,227.435 343.193,227.904C343.088,228.373 342.943,228.841 342.759,229.31C342.576,229.779 342.317,230.214 341.983,230.617C341.65,231.02 341.286,231.341 340.892,231.581C340.582,232.474 340.106,233.27 339.464,233.967C338.822,234.663 337.757,235.338 336.269,235.989C335.487,236.882 334.459,237.572 333.186,238.061C331.913,238.549 330.502,238.857 328.955,238.984C327.407,239.112 325.771,239.097 324.046,238.941C322.321,238.785 320.627,238.53 318.963,238.178C315.887,237.102 313.36,235.924 311.381,234.643C309.403,233.363 307.75,232.045 306.422,230.689C305.094,229.334 304.008,227.973 303.166,226.608C302.324,225.242 301.491,223.915 300.666,222.626C300.938,222.539 301.062,222.43 301.037,222.3C301.013,222.169 300.931,222.021 300.792,221.857C300.653,221.693 300.534,221.529 300.435,221.365C300.335,221.202 300.332,221.054 300.425,220.924C299.877,220.442 299.609,219.973 299.621,219.515C299.633,219.057 299.404,218.587 298.934,218.106C299.092,217.866 299.157,217.637 299.13,217.419C299.102,217.201 299.042,216.977 298.95,216.748C298.857,216.519 298.785,216.289 298.732,216.06C298.679,215.831 298.718,215.607 298.847,215.389L298.023,215.028C298.139,214.461 298.057,213.97 297.776,213.554C297.495,213.139 297.152,212.637 296.747,212.047C296.955,211.829 297.137,211.66 297.295,211.541C297.453,211.421 297.639,211.22 297.854,210.936C297.384,210.455 297.068,210.067 296.904,209.773C296.741,209.478 296.646,209.101 296.619,208.643C297.262,208.513 297.842,208.313 298.357,208.041C298.872,207.769 299.562,207.635 300.427,207.636C300.955,207.834 301.428,207.939 301.846,207.95C302.264,207.962 302.671,207.952 303.068,207.92C303.465,207.888 303.867,207.867 304.274,207.857C304.681,207.847 305.138,207.919 305.645,208.073C305.81,208.008 305.863,207.937 305.806,207.861C305.75,207.784 305.803,207.713 305.968,207.648C306.753,207.89 307.315,208.017 307.655,208.028C307.994,208.04 308.546,208.145 309.31,208.343C309.666,208.671 310.07,208.977 310.523,209.262C310.976,209.546 311.184,209.852 311.147,210.179C311.468,210.354 311.712,210.393 311.881,210.295C312.049,210.197 312.272,210.193 312.551,210.28C313.029,210.456 313.31,210.631 313.396,210.806C316.031,211.139 318.707,211.575 321.424,212.116C324.141,212.656 326.817,213.093 329.453,213.425ZM331.197,220.629C330.762,220.301 330.463,219.989 330.3,219.694C330.137,219.4 329.72,219.088 329.049,218.759C328.506,218.692 328.108,218.621 327.855,218.544C327.601,218.467 327.225,218.319 326.726,218.1C324.547,217.899 322.342,217.583 320.11,217.153C317.879,216.723 315.703,216.385 313.581,216.141C313.724,216.272 313.823,216.436 313.88,216.632C313.936,216.829 313.729,216.926 313.257,216.925C313.599,217.144 313.786,217.347 313.818,217.532C313.849,217.718 313.767,217.87 313.57,217.99C313.373,218.109 313.119,218.212 312.808,218.299C312.497,218.386 312.17,218.44 311.827,218.461C312.144,219.596 312.437,220.72 312.705,221.833C312.973,222.947 313.501,224.071 314.291,225.208C314.276,225.339 314.242,225.409 314.188,225.42C314.134,225.431 314.086,225.513 314.043,225.665C314.762,226.256 315.344,226.846 315.789,227.436C316.234,228.026 316.698,228.616 317.182,229.207C317.666,229.797 318.243,230.376 318.912,230.945C319.582,231.513 320.502,232.072 321.672,232.62C322.858,232.557 323.856,232.308 324.665,231.873C325.473,231.439 326.179,230.933 326.781,230.356C327.383,229.779 327.909,229.186 328.357,228.576C328.806,227.966 329.317,227.443 329.89,227.008C330.594,225.875 330.963,224.801 330.999,223.787C331.035,222.772 331.101,221.72 331.197,220.629Z" style="fill-rule:nonzero;"/>
            <path d="M340.779,188.577C340.062,189.121 339.376,189.747 338.72,190.454C338.064,191.162 337.434,191.864 336.832,192.561C336.409,193.062 335.982,193.536 335.552,193.982C335.121,194.428 334.716,194.826 334.337,195.174C335.235,195.809 336.008,196.388 336.657,196.913C337.305,197.438 337.914,197.963 338.484,198.488C339.104,199.035 339.758,199.571 340.445,200.096C341.133,200.621 341.89,201.168 342.717,201.737C343.23,202.306 343.73,202.808 344.218,203.246C344.706,203.683 345.317,204.132 346.052,204.592C346.457,205.182 346.986,205.723 347.638,206.215C348.29,206.707 348.873,207.118 349.386,207.446L350.113,207.971C350.241,208.233 350.378,208.414 350.524,208.512C350.67,208.611 350.761,208.736 350.796,208.889C351.317,209.152 351.766,209.469 352.143,209.841C352.336,209.994 352.53,210.131 352.726,210.251C352.922,210.372 353.07,210.454 353.17,210.498C353.67,210.717 353.923,210.914 353.929,211.088C354.208,211.176 354.47,211.291 354.716,211.434C354.962,211.576 355.195,211.713 355.416,211.844C355.93,212.173 356.376,212.403 356.754,212.534C357.04,212.557 357.293,212.574 357.515,212.585C357.736,212.596 357.986,212.646 358.264,212.734C358.636,212.691 358.89,212.648 359.026,212.605C359.29,212.583 359.637,212.53 360.066,212.443L361.202,212.478C362.793,213.005 363.813,213.608 364.261,214.285C364.78,215.028 364.524,215.791 363.493,216.574L362.977,216.966C362.584,216.965 362.298,216.942 362.12,216.898C361.741,217.007 361.429,217.093 361.186,217.158C360.943,217.223 360.614,217.233 360.2,217.189C359.528,217.34 358.977,217.459 358.548,217.545L357.787,217.675C357.238,217.434 356.938,217.302 356.888,217.28C356.238,217.235 355.588,217.13 354.938,216.965C354.289,216.8 353.661,216.619 353.054,216.421C352.547,216.267 352.058,216.13 351.587,216.009C351.116,215.888 350.673,215.805 350.259,215.761C347.305,214.532 345.015,213.338 343.39,212.179C341.765,211.019 340.229,209.881 338.782,208.765C338.012,208.153 337.23,207.535 336.436,206.911C335.641,206.288 334.78,205.669 333.853,205.057L333.491,204.434C332.893,203.931 332.396,203.515 332,203.187C331.605,202.859 331.204,202.52 330.798,202.17C330.534,201.951 330.276,201.744 330.023,201.547C329.77,201.35 329.547,201.175 329.355,201.022C329.183,201.152 329.038,201.277 328.919,201.397C328.801,201.517 328.695,201.642 328.602,201.773C328.48,201.925 328.36,202.061 328.242,202.181C328.123,202.301 327.993,202.415 327.849,202.524C327.649,202.676 327.48,202.774 327.345,202.817C327.279,203.166 327.06,203.482 326.688,203.765L326.258,204.091C326.172,204.157 326.081,204.211 325.984,204.254C325.887,204.298 325.81,204.341 325.753,204.385C325.467,204.602 325.312,204.809 325.29,205.006C324.946,205.267 323.872,206.083 323.872,206.083C323.815,206.126 323.755,206.186 323.694,206.262C323.633,206.338 323.574,206.398 323.517,206.442C323.316,206.594 323.064,206.741 322.76,206.882C322.456,207.023 322.05,207.137 321.542,207.223C320.399,207.133 319.746,207.121 319.581,207.186L318.295,207.085C317.967,206.976 317.637,206.882 317.305,206.805C316.973,206.728 316.603,206.634 316.196,206.524C315.582,206.392 314.938,206.238 314.263,206.062C313.589,205.886 312.852,205.623 312.053,205.272C311.682,205.075 311.44,204.9 311.326,204.747C311.212,204.594 311.109,204.463 311.016,204.353L310.022,203.762L310.655,203.371L311.859,202.457C312.775,201.761 313.644,201.026 314.465,200.254C315.286,199.481 316.123,198.681 316.976,197.853C317.449,197.374 317.929,196.89 318.417,196.4C318.904,195.91 319.413,195.404 319.944,194.882C319.609,194.597 319.299,194.324 319.014,194.061L319.069,193.571C319.535,193.157 320.013,192.929 320.502,192.886C320.992,192.844 321.433,192.823 321.826,192.824C322.357,192.301 322.882,191.768 323.402,191.223C323.921,190.679 324.411,190.113 324.87,189.525C325.595,188.675 326.351,187.832 327.14,186.993C327.929,186.155 328.782,185.388 329.699,184.691C330.1,184.387 330.512,184.104 330.934,183.843C331.356,183.582 331.775,183.354 332.19,183.159L333.144,183.062C333.53,183.129 333.927,183.157 334.334,183.147C334.741,183.137 335.156,183.121 335.577,183.1C336.47,183.08 337.464,183.104 338.557,183.172C339.65,183.24 340.877,183.624 342.24,184.325C342.61,184.763 342.787,185.047 342.773,185.177L343.285,185.866L342.78,186.159C342.608,186.29 342.488,186.426 342.42,186.568C342.351,186.709 342.296,186.856 342.252,187.009C342.237,187.14 342.21,187.265 342.17,187.385C342.131,187.505 342.064,187.63 341.971,187.761C341.713,187.957 341.493,188.109 341.31,188.218C341.128,188.327 340.95,188.446 340.779,188.577Z" style="fill-rule:nonzero;"/>
            <path d="M355.266,170.215C355.644,170.347 355.914,170.456 356.074,170.544C356.235,170.632 356.382,170.714 356.518,170.79C356.653,170.867 356.809,170.944 356.983,171.02C357.158,171.097 357.449,171.19 357.856,171.3C358.952,172.503 359.419,173.54 359.255,174.412C359.091,175.285 358.688,176.129 358.046,176.946C357.404,177.763 356.753,178.602 356.093,179.462C355.432,180.323 355.129,181.331 355.182,182.487C354.56,182.661 354.223,182.916 354.172,183.254C354.121,183.592 353.759,183.957 353.086,184.348C353.214,184.611 353.211,184.867 353.078,185.118C352.945,185.368 352.824,185.624 352.716,185.886C353.281,185.996 353.793,186.161 354.253,186.38C354.713,186.599 355.136,186.742 355.521,186.808C356.674,186.112 357.759,185.258 358.777,184.246C359.795,183.234 360.867,182.27 361.992,181.356C362.27,181.444 362.418,181.526 362.436,181.603C362.453,181.679 362.576,181.75 362.805,181.816C363.255,181.774 363.768,181.758 364.343,181.771C364.918,181.783 365.481,181.789 366.031,181.791C366.581,181.792 367.076,181.76 367.516,181.695C367.955,181.631 368.293,181.479 368.53,181.239C369.044,181.328 369.56,181.46 370.077,181.635C370.595,181.811 371.046,182.052 371.431,182.358C371.522,182.948 371.625,183.542 371.741,184.143C371.857,184.743 371.889,185.332 371.837,185.91C371.785,186.488 371.617,187.05 371.333,187.594C371.049,188.139 370.538,188.662 369.8,189.162C369.657,189.271 369.55,189.353 369.478,189.407C369.406,189.461 369.238,189.499 368.974,189.52C368.994,189.804 368.747,190.082 368.232,190.353C367.716,190.625 367.469,190.903 367.489,191.186C366.924,191.316 366.432,191.555 366.013,191.903C365.594,192.251 365.113,192.512 364.569,192.686C365.159,193.494 365.868,194.303 366.694,195.112C367.52,195.921 368.464,196.73 369.526,197.54C370.75,196.91 371.659,196.339 372.254,195.827C372.849,195.316 373.37,194.815 373.818,194.325C374.267,193.835 374.729,193.334 375.206,192.823C375.683,192.311 376.405,191.718 377.371,191.044C377.395,190.367 377.714,189.692 378.327,189.017C378.94,188.342 379.376,187.666 379.636,186.99C380.015,186.882 380.478,186.845 381.024,186.879C381.571,186.913 382.085,186.941 382.567,186.964C383.049,186.987 383.501,186.988 383.923,186.967C384.345,186.946 384.659,186.826 384.867,186.609C385.182,186.609 385.498,186.654 385.815,186.742C386.133,186.83 386.431,186.917 386.709,187.005C386.988,187.093 387.25,187.148 387.497,187.171C387.743,187.193 387.927,187.128 388.049,186.975C389.268,188.025 390.034,188.954 390.35,189.762C390.665,190.57 390.689,191.345 390.422,192.086C390.155,192.827 389.71,193.584 389.086,194.358C388.461,195.131 387.794,195.997 387.083,196.955C386.925,197.195 386.698,197.353 386.401,197.428C386.105,197.504 385.842,197.629 385.612,197.803C385.203,198.413 384.64,199.11 383.923,199.894C383.206,200.678 382.349,201.418 381.354,202.114C380.358,202.81 379.243,203.402 378.009,203.89C376.775,204.379 375.411,204.621 373.918,204.618C373.339,204.639 372.777,204.572 372.231,204.418C371.684,204.264 371.129,204.252 370.564,204.382C369.886,204.119 369.105,203.844 368.22,203.559C367.335,203.273 366.412,202.971 365.452,202.653C364.492,202.334 363.566,202.005 362.674,201.665C361.782,201.325 361.03,200.969 360.416,200.597C359.753,200.203 359.258,199.771 358.931,199.301C358.604,198.831 358.048,198.475 357.262,198.234C357.356,198.103 357.304,197.977 357.108,197.857C356.912,197.737 356.939,197.611 357.19,197.481C356.463,196.956 355.8,196.441 355.202,195.938C354.603,195.435 354.037,194.938 353.502,194.446C352.968,193.954 352.421,193.456 351.862,192.953C351.303,192.45 350.649,191.914 349.901,191.345C348.85,191.365 347.845,191.275 346.885,191.077C345.924,190.879 345.014,190.642 344.154,190.368C343.294,190.093 342.423,189.797 341.542,189.478C340.661,189.16 339.724,188.869 338.731,188.605C338.269,188.059 338.008,187.524 337.949,187C337.89,186.476 337.954,185.964 338.142,185.462C338.329,184.961 338.609,184.449 338.983,183.926C339.356,183.403 339.733,182.847 340.114,182.259C340.611,181.104 341.136,180.107 341.688,179.268C342.241,178.429 342.843,177.628 343.492,176.866C344.141,176.104 344.838,175.32 345.584,174.514C346.33,173.709 347.105,172.761 347.909,171.672C348.616,171.674 349.084,171.587 349.314,171.413C348.979,171.129 348.977,170.965 349.31,170.922C349.642,170.879 349.569,170.77 349.091,170.595C350.227,170.75 351.304,170.785 352.322,170.7C353.341,170.614 354.322,170.453 355.266,170.215Z" style="fill-rule:nonzero;"/>
            <path d="M363.387,174.192C362.539,173.579 361.963,172.94 361.658,172.274C361.353,171.608 361.203,170.958 361.209,170.326C361.214,169.693 361.329,169.082 361.552,168.494C361.776,167.905 362.021,167.36 362.287,166.859C362.584,165.616 362.997,164.33 363.527,163C364.056,161.67 364.702,160.357 365.464,159.06C366.225,157.764 367.235,156.533 368.493,155.369C369.751,154.204 371.567,153.199 373.942,152.353C374.528,152.507 375.131,152.617 375.752,152.684C376.374,152.751 377.002,152.812 377.638,152.868C378.274,152.924 378.876,152.991 379.443,153.068C380.011,153.146 380.534,153.272 381.012,153.448C381.748,153.428 382.465,153.467 383.161,153.567C383.857,153.667 384.573,153.946 385.307,154.406C385.42,154.799 385.503,155.17 385.555,155.519C385.608,155.869 385.601,156.218 385.536,156.567C384.026,157.174 382.802,157.924 381.863,158.817C380.924,159.71 380.074,160.504 379.315,161.201C378.607,161.199 378.074,161.334 377.716,161.606C377.358,161.878 377.085,162.205 376.898,162.586C376.711,162.968 376.524,163.349 376.337,163.731C376.15,164.112 375.835,164.411 375.391,164.629C375.504,165.022 375.415,165.403 375.125,165.774C374.834,166.144 374.495,166.536 374.108,166.95C374.329,167.081 374.52,167.13 374.681,167.098C374.842,167.066 375.018,167.126 375.211,167.279C375.732,167.302 376.204,167.243 376.626,167.102C377.048,166.961 377.485,166.809 377.935,166.647C378.386,166.484 378.838,166.365 379.292,166.29C379.746,166.214 380.266,166.254 380.851,166.408C381.281,166.081 381.828,165.875 382.493,165.789C383.158,165.703 383.84,165.694 384.54,165.761C385.24,165.828 385.928,165.949 386.602,166.125C387.277,166.301 387.839,166.488 388.288,166.685C388.774,166.795 389.049,166.796 389.114,166.687C389.178,166.578 389.407,166.524 389.8,166.525C390.535,166.744 391.412,166.872 392.43,166.907C393.448,166.942 394.457,167.058 395.457,167.257C396.763,167.761 397.917,168.217 398.919,168.622C399.922,169.028 400.808,169.537 401.578,170.15C402.996,171.287 404.049,172.462 404.738,173.675C405.427,174.887 405.854,176.104 406.018,177.326C406.181,178.549 406.118,179.748 405.829,180.926C405.539,182.104 405.153,183.205 404.671,184.229C404.506,184.294 404.392,184.381 404.327,184.49C404.262,184.599 404.109,184.566 403.867,184.391C403.987,184.718 403.961,185.007 403.789,185.258C403.616,185.509 403.36,185.748 403.02,185.976C402.68,186.205 402.32,186.433 401.94,186.661C401.561,186.89 401.278,187.135 401.091,187.396C400.541,187.395 400.025,187.383 399.543,187.36C399.061,187.337 398.527,187.249 397.941,187.095C397.798,187.203 397.609,187.198 397.373,187.077C397.138,186.957 396.963,186.94 396.848,187.027C396.521,186.677 396.312,186.491 396.223,186.469C396.134,186.447 396.029,186.452 395.907,186.485C395.785,186.517 395.659,186.539 395.526,186.55C395.394,186.56 395.267,186.522 395.146,186.434C394.861,186.172 394.442,185.936 393.889,185.728C393.336,185.519 392.771,185.306 392.193,185.086C391.615,184.867 391.112,184.62 390.684,184.347C390.256,184.073 390.064,183.74 390.108,183.347C391.282,182.695 392.144,181.966 392.693,181.16C393.243,180.354 393.604,179.525 393.779,178.675C393.953,177.824 394.042,176.979 394.044,176.139C394.047,175.299 394.118,174.498 394.256,173.734C393.893,173.472 393.64,173.215 393.498,172.963C393.356,172.712 393.246,172.467 393.168,172.226C393.09,171.986 392.973,171.746 392.817,171.506C392.66,171.265 392.386,171.025 391.994,170.784C391.673,170.609 391.41,170.554 391.207,170.619C391.003,170.684 390.751,170.65 390.451,170.519L389.754,170.779C388.66,170.951 387.582,171.216 386.52,171.574C385.458,171.932 384.458,172.197 383.521,172.37C383.506,172.74 383.287,172.996 382.865,173.137C382.443,173.278 381.942,173.479 381.363,173.739C380.289,174.435 379.175,175.071 378.023,175.647C376.871,176.223 375.555,176.683 374.074,177.029C373.767,176.963 373.471,176.919 373.185,176.897C372.899,176.874 372.692,176.972 372.563,177.19C371.991,177.145 371.432,177.106 370.886,177.072C370.339,177.038 369.77,176.977 369.177,176.888C368.635,176.582 368.166,176.324 367.77,176.116C367.374,175.908 366.876,175.792 366.276,175.769C365.741,175.397 365.303,175.102 364.961,174.883C364.618,174.664 364.094,174.434 363.387,174.192Z" style="fill-rule:nonzero;"/>
        </g>
    </g>
</svg>
