<?xml version="1.0" encoding="UTF-8" standalone="no"?><!DOCTYPE svg PUBLIC "-//W3C//DTD SVG 1.1//EN" "http://www.w3.org/Graphics/SVG/1.1/DTD/svg11.dtd"><svg width="100%" height="100%" viewBox="0 0 20 20" version="1.1" xmlns="http://www.w3.org/2000/svg" xmlns:xlink="http://www.w3.org/1999/xlink" xml:space="preserve" xmlns:serif="http://www.serif.com/" style="fill-rule:evenodd;clip-rule:evenodd;stroke-linejoin:round;stroke-miterlimit:2;"><path d="M9.998,19.995c-1.379,0 -2.673,-0.259 -3.882,-0.778c-1.209,-0.52 -2.271,-1.237 -3.186,-2.152c-0.915,-0.915 -1.632,-1.977 -2.151,-3.186c-0.519,-1.208 -0.779,-2.502 -0.779,-3.881c0,-0.344 0.121,-0.639 0.364,-0.883c0.243,-0.245 0.537,-0.367 0.881,-0.367c0.347,-0 0.642,0.122 0.885,0.367c0.243,0.244 0.365,0.539 0.365,0.883c-0,1.035 0.194,2.006 0.582,2.913c0.388,0.908 0.926,1.705 1.614,2.393c0.688,0.688 1.486,1.226 2.393,1.614c0.907,0.389 1.879,0.583 2.914,0.583c1.038,-0 2.011,-0.194 2.918,-0.583c0.907,-0.388 1.704,-0.926 2.391,-1.614c0.686,-0.688 1.223,-1.485 1.611,-2.393c0.389,-0.907 0.583,-1.878 0.583,-2.913c-0,-1.039 -0.194,-2.011 -0.583,-2.919c-0.388,-0.907 -0.925,-1.704 -1.611,-2.39c-0.687,-0.687 -1.484,-1.224 -2.391,-1.612c-0.907,-0.388 -1.88,-0.582 -2.918,-0.582c-0.341,-0 -0.634,-0.123 -0.878,-0.367c-0.245,-0.245 -0.367,-0.539 -0.367,-0.883c-0,-0.344 0.122,-0.638 0.367,-0.881c0.244,-0.243 0.537,-0.364 0.878,-0.364c1.382,-0 2.677,0.258 3.886,0.774c1.209,0.516 2.271,1.233 3.186,2.151c0.915,0.919 1.632,1.982 2.151,3.191c0.519,1.209 0.779,2.503 0.779,3.882c0,1.379 -0.26,2.673 -0.779,3.881c-0.519,1.209 -1.236,2.271 -2.151,3.186c-0.915,0.915 -1.977,1.632 -3.186,2.152c-1.209,0.519 -2.504,0.778 -3.886,0.778Zm-9.695,-14.016l-0,-4.19c-0,-0.902 0.451,-1.353 1.354,-1.353l4.199,0.009c0.29,-0 0.537,0.103 0.74,0.31c0.204,0.207 0.306,0.457 0.306,0.75c-0,0.284 -0.104,0.532 -0.31,0.744c-0.207,0.211 -0.452,0.317 -0.736,0.317c-0.146,-0 -0.335,-0.003 -0.568,-0.007c-0.234,-0.005 -0.483,-0.015 -0.748,-0.029c-0.265,-0.014 -0.521,-0.035 -0.767,-0.064l1.524,1.293l4.625,4.615c0.252,0.256 0.379,0.547 0.379,0.876c-0,0.344 -0.114,0.632 -0.341,0.864c-0.227,0.232 -0.513,0.344 -0.857,0.338c-0.331,-0.006 -0.62,-0.134 -0.866,-0.383l-4.644,-4.644l-1.255,-1.51c0.023,0.233 0.039,0.483 0.05,0.748c0.011,0.265 0.019,0.516 0.024,0.755c0.005,0.238 0.007,0.425 0.007,0.561c-0,0.296 -0.105,0.546 -0.315,0.75c-0.21,0.204 -0.457,0.305 -0.741,0.305c-0.293,0 -0.543,-0.101 -0.75,-0.305c-0.207,-0.204 -0.31,-0.454 -0.31,-0.75Z"/></svg>