<?xml version="1.0" encoding="UTF-8" standalone="no"?><!DOCTYPE svg PUBLIC "-//W3C//DTD SVG 1.1//EN" "http://www.w3.org/Graphics/SVG/1.1/DTD/svg11.dtd"><svg width="100%" height="100%" viewBox="0 0 20 20" version="1.1" xmlns="http://www.w3.org/2000/svg" xmlns:xlink="http://www.w3.org/1999/xlink" xml:space="preserve" xmlns:serif="http://www.serif.com/" style="fill-rule:evenodd;clip-rule:evenodd;stroke-linejoin:round;stroke-miterlimit:2;"><path d="M1.764,5.783c-0.557,-0 -0.991,-0.157 -1.3,-0.469c-0.309,-0.313 -0.464,-0.759 -0.464,-1.336l-0,-2.173c-0,-0.571 0.155,-1.015 0.464,-1.331c0.309,-0.316 0.743,-0.474 1.3,-0.474l2.254,0c0.558,0 0.991,0.158 1.301,0.474c0.309,0.316 0.464,0.76 0.464,1.331l-0,2.173c-0,0.577 -0.155,1.023 -0.464,1.336c-0.31,0.312 -0.743,0.469 -1.301,0.469l-2.254,-0Zm0.194,-1.397l1.867,-0c0.176,-0 0.314,-0.048 0.413,-0.143c0.098,-0.095 0.148,-0.242 0.148,-0.439l-0,-1.825c-0,-0.191 -0.05,-0.334 -0.148,-0.429c-0.099,-0.095 -0.237,-0.143 -0.413,-0.143l-1.867,0c-0.183,0 -0.321,0.048 -0.413,0.143c-0.092,0.095 -0.138,0.238 -0.138,0.429l0,1.825c0,0.197 0.046,0.344 0.138,0.439c0.092,0.095 0.23,0.143 0.413,0.143Zm6.905,1.397c-0.558,-0 -0.989,-0.157 -1.295,-0.469c-0.306,-0.313 -0.459,-0.759 -0.459,-1.336l-0,-2.173c-0,-0.571 0.153,-1.015 0.459,-1.331c0.306,-0.316 0.737,-0.474 1.295,-0.474l2.264,0c0.558,0 0.989,0.158 1.295,0.474c0.306,0.316 0.459,0.76 0.459,1.331l0,2.173c0,0.577 -0.153,1.023 -0.459,1.336c-0.306,0.312 -0.737,0.469 -1.295,0.469l-2.264,-0Zm0.194,-1.397l1.876,-0c0.177,-0 0.313,-0.048 0.408,-0.143c0.095,-0.095 0.143,-0.242 0.143,-0.439l-0,-1.825c-0,-0.191 -0.048,-0.334 -0.143,-0.429c-0.095,-0.095 -0.231,-0.143 -0.408,-0.143l-1.876,0c-0.184,0 -0.322,0.048 -0.413,0.143c-0.092,0.095 -0.138,0.238 -0.138,0.429l-0,1.825c-0,0.197 0.046,0.344 0.138,0.439c0.091,0.095 0.229,0.143 0.413,0.143Zm6.925,1.397c-0.558,-0 -0.991,-0.157 -1.301,-0.469c-0.309,-0.313 -0.464,-0.759 -0.464,-1.336l0,-2.173c0,-0.571 0.155,-1.015 0.464,-1.331c0.31,-0.316 0.743,-0.474 1.301,-0.474l2.254,0c0.557,0 0.991,0.158 1.3,0.474c0.309,0.316 0.464,0.76 0.464,1.331l0,2.173c0,0.577 -0.155,1.023 -0.464,1.336c-0.309,0.312 -0.743,0.469 -1.3,0.469l-2.254,-0Zm0.193,-1.397l1.867,-0c0.177,-0 0.313,-0.048 0.408,-0.143c0.095,-0.095 0.143,-0.242 0.143,-0.439l-0,-1.825c-0,-0.191 -0.048,-0.334 -0.143,-0.429c-0.095,-0.095 -0.231,-0.143 -0.408,-0.143l-1.867,0c-0.183,0 -0.323,0.048 -0.418,0.143c-0.095,0.095 -0.143,0.238 -0.143,0.429l0,1.825c0,0.197 0.048,0.344 0.143,0.439c0.095,0.095 0.235,0.143 0.418,0.143Zm-14.411,8.301c-0.557,0 -0.991,-0.156 -1.3,-0.469c-0.309,-0.313 -0.464,-0.754 -0.464,-1.326l-0,-2.182c-0,-0.578 0.155,-1.023 0.464,-1.336c0.309,-0.313 0.743,-0.469 1.3,-0.469l2.254,-0c0.558,-0 0.991,0.156 1.301,0.469c0.309,0.313 0.464,0.758 0.464,1.336l-0,2.182c-0,0.572 -0.155,1.013 -0.464,1.326c-0.31,0.313 -0.743,0.469 -1.301,0.469l-2.254,0Zm0.194,-1.397l1.867,0c0.176,0 0.314,-0.049 0.413,-0.148c0.098,-0.098 0.148,-0.243 0.148,-0.433l-0,-1.836c-0,-0.184 -0.05,-0.325 -0.148,-0.423c-0.099,-0.099 -0.237,-0.148 -0.413,-0.148l-1.867,-0c-0.183,-0 -0.321,0.049 -0.413,0.148c-0.092,0.098 -0.138,0.239 -0.138,0.423l0,1.836c0,0.19 0.046,0.335 0.138,0.433c0.092,0.099 0.23,0.148 0.413,0.148Zm14.024,1.397c-0.558,0 -0.991,-0.156 -1.301,-0.469c-0.309,-0.313 -0.464,-0.754 -0.464,-1.326l0,-2.182c0,-0.578 0.155,-1.023 0.464,-1.336c0.31,-0.313 0.743,-0.469 1.301,-0.469l2.254,-0c0.557,-0 0.991,0.156 1.3,0.469c0.309,0.313 0.464,0.758 0.464,1.336l0,2.182c0,0.572 -0.155,1.013 -0.464,1.326c-0.309,0.313 -0.743,0.469 -1.3,0.469l-2.254,0Zm0.193,-1.397l1.867,0c0.177,0 0.313,-0.049 0.408,-0.148c0.095,-0.098 0.143,-0.243 0.143,-0.433l-0,-1.836c-0,-0.184 -0.048,-0.325 -0.143,-0.423c-0.095,-0.099 -0.231,-0.148 -0.408,-0.148l-1.867,-0c-0.183,-0 -0.323,0.049 -0.418,0.148c-0.095,0.098 -0.143,0.239 -0.143,0.423l0,1.836c0,0.19 0.048,0.335 0.143,0.433c0.095,0.099 0.235,0.148 0.418,0.148Zm-14.411,8.302c-0.557,0 -0.991,-0.156 -1.3,-0.469c-0.309,-0.313 -0.464,-0.758 -0.464,-1.336l-0,-2.173c-0,-0.577 0.155,-1.023 0.464,-1.336c0.309,-0.312 0.743,-0.469 1.3,-0.469l2.254,0c0.558,0 0.991,0.157 1.301,0.469c0.309,0.313 0.464,0.759 0.464,1.336l-0,2.173c-0,0.578 -0.155,1.023 -0.464,1.336c-0.31,0.313 -0.743,0.469 -1.301,0.469l-2.254,0Zm0.194,-1.407l1.867,-0c0.176,-0 0.314,-0.048 0.413,-0.143c0.098,-0.095 0.148,-0.238 0.148,-0.429l-0,-1.825c-0,-0.197 -0.05,-0.343 -0.148,-0.439c-0.099,-0.095 -0.237,-0.142 -0.413,-0.142l-1.867,-0c-0.183,-0 -0.321,0.047 -0.413,0.142c-0.092,0.096 -0.138,0.242 -0.138,0.439l0,1.825c0,0.191 0.046,0.334 0.138,0.429c0.092,0.095 0.23,0.143 0.413,0.143Zm6.905,1.407c-0.558,0 -0.989,-0.156 -1.295,-0.469c-0.306,-0.313 -0.459,-0.758 -0.459,-1.336l-0,-2.173c-0,-0.577 0.153,-1.023 0.459,-1.336c0.306,-0.312 0.737,-0.469 1.295,-0.469l2.264,0c0.558,0 0.989,0.157 1.295,0.469c0.306,0.313 0.459,0.759 0.459,1.336l0,2.173c0,0.578 -0.153,1.023 -0.459,1.336c-0.306,0.313 -0.737,0.469 -1.295,0.469l-2.264,0Zm0.194,-1.407l1.876,-0c0.177,-0 0.313,-0.048 0.408,-0.143c0.095,-0.095 0.143,-0.238 0.143,-0.429l-0,-1.825c-0,-0.197 -0.048,-0.343 -0.143,-0.439c-0.095,-0.095 -0.231,-0.142 -0.408,-0.142l-1.876,-0c-0.184,-0 -0.322,0.047 -0.413,0.142c-0.092,0.096 -0.138,0.242 -0.138,0.439l-0,1.825c-0,0.191 0.046,0.334 0.138,0.429c0.091,0.095 0.229,0.143 0.413,0.143Zm6.925,1.407c-0.558,0 -0.991,-0.156 -1.301,-0.469c-0.309,-0.313 -0.464,-0.758 -0.464,-1.336l0,-2.173c0,-0.577 0.155,-1.023 0.464,-1.336c0.31,-0.312 0.743,-0.469 1.301,-0.469l2.254,0c0.557,0 0.991,0.157 1.3,0.469c0.309,0.313 0.464,0.759 0.464,1.336l0,2.173c0,0.578 -0.155,1.023 -0.464,1.336c-0.309,0.313 -0.743,0.469 -1.3,0.469l-2.254,0Zm0.193,-1.407l1.867,-0c0.177,-0 0.313,-0.048 0.408,-0.143c0.095,-0.095 0.143,-0.238 0.143,-0.429l-0,-1.825c-0,-0.197 -0.048,-0.343 -0.143,-0.439c-0.095,-0.095 -0.231,-0.142 -0.408,-0.142l-1.867,-0c-0.183,-0 -0.323,0.047 -0.418,0.142c-0.095,0.096 -0.143,0.242 -0.143,0.439l0,1.825c0,0.191 0.048,0.334 0.143,0.429c0.095,0.095 0.235,0.143 0.418,0.143Zm-7.312,-5.498c-0.558,0 -0.989,-0.156 -1.295,-0.469c-0.306,-0.313 -0.459,-0.754 -0.459,-1.326l-0,-2.182c-0,-0.578 0.153,-1.023 0.459,-1.336c0.306,-0.313 0.737,-0.469 1.295,-0.469l2.264,-0c0.558,-0 0.989,0.156 1.295,0.469c0.306,0.313 0.459,0.758 0.459,1.336l0,2.182c0,0.572 -0.153,1.013 -0.459,1.326c-0.306,0.313 -0.737,0.469 -1.295,0.469l-2.264,0Zm0.194,-1.397l1.876,0c0.177,0 0.313,-0.049 0.408,-0.148c0.095,-0.098 0.143,-0.243 0.143,-0.433l-0,-1.836c-0,-0.184 -0.048,-0.325 -0.143,-0.423c-0.095,-0.099 -0.231,-0.148 -0.408,-0.148l-1.876,-0c-0.184,-0 -0.322,0.049 -0.413,0.148c-0.092,0.098 -0.138,0.239 -0.138,0.423l-0,1.836c-0,0.19 0.046,0.335 0.138,0.433c0.091,0.099 0.229,0.148 0.413,0.148Z"/></svg>