<?xml version="1.0" encoding="UTF-8" standalone="no"?><!DOCTYPE svg PUBLIC "-//W3C//DTD SVG 1.1//EN" "http://www.w3.org/Graphics/SVG/1.1/DTD/svg11.dtd"><svg width="28" height="28" viewBox="0 0 20 20" version="1.1" xmlns="http://www.w3.org/2000/svg" xmlns:xlink="http://www.w3.org/1999/xlink" xml:space="preserve" xmlns:serif="http://www.serif.com/" style="fill-rule:evenodd;clip-rule:evenodd;stroke-linejoin:round;stroke-miterlimit:2;"><path d="M0,8.306c0,-1.144 0.215,-2.219 0.646,-3.223c0.431,-1.005 1.027,-1.889 1.788,-2.651c0.761,-0.763 1.644,-1.359 2.649,-1.788c1.004,-0.429 2.08,-0.644 3.228,-0.644c1.147,-0 2.222,0.215 3.225,0.644c1.003,0.429 1.886,1.025 2.649,1.788c0.763,0.762 1.36,1.646 1.79,2.651c0.431,1.004 0.646,2.079 0.646,3.223c0,0.805 -0.112,1.576 -0.337,2.313c-0.226,0.737 -0.539,1.416 -0.94,2.037l3.916,3.936c0.194,0.194 0.338,0.412 0.432,0.653c0.093,0.242 0.14,0.494 0.14,0.757c0,0.375 -0.085,0.714 -0.256,1.016c-0.171,0.303 -0.406,0.542 -0.705,0.718c-0.3,0.176 -0.64,0.264 -1.021,0.264c-0.267,-0 -0.525,-0.047 -0.775,-0.141c-0.25,-0.093 -0.472,-0.235 -0.666,-0.426l-3.96,-3.966c-0.602,0.362 -1.252,0.644 -1.951,0.846c-0.699,0.202 -1.428,0.304 -2.187,0.304c-1.148,-0 -2.224,-0.215 -3.228,-0.644c-1.005,-0.429 -1.888,-1.025 -2.649,-1.788c-0.761,-0.763 -1.357,-1.647 -1.788,-2.651c-0.431,-1.005 -0.646,-2.081 -0.646,-3.228Zm2.698,-0c-0,0.776 0.145,1.502 0.434,2.18c0.289,0.677 0.692,1.273 1.208,1.788c0.517,0.514 1.113,0.917 1.791,1.208c0.677,0.291 1.402,0.437 2.175,0.437c0.776,-0 1.502,-0.146 2.18,-0.437c0.677,-0.291 1.273,-0.694 1.788,-1.208c0.514,-0.515 0.917,-1.111 1.208,-1.788c0.291,-0.678 0.437,-1.404 0.437,-2.18c-0,-0.773 -0.146,-1.498 -0.437,-2.175c-0.291,-0.678 -0.694,-1.274 -1.208,-1.791c-0.515,-0.516 -1.111,-0.919 -1.788,-1.208c-0.678,-0.289 -1.404,-0.434 -2.18,-0.434c-0.773,-0 -1.498,0.145 -2.175,0.434c-0.678,0.289 -1.274,0.692 -1.791,1.208c-0.516,0.517 -0.919,1.113 -1.208,1.791c-0.289,0.677 -0.434,1.402 -0.434,2.175Z" fill="currentColor"/></svg>