<?xml version="1.0" encoding="UTF-8" standalone="no"?>
<!DOCTYPE svg PUBLIC "-//W3C//DTD SVG 1.1//EN" "http://www.w3.org/Graphics/SVG/1.1/DTD/svg11.dtd">
<svg width="100%" height="100%" viewBox="0 0 496 188" version="1.1" xmlns="http://www.w3.org/2000/svg" xmlns:xlink="http://www.w3.org/1999/xlink" xml:space="preserve" xmlns:serif="http://www.serif.com/" style="fill-rule:evenodd;clip-rule:evenodd;stroke-linecap:round;stroke-linejoin:round;stroke-miterlimit:1;">
    <g id="Layer1">
    </g>
    <rect id="Apple-TV" serif:id="Apple TV" x="0" y="-0" width="495.614" height="187.807" style="fill:none;"/>
    <path d="M343.886,72.824L343.91,72.811L343.91,114.311L343.886,114.324C343.635,117.865 341.349,121.215 336.952,123.754L266.482,164.44C256.175,170.391 238.144,169.643 226.243,162.772L161.551,125.422C154.697,121.465 151.361,116.334 151.732,111.558L151.704,111.542L151.704,70.042L151.732,70.058C152.006,66.54 154.29,63.214 158.662,60.69L229.132,20.004C239.439,14.053 257.469,14.8 269.371,21.672L334.063,59.022C340.887,62.962 344.224,68.065 343.886,72.824Z" style="fill:rgb(21,21,21);stroke:black;stroke-width:1px;"/>
    <path d="M265.304,165.074C254.997,171.025 238.144,169.643 226.243,162.772L161.551,125.422C154.697,121.465 151.361,116.334 151.732,111.558L151.704,111.542L151.704,70.042L151.732,70.058C152.006,66.54 154.29,63.214 158.662,60.69L229.132,20.004C239.439,14.053 257.469,14.8 269.371,21.672" style="fill:white;fill-opacity:0.05;stroke:black;stroke-width:1px;"/>
    <path d="M224.739,161.904L161.551,125.422C154.697,121.465 151.361,116.334 151.732,111.558L151.704,111.542L151.704,70.042L151.732,70.058C152.006,66.54 154.29,63.214 158.662,60.69L229.132,20.004" style="fill:white;fill-opacity:0.05;stroke:black;stroke-width:1px;"/>
    <path d="M269.371,21.672L334.063,59.022C345.965,65.893 347.259,76.303 336.952,82.254L266.482,122.94C256.175,128.891 238.144,128.143 226.243,121.272L161.551,83.922C149.649,77.05 148.355,66.641 158.662,60.69L229.132,20.004C239.439,14.053 257.469,14.8 269.371,21.672Z" style="fill:rgb(44,44,44);stroke:black;stroke-width:1px;"/>
    <path d="M266.482,122.94C256.175,128.891 238.144,128.143 226.243,121.272L161.551,83.922C149.649,77.05 148.355,66.641 158.662,60.69L229.132,20.004C239.439,14.053 257.469,14.8 269.371,21.672" style="fill:white;fill-opacity:0.05;stroke:black;stroke-width:1px;"/>
    <path d="M226.243,121.272L161.551,83.922C149.649,77.05 148.355,66.641 158.662,60.69L229.132,20.004" style="fill:white;fill-opacity:0.05;stroke:black;stroke-width:1px;"/>
    <path d="M263.514,70.064C263.771,70.212 264.144,70.458 264.635,70.803C265.125,71.147 265.612,71.582 266.095,72.108C266.578,72.633 266.943,73.24 267.19,73.93C267.437,74.62 267.439,75.387 267.197,76.233C267.1,76.218 266.711,76.178 266.03,76.113C265.348,76.048 264.488,76.026 263.447,76.048C262.407,76.071 261.289,76.212 260.093,76.472C258.897,76.732 257.73,77.191 256.593,77.848C255.289,78.6 254.423,79.372 253.993,80.164C253.562,80.955 253.384,81.693 253.456,82.378C253.528,83.063 253.684,83.621 253.924,84.054C254.164,84.487 254.297,84.717 254.322,84.745C254.262,84.766 253.907,84.865 253.256,85.043C252.605,85.222 251.723,85.424 250.61,85.65C249.497,85.877 248.245,86.06 246.853,86.2C245.605,86.314 244.371,86.402 243.152,86.465C241.933,86.527 240.786,86.491 239.711,86.356C238.637,86.222 237.691,85.918 236.872,85.445C236.249,85.086 235.789,84.738 235.491,84.402C235.193,84.066 234.938,83.73 234.725,83.395C234.511,83.059 234.237,82.713 233.903,82.356C233.569,81.999 233.047,81.616 232.339,81.207C231.41,80.67 230.522,80.291 229.674,80.068C228.826,79.845 228.008,79.644 227.222,79.463C226.435,79.282 225.669,78.977 224.923,78.547C223.787,77.891 223.221,77.064 223.225,76.068C223.228,75.071 223.388,73.959 223.704,72.733C223.98,71.77 224.464,70.757 225.158,69.693C225.851,68.63 226.738,67.589 227.818,66.57C228.897,65.552 230.148,64.632 231.57,63.811C233.845,62.498 236.214,61.645 238.675,61.254C241.137,60.862 243.47,60.834 245.675,61.17C247.879,61.505 249.733,62.107 251.236,62.975C252.03,63.433 252.642,63.944 253.072,64.507C253.502,65.07 253.889,65.604 254.233,66.111C254.577,66.618 255,67.016 255.501,67.305C255.977,67.58 256.673,67.827 257.587,68.047C258.501,68.267 259.488,68.526 260.549,68.824C261.609,69.121 262.598,69.535 263.514,70.064ZM265.111,67.661C263.777,67.725 262.412,67.628 261.016,67.369C259.619,67.11 258.512,66.744 257.693,66.272C257.522,66.173 257.375,66.068 257.252,65.955C257.287,65.921 257.355,65.864 257.455,65.785C257.555,65.706 257.676,65.626 257.818,65.544C258.719,65.024 259.797,64.634 261.053,64.374C262.31,64.114 263.485,63.972 264.579,63.947C265.973,63.89 267.417,64.005 268.91,64.293C270.403,64.58 271.626,64.978 272.578,65.487C272.413,65.624 272.2,65.768 271.94,65.919C271.027,66.445 269.965,66.854 268.751,67.146C267.538,67.437 266.324,67.609 265.111,67.661Z" style="fill-rule:nonzero;"/>
</svg>
