<?xml version="1.0" encoding="UTF-8" standalone="no"?>
<!DOCTYPE svg PUBLIC "-//W3C//DTD SVG 1.1//EN" "http://www.w3.org/Graphics/SVG/1.1/DTD/svg11.dtd">
<svg width="100%" height="100%" viewBox="0 0 794 397" version="1.1" xmlns="http://www.w3.org/2000/svg" xmlns:xlink="http://www.w3.org/1999/xlink" xml:space="preserve" xmlns:serif="http://www.serif.com/" style="fill-rule:evenodd;clip-rule:evenodd;stroke-linecap:square;stroke-linejoin:round;stroke-miterlimit:1;">
    <g id="Layer1">
    </g>
    <rect id="Apple-Watch" serif:id="Apple Watch" x="0" y="0" width="793.614" height="396.807" style="fill:none;"/>
    <path d="M651.083,79.077C650.623,84.607 646.739,90.059 639.432,94.278C638.928,94.569 638.415,94.85 637.892,95.122L411.798,225.811L410.259,224.477L359.541,195.055L354.08,193.764L583.897,61.079L583.914,61.089C599.575,52.646 624.164,52.833 639.432,61.647C641.724,62.971 643.68,64.416 645.299,65.947L651.083,69.286L651.083,76.848C651.145,77.591 651.145,78.335 651.083,79.077Z" style="fill:rgb(204,0,0);stroke:black;stroke-width:1.11px;"/>
    <path d="M583.914,53.759C599.575,45.316 624.164,45.502 639.432,54.317C655.028,63.322 655.028,77.943 639.432,86.948C638.928,87.239 638.415,87.52 637.892,87.792L503.779,165.375L502.241,164.041L451.522,134.619L446.061,133.328L583.897,53.749L583.914,53.759Z" style="fill:rgb(255,0,7);stroke:black;stroke-width:1.11px;"/>
    <path d="M358.061,187.804L358.061,164.147L358.064,164.148C358.155,159.954 360.744,155.961 365.93,152.967L420.847,121.261C432.504,114.531 452.897,115.376 466.358,123.148L499.954,142.544C507.193,146.724 510.963,152.061 511.087,157.149L511.091,157.147L511.091,180.805L511.087,180.806C511.195,185.179 508.61,189.367 503.222,192.478L448.305,224.184C436.648,230.914 416.255,230.069 402.794,222.297L369.198,202.9C361.726,198.586 357.95,193.039 358.064,187.806L358.061,187.804Z" style="fill:rgb(213,216,219);stroke:black;stroke-width:1px;"/>
    <path d="M428.328,223.25L428.328,223.266C419.445,223.232 410.099,221.054 402.794,216.837L366.759,196.032C357.59,190.738 358.182,185.927 358.061,178.452C359.454,182.383 363.648,186.662 369.198,189.867L402.794,209.263C410.099,213.481 419.445,215.658 428.328,215.693L428.328,215.734C430.401,215.734 432.083,217.418 432.083,219.492C432.083,221.566 430.401,223.25 428.328,223.25Z" style="fill:rgb(159,166,173);stroke:black;stroke-width:1px;"/>
    <path d="M141.957,320.014C143.839,316.649 147.092,313.485 151.718,310.814C152.221,310.524 152.734,310.242 153.257,309.971L360.165,190.359C357.924,186.931 358.138,183.238 358.061,178.452C359.454,182.383 363.648,186.662 369.198,189.867L402.794,209.263C410.099,213.481 419.445,215.658 428.328,215.693L428.328,215.734C430.401,215.734 432.083,217.418 432.083,219.492C432.083,221.566 430.401,223.25 428.328,223.25L428.328,223.266C424.933,223.253 421.469,222.926 418.078,222.293L207.252,344.013L207.235,344.004C191.574,352.446 166.985,352.26 151.718,343.445C143.575,338.744 139.683,332.512 140.043,326.348L140.043,318.91L141.957,320.014Z" style="fill:rgb(204,0,0);stroke:black;stroke-width:1.11px;"/>
    <path d="M207.235,336.566C191.574,345.008 166.985,344.822 151.718,336.007C136.121,327.002 136.121,312.381 151.718,303.376C152.221,303.086 152.734,302.804 153.257,302.533L360.538,182.705L362.076,184.04L412.795,213.462L418.256,214.753L207.252,336.575L207.235,336.566Z" style="fill:rgb(255,0,0);stroke:black;stroke-width:1.11px;"/>
    <path d="M176.468,314.073C179.378,312.392 184.108,312.394 187.022,314.077C189.937,315.76 189.94,318.49 187.03,320.171C184.119,321.851 179.39,321.849 176.475,320.166C173.561,318.483 173.557,315.753 176.468,314.073Z" style="fill:rgb(204,0,5);stroke:black;stroke-width:1.11px;"/>
    <path d="M195.979,302.808C198.89,301.127 203.619,301.129 206.534,302.812C209.448,304.495 209.452,307.225 206.541,308.906C203.631,310.586 198.901,310.584 195.987,308.901C193.072,307.219 193.069,304.488 195.979,302.808Z" style="fill:rgb(204,0,5);stroke:black;stroke-width:1.11px;"/>
    <path d="M215.491,291.543C218.401,289.862 223.13,289.864 226.045,291.547C228.96,293.23 228.963,295.96 226.053,297.641C223.142,299.321 218.413,299.319 215.498,297.636C212.583,295.954 212.58,293.223 215.491,291.543Z" style="fill:rgb(204,0,5);stroke:black;stroke-width:1.11px;"/>
    <path d="M235.002,280.278C237.912,278.598 242.642,278.599 245.556,280.282C248.471,281.965 248.475,284.696 245.564,286.376C242.654,288.056 237.924,288.054 235.01,286.372C232.095,284.689 232.091,281.958 235.002,280.278Z" style="fill:rgb(204,0,5);stroke:black;stroke-width:1.11px;"/>
    <path d="M254.513,269.013C257.424,267.333 262.153,267.335 265.068,269.017C267.983,270.7 267.986,273.431 265.076,275.111C262.165,276.791 257.436,276.789 254.521,275.107C251.606,273.424 251.603,270.693 254.513,269.013Z" style="fill:rgb(204,0,5);stroke:black;stroke-width:1.11px;"/>
    <path d="M471.961,199.652C471.961,202.242 470.384,205.255 468.441,206.377L448.971,217.618C447.029,218.74 445.452,217.547 445.452,214.957C445.452,212.367 447.029,209.354 448.971,208.233L468.441,196.992C470.384,195.87 471.961,197.062 471.961,199.652Z" style="fill:rgb(213,216,219);stroke:black;stroke-width:1px;"/>
    <path d="M480.694,194.536L480.694,194.685C480.694,196.22 479.759,198.006 478.608,198.67C477.457,199.335 476.522,198.628 476.522,197.093L476.522,196.945C476.522,195.41 477.457,193.624 478.608,192.959C479.759,192.295 480.694,193.001 480.694,194.536Z" style="fill:rgb(145,153,161);stroke:black;stroke-width:1px;"/>
    <path d="M466.358,123.148L499.954,142.544C513.415,150.316 514.879,162.09 503.222,168.82L448.305,200.526C436.648,207.257 416.255,206.411 402.794,198.64L369.198,179.243C355.737,171.471 354.273,159.697 365.93,152.967L420.847,121.261C432.504,114.531 452.897,115.376 466.358,123.148Z" style="stroke:black;stroke-width:1px;"/>
    <g>
        <path d="M445.18,133.589C444.074,132.951 442.964,132.536 441.85,132.346C440.735,132.155 439.622,132.139 438.509,132.297C437.397,132.455 436.274,132.769 435.14,133.238C434.007,133.707 432.866,134.273 431.717,134.936C430.555,135.607 429.571,136.268 428.765,136.919C427.96,137.569 427.42,138.215 427.146,138.858C426.872,139.5 426.9,140.143 427.23,140.786C427.561,141.429 428.279,142.07 429.385,142.709C430.49,143.347 431.601,143.762 432.715,143.953C433.83,144.143 434.943,144.16 436.055,144.001C437.168,143.843 438.287,143.532 439.414,143.066C440.541,142.601 441.685,142.033 442.847,141.362C443.996,140.699 444.976,140.04 445.789,139.386C446.601,138.731 447.145,138.083 447.419,137.441C447.693,136.798 447.665,136.156 447.334,135.512C447.004,134.869 446.286,134.228 445.18,133.589ZM449.423,131.14C451.581,132.386 453.154,133.625 454.14,134.858C455.127,136.09 455.595,137.303 455.546,138.495C455.496,139.687 454.959,140.852 453.933,141.99C452.907,143.128 451.477,144.226 449.643,145.286C447.809,146.345 445.906,147.17 443.935,147.762C441.964,148.355 439.946,148.665 437.881,148.694C435.816,148.722 433.716,148.452 431.581,147.882C429.446,147.312 427.3,146.405 425.142,145.159C422.966,143.902 421.389,142.66 420.411,141.433C419.433,140.206 418.969,138.996 419.019,137.804C419.068,136.611 419.606,135.446 420.632,134.308C421.657,133.17 423.087,132.072 424.922,131.013C426.756,129.954 428.659,129.128 430.63,128.536C432.601,127.944 434.619,127.633 436.684,127.605C438.749,127.576 440.844,127.844 442.97,128.409C445.096,128.973 447.247,129.883 449.423,131.14Z" style="fill:white;fill-rule:nonzero;"/>
        <path d="M478.372,147.853C480.173,148.893 481.569,149.982 482.559,151.12C483.55,152.258 484.066,153.417 484.108,154.597C484.15,155.778 483.69,156.975 482.728,158.19C481.765,159.405 480.247,160.61 478.175,161.807C476.131,162.987 474.072,163.857 472,164.415C469.928,164.972 467.869,165.239 465.825,165.215C463.78,165.191 461.768,164.89 459.788,164.313C457.809,163.736 455.892,162.912 454.037,161.841C452.307,160.842 450.969,159.843 450.023,158.845C449.077,157.846 448.493,156.886 448.269,155.965C448.046,155.043 448.163,154.177 448.622,153.367C449.08,152.556 449.849,151.84 450.927,151.217L457.188,154.832C456.655,155.139 456.263,155.479 456.012,155.851C455.76,156.223 455.656,156.612 455.702,157.018C455.747,157.424 455.952,157.842 456.316,158.27C456.68,158.698 457.219,159.118 457.932,159.53C459.591,160.488 461.424,160.908 463.431,160.789C465.438,160.67 467.671,159.963 470.13,158.666C468.735,158.442 467.387,158.093 466.088,157.618C464.788,157.142 463.559,156.57 462.4,155.901C461.08,155.139 459.984,154.324 459.113,153.458C458.242,152.591 457.665,151.724 457.383,150.858C457.1,149.991 457.147,149.145 457.524,148.32C457.901,147.495 458.685,146.738 459.875,146.051C461.065,145.364 462.401,144.902 463.881,144.665C465.361,144.428 466.915,144.396 468.544,144.568C470.172,144.74 471.825,145.104 473.502,145.66C475.179,146.216 476.802,146.947 478.372,147.853ZM467.518,154.49C468.356,154.974 469.301,155.402 470.351,155.774C471.401,156.146 472.504,156.431 473.659,156.629C474.634,155.963 475.348,155.324 475.801,154.713C476.254,154.101 476.49,153.522 476.51,152.975C476.529,152.428 476.347,151.911 475.962,151.422C475.578,150.933 475.029,150.483 474.316,150.071C472.996,149.309 471.621,148.888 470.192,148.806C468.763,148.725 467.489,149.008 466.369,149.655C465.15,150.358 464.69,151.139 464.986,151.998C465.283,152.856 466.127,153.687 467.518,154.49Z" style="fill:white;fill-rule:nonzero;"/>
        <path d="M385.041,156.447L390.587,153.246L397.65,157.324L392.105,160.525L385.041,156.447ZM398.19,148.856L403.736,145.654L410.799,149.732L405.254,152.934L398.19,148.856Z" style="fill:white;fill-rule:nonzero;"/>
        <path d="M426.695,175.16L422.521,172.75L417.9,175.418L411.318,171.618L415.939,168.95L402.188,161.011L405.59,159.046L435.295,158.394L441.341,161.885L426.47,170.47L430.644,172.88L426.695,175.16ZM419.888,166.671L428.122,161.917L412.183,162.222L419.888,166.671Z" style="fill:white;fill-rule:nonzero;"/>
        <path d="M448.183,173.45C447.496,173.393 446.747,173.28 445.935,173.111C445.123,172.941 444.288,172.718 443.43,172.44C442.572,172.163 441.716,171.839 440.862,171.467C440.008,171.095 439.197,170.688 438.43,170.245L442.799,167.723C443.83,168.302 444.915,168.782 446.054,169.165C447.192,169.548 448.323,169.837 449.447,170.033C450.57,170.228 451.658,170.331 452.712,170.341C453.765,170.351 454.721,170.272 455.581,170.106L461.627,173.597L438.186,187.13L431.337,183.176L448.183,173.45Z" style="fill:white;fill-rule:nonzero;"/>
    </g>
    <path d="M491.368,138.742L494.53,140.568C508.477,148.62 510.078,160.771 498.103,167.685L448.799,196.15C436.824,203.064 415.778,202.14 401.831,194.088L374.364,178.229C360.417,170.177 358.817,158.027 370.792,151.113L374.645,148.888C362.67,155.802 364.27,167.953 378.217,176.005L402.522,190.038C417.45,198.656 435.641,199.341 448.936,191.666L494.387,165.424C506.362,158.511 505.315,146.794 491.368,138.742Z" style="fill:none;stroke:rgb(38,38,38);stroke-width:1px;"/>
    <path d="M466.358,123.148L448.305,200.526C436.648,207.257 416.255,206.411 402.794,198.64L369.198,179.243C355.737,171.471 354.273,159.697 365.93,152.967L420.847,121.261C432.504,114.531 452.897,115.376 466.358,123.148Z" style="fill:white;fill-opacity:0.15;"/>
    <path d="M420.847,121.261L402.794,198.64L369.198,179.243C355.737,171.471 354.273,159.697 365.93,152.967L420.847,121.261Z" style="fill:white;fill-opacity:0.15;"/>
    <path d="M466.358,123.148L499.954,142.544C513.415,150.316 514.879,162.09 503.222,168.82L448.305,200.526C436.648,207.257 416.255,206.411 402.794,198.64L369.198,179.243C355.737,171.471 354.273,159.697 365.93,152.967L420.847,121.261C432.504,114.531 452.897,115.376 466.358,123.148Z" style="fill:none;stroke:black;stroke-width:1px;"/>
    <path d="M488.091,195.199C486.317,194.369 485.202,192.333 485.202,189.355C485.202,183.763 489.134,176.954 493.976,174.158C496.452,172.729 498.69,172.623 500.286,173.608L504.888,176.265L504.888,176.272C506.597,177.135 507.665,179.147 507.665,182.061C507.665,187.653 503.733,194.463 498.89,197.259C496.472,198.655 494.281,198.788 492.694,197.875C492.689,197.872 488.091,195.217 488.091,195.217L488.091,195.199Z" style="fill:rgb(213,216,219);stroke:black;stroke-width:1px;"/>
    <path d="M498.729,176.902C503.571,174.106 507.503,176.376 507.503,181.968C507.503,187.559 503.571,194.369 498.729,197.165C493.886,199.961 489.955,197.691 489.955,192.099C489.955,186.507 493.886,179.698 498.729,176.902Z" style="fill:rgb(213,216,219);stroke:black;stroke-width:1px;"/>
    <path d="M499.716,179.714C502.617,178.039 504.973,179.43 504.973,182.819C504.973,186.208 501.249,192.513 498.347,194.188C495.446,195.863 493.09,194.472 493.09,191.083C493.09,187.695 496.814,181.389 499.716,179.714Z" style="fill:rgb(213,216,219);stroke:rgb(255,0,7);stroke-width:0.5px;"/>
    <path d="M598.482,59.721C607.225,54.674 621.422,54.674 630.165,59.721C638.908,64.769 638.908,72.966 630.165,78.013C621.422,83.061 607.225,83.061 598.482,78.013C589.739,72.966 589.739,64.769 598.482,59.721Z" style="fill:rgb(213,216,219);stroke:black;stroke-width:1.11px;"/>
    <path d="M607.76,55.936C607.76,54.965 608.4,53.995 609.681,53.256C612.243,51.776 616.403,51.776 618.965,53.256C619.881,53.784 620.469,54.43 620.73,55.11L620.79,66.306C620.79,67.725 620.533,68.73 618.965,69.635C617.397,70.54 615.231,70.892 613.198,70.689C611.91,70.56 610.675,70.209 609.681,69.635C608.491,68.948 607.853,68.061 607.769,67.16L607.76,67.165L607.76,55.936Z" style="fill:rgb(213,216,219);stroke:black;stroke-width:1.11px;"/>
</svg>
