<?xml version="1.0" encoding="UTF-8" standalone="no"?>
<!DOCTYPE svg PUBLIC "-//W3C//DTD SVG 1.1//EN" "http://www.w3.org/Graphics/SVG/1.1/DTD/svg11.dtd">
<svg width="100%" height="100%" viewBox="0 0 370 397" version="1.1" xmlns="http://www.w3.org/2000/svg" xmlns:xlink="http://www.w3.org/1999/xlink" xml:space="preserve" xmlns:serif="http://www.serif.com/" style="fill-rule:evenodd;clip-rule:evenodd;stroke-linecap:square;stroke-linejoin:round;stroke-miterlimit:1;">
    <g id="Layer1">
    </g>
    <rect id="Dell-S3425W" serif:id="Dell S3425W" x="0" y="-0" width="369.614" height="396.807" style="fill:none;"/>
    <path d="M277.151,306.166C278.008,307.921 277.4,309.761 275.243,311.007L210.936,348.135C207.555,350.086 201.642,349.841 197.739,347.588L122.163,303.954C120.012,302.712 118.917,301.117 118.934,299.609L118.934,296.647C118.932,295.405 119.683,294.22 121.215,293.335L185.523,256.207C188.903,254.255 194.816,254.5 198.719,256.754L274.296,300.388C277.149,302.035 278.143,304.303 277.151,306.166Z" style="fill:rgb(237,237,237);stroke:black;stroke-width:1px;"/>
    <path d="M198.719,256.754L274.296,300.388C278.199,302.641 278.623,306.055 275.243,308.007L210.936,345.135C207.555,347.086 201.642,346.841 197.739,344.588L122.163,300.954C118.26,298.7 117.835,295.286 121.215,293.335L185.523,256.207C188.903,254.255 194.816,254.5 198.719,256.754Z" style="fill:rgb(237,237,237);stroke:black;stroke-width:1px;"/>
    <path d="M351.33,382.206C247.019,309.568 134.826,244.833 14.827,187.926L14.827,16.997L18.978,14.601C172.427,55.527 279.252,123.372 355.481,208.881L355.481,379.809L351.33,382.206Z" style="fill:rgb(237,237,237);stroke:black;stroke-width:1px;"/>
    <path d="M355.481,208.881L355.481,379.809L351.33,382.206L351.33,211.278L355.481,208.881Z" style="fill:rgb(37,37,37);stroke:black;stroke-width:1px;"/>
    <path d="M18.978,14.601C154.702,65.761 266.972,130.462 355.481,208.881L351.33,211.278C259.544,134.75 146.901,70.265 14.827,16.997L18.978,14.601Z" style="fill:rgb(83,83,83);stroke:black;stroke-width:1px;"/>
    <path d="M351.33,211.278L351.33,382.206C249.069,311.726 137.373,246.694 14.827,187.926L14.827,16.997C147.299,70.035 259.726,134.645 351.33,211.278Z" style="fill:rgb(57,57,57);stroke:black;stroke-width:1px;"/>
    <path d="M347.786,213.083L347.786,376.308C248.511,306.832 139.298,243.095 18.371,186.12L18.371,22.896C147.599,76.113 257.43,139.413 347.786,213.083Z" style="stroke:black;stroke-width:1px;"/>
    <path d="M347.786,213.083L347.786,374.308C248.511,304.832 141,242.078 20.074,185.103L20.074,23.879C149.301,77.096 257.43,139.413 347.786,213.083Z" style="fill:rgb(0,159,227);stroke:black;stroke-width:1px;"/>
    <g id="Window">
        <path d="M158.859,135.158L158.859,212.598C158.859,213.488 158.317,213.898 157.649,213.513C134.951,199.084 85.251,172.641 60.21,162.875C59.542,162.489 59,161.453 59,160.563L59,83.123C59,82.232 59.542,81.823 60.21,82.208C84.595,92.212 134.413,118.414 157.649,132.846C158.317,133.232 158.859,134.267 158.859,135.158Z" style="fill:rgb(185,185,185);stroke:black;stroke-width:1px;"/>
        <path d="M158.859,140.439L158.859,213.183C158.859,214.001 158.317,214.353 157.649,213.967C134.951,199.646 85.251,173.02 60.21,162.875C59.542,162.489 59,161.512 59,160.693L59,88.124C84.184,98.879 134.827,126.254 158.859,140.439Z" style="fill:white;stroke:black;stroke-width:1px;"/>
        <path d="M62.155,85.176C62.792,85.544 63.309,86.44 63.309,87.176C63.309,87.912 62.792,88.211 62.155,87.843C61.517,87.475 61,86.579 61,85.843C61,85.107 61.517,84.808 62.155,85.176Z" style="fill:rgb(255,0,65);stroke:black;stroke-width:1px;"/>
        <path d="M66.155,86.883C66.792,87.251 67.309,88.147 67.309,88.883C67.309,89.619 66.792,89.917 66.155,89.549C65.517,89.182 65,88.285 65,87.549C65,86.814 65.517,86.515 66.155,86.883Z" style="fill:rgb(255,125,0);stroke:black;stroke-width:1px;"/>
        <path d="M70.155,88.462C70.792,88.83 71.309,89.726 71.309,90.462C71.309,91.198 70.792,91.496 70.155,91.128C69.517,90.76 69,89.864 69,89.128C69,88.392 69.517,88.094 70.155,88.462Z" style="fill:rgb(0,255,113);stroke:black;stroke-width:1px;"/>
    </g>
    <path d="M275.579,310.347L275.579,317.442C275.579,319.4 274.386,320.301 272.918,319.453C213.025,280.71 153.132,246.156 93.239,215.716C91.771,214.868 90.579,212.59 90.579,210.632L90.579,203.537C90.579,201.579 91.771,200.678 93.239,201.526C153.132,231.428 213.025,265.844 272.918,305.263C274.386,306.111 275.579,308.389 275.579,310.347Z" style="fill:white;fill-opacity:0.61;stroke:black;stroke-width:1px;"/>
    <path d="M100,210.323L100,214.303C100,215.401 99.331,215.906 98.508,215.431L94.492,213.112C93.669,212.637 93,211.359 93,210.261L93,206.282C93,205.184 93.669,204.678 94.492,205.154L98.508,207.472C99.331,207.948 100,209.225 100,210.323Z" style="fill:white;fill-opacity:0.61;stroke:black;stroke-width:1px;"/>
    <path d="M112.286,216.54L112.286,220.519C112.286,221.617 111.617,222.123 110.793,221.647L106.778,219.329C105.954,218.853 105.286,217.576 105.286,216.478L105.286,212.498C105.286,211.4 105.954,210.895 106.778,211.37L110.793,213.689C111.617,214.164 112.286,215.442 112.286,216.54Z" style="fill:white;fill-opacity:0.61;stroke:black;stroke-width:1px;"/>
    <path d="M124.571,222.936L124.571,226.915C124.571,228.014 123.903,228.519 123.079,228.044L119.064,225.725C118.24,225.25 117.571,223.972 117.571,222.874L117.571,218.895C117.571,217.797 118.24,217.291 119.064,217.767L123.079,220.085C123.903,220.561 124.571,221.838 124.571,222.936Z" style="fill:white;fill-opacity:0.61;stroke:black;stroke-width:1px;"/>
    <path d="M136.857,229.534L136.857,233.514C136.857,234.612 136.188,235.117 135.365,234.642L131.349,232.323C130.526,231.848 129.857,230.57 129.857,229.472L129.857,225.493C129.857,224.395 130.526,223.889 131.349,224.365L135.365,226.683C136.188,227.159 136.857,228.436 136.857,229.534Z" style="fill:white;fill-opacity:0.61;stroke:black;stroke-width:1px;"/>
    <path d="M149.143,236.463L149.143,240.442C149.143,241.54 148.474,242.046 147.651,241.57L143.635,239.252C142.812,238.776 142.143,237.499 142.143,236.4L142.143,232.421C142.143,231.323 142.812,230.818 143.635,231.293L147.651,233.612C148.474,234.087 149.143,235.365 149.143,236.463Z" style="fill:white;fill-opacity:0.61;stroke:black;stroke-width:1px;"/>
    <path d="M161.429,243.055L161.429,247.034C161.429,248.133 160.76,248.638 159.936,248.163L155.921,245.844C155.097,245.369 154.429,244.091 154.429,242.993L154.429,239.014C154.429,237.916 155.097,237.41 155.921,237.886L159.936,240.204C160.76,240.68 161.429,241.957 161.429,243.055Z" style="fill:white;fill-opacity:0.61;stroke:black;stroke-width:1px;"/>
    <path d="M173.714,249.696L173.714,253.676C173.714,254.774 173.046,255.279 172.222,254.804L168.207,252.485C167.383,252.01 166.714,250.732 166.714,249.634L166.714,245.655C166.714,244.557 167.383,244.051 168.207,244.527L172.222,246.845C173.046,247.321 173.714,248.598 173.714,249.696Z" style="fill:white;fill-opacity:0.61;stroke:black;stroke-width:1px;"/>
    <path d="M186.285,257.057L186.285,261.036C186.285,262.134 185.617,262.64 184.793,262.164L180.777,259.846C179.954,259.371 179.285,258.093 179.285,256.995L179.285,253.016C179.285,251.918 179.954,251.412 180.777,251.888L184.793,254.206C185.617,254.681 186.285,255.959 186.285,257.057Z" style="fill:white;fill-opacity:0.61;stroke:black;stroke-width:1px;"/>
    <path d="M198.286,263.954L198.286,267.934C198.286,269.032 197.617,269.537 196.793,269.062L192.778,266.743C191.954,266.268 191.286,264.99 191.286,263.892L191.286,259.913C191.286,258.815 191.954,258.309 192.778,258.785L196.793,261.103C197.617,261.579 198.286,262.856 198.286,263.954Z" style="fill:white;fill-opacity:0.61;stroke:black;stroke-width:1px;"/>
    <path d="M210.571,271.428L210.571,275.407C210.571,276.505 209.903,277.011 209.079,276.535L205.064,274.217C204.24,273.741 203.571,272.464 203.571,271.366L203.571,267.386C203.571,266.288 204.24,265.783 205.064,266.258L209.079,268.577C209.903,269.052 210.571,270.33 210.571,271.428Z" style="fill:white;fill-opacity:0.61;stroke:black;stroke-width:1px;"/>
    <path d="M222.857,279.073L222.857,283.053C222.857,284.151 222.188,284.656 221.365,284.181L217.349,281.862C216.526,281.387 215.857,280.109 215.857,279.011L215.857,275.032C215.857,273.934 216.526,273.428 217.349,273.904L221.365,276.222C222.188,276.698 222.857,277.975 222.857,279.073Z" style="fill:white;fill-opacity:0.61;stroke:black;stroke-width:1px;"/>
    <path d="M235.143,286.485L235.143,290.465C235.143,291.563 234.474,292.068 233.651,291.593L229.635,289.274C228.812,288.799 228.143,287.521 228.143,286.423L228.143,282.444C228.143,281.346 228.812,280.84 229.635,281.316L233.651,283.634C234.474,284.11 235.143,285.387 235.143,286.485Z" style="fill:white;fill-opacity:0.61;stroke:black;stroke-width:1px;"/>
    <path d="M247.429,293.837L247.429,297.817C247.429,298.915 246.76,299.42 245.936,298.945L241.921,296.626C241.097,296.151 240.429,294.873 240.429,293.775L240.429,289.796C240.429,288.698 241.097,288.192 241.921,288.668L245.936,290.986C246.76,291.462 247.429,292.739 247.429,293.837Z" style="fill:white;fill-opacity:0.61;stroke:black;stroke-width:1px;"/>
    <path d="M259.714,301.921L259.714,305.9C259.714,306.999 259.046,307.504 258.222,307.029L254.207,304.71C253.383,304.235 252.714,302.957 252.714,301.859L252.714,297.88C252.714,296.782 253.383,296.276 254.207,296.752L258.222,299.07C259.046,299.545 259.714,300.823 259.714,301.921Z" style="fill:white;fill-opacity:0.61;stroke:black;stroke-width:1px;"/>
    <path d="M272,309.463L272,313.442C272,314.54 271.331,315.046 270.508,314.57L266.492,312.252C265.669,311.776 265,310.499 265,309.4L265,305.421C265,304.323 265.669,303.818 266.492,304.293L270.508,306.612C271.331,307.087 272,308.365 272,309.463Z" style="fill:white;fill-opacity:0.61;stroke:black;stroke-width:1px;"/>
</svg>
