<?xml version="1.0" encoding="UTF-8" standalone="no"?>
<!DOCTYPE svg PUBLIC "-//W3C//DTD SVG 1.1//EN" "http://www.w3.org/Graphics/SVG/1.1/DTD/svg11.dtd">
<svg width="100%" height="100%" viewBox="0 0 496 397" version="1.1" xmlns="http://www.w3.org/2000/svg" xmlns:xlink="http://www.w3.org/1999/xlink" xml:space="preserve" xmlns:serif="http://www.serif.com/" style="fill-rule:evenodd;clip-rule:evenodd;stroke-linecap:square;stroke-linejoin:round;stroke-miterlimit:1;">
    <g id="Layer1">
    </g>
    <rect id="Dell-S3425W" serif:id="Dell S3425W" x="0" y="-0" width="495.614" height="396.807" style="fill:none;"/>
    <path d="M340.151,306.166C341.008,307.921 340.4,309.761 338.243,311.007L273.936,348.135C270.555,350.086 264.642,349.841 260.739,347.588L185.163,303.954C183.012,302.712 181.917,301.117 181.934,299.609L181.934,296.647C181.932,295.405 182.683,294.22 184.215,293.335L248.523,256.207C251.903,254.255 257.816,254.5 261.719,256.754L337.296,300.388C340.149,302.035 341.143,304.303 340.151,306.166Z" style="fill:rgb(237,237,237);stroke:black;stroke-width:1px;"/>
    <path d="M261.719,256.754L337.296,300.388C341.199,302.641 341.623,306.055 338.243,308.007L273.936,345.135C270.555,347.086 264.642,346.841 260.739,344.588L185.163,300.954C181.26,298.7 180.835,295.286 184.215,293.335L248.523,256.207C251.903,254.255 257.816,254.5 261.719,256.754Z" style="fill:rgb(237,237,237);stroke:black;stroke-width:1px;"/>
    <path d="M414.33,382.206C310.019,309.568 197.826,244.833 77.827,187.926L77.827,16.997L81.978,14.601C235.427,55.527 342.252,123.372 418.481,208.881L418.481,379.809L414.33,382.206Z" style="fill:rgb(237,237,237);stroke:black;stroke-width:1px;"/>
    <path d="M418.481,208.881L418.481,379.809L414.33,382.206L414.33,211.278L418.481,208.881Z" style="fill:rgb(37,37,37);stroke:black;stroke-width:1px;"/>
    <path d="M81.978,14.601C217.702,65.761 329.972,130.462 418.481,208.881L414.33,211.278C322.544,134.75 209.901,70.265 77.827,16.997L81.978,14.601Z" style="fill:rgb(83,83,83);stroke:black;stroke-width:1px;"/>
    <path d="M414.33,211.278L414.33,382.206C312.069,311.726 200.373,246.694 77.827,187.926L77.827,16.997C210.299,70.035 322.726,134.645 414.33,211.278Z" style="fill:rgb(57,57,57);stroke:black;stroke-width:1px;"/>
    <path d="M410.786,213.083L410.786,376.308C311.511,306.832 202.298,243.095 81.371,186.12L81.371,22.896C210.599,76.113 320.43,139.413 410.786,213.083Z" style="stroke:black;stroke-width:1px;"/>
    <path d="M410.786,213.083L410.786,374.308C311.511,304.832 204,242.078 83.074,185.103L83.074,23.879C212.301,77.096 320.43,139.413 410.786,213.083Z" style="fill:rgb(0,159,227);stroke:black;stroke-width:1px;"/>
    <g id="Window">
        <path d="M221.859,135.158L221.859,212.598C221.859,213.488 221.317,213.898 220.649,213.513C197.951,199.084 148.251,172.641 123.21,162.875C122.542,162.489 122,161.453 122,160.563L122,83.123C122,82.232 122.542,81.823 123.21,82.208C147.595,92.212 197.413,118.414 220.649,132.846C221.317,133.232 221.859,134.267 221.859,135.158Z" style="fill:rgb(185,185,185);stroke:black;stroke-width:1px;"/>
        <path d="M221.859,140.439L221.859,213.183C221.859,214.001 221.317,214.353 220.649,213.967C197.951,199.646 148.251,173.02 123.21,162.875C122.542,162.489 122,161.512 122,160.693L122,88.124C147.184,98.879 197.827,126.254 221.859,140.439Z" style="fill:white;stroke:black;stroke-width:1px;"/>
        <path d="M125.155,85.176C125.792,85.544 126.309,86.44 126.309,87.176C126.309,87.912 125.792,88.211 125.155,87.843C124.517,87.475 124,86.579 124,85.843C124,85.107 124.517,84.808 125.155,85.176Z" style="fill:rgb(255,0,65);stroke:black;stroke-width:1px;"/>
        <path d="M129.155,86.883C129.792,87.251 130.309,88.147 130.309,88.883C130.309,89.619 129.792,89.917 129.155,89.549C128.517,89.182 128,88.285 128,87.549C128,86.814 128.517,86.515 129.155,86.883Z" style="fill:rgb(255,125,0);stroke:black;stroke-width:1px;"/>
        <path d="M133.155,88.462C133.792,88.83 134.309,89.726 134.309,90.462C134.309,91.198 133.792,91.496 133.155,91.128C132.517,90.76 132,89.864 132,89.128C132,88.392 132.517,88.094 133.155,88.462Z" style="fill:rgb(0,255,113);stroke:black;stroke-width:1px;"/>
    </g>
    <path d="M338.579,310.347L338.579,317.442C338.579,319.4 337.386,320.301 335.918,319.453C276.025,280.71 216.132,246.156 156.239,215.716C154.771,214.868 153.579,212.59 153.579,210.632L153.579,203.537C153.579,201.579 154.771,200.678 156.239,201.526C216.132,231.428 276.025,265.844 335.918,305.263C337.386,306.111 338.579,308.389 338.579,310.347Z" style="fill:white;fill-opacity:0.61;stroke:black;stroke-width:1px;"/>
    <path d="M410.786,374.308C311.511,304.832 204,242.078 83.074,185.103L83.074,23.879" style="fill:white;fill-opacity:0.1;stroke:black;stroke-width:1px;"/>
</svg>
