<?xml version="1.0" encoding="UTF-8" standalone="no"?>
<!DOCTYPE svg PUBLIC "-//W3C//DTD SVG 1.1//EN" "http://www.w3.org/Graphics/SVG/1.1/DTD/svg11.dtd">
<svg width="100%" height="100%" viewBox="0 0 794 397" version="1.1" xmlns="http://www.w3.org/2000/svg" xmlns:xlink="http://www.w3.org/1999/xlink" xml:space="preserve" xmlns:serif="http://www.serif.com/" style="fill-rule:evenodd;clip-rule:evenodd;stroke-linejoin:round;stroke-miterlimit:1;">
    <path d="M111.507,219.261C111.236,215.483 113.369,211.839 118.01,209.159L425.273,31.762C434.941,26.18 451.854,26.881 463.018,33.326L658.702,146.305C664.507,149.656 667.622,153.904 667.916,157.996L667.939,158.009L667.939,170.752L667.916,170.739C668.187,174.517 666.054,178.161 661.412,180.841L354.15,358.238C344.482,363.82 327.569,363.119 316.405,356.674L120.72,243.695C114.916,240.344 111.801,236.096 111.507,232.004L111.484,231.991L111.484,219.248L111.507,219.261Z" style="fill:rgb(255,244,225);stroke:black;stroke-width:1px;"/>
    <path d="M220.518,294.939C220.518,296.635 219.485,297.416 218.213,296.681L208.869,291.287C207.597,290.552 206.565,288.579 206.565,286.883C206.565,285.187 207.597,284.406 208.869,285.141L218.213,290.535C219.485,291.27 220.518,293.243 220.518,294.939Z" style="fill:rgb(255,244,225);stroke:black;stroke-width:1px;"/>
    <path d="M214.168,288.2L208.869,291.287C207.597,290.552 206.565,288.579 206.565,286.883C206.565,285.187 207.597,284.406 208.869,285.141L214.168,288.2Z" style="fill:rgb(254,228,179);stroke:black;stroke-width:1px;"/>
    <path d="M184.113,272.226C185.029,272.755 185.773,274.043 185.773,275.101C185.773,276.159 185.029,276.588 184.113,276.059C183.197,275.53 182.454,274.242 182.454,273.185C182.454,272.127 183.197,271.698 184.113,272.226Z" style="fill:rgb(153,135,102);stroke:black;stroke-width:1px;"/>
    <path d="M189.372,275.263C190.288,275.792 191.032,277.08 191.032,278.137C191.032,279.195 190.288,279.624 189.372,279.096C188.456,278.567 187.713,277.279 187.713,276.221C187.713,275.163 188.456,274.734 189.372,275.263Z" style="fill:rgb(153,135,102);stroke:black;stroke-width:1px;"/>
    <path d="M173.595,266.154C174.511,266.683 175.255,267.971 175.255,269.028C175.255,270.086 174.511,270.515 173.595,269.987C172.679,269.458 171.935,268.17 171.935,267.112C171.935,266.054 172.679,265.625 173.595,266.154Z" style="fill:rgb(153,135,102);stroke:black;stroke-width:1px;"/>
    <path d="M178.854,269.19C179.77,269.719 180.514,271.007 180.514,272.065C180.514,273.122 179.77,273.552 178.854,273.023C177.938,272.494 177.194,271.206 177.194,270.148C177.194,269.091 177.938,268.661 178.854,269.19Z" style="fill:rgb(153,135,102);stroke:black;stroke-width:1px;"/>
    <path d="M163,260.037C163.916,260.566 164.66,261.854 164.66,262.912C164.66,263.969 163.916,264.399 163,263.87C162.084,263.341 161.341,262.053 161.341,260.995C161.341,259.937 162.084,259.508 163,260.037Z" style="fill:rgb(153,135,102);stroke:black;stroke-width:1px;"/>
    <path d="M168.259,263.073C169.175,263.602 169.919,264.89 169.919,265.948C169.919,267.006 169.175,267.435 168.259,266.906C167.343,266.377 166.6,265.089 166.6,264.031C166.6,262.974 167.343,262.544 168.259,263.073Z" style="fill:rgb(153,135,102);stroke:black;stroke-width:1px;"/>
    <path d="M152.406,253.92C153.322,254.449 154.065,255.737 154.065,256.795C154.065,257.852 153.322,258.282 152.406,257.753C151.49,257.224 150.746,255.936 150.746,254.878C150.746,253.821 151.49,253.391 152.406,253.92Z" style="fill:rgb(153,135,102);stroke:black;stroke-width:1px;"/>
    <path d="M157.665,256.956C158.581,257.485 159.324,258.773 159.324,259.831C159.324,260.889 158.581,261.318 157.665,260.789C156.749,260.26 156.005,258.972 156.005,257.915C156.005,256.857 156.749,256.428 157.665,256.956Z" style="fill:rgb(153,135,102);stroke:black;stroke-width:1px;"/>
    <path d="M141.811,247.803C142.727,248.332 143.471,249.62 143.471,250.678C143.471,251.736 142.727,252.165 141.811,251.636C140.895,251.107 140.151,249.819 140.151,248.761C140.151,247.704 140.895,247.274 141.811,247.803Z" style="fill:rgb(153,135,102);stroke:black;stroke-width:1px;"/>
    <path d="M147.07,250.84C147.986,251.368 148.73,252.657 148.73,253.714C148.73,254.772 147.986,255.201 147.07,254.672C146.154,254.144 145.41,252.856 145.41,251.798C145.41,250.74 146.154,250.311 147.07,250.84Z" style="fill:rgb(153,135,102);stroke:black;stroke-width:1px;"/>
    <path d="M279.184,327.116C280.1,327.644 280.844,328.932 280.844,329.99C280.844,331.048 280.1,331.477 279.184,330.948C278.268,330.42 277.524,329.131 277.524,328.074C277.524,327.016 278.268,326.587 279.184,327.116Z" style="fill:rgb(153,135,102);stroke:black;stroke-width:1px;"/>
    <path d="M284.443,330.152C285.359,330.681 286.103,331.969 286.103,333.026C286.103,334.084 285.359,334.514 284.443,333.985C283.527,333.456 282.783,332.168 282.783,331.11C282.783,330.052 283.527,329.623 284.443,330.152Z" style="fill:rgb(153,135,102);stroke:black;stroke-width:1px;"/>
    <path d="M268.666,321.043C269.582,321.572 270.325,322.86 270.325,323.917C270.325,324.975 269.582,325.405 268.666,324.876C267.75,324.347 267.006,323.059 267.006,322.001C267.006,320.943 267.75,320.514 268.666,321.043Z" style="fill:rgb(153,135,102);stroke:black;stroke-width:1px;"/>
    <path d="M273.925,324.079C274.841,324.608 275.584,325.896 275.584,326.954C275.584,328.012 274.841,328.441 273.925,327.912C273.009,327.383 272.265,326.095 272.265,325.037C272.265,323.98 273.009,323.55 273.925,324.079Z" style="fill:rgb(153,135,102);stroke:black;stroke-width:1px;"/>
    <path d="M258.071,314.926C258.987,315.455 259.731,316.743 259.731,317.801C259.731,318.858 258.987,319.288 258.071,318.759C257.155,318.23 256.411,316.942 256.411,315.884C256.411,314.827 257.155,314.397 258.071,314.926Z" style="fill:rgb(153,135,102);stroke:black;stroke-width:1px;"/>
    <path d="M263.33,317.962C264.246,318.491 264.99,319.779 264.99,320.837C264.99,321.895 264.246,322.324 263.33,321.795C262.414,321.266 261.67,319.978 261.67,318.921C261.67,317.863 262.414,317.434 263.33,317.962Z" style="fill:rgb(153,135,102);stroke:black;stroke-width:1px;"/>
    <path d="M247.476,308.809C248.392,309.338 249.136,310.626 249.136,311.684C249.136,312.742 248.392,313.171 247.476,312.642C246.56,312.113 245.817,310.825 245.817,309.767C245.817,308.71 246.56,308.28 247.476,308.809Z" style="fill:rgb(153,135,102);stroke:black;stroke-width:1px;"/>
    <path d="M252.735,311.846C253.651,312.374 254.395,313.662 254.395,314.72C254.395,315.778 253.651,316.207 252.735,315.678C251.819,315.15 251.076,313.861 251.076,312.804C251.076,311.746 251.819,311.317 252.735,311.846Z" style="fill:rgb(153,135,102);stroke:black;stroke-width:1px;"/>
    <path d="M236.882,302.692C237.798,303.221 238.541,304.509 238.541,305.567C238.541,306.625 237.798,307.054 236.882,306.525C235.966,305.996 235.222,304.708 235.222,303.651C235.222,302.593 235.966,302.164 236.882,302.692Z" style="fill:rgb(153,135,102);stroke:black;stroke-width:1px;"/>
    <path d="M242.141,305.729C243.057,306.258 243.8,307.546 243.8,308.603C243.8,309.661 243.057,310.09 242.141,309.562C241.225,309.033 240.481,307.745 240.481,306.687C240.481,305.629 241.225,305.2 242.141,305.729Z" style="fill:rgb(153,135,102);stroke:black;stroke-width:1px;"/>
    <path d="M463.018,33.326L658.702,146.305C669.866,152.75 671.081,162.515 661.412,168.097L354.15,345.495C344.482,351.077 327.569,350.376 316.405,343.93L120.72,230.952C109.556,224.506 108.342,214.741 118.01,209.159L425.273,31.762C434.941,26.18 451.854,26.881 463.018,33.326Z" style="stroke:black;stroke-width:1px;"/>
    <path d="M460.645,34.292L657.03,147.675C667.078,153.476 668.171,162.264 659.469,167.288L352.749,344.373C344.047,349.397 328.825,348.766 318.778,342.965L122.393,229.582C112.345,223.781 111.252,214.992 119.954,209.969L426.674,32.884C435.375,27.86 450.597,28.491 460.645,34.292Z" style="fill:none;stroke:rgb(255,244,225);stroke-width:0.5px;"/>
    <path d="M450.862,42.946L642.041,153.323C646.506,155.901 646.992,159.807 643.125,162.04L343.659,334.937C339.792,337.169 333.026,336.889 328.561,334.311L137.382,223.934C132.916,221.355 132.431,217.449 136.298,215.217L435.764,42.32C439.631,40.087 446.396,40.368 450.862,42.946Z" style="fill:rgb(33,0,36);stroke:black;stroke-width:1px;"/>
    <path d="M450.669,45.365L639.93,154.635C644.351,157.187 644.822,161.06 640.982,163.277L343.61,334.965C339.77,337.182 333.063,336.91 328.642,334.358L139.38,225.087C134.96,222.535 134.488,218.663 138.328,216.445L435.701,44.758C439.541,42.54 446.248,42.813 450.669,45.365Z" style="fill:rgb(36,36,36);stroke:black;stroke-width:1px;"/>
    <path d="M548.014,92.198C550.42,90.809 554.327,90.809 556.734,92.198C559.14,93.587 559.14,95.843 556.734,97.232C554.327,98.622 550.42,98.622 548.014,97.232C545.607,95.843 545.607,93.587 548.014,92.198Z" style="fill:rgb(70,70,70);stroke:black;stroke-width:1px;"/>
    <path d="M527.81,251.604C527.81,253.3 526.777,255.273 525.505,256.008L492.417,275.111C491.145,275.845 490.113,275.065 490.113,273.369C490.113,271.673 491.145,269.699 492.417,268.965L525.505,249.862C526.777,249.127 527.81,249.908 527.81,251.604Z" style="fill:rgb(254,228,179);stroke:black;stroke-width:1px;"/>
    <path d="M352.749,344.373C344.047,349.397 328.825,348.766 318.778,342.965L122.393,229.582C112.345,223.781 111.252,214.992 119.954,209.969L426.674,32.884C435.375,27.86 450.597,28.491 460.645,34.292" style="fill:white;fill-opacity:0.1;stroke:rgb(255,244,225);stroke-width:0.5px;"/>
    <path d="M318.778,342.965L122.393,229.582C112.345,223.781 111.252,214.992 119.954,209.969L426.674,32.884" style="fill:white;fill-opacity:0.1;stroke:rgb(255,244,225);stroke-width:0.5px;"/>
</svg>
