<?xml version="1.0" encoding="UTF-8" standalone="no"?>
<!DOCTYPE svg PUBLIC "-//W3C//DTD SVG 1.1//EN" "http://www.w3.org/Graphics/SVG/1.1/DTD/svg11.dtd">
<svg width="100%" height="100%" viewBox="0 0 794 397" version="1.1" xmlns="http://www.w3.org/2000/svg" xmlns:xlink="http://www.w3.org/1999/xlink" xml:space="preserve" xmlns:serif="http://www.serif.com/" style="fill-rule:evenodd;clip-rule:evenodd;stroke-linejoin:round;stroke-miterlimit:1;">
    <g id="Layer1">
    </g>
    <rect id="iPhone-17-Pro" serif:id="iPhone 17 Pro" x="0" y="0" width="793.614" height="396.807" style="fill:none;"/>
    <path d="M636.493,153.376C636.259,158.993 632.056,164.864 624.072,169.473L324.868,342.219C309.843,350.894 287.079,351.838 274.067,344.325L151.703,273.678C145.605,270.157 142.723,265.4 142.93,260.445L142.919,260.439L142.919,236.618L142.93,236.624C143.164,231.007 147.367,225.136 155.35,220.527L454.555,47.781C469.58,39.106 492.343,38.162 505.356,45.675L627.72,116.322C633.818,119.843 636.699,124.6 636.493,129.555L636.503,129.561L636.503,153.382L636.493,153.376Z" style="fill:rgb(213,216,219);stroke:black;stroke-width:1px;"/>
    <path d="M436.623,58.247L436.536,58.184L438.957,56.787L604.049,152.697C605.783,153.763 608.031,156.375 608.031,158.93L608.106,178.659L605.783,180.032L605.709,160.384C605.471,156.967 604.107,155.526 601.727,154.151L436.634,58.241L436.623,58.247Z" style="fill:rgb(179,179,179);stroke:black;stroke-width:1px;"/>
    <path d="M165.108,215.007L165.02,214.944L167.441,213.546L332.533,309.457C334.268,310.523 336.515,313.135 336.515,315.69L336.59,335.419L334.267,336.792L334.193,317.144C333.955,313.727 332.591,312.286 330.211,310.911L165.118,215.001L165.108,215.007Z" style="fill:rgb(179,179,179);stroke:black;stroke-width:1px;"/>
    <path d="M618.675,143.829L322.276,314.955C308.753,322.762 288.266,323.612 276.555,316.85L158.031,248.42C146.32,241.659 147.791,229.831 161.314,222.023L457.712,50.897C471.235,43.09 491.722,42.241 503.433,49.002L621.957,117.432C633.668,124.193 632.197,136.022 618.675,143.829Z" style="fill:rgb(57,0,62);stroke:black;stroke-width:1px;"/>
    <path d="M616.387,145.15L322.342,314.917C308.783,322.745 288.188,323.567 276.381,316.75L160.258,249.706C148.451,242.889 149.873,230.999 163.432,223.17L457.478,53.403C471.037,45.575 491.632,44.753 503.439,51.57L619.562,118.614C631.369,125.431 629.947,137.321 616.387,145.15Z" style="fill:rgb(29,29,29);stroke:black;stroke-width:1px;"/>
    <path d="M538.837,80.054L568.174,96.992C572.359,99.408 572.814,103.068 569.189,105.161C565.565,107.253 559.225,106.991 555.04,104.574L525.703,87.637C521.519,85.221 521.063,81.56 524.688,79.468C528.312,77.375 534.652,77.638 538.837,80.054Z" style="stroke:black;stroke-width:1px;"/>
    <path d="M322.276,314.955C308.753,322.762 288.266,323.612 276.555,316.85L158.031,248.42C146.32,241.659 147.791,229.831 161.314,222.023L457.712,50.897C471.235,43.09 491.722,42.241 503.433,49.002" style="fill:white;fill-opacity:0.1;stroke:black;stroke-width:1px;"/>
    <path d="M276.555,316.85L158.031,248.42C146.32,241.659 147.791,229.831 161.314,222.023L457.712,50.897" style="fill:white;fill-opacity:0.1;stroke:black;stroke-width:1px;"/>
    <path d="M508.746,225.686C507.927,225.339 507.42,224.501 507.42,223.252C507.42,220.753 509.449,217.554 511.947,216.111L549.956,194.167C551.445,193.307 552.767,193.264 553.592,193.899L553.592,193.879L556.293,195.439C557.012,195.826 557.45,196.632 557.45,197.793C557.45,200.292 555.422,203.491 552.923,204.934L514.914,226.878C513.523,227.681 512.278,227.772 511.447,227.263L508.746,225.704L508.746,225.686Z" style="fill:rgb(241,242,243);stroke:black;stroke-width:1px;"/>
    <path d="M514.914,217.824L552.923,195.88C555.422,194.437 557.45,195.295 557.45,197.793C557.45,200.292 555.422,203.491 552.923,204.934L514.914,226.878C512.416,228.321 510.387,227.463 510.387,224.965C510.387,222.466 512.416,219.267 514.914,217.824Z" style="fill:rgb(213,216,219);stroke:black;stroke-width:1px;"/>
    <path d="M393.222,296.383L387.485,299.696C384.476,301.433 382.033,300.4 382.033,297.391C382.033,294.382 384.476,290.528 387.485,288.791L423.643,267.915" style="fill:white;fill-opacity:0.5;stroke:black;stroke-width:1px;stroke-linecap:square;"/>
    <path d="M387.485,288.791L423.643,267.915C426.653,266.178 429.096,267.21 429.096,270.219C429.096,273.229 426.653,277.082 423.643,278.819L387.485,299.696C384.476,301.433 382.033,300.4 382.033,297.391C382.033,294.382 384.476,290.528 387.485,288.791Z" style="fill:none;stroke:black;stroke-width:1px;"/>
    <path d="M203.687,287.212L218.76,295.915C221.406,297.442 223.553,300.83 223.553,303.476C223.553,306.121 221.406,307.029 218.76,305.501L203.687,296.799C201.042,295.272 198.894,291.884 198.894,289.238C198.894,286.593 201.042,285.685 203.687,287.212Z" style="fill:rgb(213,216,219);stroke:black;stroke-width:1px;"/>
    <path d="M203.687,287.212L211.224,291.564L203.687,296.799C201.042,295.272 198.894,291.884 198.894,289.238C198.894,286.593 201.042,285.685 203.687,287.212Z" style="fill:rgb(145,153,161);stroke:black;stroke-width:1px;"/>
    <path d="M192.116,282.316C193.554,283.146 194.722,285.169 194.722,286.83C194.722,288.491 193.554,289.165 192.116,288.334C190.677,287.504 189.51,285.481 189.51,283.82C189.51,282.16 190.677,281.485 192.116,282.316Z" style="fill:rgb(145,153,161);stroke:black;stroke-width:1px;stroke-linecap:square;"/>
    <path d="M182.398,277.932C183.25,278.424 183.941,279.622 183.941,280.605C183.941,281.589 183.25,281.988 182.398,281.497C181.546,281.005 180.854,279.807 180.854,278.823C180.854,277.839 181.546,277.44 182.398,277.932Z" style="fill:rgb(145,153,161);stroke:black;stroke-width:1px;stroke-linecap:square;"/>
    <path d="M175.832,274.141C176.683,274.633 177.375,275.831 177.375,276.815C177.375,277.798 176.683,278.198 175.832,277.706C174.98,277.214 174.288,276.016 174.288,275.032C174.288,274.049 174.98,273.649 175.832,274.141Z" style="fill:rgb(145,153,161);stroke:black;stroke-width:1px;stroke-linecap:square;"/>
    <path d="M168.786,270.073C169.637,270.565 170.329,271.763 170.329,272.747C170.329,273.73 169.637,274.13 168.786,273.638C167.934,273.146 167.242,271.948 167.242,270.964C167.242,269.981 167.934,269.581 168.786,270.073Z" style="fill:rgb(145,153,161);stroke:black;stroke-width:1px;stroke-linecap:square;"/>
    <path d="M162.219,266.282C163.071,266.774 163.763,267.972 163.763,268.956C163.763,269.939 163.071,270.339 162.219,269.847C161.368,269.355 160.676,268.157 160.676,267.173C160.676,266.19 161.368,265.79 162.219,266.282Z" style="fill:rgb(145,153,161);stroke:black;stroke-width:1px;stroke-linecap:square;"/>
    <path d="M260.269,322.891C261.121,323.383 261.813,324.581 261.813,325.565C261.813,326.548 261.121,326.948 260.269,326.456C259.417,325.964 258.725,324.766 258.725,323.782C258.725,322.799 259.417,322.399 260.269,322.891Z" style="fill:rgb(145,153,161);stroke:black;stroke-width:1px;stroke-linecap:square;"/>
    <path d="M253.703,319.1C254.555,319.592 255.246,320.79 255.246,321.774C255.246,322.757 254.555,323.157 253.703,322.665C252.851,322.173 252.159,320.975 252.159,319.991C252.159,319.008 252.851,318.608 253.703,319.1Z" style="fill:rgb(145,153,161);stroke:black;stroke-width:1px;stroke-linecap:square;"/>
    <path d="M246.657,315.032C247.509,315.524 248.2,316.722 248.2,317.706C248.2,318.689 247.509,319.089 246.657,318.597C245.805,318.105 245.113,316.907 245.113,315.923C245.113,314.94 245.805,314.54 246.657,315.032Z" style="fill:rgb(145,153,161);stroke:black;stroke-width:1px;stroke-linecap:square;"/>
    <path d="M240.091,311.241C240.943,311.733 241.634,312.931 241.634,313.915C241.634,314.898 240.943,315.298 240.091,314.806C239.239,314.314 238.547,313.116 238.547,312.132C238.547,311.149 239.239,310.749 240.091,311.241Z" style="fill:rgb(145,153,161);stroke:black;stroke-width:1px;stroke-linecap:square;"/>
    <path d="M230.331,304.379C231.77,305.21 232.937,307.233 232.937,308.893C232.937,310.554 231.77,311.229 230.331,310.398C228.893,309.568 227.725,307.545 227.725,305.884C227.725,304.223 228.893,303.549 230.331,304.379Z" style="fill:rgb(145,153,161);stroke:black;stroke-width:1px;stroke-linecap:square;"/>
</svg>
