<?xml version="1.0" encoding="UTF-8" standalone="no"?>
<!DOCTYPE svg PUBLIC "-//W3C//DTD SVG 1.1//EN" "http://www.w3.org/Graphics/SVG/1.1/DTD/svg11.dtd">
<svg width="100%" height="100%" viewBox="0 0 176 304" version="1.1" xmlns="http://www.w3.org/2000/svg" xmlns:xlink="http://www.w3.org/1999/xlink" xml:space="preserve" xmlns:serif="http://www.serif.com/" style="fill-rule:evenodd;clip-rule:evenodd;stroke-linecap:round;stroke-miterlimit:1;">
    <g id="Layer1">
    </g>
    <rect id="iPod-Classic" serif:id="iPod Classic" x="-0" y="0" width="176" height="304" style="fill:none;"/>
    <path d="M168,23.263l0,257.474c0,8.424 -6.839,15.263 -15.263,15.263l-129.474,0c-8.424,0 -15.263,-6.839 -15.263,-15.263l-0,-257.474c-0,-8.424 6.839,-15.263 15.263,-15.263l129.474,0c8.424,0 15.263,6.839 15.263,15.263Z" style="fill:none;stroke:#fff;stroke-width:1.5px;"/>
    <path d="M168,23.263l-0,241.474c-0,8.424 -6.839,15.263 -15.263,15.263l-129.474,0c-8.424,0 -15.263,-6.839 -15.263,-15.263l-0,-241.474c-0,-8.424 6.839,-15.263 15.263,-15.263l129.474,-0c8.424,-0 15.263,6.839 15.263,15.263Zm-80,128.737c-27.596,0 -50,22.404 -50,50c-0,27.596 22.404,50 50,50c27.596,0 50,-22.404 50,-50c-0,-27.596 -22.404,-50 -50,-50Zm0,32.245c9.799,0 17.755,7.956 17.755,17.755c-0,9.799 -7.956,17.755 -17.755,17.755c-9.799,-0 -17.755,-7.956 -17.755,-17.755c0,-9.799 7.956,-17.755 17.755,-17.755Zm71,-162.908c-0,-2.394 -1.943,-4.337 -4.337,-4.337l-133.326,0c-2.394,0 -4.337,1.943 -4.337,4.337l-0,100.326c-0,2.394 1.943,4.337 4.337,4.337l133.326,0c2.394,0 4.337,-1.943 4.337,-4.337l-0,-100.326Z" style="fill:#fff;stroke:#fff;stroke-width:1.5px;"/>
    <path d="M156.5,21.771l-0,99.458c-0,1.362 -1.106,2.468 -2.469,2.468l-132.062,0c-1.363,0 -2.469,-1.106 -2.469,-2.468l0,-99.458c0,-1.362 1.106,-2.468 2.469,-2.468l132.062,-0c1.363,-0 2.469,1.106 2.469,2.468Z" style="fill:none;stroke:#fff;stroke-width:1px;"/>
    <path d="M116,40.267l0,46.243c0,2.693 -2.186,4.879 -4.878,4.879l-46.244,-0c-2.692,-0 -4.878,-2.186 -4.878,-4.879l0,-46.243c0,-2.692 2.186,-4.878 4.878,-4.878l46.244,-0c2.692,-0 4.878,2.186 4.878,4.878Zm-16.881,13.107l-0,-6.854c-0,-0.486 -0.171,-0.865 -0.511,-1.139c-0.34,-0.273 -0.741,-0.361 -1.203,-0.264l-9.369,2.041c-1.203,0.268 -1.804,0.906 -1.804,1.914l0.036,20.269c0.098,0.923 -0.279,1.47 -1.13,1.64l-2.898,0.602c-1.822,0.389 -3.171,1.039 -4.046,1.95c-0.875,0.911 -1.313,2.054 -1.313,3.427c0,1.397 0.483,2.536 1.45,3.417c0.966,0.881 2.208,1.322 3.727,1.322c0.668,-0 1.388,-0.131 2.16,-0.392c0.771,-0.261 1.501,-0.678 2.187,-1.249c0.687,-0.571 1.249,-1.321 1.686,-2.251c0.438,-0.929 0.656,-2.056 0.656,-3.381l0,-16.678c0,-0.474 0.064,-0.793 0.192,-0.957c0.127,-0.164 0.41,-0.294 0.847,-0.392l8.33,-1.822c0.304,-0.073 0.547,-0.216 0.729,-0.429c0.182,-0.212 0.274,-0.47 0.274,-0.774Z" style="fill:#fff;stroke:#fff;stroke-width:1.5px;"/>
    <path d="M148,109.5c0,1.38 -1.12,2.5 -2.5,2.5l-115,0c-1.38,0 -2.5,-1.12 -2.5,-2.5c0,-1.38 1.12,-2.5 2.5,-2.5l115,0c1.38,0 2.5,1.12 2.5,2.5Z" style="fill:none;stroke:#fff;stroke-width:1.5px;"/>
    <path d="M93,109.5c-0,1.38 -1.12,2.5 -2.5,2.5l-60,0c-1.38,0 -2.5,-1.12 -2.5,-2.5c0,-1.38 1.12,-2.5 2.5,-2.5l60,0c1.38,0 2.5,1.12 2.5,2.5Z" style="fill:#fff;stroke:#fff;stroke-width:1.5px;"/>
    <path d="M159,21.337l-137.663,104.663c-2.394,0 -4.337,-1.943 -4.337,-4.337l-0,-100.326c-0,-2.394 1.943,-4.337 4.337,-4.337l133.326,0c2.394,0 4.337,1.943 4.337,4.337Z" style="fill:#fff;fill-opacity:0.36;"/>
    <path d="M154.663,17c2.394,0 -137.663,107.057 -137.663,104.663l-0,-100.326c-0,-2.394 1.943,-4.337 4.337,-4.337l133.326,0Z" style="fill:#fff;fill-opacity:0.36;"/>
</svg>
