<?xml version="1.0" encoding="UTF-8" standalone="no"?>
<!DOCTYPE svg PUBLIC "-//W3C//DTD SVG 1.1//EN" "http://www.w3.org/Graphics/SVG/1.1/DTD/svg11.dtd">
<svg width="100%" height="100%" viewBox="0 0 930 585" version="1.1" xmlns="http://www.w3.org/2000/svg" xmlns:xlink="http://www.w3.org/1999/xlink" xml:space="preserve" xmlns:serif="http://www.serif.com/" style="fill-rule:evenodd;clip-rule:evenodd;stroke-linecap:square;stroke-linejoin:round;stroke-miterlimit:1.5;">
    <g id="Layer1">
    </g>
    <rect id="Keyboard" x="0" y="0" width="930" height="585" style="fill:none;"/>
    <path d="M269.074,5.227l0,40l-268.074,154.773l0,-40l268.074,-154.773Z" style="fill:#1c1c1c;stroke:#000;stroke-width:1px;"/>
    <path d="M927.116,385.307l-0,39.386l-658.179,-380l-0,-39.386l658.179,380Z" style="fill:#312e2e;stroke:#000;stroke-width:1px;"/>
    <path d="M269.468,24.387l641.39,370.306l-251.679,145.307l-641.39,-370.307l251.679,-145.306Z" style="stroke:#000;stroke-width:1px;"/>
    <path d="M268.937,5.307l658.179,380l-8.66,5l-658.18,-380l8.661,-5Z" style="fill:#5f5f5f;stroke:#000;stroke-width:1px;"/>
    <path d="M260.276,10.307l7.891,4.555l-251.148,145l-7.89,-4.555l251.147,-145Z" style="fill:#5f5f5f;stroke:#000;stroke-width:1px;"/>
    <path d="M269.506,11.477l27.713,16l-27.713,16l-27.712,-16l27.712,-16Z" style="fill:#009fe3;stroke:#000;stroke-width:1px;"/>
    <path d="M269.506,43.477l0,21.545l-34.641,-20l6.929,-17.545l27.712,16Z" style="fill:#007bb0;stroke:#000;stroke-width:1px;"/>
    <path d="M269.506,43.477l0,21.545l34.508,-19.923l-6.795,-17.622l-27.713,16Z" style="fill:#005980;stroke:#000;stroke-width:1px;"/>
    <path d="M550.099,173.477l27.712,16l-27.712,16l-27.713,-16l27.713,-16Z" style="fill:#fafafa;stroke:#000;stroke-width:1px;"/>
    <path d="M550.099,205.477l-0,21.545l-34.641,-20l6.928,-17.545l27.713,16Z" style="fill:#ddd;stroke:#000;stroke-width:1px;"/>
    <path d="M550.099,205.477l-0,21.545l34.507,-19.923l-6.795,-17.622l-27.712,16Z" style="fill:#c1c1c1;stroke:#000;stroke-width:1px;"/>
    <path d="M593.4,198.477l27.713,16l-27.713,16l-27.713,-16l27.713,-16Z" style="fill:#fafafa;stroke:#000;stroke-width:1px;"/>
    <path d="M593.4,230.477l-0,21.545l-34.641,-20l6.928,-17.545l27.713,16Z" style="fill:#ddd;stroke:#000;stroke-width:1px;"/>
    <path d="M593.4,230.477l-0,21.545l34.508,-19.923l-6.795,-17.622l-27.713,16Z" style="fill:#c1c1c1;stroke:#000;stroke-width:1px;"/>
    <path d="M636.701,223.477l27.713,16l-27.713,16l-27.713,-16l27.713,-16Z" style="fill:#fafafa;stroke:#000;stroke-width:1px;"/>
    <path d="M636.701,255.477l0,21.545l-34.641,-20l6.928,-17.545l27.713,16Z" style="fill:#ddd;stroke:#000;stroke-width:1px;"/>
    <path d="M636.701,255.477l0,21.545l34.508,-19.923l-6.795,-17.622l-27.713,16Z" style="fill:#c1c1c1;stroke:#000;stroke-width:1px;"/>
    <path d="M679.609,248.249l27.713,16l-27.713,16l-27.713,-16l27.713,-16Z" style="fill:#fafafa;stroke:#000;stroke-width:1px;"/>
    <path d="M679.609,280.249l-0,21.546l-34.641,-20l6.928,-17.546l27.713,16Z" style="fill:#ddd;stroke:#000;stroke-width:1px;"/>
    <path d="M679.609,280.249l-0,21.546l34.508,-19.923l-6.795,-17.623l-27.713,16Z" style="fill:#c1c1c1;stroke:#000;stroke-width:1px;"/>
    <path d="M356.109,61.477l27.713,16l-27.713,16l-27.713,-16l27.713,-16Z" style="fill:#fafafa;stroke:#000;stroke-width:1px;"/>
    <path d="M356.109,93.477l-0,21.545l-34.641,-20l6.928,-17.545l27.713,16Z" style="fill:#ddd;stroke:#000;stroke-width:1px;"/>
    <path d="M356.109,93.477l-0,21.545l34.508,-19.923l-6.795,-17.622l-27.713,16Z" style="fill:#c1c1c1;stroke:#000;stroke-width:1px;"/>
    <path d="M399.41,86.477l27.713,16l-27.713,16l-27.713,-16l27.713,-16Z" style="fill:#fafafa;stroke:#000;stroke-width:1px;"/>
    <path d="M399.41,118.477l0,21.545l-34.641,-20l6.928,-17.545l27.713,16Z" style="fill:#ddd;stroke:#000;stroke-width:1px;"/>
    <path d="M399.41,118.477l0,21.545l34.508,-19.923l-6.795,-17.622l-27.713,16Z" style="fill:#c1c1c1;stroke:#000;stroke-width:1px;"/>
    <path d="M442.711,111.477l27.713,16l-27.713,16l-27.712,-16l27.712,-16Z" style="fill:#fafafa;stroke:#000;stroke-width:1px;"/>
    <path d="M442.711,143.477l0,21.545l-34.641,-20l6.929,-17.545l27.712,16Z" style="fill:#ddd;stroke:#000;stroke-width:1px;"/>
    <path d="M442.711,143.477l0,21.545l34.508,-19.923l-6.795,-17.622l-27.713,16Z" style="fill:#c1c1c1;stroke:#000;stroke-width:1px;"/>
    <path d="M485.619,136.249l27.713,16l-27.713,16l-27.713,-16l27.713,-16Z" style="fill:#fafafa;stroke:#000;stroke-width:1px;"/>
    <path d="M485.619,168.249l0,21.546l-34.641,-20l6.928,-17.546l27.713,16Z" style="fill:#ddd;stroke:#000;stroke-width:1px;"/>
    <path d="M485.619,168.249l0,21.546l34.508,-19.923l-6.795,-17.623l-27.713,16Z" style="fill:#c1c1c1;stroke:#000;stroke-width:1px;"/>
    <path d="M746.214,286.704l27.713,16l-27.713,16l-27.713,-16l27.713,-16Z" style="fill:#fafafa;stroke:#000;stroke-width:1px;"/>
    <path d="M746.214,318.704l-0,21.545l-34.641,-20l6.928,-17.545l27.713,16Z" style="fill:#ddd;stroke:#000;stroke-width:1px;"/>
    <path d="M746.214,318.704l-0,21.545l34.508,-19.923l-6.795,-17.622l-27.713,16Z" style="fill:#c1c1c1;stroke:#000;stroke-width:1px;"/>
    <path d="M789.515,311.704l27.713,16l-27.713,16l-27.713,-16l27.713,-16Z" style="fill:#fafafa;stroke:#000;stroke-width:1px;"/>
    <path d="M789.515,343.704l0,21.545l-34.641,-20l6.928,-17.545l27.713,16Z" style="fill:#ddd;stroke:#000;stroke-width:1px;"/>
    <path d="M789.515,343.704l0,21.545l34.508,-19.923l-6.795,-17.622l-27.713,16Z" style="fill:#c1c1c1;stroke:#000;stroke-width:1px;"/>
    <path d="M832.816,336.704l27.713,16l-27.713,16l-27.713,-16l27.713,-16Z" style="fill:#fafafa;stroke:#000;stroke-width:1px;"/>
    <path d="M832.816,368.704l0,21.545l-34.641,-20l6.928,-17.545l27.713,16Z" style="fill:#ddd;stroke:#000;stroke-width:1px;"/>
    <path d="M832.816,368.704l0,21.545l34.508,-19.923l-6.795,-17.622l-27.713,16Z" style="fill:#c1c1c1;stroke:#000;stroke-width:1px;"/>
    <path d="M875.724,361.477l27.713,16l-27.713,16l-27.713,-16l27.713,-16Z" style="fill:#fafafa;stroke:#000;stroke-width:1px;"/>
    <path d="M875.724,393.477l0,21.545l-34.641,-20l6.928,-17.545l27.713,16Z" style="fill:#ddd;stroke:#000;stroke-width:1px;"/>
    <path d="M875.724,393.477l0,21.545l34.508,-19.923l-6.795,-17.622l-27.713,16Z" style="fill:#c1c1c1;stroke:#000;stroke-width:1px;"/>
    <path d="M226.205,36.477l27.713,16l-27.713,16l-27.713,-16l27.713,-16Z" style="fill:#bcbcbc;stroke:#000;stroke-width:1px;"/>
    <path d="M226.205,68.477l0,21.545l-34.641,-20l6.928,-17.545l27.713,16Z" style="fill:#8f8f8f;stroke:#000;stroke-width:1px;"/>
    <path d="M226.205,68.477l0,21.545l34.508,-19.923l-6.795,-17.622l-27.713,16Z" style="fill:#4c4c4c;stroke:#000;stroke-width:1px;"/>
    <path d="M269.506,61.477l27.713,16l-27.713,16l-27.712,-16l27.712,-16Z" style="fill:#fafafa;stroke:#000;stroke-width:1px;"/>
    <path d="M269.506,93.477l0,21.545l-34.641,-20l6.929,-17.545l27.712,16Z" style="fill:#ddd;stroke:#000;stroke-width:1px;"/>
    <path d="M269.506,93.477l0,21.545l34.508,-19.923l-6.795,-17.622l-27.713,16Z" style="fill:#c1c1c1;stroke:#000;stroke-width:1px;"/>
    <path d="M312.808,86.477l27.712,16l-27.712,16l-27.713,-16l27.713,-16Z" style="fill:#fafafa;stroke:#000;stroke-width:1px;"/>
    <path d="M312.808,118.477l-0,21.545l-34.641,-20l6.928,-17.545l27.713,16Z" style="fill:#ddd;stroke:#000;stroke-width:1px;"/>
    <path d="M312.808,118.477l-0,21.545l34.507,-19.923l-6.795,-17.622l-27.712,16Z" style="fill:#c1c1c1;stroke:#000;stroke-width:1px;"/>
    <path d="M356.109,111.477l27.713,16l-27.713,16l-27.713,-16l27.713,-16Z" style="fill:#fafafa;stroke:#000;stroke-width:1px;"/>
    <path d="M356.109,143.477l-0,21.545l-34.641,-20l6.928,-17.545l27.713,16Z" style="fill:#ddd;stroke:#000;stroke-width:1px;"/>
    <path d="M356.109,143.477l-0,21.545l34.508,-19.923l-6.795,-17.622l-27.713,16Z" style="fill:#c1c1c1;stroke:#000;stroke-width:1px;"/>
    <path d="M399.41,136.477l27.713,16l-27.713,16l-27.713,-16l27.713,-16Z" style="fill:#fafafa;stroke:#000;stroke-width:1px;"/>
    <path d="M399.41,168.477l0,21.545l-34.641,-20l6.928,-17.545l27.713,16Z" style="fill:#ddd;stroke:#000;stroke-width:1px;"/>
    <path d="M399.41,168.477l0,21.545l34.508,-19.923l-6.795,-17.622l-27.713,16Z" style="fill:#c1c1c1;stroke:#000;stroke-width:1px;"/>
    <path d="M442.711,161.477l27.713,16l-27.713,16l-27.712,-16l27.712,-16Z" style="fill:#fafafa;stroke:#000;stroke-width:1px;"/>
    <path d="M442.711,193.477l0,21.545l-34.641,-20l6.929,-17.545l27.712,16Z" style="fill:#ddd;stroke:#000;stroke-width:1px;"/>
    <path d="M442.711,193.477l0,21.545l34.508,-19.923l-6.795,-17.622l-27.713,16Z" style="fill:#c1c1c1;stroke:#000;stroke-width:1px;"/>
    <path d="M486.013,186.477l27.713,16l-27.713,16l-27.713,-16l27.713,-16Z" style="fill:#fafafa;stroke:#000;stroke-width:1px;"/>
    <path d="M486.013,218.477l-0,21.545l-34.641,-20l6.928,-17.545l27.713,16Z" style="fill:#ddd;stroke:#000;stroke-width:1px;"/>
    <path d="M486.013,218.477l-0,21.545l34.507,-19.923l-6.794,-17.622l-27.713,16Z" style="fill:#c1c1c1;stroke:#000;stroke-width:1px;"/>
    <path d="M529.314,211.477l27.713,16l-27.713,16l-27.713,-16l27.713,-16Z" style="fill:#fafafa;stroke:#000;stroke-width:1px;"/>
    <path d="M529.314,243.477l-0,21.545l-34.641,-20l6.928,-17.545l27.713,16Z" style="fill:#ddd;stroke:#000;stroke-width:1px;"/>
    <path d="M529.314,243.477l-0,21.545l34.508,-19.923l-6.795,-17.622l-27.713,16Z" style="fill:#c1c1c1;stroke:#000;stroke-width:1px;"/>
    <path d="M572.615,236.477l27.713,16l-27.713,16l-27.713,-16l27.713,-16Z" style="fill:#fafafa;stroke:#000;stroke-width:1px;"/>
    <path d="M572.615,268.477l0,21.545l-34.641,-20l6.928,-17.545l27.713,16Z" style="fill:#ddd;stroke:#000;stroke-width:1px;"/>
    <path d="M572.615,268.477l0,21.545l34.508,-19.923l-6.795,-17.622l-27.713,16Z" style="fill:#c1c1c1;stroke:#000;stroke-width:1px;"/>
    <path d="M615.917,261.477l27.712,16l-27.712,16l-27.713,-16l27.713,-16Z" style="fill:#fafafa;stroke:#000;stroke-width:1px;"/>
    <path d="M615.917,293.477l-0,21.545l-34.642,-20l6.929,-17.545l27.713,16Z" style="fill:#ddd;stroke:#000;stroke-width:1px;"/>
    <path d="M615.917,293.477l-0,21.545l34.507,-19.923l-6.795,-17.622l-27.712,16Z" style="fill:#c1c1c1;stroke:#000;stroke-width:1px;"/>
    <path d="M659.218,286.477l27.713,16l-27.713,16l-27.713,-16l27.713,-16Z" style="fill:#fafafa;stroke:#000;stroke-width:1px;"/>
    <path d="M659.218,318.477l-0,21.545l-34.641,-20l6.928,-17.545l27.713,16Z" style="fill:#ddd;stroke:#000;stroke-width:1px;"/>
    <path d="M659.218,318.477l-0,21.545l34.508,-19.923l-6.795,-17.622l-27.713,16Z" style="fill:#c1c1c1;stroke:#000;stroke-width:1px;"/>
    <path d="M702.519,311.477l27.713,16l-27.713,16l-27.713,-16l27.713,-16Z" style="fill:#fafafa;stroke:#000;stroke-width:1px;"/>
    <path d="M702.519,343.477l0,21.545l-34.641,-20l6.928,-17.545l27.713,16Z" style="fill:#ddd;stroke:#000;stroke-width:1px;"/>
    <path d="M702.519,343.477l0,21.545l34.508,-19.923l-6.795,-17.622l-27.713,16Z" style="fill:#c1c1c1;stroke:#000;stroke-width:1px;"/>
    <path d="M745.82,336.477l27.713,16l-27.713,16l-27.712,-16l27.712,-16Z" style="fill:#fafafa;stroke:#000;stroke-width:1px;"/>
    <path d="M745.82,368.477l0,21.545l-34.641,-20l6.929,-17.545l27.712,16Z" style="fill:#ddd;stroke:#000;stroke-width:1px;"/>
    <path d="M745.82,368.477l0,21.545l34.508,-19.923l-6.795,-17.622l-27.713,16Z" style="fill:#c1c1c1;stroke:#000;stroke-width:1px;"/>
    <path d="M832.423,418.477l-0,21.545l34.508,-19.923l-6.795,-17.622l-27.713,16Z" style="fill:#4c4c4c;stroke:#000;stroke-width:1px;"/>
    <path d="M789.122,361.477l71.014,41l-27.713,16l-71.014,-41l27.713,-16Z" style="fill:#bcbcbc;stroke:#000;stroke-width:1px;"/>
    <path d="M832.423,418.477l-0,21.545l-77.942,-45l6.928,-17.545l71.014,41Z" style="fill:#8f8f8f;stroke:#000;stroke-width:1px;"/>
    <path d="M183.037,61.553l46.239,26.696l-27.713,16l-46.239,-26.696l27.713,-16Z" style="fill:#bcbcbc;stroke:#000;stroke-width:1px;"/>
    <path d="M201.563,104.249l-0,21.546l-53.167,-30.696l6.928,-17.546l46.239,26.696Z" style="fill:#8f8f8f;stroke:#000;stroke-width:1px;"/>
    <path d="M201.563,104.249l-0,21.546l34.508,-19.923l-6.795,-17.623l-27.713,16Z" style="fill:#4c4c4c;stroke:#000;stroke-width:1px;"/>
    <path d="M247.935,99.022l27.713,16l-27.713,16l-27.713,-16l27.713,-16Z" style="fill:#fafafa;stroke:#000;stroke-width:1px;"/>
    <path d="M247.935,131.022l-0,21.546l-34.641,-20l6.928,-17.546l27.713,16Z" style="fill:#ddd;stroke:#000;stroke-width:1px;"/>
    <path d="M247.935,131.022l-0,21.546l34.508,-19.923l-6.795,-17.623l-27.713,16Z" style="fill:#c1c1c1;stroke:#000;stroke-width:1px;"/>
    <path d="M291.236,124.022l27.713,16l-27.713,16l-27.713,-16l27.713,-16Z" style="fill:#fafafa;stroke:#000;stroke-width:1px;"/>
    <path d="M291.236,156.022l0,21.546l-34.641,-20l6.928,-17.546l27.713,16Z" style="fill:#ddd;stroke:#000;stroke-width:1px;"/>
    <path d="M291.236,156.022l0,21.546l34.508,-19.923l-6.795,-17.623l-27.713,16Z" style="fill:#c1c1c1;stroke:#000;stroke-width:1px;"/>
    <path d="M334.537,149.022l27.713,16l-27.713,16l-27.712,-16l27.712,-16Z" style="fill:#fafafa;stroke:#000;stroke-width:1px;"/>
    <path d="M334.537,181.022l0,21.546l-34.641,-20l6.929,-17.546l27.712,16Z" style="fill:#ddd;stroke:#000;stroke-width:1px;"/>
    <path d="M334.537,181.022l0,21.546l34.508,-19.923l-6.795,-17.623l-27.713,16Z" style="fill:#c1c1c1;stroke:#000;stroke-width:1px;"/>
    <path d="M377.839,174.022l27.712,16l-27.712,16l-27.713,-16l27.713,-16Z" style="fill:#fafafa;stroke:#000;stroke-width:1px;"/>
    <path d="M377.839,206.022l-0,21.546l-34.641,-20l6.928,-17.546l27.713,16Z" style="fill:#ddd;stroke:#000;stroke-width:1px;"/>
    <path d="M377.839,206.022l-0,21.546l34.507,-19.923l-6.795,-17.623l-27.712,16Z" style="fill:#c1c1c1;stroke:#000;stroke-width:1px;"/>
    <path d="M421.14,199.022l27.713,16l-27.713,16l-27.713,-16l27.713,-16Z" style="fill:#fafafa;stroke:#000;stroke-width:1px;"/>
    <path d="M421.14,231.022l-0,21.546l-34.641,-20l6.928,-17.546l27.713,16Z" style="fill:#ddd;stroke:#000;stroke-width:1px;"/>
    <path d="M421.14,231.022l-0,21.546l34.508,-19.923l-6.795,-17.623l-27.713,16Z" style="fill:#c1c1c1;stroke:#000;stroke-width:1px;"/>
    <path d="M464.441,224.022l27.713,16l-27.713,16l-27.713,-16l27.713,-16Z" style="fill:#fafafa;stroke:#000;stroke-width:1px;"/>
    <path d="M464.441,256.022l0,21.546l-34.641,-20l6.928,-17.546l27.713,16Z" style="fill:#ddd;stroke:#000;stroke-width:1px;"/>
    <path d="M464.441,256.022l0,21.546l34.508,-19.923l-6.795,-17.623l-27.713,16Z" style="fill:#c1c1c1;stroke:#000;stroke-width:1px;"/>
    <path d="M507.742,249.022l27.713,16l-27.713,16l-27.712,-16l27.712,-16Z" style="fill:#fafafa;stroke:#000;stroke-width:1px;"/>
    <path d="M507.742,281.022l0,21.546l-34.641,-20l6.929,-17.546l27.712,16Z" style="fill:#ddd;stroke:#000;stroke-width:1px;"/>
    <path d="M507.742,281.022l0,21.546l34.508,-19.923l-6.795,-17.623l-27.713,16Z" style="fill:#c1c1c1;stroke:#000;stroke-width:1px;"/>
    <path d="M551.044,274.022l27.713,16l-27.713,16l-27.713,-16l27.713,-16Z" style="fill:#fafafa;stroke:#000;stroke-width:1px;"/>
    <path d="M551.044,306.022l-0,21.546l-34.641,-20l6.928,-17.546l27.713,16Z" style="fill:#ddd;stroke:#000;stroke-width:1px;"/>
    <path d="M551.044,306.022l-0,21.546l34.508,-19.923l-6.795,-17.623l-27.713,16Z" style="fill:#c1c1c1;stroke:#000;stroke-width:1px;"/>
    <path d="M594.345,299.022l27.713,16l-27.713,16l-27.713,-16l27.713,-16Z" style="fill:#fafafa;stroke:#000;stroke-width:1px;"/>
    <path d="M594.345,331.022l0,21.546l-34.641,-20l6.928,-17.546l27.713,16Z" style="fill:#ddd;stroke:#000;stroke-width:1px;"/>
    <path d="M594.345,331.022l0,21.546l34.508,-19.923l-6.795,-17.623l-27.713,16Z" style="fill:#c1c1c1;stroke:#000;stroke-width:1px;"/>
    <path d="M637.646,324.022l27.713,16l-27.713,16l-27.713,-16l27.713,-16Z" style="fill:#fafafa;stroke:#000;stroke-width:1px;"/>
    <path d="M637.646,356.022l0,21.546l-34.641,-20l6.928,-17.546l27.713,16Z" style="fill:#ddd;stroke:#000;stroke-width:1px;"/>
    <path d="M637.646,356.022l0,21.546l34.508,-19.923l-6.795,-17.623l-27.713,16Z" style="fill:#c1c1c1;stroke:#000;stroke-width:1px;"/>
    <path d="M680.948,349.022l27.712,16l-27.712,16l-27.713,-16l27.713,-16Z" style="fill:#fafafa;stroke:#000;stroke-width:1px;"/>
    <path d="M680.948,381.022l-0,21.546l-34.641,-20l6.928,-17.546l27.713,16Z" style="fill:#ddd;stroke:#000;stroke-width:1px;"/>
    <path d="M680.948,381.022l-0,21.546l34.507,-19.923l-6.795,-17.623l-27.712,16Z" style="fill:#c1c1c1;stroke:#000;stroke-width:1px;"/>
    <path d="M724.249,374.022l27.713,16l-27.713,16l-27.713,-16l27.713,-16Z" style="fill:#fafafa;stroke:#000;stroke-width:1px;"/>
    <path d="M724.249,406.022l-0,21.546l-34.641,-20l6.928,-17.546l27.713,16Z" style="fill:#ddd;stroke:#000;stroke-width:1px;"/>
    <path d="M724.249,406.022l-0,21.546l34.508,-19.923l-6.795,-17.623l-27.713,16Z" style="fill:#c1c1c1;stroke:#000;stroke-width:1px;"/>
    <path d="M770.596,400.781l46.238,26.696l-27.712,16l-46.239,-26.696l27.713,-16Z" style="fill:#bcbcbc;stroke:#000;stroke-width:1px;"/>
    <path d="M789.122,443.477l-0,21.545l-53.167,-30.696l6.928,-17.545l46.239,26.696Z" style="fill:#8f8f8f;stroke:#000;stroke-width:1px;"/>
    <path d="M789.122,443.477l-0,21.545l34.507,-19.923l-6.795,-17.622l-27.712,16Z" style="fill:#4c4c4c;stroke:#000;stroke-width:1px;"/>
    <path d="M182.904,143.477l-0,21.545l34.508,-19.923l-6.795,-17.622l-27.713,16Z" style="fill:#4c4c4c;stroke:#000;stroke-width:1px;"/>
    <path d="M139.603,86.477l71.014,41l-27.713,16l-71.014,-41l27.713,-16Z" style="fill:#bcbcbc;stroke:#000;stroke-width:1px;"/>
    <path d="M182.904,143.477l-0,21.545l-77.942,-45l6.928,-17.545l71.014,41Z" style="fill:#8f8f8f;stroke:#000;stroke-width:1px;"/>
    <path d="M226.205,136.477l27.713,16l-27.713,16l-27.713,-16l27.713,-16Z" style="fill:#fafafa;stroke:#000;stroke-width:1px;"/>
    <path d="M226.205,168.477l0,21.545l-34.641,-20l6.928,-17.545l27.713,16Z" style="fill:#ddd;stroke:#000;stroke-width:1px;"/>
    <path d="M226.205,168.477l0,21.545l34.508,-19.923l-6.795,-17.622l-27.713,16Z" style="fill:#c1c1c1;stroke:#000;stroke-width:1px;"/>
    <path d="M269.506,161.477l27.713,16l-27.713,16l-27.712,-16l27.712,-16Z" style="fill:#fafafa;stroke:#000;stroke-width:1px;"/>
    <path d="M269.506,193.477l0,21.545l-34.641,-20l6.929,-17.545l27.712,16Z" style="fill:#ddd;stroke:#000;stroke-width:1px;"/>
    <path d="M269.506,193.477l0,21.545l34.508,-19.923l-6.795,-17.622l-27.713,16Z" style="fill:#c1c1c1;stroke:#000;stroke-width:1px;"/>
    <path d="M312.808,186.477l27.712,16l-27.712,16l-27.713,-16l27.713,-16Z" style="fill:#fafafa;stroke:#000;stroke-width:1px;"/>
    <path d="M312.808,218.477l-0,21.545l-34.641,-20l6.928,-17.545l27.713,16Z" style="fill:#ddd;stroke:#000;stroke-width:1px;"/>
    <path d="M312.808,218.477l-0,21.545l34.507,-19.923l-6.795,-17.622l-27.712,16Z" style="fill:#c1c1c1;stroke:#000;stroke-width:1px;"/>
    <path d="M356.109,211.477l27.713,16l-27.713,16l-27.713,-16l27.713,-16Z" style="fill:#fafafa;stroke:#000;stroke-width:1px;"/>
    <path d="M356.109,243.477l-0,21.545l-34.641,-20l6.928,-17.545l27.713,16Z" style="fill:#ddd;stroke:#000;stroke-width:1px;"/>
    <path d="M356.109,243.477l-0,21.545l34.508,-19.923l-6.795,-17.622l-27.713,16Z" style="fill:#c1c1c1;stroke:#000;stroke-width:1px;"/>
    <path d="M399.41,236.477l27.713,16l-27.713,16l-27.713,-16l27.713,-16Z" style="fill:#fafafa;stroke:#000;stroke-width:1px;"/>
    <path d="M399.41,268.477l0,21.545l-34.641,-20l6.928,-17.545l27.713,16Z" style="fill:#ddd;stroke:#000;stroke-width:1px;"/>
    <path d="M399.41,268.477l0,21.545l34.508,-19.923l-6.795,-17.622l-27.713,16Z" style="fill:#c1c1c1;stroke:#000;stroke-width:1px;"/>
    <path d="M442.711,261.477l27.713,16l-27.713,16l-27.712,-16l27.712,-16Z" style="fill:#fafafa;stroke:#000;stroke-width:1px;"/>
    <path d="M442.711,293.477l0,21.545l-34.641,-20l6.929,-17.545l27.712,16Z" style="fill:#ddd;stroke:#000;stroke-width:1px;"/>
    <path d="M442.711,293.477l0,21.545l34.508,-19.923l-6.795,-17.622l-27.713,16Z" style="fill:#c1c1c1;stroke:#000;stroke-width:1px;"/>
    <path d="M486.013,286.477l27.713,16l-27.713,16l-27.713,-16l27.713,-16Z" style="fill:#fafafa;stroke:#000;stroke-width:1px;"/>
    <path d="M486.013,318.477l-0,21.545l-34.641,-20l6.928,-17.545l27.713,16Z" style="fill:#ddd;stroke:#000;stroke-width:1px;"/>
    <path d="M486.013,318.477l-0,21.545l34.507,-19.923l-6.794,-17.622l-27.713,16Z" style="fill:#c1c1c1;stroke:#000;stroke-width:1px;"/>
    <path d="M529.314,311.477l27.713,16l-27.713,16l-27.713,-16l27.713,-16Z" style="fill:#fafafa;stroke:#000;stroke-width:1px;"/>
    <path d="M529.314,343.477l-0,21.545l-34.641,-20l6.928,-17.545l27.713,16Z" style="fill:#ddd;stroke:#000;stroke-width:1px;"/>
    <path d="M529.314,343.477l-0,21.545l34.508,-19.923l-6.795,-17.622l-27.713,16Z" style="fill:#c1c1c1;stroke:#000;stroke-width:1px;"/>
    <path d="M572.615,336.477l27.713,16l-27.713,16l-27.713,-16l27.713,-16Z" style="fill:#fafafa;stroke:#000;stroke-width:1px;"/>
    <path d="M572.615,368.477l0,21.545l-34.641,-20l6.928,-17.545l27.713,16Z" style="fill:#ddd;stroke:#000;stroke-width:1px;"/>
    <path d="M572.615,368.477l0,21.545l34.508,-19.923l-6.795,-17.622l-27.713,16Z" style="fill:#c1c1c1;stroke:#000;stroke-width:1px;"/>
    <path d="M615.917,361.477l27.712,16l-27.712,16l-27.713,-16l27.713,-16Z" style="fill:#fafafa;stroke:#000;stroke-width:1px;"/>
    <path d="M615.917,393.477l-0,21.545l-34.642,-20l6.929,-17.545l27.713,16Z" style="fill:#ddd;stroke:#000;stroke-width:1px;"/>
    <path d="M615.917,393.477l-0,21.545l34.507,-19.923l-6.795,-17.622l-27.712,16Z" style="fill:#c1c1c1;stroke:#000;stroke-width:1px;"/>
    <path d="M659.218,386.477l27.713,16l-27.713,16l-27.713,-16l27.713,-16Z" style="fill:#fafafa;stroke:#000;stroke-width:1px;"/>
    <path d="M659.218,418.477l-0,21.545l-34.641,-20l6.928,-17.545l27.713,16Z" style="fill:#ddd;stroke:#000;stroke-width:1px;"/>
    <path d="M659.218,418.477l-0,21.545l34.508,-19.923l-6.795,-17.622l-27.713,16Z" style="fill:#c1c1c1;stroke:#000;stroke-width:1px;"/>
    <path d="M745.82,468.477l0,21.545l34.508,-19.923l-6.795,-17.622l-27.713,16Z" style="fill:#4c4c4c;stroke:#000;stroke-width:1px;"/>
    <path d="M702.519,411.477l71.014,41l-27.713,16l-71.014,-41l27.713,-16Z" style="fill:#bcbcbc;stroke:#000;stroke-width:1px;"/>
    <path d="M745.82,468.477l0,21.545l-77.942,-45l6.928,-17.545l71.014,41Z" style="fill:#8f8f8f;stroke:#000;stroke-width:1px;"/>
    <path d="M162.603,181.756l-0,21.545l34.507,-19.923l-6.795,-17.622l-27.712,16Z" style="fill:#4c4c4c;stroke:#000;stroke-width:1px;"/>
    <path d="M98.079,112.503l92.236,53.253l-27.712,16l-92.237,-53.253l27.713,-16Z" style="fill:#bcbcbc;stroke:#000;stroke-width:1px;"/>
    <path d="M162.603,181.756l-0,21.545l-100.943,-58.279l8.706,-16.519l92.237,53.253Z" style="fill:#8f8f8f;stroke:#000;stroke-width:1px;"/>
    <path d="M206.38,175.03l27.713,16l-27.713,16l-27.713,-16l27.713,-16Z" style="fill:#fafafa;stroke:#000;stroke-width:1px;"/>
    <path d="M206.38,207.03l-0,21.546l-34.641,-20l6.928,-17.546l27.713,16Z" style="fill:#ddd;stroke:#000;stroke-width:1px;"/>
    <path d="M206.38,207.03l-0,21.546l34.508,-19.923l-6.795,-17.623l-27.713,16Z" style="fill:#c1c1c1;stroke:#000;stroke-width:1px;"/>
    <path d="M249.681,200.03l27.713,16l-27.713,16l-27.713,-16l27.713,-16Z" style="fill:#fafafa;stroke:#000;stroke-width:1px;"/>
    <path d="M249.681,232.03l0,21.546l-34.641,-20l6.928,-17.546l27.713,16Z" style="fill:#ddd;stroke:#000;stroke-width:1px;"/>
    <path d="M249.681,232.03l0,21.546l34.508,-19.923l-6.795,-17.623l-27.713,16Z" style="fill:#c1c1c1;stroke:#000;stroke-width:1px;"/>
    <path d="M292.982,225.03l27.713,16l-27.713,16l-27.712,-16l27.712,-16Z" style="fill:#fafafa;stroke:#000;stroke-width:1px;"/>
    <path d="M292.982,257.03l0,21.546l-34.641,-20l6.929,-17.546l27.712,16Z" style="fill:#ddd;stroke:#000;stroke-width:1px;"/>
    <path d="M292.982,257.03l0,21.546l34.508,-19.923l-6.795,-17.623l-27.713,16Z" style="fill:#c1c1c1;stroke:#000;stroke-width:1px;"/>
    <path d="M336.284,250.03l27.712,16l-27.712,16l-27.713,-16l27.713,-16Z" style="fill:#fafafa;stroke:#000;stroke-width:1px;"/>
    <path d="M336.284,282.03l-0,21.546l-34.641,-20l6.928,-17.546l27.713,16Z" style="fill:#ddd;stroke:#000;stroke-width:1px;"/>
    <path d="M336.284,282.03l-0,21.546l34.507,-19.923l-6.795,-17.623l-27.712,16Z" style="fill:#c1c1c1;stroke:#000;stroke-width:1px;"/>
    <path d="M379.585,275.03l27.713,16l-27.713,16l-27.713,-16l27.713,-16Z" style="fill:#fafafa;stroke:#000;stroke-width:1px;"/>
    <path d="M379.585,307.03l-0,21.546l-34.641,-20l6.928,-17.546l27.713,16Z" style="fill:#ddd;stroke:#000;stroke-width:1px;"/>
    <path d="M379.585,307.03l-0,21.546l34.508,-19.923l-6.795,-17.623l-27.713,16Z" style="fill:#c1c1c1;stroke:#000;stroke-width:1px;"/>
    <path d="M422.886,300.03l27.713,16l-27.713,16l-27.713,-16l27.713,-16Z" style="fill:#fafafa;stroke:#000;stroke-width:1px;"/>
    <path d="M422.886,332.03l0,21.546l-34.641,-20l6.928,-17.546l27.713,16Z" style="fill:#f9f9f9;stroke:#000;stroke-width:1px;"/>
    <path d="M422.886,332.03l0,21.546l34.508,-19.923l-6.795,-17.623l-27.713,16Z" style="fill:#c1c1c1;stroke:#000;stroke-width:1px;"/>
    <path d="M466.187,325.03l27.713,16l-27.713,16l-27.712,-16l27.712,-16Z" style="fill:#fafafa;stroke:#000;stroke-width:1px;"/>
    <path d="M466.187,357.03l0,21.546l-34.641,-20l6.929,-17.546l27.712,16Z" style="fill:#ddd;stroke:#000;stroke-width:1px;"/>
    <path d="M466.187,357.03l0,21.546l34.508,-19.923l-6.795,-17.623l-27.713,16Z" style="fill:#c1c1c1;stroke:#000;stroke-width:1px;"/>
    <path d="M509.489,350.03l27.713,16l-27.713,16l-27.713,-16l27.713,-16Z" style="fill:#fafafa;stroke:#000;stroke-width:1px;"/>
    <path d="M509.489,382.03l-0,21.546l-34.641,-20l6.928,-17.546l27.713,16Z" style="fill:#ddd;stroke:#000;stroke-width:1px;"/>
    <path d="M509.489,382.03l-0,21.546l34.507,-19.923l-6.794,-17.623l-27.713,16Z" style="fill:#c1c1c1;stroke:#000;stroke-width:1px;"/>
    <path d="M552.79,375.03l27.713,16l-27.713,16l-27.713,-16l27.713,-16Z" style="fill:#fafafa;stroke:#000;stroke-width:1px;"/>
    <path d="M552.79,407.03l-0,21.546l-34.641,-20l6.928,-17.546l27.713,16Z" style="fill:#ddd;stroke:#000;stroke-width:1px;"/>
    <path d="M552.79,407.03l-0,21.546l34.508,-19.923l-6.795,-17.623l-27.713,16Z" style="fill:#c1c1c1;stroke:#000;stroke-width:1px;"/>
    <path d="M596.091,400.03l27.713,16l-27.713,16l-27.713,-16l27.713,-16Z" style="fill:#fafafa;stroke:#000;stroke-width:1px;"/>
    <path d="M596.091,432.03l0,21.546l-34.641,-20l6.928,-17.546l27.713,16Z" style="fill:#ddd;stroke:#000;stroke-width:1px;"/>
    <path d="M596.091,432.03l0,21.546l34.508,-19.923l-6.795,-17.623l-27.713,16Z" style="fill:#c1c1c1;stroke:#000;stroke-width:1px;"/>
    <path d="M702.016,493.186l-0,21.546l34.508,-19.923l-6.795,-17.623l-27.713,16Z" style="fill:#4c4c4c;stroke:#000;stroke-width:1px;"/>
    <path d="M640.492,425.665l89.237,51.521l-27.713,16l-89.236,-51.521l27.712,-16Z" style="fill:#bcbcbc;stroke:#000;stroke-width:1px;"/>
    <path d="M702.016,493.186l-0,21.546l-97.942,-56.547l8.706,-16.52l89.236,51.521Z" style="fill:#8f8f8f;stroke:#000;stroke-width:1px;"/>
    <path d="M53.154,136.565l36.373,21l-27.713,16l-36.373,-21l27.713,-16Z" style="fill:#bcbcbc;stroke:#000;stroke-width:1px;"/>
    <path d="M61.814,173.565l0,21.546l-43.301,-25l6.928,-17.546l36.373,21Z" style="fill:#8f8f8f;stroke:#000;stroke-width:1px;"/>
    <path d="M61.814,173.565l0,21.546l34.508,-19.923l-6.795,-17.623l-27.713,16Z" style="fill:#4c4c4c;stroke:#000;stroke-width:1px;"/>
    <path d="M105.115,166.565l36.373,21l-27.712,16l-36.373,-21l27.712,-16Z" style="fill:#bcbcbc;stroke:#000;stroke-width:1px;"/>
    <path d="M113.776,203.565l-0,21.546l-43.302,-25l6.929,-17.546l36.373,21Z" style="fill:#8f8f8f;stroke:#000;stroke-width:1px;"/>
    <path d="M113.776,203.565l-0,21.546l34.507,-19.923l-6.795,-17.623l-27.712,16Z" style="fill:#4c4c4c;stroke:#000;stroke-width:1px;"/>
    <path d="M157.077,196.565l36.373,21l-27.713,16l-36.373,-21l27.713,-16Z" style="fill:#bcbcbc;stroke:#000;stroke-width:1px;"/>
    <path d="M165.737,233.565l0,21.546l-43.301,-25l6.928,-17.546l36.373,21Z" style="fill:#8f8f8f;stroke:#000;stroke-width:1px;"/>
    <path d="M165.737,233.565l0,21.546l34.508,-19.923l-6.795,-17.623l-27.713,16Z" style="fill:#4c4c4c;stroke:#000;stroke-width:1px;"/>
    <path d="M451.372,398.477l-0,21.545l34.507,-19.923l-6.795,-17.622l-27.712,16Z" style="fill:#c1c1c1;stroke:#000;stroke-width:1px;"/>
    <path d="M209.038,226.565l270.046,155.912l-27.712,16l-270.046,-155.912l27.712,-16Z" style="fill:#fafafa;stroke:#000;stroke-width:1px;"/>
    <path d="M451.372,398.477l-0,21.545l-276.975,-159.911l7.179,-17.401l269.796,155.767Z" style="fill:#ddd;stroke:#000;stroke-width:1px;"/>
    <path d="M494.634,391.454l36.374,21l-27.713,16l-36.373,-21l27.712,-16Z" style="fill:#bcbcbc;stroke:#000;stroke-width:1px;"/>
    <path d="M503.295,428.454l-0,21.546l-43.302,-25l6.929,-17.546l36.373,21Z" style="fill:#8f8f8f;stroke:#000;stroke-width:1px;"/>
    <path d="M503.295,428.454l-0,21.546l34.508,-19.923l-6.795,-17.623l-27.713,16Z" style="fill:#4c4c4c;stroke:#000;stroke-width:1px;"/>
    <path d="M546.596,421.454l36.373,21l-27.713,16l-36.373,-21l27.713,-16Z" style="fill:#bcbcbc;stroke:#000;stroke-width:1px;"/>
    <path d="M555.256,458.454l0,21.546l-43.301,-25l6.928,-17.546l36.373,21Z" style="fill:#8f8f8f;stroke:#000;stroke-width:1px;"/>
    <path d="M555.256,458.454l0,21.546l34.508,-19.923l-6.795,-17.623l-27.713,16Z" style="fill:#4c4c4c;stroke:#000;stroke-width:1px;"/>
    <path d="M598.558,451.454l36.373,21l-27.713,16l-36.373,-21l27.713,-16Z" style="fill:#bcbcbc;stroke:#000;stroke-width:1px;"/>
    <path d="M607.218,488.454l-0,21.546l-43.301,-25l6.928,-17.546l36.373,21Z" style="fill:#8f8f8f;stroke:#000;stroke-width:1px;"/>
    <path d="M607.218,488.454l-0,21.546l34.508,-19.923l-6.795,-17.623l-27.713,16Z" style="fill:#4c4c4c;stroke:#000;stroke-width:1px;"/>
    <path d="M650.054,481.186l36.373,21l-27.712,16l-36.373,-21l27.712,-16Z" style="fill:#bcbcbc;stroke:#000;stroke-width:1px;"/>
    <path d="M658.715,518.186l-0,21.546l-43.302,-25l6.929,-17.546l36.373,21Z" style="fill:#8f8f8f;stroke:#000;stroke-width:1px;"/>
    <path d="M658.715,518.186l-0,21.546l34.507,-19.923l-6.795,-17.623l-27.712,16Z" style="fill:#4c4c4c;stroke:#000;stroke-width:1px;"/>
    <path d="M9.66,155l658.18,380l-8.661,5l-658.179,-380l8.66,-5Z" style="fill:#5f5f5f;stroke:#000;stroke-width:1px;"/>
    <path d="M659.179,540l0,40l-658.179,-380l-0,-40l658.179,380Z" style="fill:#424242;stroke:#000;stroke-width:1px;"/>
    <path d="M927.647,385l0,40l-268.468,155l0,-40l268.468,-155Z" style="fill:#1c1c1c;stroke:#000;stroke-width:1px;"/>
    <path d="M910.101,385.483l7.89,4.555l-250.616,144.694l-7.891,-4.556l250.617,-144.693Z" style="fill:#5f5f5f;stroke:#000;stroke-width:1px;"/>
</svg>
