<?xml version="1.0" encoding="UTF-8" standalone="no"?>
<!DOCTYPE svg PUBLIC "-//W3C//DTD SVG 1.1//EN" "http://www.w3.org/Graphics/SVG/1.1/DTD/svg11.dtd">
<svg width="100%" height="100%" viewBox="0 0 794 397" version="1.1" xmlns="http://www.w3.org/2000/svg" xmlns:xlink="http://www.w3.org/1999/xlink" xml:space="preserve" xmlns:serif="http://www.serif.com/" style="fill-rule:evenodd;clip-rule:evenodd;stroke-linecap:square;stroke-linejoin:round;stroke-miterlimit:1.5;">
    <g id="Layer1">
    </g>
    <rect id="Keychron-K8" serif:id="Keychron K8" x="0" y="0" width="793.614" height="396.807" style="fill:none;"/>
    <g>
        <path d="M269.744,11.191L269.744,37.248L95.111,138.072L95.111,112.015L269.744,11.191Z" style="fill:rgb(28,28,28);stroke:black;stroke-width:1px;"/>
        <path d="M698.413,258.787L698.413,284.444L269.654,36.9L269.654,11.243L698.413,258.787Z" style="fill:rgb(49,46,46);stroke:black;stroke-width:1px;"/>
        <path d="M270,23.672L687.822,264.901L523.87,359.559L106.048,118.329L270,23.672Z" style="stroke:black;stroke-width:1px;"/>
        <path d="M269.654,11.243L698.413,258.787L692.771,262.044L264.012,14.5L269.654,11.243Z" style="fill:rgb(95,95,95);stroke:black;stroke-width:1px;"/>
        <path d="M264.012,14.5L269.152,17.467L105.547,111.925L100.407,108.957L264.012,14.5Z" style="fill:rgb(95,95,95);stroke:black;stroke-width:1px;"/>
        <path d="M270.025,15.262L288.078,25.685L270.025,36.108L251.972,25.685L270.025,15.262Z" style="fill:rgb(255,157,60);stroke:black;stroke-width:1px;"/>
        <path d="M270.025,36.108L270.025,50.143L247.459,37.115L251.972,25.685L270.025,36.108Z" style="fill:rgb(242,105,0);stroke:black;stroke-width:1px;"/>
        <path d="M270.025,36.108L270.025,50.143L292.504,37.165L288.078,25.685L270.025,36.108Z" style="fill:rgb(176,85,0);stroke:black;stroke-width:1px;"/>
        <path d="M452.812,120.794L470.865,131.217L452.812,141.64L434.759,131.217L452.812,120.794Z" style="fill:rgb(250,250,250);stroke:black;stroke-width:1px;"/>
        <path d="M452.812,141.64L452.812,155.675L430.245,142.647L434.759,131.217L452.812,141.64Z" style="fill:rgb(221,221,221);stroke:black;stroke-width:1px;"/>
        <path d="M452.812,141.64L452.812,155.675L475.291,142.697L470.865,131.217L452.812,141.64Z" style="fill:rgb(193,193,193);stroke:black;stroke-width:1px;"/>
        <path d="M481.019,137.08L499.072,147.503L481.019,157.925L462.966,147.503L481.019,137.08Z" style="fill:rgb(250,250,250);stroke:black;stroke-width:1px;"/>
        <path d="M481.019,157.925L481.019,171.961L458.453,158.932L462.966,147.503L481.019,157.925Z" style="fill:rgb(221,221,221);stroke:black;stroke-width:1px;"/>
        <path d="M481.019,157.925L481.019,171.961L503.499,158.982L499.072,147.503L481.019,157.925Z" style="fill:rgb(193,193,193);stroke:black;stroke-width:1px;"/>
        <path d="M509.227,153.365L527.28,163.788L509.227,174.211L491.174,163.788L509.227,153.365Z" style="fill:rgb(250,250,250);stroke:black;stroke-width:1px;"/>
        <path d="M509.227,174.211L509.227,188.247L486.661,175.218L491.174,163.788L509.227,174.211Z" style="fill:rgb(221,221,221);stroke:black;stroke-width:1px;"/>
        <path d="M509.227,174.211L509.227,188.247L531.707,175.268L527.28,163.788L509.227,174.211Z" style="fill:rgb(193,193,193);stroke:black;stroke-width:1px;"/>
        <path d="M537.179,169.503L555.232,179.926L537.179,190.349L519.126,179.926L537.179,169.503Z" style="fill:rgb(250,250,250);stroke:black;stroke-width:1px;"/>
        <path d="M537.179,190.349L537.179,204.385L514.612,191.356L519.126,179.926L537.179,190.349Z" style="fill:rgb(221,221,221);stroke:black;stroke-width:1px;"/>
        <path d="M537.179,190.349L537.179,204.385L559.658,191.406L555.232,179.926L537.179,190.349Z" style="fill:rgb(193,193,193);stroke:black;stroke-width:1px;"/>
        <path d="M326.441,47.833L344.494,58.256L326.441,68.679L308.388,58.256L326.441,47.833Z" style="fill:rgb(250,250,250);stroke:black;stroke-width:1px;"/>
        <path d="M326.441,68.679L326.441,82.715L303.874,69.686L308.388,58.256L326.441,68.679Z" style="fill:rgb(221,221,221);stroke:black;stroke-width:1px;"/>
        <path d="M326.441,68.679L326.441,82.715L348.92,69.736L344.494,58.256L326.441,68.679Z" style="fill:rgb(193,193,193);stroke:black;stroke-width:1px;"/>
        <path d="M354.648,64.119L372.701,74.542L354.648,84.965L336.595,74.542L354.648,64.119Z" style="fill:rgb(250,250,250);stroke:black;stroke-width:1px;"/>
        <path d="M354.648,84.965L354.648,99.001L332.082,85.972L336.595,74.542L354.648,84.965Z" style="fill:rgb(221,221,221);stroke:black;stroke-width:1px;"/>
        <path d="M354.648,84.965L354.648,99.001L377.128,86.022L372.701,74.542L354.648,84.965Z" style="fill:rgb(193,193,193);stroke:black;stroke-width:1px;"/>
        <path d="M382.856,80.405L400.909,90.828L382.856,101.251L364.803,90.828L382.856,80.405Z" style="fill:rgb(250,250,250);stroke:black;stroke-width:1px;"/>
        <path d="M382.856,101.251L382.856,115.286L360.29,102.258L364.803,90.828L382.856,101.251Z" style="fill:rgb(221,221,221);stroke:black;stroke-width:1px;"/>
        <path d="M382.856,101.251L382.856,115.286L405.336,102.308L400.909,90.828L382.856,101.251Z" style="fill:rgb(193,193,193);stroke:black;stroke-width:1px;"/>
        <path d="M410.808,96.543L428.861,106.966L410.808,117.389L392.755,106.966L410.808,96.543Z" style="fill:rgb(250,250,250);stroke:black;stroke-width:1px;"/>
        <path d="M410.808,117.389L410.808,131.424L388.241,118.396L392.755,106.966L410.808,117.389Z" style="fill:rgb(221,221,221);stroke:black;stroke-width:1px;"/>
        <path d="M410.808,117.389L410.808,131.424L433.287,118.446L428.861,106.966L410.808,117.389Z" style="fill:rgb(193,193,193);stroke:black;stroke-width:1px;"/>
        <path d="M580.567,194.554L598.62,204.976L580.567,215.399L562.514,204.976L580.567,194.554Z" style="fill:rgb(250,250,250);stroke:black;stroke-width:1px;"/>
        <path d="M580.567,215.399L580.567,229.435L558.001,216.406L562.514,204.976L580.567,215.399Z" style="fill:rgb(221,221,221);stroke:black;stroke-width:1px;"/>
        <path d="M580.567,215.399L580.567,229.435L603.047,216.456L598.62,204.976L580.567,215.399Z" style="fill:rgb(193,193,193);stroke:black;stroke-width:1px;"/>
        <path d="M608.775,210.839L626.828,221.262L608.775,231.685L590.722,221.262L608.775,210.839Z" style="fill:rgb(250,250,250);stroke:black;stroke-width:1px;"/>
        <path d="M608.775,231.685L608.775,245.721L586.209,232.692L590.722,221.262L608.775,231.685Z" style="fill:rgb(221,221,221);stroke:black;stroke-width:1px;"/>
        <path d="M608.775,231.685L608.775,245.721L631.254,232.742L626.828,221.262L608.775,231.685Z" style="fill:rgb(193,193,193);stroke:black;stroke-width:1px;"/>
        <path d="M636.983,227.125L655.036,237.548L636.983,247.971L618.93,237.548L636.983,227.125Z" style="fill:rgb(250,250,250);stroke:black;stroke-width:1px;"/>
        <path d="M636.983,247.971L636.983,262.006L614.417,248.978L618.93,237.548L636.983,247.971Z" style="fill:rgb(221,221,221);stroke:black;stroke-width:1px;"/>
        <path d="M636.983,247.971L636.983,262.006L659.462,249.028L655.036,237.548L636.983,247.971Z" style="fill:rgb(193,193,193);stroke:black;stroke-width:1px;"/>
        <path d="M664.934,243.263L682.987,253.686L664.934,264.109L646.881,253.686L664.934,243.263Z" style="fill:rgb(250,250,250);stroke:black;stroke-width:1px;"/>
        <path d="M664.934,264.109L664.934,278.144L642.368,265.116L646.881,253.686L664.934,264.109Z" style="fill:rgb(221,221,221);stroke:black;stroke-width:1px;"/>
        <path d="M664.934,264.109L664.934,278.144L687.414,265.166L682.987,253.686L664.934,264.109Z" style="fill:rgb(193,193,193);stroke:black;stroke-width:1px;"/>
        <path d="M241.817,31.548L259.87,41.971L241.817,52.394L223.764,41.971L241.817,31.548Z" style="fill:rgb(188,188,188);stroke:black;stroke-width:1px;"/>
        <path d="M241.817,52.394L241.817,66.429L219.251,53.4L223.764,41.971L241.817,52.394Z" style="fill:rgb(143,143,143);stroke:black;stroke-width:1px;"/>
        <path d="M241.817,52.394L241.817,66.429L264.297,53.451L259.87,41.971L241.817,52.394Z" style="fill:rgb(76,76,76);stroke:black;stroke-width:1px;"/>
        <path d="M270.025,47.833L288.078,58.256L270.025,68.679L251.972,58.256L270.025,47.833Z" style="fill:rgb(250,250,250);stroke:black;stroke-width:1px;"/>
        <path d="M270.025,68.679L270.025,82.715L247.459,69.686L251.972,58.256L270.025,68.679Z" style="fill:rgb(221,221,221);stroke:black;stroke-width:1px;"/>
        <path d="M270.025,68.679L270.025,82.715L292.504,69.736L288.078,58.256L270.025,68.679Z" style="fill:rgb(193,193,193);stroke:black;stroke-width:1px;"/>
        <path d="M298.233,64.119L316.286,74.542L298.233,84.965L280.18,74.542L298.233,64.119Z" style="fill:rgb(250,250,250);stroke:black;stroke-width:1px;"/>
        <path d="M298.233,84.965L298.233,99.001L275.667,85.972L280.18,74.542L298.233,84.965Z" style="fill:rgb(221,221,221);stroke:black;stroke-width:1px;"/>
        <path d="M298.233,84.965L298.233,99.001L320.712,86.022L316.286,74.542L298.233,84.965Z" style="fill:rgb(193,193,193);stroke:black;stroke-width:1px;"/>
        <path d="M326.441,80.405L344.494,90.828L326.441,101.251L308.388,90.828L326.441,80.405Z" style="fill:rgb(250,250,250);stroke:black;stroke-width:1px;"/>
        <path d="M326.441,101.251L326.441,115.286L303.874,102.258L308.388,90.828L326.441,101.251Z" style="fill:rgb(221,221,221);stroke:black;stroke-width:1px;"/>
        <path d="M326.441,101.251L326.441,115.286L348.92,102.308L344.494,90.828L326.441,101.251Z" style="fill:rgb(193,193,193);stroke:black;stroke-width:1px;"/>
        <path d="M354.648,96.691L372.701,107.114L354.648,117.537L336.595,107.114L354.648,96.691Z" style="fill:rgb(250,250,250);stroke:black;stroke-width:1px;"/>
        <path d="M354.648,117.537L354.648,131.572L332.082,118.544L336.595,107.114L354.648,117.537Z" style="fill:rgb(221,221,221);stroke:black;stroke-width:1px;"/>
        <path d="M354.648,117.537L354.648,131.572L377.128,118.594L372.701,107.114L354.648,117.537Z" style="fill:rgb(193,193,193);stroke:black;stroke-width:1px;"/>
        <path d="M382.856,112.977L400.909,123.4L382.856,133.822L364.803,123.4L382.856,112.977Z" style="fill:rgb(250,250,250);stroke:black;stroke-width:1px;"/>
        <path d="M382.856,133.822L382.856,147.858L360.29,134.829L364.803,123.4L382.856,133.822Z" style="fill:rgb(221,221,221);stroke:black;stroke-width:1px;"/>
        <path d="M382.856,133.822L382.856,147.858L405.336,134.879L400.909,123.4L382.856,133.822Z" style="fill:rgb(193,193,193);stroke:black;stroke-width:1px;"/>
        <path d="M411.064,129.262L429.117,139.685L411.064,150.108L393.011,139.685L411.064,129.262Z" style="fill:rgb(250,250,250);stroke:black;stroke-width:1px;"/>
        <path d="M411.064,150.108L411.064,164.144L388.498,151.115L393.011,139.685L411.064,150.108Z" style="fill:rgb(221,221,221);stroke:black;stroke-width:1px;"/>
        <path d="M411.064,150.108L411.064,164.144L433.543,151.165L429.117,139.685L411.064,150.108Z" style="fill:rgb(193,193,193);stroke:black;stroke-width:1px;"/>
        <path d="M439.272,145.548L457.325,155.971L439.272,166.394L421.219,155.971L439.272,145.548Z" style="fill:rgb(250,250,250);stroke:black;stroke-width:1px;"/>
        <path d="M439.272,166.394L439.272,180.43L416.706,167.401L421.219,155.971L439.272,166.394Z" style="fill:rgb(221,221,221);stroke:black;stroke-width:1px;"/>
        <path d="M439.272,166.394L439.272,180.43L461.751,167.451L457.325,155.971L439.272,166.394Z" style="fill:rgb(193,193,193);stroke:black;stroke-width:1px;"/>
        <path d="M467.48,161.834L485.533,172.257L467.48,182.68L449.427,172.257L467.48,161.834Z" style="fill:rgb(250,250,250);stroke:black;stroke-width:1px;"/>
        <path d="M467.48,182.68L467.48,196.715L444.913,183.687L449.427,172.257L467.48,182.68Z" style="fill:rgb(221,221,221);stroke:black;stroke-width:1px;"/>
        <path d="M467.48,182.68L467.48,196.715L489.959,183.737L485.533,172.257L467.48,182.68Z" style="fill:rgb(193,193,193);stroke:black;stroke-width:1px;"/>
        <path d="M495.687,178.12L513.74,188.543L495.687,198.966L477.634,188.543L495.687,178.12Z" style="fill:rgb(250,250,250);stroke:black;stroke-width:1px;"/>
        <path d="M495.687,198.966L495.687,213.001L473.121,199.973L477.634,188.543L495.687,198.966Z" style="fill:rgb(221,221,221);stroke:black;stroke-width:1px;"/>
        <path d="M495.687,198.966L495.687,213.001L518.167,200.023L513.74,188.543L495.687,198.966Z" style="fill:rgb(193,193,193);stroke:black;stroke-width:1px;"/>
        <path d="M523.895,194.406L541.948,204.828L523.895,215.251L505.842,204.828L523.895,194.406Z" style="fill:rgb(250,250,250);stroke:black;stroke-width:1px;"/>
        <path d="M523.895,215.251L523.895,229.287L501.329,216.258L505.842,204.828L523.895,215.251Z" style="fill:rgb(221,221,221);stroke:black;stroke-width:1px;"/>
        <path d="M523.895,215.251L523.895,229.287L546.375,216.308L541.948,204.828L523.895,215.251Z" style="fill:rgb(193,193,193);stroke:black;stroke-width:1px;"/>
        <path d="M552.103,210.691L570.156,221.114L552.103,231.537L534.05,221.114L552.103,210.691Z" style="fill:rgb(250,250,250);stroke:black;stroke-width:1px;"/>
        <path d="M552.103,231.537L552.103,245.573L529.537,232.544L534.05,221.114L552.103,231.537Z" style="fill:rgb(221,221,221);stroke:black;stroke-width:1px;"/>
        <path d="M552.103,231.537L552.103,245.573L574.583,232.594L570.156,221.114L552.103,231.537Z" style="fill:rgb(193,193,193);stroke:black;stroke-width:1px;"/>
        <path d="M580.311,226.977L598.364,237.4L580.311,247.823L562.258,237.4L580.311,226.977Z" style="fill:rgb(250,250,250);stroke:black;stroke-width:1px;"/>
        <path d="M580.311,247.823L580.311,261.858L557.745,248.83L562.258,237.4L580.311,247.823Z" style="fill:rgb(221,221,221);stroke:black;stroke-width:1px;"/>
        <path d="M580.311,247.823L580.311,261.858L602.79,248.88L598.364,237.4L580.311,247.823Z" style="fill:rgb(193,193,193);stroke:black;stroke-width:1px;"/>
        <path d="M636.727,280.395L636.727,294.43L659.206,281.452L654.78,269.972L636.727,280.395Z" style="fill:rgb(76,76,76);stroke:black;stroke-width:1px;"/>
        <path d="M608.519,243.263L654.78,269.972L636.727,280.395L590.466,253.686L608.519,243.263Z" style="fill:rgb(188,188,188);stroke:black;stroke-width:1px;"/>
        <path d="M636.727,280.395L636.727,294.43L585.952,265.116L590.466,253.686L636.727,280.395Z" style="fill:rgb(143,143,143);stroke:black;stroke-width:1px;"/>
        <path d="M213.696,47.884L243.817,65.274L225.764,75.697L195.643,58.306L213.696,47.884Z" style="fill:rgb(188,188,188);stroke:black;stroke-width:1px;"/>
        <path d="M225.764,75.697L225.764,89.733L191.13,69.736L195.643,58.306L225.764,75.697Z" style="fill:rgb(143,143,143);stroke:black;stroke-width:1px;"/>
        <path d="M225.764,75.697L225.764,89.733L248.244,76.754L243.817,65.274L225.764,75.697Z" style="fill:rgb(76,76,76);stroke:black;stroke-width:1px;"/>
        <path d="M255.973,72.292L274.026,82.715L255.973,93.138L237.92,82.715L255.973,72.292Z" style="fill:rgb(250,250,250);stroke:black;stroke-width:1px;"/>
        <path d="M255.973,93.138L255.973,107.173L233.406,94.145L237.92,82.715L255.973,93.138Z" style="fill:rgb(221,221,221);stroke:black;stroke-width:1px;"/>
        <path d="M255.973,93.138L255.973,107.173L278.452,94.195L274.026,82.715L255.973,93.138Z" style="fill:rgb(193,193,193);stroke:black;stroke-width:1px;"/>
        <path d="M284.18,88.578L302.233,99.001L284.18,109.424L266.127,99.001L284.18,88.578Z" style="fill:rgb(250,250,250);stroke:black;stroke-width:1px;"/>
        <path d="M284.18,109.424L284.18,123.459L261.614,110.43L266.127,99.001L284.18,109.424Z" style="fill:rgb(221,221,221);stroke:black;stroke-width:1px;"/>
        <path d="M284.18,109.424L284.18,123.459L306.66,110.481L302.233,99.001L284.18,109.424Z" style="fill:rgb(193,193,193);stroke:black;stroke-width:1px;"/>
        <path d="M312.388,104.863L330.441,115.286L312.388,125.709L294.335,115.286L312.388,104.863Z" style="fill:rgb(250,250,250);stroke:black;stroke-width:1px;"/>
        <path d="M312.388,125.709L312.388,139.745L289.822,126.716L294.335,115.286L312.388,125.709Z" style="fill:rgb(221,221,221);stroke:black;stroke-width:1px;"/>
        <path d="M312.388,125.709L312.388,139.745L334.868,126.766L330.441,115.286L312.388,125.709Z" style="fill:rgb(193,193,193);stroke:black;stroke-width:1px;"/>
        <path d="M340.596,121.149L358.649,131.572L340.596,141.995L322.543,131.572L340.596,121.149Z" style="fill:rgb(250,250,250);stroke:black;stroke-width:1px;"/>
        <path d="M340.596,141.995L340.596,156.031L318.03,143.002L322.543,131.572L340.596,141.995Z" style="fill:rgb(221,221,221);stroke:black;stroke-width:1px;"/>
        <path d="M340.596,141.995L340.596,156.031L363.075,143.052L358.649,131.572L340.596,141.995Z" style="fill:rgb(193,193,193);stroke:black;stroke-width:1px;"/>
        <path d="M368.804,137.435L386.857,147.858L368.804,158.281L350.751,147.858L368.804,137.435Z" style="fill:rgb(250,250,250);stroke:black;stroke-width:1px;"/>
        <path d="M368.804,158.281L368.804,172.316L346.238,159.288L350.751,147.858L368.804,158.281Z" style="fill:rgb(221,221,221);stroke:black;stroke-width:1px;"/>
        <path d="M368.804,158.281L368.804,172.316L391.283,159.338L386.857,147.858L368.804,158.281Z" style="fill:rgb(193,193,193);stroke:black;stroke-width:1px;"/>
        <path d="M397.012,153.721L415.065,164.144L397.012,174.567L378.959,164.144L397.012,153.721Z" style="fill:rgb(250,250,250);stroke:black;stroke-width:1px;"/>
        <path d="M397.012,174.567L397.012,188.602L374.445,175.574L378.959,164.144L397.012,174.567Z" style="fill:rgb(221,221,221);stroke:black;stroke-width:1px;"/>
        <path d="M397.012,174.567L397.012,188.602L419.491,175.624L415.065,164.144L397.012,174.567Z" style="fill:rgb(193,193,193);stroke:black;stroke-width:1px;"/>
        <path d="M425.219,170.007L443.272,180.43L425.219,190.852L407.166,180.43L425.219,170.007Z" style="fill:rgb(250,250,250);stroke:black;stroke-width:1px;"/>
        <path d="M425.219,190.852L425.219,204.888L402.653,191.859L407.166,180.43L425.219,190.852Z" style="fill:rgb(221,221,221);stroke:black;stroke-width:1px;"/>
        <path d="M425.219,190.852L425.219,204.888L447.699,191.909L443.272,180.43L425.219,190.852Z" style="fill:rgb(193,193,193);stroke:black;stroke-width:1px;"/>
        <path d="M453.427,186.292L471.48,196.715L453.427,207.138L435.374,196.715L453.427,186.292Z" style="fill:rgb(250,250,250);stroke:black;stroke-width:1px;"/>
        <path d="M453.427,207.138L453.427,221.174L430.861,208.145L435.374,196.715L453.427,207.138Z" style="fill:rgb(221,221,221);stroke:black;stroke-width:1px;"/>
        <path d="M453.427,207.138L453.427,221.174L475.907,208.195L471.48,196.715L453.427,207.138Z" style="fill:rgb(193,193,193);stroke:black;stroke-width:1px;"/>
        <path d="M481.635,202.578L499.688,213.001L481.635,223.424L463.582,213.001L481.635,202.578Z" style="fill:rgb(250,250,250);stroke:black;stroke-width:1px;"/>
        <path d="M481.635,223.424L481.635,237.46L459.069,224.431L463.582,213.001L481.635,223.424Z" style="fill:rgb(221,221,221);stroke:black;stroke-width:1px;"/>
        <path d="M481.635,223.424L481.635,237.46L504.115,224.481L499.688,213.001L481.635,223.424Z" style="fill:rgb(193,193,193);stroke:black;stroke-width:1px;"/>
        <path d="M509.843,218.864L527.896,229.287L509.843,239.71L491.79,229.287L509.843,218.864Z" style="fill:rgb(250,250,250);stroke:black;stroke-width:1px;"/>
        <path d="M509.843,239.71L509.843,253.745L487.277,240.717L491.79,229.287L509.843,239.71Z" style="fill:rgb(221,221,221);stroke:black;stroke-width:1px;"/>
        <path d="M509.843,239.71L509.843,253.745L532.322,240.767L527.896,229.287L509.843,239.71Z" style="fill:rgb(193,193,193);stroke:black;stroke-width:1px;"/>
        <path d="M538.051,235.15L556.104,245.573L538.051,255.996L519.998,245.573L538.051,235.15Z" style="fill:rgb(250,250,250);stroke:black;stroke-width:1px;"/>
        <path d="M538.051,255.996L538.051,270.031L515.484,257.003L519.998,245.573L538.051,255.996Z" style="fill:rgb(221,221,221);stroke:black;stroke-width:1px;"/>
        <path d="M538.051,255.996L538.051,270.031L560.53,257.053L556.104,245.573L538.051,255.996Z" style="fill:rgb(193,193,193);stroke:black;stroke-width:1px;"/>
        <path d="M566.259,251.436L584.312,261.858L566.259,272.281L548.206,261.858L566.259,251.436Z" style="fill:rgb(250,250,250);stroke:black;stroke-width:1px;"/>
        <path d="M566.259,272.281L566.259,286.317L543.692,273.288L548.206,261.858L566.259,272.281Z" style="fill:rgb(221,221,221);stroke:black;stroke-width:1px;"/>
        <path d="M566.259,272.281L566.259,286.317L588.738,273.338L584.312,261.858L566.259,272.281Z" style="fill:rgb(193,193,193);stroke:black;stroke-width:1px;"/>
        <path d="M596.45,268.867L626.572,286.257L608.519,296.68L578.397,279.29L596.45,268.867Z" style="fill:rgb(188,188,188);stroke:black;stroke-width:1px;"/>
        <path d="M608.519,296.68L608.519,310.716L573.884,290.72L578.397,279.29L608.519,296.68Z" style="fill:rgb(143,143,143);stroke:black;stroke-width:1px;"/>
        <path d="M608.519,296.68L608.519,310.716L630.998,297.737L626.572,286.257L608.519,296.68Z" style="fill:rgb(76,76,76);stroke:black;stroke-width:1px;"/>
        <path d="M213.609,101.251L213.609,115.286L236.089,102.308L231.662,90.828L213.609,101.251Z" style="fill:rgb(76,76,76);stroke:black;stroke-width:1px;"/>
        <path d="M185.402,64.119L231.662,90.828L213.609,101.251L167.349,74.542L185.402,64.119Z" style="fill:rgb(188,188,188);stroke:black;stroke-width:1px;"/>
        <path d="M213.609,101.251L213.609,115.286L162.835,85.972L167.349,74.542L213.609,101.251Z" style="fill:rgb(143,143,143);stroke:black;stroke-width:1px;"/>
        <path d="M241.817,96.691L259.87,107.114L241.817,117.537L223.764,107.114L241.817,96.691Z" style="fill:rgb(250,250,250);stroke:black;stroke-width:1px;"/>
        <path d="M241.817,117.537L241.817,131.572L219.251,118.544L223.764,107.114L241.817,117.537Z" style="fill:rgb(221,221,221);stroke:black;stroke-width:1px;"/>
        <path d="M241.817,117.537L241.817,131.572L264.297,118.594L259.87,107.114L241.817,117.537Z" style="fill:rgb(193,193,193);stroke:black;stroke-width:1px;"/>
        <path d="M270.025,112.977L288.078,123.4L270.025,133.822L251.972,123.4L270.025,112.977Z" style="fill:rgb(250,250,250);stroke:black;stroke-width:1px;"/>
        <path d="M270.025,133.822L270.025,147.858L247.459,134.829L251.972,123.4L270.025,133.822Z" style="fill:rgb(221,221,221);stroke:black;stroke-width:1px;"/>
        <path d="M270.025,133.822L270.025,147.858L292.504,134.879L288.078,123.4L270.025,133.822Z" style="fill:rgb(193,193,193);stroke:black;stroke-width:1px;"/>
        <path d="M298.233,129.262L316.286,139.685L298.233,150.108L280.18,139.685L298.233,129.262Z" style="fill:rgb(250,250,250);stroke:black;stroke-width:1px;"/>
        <path d="M298.233,150.108L298.233,164.144L275.667,151.115L280.18,139.685L298.233,150.108Z" style="fill:rgb(221,221,221);stroke:black;stroke-width:1px;"/>
        <path d="M298.233,150.108L298.233,164.144L320.712,151.165L316.286,139.685L298.233,150.108Z" style="fill:rgb(193,193,193);stroke:black;stroke-width:1px;"/>
        <path d="M326.441,145.548L344.494,155.971L326.441,166.394L308.388,155.971L326.441,145.548Z" style="fill:rgb(250,250,250);stroke:black;stroke-width:1px;"/>
        <path d="M326.441,166.394L326.441,180.43L303.874,167.401L308.388,155.971L326.441,166.394Z" style="fill:rgb(221,221,221);stroke:black;stroke-width:1px;"/>
        <path d="M326.441,166.394L326.441,180.43L348.92,167.451L344.494,155.971L326.441,166.394Z" style="fill:rgb(193,193,193);stroke:black;stroke-width:1px;"/>
        <path d="M354.648,161.834L372.701,172.257L354.648,182.68L336.595,172.257L354.648,161.834Z" style="fill:rgb(250,250,250);stroke:black;stroke-width:1px;"/>
        <path d="M354.648,182.68L354.648,196.715L332.082,183.687L336.595,172.257L354.648,182.68Z" style="fill:rgb(221,221,221);stroke:black;stroke-width:1px;"/>
        <path d="M354.648,182.68L354.648,196.715L377.128,183.737L372.701,172.257L354.648,182.68Z" style="fill:rgb(193,193,193);stroke:black;stroke-width:1px;"/>
        <path d="M382.856,178.12L400.909,188.543L382.856,198.966L364.803,188.543L382.856,178.12Z" style="fill:rgb(250,250,250);stroke:black;stroke-width:1px;"/>
        <path d="M382.856,198.966L382.856,213.001L360.29,199.973L364.803,188.543L382.856,198.966Z" style="fill:rgb(221,221,221);stroke:black;stroke-width:1px;"/>
        <path d="M382.856,198.966L382.856,213.001L405.336,200.023L400.909,188.543L382.856,198.966Z" style="fill:rgb(193,193,193);stroke:black;stroke-width:1px;"/>
        <path d="M411.064,194.406L429.117,204.828L411.064,215.251L393.011,204.828L411.064,194.406Z" style="fill:rgb(250,250,250);stroke:black;stroke-width:1px;"/>
        <path d="M411.064,215.251L411.064,229.287L388.498,216.258L393.011,204.828L411.064,215.251Z" style="fill:rgb(221,221,221);stroke:black;stroke-width:1px;"/>
        <path d="M411.064,215.251L411.064,229.287L433.543,216.308L429.117,204.828L411.064,215.251Z" style="fill:rgb(193,193,193);stroke:black;stroke-width:1px;"/>
        <path d="M439.272,210.691L457.325,221.114L439.272,231.537L421.219,221.114L439.272,210.691Z" style="fill:rgb(250,250,250);stroke:black;stroke-width:1px;"/>
        <path d="M439.272,231.537L439.272,245.573L416.706,232.544L421.219,221.114L439.272,231.537Z" style="fill:rgb(221,221,221);stroke:black;stroke-width:1px;"/>
        <path d="M439.272,231.537L439.272,245.573L461.751,232.594L457.325,221.114L439.272,231.537Z" style="fill:rgb(193,193,193);stroke:black;stroke-width:1px;"/>
        <path d="M467.48,226.977L485.533,237.4L467.48,247.823L449.427,237.4L467.48,226.977Z" style="fill:rgb(250,250,250);stroke:black;stroke-width:1px;"/>
        <path d="M467.48,247.823L467.48,261.858L444.913,248.83L449.427,237.4L467.48,247.823Z" style="fill:rgb(221,221,221);stroke:black;stroke-width:1px;"/>
        <path d="M467.48,247.823L467.48,261.858L489.959,248.88L485.533,237.4L467.48,247.823Z" style="fill:rgb(193,193,193);stroke:black;stroke-width:1px;"/>
        <path d="M495.687,243.263L513.74,253.686L495.687,264.109L477.634,253.686L495.687,243.263Z" style="fill:rgb(250,250,250);stroke:black;stroke-width:1px;"/>
        <path d="M495.687,264.109L495.687,278.144L473.121,265.116L477.634,253.686L495.687,264.109Z" style="fill:rgb(221,221,221);stroke:black;stroke-width:1px;"/>
        <path d="M495.687,264.109L495.687,278.144L518.167,265.166L513.74,253.686L495.687,264.109Z" style="fill:rgb(193,193,193);stroke:black;stroke-width:1px;"/>
        <path d="M523.895,259.549L541.948,269.972L523.895,280.395L505.842,269.972L523.895,259.549Z" style="fill:rgb(250,250,250);stroke:black;stroke-width:1px;"/>
        <path d="M523.895,280.395L523.895,294.43L501.329,281.401L505.842,269.972L523.895,280.395Z" style="fill:rgb(221,221,221);stroke:black;stroke-width:1px;"/>
        <path d="M523.895,280.395L523.895,294.43L546.375,281.452L541.948,269.972L523.895,280.395Z" style="fill:rgb(193,193,193);stroke:black;stroke-width:1px;"/>
        <path d="M580.311,312.966L580.311,327.002L602.79,314.023L598.364,302.543L580.311,312.966Z" style="fill:rgb(76,76,76);stroke:black;stroke-width:1px;"/>
        <path d="M552.103,275.835L598.364,302.543L580.311,312.966L534.05,286.257L552.103,275.835Z" style="fill:rgb(188,188,188);stroke:black;stroke-width:1px;"/>
        <path d="M580.311,312.966L580.311,327.002L529.537,297.687L534.05,286.257L580.311,312.966Z" style="fill:rgb(143,143,143);stroke:black;stroke-width:1px;"/>
        <path d="M200.384,126.187L200.384,140.223L222.864,127.244L218.437,115.764L200.384,126.187Z" style="fill:rgb(76,76,76);stroke:black;stroke-width:1px;"/>
        <path d="M158.352,81.074L218.437,115.764L200.384,126.187L140.299,91.497L158.352,81.074Z" style="fill:rgb(188,188,188);stroke:black;stroke-width:1px;"/>
        <path d="M200.384,126.187L200.384,140.223L134.627,102.258L140.299,91.497L200.384,126.187Z" style="fill:rgb(143,143,143);stroke:black;stroke-width:1px;"/>
        <path d="M228.902,121.806L246.955,132.229L228.902,142.652L210.849,132.229L228.902,121.806Z" style="fill:rgb(250,250,250);stroke:black;stroke-width:1px;"/>
        <path d="M228.902,142.652L228.902,156.687L206.336,143.659L210.849,132.229L228.902,142.652Z" style="fill:rgb(221,221,221);stroke:black;stroke-width:1px;"/>
        <path d="M228.902,142.652L228.902,156.687L251.382,143.709L246.955,132.229L228.902,142.652Z" style="fill:rgb(193,193,193);stroke:black;stroke-width:1px;"/>
        <path d="M257.11,138.092L275.163,148.515L257.11,158.938L239.057,148.515L257.11,138.092Z" style="fill:rgb(250,250,250);stroke:black;stroke-width:1px;"/>
        <path d="M257.11,158.938L257.11,172.973L234.544,159.945L239.057,148.515L257.11,158.938Z" style="fill:rgb(221,221,221);stroke:black;stroke-width:1px;"/>
        <path d="M257.11,158.938L257.11,172.973L279.59,159.995L275.163,148.515L257.11,158.938Z" style="fill:rgb(193,193,193);stroke:black;stroke-width:1px;"/>
        <path d="M285.318,154.378L303.371,164.801L285.318,175.223L267.265,164.801L285.318,154.378Z" style="fill:rgb(250,250,250);stroke:black;stroke-width:1px;"/>
        <path d="M285.318,175.223L285.318,189.259L262.752,176.23L267.265,164.801L285.318,175.223Z" style="fill:rgb(221,221,221);stroke:black;stroke-width:1px;"/>
        <path d="M285.318,175.223L285.318,189.259L307.797,176.28L303.371,164.801L285.318,175.223Z" style="fill:rgb(193,193,193);stroke:black;stroke-width:1px;"/>
        <path d="M313.526,170.663L331.579,181.086L313.526,191.509L295.473,181.086L313.526,170.663Z" style="fill:rgb(250,250,250);stroke:black;stroke-width:1px;"/>
        <path d="M313.526,191.509L313.526,205.545L290.96,192.516L295.473,181.086L313.526,191.509Z" style="fill:rgb(221,221,221);stroke:black;stroke-width:1px;"/>
        <path d="M313.526,191.509L313.526,205.545L336.005,192.566L331.579,181.086L313.526,191.509Z" style="fill:rgb(193,193,193);stroke:black;stroke-width:1px;"/>
        <path d="M341.734,186.949L359.787,197.372L341.734,207.795L323.681,197.372L341.734,186.949Z" style="fill:rgb(250,250,250);stroke:black;stroke-width:1px;"/>
        <path d="M341.734,207.795L341.734,221.831L319.167,208.802L323.681,197.372L341.734,207.795Z" style="fill:rgb(221,221,221);stroke:black;stroke-width:1px;"/>
        <path d="M341.734,207.795L341.734,221.831L364.213,208.852L359.787,197.372L341.734,207.795Z" style="fill:rgb(193,193,193);stroke:black;stroke-width:1px;"/>
        <path d="M369.941,203.235L387.994,213.658L369.941,224.081L351.888,213.658L369.941,203.235Z" style="fill:rgb(250,250,250);stroke:black;stroke-width:1px;"/>
        <path d="M369.941,224.081L369.941,238.116L347.375,225.088L351.888,213.658L369.941,224.081Z" style="fill:rgb(249,249,249);stroke:black;stroke-width:1px;"/>
        <path d="M369.941,224.081L369.941,238.116L392.421,225.138L387.994,213.658L369.941,224.081Z" style="fill:rgb(193,193,193);stroke:black;stroke-width:1px;"/>
        <path d="M398.149,219.521L416.202,229.944L398.149,240.367L380.096,229.944L398.149,219.521Z" style="fill:rgb(250,250,250);stroke:black;stroke-width:1px;"/>
        <path d="M398.149,240.367L398.149,254.402L375.583,241.374L380.096,229.944L398.149,240.367Z" style="fill:rgb(221,221,221);stroke:black;stroke-width:1px;"/>
        <path d="M398.149,240.367L398.149,254.402L420.629,241.424L416.202,229.944L398.149,240.367Z" style="fill:rgb(193,193,193);stroke:black;stroke-width:1px;"/>
        <path d="M426.357,235.807L444.41,246.229L426.357,256.652L408.304,246.229L426.357,235.807Z" style="fill:rgb(250,250,250);stroke:black;stroke-width:1px;"/>
        <path d="M426.357,256.652L426.357,270.688L403.791,257.659L408.304,246.229L426.357,256.652Z" style="fill:rgb(221,221,221);stroke:black;stroke-width:1px;"/>
        <path d="M426.357,256.652L426.357,270.688L448.836,257.709L444.41,246.229L426.357,256.652Z" style="fill:rgb(193,193,193);stroke:black;stroke-width:1px;"/>
        <path d="M454.565,252.092L472.618,262.515L454.565,272.938L436.512,262.515L454.565,252.092Z" style="fill:rgb(250,250,250);stroke:black;stroke-width:1px;"/>
        <path d="M454.565,272.938L454.565,286.974L431.999,273.945L436.512,262.515L454.565,272.938Z" style="fill:rgb(221,221,221);stroke:black;stroke-width:1px;"/>
        <path d="M454.565,272.938L454.565,286.974L477.044,273.995L472.618,262.515L454.565,272.938Z" style="fill:rgb(193,193,193);stroke:black;stroke-width:1px;"/>
        <path d="M482.773,268.378L500.826,278.801L482.773,289.224L464.72,278.801L482.773,268.378Z" style="fill:rgb(250,250,250);stroke:black;stroke-width:1px;"/>
        <path d="M482.773,289.224L482.773,303.259L460.206,290.231L464.72,278.801L482.773,289.224Z" style="fill:rgb(221,221,221);stroke:black;stroke-width:1px;"/>
        <path d="M482.773,289.224L482.773,303.259L505.252,290.281L500.826,278.801L482.773,289.224Z" style="fill:rgb(193,193,193);stroke:black;stroke-width:1px;"/>
        <path d="M551.775,329.063L551.775,343.098L574.255,330.12L569.828,318.64L551.775,329.063Z" style="fill:rgb(76,76,76);stroke:black;stroke-width:1px;"/>
        <path d="M511.697,285.078L569.828,318.64L551.775,329.063L493.644,295.501L511.697,285.078Z" style="fill:rgb(188,188,188);stroke:black;stroke-width:1px;"/>
        <path d="M551.775,329.063L551.775,343.098L487.973,306.262L493.644,295.501L551.775,329.063Z" style="fill:rgb(143,143,143);stroke:black;stroke-width:1px;"/>
        <path d="M129.086,96.749L152.781,110.429L134.728,120.852L111.033,107.172L129.086,96.749Z" style="fill:rgb(188,188,188);stroke:black;stroke-width:1px;"/>
        <path d="M134.728,120.852L134.728,134.887L106.52,118.601L111.033,107.172L134.728,120.852Z" style="fill:rgb(143,143,143);stroke:black;stroke-width:1px;"/>
        <path d="M134.728,120.852L134.728,134.887L157.207,121.909L152.781,110.429L134.728,120.852Z" style="fill:rgb(76,76,76);stroke:black;stroke-width:1px;"/>
        <path d="M162.936,116.292L186.63,129.972L168.577,140.395L144.883,126.715L162.936,116.292Z" style="fill:rgb(188,188,188);stroke:black;stroke-width:1px;"/>
        <path d="M168.577,140.395L168.577,154.43L140.369,138.144L144.883,126.715L168.577,140.395Z" style="fill:rgb(143,143,143);stroke:black;stroke-width:1px;"/>
        <path d="M168.577,140.395L168.577,154.43L191.057,141.452L186.63,129.972L168.577,140.395Z" style="fill:rgb(76,76,76);stroke:black;stroke-width:1px;"/>
        <path d="M196.785,135.835L220.479,149.515L202.426,159.938L178.732,146.258L196.785,135.835Z" style="fill:rgb(188,188,188);stroke:black;stroke-width:1px;"/>
        <path d="M202.426,159.938L202.426,173.973L174.219,157.687L178.732,146.258L202.426,159.938Z" style="fill:rgb(143,143,143);stroke:black;stroke-width:1px;"/>
        <path d="M202.426,159.938L202.426,173.973L224.906,160.995L220.479,149.515L202.426,159.938Z" style="fill:rgb(76,76,76);stroke:black;stroke-width:1px;"/>
        <path d="M388.498,267.366L388.498,281.401L410.977,268.423L406.551,256.943L388.498,267.366Z" style="fill:rgb(193,193,193);stroke:black;stroke-width:1px;"/>
        <path d="M230.634,155.378L406.551,256.943L388.498,267.366L212.581,165.8L230.634,155.378Z" style="fill:rgb(250,250,250);stroke:black;stroke-width:1px;"/>
        <path d="M388.498,267.366L388.498,281.401L208.068,177.23L212.744,165.895L388.498,267.366Z" style="fill:rgb(221,221,221);stroke:black;stroke-width:1px;"/>
        <path d="M416.681,262.791L440.375,276.471L422.322,286.894L398.628,273.214L416.681,262.791Z" style="fill:rgb(188,188,188);stroke:black;stroke-width:1px;"/>
        <path d="M422.322,286.894L422.322,300.93L394.114,284.644L398.628,273.214L422.322,286.894Z" style="fill:rgb(143,143,143);stroke:black;stroke-width:1px;"/>
        <path d="M422.322,286.894L422.322,300.93L444.802,287.951L440.375,276.471L422.322,286.894Z" style="fill:rgb(76,76,76);stroke:black;stroke-width:1px;"/>
        <path d="M450.53,282.334L474.224,296.014L456.171,306.437L432.477,292.757L450.53,282.334Z" style="fill:rgb(188,188,188);stroke:black;stroke-width:1px;"/>
        <path d="M456.171,306.437L456.171,320.473L427.964,304.187L432.477,292.757L456.171,306.437Z" style="fill:rgb(143,143,143);stroke:black;stroke-width:1px;"/>
        <path d="M456.171,306.437L456.171,320.473L478.651,307.494L474.224,296.014L456.171,306.437Z" style="fill:rgb(76,76,76);stroke:black;stroke-width:1px;"/>
        <path d="M484.379,301.877L508.074,315.557L490.021,325.98L466.326,312.3L484.379,301.877Z" style="fill:rgb(188,188,188);stroke:black;stroke-width:1px;"/>
        <path d="M490.021,325.98L490.021,340.016L461.813,323.73L466.326,312.3L490.021,325.98Z" style="fill:rgb(143,143,143);stroke:black;stroke-width:1px;"/>
        <path d="M490.021,325.98L490.021,340.016L512.5,327.037L508.074,315.557L490.021,325.98Z" style="fill:rgb(76,76,76);stroke:black;stroke-width:1px;"/>
        <path d="M517.926,321.245L541.62,334.926L523.567,345.348L499.873,331.668L517.926,321.245Z" style="fill:rgb(188,188,188);stroke:black;stroke-width:1px;"/>
        <path d="M523.567,345.348L523.567,359.384L495.36,343.098L499.873,331.668L523.567,345.348Z" style="fill:rgb(143,143,143);stroke:black;stroke-width:1px;"/>
        <path d="M523.567,345.348L523.567,359.384L546.047,346.405L541.62,334.926L523.567,345.348Z" style="fill:rgb(76,76,76);stroke:black;stroke-width:1px;"/>
        <path d="M100.753,108.758L529.512,356.302L523.87,359.559L95.111,112.015L100.753,108.758Z" style="fill:rgb(95,95,95);stroke:black;stroke-width:1px;"/>
        <path d="M523.87,359.559L523.87,385.616L95.111,138.072L95.111,112.015L523.87,359.559Z" style="fill:rgb(66,66,66);stroke:black;stroke-width:1px;"/>
        <path d="M698.759,258.587L698.759,284.644L523.87,385.616L523.87,359.559L698.759,258.587Z" style="fill:rgb(28,28,28);stroke:black;stroke-width:1px;"/>
        <path d="M687.328,258.901L692.468,261.869L529.209,356.127L524.069,353.159L687.328,258.901Z" style="fill:rgb(95,95,95);stroke:black;stroke-width:1px;"/>
    </g>
</svg>
