<?xml version="1.0" encoding="UTF-8" standalone="no"?>
<!DOCTYPE svg PUBLIC "-//W3C//DTD SVG 1.1//EN" "http://www.w3.org/Graphics/SVG/1.1/DTD/svg11.dtd">
<svg width="100%" height="100%" viewBox="0 0 794 397" version="1.1" xmlns="http://www.w3.org/2000/svg" xmlns:xlink="http://www.w3.org/1999/xlink" xml:space="preserve" xmlns:serif="http://www.serif.com/" style="fill-rule:evenodd;clip-rule:evenodd;stroke-linejoin:round;stroke-miterlimit:1;">
    <path d="M182.132,218.131C182.032,215.955 183.58,213.635 186.693,211.838L352.889,115.885C358.408,112.699 366.769,112.352 371.549,115.112L617.587,257.162C619.887,258.49 620.941,260.296 620.801,262.169L620.813,262.162L620.813,268.436L620.801,268.443C620.65,270.462 619.11,272.556 616.247,274.21L450.052,370.162C444.533,373.349 436.171,373.696 431.391,370.936L185.354,228.886C183.27,227.683 182.209,226.087 182.132,224.406L182.127,224.403L182.127,218.128L182.132,218.131Z" style="fill:rgb(254,228,179);stroke:black;stroke-width:1px;"/>
    <path d="M471.587,172.869C469.932,173.825 469.751,175.273 471.185,176.101L511.951,199.637C513.385,200.464 515.893,200.36 517.549,199.404L617.587,257.162C622.367,259.921 621.766,264.749 616.247,267.935L450.052,363.888C444.533,367.075 436.171,367.421 431.391,364.662L185.354,222.612C180.574,219.852 181.174,215.025 186.693,211.838L352.889,115.885C358.408,112.699 366.769,112.352 371.549,115.112L471.587,172.869Z" style="fill:rgb(255,250,240);stroke:black;stroke-width:1px;"/>
    <path d="M441.605,170.057L397.436,195.558C394.676,197.151 394.376,199.565 396.766,200.945L468.919,242.603C471.309,243.982 475.49,243.809 478.249,242.216L522.418,216.715C525.178,215.122 525.478,212.708 523.088,211.328L450.935,169.67C448.545,168.291 444.364,168.464 441.605,170.057Z" style="fill:rgb(255,241,216);stroke:black;stroke-width:1px;"/>
    <path d="M302.758,158.049L205.7,214.086C202.94,215.679 202.64,218.093 205.03,219.472L436.829,353.302C439.218,354.681 443.399,354.508 446.159,352.915L543.217,296.878C545.977,295.285 546.277,292.871 543.887,291.491L312.088,157.662C309.698,156.282 305.517,156.456 302.758,158.049Z" style="fill:rgb(255,250,240);stroke:black;stroke-width:1px;"/>
    <path d="M302.793,160.661L207.979,215.402C205.22,216.995 204.919,219.409 207.309,220.789L436.829,353.302C439.218,354.681 443.399,354.508 446.159,352.915L540.972,298.174C543.732,296.581 544.032,294.167 541.642,292.788L312.123,160.274C309.733,158.895 305.552,159.068 302.793,160.661Z" style="fill:rgb(255,250,240);stroke:black;stroke-width:1px;"/>
    <path d="M463.695,263.289L461.45,264.585C460.016,265.413 457.508,265.309 455.852,264.353L375.965,218.23C375.077,217.718 374.613,217.064 374.596,216.439L374.596,213.847C374.58,213.307 374.898,212.79 375.563,212.406L384.734,207.111C386.168,206.283 388.677,206.387 390.333,207.343L470.22,253.466C471.054,253.948 471.514,254.555 471.581,255.144L471.589,255.139L471.589,257.731L471.581,257.736C471.647,258.316 471.333,258.88 470.621,259.29L472.866,257.994C474.3,257.166 476.809,257.27 478.464,258.226L486.832,263.057C487.666,263.539 488.126,264.146 488.193,264.735L488.202,264.73L488.202,267.322L488.193,267.327C488.259,267.907 487.945,268.471 487.234,268.881L489.479,267.585C490.913,266.757 493.421,266.861 495.077,267.817L503.444,272.648C504.279,273.13 504.738,273.737 504.805,274.326L504.814,274.321L504.814,276.914L504.805,276.918C504.871,277.499 504.557,278.062 503.846,278.472L506.091,277.176C507.525,276.348 510.033,276.452 511.689,277.408L520.056,282.239C520.891,282.721 521.351,283.328 521.418,283.917L521.426,283.912L521.426,286.505L521.418,286.51C521.484,287.09 521.17,287.653 520.458,288.063L522.703,286.767C524.137,285.94 526.646,286.043 528.301,286.999L536.669,291.83C537.63,292.386 538.094,293.107 538.033,293.776L538.039,293.773L538.039,296.365L538.033,296.368C537.989,296.851 537.672,297.308 537.071,297.655L527.899,302.95C526.466,303.777 523.957,303.674 522.301,302.718L513.934,297.887C513.184,297.454 512.737,296.92 512.605,296.389L512.564,296.365L512.564,293.773L512.605,293.797C512.446,293.155 512.747,292.516 513.532,292.062L511.287,293.359C509.853,294.186 507.345,294.082 505.689,293.126L497.322,288.296C496.434,287.783 495.97,287.129 495.952,286.505L495.952,283.912C495.937,283.373 496.255,282.855 496.92,282.471L494.675,283.767C493.241,284.595 490.732,284.491 489.077,283.535L480.709,278.704C479.821,278.192 479.358,277.538 479.34,276.914L479.34,274.321C479.324,273.782 479.642,273.264 480.307,272.88L478.063,274.176C476.629,275.004 474.12,274.9 472.464,273.944L464.097,269.113C463.209,268.601 462.745,267.947 462.727,267.322L462.727,264.73C462.712,264.19 463.03,263.673 463.695,263.289ZM437.241,267.264L434.996,268.561C433.562,269.388 431.054,269.284 429.398,268.328L421.031,263.498C420.143,262.985 419.679,262.331 419.661,261.707L419.661,259.114C419.646,258.575 419.964,258.057 420.629,257.673L429.8,252.378C431.234,251.55 433.742,251.654 435.398,252.61L443.766,257.441C444.6,257.923 445.06,258.53 445.127,259.119L445.135,259.114L445.135,261.707L445.127,261.712C445.193,262.292 444.879,262.855 444.167,263.265L446.412,261.969C447.846,261.142 450.355,261.245 452.01,262.201L460.378,267.032C461.212,267.514 461.672,268.121 461.739,268.711L461.748,268.706L461.748,271.298L461.739,271.303C461.805,271.883 461.491,272.446 460.78,272.857L463.025,271.561C464.459,270.733 466.967,270.837 468.623,271.793L476.99,276.623C477.825,277.105 478.284,277.712 478.351,278.302L478.36,278.297L478.36,280.889L478.351,280.894C478.417,281.474 478.103,282.037 477.392,282.448L479.637,281.152C481.071,280.324 483.579,280.428 485.235,281.384L493.602,286.215C494.437,286.696 494.897,287.303 494.964,287.893L494.972,287.888L494.972,290.48L494.964,290.485C495.03,291.065 494.716,291.628 494.004,292.039L496.285,290.722C497.719,289.894 500.227,289.998 501.883,290.954L520.03,301.431C520.887,301.927 521.349,302.554 521.396,303.159L521.399,303.156L521.399,305.749L521.391,305.754C521.457,306.334 521.143,306.897 520.431,307.307L511.26,312.602C509.826,313.43 507.318,313.326 505.662,312.37L503.535,311.142C504.272,311.608 504.679,312.175 504.742,312.727L504.751,312.722L504.751,315.315L504.742,315.32C504.808,315.9 504.494,316.463 503.783,316.873L494.611,322.168C493.178,322.996 490.669,322.892 489.013,321.936L461.44,306.017C461.695,306.318 461.841,306.636 461.877,306.95L461.885,306.945L461.885,309.537L461.877,309.542C461.943,310.122 461.628,310.685 460.917,311.096L462.912,309.944C464.346,309.116 466.854,309.22 468.51,310.176L486.657,320.653C487.514,321.148 487.976,321.776 488.023,322.38L488.027,322.378L488.027,324.97L488.018,324.975C488.084,325.555 487.77,326.118 487.059,326.529L477.887,331.824C476.454,332.652 473.945,332.548 472.289,331.592L454.151,321.12C453.263,320.607 452.8,319.953 452.782,319.329L452.773,319.324L452.773,316.732L452.776,316.734C452.737,316.175 453.054,315.636 453.741,315.239L451.746,316.391C450.312,317.218 447.804,317.115 446.148,316.159L437.78,311.328C436.893,310.815 436.429,310.161 436.411,309.537L436.411,306.945C436.395,306.405 436.713,305.887 437.378,305.503L435.134,306.799C433.7,307.627 431.191,307.523 429.536,306.567L421.168,301.737C420.28,301.224 419.816,300.57 419.799,299.946L419.799,297.353C419.783,296.814 420.101,296.296 420.766,295.912L429.937,290.617C431.371,289.789 433.88,289.893 435.536,290.849L443.903,295.68C444.737,296.162 445.197,296.769 445.264,297.358L445.273,297.353L445.273,299.946L445.264,299.951C445.33,300.531 445.016,301.094 444.305,301.504L446.55,300.208C447.984,299.381 450.492,299.484 452.148,300.44L460.468,305.244C460.183,304.906 460.034,304.548 460.024,304.199L460.024,301.607C460.008,301.067 460.326,300.55 460.991,300.166L458.936,301.352C457.502,302.18 454.993,302.076 453.338,301.12L444.97,296.289C444.082,295.777 443.619,295.123 443.601,294.498L443.601,291.906C443.585,291.366 443.903,290.849 444.568,290.465L442.323,291.761C440.89,292.589 438.381,292.485 436.725,291.529L428.358,286.698C427.47,286.186 427.006,285.531 426.988,284.907L426.988,282.315C426.973,281.775 427.291,281.258 427.956,280.874L437.127,275.579C438.222,274.947 439.943,274.858 441.433,275.277L437.643,273.089C436.755,272.576 436.291,271.922 436.273,271.298L436.273,268.706C436.258,268.166 436.576,267.648 437.241,267.264ZM453.853,276.856L451.609,278.152C450.514,278.784 448.793,278.873 447.303,278.454L451.093,280.642C451.927,281.124 452.387,281.731 452.454,282.32L452.463,282.315L452.463,284.907L452.454,284.912C452.52,285.492 452.206,286.056 451.495,286.466L453.74,285.17C454.834,284.538 456.555,284.449 458.045,284.868L454.255,282.68C453.367,282.167 452.904,281.513 452.886,280.889L452.886,278.297C452.87,277.757 453.188,277.239 453.853,276.856ZM470.466,286.447L468.221,287.743C467.126,288.375 465.405,288.464 463.915,288.045L467.705,290.233C468.54,290.715 468.999,291.322 469.066,291.911L469.075,291.906L469.075,294.498L469.066,294.503C469.132,295.083 468.818,295.647 468.107,296.057L470.163,294.871C471.596,294.043 474.105,294.147 475.761,295.103L487.37,301.805C486.583,301.308 486.172,300.695 486.155,300.108L486.145,300.102L486.145,297.51L486.149,297.512C486.11,296.953 486.426,296.414 487.113,296.017L484.833,297.334C483.399,298.162 480.891,298.058 479.235,297.102L470.868,292.271C469.98,291.758 469.516,291.104 469.498,290.48L469.498,287.888C469.483,287.348 469.801,286.831 470.466,286.447ZM454.019,340.281C454.485,340.685 454.739,341.137 454.772,341.577L454.776,341.575L454.776,344.167L454.768,344.172C454.834,344.752 454.52,345.315 453.808,345.726L444.637,351.021C443.203,351.849 440.695,351.745 439.039,350.789L420.901,340.317C420.013,339.804 419.55,339.15 419.532,338.526L419.522,338.521L419.522,335.929L419.526,335.931C419.487,335.372 419.803,334.833 420.49,334.436L429.662,329.141C430.893,328.43 432.917,328.406 434.513,329.019L430.605,326.763C429.717,326.25 429.253,325.596 429.235,324.972L429.235,322.38C429.22,321.84 429.538,321.323 430.203,320.939L439.374,315.644C440.808,314.816 443.316,314.92 444.972,315.876L453.339,320.707C454.174,321.188 454.634,321.795 454.701,322.385L454.709,322.38L454.709,324.972L454.701,324.977C454.767,325.557 454.453,326.12 453.741,326.531L444.57,331.826C443.339,332.537 441.315,332.561 439.719,331.947L446.649,335.949C446.161,335.525 445.905,335.049 445.892,334.589L445.892,331.997C445.877,331.457 446.195,330.94 446.86,330.556L456.031,325.261C457.465,324.433 459.973,324.537 461.629,325.493L469.997,330.324C470.831,330.805 471.291,331.412 471.358,332.002L471.366,331.997L471.366,334.589L471.358,334.594C471.424,335.174 471.11,335.737 470.399,336.148L461.227,341.443C459.793,342.271 457.285,342.167 455.629,341.211L454.019,340.281Z" style="fill:rgb(71,71,71);stroke:black;stroke-width:1px;"/>
    <path d="M461.629,325.493L469.997,330.324C471.652,331.28 471.832,332.728 470.399,333.556L461.227,338.851C459.793,339.679 457.285,339.575 455.629,338.619L447.262,333.788C445.606,332.832 445.426,331.383 446.86,330.556L456.031,325.261C457.465,324.433 459.973,324.537 461.629,325.493ZM475.761,295.103L503.381,311.049C505.037,312.005 505.217,313.453 503.783,314.281L494.611,319.576C493.178,320.404 490.669,320.3 489.013,319.344L461.393,303.398C459.737,302.442 459.557,300.993 460.991,300.166L470.163,294.871C471.596,294.043 474.105,294.147 475.761,295.103ZM444.972,315.876L453.339,320.707C454.995,321.663 455.175,323.111 453.741,323.939L444.57,329.234C443.136,330.062 440.628,329.958 438.972,329.002L430.605,324.171C428.949,323.215 428.769,321.766 430.203,320.939L439.374,315.644C440.808,314.816 443.316,314.92 444.972,315.876ZM452.148,300.44L460.515,305.271C462.171,306.227 462.351,307.676 460.917,308.503L451.746,313.798C450.312,314.626 447.804,314.522 446.148,313.566L437.78,308.735C436.125,307.78 435.945,306.331 437.378,305.503L446.55,300.208C447.984,299.381 450.492,299.484 452.148,300.44ZM435.536,290.849L443.903,295.68C445.559,296.636 445.739,298.084 444.305,298.912L435.134,304.207C433.7,305.035 431.191,304.931 429.536,303.975L421.168,299.144C419.512,298.188 419.332,296.74 420.766,295.912L429.937,290.617C431.371,289.789 433.88,289.893 435.536,290.849ZM459.338,285.402L467.705,290.233C469.361,291.189 469.541,292.637 468.107,293.465L458.936,298.76C457.502,299.588 454.993,299.484 453.338,298.528L444.97,293.697C443.315,292.741 443.134,291.293 444.568,290.465L453.74,285.17C455.174,284.342 457.682,284.446 459.338,285.402ZM442.725,275.811L451.093,280.642C452.749,281.598 452.929,283.046 451.495,283.874L442.323,289.169C440.89,289.997 438.381,289.893 436.725,288.937L428.358,284.106C426.702,283.15 426.522,281.702 427.956,280.874L437.127,275.579C438.561,274.751 441.07,274.855 442.725,275.811ZM485.235,281.384L493.602,286.215C495.258,287.171 495.438,288.619 494.004,289.447L484.833,294.742C483.399,295.57 480.891,295.466 479.235,294.51L470.868,289.679C469.212,288.723 469.032,287.275 470.466,286.447L479.637,281.152C481.071,280.324 483.579,280.428 485.235,281.384ZM468.623,271.793L476.99,276.623C478.646,277.579 478.826,279.028 477.392,279.856L468.221,285.151C466.787,285.978 464.278,285.874 462.623,284.919L454.255,280.088C452.6,279.132 452.419,277.683 453.853,276.856L463.025,271.561C464.459,270.733 466.967,270.837 468.623,271.793ZM452.01,262.201L460.378,267.032C462.034,267.988 462.214,269.437 460.78,270.264L451.609,275.559C450.175,276.387 447.666,276.283 446.01,275.327L437.643,270.496C435.987,269.541 435.807,268.092 437.241,267.264L446.412,261.969C447.846,261.142 450.355,261.245 452.01,262.201ZM435.398,252.61L443.766,257.441C445.421,258.397 445.601,259.845 444.167,260.673L434.996,265.968C433.562,266.796 431.054,266.692 429.398,265.736L421.031,260.905C419.375,259.949 419.195,258.501 420.629,257.673L429.8,252.378C431.234,251.55 433.742,251.654 435.398,252.61ZM511.689,277.408L520.056,282.239C521.712,283.195 521.892,284.643 520.458,285.471L511.287,290.766C509.853,291.594 507.345,291.49 505.689,290.534L497.322,285.703C495.666,284.747 495.486,283.299 496.92,282.471L506.091,277.176C507.525,276.348 510.033,276.452 511.689,277.408ZM495.077,267.817L503.444,272.648C505.1,273.604 505.28,275.052 503.846,275.88L494.675,281.175C493.241,282.003 490.732,281.899 489.077,280.943L480.709,276.112C479.054,275.156 478.873,273.708 480.307,272.88L489.479,267.585C490.913,266.757 493.421,266.861 495.077,267.817ZM478.464,258.226L486.832,263.057C488.488,264.013 488.668,265.461 487.234,266.289L478.063,271.584C476.629,272.412 474.12,272.308 472.464,271.352L464.097,266.521C462.441,265.565 462.261,264.117 463.695,263.289L472.866,257.994C474.3,257.166 476.809,257.27 478.464,258.226ZM390.333,207.343L470.22,253.466C471.875,254.422 472.055,255.87 470.621,256.698L461.45,261.993C460.016,262.821 457.508,262.717 455.852,261.761L375.965,215.638C374.309,214.682 374.129,213.234 375.563,212.406L384.734,207.111C386.168,206.283 388.677,206.387 390.333,207.343ZM528.301,286.999L536.669,291.83C538.325,292.786 538.505,294.235 537.071,295.062L527.899,300.357C526.466,301.185 523.957,301.081 522.301,300.125L513.934,295.294C512.278,294.339 512.098,292.89 513.532,292.062L522.703,286.767C524.137,285.94 526.646,286.043 528.301,286.999ZM435.26,329.373L453.407,339.85C455.062,340.806 455.242,342.254 453.808,343.082L444.637,348.377C443.203,349.205 440.695,349.101 439.039,348.145L420.892,337.668C419.237,336.712 419.056,335.264 420.49,334.436L429.662,329.141C431.096,328.313 433.604,328.417 435.26,329.373ZM468.51,310.176L486.657,320.653C488.313,321.609 488.493,323.057 487.059,323.885L477.887,329.18C476.454,330.008 473.945,329.904 472.289,328.948L454.143,318.471C452.487,317.515 452.307,316.067 453.741,315.239L462.912,309.944C464.346,309.116 466.854,309.22 468.51,310.176ZM501.883,290.954L520.03,301.431C521.685,302.387 521.865,303.836 520.431,304.663L511.26,309.959C509.826,310.786 507.318,310.682 505.662,309.726L487.515,299.249C485.86,298.293 485.68,296.845 487.113,296.017L496.285,290.722C497.719,289.894 500.227,289.998 501.883,290.954Z" style="fill:rgb(39,39,39);stroke:black;stroke-width:1px;"/>
    <path d="M433.264,372.424C431.732,373.364 429.712,373.307 427.498,372.029L181.461,229.979C176.681,227.219 172.8,219.805 172.8,213.432L172.8,21.526C172.8,18.104 173.919,15.674 175.695,14.584L175.693,14.583L178.586,12.913L178.588,12.914C180.12,11.974 182.14,12.031 184.354,13.309L430.391,155.359C435.171,158.118 439.052,165.533 439.052,171.906L439.052,363.812C439.052,367.233 437.933,369.664 436.157,370.754L436.159,370.754L433.266,372.425L433.264,372.424Z" style="fill:rgb(254,228,179);stroke:black;stroke-width:1px;"/>
    <path d="M172.8,21.526L172.8,213.432C172.8,219.805 176.681,227.219 181.461,229.979L427.498,372.029C432.278,374.789 436.159,371.855 436.159,365.482L436.159,173.576C436.159,167.203 432.278,159.789 427.498,157.029L181.461,14.979C176.681,12.219 172.8,15.153 172.8,21.526Z" style="fill:rgb(255,244,225);stroke:black;stroke-width:1px;"/>
    <path d="M312.455,178.365C312.763,178.543 313.244,178.865 313.898,179.33C314.551,179.796 315.297,180.446 316.134,181.282C316.971,182.118 317.823,183.178 318.689,184.461C319.556,185.745 320.356,187.304 321.091,189.138C321.017,189.154 320.742,189.259 320.265,189.454C319.787,189.648 319.247,190.017 318.645,190.56C318.043,191.104 317.518,191.927 317.07,193.029C316.622,194.131 316.398,195.623 316.398,197.502C316.398,199.657 316.681,201.641 317.246,203.456C317.812,205.271 318.473,206.856 319.229,208.214C319.985,209.571 320.661,210.631 321.256,211.396C321.851,212.16 322.17,212.565 322.214,212.61C322.2,212.68 322.089,213.052 321.884,213.726C321.678,214.401 321.359,215.235 320.925,216.228C320.492,217.221 319.93,218.194 319.24,219.147C318.609,219.977 317.959,220.747 317.29,221.458C316.622,222.169 315.895,222.645 315.109,222.887C314.324,223.128 313.439,222.965 312.455,222.397C311.706,221.964 311.067,221.478 310.538,220.938C310.009,220.398 309.506,219.838 309.029,219.259C308.552,218.68 308.026,218.107 307.454,217.542C306.881,216.976 306.169,216.447 305.317,215.955C304.2,215.311 303.272,214.965 302.53,214.919C301.788,214.873 301.087,214.855 300.426,214.865C299.765,214.875 298.987,214.621 298.091,214.104C296.725,213.315 295.524,211.907 294.489,209.88C293.453,207.853 292.392,205.517 291.305,202.872C290.468,200.783 289.704,198.491 289.014,195.998C288.324,193.504 287.773,190.963 287.362,188.376C286.95,185.788 286.745,183.32 286.745,180.97C286.745,177.21 287.281,174.342 288.353,172.366C289.425,170.391 290.798,169.215 292.473,168.841C294.147,168.466 295.888,168.8 297.694,169.843C298.649,170.394 299.548,171.139 300.393,172.077C301.237,173.015 302.027,173.916 302.761,174.781C303.496,175.645 304.164,176.251 304.766,176.599C305.339,176.93 306.014,177.099 306.793,177.108C307.571,177.117 308.434,177.17 309.381,177.266C310.329,177.363 311.353,177.729 312.455,178.365ZM310.913,172.716C310.178,173.486 309.257,173.943 308.148,174.086C307.039,174.23 305.992,174.017 305.008,173.449C304.803,173.33 304.604,173.186 304.413,173.017C304.399,172.931 304.38,172.783 304.358,172.574C304.336,172.366 304.325,172.144 304.325,171.909C304.325,170.421 304.568,169.111 305.052,167.981C305.537,166.851 306.095,165.998 306.727,165.423C307.505,164.639 308.493,164.181 309.69,164.05C310.887,163.918 312.036,164.141 313.138,164.718C313.182,165.077 313.204,165.471 313.204,165.902C313.204,167.41 312.991,168.751 312.565,169.925C312.139,171.099 311.588,172.029 310.913,172.716Z" style="fill:rgb(254,228,179);fill-rule:nonzero;stroke:black;stroke-width:1px;stroke-miterlimit:2;"/>
    <path d="M181.461,14.979C176.681,12.219 172.8,15.153 172.8,21.526L172.8,213.432C172.8,219.805 176.681,227.219 181.461,229.979L427.498,372.029C432.278,374.789 436.159,371.855 436.159,365.482" style="fill:white;fill-opacity:0.25;stroke:black;stroke-width:1px;"/>
    <path d="M172.8,21.526L172.8,213.432C172.8,219.805 176.681,227.219 181.461,229.979L427.498,372.029" style="fill:white;fill-opacity:0.25;stroke:black;stroke-width:1px;"/>
    <path d="M471,354.931C471,355.765 470.492,356.736 469.866,357.097L453.116,366.768C452.491,367.129 451.983,366.745 451.983,365.91C451.983,365.076 452.491,364.106 453.116,363.744L469.866,354.074C470.492,353.713 471,354.097 471,354.931Z" style="fill:rgb(255,250,240);stroke:black;stroke-width:1px;"/>
    <path d="M482,348.58C482,349.414 481.492,350.385 480.866,350.746L475.116,354.066C474.491,354.427 473.983,354.043 473.983,353.209C473.983,352.374 474.491,351.404 475.116,351.043L480.866,347.723C481.492,347.362 482,347.746 482,348.58Z" style="fill:rgb(255,250,240);stroke:black;stroke-width:1px;"/>
    <path d="M492,342.806C492,343.641 491.492,344.611 490.866,344.973L485.116,348.292C484.491,348.654 483.983,348.27 483.983,347.435C483.983,346.601 484.491,345.63 485.116,345.269L490.866,341.949C491.492,341.588 492,341.972 492,342.806Z" style="fill:rgb(255,250,240);stroke:black;stroke-width:1px;"/>
    <path d="M482,348.58C482,349.414 481.492,350.385 480.866,350.746L477.991,349.383L480.866,347.723C481.492,347.362 482,347.746 482,348.58Z" style="fill:rgb(253,210,129);stroke:black;stroke-width:1px;"/>
    <path d="M492,342.806C492,343.641 491.492,344.611 490.866,344.973L487.991,343.609L490.866,341.949C491.492,341.588 492,341.972 492,342.806Z" style="fill:rgb(253,210,129);stroke:black;stroke-width:1px;"/>
    <path d="M469.635,355.045C469.635,355.507 469.353,356.044 469.007,356.244L452.611,365.711C452.264,365.911 451.983,365.698 451.983,365.236C451.983,364.774 452.264,364.236 452.611,364.036L469.007,354.57C469.353,354.37 469.635,354.583 469.635,355.045Z" style="fill:rgb(254,228,179);stroke:black;stroke-width:1px;"/>
</svg>
