<?xml version="1.0" encoding="UTF-8" standalone="no"?>
<!DOCTYPE svg PUBLIC "-//W3C//DTD SVG 1.1//EN" "http://www.w3.org/Graphics/SVG/1.1/DTD/svg11.dtd">
<svg width="100%" height="100%" viewBox="0 0 530 471" version="1.1" xmlns="http://www.w3.org/2000/svg" xmlns:xlink="http://www.w3.org/1999/xlink" xml:space="preserve" xmlns:serif="http://www.serif.com/" style="fill-rule:evenodd;clip-rule:evenodd;stroke-linecap:round;stroke-linejoin:round;stroke-miterlimit:1;" aria-labelledby="svg-title" aria-describedby="svg-desc">
    
    <title id="svg-title">Wishlist</title>
    <desc id="svg-desc">A gift box.</desc>
    
    <path d="M18.588,322.871L18.588,157.17L264.797,15.021L511.007,157.17L511.007,322.871L264.797,465.021L18.588,322.871Z" style="fill:rgb(200,4,27);stroke:black;stroke-width:4.5px;"/>
    <path d="M264.577,314.384L264.577,464.893L18.588,322.871L18.588,172.362L264.577,314.384Z" style="fill:rgb(250,5,34);stroke:black;stroke-width:4.5px;"/>
    <path d="M4.791,229.168L4.791,164.397L264.797,14.282L524.803,164.397L524.803,229.168L264.797,379.282L4.791,229.168Z" style="fill:rgb(200,4,27);stroke:black;stroke-width:4.5px;"/>
    <path d="M264.996,14.168L524.803,164.168L264.599,314.397L4.791,164.397L264.996,14.168Z" style="fill:rgb(251,55,78);stroke:black;stroke-width:4.5px;"/>
    <path d="M264.577,314.384L264.577,379.155L4.791,229.168L4.791,164.397L264.577,314.384Z" style="fill:rgb(250,5,34);stroke:black;stroke-width:4.5px;"/>
    <path d="M213.045,164.403L109.552,104.651L161.514,74.651L265.007,134.403L368.5,74.651L420.461,104.651L316.968,164.403L420.461,224.155L368.5,254.155L265.007,194.403L161.514,254.155L109.552,224.155L213.045,164.403Z" style="fill:white;stroke:black;stroke-width:4.5px;"/>
    <path d="M160.654,253.658L160.654,319.155L108.692,289.155L108.692,223.658L160.654,253.658Z" style="fill:white;stroke:black;stroke-width:4.5px;"/>
    <path d="M167.563,323.144L167.563,408.176L115.601,378.176L115.601,293.144L167.563,323.144Z" style="fill:white;stroke:black;stroke-width:4.5px;"/>
    <path d="M368.5,254.364L368.5,319.861L420.461,289.861L420.461,224.364L368.5,254.364Z" style="fill:white;stroke:black;stroke-width:4.5px;"/>
    <path d="M365.045,321.855L365.045,406.888L417.007,376.888L417.007,291.855L365.045,321.855Z" style="fill:white;stroke:black;stroke-width:4.5px;"/>
    <path d="M238.838,148.402L238.059,148.845L268.111,60.934C268.34,60.24 268.577,59.547 268.822,58.855C274.931,41.637 286.354,25.02 299.934,14.471C305.801,9.429 311.944,6.073 318.438,4.718C326.157,2.621 333.034,3.413 338.43,6.726C338.446,6.732 338.461,6.738 338.477,6.744L390.452,36.752C376.875,30.253 363.3,33.361 349.404,47.089C349.391,47.159 349.378,47.228 349.365,47.298C348.924,47.679 348.485,48.067 348.049,48.461C339.549,57.268 328.574,72.327 322.104,87.035C312.522,108.817 290.558,179.155 290.558,179.155L238.582,149.147L238.838,148.402Z" style="fill:white;stroke:black;stroke-width:4.5px;"/>
    <path d="M316.074,102.422C332.139,89.099 345.41,67.932 349.365,47.298C352.719,44.397 356.228,41.86 359.84,39.775C383.738,25.977 403.141,37.179 403.141,64.775C403.141,92.37 383.738,125.977 359.84,139.775C358.81,140.369 357.789,140.917 356.778,141.419L290.558,179.155L316.074,102.422Z" style="fill:white;stroke:black;stroke-width:4.5px;"/>
    <path d="M150.84,199.805L137.804,192.279L137.796,192.269C133.817,189.86 130.634,186.089 128.501,181.102C126.549,176.537 125.476,170.954 125.476,164.465C125.476,160.151 125.95,155.691 126.841,151.182C127.716,146.754 128.994,142.28 130.62,137.853C133.2,130.828 136.657,123.92 140.776,117.504C147.333,107.29 155.567,98.32 164.609,92.1C165.981,91.157 167.371,90.276 168.777,89.465C173.095,86.972 177.266,85.295 181.203,84.383C188.267,82.748 194.576,83.577 199.62,86.577L199.625,86.578L232.289,105.51C245.014,112.448 255.358,118.41 256.857,120.745L290.558,179.155L218.266,220.892C207.586,227.308 196.843,226.924 186.046,220.366L150.636,199.923L150.84,199.805ZM238.582,149.147L220.597,120.172C200.567,131.584 183.518,158.992 178.929,183.741L238.582,149.147Z" style="fill:white;stroke:black;stroke-width:4.5px;"/>
    <path d="M238.58,149.166L290.574,179.185" style="fill:none;stroke:black;stroke-width:4.5px;"/>
    <path d="M224.337,217.884C223.326,218.549 222.305,219.18 221.275,219.775C197.377,233.573 177.974,222.37 177.974,194.775C177.974,167.179 197.377,133.573 221.275,119.775C238.047,110.092 252.604,112.721 259.795,124.687C260.04,125.095 260.277,125.515 260.505,125.945L290.558,179.155L224.337,217.884Z" style="fill:none;stroke:black;stroke-width:4.5px;"/>
</svg>
