<?xml version="1.0" encoding="UTF-8" standalone="no"?>
<!DOCTYPE svg PUBLIC "-//W3C//DTD SVG 1.1//EN" "http://www.w3.org/Graphics/SVG/1.1/DTD/svg11.dtd">
<svg width="100%" height="100%" viewBox="0 0 1200 1536" version="1.1" xmlns="http://www.w3.org/2000/svg" xmlns:xlink="http://www.w3.org/1999/xlink" xml:space="preserve" xmlns:serif="http://www.serif.com/" style="fill-rule:evenodd;clip-rule:evenodd;stroke-linecap:round;stroke-linejoin:round;stroke-miterlimit:1.5;">
    <path d="M1166.22,1546L43.699,1546C41.124,1427.14 46.012,1378.27 52.688,1305C64.242,1178.2 109.653,951.694 329.816,895C467.269,870.999 640.058,766.188 745.508,835C867.238,914.436 1011.52,982.816 1065.94,1065C1118.34,1137.68 1165.96,1313.98 1166.22,1546Z"  style="stroke:hsl(216, 11%, 9%);fill:hsl(198, 100%, 30%);stroke-width:10px;"/>
    <path d="M399.098,945c-8.328,6.64 -1.81,22.361 3.122,31.802c65.669,125.717 302.319,68.443 351.948,-106.802c-18.805,-57.799 -14.373,-115.302 -17.32,-160c-59.178,12.5 -281.979,190.533 -337.75,235Z" style="fill:#ffe4d0;stroke:hsl(216, 11%, 9%);stroke-width:10px;"/>
    <path d="M260.786,356.776c11.732,-37.311 32.612,-94.799 76.434,-117.501c3.615,14.65 427,-6.275 427,-6.275l-34,340.905c0,0 3.057,-22.017 10.355,-31.753c4.86,-4.803 11.696,-10.897 19.236,-16.752c17.47,-11.765 41.635,-22.28 58.066,-18.434c2.77,0.89 5.363,2.037 7.812,3.391c17.658,12.287 41.001,52.919 28.531,92.985c-10.237,32.89 -31.744,94.93 -82.731,106.461c-11.343,4.462 -22.865,5.07 -34.641,0.197c-7.653,0.903 -11.316,5.668 -12.628,12.709c-12.588,34.814 -33.33,71.951 -65.314,112.291c-32.645,35.103 -72.08,65.746 -121.244,90c-94.834,30.522 -170.954,28.435 -212.442,-34c-9.673,-17.197 -85.874,-158.853 -87,-258.342c-0.316,-27.933 10.926,-96.198 11.807,-203.724c0.184,-22.476 3.465,-48.959 10.759,-72.158Z" style="fill:#ffe4d0;stroke:hsl(216, 11%, 9%);stroke-width:10px;"/>
    <path d="M316.22,757.15c39.588,44.625 101.239,42.161 175,13.85" style="fill:none;stroke:hsl(216, 11%, 9%);stroke-width:10px;"/>
    <path d="M350.22,819.78c12.158,13.733 31.088,16.412 53.5,13.407" style="fill:none;stroke:hsl(216, 11%, 9%);stroke-width:10px;"/>
    <path d="M292.558,515.743c10.181,8.625 15.832,28.738 12.61,44.885c-3.221,16.147 -14.104,22.254 -24.286,13.629c-10.181,-8.625 -15.832,-28.738 -12.61,-44.885c3.222,-16.147 14.104,-22.254 24.286,-13.629Z"/>
    <path d="M503.154,557.2c9.222,15.909 8.009,37.899 -2.708,49.075c-10.717,11.176 -26.905,7.334 -36.127,-8.575c-9.222,-15.909 -8.008,-37.899 2.708,-49.075c10.717,-11.176 26.905,-7.334 36.127,8.575Z"/>
    <path d="M258.859,363.311c13.021,-53.924 38.955,-95.391 78.361,-124.036c3.615,14.65 85.907,38.441 164.094,37.963c65.212,-0.4 123.258,6.007 130.323,8.972c1.149,0.482 2.444,0.41 3.324,-0.079c19.629,-10.925 129.259,-53.131 129.259,-53.131c0,-0 -93.754,51.155 -112.515,62.071c-0.986,0.574 -1.273,2.654 -0.047,3.422c20.02,12.55 17.912,35.841 17.562,58.507c-1.089,33.571 4.67,58.531 14,79c16.085,50.598 20.216,101.374 16,152.275l33,-9.37c0,0 1.483,-22.339 6.628,-31.905c9.314,-17.318 42.885,-42.006 61.254,-42c11.018,-0.782 19.72,1.786 27.118,6.24c35.141,-158.936 7.964,-243.821 -60,-280.24c-43.245,-87.083 -145.469,-132.169 -290.18,-147c-18.48,-1.179 -22.753,3.805 -17.32,13c-3.159,5.93 -22.38,-0.813 -48.5,-13c-16.945,-4.409 -22.639,5.532 -24,21c-1.022,5.106 -4.065,6.622 -10,3l-21.423,-8c-12.667,-2.964 -20.555,2.449 -23.577,16.388l-2.404,22.612c-22.013,-1.081 -33.625,6.863 -34.641,24c-0.48,26.375 6.728,49.07 25.981,66c-45.849,41.3 -61.594,85.91 -62.297,134.311Z" style="fill:#40210c;stroke:hsl(216, 11%, 9%);stroke-width:10px;"/>
    <path d="M442.399,434c-12.338,-0.19 -14.236,35.021 -1.179,37c57.5,-2.456 90.533,6.586 122.423,23c7.667,-4.068 9.823,-18.232 7.577,-21c-48.523,-40.604 -107.154,-38.667 -128.821,-39Z" style="fill:#40210c;"/>
    <path d="M321.156,455.305c7.086,2.378 10.349,-24.557 4.66,-31.305c-16.002,-18.979 -73.097,-19.555 -74.942,-1c-0.774,7.784 -2.241,24.132 4.346,20c14.798,-5.775 55.573,8.828 65.936,12.305Z" style="fill:#40210c;"/>
    <path d="M565.942,606.992c-5.977,37.392 -31.049,67.507 -65.484,73.692c-45.459,8.165 -90.133,-28.447 -99.699,-81.708c-2.928,-16.307 -1.818,-42.262 -1.818,-42.262c-19.342,-24.445 -53.689,-20.011 -54.095,-10.872c2.434,46.87 -24.216,92.219 -62.183,96.991c-40.239,5.059 -76.05,-35.745 -82.384,-86.136c-6.335,-50.39 19.191,-93.408 59.43,-98.466c31.248,-3.928 64.032,20.39 78.748,53.71c26.621,-12.132 45.204,-6.704 73.304,14.025c11.832,-18.344 32.623,-34.44 54.032,-38.286c33.123,-5.949 65.829,11.874 84.841,42.588c0.931,1.504 1.829,3.039 2.693,4.604c7.932,11.452 21.932,16.537 39.788,13.007l179.924,-42.23c21.29,-5.456 42.91,-5.088 55.274,4.502c-17.736,-16.336 -65.022,-1.624 -84.486,23.229l-151.411,37.769c-16.014,5.529 -24.015,20.224 -26.086,33.208c-0.07,0.52 -0.144,1.04 -0.221,1.557c-0.036,0.462 -0.092,0.819 -0.167,1.078Zm-91.846,-99.405c-34.236,4.304 -57.696,42.287 -52.356,84.769c5.34,42.482 37.471,73.477 71.707,69.174c34.236,-4.304 57.696,-42.288 52.356,-84.769c-5.34,-42.482 -37.471,-73.478 -71.707,-69.174Zm-213.203,-29.22c-29.157,3.665 -46.606,38.234 -41.404,79.612c5.201,41.378 31.095,71.996 60.252,68.331c29.157,-3.666 48.606,-40.235 43.405,-81.613c-5.202,-41.377 -33.096,-69.995 -62.253,-66.33Z" style="fill:hsla(0, 0%, 98%, 0.75);stroke:hsla(216, 11%, 9%, 0.5);stroke-width:8px;"/>
    <path d="M357.22,547.065c-9.822,54.059 -36.138,90.841 -52,116.595c-18.478,30.001 -1.424,65.223 32,57.924c18.393,-4.016 59.358,-7.298 74.538,-6.924c18.027,0.444 19.187,-19.704 12.321,-27" style="fill:#ffe4d0;stroke:hsl(216, 11%, 9%);stroke-width:10px;"/>
    <path d="M756.168,664.732c18.915,-27.263 22.001,-53.382 5.052,-75.732c42.643,-77.473 101.148,-31.681 51,44.516" style="fill:none;stroke:hsl(216, 11%, 9%);stroke-width:10px;"/>
</svg>