<?xml version="1.0" encoding="UTF-8" standalone="no"?>
<!DOCTYPE svg PUBLIC "-//W3C//DTD SVG 1.1//EN" "http://www.w3.org/Graphics/SVG/1.1/DTD/svg11.dtd">
<svg width="100%" height="100%" viewBox="0 0 550 599" version="1.1" xmlns="http://www.w3.org/2000/svg" xmlns:xlink="http://www.w3.org/1999/xlink" xml:space="preserve" xmlns:serif="http://www.serif.com/" style="fill-rule:evenodd;clip-rule:evenodd;stroke-linejoin:round;stroke-miterlimit:2;">
    <path d="M173.148,27.611c3.565,-0.509 15.617,5.093 17.315,4.074c1.698,-1.018 -6.79,-7.129 -7.13,-10.185c-0.339,-3.056 1.925,-7.674 5.093,-8.148c3.395,-0.509 13.071,5.092 15.278,5.092c1.828,0 -2.855,-3.456 -2.037,-5.092c0.848,-1.698 4.216,-5.309 7.129,-5.093c4.584,0.339 17.824,6.96 20.371,7.13c2.546,0.17 -5.093,-3.904 -5.093,-6.111c0,-2.207 2.199,-6.736 5.093,-7.13c3.735,-0.509 14.429,4.074 17.314,4.074c1.358,0 -1.086,-3.259 0,-4.074c1.358,-1.018 5.416,-2.644 8.149,-2.037c10.694,2.376 37.155,11.565 56.018,16.296c22.079,5.538 41.473,25.682 44.815,42.778c10.461,6.683 21.513,15.256 22.407,31.574c0.753,13.737 0.34,35.648 0,47.871c-0.236,8.511 -2.037,25.463 -2.037,25.463c23.62,-6.349 27.087,10.385 21.389,46.851c-3.805,24.353 -22.294,52.449 -35.648,42.778c-2.346,17.142 -6.631,30.287 -12.222,40.741l-1.019,19.352c7.674,9.375 15.015,18.8 20.371,28.518c37.24,15.814 73.51,33.28 107.283,55c72.682,45.051 72.138,116.455 74.013,201.667l-550,0c6.089,-88.563 37.769,-169.7 64.167,-195.556c29.518,-22.126 60.963,-38.471 93.703,-50.925l23.426,-22.408l-1.018,-23.426c-9.529,-13.21 -15.912,-30.963 -19.352,-52.963c-12.429,2.456 -23.935,-7.374 -33.448,-43.796c-4.117,-36.316 1.696,-52.763 20.207,-43.796c0,-0 -4.903,-54.318 -2.037,-73.334c5.312,-35.234 16.636,-33.102 19.352,-40.74c0.663,-1.865 -3.395,-3.395 -3.056,-5.093c0.34,-1.698 2.832,-4.285 5.093,-5.093c2.376,-0.848 8.828,1.189 9.167,0c0.339,-1.188 -6.621,-4.753 -7.13,-7.129c-0.509,-2.376 1.365,-6.743 4.074,-7.13Zm-15.278,137.5l15.278,-1.018c25.969,-17.689 49.763,-17.915 71.296,-0c10.704,-5.426 20.829,-4.801 30.556,-0c19.538,-17.432 43.766,-18.204 73.333,-0l13.241,-0c1.056,-22.051 -3.148,-46.129 -10.185,-71.297c-1.197,-9.646 -2.632,-18.178 -8.148,-23.775c-7.908,-8.024 -22.055,-11.09 -37.685,-11.873l-91.667,0c-22.238,3.056 -36.533,14.898 -42.778,35.648c-7.453,26.233 -11.57,50.131 -13.241,72.315Zm23.619,-8.706c-0.809,0.793 -3.315,0.411 -4.267,-1.827c-1.784,-4.2 6.996,-13.676 12.567,-15.423c5.083,-2.787 18.604,-5.994 35.178,-3.276c6.015,1.705 9.578,4.813 9.433,8.144c-0.203,4.625 -3.503,7.53 -7.396,4.965c-4.591,-3.144 -13.83,-4.246 -21.263,-2.834c-10.441,1.985 -15.91,3.629 -24.252,10.251Zm155.44,-2.052c-7.821,-8.265 -33.695,-15.531 -45.425,-7.956c-3.173,1.547 -7.189,-0.425 -7.336,-5.053c-0.106,-3.332 4.897,-6.512 9.529,-8.031c20.246,-4.562 30.086,0.844 35.137,3.692c5.549,1.813 14.123,11.391 12.288,15.57c-0.978,2.228 -3.047,2.989 -4.193,1.778Zm-145.448,166.591l3.056,50.926c9.989,21.342 39.454,30.481 60.093,29.537c26.856,-1.227 54.761,-9.932 70.277,-28.518c7.264,-13.106 11.136,-33.675 14.26,-42.778l-0,-19.352c-25.218,32.307 -51.57,49.32 -79.445,45.834c-26.273,-0.073 -49.073,-11.781 -68.241,-35.649Zm120.928,-161.923c-9.708,0.294 -26.341,2.487 -30.364,13.561c-5.15,20.303 6.176,40.929 27.272,40.332c10.923,0.665 22.034,-4.687 27.196,-11.703c5.163,-7.014 7.801,-23.356 3.784,-30.388c-4.017,-7.032 -18.179,-12.095 -27.888,-11.802Zm-3.798,12.201c4.497,0 8.148,3.652 8.148,8.148c0,4.497 -3.651,8.149 -8.148,8.149c-4.497,-0 -8.148,-3.652 -8.148,-8.149c-0,-4.496 3.651,-8.148 8.148,-8.148Zm-98.796,-12.222c-9.676,-0.848 -24.105,3.395 -28.519,10.185c-4.413,6.791 -2.716,23.256 2.037,30.556c4.754,7.299 15.539,13.278 26.482,13.24c21.027,1.805 33.515,-18.139 29.537,-38.703c-3.383,-11.287 -19.861,-14.43 -29.537,-15.278Zm1.018,12.222c4.497,0 8.148,3.652 8.148,8.148c0,4.497 -3.651,8.149 -8.148,8.149c-4.496,-0 -8.148,-3.652 -8.148,-8.149c0,-4.496 3.652,-8.148 8.148,-8.148Zm-51.944,4.074l2.037,14.26c-2.923,2.987 -5.611,3.603 -8.148,1.018c-3.24,-13.228 -7.067,-16.6 -11.38,-16.296c-3.675,0.258 -5.491,5.95 -6.954,15.278c1.553,17.715 4.565,33.117 11.204,42.777c4.374,7.918 9.101,11.941 14.259,11.204c-0.957,-1.389 -0.553,-4.228 0.035,-6.62c0.688,-2.807 1.744,-2.994 3.021,-3.18c2.296,-0.333 4.076,2.209 4.074,4.707c4.38,28.773 10.644,47.864 19.352,59.075c13.58,20.57 27.161,35.237 40.741,42.777c20.655,9.055 41.011,9.312 61.111,2.037c18.203,-8.885 33.343,-22.686 45.833,-40.74c12.969,-21.36 19.593,-45.678 23.935,-76.899c0.567,-4.372 2.895,-4.721 4.074,-4.691c1.665,0.043 3.241,1.996 3.565,5.71c0.18,4.576 -1.284,10.846 -2.546,17.315c6.172,1.861 13.172,-2.717 17.824,-13.75c6.428,-12.344 10.474,-26.279 9.167,-43.797c-0.753,-13.159 -7.06,-14.287 -15.787,-7.638c-2.467,1.879 -3.595,5.799 -5.093,8.657c-3.434,2.056 -5.583,0.889 -6.62,-3.056l-0,-8.148l-12.223,0c-0.64,31.512 -17.805,45.924 -34.938,47.209c-23.646,1.772 -47.364,-12.918 -44.506,-48.227c-9.388,-6.274 -15.447,-5.824 -19.352,-1.019c-0.603,25.244 -3.194,46.167 -7.13,64.167c0.413,4.757 4.057,7.859 11.204,9.167c3.879,0.196 7.619,-0.452 11.204,-2.037c5.356,-0.006 9.237,-0.773 10.185,-3.056l-3.056,-6.111c0.468,-3.437 2.643,-4.243 6.112,-3.056c4.525,2.553 6,7.845 5.092,15.278c-1.789,4.106 -5.172,5.821 -10.185,5.093c-7.163,3.526 -13.943,4.819 -20.37,4.074c-9.961,-1.722 -16.493,-7.068 -19.352,-16.297c-0.624,-7.2 1.531,-19.191 5.092,-33.611c-7.2,10.04 -17.873,15.391 -32.592,15.278c-24.077,-1.934 -37.138,-17.355 -38.704,-46.852l-10.185,0Zm73.333,100.834c5.602,0.509 14.937,0.728 26.482,1.018c12.12,0.306 31.307,-1.124 38.703,-2.037c2.383,-0.293 4.923,2.546 5.093,4.074c0.17,1.528 -1.928,4.743 -4.074,5.093c-7.3,1.188 -28.519,2.037 -39.722,2.037c-9.192,-0 -21.559,-1.528 -27.5,-2.037c-2.728,-0.234 -5.51,-1.513 -8.148,-1.019c-3.527,0.661 -7.991,-1.016 -7.13,-4.074c1.186,-4.213 5.661,-8.034 9.167,-5.092c1.893,1.588 4.667,1.813 7.129,2.037Zm76.898,-9.167c-0.99,-3.641 2.763,-5.163 6.111,-3.056c2.871,1.806 7.377,13.157 5.602,16.297c-2.422,4.287 -8.592,4.717 -7.639,-0c1.694,-8.383 -3.353,-10.588 -4.074,-13.241Zm-34.12,26.799c4.408,1.08 3.628,6.172 0,7.831c-3.084,1.409 -33.407,2.842 -36.667,-1.002c-3.184,-3.755 -1.714,-8.526 2.877,-7.076c9.337,2.947 31.316,-0.359 33.79,0.247Z" fill="currentColor"/>
</svg>
