<?xml version="1.0" encoding="UTF-8" standalone="no"?>
<!DOCTYPE svg PUBLIC "-//W3C//DTD SVG 1.1//EN" "http://www.w3.org/Graphics/SVG/1.1/DTD/svg11.dtd">
<svg width="100%" height="100%" viewBox="0 0 700 475" version="1.1" xmlns="http://www.w3.org/2000/svg" xmlns:xlink="http://www.w3.org/1999/xlink" xml:space="preserve" xmlns:serif="http://www.serif.com/" style="fill-rule:evenodd;clip-rule:evenodd;stroke-linecap:round;stroke-linejoin:round;stroke-miterlimit:1;" aria-labelledby="svg-title" aria-describedby="svg-desc">
    
    {% if 
        page.url == '/now/' or 
        page.url == '/social/now/' 
    %}
        {% for post in collections.now limit: 1 %}
            {% assign date = post.date %}
        {% endfor %}
    {% elsif page.url contains '/social/' %}
        {% assign date = post.data.date %}
    {% else %}
        {% assign date = date %}
    {% endif %}
    
    <title id="svg-title">{{ date }}: Now</title>
    <desc id="svg-desc">A desktop calendar block with the date {{ date }} and the word “Now” written on it.</desc>
    
    <path d="M25.981,270L25.981,255L350.74,442.5L350.74,457.5L25.981,270Z" style="fill:rgb(125,125,130);stroke:black;stroke-width:3px;"/>
    <path d="M350.74,457.5L350.74,442.5L675.5,255L675.5,270L350.74,457.5Z" style="fill:rgb(75,75,78);stroke:black;stroke-width:3px;"/>
    <path d="M350.74,67.5L675.5,255L350.74,442.5L25.981,255L350.74,67.5Z" style="fill:rgb(151,151,155);stroke:black;stroke-width:3px;"/>
    <path d="M51.962,255L51.962,195L350.74,367.5C350.74,367.5 649.519,195 649.519,195L644.323,198L649.519,201L644.323,204L649.519,207L644.519,209.887L649.519,213L644.519,215.887L649.519,219L645.051,221.58L649.519,225L645.519,227.309L649.519,231L645.519,233.309L649.519,237L645.519,239.309L649.519,243L645.519,245.332L649.519,249L645.643,251.238L649.519,255L350.74,427.5L51.962,255Z" style="fill:white;stroke:black;stroke-width:3px;"/>
    <path d="M51.962,195L51.962,255L128.183,299.006L128.183,239.006L51.962,195Z" style="fill:rgb(150,3,20);stroke:black;stroke-width:3px;"/>
    <g>
        <path d="M649.519,201L350.74,373.5L51.962,201" style="fill:none;stroke:black;stroke-width:3px;"/>
        <path d="M649.519,207L350.74,379.5L51.962,207" style="fill:none;stroke:black;stroke-width:3px;"/>
        <path d="M649.519,213L350.74,385.5L51.962,213" style="fill:none;stroke:black;stroke-width:3px;"/>
        <path d="M649.519,219L350.74,391.5L51.962,219" style="fill:none;stroke:black;stroke-width:3px;"/>
        <path d="M649.519,225L350.74,397.5L51.962,225" style="fill:none;stroke:black;stroke-width:3px;"/>
        <path d="M649.519,231L350.74,403.5L51.962,231" style="fill:none;stroke:black;stroke-width:3px;"/>
        <path d="M649.519,237L350.74,409.5L51.962,237" style="fill:none;stroke:black;stroke-width:3px;"/>
        <path d="M649.519,243L350.74,415.5L51.962,243" style="fill:none;stroke:black;stroke-width:3px;"/>
        <path d="M649.519,249L350.74,421.5L51.962,249" style="fill:none;stroke:black;stroke-width:3px;"/>
    </g>
    <path d="M350.74,22.5L649.519,195L350.74,367.5L51.962,195L350.74,22.5Z" style="fill:white;stroke:black;stroke-width:3px;"/>
    <path d="M344.874,25.887L639.519,196L346.606,365.113L51.962,195L344.874,25.887Z" style="fill-opacity:0.25;"/>
    <path d="M350.74,22.5C450.813,79.876 550.796,132.902 649.519,185L350.74,357.5C251.17,308.648 151.56,252.218 51.962,195L350.74,22.5Z" style="fill:white;stroke:black;stroke-width:3px;"/>
    <path d="M350.74,22.5L427.889,65.95L128.183,239L51.967,194.997L350.74,22.5Z" style="fill:rgb(200,4,27);stroke:black;stroke-width:3px;"/>
    <path d="M143.176,175.982C146.453,174.09 151.773,174.09 155.05,175.982C158.326,177.874 158.326,180.945 155.05,182.837C151.773,184.729 146.453,184.729 143.176,182.837C139.9,180.945 139.9,177.874 143.176,175.982Z" style="fill:rgb(150,3,20);stroke:black;stroke-width:3px;"/>
    <path d="M105.315,164.196L96.923,169.041L96.923,146.041C96.923,136.569 101.095,130.14 106.102,127.249C111.109,124.358 118.763,123.96 126.966,128.696C141.305,136.975 152.947,157.139 152.947,173.696L153.398,183.421L148.885,184.254L144.575,183.489L144.554,175.541C144.554,161.744 134.853,144.94 122.904,138.041C117.964,135.189 113.408,134.474 109.763,135.59C106.973,138.189 105.315,142.492 105.315,148.196L105.315,164.196Z" style="fill:rgb(135,135,135);stroke:black;stroke-width:3px;"/>
    <path d="M101.253,166.541L96.923,169.041L96.923,146.041C96.923,129.484 108.565,122.763 122.904,131.041C137.243,139.32 148.885,159.484 148.885,176.041L148.885,184.041L144.553,182.572L144.554,175.541C144.554,161.744 134.853,144.94 122.904,138.041C110.954,131.143 101.253,136.744 101.253,150.541L101.253,166.541Z" style="fill:rgb(188,188,188);stroke:black;stroke-width:3px;"/>
    <path d="M318.176,74.946C321.453,73.054 326.773,73.054 330.05,74.946C333.326,76.837 333.326,79.909 330.05,81.801C326.773,83.693 321.453,83.693 318.176,81.801C314.9,79.909 314.9,76.837 318.176,74.946Z" style="fill:rgb(150,3,20);stroke:black;stroke-width:3px;"/>
    <path d="M280.315,63.16L271.923,68.005L271.923,45.005C271.923,35.533 276.095,29.103 281.102,26.213C286.109,23.322 293.763,22.924 301.966,27.66C316.305,35.939 327.947,56.102 327.947,72.66L328.398,82.384L323.885,83.218L319.575,82.452L319.554,74.505C319.554,60.707 309.853,43.904 297.904,37.005C292.964,34.153 288.408,33.437 284.763,34.554C281.973,37.152 280.315,41.456 280.315,47.16L280.315,63.16Z" style="fill:rgb(135,135,135);stroke:black;stroke-width:3px;"/>
    <path d="M276.253,65.505L271.923,68.005L271.923,45.005C271.923,28.448 283.565,21.726 297.904,30.005C312.243,38.284 323.885,58.448 323.885,75.005L323.885,83.005L319.553,81.535L319.554,74.505C319.554,60.707 309.853,43.904 297.904,37.005C285.954,30.106 276.253,35.707 276.253,49.505L276.253,65.505Z" style="fill:rgb(188,188,188);stroke:black;stroke-width:3px;"/>
    
    <g transform="matrix(0.821436,0,0,1.24089,-1996.18,-126.789)">
        <text id="calendar-day" x="3055px" y="1330px" style="font-family: 'JP', sans-serif;font-weight:700;font-size:144px;font-variant-numeric: tabular-nums;"  transform="matrix(1.05429,-0.402857,1.21738,0.465179,-2007.51,922.716)">{{ date | date: "%d" | default: '01' }}</text>
        <text id="calendar-month" x="3070px" y="1280px" style="font-family: 'JP', sans-serif;font-weight:700;font-size:72px;fill:white; text-align: center;" transform="matrix(1.05429,-0.402857,1.21738,0.465179,-2111.09,883.136)">{{ date | date: "%b" | default: 'JAN' }}</text>
    </g>
    
    <g id="warp">
        <g id="now">
            <path d="M402.813,294.642C402.791,295.012 402.98,295.457 403.537,295.858C404.296,296.405 404.859,296.891 404.966,296.984C405.631,297.558 405.754,298.062 405.779,298.163C405.93,298.784 404.863,299.322 404.71,299.403C404.732,299.47 404.807,299.744 405.042,299.691C405.266,299.641 405.882,299.864 405.948,299.888C405.836,299.935 404.964,300.303 404.884,300.676C404.87,300.741 404.804,301.046 404.403,301.445C403.389,301.738 401.99,301.953 400.277,301.856C399.912,301.835 398.048,301.73 395.77,301.382C393.502,301.035 391.698,300.671 391.349,300.601C389.25,300.178 387.742,300.024 387.421,299.992C387.258,299.921 387.214,299.829 387.383,299.748L387.814,299.51C387.642,299.491 386.798,299.394 385.741,299.115C384.695,298.838 383.854,298.875 383.687,298.882C381.826,296.86 379.964,294.839 378.103,292.817C376.654,291.238 373.383,287.727 372.234,286.48C370.194,284.266 368.415,282.211 366.187,279.984C363.674,277.47 360.518,274.684 360.004,274.23C360.395,274.077 362.445,273.271 365.061,272.469C367.648,271.676 369.895,271.249 370.331,271.166C372.977,270.664 375.227,270.555 375.661,270.533C377.48,270.445 379.276,270.558 380.837,270.814C380.981,270.901 381.085,271.023 380.828,271.079C380.64,271.12 380.556,271.202 380.672,271.306C380.748,271.299 381.413,271.239 381.63,271.271C381.763,271.291 381.88,271.329 381.967,271.391C382.069,271.465 382.243,271.522 382.383,271.561C382.674,271.642 383.405,271.606 383.493,271.601C383.353,271.663 383.12,271.773 383.18,271.894C383.242,272.02 382.835,272.154 382.792,272.168C382.942,272.18 384.118,272.27 384.587,272.52C385.051,272.767 385.246,273.014 385.284,273.063C385.323,273.112 385.517,273.359 385.913,273.625C386.305,273.888 387.365,274.023 387.501,274.04C387.416,274.094 387.259,274.198 387.276,274.288C387.289,274.353 387.325,274.413 387.38,274.469C387.435,274.525 387.47,274.586 387.483,274.65C387.501,274.745 387.275,274.84 387.184,274.878C389.294,275.394 390.825,276.02 391.119,276.14C393.09,276.946 394.596,277.657 394.889,277.795C395.4,278.036 397.705,279.163 398.917,279.73C400.932,280.672 403.262,281.489 403.657,281.628C404.282,279.718 403.944,277.9 403.264,276.594C402.425,274.985 401.061,273.517 399.409,272.32C396.978,270.559 394.234,269.358 393.209,268.924C390.349,267.712 386.481,266.242 385.888,266.016C385.862,265.921 385.736,265.454 384.945,264.941C384.814,264.856 384.161,264.432 383.172,263.959L381.171,263.007C380.154,262.525 379.697,262.089 379.6,261.996C380.809,261.49 381.962,261.325 382.183,261.293C382.404,261.262 383.543,261.098 384.972,260.997C386.377,260.898 387.541,260.773 387.763,260.749C387.985,260.725 389.121,260.603 390.412,260.186C392.687,260.23 394.416,260.306 394.764,260.321C396.813,260.411 398.436,260.754 398.742,260.818C398.809,260.882 399.122,261.177 399.826,261.513L401.201,262.199C401.874,262.55 402.187,262.856 402.254,262.922C402.311,262.977 402.633,263.292 402.501,263.72C404.509,264.486 405.787,265.157 406.052,265.297C406.335,265.445 408.853,266.84 409.096,266.974C409.351,267.116 410.46,267.73 412.314,268.726C414.007,269.635 416.035,270.494 416.372,270.637C416.633,270.835 417.966,271.847 419.439,273.192C419.667,273.401 421.034,274.648 422.497,275.726C422.487,275.886 422.404,276.859 423.311,278.165C423.453,278.37 424.196,279.44 425.021,280.75C425.018,280.81 425.011,281.088 424.766,281.019C424.53,280.952 424.032,281.166 423.978,281.189C424.051,281.224 424.671,281.52 424.576,281.778C424.481,282.036 425.522,282.321 425.626,282.349C425.552,282.495 425.166,283.264 425.298,284.243C425.319,284.4 425.43,285.223 425.271,286.207C425.173,286.816 424.805,287.458 424.126,288.046C423.098,288.936 420.617,289.487 420.31,289.559C416.94,289.707 413.087,289.628 409.182,289.245C403.861,288.724 398.477,287.568 397.574,287.374C397.365,287.638 397.28,288.009 397.587,288.416C397.654,288.505 397.993,288.954 398.535,289.497C399.071,290.033 399.402,290.428 399.472,290.51C399.519,290.567 399.869,290.984 399.383,291.292C399.9,291.688 400.069,292.093 400.1,292.168L400.528,293.108C400.566,293.183 400.757,293.568 401.245,293.992C401.726,294.412 402.668,294.611 402.813,294.642Z" style="fill:rgb(200,3,26);fill-rule:nonzero;"/>
            <path d="M455.464,272.265C454.979,272.634 453.187,273.975 450.386,274.778C448.519,275.314 446.426,275.649 444.33,275.742C442.499,275.823 440.264,275.765 437.861,275.454C437.335,275.386 434.645,275.038 431.465,274.239C430.602,273.89 426.155,272.098 422.945,269.944C422.285,269.501 419.739,267.786 417.967,265.901C417.7,265.618 416.113,263.93 415.169,262.204C414.448,260.884 413.434,259.125 413.28,258.857C413.344,258.848 413.908,258.761 413.952,258.589C413.959,258.559 413.995,258.417 413.834,258.225C413.808,258.194 413.672,258.033 413.569,257.818C413.466,257.603 413.641,257.444 413.671,257.416C413.613,257.377 413.245,257.126 413.186,256.84C413.177,256.793 413.127,256.554 413.164,256.253C413.2,255.952 413.151,255.709 413.141,255.662C413.083,255.372 412.767,255.096 412.717,255.052C412.777,255.012 413.157,254.759 413.232,254.458C413.306,254.159 413.258,253.907 413.249,253.859C413.192,253.559 413.231,253.312 413.238,253.264C413.284,252.971 413.604,252.679 413.654,252.634L412.704,252.344C412.775,252.24 413.272,251.522 412.986,250.959C412.927,250.844 412.726,250.447 412.147,249.534C412.747,249.176 413.032,249.031 413.114,248.99C413.209,248.942 413.518,248.786 414.188,248.314C414.101,248.228 413.49,247.622 413.385,247.151C413.282,246.691 413.433,246.026 413.455,245.929C414.931,245.647 415.883,245.182 416.065,245.093C417.181,244.546 418.674,244.417 419.059,244.384C419.986,244.649 420.685,244.596 420.828,244.585C420.963,244.575 421.664,244.522 422.49,244.389L424.177,244.129C424.316,244.108 425.038,244.001 425.965,244.172C426.072,244.104 426.27,243.981 426.214,243.875C426.156,243.766 426.42,243.652 426.536,243.599C427.232,243.7 427.633,243.727 427.73,243.733C428.216,243.765 428.588,243.756 428.663,243.754L429.626,243.752C429.719,243.753 430.141,243.761 430.779,243.83C430.875,243.906 431.353,244.284 432.102,244.718C432.616,245.017 432.711,245.368 432.488,245.715C433.076,245.875 433.419,245.685 433.477,245.654C433.534,245.622 433.878,245.431 434.453,245.531C434.542,245.548 435.175,245.671 435.374,245.944C436.065,245.923 440.862,245.767 445.721,245.871C448.533,245.931 452.236,245.94 456.116,245.844C456.264,245.909 457.015,246.236 458.217,246.406C458.413,246.434 459.415,246.576 460.699,246.666C461.987,246.757 463.03,246.86 463.232,246.88C464.481,247.004 465.37,247.218 465.547,247.261C465.775,247.322 466.908,247.623 468.192,248.231C469.475,248.837 470.264,249.468 470.416,249.59C471.347,250.334 471.777,251.045 471.859,251.181C472.368,252.023 472.192,252.631 472.155,252.757C472.436,253.482 472.459,254.347 472.068,255.245C471.515,256.516 471.523,257.577 471.525,257.782C471.482,257.903 471.253,258.545 470.539,259.227C470.422,259.339 469.827,259.907 469.088,260.637C469.05,260.768 468.877,261.358 468.33,262.234C468.242,262.375 467.782,263.111 467.069,263.967C466.354,264.825 465.608,265.467 465.464,265.591C464.573,266.358 463.715,266.717 463.53,266.795C462.292,268.466 460.895,269.561 460.613,269.782C458.884,271.135 455.977,272.093 455.464,272.265ZM430.032,261.066C431.117,261.874 431.575,262.57 431.668,262.712C431.758,262.849 432.2,263.522 432.825,264.412C432.928,264.558 433.429,265.272 434.424,266.155C435.402,267.024 437.168,267.817 437.441,267.939C439.215,267.883 440.665,267.551 441.736,267.138C442.037,267.022 443.62,266.412 445.171,265.439C445.418,265.284 446.718,264.468 448.088,263.408C449.458,262.348 450.59,261.733 450.833,261.601C450.773,261.578 450.184,261.351 450.66,261.092C452.258,260.03 453.195,258.881 453.632,257.866C453.757,257.575 454.361,256.171 455.276,254.243C454.703,253.766 454.56,253.347 454.531,253.263C454.357,252.752 453.322,252.374 453.179,252.322C452.215,252.296 451.807,252.233 451.691,252.215C451.572,252.197 451.173,252.136 450.284,251.867C447.708,251.959 444.685,251.953 441.814,251.828C439.757,251.737 436.742,251.678 433.249,251.767C433.497,251.93 433.505,252.188 433.506,252.227C433.514,252.523 432.67,252.608 432.58,252.618C432.643,252.651 433.136,252.909 433.035,253.173C432.933,253.436 432.546,253.644 432.485,253.677C432.407,253.718 432.037,253.917 431.369,254.094C431.263,254.122 430.704,254.271 429.976,254.359C429.951,255.995 429.837,257.272 429.815,257.525C429.687,258.95 430.306,260.149 430.581,260.634C430.57,260.665 430.516,260.842 430.372,260.848C430.223,260.853 430.064,261.033 430.032,261.066Z" style="fill:rgb(200,3,26);fill-rule:nonzero;"/>
            <path d="M486.192,248.584C485.124,248.384 484.261,248.253 484.091,248.227C483.091,248.076 482.353,248.011 482.2,247.998C481.853,247.949 480.29,247.73 477.847,247.418C477.507,247.375 476.042,247.188 473.648,246.757C471.919,245.737 471.938,245.739 470.172,244.729C468.606,243.834 466.71,242.759 464.892,241.738C464.768,241.669 461.216,239.678 459.179,238.512C458.782,238.285 456.243,236.832 454.497,235.515C452.894,234.271 451.459,233.017 451.206,232.795C449.477,231.284 448.554,230.115 448.362,229.871C447.226,228.432 446.927,227.352 446.863,227.125C446.585,226.122 446.992,225.329 447.558,224.774C448.509,224.686 449.144,224.513 449.273,224.478C450.032,224.271 450.453,224.095 450.548,224.055C453.302,223.832 455.152,223.543 455.545,223.482C457.679,223.149 459.89,222.633 460.26,222.547C460.589,222.699 462.181,223.434 464.069,224.646C466.158,225.987 467.669,227.118 467.966,227.34C469.911,228.796 469.862,228.804 471.636,230.343C473.348,231.829 474.495,232.686 474.759,232.884C474.955,233.037 475.789,233.689 477.336,234.745C478.444,235.496 480.246,236.631 480.503,236.793C481.866,237.652 484.392,239.196 484.732,239.404C485.299,238.713 485.481,237.759 485.509,237.612C485.719,236.509 485.708,235.639 485.706,235.468C485.711,235.268 485.733,234.238 485.558,232.974C485.525,232.732 485.32,231.259 484.943,229.962C484.566,228.66 484.032,227.606 483.93,227.404C483.826,227.199 483.299,226.158 482.408,224.876C482.246,224.644 481.405,223.433 480.263,221.998C480.096,221.771 479.242,220.609 478.001,219.203C476.675,217.699 475.924,216.751 475.753,216.535C474.71,215.217 474.134,214.363 474.005,214.171C473.909,214.028 473.263,213.069 473.186,212.309C473.444,212.287 474.557,212.192 476.394,211.988C478.133,211.795 479.274,211.479 479.51,211.413C480.748,211.436 481.562,211.431 481.74,211.429L483.689,211.427L486.009,211.462C486.181,211.465 487.055,211.483 488.15,211.596C488.26,211.637 488.703,211.805 489.481,212.147L491.24,212.935C492.222,213.383 493.005,213.775 493.155,213.851C493.305,213.926 494.116,214.332 495.026,214.798C495.362,214.977 496.48,215.573 499.05,217.14C499.222,217.245 500.619,218.096 501.222,218.441C502.064,218.923 502.532,219.156 502.65,219.215C502.788,219.283 503.173,219.475 504.408,220.05C504.548,220.115 505.272,220.453 506.24,220.801C506.389,220.853 507.138,221.116 508.11,221.442C508.266,221.494 509.085,221.769 510.205,221.909C510.273,221.028 510.341,220.148 510.409,219.268C510.522,218.181 509.744,217.071 509.629,216.903C509.475,216.676 508.727,215.579 507.195,214.202C506.934,213.968 505.655,212.819 503.621,211.403C501.764,210.109 499.718,208.822 499.37,208.603C497.469,207.432 496.414,206.757 496.16,206.595C494.607,205.603 493.489,204.781 493.268,204.619C491.943,203.644 491.139,202.931 490.967,202.779C490.833,202.659 489.993,201.914 489.528,201.207C492.103,201.05 492.092,201.104 494.699,201.079C497.126,201.055 499.043,201.145 499.42,201.163C499.807,201.181 501.787,201.275 504.21,201.613C504.643,201.674 506.672,201.958 509.533,202.568C509.823,202.807 511.206,203.943 513.428,205.441C513.773,205.674 516.054,207.211 517.708,208.372C520.678,210.421 522.786,212.192 523.197,212.537C524.897,213.965 526.483,215.619 527.745,217.337C528.908,218.92 529.873,220.795 530.412,222.767C530.972,224.819 530.811,226.923 530.281,228.665C530.14,228.714 529.228,229.029 528.627,229.377C528.536,229.429 527.965,229.759 527.725,230.141C527.687,230.201 527.485,230.523 527.476,230.934C525.302,231.307 522.56,231.411 519.533,230.933C517.508,230.613 514.378,230.054 510.715,229.244C510.043,229.065 509.484,228.945 509.375,228.922L507.975,228.635L504.773,227.966L502.835,227.542L502.907,228.556L502.98,230.057L503.102,230.961C503.277,233.214 503.284,235.083 503.286,235.442C503.294,237.67 502.856,239.452 502.771,239.798C502.419,241.235 501.737,242.64 500.857,243.867C500.015,245.041 498.676,246.287 496.829,247.41L495.464,247.638L494.287,247.845C493.989,247.899 492.052,248.249 490.509,248.416C489.011,248.578 486.538,248.583 486.192,248.584Z" style="fill:rgb(200,3,26);fill-rule:nonzero;"/>
        </g>
    </g>
</svg>
