<?xml version="1.0" encoding="UTF-8" standalone="no"?>
<!DOCTYPE svg PUBLIC "-//W3C//DTD SVG 1.1//EN" "http://www.w3.org/Graphics/SVG/1.1/DTD/svg11.dtd">
<svg width="100%" height="100%" viewBox="0 0 161 279" version="1.1" xmlns="http://www.w3.org/2000/svg" xmlns:xlink="http://www.w3.org/1999/xlink" xml:space="preserve" xmlns:serif="http://www.serif.com/" style="fill-rule:evenodd;clip-rule:evenodd;stroke-linecap:round;stroke-miterlimit:1;"
aria-labelledby="svg-title" aria-describedby="svg-desc">
    
    {%- if post.data.artwork -%}{% assign artwork = post.data.artwork %}{%- endif -%}
    {%- if post.data.label -%}{% assign label = post.data.label %}{%- endif -%}
    {%- if post.data.date -%}{% assign date = post.data.date %}{%- endif -%}
    
    <title id="svg-title">{{ label }}</title>
    <desc id="svg-desc">A Game Boy Game Pak showing the artwork for {{ label }}</desc>
    
    <g id="Cartridge">
        <path id="SideCut" d="M143.183,168L143.183,276L136.255,276L136.255,168L139.719,170L143.183,168Z" style="fill:#747373;stroke:#000;stroke-width:1px;"/>
        <path id="InnerGrooves" d="M139.719,134L1.155,54L3.464,52.667L1.155,49L3.464,47.667L1.155,43.333L3.464,42L1.155,38L3.464,36.667L1.155,32.667L3.464,31.333L139.719,110L156.039,100.577L158.194,102L156.039,105.911L158.194,107.333L156.039,111.244L158.194,112.667L156.039,116.911L158.194,118.333L156.039,121.911L158.194,123.333L139.719,134Z" style="fill:#303030;stroke:#000;stroke-width:1px;"/>
        <path id="Side" d="M139.719,110L139.719,100.667L158.194,90L158.194,99.333L146.672,105.986L146.672,108.652L158.194,102L158.194,104.667L146.672,111.319L146.672,113.986L158.194,107.333L158.194,110L146.672,116.652L146.672,119.319L158.194,112.667L158.194,115.667L146.672,122.319L146.672,124.986L158.194,118.333L158.194,120.667L146.672,127.319L146.672,129.986L158.194,123.333L158.194,267.333L143.208,275.986L143.208,167.986L139.719,170L139.719,134L143.183,132L143.183,129.333L139.719,131.333L139.719,129L143.183,127L143.183,124.333L139.719,126.333L139.719,123.333L143.183,121.333L143.183,118.667L139.719,120.667L139.719,118L143.183,116L143.183,113.333L139.719,115.333L139.719,112.667L143.183,110.667L143.183,108L139.719,110Z" style="fill:#5b5b5b;stroke:#000;stroke-width:1px;"/>
        <path id="Front" d="M1.155,30L1.155,14L125.862,86L125.862,92.667L139.719,100.667L139.719,110L122.52,100.071C122.972,101.172 123.374,102.295 123.72,103.43L139.719,112.667L139.719,115.333L124.526,106.562C124.732,107.544 124.892,108.528 125.005,109.505L139.719,118L139.719,120.667L125.19,112.279C125.193,112.428 125.194,112.577 125.194,112.726L125.194,114.296C125.194,114.514 125.191,114.729 125.186,114.943L139.719,123.333L139.719,126.333L124.932,117.796C124.799,118.633 124.618,119.419 124.391,120.15L139.719,129L139.719,131.333L123.642,122.052C123.285,122.781 122.872,123.434 122.408,124.006L139.719,134L139.719,170L136.255,168L136.255,276L4.619,200L4.619,92L1.155,90L1.155,54L18.466,63.994C18.002,62.887 17.588,61.757 17.231,60.615L1.155,51.333L1.155,49L16.483,57.85C16.256,56.856 16.074,55.861 15.941,54.87L1.155,46.333L1.155,43.333L15.688,51.724C15.682,51.504 15.68,51.286 15.68,51.067L15.68,49.498C15.68,49.349 15.681,49.201 15.683,49.055L1.155,40.667L1.155,38L15.869,46.495C15.981,45.648 16.142,44.85 16.347,44.105L1.155,35.333L1.155,32.667L17.153,41.904C17.5,41.169 17.901,40.509 18.353,39.929L1.155,30Z" style="fill:#8c8c8c;stroke:#000;stroke-width:1px;"/>
        <path id="Top-Right" d="M144.338,82L158.194,90L139.719,100.667L125.862,92.667L144.338,82Z" style="fill:#b2b2b2;stroke:#000;stroke-width:1px;"/>
        <path id="Top-Left" d="M19.63,3.333L144.338,75.333L125.862,86L1.155,14L19.63,3.333Z" style="fill:#b2b2b2;stroke:#000;stroke-width:1px;"/>
        <path id="Top-Side" d="M144.338,75.333L144.338,82L125.862,92.667L125.862,86L144.338,75.333Z" style="fill:#5b5b5b;stroke:#000;stroke-width:1px;"/>
        <path id="ThumbGrip-Outer" d="M123.593,112.586C123.593,122.41 117.611,126.932 110.243,122.679L30.63,76.714C23.263,72.46 17.281,61.031 17.281,51.207C17.281,41.383 23.263,36.861 30.63,41.115L110.243,87.079C117.611,91.333 123.593,102.762 123.593,112.586Z" style="fill:#5b5b5b;stroke:#000;stroke-width:1px;"/>
        <path id="ThumbGrip-Inner" d="M123.593,111.408C123.593,120.582 118.007,124.805 111.127,120.832L32.096,75.204C25.216,71.232 19.63,60.559 19.63,51.385C19.63,42.212 25.216,37.989 32.096,41.961L111.127,87.589C118.007,91.562 123.593,102.235 123.593,111.408Z" style="fill:#8c8c8c;stroke:#000;stroke-width:1px;"/>
        <path id="StickerGroove-Outer" d="M125.862,146.598L125.862,237.009C125.862,243.443 121.945,246.405 117.119,243.619L19.631,187.334C15.977,185.225 13.011,179.557 13.011,174.686L13.011,86.402C13.011,80.392 16.671,77.625 21.179,80.228L121.414,138.098C123.869,139.516 125.862,143.324 125.862,146.598Z" style="fill:#5b5b5b;stroke:#000;stroke-width:1px;"/>
        <path id="StickerGroove-Inner" d="M125.862,146.452L125.862,237.815C125.862,242.333 123.112,244.412 119.724,242.456L20.019,184.892C17.255,183.296 15.011,179.008 15.011,175.322L15.011,84.851C15.011,80.334 17.762,78.255 21.15,80.211L121.524,138.162C123.918,139.544 125.862,143.259 125.862,146.452Z" style="fill:#8c8c8c;stroke:#000;stroke-width:1px;"/>
        <path id="Groove" d="M144.521,274.512L144.521,97.965L130.565,89.907L130.565,83.161L6.358,11.45" style="fill:none;stroke:#000;stroke-width:1px;"/>
        <g id="Triangle">
            <path id="Triangle-Outer" d="M70.437,232.667L63.509,218L77.365,226L70.437,232.667Z" style="fill:#5b5b5b;stroke:#000;stroke-width:1px;"/>
            <path id="Triangle-Inner" d="M71.886,231.251L66.443,219.727L77.33,226.013L71.886,231.251Z" style="fill:#8c8c8c;stroke:#000;stroke-width:1px;"/>
        </g>
    </g>
    <g id="Sticker">
        <clipPath id="_clip1">
            <path id="Sticker-Foil" d="M123.794,146.88L123.794,236.896C123.794,239.79 122.032,241.122 119.861,239.869L21.012,182.798C18.842,181.545 17.08,178.178 17.08,175.285L17.08,85.269C17.08,82.375 18.842,81.043 21.012,82.296L119.861,139.367C122.032,140.62 123.794,143.987 123.794,146.88Z"/>
        </clipPath>
        <g clip-path="url(#_clip1)">
                <image x="17.08" y="81.825" width="159px" height="159px" href="/assets/images/site/holofoil.jpg"/>
        </g>
        <image href="{{ artwork }}" x="0" y="0" width="500px" height="500px" transform="matrix(0.174074,0.100502,-9.66304e-18,0.201003,26.9183,85.7064)"  preserveAspectRatio="xMidYMid slice"/>
        <path d="M26.918,85.706L113.955,135.957L113.955,236.459L26.918,186.208L26.918,85.706Z" style="fill:none;stroke:#000;stroke-width:1px;"/>
        <path id="Artwork-Border" d="M113.955,135.957L113.955,236.459L26.918,186.208L26.918,85.706L113.955,135.957Z" style="fill:none;stroke:#000;stroke-width:1px;"/>
        <path id="Shine-Lower" d="M123.794,146.88L21.012,182.798C18.842,181.545 17.08,178.178 17.08,175.285L17.08,85.269C17.08,82.375 18.842,81.043 21.012,82.296L119.861,139.367C122.032,140.62 123.794,143.987 123.794,146.88Z" style="fill:#fff;fill-opacity:0.2;"/>
        <path id="Shine-Upper" d="M114.861,136.48L17.08,171.285L17.08,85.269C17.08,82.375 18.842,81.043 21.012,82.296L114.861,136.48Z" style="fill:#fff;fill-opacity:0.2;"/>
        <path id="Sticker-Border" d="M123.794,146.88L123.794,236.896C123.794,239.79 122.032,241.122 119.861,239.869L21.012,182.798C18.842,181.545 17.08,178.178 17.08,175.285L17.08,85.269C17.08,82.375 18.842,81.043 21.012,82.296L119.861,139.367C122.032,140.62 123.794,143.987 123.794,146.88Z" style="fill:none;stroke:#000;stroke-width:1px;"/>
    </g>
</svg>
