{%- if post.data.artwork -%}{% assign artwork = post.data.artwork %}{%- endif -%}
{%- if post.data.label -%}{% assign label = post.data.label %}{%- endif -%}
{%- if post.data.date -%}{% assign date = post.data.date %}{%- endif -%}

<?xml version="1.0" encoding="UTF-8" standalone="no"?>
<!DOCTYPE svg PUBLIC "-//W3C//DTD SVG 1.1//EN" "http://www.w3.org/Graphics/SVG/1.1/DTD/svg11.dtd">
<svg width="100%" height="100%" viewBox="0 0 567 963" version="1.1" xmlns="http://www.w3.org/2000/svg" xmlns:xlink="http://www.w3.org/1999/xlink" xml:space="preserve" xmlns:serif="http://www.serif.com/" style="fill-rule:evenodd;clip-rule:evenodd;stroke-linejoin:round;stroke-miterlimit:2;">
    <g id="gamepak" transform="matrix(1.00177,0,0,0.951578,-680.967,-418.75)">
        <rect x="679.765" y="440.058" width="565.278" height="1011.94" style="fill:none;"/>
        <g id="cartridge" transform="matrix(0.998234,0,0,1.05089,-62.3213,391.614)">
            <g id="thumbIndent">
                <g transform="matrix(0.853629,0.426814,5.61405e-17,1.10909,744.163,80.4984)">
                    <path d="M495,100C495,72.404 472.596,50 445,50L134.118,50C106.522,50 84.118,72.404 84.118,100C84.118,127.596 91.895,150 119.491,150L445,150C472.596,150 495,127.596 495,100Z" style="fill:rgb(178,178,178);fill-rule:nonzero;"/>
                </g>
                <g transform="matrix(0.853629,0.426814,5.61405e-17,1.10909,744.163,80.4984)">
                    <path d="M119.491,140.323L119.491,119.316L134.118,50C106.522,50 75,49.863 75,100C75,150.137 91.895,140.323 119.491,140.323Z" style="fill:rgb(91,91,91);fill-rule:nonzero;"/>
                </g>
                <g transform="matrix(0.603916,0.301958,3.97176e-17,1.10909,765.169,91.0011)">
                    <path d="M95.55,150L125.171,153.226L154.792,141.099L101.474,120.857L77.668,130.645L95.55,150Z" style="fill:rgb(116,115,115);fill-rule:nonzero;"/>
                </g>
                <g transform="matrix(0.853629,0.426814,5.61405e-17,1.10909,744.163,73.4984)">
                    <path d="M96.397,72.44L134.118,56.423L96.397,53.086L84.118,72.441L96.397,72.44Z" style="fill:rgb(75,75,75);fill-rule:nonzero;"/>
                </g>
                <g transform="matrix(0.853629,0.426814,5.61405e-17,1.03754,744.163,84.0762)">
                    <path d="M495,100C495,72.404 472.596,50 445,50L134.118,50C106.522,50 84.118,72.404 84.118,100C84.118,127.596 106.522,150 134.118,150L469.412,150L493.647,150.002C493.647,150.002 495,118.12 495,100Z" style="fill:rgb(129,129,129);fill-rule:nonzero;"/>
                </g>
            </g>
            <g id="labelIndent">
                <g transform="matrix(0.885909,0.442954,5.26283e-17,1.03754,734.964,81.6944)">
                    <path d="M495,186.97L495,557.03C495,565.292 488.292,572 480.03,572L89.97,572C81.708,572 75,565.292 75,557.03L75,186.97C75,178.708 81.708,172 89.97,172L480.03,172C488.292,172 495,178.708 495,186.97Z" style="fill:rgb(129,129,129);"/>
                </g>
                <g>
                    <path d="M801.464,701.26L1173.43,887.243L1173.43,894.398L801.407,708.386L801.464,701.26Z" style="fill:rgb(178,178,178);"/>
                    <g transform="matrix(1,0,0,1.00866,0,-6.1487)">
                        <path d="M808.562,300.497L808.562,711.949L801.464,708.415L801.407,296.95L808.562,300.497Z" style="fill:rgb(91,91,91);"/>
                    </g>
                    <path d="M801.407,696.653L808.562,694.076C808.787,697.097 810.451,701.656 815.718,708.386L809.562,712.464L801.407,708.386L801.407,696.653Z" style="fill:rgb(116,115,115);"/>
                    <g transform="matrix(1,3.33067e-16,-2.22045e-16,1,0.245401,-400.581)">
                        <path d="M801.219,693.982L811.894,699.319C808.793,700.376 808.194,701.942 808.317,708.264L801.219,711.87L801.219,693.982Z" style="fill:rgb(75,75,75);"/>
                    </g>
                </g>
            </g>
            <g id="topRidges">
                <g>
                    <g transform="matrix(-1,0,0,-1,1974.95,590.351)">
                        <path d="M1227.21,395.364L1230.79,393.577L1177,366.682L1173.49,368.504L1227.21,395.364Z" style="fill:rgb(175,175,175);"/>
                    </g>
                    <g transform="matrix(-1,0,0,-1,1974.95,568.886)">
                        <path d="M1227.21,395.367L1230.79,393.577L1177,366.682L1173.49,368.504L1227.21,395.367Z" style="fill:rgb(175,175,175);"/>
                    </g>
                    <g transform="matrix(-1,0,0,-1,1974.95,547.418)">
                        <path d="M1227.21,395.366L1230.79,393.577L1169,362.682L1165.49,364.504L1227.21,395.366Z" style="fill:rgb(175,175,175);"/>
                    </g>
                    <g transform="matrix(-1,0,0,-1,1974.95,611.818)">
                        <path d="M1227.21,395.364L1230.79,393.577L1175,365.682L1171.49,367.504L1227.21,395.364Z" style="fill:rgb(175,175,175);"/>
                    </g>
                    <g transform="matrix(-1,0,0,-1,1974.9,633.256)">
                        <path d="M1227.15,395.338L1230.73,393.548L1166.33,361.349L1162.82,363.171L1227.15,395.338Z" style="fill:rgb(175,175,175);"/>
                    </g>
                </g>
                <g>
                    <path d="M1230.73,386.393L1171.67,356.86L1176,366.182L1230.73,393.548L1230.73,386.393Z" style="fill:rgb(123,123,123);"/>
                    <g transform="matrix(1,0,0,1,0,21.4663)">
                        <path d="M1230.73,386.393L1171.67,356.86L1176,366.182L1230.73,393.548L1230.73,386.393Z" style="fill:rgb(123,123,123);"/>
                    </g>
                    <g transform="matrix(1,0,0,1,-0.00120062,42.9326)">
                        <path d="M1230.73,386.393L1171.67,356.86L1176,366.182L1230.73,393.548L1230.73,386.393Z" style="fill:rgb(123,123,123);"/>
                    </g>
                    <g transform="matrix(1,1,-9.93014e-17,-1,0.0662202,-386.588)">
                        <path d="M1230.66,386.129L1173.42,357.508L1177,366.454L1230.67,393.287L1230.66,386.129Z" style="fill:rgb(123,123,123);"/>
                    </g>
                    <g transform="matrix(1,1,-9.93014e-17,-1,-2.23821e-14,-364.925)">
                        <path d="M1230.73,386.393L1169.67,355.862L1174,365.184L1230.73,393.548L1230.73,386.393Z" style="fill:rgb(123,123,123);"/>
                    </g>
                </g>
                <g>
                    <g transform="matrix(-1,0,0,-1,1978.47,624.312)">
                        <path d="M1230.73,386.393L1171.67,356.86L1176,366.182L1230.73,393.548L1230.73,386.393Z" style="fill:rgb(123,123,123);"/>
                    </g>
                    <g transform="matrix(-1,0,0,-1,1978.47,602.846)">
                        <path d="M1230.73,386.393L1171.67,356.86L1176,366.182L1230.73,393.548L1230.73,386.393Z" style="fill:rgb(123,123,123);"/>
                    </g>
                    <g transform="matrix(-1,0,0,-1,1978.48,581.379)">
                        <path d="M1230.73,386.393L1171.67,356.86L1176,366.182L1230.73,393.548L1230.73,386.393Z" style="fill:rgb(123,123,123);"/>
                    </g>
                    <g transform="matrix(-1,-1,9.93014e-17,1,1978.41,1010.9)">
                        <path d="M1230.66,386.129L1173.42,357.508L1177,366.454L1230.67,393.287L1230.66,386.129Z" style="fill:rgb(123,123,123);"/>
                    </g>
                    <g transform="matrix(-1,-1,9.93014e-17,1,1978.47,989.237)">
                        <path d="M1230.73,386.393L1169.67,355.862L1174,365.184L1230.73,393.548L1230.73,386.393Z" style="fill:rgb(123,123,123);"/>
                    </g>
                </g>
                <g>
                    <g transform="matrix(0.894427,-0.447214,0,1.74303,4.6839e-11,1295.5)">
                        <path d="M1308,-205.469L1315.93,-195.245L1312,-195.207L1304,-205.469L1308,-205.469Z" style="fill:rgb(75,75,75);"/>
                    </g>
                    <g transform="matrix(0.894427,-0.447214,0,1.74303,2.48847,1361.05)">
                        <path d="M1318.03,-198.218L1316.1,-195.104L1312,-195.207L1315.22,-199.646L1318.03,-198.218Z" style="fill:rgb(75,75,75);"/>
                    </g>
                    <g transform="matrix(0.894427,-0.447214,0,1.74303,-7.68579,1378.31)">
                        <path d="M1321.16,-197.112L1316.32,-195.493L1311.72,-195.799L1319.69,-197.867L1321.16,-197.112Z" style="fill:rgb(75,75,75);"/>
                    </g>
                    <g transform="matrix(0.894427,-0.447214,0,1.74303,7.27733,1341.95)">
                        <rect x="1311.86" y="-201.364" width="4" height="6.158" style="fill:rgb(75,75,75);"/>
                    </g>
                    <g transform="matrix(0.894427,-0.447214,0,1.74303,5.48847,1320.2)">
                        <path d="M1313.56,-202.741L1316,-195.487L1312.22,-195.374L1309.86,-202.741L1313.56,-202.741Z" style="fill:rgb(75,75,75);"/>
                    </g>
                </g>
                <g>
                    <g transform="matrix(1,0,0,1,0.0662202,85.8981)">
                        <path d="M1230.79,397.153L1230.79,393.577L1169,362.682L1165.49,364.504L1230.79,397.153Z" style="fill:rgb(178,178,178);"/>
                    </g>
                    <g transform="matrix(1,0,0,1,-0.0576486,64.3712)">
                        <path d="M1230.79,397.153L1230.79,393.577L1177,366.682L1173.49,368.504L1230.79,397.153Z" style="fill:rgb(178,178,178);"/>
                    </g>
                    <g transform="matrix(1,0,0,1,-0.0576486,42.9044)">
                        <path d="M1230.79,397.153L1230.79,393.577L1177,366.682L1173.49,368.504L1230.79,397.153Z" style="fill:rgb(178,178,178);"/>
                    </g>
                    <g transform="matrix(1,0,0,1,-0.0564479,21.4381)">
                        <path d="M1230.79,397.153L1230.79,393.577L1177,366.682L1173.49,368.504L1230.79,397.153Z" style="fill:rgb(178,178,178);"/>
                    </g>
                    <path d="M1230.73,397.126L1230.73,393.548L1177,366.682L1173.49,368.504L1230.73,397.126Z" style="fill:rgb(178,178,178);"/>
                </g>
                <g>
                    <g transform="matrix(0.0511033,-0.0255516,-7.13013e-17,0.607932,1192.7,395.572)">
                        <path d="M2214.36,169.189L2284.37,175.074L744.163,175.074L744.163,169.189L2214.36,169.189Z" style="fill:rgb(140,140,140);"/>
                    </g>
                    <g transform="matrix(0.0511033,-0.0255516,-7.13013e-17,0.607932,1192.7,374.106)">
                        <path d="M2214.36,169.189L2284.37,175.074L744.163,175.074L744.163,169.189L2214.36,169.189Z" style="fill:rgb(140,140,140);"/>
                    </g>
                    <g transform="matrix(0.0511033,-0.0255516,-7.13013e-17,0.607932,1192.7,352.64)">
                        <path d="M2214.36,169.189L2284.37,175.074L744.163,175.074L744.163,169.189L2214.36,169.189Z" style="fill:rgb(140,140,140);"/>
                    </g>
                    <g transform="matrix(0.0511033,-0.0255516,-7.13013e-17,0.607932,1192.7,331.173)">
                        <path d="M2214.36,169.189L2284.37,175.074L744.727,175.098L744.163,169.189L2214.36,169.189Z" style="fill:rgb(140,140,140);"/>
                    </g>
                    <g transform="matrix(0.0511033,-0.0255516,-7.13013e-17,0.607932,1192.7,309.707)">
                        <path d="M2214.36,169.189L2284.37,175.074L744.163,175.074L744.163,169.189L2214.36,169.189Z" style="fill:rgb(140,140,140);"/>
                    </g>
                </g>
                <g>
                    <g transform="matrix(0.0511033,-0.0255516,-7.13013e-17,0.607932,1192.7,395.572)">
                        <path d="M2214.36,157.419L2214.36,169.189L744.163,169.189L744.163,157.419L2214.36,157.419Z" style="fill:rgb(75,75,75);"/>
                    </g>
                    <g transform="matrix(0.0511033,-0.0255516,-7.13013e-17,0.607932,1192.7,374.106)">
                        <path d="M2214.36,157.419L2214.36,169.189L744.163,169.189L744.163,157.419L2214.36,157.419Z" style="fill:rgb(75,75,75);"/>
                    </g>
                    <g transform="matrix(0.0511033,-0.0255516,-7.13013e-17,0.607932,1192.7,352.64)">
                        <path d="M2214.36,157.419L2214.36,169.189L744.163,169.189L744.163,157.419L2214.36,157.419Z" style="fill:rgb(75,75,75);"/>
                    </g>
                    <g transform="matrix(0.0511033,-0.0255516,-7.13013e-17,0.607932,1192.7,331.173)">
                        <path d="M2214.36,157.419L2214.36,169.189L744.163,169.189L744.163,157.419L2214.36,157.419Z" style="fill:rgb(75,75,75);"/>
                    </g>
                    <g transform="matrix(0.0511033,-0.0255516,-7.13013e-17,0.607932,1192.7,309.707)">
                        <path d="M2214.36,157.419L2214.36,169.189L744.163,169.189L744.163,157.419L2214.36,157.419Z" style="fill:rgb(75,75,75);"/>
                    </g>
                </g>
                <g>
                    <g transform="matrix(1,0,0,1,-0.527586,86.7957)">
                        <path d="M1256.31,372.819L1252.73,374.606L1252.73,381.762L1256.31,383.55L1256.31,372.819Z" style="fill:rgb(129,129,129);"/>
                    </g>
                    <g transform="matrix(1,0,0,1,-0.527586,65.3295)">
                        <path d="M1256.31,372.819L1252.73,374.606L1252.73,381.762L1256.31,383.55L1256.31,372.819Z" style="fill:rgb(129,129,129);"/>
                    </g>
                    <g transform="matrix(1,0,0,1,-0.528787,43.9858)">
                        <path d="M1256.31,372.819L1252.73,374.606L1252.73,381.762L1256.31,383.55L1256.31,372.819Z" style="fill:rgb(129,129,129);"/>
                    </g>
                    <g transform="matrix(1,0,0,1,-0.52875,22.5195)">
                        <path d="M1256.31,372.819L1252.73,374.606L1252.73,381.762L1256.31,383.55L1256.31,372.819Z" style="fill:rgb(129,129,129);"/>
                    </g>
                    <g transform="matrix(1,0,0,1,-0.528787,1.05321)">
                        <path d="M1256.31,372.819L1252.73,374.606L1252.73,381.762L1256.31,383.55L1256.31,372.819Z" style="fill:rgb(129,129,129);"/>
                    </g>
                </g>
            </g>
            <g id="caseFront">
                <g id="frontAngle" transform="matrix(1,0,0,1.01,0,-6.47565)">
                    <rect x="1209.27" y="647.565" width="42.933" height="357.771" style="fill:rgb(116,115,115);"/>
                </g>
                <g id="Front" transform="matrix(1,0.5,4.91414e-17,0.989744,0.00114185,-371.2)">
                    <path d="M1180.64,118.399L1230.73,118.399L1230.73,143.702L1166.33,143.702L1173.49,154.546L1230.73,154.545L1230.73,165.391L1177.07,165.391L1179.17,176.235L1230.73,176.234L1230.76,187.08L1180.64,187.08L1180.64,197.924L1230.73,197.925L1230.73,208.768L1178.85,208.77L1175.98,219.614L1230.73,219.614L1230.73,230.457L1172.68,230.457L1165.55,241.301L1230.73,241.301L1230.73,418.426L1209.26,418.426L1209.26,783.519L765.629,783.519L765.629,418.424L744.162,418.424L744.163,241.301L808.561,241.301L802.163,230.457L744.162,230.457L744.163,219.613L799.163,219.613L795.945,208.768L744.163,208.768L744.163,197.924L794.25,197.924L794.25,187.08L744.162,187.08L744.163,176.235L795.163,176.235L797.828,165.391L744.165,165.39L744.163,154.546L801.406,154.546L807.163,143.702L744.163,143.702L744.163,85.865L1180.64,85.865L1180.64,118.399ZM1173.49,282.297C1173.49,273.636 1167.55,266.604 1160.23,266.604L814.668,266.604C807.348,266.604 801.406,273.636 801.406,282.297L801.406,670.226C801.406,678.887 807.348,685.919 814.668,685.919L1160.23,685.919C1167.55,685.919 1173.49,678.887 1173.49,670.226L1173.49,282.297ZM1166.71,192.501C1166.71,161.577 1147.58,136.472 1124.03,136.472L850.866,136.472C827.309,136.472 808.184,161.577 808.184,192.501C808.184,223.425 827.309,248.53 850.866,248.53L1124.03,248.53C1147.58,248.53 1166.71,223.425 1166.71,192.501Z" style="fill:rgb(140,140,140);"/>
                </g>
            </g>
            <g id="caseTopSide">
                <g transform="matrix(0.6667,-0.33335,-1.66489e-17,1.00606,410.204,408.074)">
                    <path d="M1262.93,656.51L1230.73,656.51L1230.73,482.258L1268.29,482.258L1268.29,471.589L1230.73,471.589L1230.73,460.921L1268.29,460.921L1268.29,450.251L1230.73,450.254L1230.73,439.586L1268.29,439.584L1268.14,428.916L1230.73,428.917L1230.73,418.268L1268.29,418.247L1268.29,407.58L1230.73,407.58L1230.73,396.911L1268.29,396.91L1268.14,386.242L1230.73,386.243L1230.73,361.349L1348.79,361.349L1348.79,386.242L1284.39,386.242L1284.39,396.91L1348.79,396.911L1348.79,407.579L1284.39,407.579L1284.39,418.248L1348.79,418.247L1348.79,428.916L1284.39,428.915L1284.39,439.584L1348.79,439.585L1348.79,450.252L1284.39,450.252L1284.39,460.921L1348.79,460.921L1348.79,471.589L1284.39,471.589L1284.39,482.258L1348.79,482.258L1348.78,1015.68L1262.93,1015.68L1262.93,656.51Z" style="fill:rgb(91,91,91);"/>
                </g>
                <g transform="matrix(1.57143,-0.785715,2,0.999999,-1347.26,927.65)">
                    <rect x="1180.64" y="336.305" width="50.088" height="25.044" style="fill:rgb(178,178,178);"/>
                </g>
                <g transform="matrix(1.57141,-0.785703,17.4285,8.71426,-6972.4,-1917.14)">
                    <rect x="1180.64" y="336.305" width="50.088" height="25.044" style="fill:rgb(178,178,178);"/>
                </g>
                <g transform="matrix(1.57141,-0.785703,-7.34967e-17,1.28571,-674.628,799.35)">
                    <rect x="1180.64" y="336.305" width="50.088" height="25.044" style="fill:rgb(91,91,91);"/>
                </g>
            </g>
            <g id="topSideRidge">
                <g transform="matrix(0.00363991,-0.00181995,-5.66712e-16,46.0001,1254.87,-6892.01)">
                    <rect x="744.163" y="157.419" width="486.568" height="14.311" style="fill:rgb(75,75,75);"/>
                </g>
                <g transform="matrix(0.0036753,-0.00183765,-1.24253e-15,2.25008,1204.74,-62.1507)">
                    <rect x="744.163" y="157.419" width="486.568" height="14.311" style="fill:rgb(75,75,75);"/>
                </g>
                <g transform="matrix(0.00371069,-0.00185534,3.5,1.75,653.747,48.7852)">
                    <rect x="744.163" y="157.419" width="486.568" height="14.311" style="fill:rgb(123,123,123);"/>
                </g>
                <g transform="matrix(0.00367764,-0.00183882,30.5001,15.2501,-4033.05,-2326.84)">
                    <rect x="744.163" y="157.419" width="486.568" height="14.311" style="fill:rgb(123,123,123);"/>
                </g>
            </g>
            <g id="triangle">
                <g transform="matrix(0.941502,0.470751,-5.55112e-17,-1.11803,-49.3347,687.297)">
                    <path d="M1086,300.8L1124,336L1048,336L1086,300.8Z" style="fill:rgb(129,129,129);"/>
                </g>
                <g transform="matrix(1,0,0,1,3.57771,1.78885)">
                    <path d="M940.704,806.657L933.782,803.196L969.559,860.439L973.157,858.279L940.704,806.657Z" style="fill:rgb(90,90,90);"/>
                </g>
            </g>
        </g>
        <g id="label" transform="matrix(0.998234,0,0,1.05089,-62.2391,394.745)">
            <g id="CoverArt" transform="matrix(0.665146,0.332574,-1.10695e-16,0.664775,792.871,293.292)">
                <clipPath id="_clip1">
                    <path d="M538.686,0L538.686,592L54.591,592.002L54.591,-0L538.686,0Z"/>
                </clipPath>
                <g clip-path="url(#_clip1)">
                    <g transform="matrix(1.184,-2.10222e-06,2.55963e-16,1.184,-0.0010699,6.04884e-06)">
                        <use xlink:href="#boxArt-{{ post.data.title | slugify }}" x="0" y="0" width="500px" height="500px"/>
                    </g>
                </g>
            </g>
            <g transform="matrix(0.894427,0.447214,8.72318e-17,1.75691,63.5517,-644.823)">
                <clipPath id="_clip3">
                    <path d="M880,550.4L853.126,550.4C845.881,550.4 840,546.657 840,542.047L840,334.753C840,330.143 845.881,326.4 853.126,326.4L880,326.4L880,550.4ZM1192,326.4L1218.87,326.4C1226.12,326.4 1232,330.143 1232,334.753L1232,542.047C1232,546.657 1226.12,550.4 1218.87,550.4L1192,550.4L1192,326.4Z"/>
                </clipPath>
                <g clip-path="url(#_clip3)">
                    <g transform="matrix(1.11803,-0.28459,-5.55112e-17,0.569181,760,198.109)">
                        <use xlink:href="#sideLabels" x="71.554" y="265.909" width="351px" height="560px"/>
                    </g>
                </g>
            </g>
            <g transform="matrix(9.91964e-33,-0.857997,0.857997,0.428998,313.232,373.157)">
                <g transform="matrix(34.9652,0,0,34.9652,218.064,615.366)">
                </g>
                <text x="130px" y="610px" style="font-family:'JP', ui-monospace, monospace;font-weight:700;font-size:34.965px;text-transform: uppercase;text-align: center;" text-anchor="middle" dominant-baseline="middle">{{ label | default: title }}</text>
            </g>
            <g transform="matrix(0,0.951773,-0.951773,-0.475887,1725.88,816.118)">
                <g transform="matrix(31.5201,0,0,31.5201,226.947,615.366)">
                </g>
                <text x="140px" y="610px" style="font-family:'JP', ui-monospace, monospace;font-weight:700;font-size:31.52px;text-transform: uppercase;text-align: center;" text-anchor="middle" dominant-baseline="middle">{{ date | date: "%d %b %Y" }}</tspan></text>
            </g>        
            <g transform="matrix(1,0,0,1,0.917633,0.458816)">
            <g id="glare10" transform="matrix(0.834423,0.417211,4.95697e-17,0.977237,748.716,103.02)">
                <path d="M499.288,186.97L499.288,208.755L122.915,574.859L94.068,574.859C87.202,575.779 78.961,568.677 79.106,560.215L482.137,172.144C492.347,171.339 498.796,176.803 499.288,186.97Z" style="fill:white;fill-opacity:0.15;"/>
            </g>
            <g id="glare20" transform="matrix(0.834423,0.417211,4.95697e-17,0.977237,748.716,103.02)">
                <path d="M482.137,172.144L79.106,560.215L79.098,186.97C79.098,178.708 85.806,172 94.068,172L482.137,172.144Z" style="fill:white;fill-opacity:0.3;"/>
            </g>
        </g>
    </g>
    <defs>
        <image id="boxArt-{{ post.data.title | slugify }}" width="500px" height="500px" xlink:href="{{ artwork }}"/>
        <image id="sideLabels" width="600px" height="600px" xlink:href="/assets/images/site/holofoil.jpg"/>
    </defs>
</svg>