{%- if post.data.artwork -%}{% assign artwork = post.data.artwork %}{%- endif -%}
{%- if post.data.title -%}{% assign title = post.data.title %}{%- endif -%}
{%- if post.data.label -%}{% assign label = post.data.label %}{%- endif -%}
{%- if post.data.date -%}{% assign date = post.data.date %}{%- endif -%}

<?xml version="1.0" encoding="UTF-8" standalone="no"?>
<!DOCTYPE svg PUBLIC "-//W3C//DTD SVG 1.1//EN" "http://www.w3.org/Graphics/SVG/1.1/DTD/svg11.dtd">
<svg width="100%" height="100%" viewBox="0 0 330 518" version="1.1" xmlns="http://www.w3.org/2000/svg" xmlns:xlink="http://www.w3.org/1999/xlink" xml:space="preserve" xmlns:serif="http://www.serif.com/" style="fill-rule:evenodd;clip-rule:evenodd;stroke-linejoin:round;stroke-miterlimit:2;">
    <g transform="matrix(2,0,0,2,0,-1.13687e-13)">
        <g id="gamepak" transform="matrix(0.119913,0,0,0.229989,-102.885,-288.646)">
            <rect x="858" y="1255.04" width="1376" height="1125.96" style="fill:none;"/>
            <g id="cartridge" transform="matrix(1.44848,0,0,1.26645,-659.666,-506.382)">
                <g transform="matrix(5.94614,0,0,16.8783,-4243.79,-22479.8)">
                    <rect x="1026.16" y="1445.34" width="7.365" height="21.552" style="fill:rgb(116,115,115);"/>
                </g>
                <g transform="matrix(20.5658,6.13196,1.48539e-15,10.3241,-17246.4,-17426.1)">
                    <rect x="889.913" y="1305.68" width="40.087" height="8.323" style="fill:rgb(123,123,123);"/>
                </g>
                <g transform="matrix(20.5658,6.13196,1.48539e-15,10.3241,-17246.4,-17464.2)">
                    <rect x="889.913" y="1305.68" width="40.087" height="8.323" style="fill:rgb(123,123,123);"/>
                </g>
                <g transform="matrix(20.5658,6.13196,1.48539e-15,26.8973,-17246.4,-39124.1)">
                    <rect x="889.913" y="1305.68" width="40.087" height="8.323" style="fill:rgb(123,123,123);"/>
                </g>
                <g transform="matrix(5.14951,-1.53539,541.415,161.43,-49059.7,-13628.6)">
                    <path d="M-78.307,93.308L-78.307,93.516L-79.785,93.53L-79.785,93.308L-78.307,93.308ZM-65.858,93.19L-65.858,93.398L-67.336,93.412L-67.336,93.19L-65.858,93.19ZM-59.633,93.13L-59.633,93.338L-61.111,93.352L-61.111,93.13L-59.633,93.13ZM-53.409,93.071L-53.409,93.279L-54.886,93.293L-54.886,93.071L-53.409,93.071ZM-72.082,93.249L-72.082,93.457L-73.56,93.471L-73.56,93.249L-72.082,93.249Z" style="fill:rgb(178,178,178);"/>
                </g>
                <g transform="matrix(5.14951,-1.53539,541.415,161.43,-48347.9,-13416.3)">
                    <path d="M-78.307,93.334L-78.307,93.516L-79.785,93.53L-79.785,93.334L-78.307,93.334ZM-65.858,93.265L-65.858,93.398L-67.336,93.412L-67.336,93.265L-65.858,93.265ZM-59.633,93.202L-59.633,93.338L-61.111,93.352L-61.111,93.202L-59.633,93.202ZM-53.409,93.121L-53.409,93.279L-54.886,93.293L-54.886,93.121L-53.409,93.121ZM-72.083,93.312L-72.082,93.457L-73.56,93.471L-73.56,93.312L-72.083,93.312Z" style="fill:rgb(178,178,178);"/>
                </g>
                <g transform="matrix(-2.65105,0.790446,-1.24522e-15,26.9498,4345.27,-34225.4)">
                    <rect x="889.913" y="1305.68" width="40.087" height="8.323" style="fill:rgb(75,75,75);"/>
                </g>
                <g transform="matrix(1.63548,0.48764,-4.1441e-18,1.51766,-991.901,-1872.66)">
                    <path d="M1247.13,1935.9L1247.13,1858.87L1312.11,1858.87C1309.31,1857 1306.8,1854.92 1304.64,1852.66L1247.13,1852.66L1247.13,1846.28L1299.73,1846.28C1298.55,1844.29 1297.61,1842.21 1296.93,1840.07L1247.13,1840.07L1247.13,1833.68L1295.75,1833.68C1295.71,1833.16 1295.7,1832.63 1295.7,1832.11L1295.7,1828.54C1295.7,1828.18 1295.71,1827.83 1295.72,1827.47L1247.13,1827.47L1247.13,1821.09L1296.78,1821.09C1297.4,1818.95 1298.3,1816.87 1299.43,1814.88L1247.13,1814.88L1247.13,1808.49L1304.15,1808.49C1306.23,1806.25 1308.65,1804.16 1311.36,1802.29L1247.13,1802.29L1247.13,1772L1706.78,1772L1706.78,1788.38L1755.87,1788.38L1755.87,1802.29L1691.64,1802.29C1694.35,1804.16 1696.77,1806.25 1698.85,1808.49L1755.87,1808.49L1755.87,1814.88L1703.57,1814.88C1704.7,1816.87 1705.6,1818.95 1706.22,1821.09L1755.87,1821.09L1755.87,1827.47L1707.28,1827.47C1707.29,1827.83 1707.3,1828.18 1707.3,1828.54L1707.3,1832.11C1707.3,1832.63 1707.29,1833.16 1707.25,1833.68L1755.87,1833.68L1755.87,1840.07L1706.07,1840.07C1705.39,1842.21 1704.45,1844.29 1703.27,1846.28L1755.87,1846.28L1755.87,1852.66L1698.36,1852.66C1696.2,1854.92 1693.69,1857 1690.89,1858.87L1755.87,1858.87L1755.87,1935.9L1742.48,1935.9L1742.48,2175.58L1260.52,2175.58L1260.52,1935.9L1247.13,1935.9Z" style="fill:rgb(140,140,140);"/>
                </g>
                <g transform="matrix(-0.223803,0.0667297,-4.86006e-18,0.0583714,2192.48,1428.32)">
                    <rect x="1247.13" y="1772" width="508.737" height="426" style="fill:rgb(91,91,91);"/>
                </g>
                <g transform="matrix(-5.14951,-1.53539,-541.415,161.43,52107.5,-13416.3)">
                    <path d="M-78.307,93.32L-78.307,93.516L-79.785,93.53L-79.785,93.32L-78.307,93.32ZM-65.858,93.201L-65.858,93.398L-67.336,93.412L-67.336,93.201L-65.858,93.201ZM-59.633,93.142L-59.633,93.338L-61.111,93.352L-61.111,93.142L-59.633,93.142ZM-53.409,93.083L-53.409,93.279L-54.886,93.293L-54.886,93.083L-53.409,93.083ZM-72.083,93.261L-72.082,93.457L-73.56,93.471L-73.56,93.261L-72.083,93.261Z" style="fill:rgb(178,178,178);"/>
                </g>
                <g transform="matrix(-1.16378,0.346994,3.88805e-16,1.45928,3923.23,-1497.4)">
                    <path d="M1737.05,1786.46L1755.87,1786.46L1755.87,1772L1658.03,1772L1658.03,1786.46L1718.24,1786.46L1718.24,1792.91L1658.03,1792.91L1658.03,1799.56L1718.24,1799.56L1718.24,1806.01L1658.03,1806.01L1658.03,1812.65L1718.24,1812.65L1718.24,1819.11L1658.03,1819.11L1658.03,1825.75L1718.24,1825.75L1718.24,1832.21L1658.03,1832.21L1658.03,1838.85L1718.24,1838.85L1718.24,1845.31L1658.03,1845.31L1658.03,2174.68L1737.05,2174.68L1737.05,1925.41L1755.87,1925.41L1755.87,1845.31L1737.05,1845.31L1737.05,1838.85L1755.87,1838.85L1755.87,1832.21L1737.05,1832.21L1737.05,1825.75L1755.87,1825.75L1755.87,1819.11L1737.05,1819.11L1737.05,1812.65L1755.87,1812.65L1755.87,1806.01L1737.05,1806.01L1737.05,1799.56L1755.87,1799.56L1755.87,1792.91L1737.05,1792.91L1737.05,1786.46Z" style="fill:rgb(91,91,91);"/>
                </g>
                <g transform="matrix(1.40397,0,0,0.837223,135.5,1399.4)">
                    <g transform="matrix(1,0,0,1,-0.528787,1.05321)">
                        <path d="M1258.52,372.683L1253.1,375.392L1253.1,381.228L1258.52,383.938L1258.52,372.683Z" style="fill:rgb(129,129,129);"/>
                    </g>
                    <g transform="matrix(1,0,0,1,-0.528787,23.9014)">
                        <path d="M1258.52,372.683L1253.1,375.392L1253.1,381.228L1258.52,383.938L1258.52,372.683Z" style="fill:rgb(129,129,129);"/>
                    </g>
                    <g transform="matrix(1,0,0,1,-0.528787,69.544)">
                        <path d="M1258.52,372.683L1253.1,375.392L1253.1,381.228L1258.52,383.938L1258.52,372.683Z" style="fill:rgb(129,129,129);"/>
                    </g>
                    <g transform="matrix(1,0,0,1,-0.528787,92.3754)">
                        <path d="M1258.52,372.683L1253.1,375.392L1253.1,381.228L1258.52,383.938L1258.52,372.683Z" style="fill:rgb(129,129,129);"/>
                    </g>
                    <g transform="matrix(1,0,0,1,-0.528787,46.7121)">
                        <path d="M1258.52,372.683L1253.1,375.392L1253.1,381.228L1258.52,383.938L1258.52,372.683Z" style="fill:rgb(129,129,129);"/>
                    </g>
                </g>
                <g transform="matrix(-5.07991,-1.51464,8.75821,-2.61137,-4635.72,6321.29)">
                    <rect x="909" y="1262" width="147.984" height="13" style="fill:rgb(178,178,178);"/>
                </g>
                <g transform="matrix(-0.542515,-0.161758,8.75821,-2.61137,-8679.93,5140.32)">
                    <rect x="909" y="1262" width="147.984" height="13" style="fill:rgb(178,178,178);"/>
                </g>
            </g>
            <g id="thumb-grip" transform="matrix(1.44848,0,0,1.26645,-659.666,-506.382)">
                <g id="thumb-grip1" serif:id="thumb-grip" transform="matrix(1.19603,0.356612,4.4749e-17,0.264392,-332.065,576.988)">
                    <path d="M1770,1985C1770,2102.56 1741.7,2198 1706.83,2198L1296.17,2198C1261.3,2198 1233,2102.56 1233,1985C1233,1867.44 1261.3,1772 1296.17,1772L1706.83,1772C1741.7,1772 1770,1867.44 1770,1985Z" style="fill:rgb(91,91,91);"/>
                </g>
                <g id="thumb-grip2" serif:id="thumb-grip" transform="matrix(1.19603,0.356612,4.4749e-17,0.264392,-332.065,576.988)">
                    <path d="M1770,1985C1770,2102.56 1741.7,2198 1706.83,2198L1290.94,2197.28L1297.39,2179.9L1305.79,1772L1706.83,1772C1741.7,1772 1770,1867.44 1770,1985Z" style="fill:rgb(178,178,178);"/>
                </g>
                <g id="thumb-grip3" serif:id="thumb-grip" transform="matrix(1.17468,0.350246,4.34559e-17,0.253735,-294.273,607.139)">
                    <path d="M1770,1985C1770,2102.56 1742.34,2198 1708.28,2198L1294.72,2198C1260.66,2198 1233,2102.56 1233,1985C1233,1867.44 1260.66,1772 1294.72,1772L1708.28,1772C1742.34,1772 1770,1867.44 1770,1985Z" style="fill:rgb(129,129,129);"/>
                </g>
                <g id="thumb-grip--text--shadow" transform="matrix(2.19812,0.655397,2.40166e-16,1.41898,-741.094,-810.92)">
                    <path d="M922.596,1267.65L921.522,1264.43L923.172,1262.9L933.545,1262.9L931.663,1278.15C931.385,1278.24 930.417,1279.59 930.013,1279.67C929.339,1279.81 929.115,1278.66 928.09,1278.77C926.45,1278.94 924.926,1279.03 923.518,1279.03C920.905,1279.03 918.613,1278.64 916.64,1277.87C914.668,1277.09 913.125,1276.04 912.011,1274.71C910.897,1273.38 910.071,1271.95 909.533,1270.4C908.995,1268.86 908.726,1267.24 908.726,1265.52C908.726,1263.94 908.931,1262.38 909.341,1260.83C909.75,1259.29 910.442,1257.76 911.415,1256.23C912.389,1254.7 913.58,1253.35 914.988,1252.19C916.397,1251.02 918.19,1250.08 920.367,1249.37C922.544,1248.66 924.952,1248.31 927.59,1248.31C930.382,1248.31 932.918,1248.68 935.197,1249.43L934.544,1254.98L932.895,1256.51C932.895,1256.51 929.162,1253.86 927.59,1253.86C923.723,1253.86 920.572,1254.91 918.139,1257.03C915.706,1259.15 914.489,1261.91 914.489,1265.32C914.489,1267.97 915.264,1270 916.813,1271.39C918.363,1272.79 920.367,1273.48 922.826,1273.48C924.107,1273.48 925.413,1273.31 926.745,1272.96L927.398,1267.65L922.596,1267.65Z" style="fill:rgb(178,178,178);fill-rule:nonzero;"/>
                    <path d="M926.745,1272.96L931.896,1264.43L933.545,1262.9L931.663,1278.15C931.385,1278.24 930.417,1279.59 930.013,1279.67C929.339,1279.81 929.115,1278.66 928.09,1278.77C926.45,1278.94 924.926,1279.03 923.518,1279.03C920.905,1279.03 918.613,1278.64 916.64,1277.87C914.668,1277.09 913.125,1276.04 912.011,1274.71C910.897,1273.38 910.071,1271.95 909.533,1270.4C908.995,1268.86 908.726,1267.24 908.726,1265.52C908.726,1263.94 909.341,1260.83 909.341,1260.83C913.237,1257.69 914.448,1255.13 933.548,1250.96L935.197,1249.43L934.544,1254.98L932.895,1256.51C932.895,1256.51 929.162,1253.86 927.59,1253.86C923.723,1253.86 920.572,1254.91 918.139,1257.03C915.706,1259.15 914.489,1261.91 914.489,1265.32C914.489,1267.97 915.264,1270 916.813,1271.39C918.363,1272.79 920.367,1273.48 922.826,1273.48C924.107,1273.48 925.413,1273.31 926.745,1272.96Z" style="fill:rgb(91,91,91);fill-rule:nonzero;"/>
                    <path d="M940.499,1278.67L938.85,1280.19L945.535,1250.31L947.185,1248.79L953.101,1248.79L957.712,1278.67L956.062,1280.19L951.18,1272.24L943.035,1272.24L940.499,1278.67ZM944.649,1268.78L950.719,1268.78L949.336,1256.63L949.259,1256.63L944.649,1268.78Z" style="fill:rgb(178,178,178);fill-rule:nonzero;"/>
                    <g transform="matrix(1,-1.66533e-16,0,1,-112.571,4.54747e-13)">
                        <path d="M1053.07,1278.67L1051.42,1280.19L1046.27,1280.19L1064.02,1250.31L1065.67,1248.79L1070.28,1278.67L1068.63,1280.19L1064.56,1280.19L1063.75,1272.24L1055.61,1272.24L1053.07,1278.67ZM1057.22,1268.78L1055.57,1270.3L1061.64,1270.3L1061.91,1256.63L1061.83,1256.63L1057.22,1268.78Z" style="fill:rgb(91,91,91);fill-rule:nonzero;"/>
                    </g>
                    <path d="M973.349,1248.31L977.575,1267.41L984.762,1249.83L986.412,1248.31L992.328,1248.31L993.558,1278.67L991.908,1280.19L987.372,1258.12L987.295,1258.12L977.575,1278.67L975.926,1280.19L970.314,1257.56L970.237,1257.56L964.32,1278.67L962.671,1280.19L965.591,1249.83L967.24,1248.31L973.349,1248.31Z" style="fill:rgb(178,178,178);fill-rule:nonzero;"/>
                    <path d="M973.349,1248.31L977.575,1267.41L984.762,1249.83L990.679,1249.83L992.328,1248.31L993.558,1278.67L991.908,1280.19L987.372,1258.12L987.295,1258.12L977.575,1278.67L975.926,1280.19L970.314,1257.56L970.237,1257.56L964.32,1278.67L962.671,1280.19L965.591,1249.83L971.699,1249.83L973.349,1248.31Z" style="fill:rgb(91,91,91);fill-rule:nonzero;"/>
                    <path d="M1016.5,1278.67L1014.85,1280.19L997.323,1278.67L999.362,1250.07L1001.01,1248.55L1017.38,1248.55L1016.76,1253.57L1015.11,1255.1L1005.97,1253.57L1005.08,1260.69L1014.57,1260.69L1013.96,1265.72L1012.31,1267.24L1004.47,1265.72L1003.51,1273.64L1017.11,1273.64L1016.5,1278.67Z" style="fill:rgb(178,178,178);fill-rule:nonzero;"/>
                    <path d="M1016.5,1278.67L1014.85,1280.19L997.323,1278.67L999.362,1250.07L1015.73,1250.07L1017.38,1248.55L1016.76,1253.57L1015.11,1255.1L1005.97,1253.57L1005.08,1260.69L1003.44,1262.22L1012.92,1262.22L1014.57,1260.69L1013.96,1265.72L1012.31,1267.24L1004.47,1265.72L1003.51,1273.64L1001.86,1275.17L1015.46,1275.17L1017.11,1273.64L1016.5,1278.67Z" style="fill:rgb(91,91,91);fill-rule:nonzero;"/>
                    <path d="M1034.09,1267.61L1032.71,1278.67L1031.06,1280.19L1029.14,1250.84L1030.79,1249.31L1039.36,1249.31C1041.84,1249.31 1043.9,1250.07 1045.54,1251.58C1047.18,1253.1 1048,1255.25 1048,1258.04C1048,1259.81 1047.72,1261.34 1047.17,1262.62C1046.62,1263.91 1045.87,1264.9 1044.93,1265.6C1043.98,1266.3 1042.97,1266.81 1041.91,1267.13C1040.85,1267.45 1039.71,1267.61 1038.51,1267.61L1034.09,1267.61ZM1035.78,1253.98L1034.67,1262.99L1037.01,1262.99C1038.75,1262.99 1040.06,1262.55 1040.93,1261.68C1041.8,1260.81 1042.24,1259.69 1042.24,1258.32C1042.24,1257.01 1041.81,1255.95 1040.97,1255.16C1040.12,1254.37 1038.84,1253.98 1037.13,1253.98L1035.78,1253.98Z" style="fill:rgb(178,178,178);fill-rule:nonzero;"/>
                    <path d="M1038.51,1267.61C1046.46,1261.47 1043.58,1252.84 1043.58,1252.84L1045.46,1251.51C1045.46,1251.51 1045.51,1251.56 1045.54,1251.58C1047.18,1253.1 1048,1255.25 1048,1258.04C1048,1259.81 1047.72,1261.34 1047.17,1262.62C1046.62,1263.91 1045.87,1264.9 1044.93,1265.6C1043.98,1266.3 1042.97,1266.81 1041.91,1267.13C1040.85,1267.45 1039.71,1267.61 1038.51,1267.61Z" style="fill:rgb(91,91,91);fill-rule:nonzero;"/>
                    <path d="M1034.09,1267.61L1032.71,1278.67L1031.06,1280.19L1034.13,1255.5L1035.59,1255.5L1034.67,1262.99L1033.02,1264.51L1034.09,1267.61Z" style="fill:rgb(91,91,91);fill-rule:nonzero;"/>
                    <path d="M1053.07,1278.67L1051.42,1280.19L1046.27,1280.19L1059.1,1250.31L1058.11,1250.31L1059.76,1248.79L1065.67,1248.79L1070.28,1278.67L1068.63,1280.19L1064.56,1280.19L1063.75,1272.24L1055.61,1272.24L1053.07,1278.67ZM1057.22,1268.78L1063.29,1268.78L1061.91,1256.63L1061.83,1256.63L1057.22,1268.78Z" style="fill:rgb(178,178,178);fill-rule:nonzero;"/>
                    <path d="M1053.07,1278.67L1051.42,1280.19L1046.27,1280.19L1064.02,1250.31L1065.67,1248.79L1070.28,1278.67L1068.63,1280.19L1064.56,1280.19L1063.75,1272.24L1055.61,1272.24L1053.07,1278.67ZM1057.22,1268.78L1055.57,1270.3L1061.64,1270.3L1061.91,1256.63L1061.83,1256.63L1057.22,1268.78Z" style="fill:rgb(91,91,91);fill-rule:nonzero;"/>
                    <path d="M1081.16,1261.58L1081.23,1261.7L1090.65,1250.39L1092.3,1248.87L1098.91,1248.87L1087.15,1262.34L1097.33,1278.67L1095.68,1280.19L1081,1262.86L1079.04,1278.67L1077.39,1280.19L1076.96,1250.39L1075.51,1250.39L1077.16,1248.87L1082.73,1248.87L1081.16,1261.58Z" style="fill:rgb(178,178,178);fill-rule:nonzero;"/>
                    <path d="M1081.16,1261.58L1081.23,1261.7L1097.26,1250.39L1098.91,1248.87L1087.15,1262.34L1085.5,1263.87L1081,1262.86L1079.04,1278.67L1077.39,1280.19L1081.08,1250.39L1082.73,1248.87L1081.16,1261.58Z" style="fill:rgb(91,91,91);fill-rule:nonzero;"/>
                </g>
                <g id="thumb-grip--text" transform="matrix(2.19812,0.655397,2.40166e-16,1.41898,-744.72,-809.839)">
                    <path d="M922.596,1267.65L923.172,1262.9L933.545,1262.9L931.663,1278.15C930.92,1278.39 929.729,1278.6 928.09,1278.77C926.45,1278.94 924.926,1279.03 923.518,1279.03C920.905,1279.03 918.613,1278.64 916.64,1277.87C914.668,1277.09 913.125,1276.04 912.011,1274.71C910.897,1273.38 910.071,1271.95 909.533,1270.4C908.995,1268.86 908.726,1267.24 908.726,1265.52C908.726,1263.94 908.931,1262.38 909.341,1260.83C909.75,1259.29 910.442,1257.76 911.415,1256.23C912.389,1254.7 913.58,1253.35 914.988,1252.19C916.397,1251.02 918.19,1250.08 920.367,1249.37C922.544,1248.66 924.952,1248.31 927.59,1248.31C930.382,1248.31 932.918,1248.68 935.197,1249.43L934.544,1254.98C932.137,1254.23 929.819,1253.86 927.59,1253.86C923.723,1253.86 920.572,1254.91 918.139,1257.03C915.706,1259.15 914.489,1261.91 914.489,1265.32C914.489,1267.97 915.264,1270 916.813,1271.39C918.363,1272.79 920.367,1273.48 922.826,1273.48C924.107,1273.48 925.413,1273.31 926.745,1272.96L927.398,1267.65L922.596,1267.65Z" style="fill:rgb(140,140,140);fill-rule:nonzero;"/>
                    <path d="M940.499,1278.67L934.352,1278.67L947.185,1248.79L953.101,1248.79L957.712,1278.67L951.987,1278.67L951.18,1272.24L943.035,1272.24L940.499,1278.67ZM944.649,1268.78L950.719,1268.78L949.336,1256.63L949.259,1256.63L944.649,1268.78Z" style="fill:rgb(140,140,140);fill-rule:nonzero;"/>
                    <path d="M973.349,1248.31L977.575,1267.41L986.412,1248.31L992.328,1248.31L993.558,1278.67L988.179,1278.67L987.372,1258.12L987.295,1258.12L977.575,1278.67L974.924,1278.67L970.314,1257.56L970.237,1257.56L964.32,1278.67L958.711,1278.67L967.24,1248.31L973.349,1248.31Z" style="fill:rgb(140,140,140);fill-rule:nonzero;"/>
                    <path d="M1016.5,1278.67L997.323,1278.67L1001.01,1248.55L1017.38,1248.55L1016.76,1253.57L1005.97,1253.57L1005.08,1260.69L1014.57,1260.69L1013.96,1265.72L1004.47,1265.72L1003.51,1273.64L1017.11,1273.64L1016.5,1278.67Z" style="fill:rgb(140,140,140);fill-rule:nonzero;"/>
                    <path d="M1034.09,1267.61L1032.71,1278.67L1027.14,1278.67L1030.79,1249.31L1039.36,1249.31C1041.84,1249.31 1043.9,1250.07 1045.54,1251.58C1047.18,1253.1 1048,1255.25 1048,1258.04C1048,1259.81 1047.72,1261.34 1047.17,1262.62C1046.62,1263.91 1045.87,1264.9 1044.93,1265.6C1043.98,1266.3 1042.97,1266.81 1041.91,1267.13C1040.85,1267.45 1039.71,1267.61 1038.51,1267.61L1034.09,1267.61ZM1035.78,1253.98L1034.67,1262.99L1037.01,1262.99C1038.75,1262.99 1040.06,1262.55 1040.93,1261.68C1041.8,1260.81 1042.24,1259.69 1042.24,1258.32C1042.24,1257.01 1041.81,1255.95 1040.97,1255.16C1040.12,1254.37 1038.84,1253.98 1037.13,1253.98L1035.78,1253.98Z" style="fill:rgb(140,140,140);fill-rule:nonzero;"/>
                    <path d="M1053.07,1278.67L1046.92,1278.67L1059.76,1248.79L1065.67,1248.79L1070.28,1278.67L1064.56,1278.67L1063.75,1272.24L1055.61,1272.24L1053.07,1278.67ZM1057.22,1268.78L1063.29,1268.78L1061.91,1256.63L1061.83,1256.63L1057.22,1268.78Z" style="fill:rgb(140,140,140);fill-rule:nonzero;"/>
                    <path d="M1081.16,1261.58L1081.23,1261.7L1092.3,1248.87L1098.91,1248.87L1087.15,1262.34L1097.33,1278.67L1090.88,1278.67L1081,1262.86L1079.04,1278.67L1073.47,1278.67L1077.16,1248.87L1082.73,1248.87L1081.16,1261.58Z" style="fill:rgb(140,140,140);fill-rule:nonzero;"/>
                </g>
            </g>
            <g id="label-groove" transform="matrix(1.44848,0,0,1.26645,-659.666,-506.382)">
                <g transform="matrix(1.19603,0.356612,1.49868e-16,0.885469,-332.065,-393.498)">
                    <path d="M1770,1790.43L1770,2179.57C1770,2189.74 1761.8,2198 1751.69,2198L1251.31,2198C1241.2,2198 1233,2189.74 1233,2179.57L1233,1790.43C1233,1780.26 1241.2,1772 1251.31,1772L1751.69,1772C1761.8,1772 1770,1780.26 1770,1790.43Z" style="fill:rgb(91,91,91);"/>
                </g>
                <g transform="matrix(1.19603,0.356612,1.49868e-16,0.885469,-332.065,-393.498)">
                    <path d="M1770,1790.43L1770,2179.57C1770,2189.74 1761.8,2198 1751.69,2198L1251.31,2198L1257.02,2192.76L1257.02,1772L1751.69,1772C1761.8,1772 1770,1780.26 1770,1790.43Z" style="fill:rgb(178,178,178);"/>
                </g>
                <g transform="matrix(1.18186,0.352387,1.47885e-16,0.874572,-306.986,-366.711)">
                    <path d="M1770,1790L1770,2180C1770,2189.93 1761.99,2198 1752.13,2198L1250.87,2198C1241.01,2198 1233,2189.93 1233,2180L1233,1790C1233,1780.07 1241.01,1772 1250.87,1772L1752.13,1772C1761.99,1772 1770,1780.07 1770,1790Z" style="fill:rgb(129,129,129);"/>
                </g>
            </g>
            <g id="label" transform="matrix(1.44848,0,0,1.26645,-659.666,-506.382)">
                <g transform="matrix(1.14167,0.340402,2.59011e-16,0.818428,-244.49,-237.63)">
                    <path d="M1770,1791.94L1770,2178.06C1770,2189.06 1761.41,2198 1750.82,2198L1252.18,2198C1241.59,2198 1233,2189.06 1233,2178.06L1233,1791.94C1233,1780.94 1241.59,1772 1252.18,1772L1750.82,1772C1761.41,1772 1770,1780.94 1770,1791.94Z" style="fill:rgb(0,131,255);"/>
                </g>
                <g transform="matrix(1.14167,0.340402,2.59011e-16,0.818428,-243.407,-236.612)">
                    <path d="M1770,1791.94L1770,2178.06C1770,2189.06 1761.41,2198 1750.82,2198L1252.18,2198C1241.59,2198 1233,2189.06 1233,2178.06L1233,1791.94C1233,1780.94 1241.59,1772 1252.18,1772L1750.82,1772C1761.41,1772 1770,1780.94 1770,1791.94Z" style="fill:rgb(75,75,75);fill-opacity:0.5;"/>
                </g>
                <g transform="matrix(1.14167,0.340402,2.59011e-16,0.818428,-241.68,-235.428)">
                    <path d="M1770,1791.94L1770,2178.06C1770,2189.06 1761.41,2198 1750.82,2198L1252.18,2198C1241.59,2198 1233,2189.06 1233,2178.06L1233,1791.94C1233,1780.94 1241.59,1772 1252.18,1772L1750.82,1772C1761.41,1772 1770,1780.94 1770,1791.94Z" style="fill:rgb(75,75,75);fill-opacity:0.5;"/>
                </g>
                <g id="label--holofoil" transform="matrix(1.22615,0.365592,1.59798e-16,0.697301,1163.19,1632.34)">
                    <clipPath id="_clip1">
                        <path d="M500,23.406L500,476.594C500,489.512 491.998,500 482.143,500L17.857,500C8.002,500 -0,489.512 -0,476.594L-0,23.406C-0,10.488 8.002,0 17.857,0L482.143,0C491.998,0 500,10.488 500,23.406Z"/>
                    </clipPath>
                    <g clip-path="url(#_clip1)">
                        <use xlink:href="#holofoil" x="0" y="0" width="500px" height="500px" transform="matrix(2.27273,0,0,2.27273,0,0)"/>
                    </g>
                </g>
                <g id="label--artwork" transform="matrix(0.988156,0.294632,-1.64452e-16,0.588934,1163.54,1632.45)">
                    <clipPath id="_clip3">
                        <path d="M565.107,0L565.107,592L54.291,592.002L54.291,-0L565.107,0Z"/>
                    </clipPath>
                    <g clip-path="url(#_clip3)">
                        <g id="label--box-art" transform="matrix(1.184,-2.10222e-06,2.55963e-16,1.184,13.5069,0.000938449)">
                            <use xlink:href="#boxArt-{{ title | slugify }}{% if counter %}-{{ counter }}{% endif %}" x="0" y="0" width="500px" height="500px" transform="matrix(2.32558,0,0,2.32558,0,0)"/>
                        </g>
                    </g>
                </g>
                <g id="label--shine-2" transform="matrix(1.14167,0.340402,2.59011e-16,0.818428,-244.49,-237.63)">
                    <path d="M1770,1791.94L1252.18,2198C1241.59,2198 1233,2189.06 1233,2178.06L1233,1791.94C1233,1780.94 1241.59,1772 1252.18,1772L1750.82,1772C1761.41,1772 1770,1780.94 1770,1791.94Z" style="fill:white;fill-opacity:0.15;"/>
                </g>
                <g id="label--shine-1" transform="matrix(1.14167,0.340402,2.59011e-16,0.818428,-244.49,-237.63)">
                    <path d="M1722.43,1772C1733.02,1772 1233,2159.7 1233,2148.69L1233,1791.94C1233,1780.94 1241.59,1772 1252.18,1772L1722.43,1772Z" style="fill:white;fill-opacity:0.15;"/>
                </g>
                <g id="label--text" transform="matrix(-4.44089e-16,-3.43324,5.75732,1.71662,387.657,1830.04)">
                    <g transform="matrix(1.1031,0,0,1,-5.6889,0)">
                        <g transform="matrix(8,0,0,8,89.537,141.5)">
                        </g>
                        <text x="72px" y="140px" style="font-family:'JP', ui-monospace;font-weight:700;font-size:8px;text-transform:uppercase;text-align:center;" text-anchor="middle" dominant-baseline="middle">{{ label | default: title }}</text>
                    </g>
                </g>
                <g id="label--date" transform="matrix(1.14916e-15,3.43324,-5.75732,-1.71662,2551.45,1966.19)">
                    <g transform="matrix(1.1031,0,0,1,-5.28641,0)">
                        <g transform="matrix(8,0,0,8,92.7111,141.5)">
                        </g>
                        <text x="72px" y="140px" style="font-family:'JP', ui-monospace;font-weight:700;font-size:8px;text-transform:uppercase;text-align:center;" text-anchor="middle" dominant-baseline="middle">{{ date | date: "%d %b %Y" }}</text>
                    </g>
                </g>
            </g>
            <g transform="matrix(2.9329,-0.764585,-1.82026e-16,32.573,1612.72,-2944.14)">
                <rect x="166.748" y="144.454" width="1.843" height="22.847" style="fill:rgba(75,75,75,0.75);"/>
            </g>
            <g transform="matrix(2.9329,-0.764585,-1.77823e-15,1.37837,1496.43,1500.23)">
                <rect x="166.748" y="144.454" width="1.843" height="22.847" style="fill:rgba(75,75,75,0.75);"/>
            </g>
            <g transform="matrix(2.9329,-0.764585,5.08988,1.32689,761.175,1539.15)">
                <rect x="166.748" y="144.454" width="1.843" height="22.847" style="fill:rgba(75,75,75,0.75);"/>
            </g>
            <g transform="matrix(2.9329,-0.764585,47.6597,12.4245,-6477.09,-379.299)">
                <rect x="166.748" y="144.454" width="1.843" height="22.847" style="fill:rgba(75,75,75,0.75);"/>
            </g>
        </g>
    </g>
    <defs>
        <image id="holofoil" width="220px" height="220px" xlink:href="/assets/images/site/holofoil.jpg"/>
        <image id="boxArt-{{ title | slugify }}{% if counter %}-{{ counter }}{% endif %}" width="215px" height="215px" xlink:href="{{ artwork }}"/>
    </defs>
</svg>
