<?xml version="1.0" encoding="UTF-8" standalone="no"?>
<!DOCTYPE svg PUBLIC "-//W3C//DTD SVG 1.1//EN" "http://www.w3.org/Graphics/SVG/1.1/DTD/svg11.dtd">
<svg width="100%" height="100%" viewBox="0 0 302 355" version="1.1" xmlns="http://www.w3.org/2000/svg" xmlns:xlink="http://www.w3.org/1999/xlink" xml:space="preserve" xmlns:serif="http://www.serif.com/" style="fill-rule:evenodd;clip-rule:evenodd;stroke-linecap:round;stroke-linejoin:round;stroke-miterlimit:1;">
    <g id="Layer1">
    </g>
    <rect id="Target" x="-0" y="0" width="301.384" height="354.004" style="fill:none;"/>
    <path d="M48.138,329.773C26.345,315.523 12.99,287.153 12.99,247.5C12.99,164.713 71.198,63.894 142.894,22.5C177.442,2.554 208.858,0.022 232.139,12.017C232.139,12.017 250.078,22.399 251.436,23.255C251.436,23.255 285.788,65.611 285.788,105C285.788,187.787 227.58,288.606 155.885,330C121.551,349.822 90.311,352.446 67.075,340.705C65.025,339.67 50.054,331.025 48.138,329.773Z" style="fill:rgb(250,5,34);stroke:black;stroke-width:4.5px;"/>
    <path d="M155.885,30C227.58,-11.394 285.788,22.213 285.788,105C285.788,187.787 227.58,288.606 155.885,330C84.189,371.394 25.981,337.787 25.981,255C25.981,172.213 84.189,71.394 155.885,30Z" style="fill:rgb(200,4,27);stroke:black;stroke-width:4.5px;"/>
    <path d="M155.885,53.163C216.509,18.161 265.729,46.578 265.729,116.581C265.729,186.585 216.509,271.836 155.885,306.837C95.26,341.839 46.04,313.422 46.04,243.419C46.04,173.415 95.26,88.164 155.885,53.163Z" style="fill:white;stroke:black;stroke-width:4.5px;"/>
    <path d="M155.885,83.215C202.145,56.507 239.703,78.191 239.703,131.608C239.703,185.025 202.145,250.076 155.885,276.785C109.624,303.493 72.067,281.809 72.067,228.392C72.067,174.975 109.624,109.924 155.885,83.215Z" style="fill:rgb(200,4,27);stroke:black;stroke-width:4.5px;"/>
    <path d="M155.885,119.472C184.815,102.769 208.303,116.33 208.303,149.736C208.303,183.142 184.815,223.825 155.885,240.528C126.954,257.231 103.466,243.67 103.466,210.264C103.466,176.858 126.954,136.175 155.885,119.472Z" style="fill:white;stroke:black;stroke-width:4.5px;"/>
    <path d="M155.885,158.683C166.073,152.801 174.345,157.577 174.345,169.342C174.345,181.107 166.073,195.434 155.885,201.317C145.696,207.199 137.424,202.423 137.424,190.658C137.424,178.893 145.696,164.566 155.885,158.683Z" style="fill:rgb(200,4,27);stroke:black;stroke-width:4.5px;"/>
</svg>
