<?xml version="1.0" encoding="UTF-8" standalone="no"?>
<!DOCTYPE svg PUBLIC "-//W3C//DTD SVG 1.1//EN" "http://www.w3.org/Graphics/SVG/1.1/DTD/svg11.dtd">
<svg width="100%" height="100%" viewBox="0 0 530 558" version="1.1" xmlns="http://www.w3.org/2000/svg" xmlns:xlink="http://www.w3.org/1999/xlink" xml:space="preserve" xmlns:serif="http://www.serif.com/" style="fill-rule:evenodd;clip-rule:evenodd;stroke-linecap:round;stroke-linejoin:round;stroke-miterlimit:1;">
    <path d="M223.009,498.215L201.052,457.992L317.106,460.205L296.357,498.215C294.589,501.587 291.399,504.763 286.785,507.427C271.827,516.063 247.538,516.063 232.58,507.427C227.967,504.763 224.776,501.587 223.009,498.215Z" style="stroke:black;stroke-width:3px;"/>
    <path d="M215.549,484.497L189.052,435.956L329.106,438.627L304.066,484.497C301.933,488.567 298.082,492.399 292.515,495.614C274.463,506.036 245.152,506.036 227.1,495.614C221.533,492.399 217.683,488.567 215.549,484.497Z" style="fill:rgb(162,162,162);stroke:black;stroke-width:3px;"/>
    <path d="M333.275,363.551L333.278,363.551L333.278,424.497C333.278,435.358 326.108,446.218 311.769,454.497C283.091,471.055 236.524,471.055 207.846,454.497C193.507,446.218 186.337,435.358 186.337,424.497L186.337,363.873C186.502,374.607 193.67,385.313 207.843,393.496C236.522,410.053 283.088,410.053 311.766,393.496C326.081,385.231 333.251,374.393 333.275,363.551Z" style="fill:rgb(186,186,186);stroke:black;stroke-width:3px;"/>
    <path d="M333.275,416.275C333.091,431.299 305.498,449.66 264.999,457.253C228.94,462.207 224.304,458.892 208.488,453.868" style="fill:none;stroke:black;stroke-width:3px;"/>
    <path d="M333.275,399.275C333.091,415.299 305.498,432.66 264.999,440.253C224.5,447.845 189.334,441.811 186.517,426.787" style="fill:none;stroke:black;stroke-width:3px;"/>
    <path d="M333.275,383.122C333.091,398.146 305.498,416.507 264.999,424.099C224.5,431.691 189.334,425.658 186.517,410.634" style="fill:none;stroke:black;stroke-width:3px;"/>
    <path d="M333.275,367.122C333.091,383.146 305.498,400.507 264.999,408.099C224.5,415.691 189.334,409.658 186.517,394.634" style="fill:none;stroke:black;stroke-width:3px;"/>
    <path d="M168.539,319.33C145.484,295.918 131.235,263.697 131.235,228.149C131.235,156.672 188.846,98.642 259.808,98.642C330.769,98.642 388.381,156.672 388.381,228.149C388.381,263.697 374.131,295.918 351.077,319.33C349.481,320.618 345.298,325.208 345.298,325.208C337.969,334.433 333.308,348.165 333.278,363.497C333.278,363.546 333.278,363.595 333.278,363.644C333.213,374.456 326.044,385.256 311.769,393.497C283.091,410.055 236.524,410.055 207.846,393.497C193.572,385.256 186.402,374.456 186.338,363.644C186.337,363.595 186.337,363.546 186.337,363.497C186.308,348.165 181.646,334.433 174.317,325.208C174.317,325.208 170.134,320.618 168.539,319.33Z" style="fill:rgb(255,215,0);stroke:black;stroke-width:3px;"/>
    <path d="M207.843,333.496C236.522,316.938 283.088,316.938 311.766,333.496C340.445,350.053 340.445,376.938 311.766,393.496C283.088,410.053 236.522,410.053 207.843,393.496C179.165,376.938 179.165,350.053 207.843,333.496Z" style="fill-opacity:0.11;stroke:black;stroke-opacity:0.28;stroke-width:3px;"/>
    <path d="M244.808,381.502L244.896,317.003L214.103,275.193M277.431,362.667L277.431,298.219L297.54,227.02M214.103,275.193L229.76,266.154M285.99,233.689L297.54,227.02M224.719,232.627C229.833,235.58 233.985,245.431 233.985,254.613C233.985,263.795 229.833,268.852 224.719,265.9C219.605,262.947 215.454,253.096 215.454,243.914C215.454,234.732 219.605,229.675 224.719,232.627ZM233.985,227.278C239.098,230.23 243.25,240.082 243.25,249.263C243.25,258.445 239.098,263.503 233.985,260.55C228.871,257.598 224.719,247.746 224.719,238.565C224.719,229.383 228.871,224.325 233.985,227.278ZM243.25,221.928C248.364,224.881 252.516,234.732 252.516,243.914C252.516,253.096 248.364,258.153 243.25,255.201C238.136,252.248 233.985,242.397 233.985,233.215C233.985,224.033 238.136,218.976 243.25,221.928ZM252.516,216.579C257.63,219.531 261.781,229.383 261.781,238.565C261.781,247.746 257.63,252.804 252.516,249.851C247.402,246.899 243.25,237.047 243.25,227.866C243.25,218.684 247.402,213.626 252.516,216.579ZM261.781,211.229C266.895,214.182 271.047,224.033 271.047,233.215C271.047,242.397 266.895,247.454 261.781,244.502C256.667,241.55 252.516,231.698 252.516,222.516C252.516,213.334 256.667,208.277 261.781,211.229ZM271.047,205.88C276.161,208.832 280.312,218.684 280.312,227.866C280.312,237.047 276.161,242.105 271.047,239.153C265.933,236.2 261.781,226.349 261.781,217.167C261.781,207.985 265.933,202.927 271.047,205.88ZM280.312,200.53C285.426,203.483 289.578,213.334 289.578,222.516C289.578,231.698 285.426,236.756 280.312,233.803C275.199,230.851 271.047,220.999 271.047,211.817C271.047,202.635 275.199,197.578 280.312,200.53Z" style="fill:none;stroke:black;stroke-width:3px;"/>
    <path d="M153.239,224.317C152.508,184.588 175.283,147.444 211.402,129.746L212.916,133.587C178.438,152.953 158.518,184.512 157.499,223.35L153.239,224.317Z" style="fill:white;fill-opacity:0.64;stroke:black;stroke-width:3px;"/>
    <path d="M112.793,346.559C86.521,314.091 70.778,272.76 70.778,227.782C70.778,181.384 87.53,138.869 115.311,105.959L118.887,109.535C92.012,141.522 75.818,182.775 75.818,227.782C75.818,271.369 91.007,311.436 116.377,342.975L112.793,346.559ZM141.031,80.767C173.499,54.495 214.829,38.752 259.808,38.752C304.786,38.752 346.117,54.495 378.585,80.767L375.001,84.351C343.462,58.981 303.395,43.792 259.808,43.792C216.221,43.792 176.153,58.981 144.614,84.351L141.031,80.767ZM404.305,105.959C432.085,138.869 448.837,181.384 448.837,227.782C448.837,272.76 433.094,314.091 406.822,346.559L403.239,342.975C428.608,311.436 443.798,271.369 443.798,227.782C443.798,182.775 427.603,141.522 400.728,109.535L404.305,105.959ZM381.63,372.279C372.094,380.329 361.751,387.453 350.74,393.512L350.74,387.735C360.429,382.211 369.568,375.833 378.054,368.702L381.63,372.279ZM141.561,368.702C150.048,375.833 159.187,382.211 168.875,387.735L168.875,393.512C157.864,387.453 147.521,380.329 137.985,372.279L141.561,368.702ZM100.109,207C109.557,133.806 168.231,75.947 241.808,67.749L241.808,72.927C171.074,81.075 114.688,136.649 105.299,207L100.109,207ZM277.808,67.749C351.384,75.947 410.058,133.806 419.506,207L414.316,207C404.927,136.649 348.541,81.075 277.808,72.927L277.808,67.749ZM420.126,243C415.541,291.823 389.119,334.337 350.74,360.664L350.74,354.376C386.192,328.855 410.51,288.818 414.957,243L420.126,243ZM104.658,243C109.106,288.818 133.423,328.855 168.875,354.376L168.875,360.664C130.496,334.337 104.074,291.823 99.489,243L104.658,243Z" style="fill:rgb(255,215,0);stroke:black;stroke-width:3px;"/>
</svg>
