<?xml version="1.0" encoding="UTF-8" standalone="no"?>
<!DOCTYPE svg PUBLIC "-//W3C//DTD SVG 1.1//EN" "http://www.w3.org/Graphics/SVG/1.1/DTD/svg11.dtd">
<svg width="100%" height="100%" viewBox="0 0 530 558" version="1.1" xmlns="http://www.w3.org/2000/svg" xmlns:xlink="http://www.w3.org/1999/xlink" xml:space="preserve" xmlns:serif="http://www.serif.com/" style="fill-rule:evenodd;clip-rule:evenodd;stroke-linecap:round;stroke-linejoin:round;stroke-miterlimit:1;">
    <g transform="matrix(1,0,0,1,-4441.01,-1138.84)">
        <g id="Layer1">
        </g>
        <g id="Lightbulb" transform="matrix(0.621942,0,0,0.989358,2929.62,1133.89)">
            <rect x="2430.11" y="5" width="852.169" height="564" style="fill:none;"/>
            <g transform="matrix(1.33234,0,0,1.3101,-3415.43,-1658.19)">
                <path d="M4656.56,1653.9l-26.498,-31.033l140.054,1.708l-25.04,29.325c-2.133,2.602 -5.983,5.052 -11.55,7.107c-18.052,6.663 -47.364,6.663 -65.415,-0c-5.568,-2.055 -9.418,-4.505 -11.551,-7.107Z" style="stroke:black;stroke-width:2.76px;"/>
            </g>
            <g transform="matrix(1.60787,0,0,1.58103,-4710.43,-2120.15)">
                <path d="M4656.56,1653.9l-26.498,-31.033l140.054,1.708l-25.04,29.325c-2.133,2.602 -5.983,5.052 -11.55,7.107c-18.052,6.663 -47.364,6.663 -65.415,-0c-5.568,-2.055 -9.418,-4.505 -11.551,-7.107Z" style="fill:rgb(162,162,162);stroke:black;stroke-width:2.29px;"/>
            </g>
            <g transform="matrix(0.784693,-0.284797,0.784693,0.284797,-1984.78,1432.82)">
                <path d="M5016.19,1292.97l0.003,0.003l-108.151,108.151c-19.272,19.273 -45.89,31.2 -75.271,31.2c-58.763,-0 -106.472,-47.709 -106.472,-106.472c0,-29.381 11.927,-55.999 31.2,-75.271l107.579,-107.579c-18.881,19.217 -30.533,45.558 -30.533,74.599c0,58.763 47.708,106.471 106.471,106.471c29.332,0 55.91,-11.887 75.174,-31.102Z" style="fill:rgb(186,186,186);stroke:black;stroke-width:4.35px;"/>
            </g>
            <g transform="matrix(1.60587,-0.189246,0.296258,0.993451,-5169.78,-243.062)">
                <path d="M4774.28,1582.69c-2.901,14.733 -32.92,27.696 -73.47,27.696c-35.776,-1.775 -39.659,-5.888 -54.047,-13.74" style="fill:none;stroke:black;stroke-width:2.98px;"/>
            </g>
            <g transform="matrix(1.60587,-0.189246,0.296258,0.993451,-5169.78,-260.245)">
                <path d="M4774.28,1582.69c-3.083,15.716 -32.92,27.696 -73.47,27.696c-40.549,-0 -73.47,-12.41 -73.47,-27.696" style="fill:none;stroke:black;stroke-width:2.98px;"/>
            </g>
            <g transform="matrix(1.60587,-0.189246,0.296258,0.993451,-5169.78,-276.572)">
                <path d="M4774.28,1582.69c-2.901,14.733 -32.92,27.696 -73.47,27.696c-40.549,-0 -73.47,-12.41 -73.47,-27.696" style="fill:none;stroke:black;stroke-width:2.98px;"/>
            </g>
            <g transform="matrix(1.60587,-0.189246,0.296258,0.993451,-5169.78,-292.744)">
                <path d="M4774.28,1582.69c-3.083,15.716 -32.92,27.696 -73.47,27.696c-40.549,-0 -73.47,-12.41 -73.47,-27.696" style="fill:none;stroke:black;stroke-width:2.98px;"/>
            </g>
            <g transform="matrix(0.784693,-0.284797,0.784693,0.284797,-1984.78,1341.86)">
                <path d="M4766.17,1205.43c17.925,-65.164 60.504,-136.941 123.584,-200.021c126.837,-126.837 288.837,-170.788 361.538,-98.087c72.701,72.701 28.75,234.701 -98.087,361.538c-63.08,63.08 -134.857,105.659 -200.021,123.584c-3.92,0.65 -16.35,4.51 -16.35,4.51c-23.879,8.861 -53.023,28.453 -80.261,55.63c-0.087,0.087 -0.174,0.174 -0.261,0.261c-19.251,19.119 -45.762,30.939 -75.01,30.939c-58.763,-0 -106.472,-47.708 -106.472,-106.471c0,-29.249 11.82,-55.759 30.939,-75.011c0.087,-0.087 0.174,-0.174 0.261,-0.261c27.177,-27.238 46.769,-56.382 55.63,-80.261c0,0 3.86,-12.43 4.51,-16.35Z" style="fill:rgb(255,215,0);stroke:black;stroke-width:4.35px;"/>
            </g>
            <g transform="matrix(1.04201,-0.378187,1.04201,0.378187,-3535.06,1616.35)">
                <circle cx="4707.41" cy="1418.18" r="80.179" style="fill-opacity:0.11;stroke:black;stroke-opacity:0.28;stroke-width:3.27px;"/>
            </g>
            <g transform="matrix(2.73654,0,0,1.72028,-10023.3,-2210.94)">
                <path d="M4694.64,1512.29l0.051,-37.896l-18.092,-24.566m37.209,51.396l-0,-37.867l11.815,-41.833m-49.024,28.304l9.199,-5.311m33.038,-19.075l6.787,-3.918m-42.787,3.294c3.005,1.735 5.444,7.523 5.444,12.918c0,5.395 -2.439,8.366 -5.444,6.632c-3.004,-1.735 -5.444,-7.523 -5.444,-12.918c0,-5.395 2.44,-8.367 5.444,-6.632Zm5.444,-3.143c3.005,1.735 5.444,7.523 5.444,12.918c0,5.395 -2.439,8.366 -5.444,6.631c-3.004,-1.734 -5.444,-7.523 -5.444,-12.917c0,-5.395 2.44,-8.367 5.444,-6.632Zm5.444,-3.143c3.005,1.735 5.444,7.523 5.444,12.918c0,5.395 -2.439,8.366 -5.444,6.631c-3.004,-1.734 -5.444,-7.523 -5.444,-12.918c0,-5.394 2.44,-8.366 5.444,-6.631Zm5.444,-3.143c3.005,1.734 5.444,7.523 5.444,12.918c0,5.394 -2.439,8.366 -5.444,6.631c-3.004,-1.734 -5.444,-7.523 -5.444,-12.918c0,-5.394 2.44,-8.366 5.444,-6.631Zm5.444,-3.143c3.005,1.734 5.444,7.523 5.444,12.917c0,5.395 -2.439,8.367 -5.444,6.632c-3.004,-1.735 -5.444,-7.523 -5.444,-12.918c0,-5.395 2.44,-8.366 5.444,-6.631Zm5.444,-3.144c3.005,1.735 5.444,7.524 5.444,12.918c0,5.395 -2.439,8.367 -5.444,6.632c-3.004,-1.735 -5.444,-7.523 -5.444,-12.918c0,-5.395 2.44,-8.366 5.444,-6.632Zm5.444,-3.143c3.005,1.735 5.444,7.523 5.444,12.918c0,5.395 -2.439,8.367 -5.444,6.632c-3.004,-1.735 -5.444,-7.523 -5.444,-12.918c0,-5.395 2.44,-8.366 5.444,-6.632Z" style="fill:none;stroke:black;stroke-width:1.76px;"/>
            </g>
            <g transform="matrix(1.10379,-0.400612,-2.79673e-17,0.801224,-2487.67,1024.93)">
                <path d="M4678.56,1349.3c-1.064,-50.651 32.111,-80.921 84.725,-76.94l2.204,5.948c-50.222,-0.681 -79.239,24.622 -80.724,72.875l-6.205,-1.883Z" style="fill:white;fill-opacity:0.64;stroke:black;stroke-width:5.35px;"/>
            </g>
            <g transform="matrix(1.76432,0,0,1.10911,-5444.04,-1292.29)">
                <path d="M4565.77,1485.49c-23.942,-29.589 -38.289,-67.254 -38.289,-108.244c0,-42.283 15.267,-81.028 40.584,-111.02l3.259,3.259c-24.492,29.151 -39.25,66.746 -39.25,107.761c0,39.722 13.842,76.236 36.962,104.978l-3.266,3.266Zm25.734,-242.221c29.589,-23.943 67.254,-38.29 108.244,-38.29c40.99,0 78.655,14.347 108.244,38.29l-3.266,3.266c-28.742,-23.12 -65.256,-36.963 -104.978,-36.963c-39.722,0 -76.236,13.843 -104.978,36.963l-3.266,-3.266Zm239.927,22.957c25.317,29.992 40.584,68.737 40.584,111.02c-0,40.99 -14.347,78.655 -38.29,108.244l-3.266,-3.266c23.12,-28.742 36.963,-65.256 36.963,-104.978c-0,-41.015 -14.759,-78.61 -39.25,-107.761l3.259,-3.259Zm-20.663,242.703c-8.691,7.337 -18.117,13.829 -28.151,19.35l-0,-5.264c8.829,-5.034 17.157,-10.847 24.892,-17.345l3.259,3.259Zm-218.781,-3.259c7.734,6.498 16.063,12.311 24.892,17.345l0,5.264c-10.034,-5.521 -19.46,-12.013 -28.151,-19.35l3.259,-3.259Zm-37.776,-147.363c8.611,-66.703 62.081,-119.431 129.133,-126.902l0,4.719c-64.461,7.425 -115.847,58.071 -124.403,122.183l-4.73,0Zm161.941,-126.902c67.052,7.471 120.522,60.199 129.133,126.902l-4.73,0c-8.556,-64.112 -59.942,-114.758 -124.403,-122.183l-0,-4.719Zm129.698,159.71c-4.179,44.493 -28.258,83.238 -63.233,107.23l-0,-5.73c32.308,-23.258 54.469,-59.745 58.522,-101.5l4.711,-0Zm-287.493,-0c4.053,41.755 26.214,78.242 58.522,101.5l0,5.73c-34.975,-23.992 -59.054,-62.737 -63.233,-107.23l4.711,-0Z" style="fill:rgb(255,215,0);stroke:black;stroke-width:2.73px;"/>
            </g>
        </g>
    </g>
</svg>
