{%- if post.data.artwork -%}{% assign artwork = post.data.artwork %}{%- endif -%}
{%- if post.data.title -%}{% assign title = post.data.title %}{%- endif -%}
{%- if post.data.date -%}{% assign date = post.data.date %}{%- endif -%}

<?xml version="1.0" encoding="UTF-8" standalone="no"?>
<!DOCTYPE svg PUBLIC "-//W3C//DTD SVG 1.1//EN" "http://www.w3.org/Graphics/SVG/1.1/DTD/svg11.dtd">
<svg width="100%" height="100%" viewBox="0 0 100 100" version="1.1" xmlns="http://www.w3.org/2000/svg" xmlns:xlink="http://www.w3.org/1999/xlink" xml:space="preserve" xmlns:serif="http://www.serif.com/" style="fill-rule:evenodd;clip-rule:evenodd;stroke-linejoin:round;stroke-miterlimit:2;">
    <g id="icon-mask">
        <clipPath id="_clip1">
            <path id="artwork" d="M100,68.718c0,1.196 0,2.389 -0.009,3.583c-0.006,1.007 -0.017,2.013 -0.043,3.017c-0.028,2.201 -0.221,4.397 -0.578,6.568c-0.372,2.174 -1.066,4.279 -2.059,6.246c-2.014,3.953 -5.228,7.167 -9.181,9.181c-1.966,0.992 -4.07,1.685 -6.241,2.057c-2.174,0.358 -4.369,0.552 -6.569,0.578c-1.006,0.026 -2.012,0.041 -3.018,0.045c-1.195,0.007 -2.389,0.007 -3.582,0.007l-37.44,0c-1.193,0 -2.387,0 -3.582,-0.007c-1.006,-0.003 -2.012,-0.018 -3.018,-0.043c-2.201,-0.028 -4.397,-0.222 -6.569,-0.58c-2.172,-0.37 -4.276,-1.066 -6.241,-2.057c-3.953,-2.013 -7.167,-5.226 -9.181,-9.179c-0.993,-1.968 -1.687,-4.074 -2.059,-6.248c-0.357,-2.171 -0.55,-4.365 -0.578,-6.565c-0.026,-1.007 -0.039,-2.013 -0.043,-3.02c-0.009,-1.196 -0.009,-2.387 -0.009,-3.583l-0,-37.436c-0,-1.196 -0,-2.392 0.009,-3.587c0.004,-1.005 0.017,-2.011 0.043,-3.016c0.028,-2.2 0.221,-4.394 0.578,-6.565c0.372,-2.174 1.066,-4.279 2.059,-6.248c2.014,-3.953 5.228,-7.167 9.181,-9.181c1.966,-0.992 4.068,-1.685 6.239,-2.057c2.174,-0.356 4.369,-0.55 6.569,-0.578c1.007,-0.026 2.013,-0.039 3.018,-0.043c1.195,-0.007 2.391,-0.007 3.582,-0.007l37.439,0c1.196,0 2.392,0 3.585,0.007c1.006,0.003 2.012,0.018 3.018,0.043c2.2,0.028 4.395,0.222 6.567,0.578c2.174,0.372 4.276,1.066 6.243,2.057c3.954,2.013 7.169,5.227 9.183,9.181c0.992,1.968 1.686,4.073 2.057,6.246c0.357,2.171 0.55,4.367 0.578,6.567c0.026,1.007 0.039,2.013 0.043,3.018c0.009,1.196 0.009,2.389 0.009,3.583l0,37.438Z"/>
        </clipPath>
        <g clip-path="url(#_clip1)">
            <use xlink:href="#boxArt-{{ title | slugify }}{% if counter %}-{{ counter }}{% endif %}" x="0" y="0" width="512px" height="512px"/>
        </g>
        <path id="icon-shine" d="M100,47c0,0.596 -25.092,13.998 -50,14c-25.092,0.002 -50,-13.4 -50,-14l-0,-15.718c-0,-1.196 -0,-2.392 0.009,-3.587c0.004,-1.005 0.017,-2.011 0.043,-3.016c0.028,-2.2 0.221,-4.394 0.578,-6.565c0.372,-2.174 1.066,-4.279 2.059,-6.248c2.014,-3.953 5.228,-7.167 9.181,-9.181c1.966,-0.992 4.068,-1.685 6.239,-2.057c2.174,-0.356 4.369,-0.55 6.569,-0.578c1.007,-0.026 2.013,-0.039 3.018,-0.043c1.195,-0.007 2.391,-0.007 3.582,-0.007l37.439,0c1.196,0 2.392,0 3.585,0.007c1.006,0.003 2.012,0.018 3.018,0.043c2.2,0.028 4.395,0.222 6.567,0.578c2.174,0.372 4.276,1.066 6.243,2.057c3.954,2.013 7.169,5.227 9.183,9.181c0.992,1.968 1.686,4.073 2.057,6.246c0.357,2.171 0.55,4.367 0.578,6.567c0.026,1.007 0.039,2.013 0.043,3.018c0.009,1.196 0.009,2.389 0.009,3.583l0,15.72Z" style="fill:url(#_Linear3);"/>
        <path id="icon-mask1" serif:id="icon-mask" d="M100,68.718c0,1.196 0,2.389 -0.009,3.583c-0.006,1.007 -0.017,2.013 -0.043,3.017c-0.028,2.201 -0.221,4.397 -0.578,6.568c-0.372,2.174 -1.066,4.279 -2.059,6.246c-2.014,3.953 -5.228,7.167 -9.181,9.181c-1.966,0.992 -4.07,1.685 -6.241,2.057c-2.174,0.358 -4.369,0.552 -6.569,0.578c-1.006,0.026 -2.012,0.041 -3.018,0.045c-1.195,0.007 -2.389,0.007 -3.582,0.007l-37.44,0c-1.193,0 -2.387,0 -3.582,-0.007c-1.006,-0.003 -2.012,-0.018 -3.018,-0.043c-2.201,-0.028 -4.397,-0.222 -6.569,-0.58c-2.172,-0.37 -4.276,-1.066 -6.241,-2.057c-3.953,-2.013 -7.167,-5.226 -9.181,-9.179c-0.993,-1.968 -1.687,-4.074 -2.059,-6.248c-0.357,-2.171 -0.55,-4.365 -0.578,-6.565c-0.026,-1.007 -0.039,-2.013 -0.043,-3.02c-0.009,-1.196 -0.009,-2.387 -0.009,-3.583l-0,-37.436c-0,-1.196 -0,-2.392 0.009,-3.587c0.004,-1.005 0.017,-2.011 0.043,-3.016c0.028,-2.2 0.221,-4.394 0.578,-6.565c0.372,-2.174 1.066,-4.279 2.059,-6.248c2.014,-3.953 5.228,-7.167 9.181,-9.181c1.966,-0.992 4.068,-1.685 6.239,-2.057c2.174,-0.356 4.369,-0.55 6.569,-0.578c1.007,-0.026 2.013,-0.039 3.018,-0.043c1.195,-0.007 2.391,-0.007 3.582,-0.007l37.439,0c1.196,0 2.392,0 3.585,0.007c1.006,0.003 2.012,0.018 3.018,0.043c2.2,0.028 4.395,0.222 6.567,0.578c2.174,0.372 4.276,1.066 6.243,2.057c3.954,2.013 7.169,5.227 9.183,9.181c0.992,1.968 1.686,4.073 2.057,6.246c0.357,2.171 0.55,4.367 0.578,6.567c0.026,1.007 0.039,2.013 0.043,3.018c0.009,1.196 0.009,2.389 0.009,3.583l0,37.438Z" style="fill:none;stroke:#000;stroke-opacity:0.2;stroke-width:1px;"/>
        <path id="icon-mask2" serif:id="icon-mask" d="M100.5,68.905c0,1.208 0,2.414 -0.009,3.619c-0.006,1.017 -0.017,2.033 -0.044,3.048c-0.028,2.222 -0.223,4.44 -0.584,6.633c-0.375,2.196 -1.076,4.321 -2.079,6.308c-2.034,3.993 -5.28,7.239 -9.272,9.273c-1.986,1.002 -4.111,1.702 -6.304,2.077c-2.196,0.363 -4.413,0.558 -6.635,0.584c-1.016,0.027 -2.032,0.042 -3.048,0.046c-1.207,0.007 -2.413,0.007 -3.618,0.007l-37.814,-0c-1.205,-0 -2.411,-0 -3.618,-0.007c-1.016,-0.003 -2.032,-0.018 -3.048,-0.044c-2.223,-0.028 -4.441,-0.224 -6.635,-0.586c-2.193,-0.373 -4.319,-1.076 -6.304,-2.077c-3.992,-2.033 -7.238,-5.279 -9.272,-9.27c-1.003,-1.989 -1.704,-4.116 -2.079,-6.311c-0.361,-2.193 -0.556,-4.409 -0.584,-6.631c-0.027,-1.017 -0.04,-2.033 -0.044,-3.05c-0.009,-1.208 -0.009,-2.411 -0.009,-3.619l-0,-37.81c-0,-1.208 -0,-2.416 0.009,-3.623c0.004,-1.015 0.017,-2.031 0.044,-3.046c0.028,-2.222 0.223,-4.438 0.584,-6.631c0.375,-2.196 1.076,-4.321 2.079,-6.311c2.034,-3.992 5.28,-7.238 9.272,-9.272c1.986,-1.002 4.11,-1.702 6.302,-2.077c2.195,-0.361 4.413,-0.556 6.635,-0.584c1.017,-0.027 2.033,-0.04 3.048,-0.044c1.207,-0.007 2.415,-0.007 3.618,-0.007l37.814,-0c1.207,-0 2.415,-0 3.62,0.007c1.016,0.003 2.032,0.018 3.048,0.044c2.222,0.028 4.439,0.223 6.633,0.584c2.195,0.375 4.319,1.075 6.306,2.077c3.993,2.033 7.24,5.279 9.274,9.272c1.002,1.988 1.703,4.114 2.077,6.309c0.361,2.193 0.556,4.41 0.584,6.633c0.027,1.017 0.04,2.033 0.044,3.048c0.009,1.207 0.009,2.413 0.009,3.618l0,37.813Z" style="fill:none;stroke:var(--background);stroke-width:1px;"/>
    </g>
    <defs>
        <image id="boxArt-{{ title | slugify }}{% if counter %}-{{ counter }}{% endif %}" width="100px" height="100px" xlink:href="{{ artwork }}"/>
        <linearGradient id="_Linear3" x1="0" y1="0" x2="1" y2="0" gradientUnits="userSpaceOnUse" gradientTransform="matrix(3.73517e-15,61,-37.21,2.27846e-15,-7.29268e-14,0)"><stop offset="0" style="stop-color:#fff;stop-opacity:0.7"/><stop offset="1" style="stop-color:#fff;stop-opacity:0.2"/></linearGradient>
    </defs>
</svg>
