<?xml version="1.0" encoding="UTF-8" standalone="no"?>
<!DOCTYPE svg PUBLIC "-//W3C//DTD SVG 1.1//EN" "http://www.w3.org/Graphics/SVG/1.1/DTD/svg11.dtd">
<svg width="100%" height="100%" viewBox="0 0 166 234" version="1.1" xmlns="http://www.w3.org/2000/svg" xmlns:xlink="http://www.w3.org/1999/xlink" xml:space="preserve" xmlns:serif="http://www.serif.com/" style="fill-rule:evenodd;clip-rule:evenodd;stroke-linejoin:round;stroke-miterlimit:2;"
aria-labelledby="svg-title" aria-describedby="svg-desc">
    
    {%- if post.data.artwork -%}{% assign artwork = post.data.artwork %}{%- endif -%}
    {%- if post.data.title -%}{% assign title = post.data.title %}{%- endif -%}
    {%- if post.data.color -%}{% assign color = post.data.color %}{%- endif -%}
    {%- if post.data.date -%}{% assign date = post.data.date %}{%- endif -%}
    
    <title id="svg-title">{{ title }}</title>
    <desc id="svg-desc">The iOS app icon for {{ title }}</desc>
    
    <clipPath id="_clip1">
        <path d="M146.345,185.729C146.345,188.024 146.346,190.318 146.333,192.606C146.324,194.533 146.305,196.455 146.259,198.361C146.16,202.514 145.946,206.637 145.298,210.427C144.64,214.271 143.567,217.583 141.875,220.444C140.212,223.256 138.039,225.454 135.447,226.95C132.855,228.447 129.866,229.23 126.599,229.264C123.275,229.298 119.871,228.572 116.213,227.219C112.607,225.886 108.929,224.01 105.282,222.019C103.609,221.105 101.935,220.161 100.261,219.206C98.274,218.073 96.287,216.925 94.3,215.777L55.51,193.382C53.522,192.235 51.535,191.088 49.548,189.926C47.874,188.949 46.201,187.961 44.527,186.942C40.881,184.723 37.203,182.351 33.597,179.521C29.938,176.649 26.534,173.445 23.21,169.572C19.943,165.766 16.954,161.531 14.362,157.042C11.77,152.552 9.597,147.846 7.934,143.114C6.243,138.299 5.169,133.748 4.512,129.144C3.864,124.606 3.649,120.235 3.55,115.968C3.505,114.009 3.485,112.065 3.476,110.127C3.463,107.825 3.464,105.531 3.464,103.236L3.464,58.446C3.464,56.151 3.463,53.856 3.476,51.568C3.485,49.641 3.505,47.72 3.55,45.814C3.649,41.66 3.864,37.537 4.512,33.748C5.169,29.903 6.243,26.591 7.934,23.73C9.597,20.918 11.77,18.721 14.362,17.224C16.954,15.728 19.943,14.945 23.21,14.911C26.534,14.876 29.938,15.603 33.597,16.956C37.203,18.289 40.881,20.165 44.527,22.156C46.201,23.069 47.874,24.013 49.548,24.969C51.535,26.102 53.522,27.25 55.51,28.397L94.3,50.793C96.287,51.94 98.274,53.086 100.261,54.248C101.935,55.226 103.609,56.214 105.282,57.233C108.929,59.452 112.607,61.823 116.213,64.654C119.871,67.525 123.275,70.73 126.599,74.602C129.866,78.409 132.855,82.643 135.447,87.133C138.039,91.622 140.212,96.329 141.875,101.061C143.567,105.876 144.64,110.426 145.298,115.03C145.946,119.568 146.16,123.939 146.259,128.207C146.305,130.165 146.324,132.109 146.333,134.047C146.346,136.349 146.345,138.643 146.345,140.938L146.345,185.729Z" style="fill:none;stroke:#000;stroke-width:1px;stroke-linecap:round;stroke-miterlimit:1.5;"/>
    </clipPath>
    <path d="M135.601,226.861C135.55,226.891 135.499,226.921 135.447,226.95C132.855,228.447 129.866,229.23 126.599,229.264C123.275,229.298 119.871,228.572 116.213,227.219C112.607,225.886 108.929,224.01 105.282,222.019C103.609,221.105 101.935,220.161 100.261,219.206C98.274,218.073 96.287,216.925 94.3,215.777L55.51,193.382C53.522,192.235 51.535,191.088 49.548,189.926C47.874,188.949 46.201,187.961 44.527,186.942C40.881,184.723 37.203,182.351 33.597,179.521C29.938,176.649 26.534,173.445 23.21,169.572C19.943,165.766 16.954,161.531 14.362,157.042C11.77,152.552 9.597,147.846 7.934,143.114C6.243,138.299 5.169,133.748 4.512,129.144C3.864,124.606 3.649,120.235 3.55,115.968C3.505,114.009 3.485,112.065 3.476,110.127C3.463,107.825 3.464,105.531 3.464,103.236L3.464,58.446C3.464,56.151 3.463,53.856 3.476,51.568C3.485,49.641 3.505,47.72 3.55,45.814C3.649,41.66 3.864,37.537 4.512,33.748C5.169,29.903 6.243,26.591 7.934,23.73C9.597,20.918 11.77,18.721 14.362,17.224C14.467,17.164 14.572,17.104 14.679,17.046L14.675,17.044L27.853,9.435L27.871,9.445C28.084,9.308 28.301,9.177 28.52,9.05C31.112,7.553 34.102,6.771 37.368,6.736C40.692,6.702 44.097,7.428 47.755,8.781C51.361,10.114 55.039,11.99 58.685,13.981C60.359,14.895 62.032,15.839 63.706,16.794C65.694,17.927 67.68,19.075 69.668,20.223L108.458,42.618C110.445,43.766 112.432,44.912 114.419,46.074C116.093,47.051 117.767,48.04 119.44,49.058C123.087,51.278 126.765,53.649 130.371,56.48C134.029,59.351 137.434,62.556 140.757,66.428C144.024,70.234 147.014,74.469 149.606,78.959C152.198,83.448 154.37,88.154 156.033,92.887C157.725,97.701 158.798,102.252 159.456,106.856C160.104,111.394 160.318,115.765 160.417,120.033C160.463,121.991 160.482,123.935 160.492,125.873C160.504,128.175 160.503,130.469 160.503,132.764L160.503,177.554C160.503,179.849 160.504,182.144 160.492,184.432C160.482,186.359 160.463,188.28 160.417,190.186C160.318,194.34 160.104,198.463 159.456,202.253C158.798,206.097 157.725,209.409 156.033,212.27C154.37,215.082 152.198,217.279 149.606,218.776C149.335,218.932 149.059,219.081 148.78,219.222L148.78,219.253L135.601,226.861Z" style="fill:{{ color | default: 'currentColor' }};stroke:#000;stroke-width:1px;"/>
    <path d="M146.345,185.729C146.345,188.024 146.346,190.318 146.333,192.606C146.324,194.533 146.305,196.455 146.259,198.361C146.16,202.514 145.946,206.637 145.298,210.427C144.64,214.271 143.567,217.583 141.875,220.444C140.212,223.256 138.039,225.454 135.447,226.95C132.855,228.447 129.866,229.23 126.599,229.264C123.275,229.298 119.871,228.572 116.213,227.219C112.607,225.886 108.929,224.01 105.282,222.019C103.609,221.105 101.935,220.161 100.261,219.206C98.274,218.073 96.287,216.925 94.3,215.777L55.51,193.382C53.522,192.235 51.535,191.088 49.548,189.926C47.874,188.949 46.201,187.961 44.527,186.942C40.881,184.723 37.203,182.351 33.597,179.521C29.938,176.649 26.534,173.445 23.21,169.572C19.943,165.766 16.954,161.531 14.362,157.042C11.77,152.552 9.597,147.846 7.934,143.114C6.243,138.299 5.169,133.748 4.512,129.144C3.864,124.606 3.649,120.235 3.55,115.968C3.505,114.009 3.485,112.065 3.476,110.127C3.463,107.825 3.464,105.531 3.464,103.236L3.464,58.446C3.464,56.151 3.463,53.856 3.476,51.568C3.485,49.641 3.505,47.72 3.55,45.814C3.649,41.66 3.864,37.537 4.512,33.748C5.169,29.903 6.243,26.591 7.934,23.73C9.597,20.918 11.77,18.721 14.362,17.224C16.954,15.728 19.943,14.945 23.21,14.911C26.534,14.876 29.938,15.603 33.597,16.956C37.203,18.289 40.881,20.165 44.527,22.156C46.201,23.069 47.874,24.013 49.548,24.969C51.535,26.102 53.522,27.25 55.51,28.397L94.3,50.793C96.287,51.94 98.274,53.086 100.261,54.248C101.935,55.226 103.609,56.214 105.282,57.233C108.929,59.452 112.607,61.823 116.213,64.654C119.871,67.525 123.275,70.73 126.599,74.602C129.866,78.409 132.855,82.643 135.447,87.133C138.039,91.622 140.212,96.329 141.875,101.061C143.567,105.876 144.64,110.426 145.298,115.03C145.946,119.568 146.16,123.939 146.259,128.207C146.305,130.165 146.324,132.109 146.333,134.047C146.346,136.349 146.345,138.643 146.345,140.938L146.345,185.729Z" style="fill:none;stroke:#000;stroke-width:1px;stroke-linecap:round;stroke-miterlimit:1.5;"/>
    <g clip-path="url(#_clip1)">
        <image href="{{ artwork }}" width="512px" height="512px"  x="0" y="0" transform="matrix(0.27909,0.161133,-1.54926e-17,0.322266,3.4641,-2)"/>
    </g>
    <path d="M146.345,185.729C146.345,188.024 146.346,190.318 146.333,192.606C146.324,194.533 146.305,196.455 146.259,198.361C146.16,202.514 145.946,206.637 145.298,210.427C144.64,214.271 143.567,217.583 141.875,220.444C140.212,223.256 138.039,225.454 135.447,226.95C132.855,228.447 129.866,229.23 126.599,229.264C123.275,229.298 119.871,228.572 116.213,227.219C112.607,225.886 108.929,224.01 105.282,222.019C103.609,221.105 101.935,220.161 100.261,219.206C98.274,218.073 96.287,216.925 94.3,215.777L55.51,193.382C53.522,192.235 51.535,191.088 49.548,189.926C47.874,188.949 46.201,187.961 44.527,186.942C40.881,184.723 37.203,182.351 33.597,179.521C29.938,176.649 26.534,173.445 23.21,169.572C19.943,165.766 16.954,161.531 14.362,157.042C11.77,152.552 9.597,147.846 7.934,143.114C6.243,138.299 5.169,133.748 4.512,129.144C3.864,124.606 3.649,120.235 3.55,115.968C3.505,114.009 3.485,112.065 3.476,110.127C3.463,107.825 3.464,105.531 3.464,103.236L3.464,58.446C3.464,56.151 3.463,53.856 3.476,51.568C3.485,49.641 3.505,47.72 3.55,45.814C3.649,41.66 3.864,37.537 4.512,33.748C5.169,29.903 6.243,26.591 7.934,23.73C9.597,20.918 11.77,18.721 14.362,17.224C16.954,15.728 19.943,14.945 23.21,14.911C26.534,14.876 29.938,15.603 33.597,16.956C37.203,18.289 40.881,20.165 44.527,22.156C46.201,23.069 47.874,24.013 49.548,24.969C51.535,26.102 53.522,27.25 55.51,28.397L94.3,50.793C96.287,51.94 98.274,53.086 100.261,54.248C101.935,55.226 103.609,56.214 105.282,57.233C108.929,59.452 112.607,61.823 116.213,64.654C119.871,67.525 123.275,70.73 126.599,74.602C129.866,78.409 132.855,82.643 135.447,87.133C138.039,91.622 140.212,96.329 141.875,101.061C143.567,105.876 144.64,110.426 145.298,115.03C145.946,119.568 146.16,123.939 146.259,128.207C146.305,130.165 146.324,132.109 146.333,134.047C146.346,136.349 146.345,138.643 146.345,140.938L146.345,185.729Z" style="fill:none;stroke:#000;stroke-width:1px;stroke-linecap:round;stroke-miterlimit:1.5;"/>
</svg>
