{%- if post.data.title -%}{% assign title = post.data.title | downcase | slugify %}{%- endif -%}
{%- if post.data.artwork -%}{% assign artwork = post.data.artwork %}{%- endif -%}
<?xml version="1.0" encoding="UTF-8" standalone="no"?>
<!DOCTYPE svg PUBLIC "-//W3C//DTD SVG 1.1//EN" "http://www.w3.org/Graphics/SVG/1.1/DTD/svg11.dtd">
<svg  class="bounce" width="100%" height="100%" viewBox="0 0 559 783" version="1.1" xmlns="http://www.w3.org/2000/svg" xmlns:xlink="http://www.w3.org/1999/xlink" xml:space="preserve" xmlns:serif="http://www.serif.com/" style="fill-rule:evenodd;clip-rule:evenodd;stroke-linejoin:round;stroke-miterlimit:2;">
    <g id="Artboard1" transform="matrix(1.0054,0,0,0.951346,-647.204,-82.6372)">
        <rect x="643.725" y="86.863" width="555.09" height="822.137" style="fill:none;"/>
        <clipPath id="_clip1">
            <rect x="643.725" y="86.863" width="555.09" height="822.137"/>
        </clipPath>
        <g clip-path="url(#_clip1)">
            <g id="casing" transform="matrix(0.994625,0,-1.10426e-16,1.05114,-226.288,-34.8004)">
                <g transform="matrix(83.105,41.5525,4.95898e-15,68.8862,-128866,-47134.7)">
                    <clipPath id="_clip2">
                        <path d="M1561.99,-256.097L1567.71,-256.097C1567.81,-256.097 1567.85,-256.044 1567.85,-255.971L1567.85,-248.773C1567.85,-248.672 1567.81,-248.587 1567.71,-248.463C1567.52,-248.235 1567.21,-248.049 1567.02,-248.048L1561.3,-248.049C1561.3,-248.049 1561.27,-248.052 1561.27,-248.052C1561.2,-248.065 1561.17,-248.109 1561.17,-248.174L1561.17,-255.393C1561.17,-255.468 1561.22,-255.57 1561.32,-255.682C1561.5,-255.905 1561.8,-256.088 1561.99,-256.097Z"/>
                    </clipPath>
                    <g clip-path="url(#_clip2)">
                        <g transform="matrix(0.012033,-0.00725835,4.69699e-19,0.0145167,1561.16,-255.78)">
                            <use xlink:href="#caseGradient" x="0.725" y="7.112" width="556px" height="775px"/>
                        </g>
                    </g>
                </g>
                <g transform="matrix(-0.889242,-0.444621,1.11803,-0.559017,2595.97,668.524)">
                    <path d="M1536.74,-307.092C1553.86,-306.529 1567.54,-295.298 1567.54,-281.546C1567.54,-267.794 1553.86,-256.563 1536.74,-256.001L1539.41,-255.957L1002.27,-255.978C984.542,-255.996 970.269,-267.446 970.269,-281.546C970.269,-295.632 984.622,-307.073 1002.32,-307.114L1536.74,-307.092Z" style="fill:rgb(161,165,177);"/>
                </g>
            </g>
            <g id="screen" transform="matrix(0.994625,0,-1.10426e-16,1.05114,-226.288,-36.9027)">
                <g id="bezzle" transform="matrix(0.689467,0.344734,3.42325e-17,0.689467,847.244,125.969)">
                    <path d="M745.482,113.132L745.482,649.87C745.482,690.78 712.273,723.98 671.37,723.98L134.631,723.98C93.727,723.98 60.519,690.78 60.519,649.87L60.519,113.132C60.519,72.229 93.727,39.02 134.631,39.02L671.37,39.02C712.273,39.02 745.482,72.229 745.482,113.132Z" style="fill:rgb(7,0,0);"/>
                </g>
                <g transform="matrix(-0.868392,-0.434196,0.975938,-0.487969,2442.12,719.969)">
                    <path d="M1472.55,-284.247C1491.47,-264.276 1499.58,-235.337 1464.77,-236.019L1035.99,-236.019L1035.99,-242.167L1472.55,-284.247Z" style="fill:rgb(83,83,83);"/>
                </g>
                <path d="M1357.23,464.962L1361.23,462.962C1361.35,433.041 1340.49,400.961 1312.13,385.354L1306.13,388.316C1346.07,412.563 1353.73,439.607 1357.23,464.962Z" style="fill:rgb(28,28,28);"/>
                <g id="bezzle1" serif:id="bezzle" transform="matrix(0.689467,0.344734,3.42325e-17,0.689467,843.244,129.969)">
                    <path d="M745.482,113.132L745.482,649.87C745.482,690.78 712.273,723.98 671.37,723.98L134.631,723.98C93.727,723.98 60.519,690.78 60.519,649.87L60.519,113.132C60.519,72.229 93.727,39.02 134.631,39.02L671.37,39.02C712.273,39.02 745.482,72.229 745.482,113.132Z" style="fill:rgb(29,29,29);"/>
                </g>
                <g id="screen1" serif:id="screen" transform="matrix(0.689005,0.344502,3.42161e-17,0.689071,843.943,131.569)">
                    <path d="M665.225,130.788L665.225,634.212C665.225,640 660.525,644.7 654.737,644.7L151.263,644.7C145.475,644.7 140.775,640 140.775,634.212L140.775,130.788C140.775,125 145.475,120.3 151.263,120.3L654.737,120.3C660.525,120.3 665.225,125 665.225,130.788Z" style="fill:rgb(49,49,49);"/>
                </g>
                <g id="CoverArt" transform="matrix(0.591157,0.295579,-3.28158e-17,0.591157,948.093,274.272)">
                    <clipPath id="_clip4">
                        <path d="M592,7.185L592,584.815C592,588.78 589.424,592 586.252,592L5.748,592C2.576,592 0,588.78 0,584.815L0,7.185C0,3.22 2.576,-0 5.748,-0L586.252,-0C589.424,-0 592,3.22 592,7.185Z"/>
                    </clipPath>
                    <g clip-path="url(#_clip4)">
                        <use xlink:href="#coverArt-{{ title }}" x="0" y="0" width="592px" height="592px"/>
                    </g>
                </g>
                <g id="screenGlare" transform="matrix(0.689467,0.344734,3.42325e-17,0.689467,843.244,129.969)">
                    <path d="M745.482,113.132L134.631,723.98C93.727,723.98 60.519,690.78 60.519,649.87L60.519,113.132C60.519,72.229 93.727,39.02 134.631,39.02L671.37,39.02C712.273,39.02 745.482,72.229 745.482,113.132Z" style="fill:white;fill-opacity:0.06;"/>
                </g>
                <g id="screenGlare1" serif:id="screenGlare" transform="matrix(0.689467,0.344734,3.42325e-17,0.689467,843.244,129.969)">
                    <path d="M671.37,39.02L60.519,649.87L60.519,113.132C60.519,72.229 93.727,39.02 134.631,39.02L671.37,39.02Z" style="fill:white;fill-opacity:0.06;"/>
                </g>
            </g>
            <g id="powerButton" transform="matrix(0.994625,0,0,1.05114,-237.799,-37.9984)">
                <g id="powerButtonBase" transform="matrix(1.40998,-0.704988,1.72174,0.860869,-735.43,-166.179)">
                    <clipPath id="_clip6">
                        <path d="M364.1,850.251C367.291,847.75 371.617,846.212 376.379,846.212C386.182,846.212 394.141,852.73 394.141,860.758L394.141,927.191C394.141,931.093 392.261,934.638 389.203,937.251L389.209,937.251L381.415,943.633C378.19,946.324 373.7,947.994 368.737,947.994C358.934,947.994 350.975,941.477 350.975,933.449L350.975,867.015C350.975,862.951 353.015,859.273 356.302,856.633L364.1,850.251Z"/>
                    </clipPath>
                    <g clip-path="url(#_clip6)">
                        <g transform="matrix(0.354616,0.290404,-0.709232,0.580808,372.981,636.464)">
                            <use xlink:href="#powerButtonGradient" x="355.555" y="172.986" width="186px" height="104px"/>
                        </g>
                    </g>
                </g>
                <g id="powerButtonBevel" transform="matrix(1.40998,-0.704988,1.72174,0.860869,-735.43,-180.477)">
                    <path d="M348.476,869.055C348.476,861.027 356.435,854.509 366.238,854.509C376.041,854.509 385.418,860.743 385.418,868.771L385.353,934.36C385.353,942.388 376.041,950.041 366.238,950.041C356.435,950.041 348.476,943.523 348.476,935.495L348.476,869.055Z" style="fill:rgb(185,185,185);fill-opacity:0.65;"/>
                </g>
                <g id="PowerButtonTop" transform="matrix(1.36561,-0.682805,1.66756,0.833782,-669.801,-166.699)">
                    <path d="M348.476,869.055C348.476,861.027 356.435,854.509 366.238,854.509C376.041,854.509 384,861.027 384,869.055L384,935.495C384,943.523 376.041,950.041 366.238,950.041C356.435,950.041 348.476,943.523 348.476,935.495L348.476,869.055Z" style="fill:rgb(157,157,157);"/>
                </g>
            </g>
            <g id="plusButton" transform="matrix(0.954876,-2.91751e-17,-1.10426e-16,1.00913,-184.906,-23.3292)">
                <g id="plusButtonBase" transform="matrix(-0.042686,0.021343,2.20522e-18,0.95037,1080.31,174.495)">
                    <clipPath id="_clip8">
                        <path d="M1781.49,-22.972C1783.77,-28.058 1699.44,-31.215 1528.52,-31.215C1191.22,-31.215 643.613,-18.919 306.411,-3.774C131.668,4.075 47.5,11.158 53.898,16.162L53.898,27.29C47.498,32.583 131.728,35.887 306.58,35.887C643.876,35.887 1191.48,23.591 1528.68,8.445C1695.3,0.962 1779.57,-5.826 1781.5,-10.778L1781.54,-7.289L1781.54,-22.974L1781.49,-22.972Z"/>
                    </clipPath>
                    <g clip-path="url(#_clip8)">
                        <g transform="matrix(-24.4021,0.548011,-2.76533e-15,1.09602,4978.7,-180.519)">
                            <use xlink:href="#volumeButtonGradient" x="131.02" y="60.344" width="71px" height="47px"/>
                        </g>
                    </g>
                </g>
                <g id="plusButtonBevel" transform="matrix(1.30435,-0.652174,1.62998,0.814992,-341.709,-41.3532)">
                    <ellipse cx="352.346" cy="566.4" rx="20" ry="16" style="fill:rgb(185,185,185);fill-opacity:0.65;"/>
                </g>
                <g id="plusButtonTop" transform="matrix(1.21376,-0.606881,1.51547,0.757734,-244.909,-26.724)">
                    <ellipse cx="352.346" cy="566.4" rx="20" ry="16" style="fill:rgb(157,157,157);"/>
                </g>
                <g id="plus" transform="matrix(1,0,0,1,0,-3.5182)">
                    <g transform="matrix(1.01334,-0.506671,1.11803,0.559017,70.2496,79.3619)">
                        <path d="M364.939,531.2L364.94,518.399L372,518.4L372,531.2L386.122,531.2L386.122,537.6L372,537.6L372,550.4L364.939,550.4L364.939,537.6L350.816,537.6L350.816,531.2L364.939,531.2Z" style="fill:rgb(142,142,142);"/>
                    </g>
                    <g transform="matrix(0.894427,0.447214,5.55112e-17,1.11803,114.503,57.241)">
                        <path d="M1011.98,-291.2L1015.98,-291.2L1019.98,-294.4L1019.98,-297.6L1011.98,-291.2Z" style="fill:rgb(91,91,91);"/>
                    </g>
                    <g transform="matrix(0.894427,0.447214,5.55112e-17,1.11803,135.999,60.8453)">
                        <path d="M1011.95,-291.201L1011.95,-288L1027.95,-300.816L1027.96,-304.012L1011.95,-291.201Z" style="fill:rgb(91,91,91);"/>
                    </g>
                    <g transform="matrix(0.894427,0.447214,5.55112e-17,1.11803,114.526,71.5819)">
                        <path d="M1011.96,-291.207L1015.96,-291.207L1027.95,-300.807L1027.95,-304.006L1011.96,-291.207Z" style="fill:rgb(91,91,91);"/>
                    </g>
                    <g transform="matrix(0.894427,0.447214,5.55112e-17,1.11803,114.525,57.2624)">
                        <path d="M1059.96,-297.599L1055.96,-294.399L1043.96,-294.4L1043.96,-297.6L1059.96,-297.599Z" style="fill:rgb(169,169,169);"/>
                    </g>
                    <g transform="matrix(0.894427,0.447214,5.55112e-17,1.11803,121.648,46.5255)">
                        <path d="M1051.99,-297.61L1047.99,-294.411L1043.99,-294.411L1043.99,-297.611L1051.99,-297.61Z" style="fill:rgb(169,169,169);"/>
                    </g>
                    <g transform="matrix(0.894427,0.447214,5.55112e-17,1.11803,93.0684,46.5349)">
                        <path d="M1059.95,-297.601L1059.95,-294.4L1043.96,-294.4L1043.96,-297.6L1059.95,-297.601Z" style="fill:rgb(169,169,169);"/>
                    </g>
                </g>
            </g>
            <g id="minusButton" transform="matrix(0.954876,0,0,1.00913,-189.456,-25.7331)">
                <g id="minusButtonBase" transform="matrix(-0.042686,0.021343,2.20522e-18,0.95037,965.784,117.231)">
                    <clipPath id="_clip10">
                        <path d="M1781.49,-22.972C1783.77,-28.058 1699.44,-31.215 1528.52,-31.215C1191.22,-31.215 643.613,-18.919 306.411,-3.774C131.668,4.075 47.5,11.158 53.898,16.162L53.898,27.29C47.498,32.583 131.728,35.887 306.58,35.887C643.876,35.887 1191.48,23.591 1528.68,8.445C1695.3,0.962 1779.57,-5.826 1781.5,-10.778L1781.54,-7.289L1781.54,-22.974L1781.49,-22.972Z"/>
                    </clipPath>
                    <g clip-path="url(#_clip10)">
                        <g transform="matrix(-24.4021,0.548011,5.6622e-17,1.09602,2184.09,-54.9987)">
                            <use xlink:href="#volumeButtonGradient" x="16.497" y="3.083" width="71px" height="47px"/>
                        </g>
                    </g>
                </g>
                <g id="minusButtonBevel" transform="matrix(1.30435,-0.652174,1.62998,0.814992,-456.187,-98.5922)">
                    <ellipse cx="352.346" cy="566.4" rx="20" ry="16" style="fill:rgb(185,185,185);fill-opacity:0.65;"/>
                </g>
                <g id="minusButtonTop" transform="matrix(1.21208,-0.60604,1.51488,0.757442,-358.461,-84.059)">
                    <ellipse cx="352.346" cy="566.4" rx="20" ry="16" style="fill:rgb(157,157,157);"/>
                </g>
                <g id="minus" transform="matrix(1,0,0,1,-3.48181,-1.7409)">
                    <g transform="matrix(0.907768,-0.453884,1.11142,0.55571,-1.48044,4.27489)">
                        <rect x="368.04" y="518.305" width="7.882" height="32.173" style="fill:rgb(142,142,142);"/>
                    </g>
                    <g transform="matrix(0.894427,0.447214,5.55112e-17,1.11803,3.50846,-1.75423)">
                        <path d="M1059.98,-297.6L1056,-294.417L1020,-294.4L1020,-297.6L1059.98,-297.6Z" style="fill:rgb(169,169,169);"/>
                    </g>
                    <g transform="matrix(0.894427,0.447214,5.55112e-17,1.11803,3.52646,-1.74473)">
                        <path d="M1011.98,-291.2L1015.98,-291.2L1019.98,-294.4L1019.98,-297.6L1011.98,-291.2Z" style="fill:rgb(91,91,91);"/>
                    </g>
                </g>
            </g>
        </g>
    </g>
    <defs>
        <image id="caseGradient" width="556px" height="775px" xlink:href="/assets/images/site/ipod-nano/case.png"/>
        <image id="coverArt-{{ title }}" width="592px" height="592px" xlink:href="{{ artwork }}"/>
        <image id="powerButtonGradient" width="186px" height="104px" xlink:href="/assets/images/site/ipod-nano/power.png"/>
        <image id="volumeButtonGradient" width="71px" height="47px" xlink:href="/assets/images/site/ipod-nano/volume.png"/>
    </defs>
</svg>
