<?xml version="1.0" encoding="UTF-8" standalone="no"?>
<!DOCTYPE svg PUBLIC "-//W3C//DTD SVG 1.1//EN" "http://www.w3.org/Graphics/SVG/1.1/DTD/svg11.dtd">
<svg width="100%" height="100%" viewBox="0 0 146 220" version="1.1" xmlns="http://www.w3.org/2000/svg" xmlns:xlink="http://www.w3.org/1999/xlink" xml:space="preserve" xmlns:serif="http://www.serif.com/" style="fill-rule:evenodd;clip-rule:evenodd;stroke-linecap:round;stroke-linejoin:round;stroke-miterlimit:1.5;">
    {%- if post.data.title -%}{% assign title = post.data.title | downcase | slugify %}{%- endif -%}
    {%- if post.data.artwork -%}{% assign artwork = post.data.artwork %}{%- endif -%}
    <rect id="iPod-nano" serif:id="iPod nano" x="0" y="0" width="145.492" height="220" style="fill:none;"/>
    <path d="M20.383,4.317L139.096,72.853C141.218,74.081 142.028,75.535 142.028,76.857L141.993,210.642C141.993,212.503 141.18,213.6 139.058,214.639C135.126,216.562 128.747,216.285 124.807,214.022L6.128,145.497C6.017,145.427 5.5,145.068 5.5,145.068C4.116,144.031 3.437,142.829 3.466,141.663L3.464,7.469C3.498,6.117 4.483,4.812 6.417,3.865C10.255,1.987 16.426,2.2 20.383,4.317ZM110.207,93.057C110.207,91.409 109.204,89.492 107.968,88.778L20.019,38.001C18.783,37.287 17.78,38.046 17.78,39.694L17.78,133.245C17.78,134.892 18.783,136.81 20.019,137.523L107.968,188.3C109.204,189.014 110.207,188.255 110.207,186.607L110.207,93.057Z" style="fill:#5d6174;stroke:#000;stroke-width:1px;"/>
    <path d="M6.376,11.471C2.702,9.182 2.554,5.743 6.109,3.69C9.665,1.638 15.62,1.724 19.585,3.845L19,3.493L138.843,72.691C142.793,74.977 143.017,78.525 139.372,80.63C135.73,82.732 129.57,82.591 125.61,80.317L6.376,11.471Z" style="fill:#9da1ad;stroke:#000;stroke-width:1px;"/>
    <path d="M8.205,8.734C8.205,8.734 8.205,6.111 8.205,6.105L8.205,5.9L8.216,5.893C8.305,4.974 8.958,4.069 10.174,3.367C12.8,1.851 17.063,1.851 19.689,3.367C20.905,4.069 21.557,4.974 21.647,5.893L21.658,5.9C21.658,5.9 21.658,6.117 21.658,6.123L21.658,8.734C21.658,8.765 21.658,8.796 21.658,8.828C21.638,9.806 20.981,10.781 19.689,11.527C17.063,13.043 12.8,13.043 10.174,11.527C8.882,10.781 8.225,9.806 8.205,8.828C8.205,8.796 8.205,8.765 8.205,8.734Z" style="fill:#8E8E8E;stroke:#000;stroke-width:1px;"/>
    <path d="M10.174,3.367C12.8,1.851 17.063,1.851 19.689,3.367C22.314,4.883 22.314,7.345 19.689,8.861C17.063,10.377 12.8,10.377 10.174,8.861C7.548,7.345 7.548,4.883 10.174,3.367Z" style="fill:#BEBEBE;stroke:#000;stroke-width:1px;"/>
    <path d="M30.872,21.821C30.872,21.821 30.871,19.198 30.871,19.192L30.871,18.986L30.882,18.98C30.972,18.06 31.625,17.156 32.841,16.454C35.466,14.938 39.73,14.938 42.355,16.454C43.571,17.156 44.224,18.06 44.314,18.98L44.325,18.986C44.325,18.986 44.325,19.204 44.325,19.21L44.325,21.821C44.325,21.852 44.325,21.883 44.325,21.914C44.304,22.893 43.648,23.868 42.355,24.614C39.73,26.13 35.466,26.13 32.841,24.614C31.548,23.868 30.892,22.893 30.872,21.914C30.871,21.883 30.871,21.852 30.872,21.821Z" style="fill:#8E8E8E;stroke:#000;stroke-width:1px;"/>
    <path d="M32.841,16.454C35.466,14.938 39.73,14.938 42.355,16.454C44.981,17.97 44.981,20.431 42.355,21.947C39.73,23.463 35.466,23.463 32.841,21.947C30.215,20.431 30.215,17.97 32.841,16.454Z" style="fill:#BEBEBE;stroke:#000;stroke-width:1px;"/>
    <path d="M36.273,19.201L33.621,17.67L34.947,16.905L37.598,18.435L40.249,16.905L41.575,17.67L38.924,19.201L41.575,20.731L40.249,21.497L37.598,19.966L34.947,21.497L33.621,20.731L36.273,19.201Z" style="fill:#8E8E8E;stroke:#000;stroke-width:1px;"/>
    <path d="M17.503,8.341L11.074,4.629L12.36,3.887L18.789,7.599L17.503,8.341Z" style="fill:#8E8E8E;stroke:#000;stroke-width:1px;"/>
    <path d="M100.841,63.874C99.548,63.128 98.892,62.153 98.872,61.174L98.871,58.246L98.882,58.24C98.972,57.32 99.625,56.416 100.841,55.714C103.466,54.198 107.73,54.198 110.355,55.714C111.571,56.416 132.619,68.568 134.355,69.57C135.571,70.272 136.224,71.177 136.314,72.096L136.325,72.102L136.325,75.03C136.304,76.009 135.648,76.984 134.355,77.73C131.73,79.246 127.466,79.246 124.841,77.73C124.721,77.661 124.607,77.59 124.498,77.517L124.485,77.525L100.841,63.874Z" style="fill:#8E8E8E;stroke:#000;stroke-width:1px;"/>
    <path d="M100.841,61.207C98.215,59.691 98.215,57.23 100.841,55.714C103.466,54.198 107.73,54.198 110.355,55.714C110.475,55.783 110.589,55.854 110.698,55.927L133.987,69.372C134.113,69.435 134.236,69.501 134.355,69.57C136.981,71.086 136.981,73.548 134.355,75.064C131.73,76.579 127.466,76.579 124.841,75.064C124.721,74.994 124.607,74.923 124.498,74.851L124.485,74.858L100.841,61.207Z" style="fill:#BEBEBE;stroke:#000;stroke-width:1px;"/>
    <use xlink:href="#coverArt-{{ title }}" x="0" y="0" width="500px" height="500px" transform="matrix(0.187061,0.108,-1.0384e-17,0.216,17.3205,32)"/>
    <path id="bezzle" d="M118.651,203.118C116.342,204.673 112.905,204.522 109.069,202.307L17.897,149.669C10.949,145.657 5.308,136.385 5.308,128.973L5.308,31.722C5.308,28.503 6.372,26.161 8.146,24.871L8.114,24.853L11.54,22.875L11.56,22.886C13.832,21.816 16.948,22.144 20.382,24.127L111.555,76.766C118.503,80.777 124.144,90.051 124.144,97.462L124.144,194.713C124.144,198.057 122.995,200.455 121.096,201.71C120.916,201.829 120.73,201.937 120.537,202.035L118.666,203.125L118.651,203.118ZM110.207,93.057C110.207,91.409 109.204,89.492 107.968,88.778L20.019,38.001C18.783,37.287 17.78,38.046 17.78,39.694L17.78,133.245C17.78,134.892 18.783,136.81 20.019,137.523L107.968,188.3C109.204,189.014 110.207,188.255 110.207,186.607L110.207,93.057Z" style="fill:#1d1d1d;stroke:#000;stroke-width:1px;stroke-linecap:butt;stroke-miterlimit:2;"/>
    <path d="M111.926,93.251L111.926,189.576C111.926,191.784 110.582,192.8 108.927,191.844L18.04,139.37C16.384,138.414 15.04,135.847 15.04,133.639L15.04,37.314C15.04,35.107 16.384,34.091 18.04,35.047L108.927,87.52C110.582,88.476 111.926,91.044 111.926,93.251ZM110.207,93.057C110.207,91.409 109.204,89.492 107.968,88.778L20.019,38.001C18.783,37.287 17.78,38.046 17.78,39.694L17.78,133.245C17.78,134.892 18.783,136.81 20.019,137.523L107.968,188.3C109.204,189.014 110.207,188.255 110.207,186.607L110.207,93.057Z" style="fill:#313131;stroke:#000;stroke-width:1px;stroke-linecap:butt;stroke-miterlimit:2;"/>
    <path id="bezzle1" serif:id="bezzle" d="M109.069,78.201L5.308,128.973L5.308,31.722C5.308,24.311 10.949,21.551 17.897,25.562L109.069,78.201Z" style="fill:#fff;fill-opacity:0.2;"/>
    <path id="bezzle2" serif:id="bezzle" d="M121.658,98.897L17.897,149.669C10.949,145.657 5.308,136.385 5.308,128.973L5.308,31.722C5.308,24.311 10.949,21.551 17.897,25.562L109.069,78.201C116.017,82.212 121.658,91.486 121.658,98.897Z" style="fill:#fff;fill-opacity:0.2;"/>
    <path id="bezzle3" serif:id="bezzle" d="M121.658,98.897L121.658,196.148C121.658,203.56 116.017,206.319 109.069,202.307L17.897,149.669C10.949,145.657 5.308,136.385 5.308,128.973L5.308,31.722C5.308,24.311 10.949,21.551 17.897,25.562L109.069,78.201C116.017,82.212 121.658,91.486 121.658,98.897Z" style="fill:none;stroke:#000;stroke-width:1px;stroke-linecap:butt;stroke-miterlimit:2;"/>
    <defs>
        <image id="coverArt-{{ title }}" width="500px" height="500px" xlink:href="{{ artwork }}"/>
    </defs>
</svg>
