<?xml version="1.0" encoding="UTF-8" standalone="no"?>
<!DOCTYPE svg PUBLIC "-//W3C//DTD SVG 1.1//EN" "http://www.w3.org/Graphics/SVG/1.1/DTD/svg11.dtd">
<svg width="100%" height="100%" viewBox="0 0 1065 675" version="1.1" xmlns="http://www.w3.org/2000/svg" xmlns:xlink="http://www.w3.org/1999/xlink" xml:space="preserve" xmlns:serif="http://www.serif.com/" style="fill-rule:evenodd;clip-rule:evenodd;stroke-linecap:round;stroke-linejoin:round;stroke-miterlimit:1;">
    <g transform="matrix(1,0,0,1,-3623.27,4.44089e-15)">
        <g id="Layer1">
        </g>
        <g id="Lists" transform="matrix(1.24975,0,0,1.19681,586.23,-5.98404)">
            <rect x="2430.11" y="5" width="852.169" height="564" style="fill:none;"/>
            <g transform="matrix(0.692958,-0.417778,0.751161,0.452868,-468.885,119.973)">
                <path d="M1929.36,2093.39l60.061,-55.407l479.878,-0l-0,664.154l-5.835,0.057l-0.165,5.478l-6,0.209l-0,5.326l-5.774,0l-0.226,5.536l-6,0.208l-0,5.327l-6,0.209l-0.061,5.382l-5.742,-0.03l-0.197,5.509l-5.719,-0l-0.281,5.535l-6,0.209l-0,5.326l-5.774,-0l-0.226,5.535l-5.774,0l-0.287,5.591l-479.878,0l-0,-664.154Z" style="fill:white;stroke:black;stroke-width:2.35px;"/>
            </g>
            <g transform="matrix(0.692958,-0.417778,0.751161,0.452868,-468.885,74.802)">
                <path d="M2409.24,2757.54l-479.878,0l-0,-664.154" style="fill:none;stroke:black;stroke-width:2.35px;"/>
            </g>
            <g transform="matrix(0.692958,-0.417778,0.751161,0.452868,-468.885,69.7886)">
                <path d="M2409.24,2757.54l-479.878,0l-0,-664.154" style="fill:none;stroke:black;stroke-width:2.35px;"/>
            </g>
            <g transform="matrix(0.692958,-0.417778,0.751161,0.452868,-468.885,79.8153)">
                <path d="M2409.24,2757.54l-479.878,0l-0,-664.154" style="fill:none;stroke:black;stroke-width:2.35px;"/>
            </g>
            <g transform="matrix(0.692958,-0.417778,0.751161,0.452868,-468.885,84.8286)">
                <path d="M2409.24,2757.54l-479.878,0l-0,-664.154" style="fill:none;stroke:black;stroke-width:2.35px;"/>
            </g>
            <g transform="matrix(0.692958,-0.417778,0.751161,0.452868,-468.885,89.842)">
                <path d="M2409.24,2757.54l-479.878,0l-0,-664.154" style="fill:none;stroke:black;stroke-width:2.35px;"/>
            </g>
            <g transform="matrix(0.692958,-0.417778,0.751161,0.452868,-468.885,94.8553)">
                <path d="M2409.24,2757.54l-479.878,0l-0,-664.154" style="fill:none;stroke:black;stroke-width:2.35px;"/>
            </g>
            <g transform="matrix(0.692958,-0.417778,0.751161,0.452868,-468.885,99.8686)">
                <path d="M2409.24,2757.54l-479.878,0l-0,-664.154" style="fill:none;stroke:black;stroke-width:2.35px;"/>
            </g>
            <g transform="matrix(0.692958,-0.417778,0.751161,0.452868,-468.885,104.882)">
                <path d="M2409.24,2757.54l-479.878,0l-0,-664.154" style="fill:none;stroke:black;stroke-width:2.35px;"/>
            </g>
            <g transform="matrix(0.692958,-0.417778,0.751161,0.452868,-468.885,109.895)">
                <path d="M2409.24,2757.54l-479.878,0l-0,-664.154" style="fill:none;stroke:black;stroke-width:2.35px;"/>
            </g>
            <g transform="matrix(0.692958,-0.417778,0.751161,0.452868,-468.885,114.909)">
                <path d="M2409.24,2757.54l-479.878,0l-0,-664.154" style="fill:none;stroke:black;stroke-width:2.35px;"/>
            </g>
            <g transform="matrix(0.68371,-0.412202,0.751404,0.453015,-451.55,58.7247)">
                <path d="M2409.24,2093.39l-0,656.774l-479.878,1.544l-0,-658.318l479.878,-0Z" style="fill-opacity:0.24;"/>
            </g>
            <g transform="matrix(0.692958,-0.417778,0.751161,0.452868,-468.885,69.7886)">
                <path d="M2409.24,2093.39c-0,-0 -3,417.097 -0,525.022c1.147,41.265 18,122.527 18,122.527l-489.878,9.225c-0,0 -7.471,-86.726 -8,-130.208c-1.334,-109.462 -0,-526.566 -0,-526.566l479.878,-0Z" style="fill:white;stroke:black;stroke-width:2.35px;"/>
            </g>
            <g transform="matrix(0.800159,0,0,0.835556,-477.821,-10.901)">
                <path d="M4140.87,71.5l-415.967,240.159" style="fill:none;stroke:rgb(188,188,188);stroke-width:1px;"/>
            </g>
            <g transform="matrix(0.800159,0,0,0.835556,-436.244,14.1656)">
                <path d="M4140.87,71.5l-415.967,240.159" style="fill:none;stroke:rgb(188,188,188);stroke-width:1px;"/>
            </g>
            <g transform="matrix(0.800159,0,0,0.835556,-394.666,39.2323)">
                <path d="M4140.87,71.5l-415.967,240.159" style="fill:none;stroke:rgb(188,188,188);stroke-width:1px;"/>
            </g>
            <g transform="matrix(0.800159,0,0,0.835556,-353.089,64.299)">
                <path d="M4140.87,71.5l-415.967,240.159" style="fill:none;stroke:rgb(188,188,188);stroke-width:1px;"/>
            </g>
            <g transform="matrix(0.800159,0,0,0.835556,-311.401,89.4319)">
                <path d="M4140.87,71.5l-415.967,240.159" style="fill:none;stroke:rgb(188,188,188);stroke-width:1px;"/>
            </g>
            <g transform="matrix(0.800159,0,0,0.835556,-269.824,114.499)">
                <path d="M4140.87,71.5l-415.967,240.159" style="fill:none;stroke:rgb(188,188,188);stroke-width:1px;"/>
            </g>
            <g transform="matrix(0.800159,0,0,0.835556,-228.356,139.499)">
                <path d="M4140.87,71.5l-415.967,240.159" style="fill:none;stroke:rgb(188,188,188);stroke-width:1px;"/>
            </g>
            <g transform="matrix(0.800159,0,0,0.835556,-186.779,164.566)">
                <path d="M4140.87,71.5l-415.967,240.159" style="fill:none;stroke:rgb(188,188,188);stroke-width:1px;"/>
            </g>
            <g transform="matrix(0.800159,0,0,0.835556,-145.202,189.632)">
                <path d="M4140.87,71.5l-415.967,240.159" style="fill:none;stroke:rgb(188,188,188);stroke-width:1px;"/>
            </g>
            <g transform="matrix(0.800159,0,0,0.835556,-99.6233,212.287)">
                <path d="M4140.87,71.5l-415.967,240.159" style="fill:none;stroke:rgb(188,188,188);stroke-width:1px;"/>
            </g>
            <g transform="matrix(0.692958,-0.417778,0.751161,0.452868,-468.885,69.7886)">
                <path d="M2409.24,2093.39c-0,-0 -3,417.097 -0,525.022c1.147,41.265 18,122.527 18,122.527l-489.878,9.225c-0,0 -7.471,-86.726 -8,-130.208c-1.334,-109.462 -0,-526.566 -0,-526.566l479.878,-0Z" style="fill:none;stroke:black;stroke-width:2.35px;"/>
            </g>
            <g transform="matrix(0.748668,-0.451365,2.38804,1.43973,-4008.75,-1992.26)">
                <path d="M1894.37,2150.29c-0.028,-0.083 -0.078,-0.159 -0.15,-0.227c-0.071,-0.068 -0.15,-0.144 -0.235,-0.228c-0.143,-0.126 -0.272,-0.262 -0.386,-0.408c-0.114,-0.147 -0.172,-0.32 -0.172,-0.519c0.058,-0.104 0.129,-0.18 0.215,-0.227c0.085,-0.048 0.171,-0.087 0.257,-0.118l0.171,-0.283l0.643,0c0.229,0.011 0.464,0.016 0.707,0.016l0.707,-0c1.086,-0 2.2,-0.016 3.343,-0.047c1.143,-0.032 2.314,-0.068 3.514,-0.11c1.314,-0.063 2.729,-0.11 4.243,-0.142c0.143,-0.115 0.235,-0.188 0.278,-0.22c0.043,-0.031 0.093,-0.068 0.15,-0.109l0.472,-0.095c0.657,-0.01 1.114,0.019 1.371,0.087c0.257,0.068 0.457,0.133 0.6,0.196c0.743,-0.021 1.5,-0.05 2.271,-0.086c0.772,-0.037 1.572,-0.076 2.4,-0.118c1.143,-0.053 2.3,-0.105 3.471,-0.157c1.172,-0.053 2.315,-0.079 3.429,-0.079c0.486,0 0.943,0.005 1.371,0.016c0.429,0.01 0.843,0.026 1.243,0.047l0.514,0.141c0.115,0.074 0.257,0.142 0.429,0.205c0.171,0.062 0.371,0.125 0.6,0.188c0.428,0.126 0.85,0.283 1.264,0.471c0.414,0.189 0.564,0.466 0.45,0.833l-0.214,0.157c-0.115,0.042 -0.257,0.084 -0.429,0.125l-0.428,0.205l-0.472,-0c-0.285,-0 -0.5,0.007 -0.643,0.023c-0.142,0.016 -0.314,0.039 -0.514,0.071c-0.114,0.021 -0.243,0.039 -0.386,0.055c-0.142,0.015 -0.3,0.034 -0.471,0.055c-0.314,-0.011 -0.557,-0.016 -0.728,-0.016l-0.6,0c-0.858,0 -1.786,0.021 -2.786,0.063c-1,0.042 -1.971,0.089 -2.914,0.141c-0.686,0.032 -1.343,0.06 -1.971,0.087c-0.629,0.026 -1.2,0.049 -1.715,0.07c-0.285,0.273 -0.543,0.513 -0.771,0.723c-0.229,0.209 -0.471,0.419 -0.729,0.628c-0.257,0.209 -0.5,0.422 -0.728,0.636c-0.229,0.215 -0.443,0.453 -0.643,0.715c-0.343,0.188 -0.629,0.369 -0.857,0.542c-0.229,0.172 -0.414,0.369 -0.557,0.589c-0.429,0.178 -0.736,0.371 -0.922,0.581c-0.185,0.209 -0.35,0.387 -0.492,0.534l-0.172,0.235c-0.2,0.074 -0.321,0.131 -0.364,0.173c-0.043,0.042 -0.122,0.089 -0.236,0.142c-0.085,0.136 -0.2,0.267 -0.343,0.392c-0.057,0.053 -0.114,0.108 -0.171,0.165c-0.057,0.058 -0.071,0.102 -0.043,0.134c-0.057,0.115 -0.143,0.204 -0.257,0.267c-0,0.062 -0.014,0.125 -0.043,0.188c-0.028,0.063 -0.057,0.126 -0.086,0.189c-0.057,0.073 -0.1,0.138 -0.128,0.196c-0.029,0.057 -0.014,0.112 0.043,0.165c0.085,0.042 0.171,0.084 0.257,0.125c0.086,0.042 0.157,0.095 0.214,0.158c0.057,0.02 0.129,0.036 0.214,0.047c0.086,0.01 0.158,0.026 0.215,0.047c0.228,0.073 0.442,0.115 0.642,0.125l0.429,0.189c0.171,0.377 0.014,0.67 -0.471,0.879c-0.515,0.241 -1.372,0.362 -2.572,0.362l-0.6,-0.016c-0.2,-0.073 -0.314,-0.12 -0.342,-0.141c-0.258,-0.042 -0.472,-0.076 -0.643,-0.102c-0.172,-0.027 -0.329,-0.076 -0.472,-0.15c-0.057,-0.021 -0.128,-0.034 -0.214,-0.039c-0.086,-0.005 -0.157,-0.018 -0.214,-0.039c-0.286,-0.032 -0.515,-0.068 -0.686,-0.11l-0.471,-0.094c0.028,-0.105 0.043,-0.178 0.043,-0.22c-0.229,-0.115 -0.408,-0.241 -0.536,-0.377c-0.129,-0.136 -0.236,-0.278 -0.322,-0.424c-0.085,-0.115 -0.164,-0.22 -0.235,-0.314c-0.072,-0.095 -0.179,-0.178 -0.322,-0.252c-0.057,-0.733 0.129,-1.348 0.557,-1.845c0.429,-0.498 0.9,-0.982 1.415,-1.453c0.285,-0.251 0.557,-0.508 0.814,-0.77c0.257,-0.261 0.486,-0.528 0.686,-0.801l0.471,-0.172c0.2,-0.063 0.329,-0.1 0.386,-0.11c-0,-0.137 0.071,-0.27 0.214,-0.401c0.143,-0.131 0.3,-0.264 0.471,-0.4c0.115,-0.084 0.222,-0.168 0.322,-0.252c0.1,-0.084 0.164,-0.157 0.193,-0.22c-0.2,0 -0.379,0.003 -0.536,0.008c-0.157,0.005 -0.322,0.013 -0.493,0.024c-0.371,0.031 -0.728,0.047 -1.071,0.047c-0.257,-0 -0.443,-0.005 -0.557,-0.016c-0.229,0.042 -0.443,0.066 -0.643,0.071c-0.2,0.005 -0.4,0.008 -0.6,0.008l-1.029,-0c-0.343,-0 -0.614,0.015 -0.814,0.047l-2.186,-0c-0.228,-0 -0.485,-0.008 -0.771,-0.024c-0.286,-0.015 -0.586,-0.055 -0.9,-0.118l-0.3,-0.125c-0.171,-0.115 -0.328,-0.178 -0.471,-0.189l-0.472,-0.047l0,-0.173Z" style="fill:rgb(200,4,27);fill-rule:nonzero;"/>
                <path d="M1943.74,2154.44c-0.028,0.126 0,0.246 0.086,0.361c0.086,0.115 0.193,0.228 0.321,0.338c0.129,0.11 0.25,0.222 0.365,0.338c0.114,0.115 0.2,0.23 0.257,0.345c0.057,0.147 0.057,0.306 -0,0.479c-0.057,0.173 -0.157,0.34 -0.3,0.503c-0.143,0.162 -0.329,0.309 -0.557,0.44c-0.229,0.13 -0.5,0.227 -0.815,0.29c-0.4,0.189 -0.885,0.335 -1.457,0.44c-0.571,0.105 -1.1,0.23 -1.585,0.377c-0.315,0.073 -0.665,0.125 -1.05,0.157c-0.386,0.031 -0.779,0.063 -1.179,0.094c-0.314,0.063 -0.685,0.128 -1.114,0.196c-0.429,0.069 -0.871,0.131 -1.329,0.189c-0.457,0.058 -0.914,0.099 -1.371,0.126c-0.457,0.026 -0.857,0.034 -1.2,0.023c-0.857,0.115 -1.693,0.191 -2.507,0.228c-0.814,0.037 -1.764,0.013 -2.85,-0.071c-1.028,0.053 -1.978,0.037 -2.85,-0.047c-0.871,-0.084 -1.642,-0.217 -2.314,-0.4c-0.671,-0.184 -1.257,-0.404 -1.757,-0.66c-0.5,-0.257 -0.907,-0.526 -1.221,-0.809c-0.229,-0.597 -0.172,-1.139 0.171,-1.626c0.343,-0.486 0.836,-0.937 1.479,-1.35c0.643,-0.414 1.378,-0.796 2.207,-1.147c0.828,-0.351 1.628,-0.694 2.4,-1.029c0.171,0.021 0.307,0.019 0.407,-0.007c0.1,-0.027 0.193,-0.063 0.278,-0.11c0.086,-0.048 0.179,-0.092 0.279,-0.134c0.1,-0.042 0.221,-0.068 0.364,-0.078c0.2,-0.158 0.493,-0.275 0.879,-0.354c0.385,-0.078 0.693,-0.191 0.921,-0.338c0.257,-0.02 0.472,-0.052 0.643,-0.094c0.171,-0.042 0.336,-0.089 0.493,-0.141c0.157,-0.053 0.321,-0.102 0.493,-0.149c0.171,-0.047 0.371,-0.082 0.6,-0.102l-0,-0.173c0.514,-0.084 0.892,-0.181 1.135,-0.291c0.243,-0.11 0.536,-0.243 0.879,-0.4c0.257,-0.011 0.464,-0.016 0.621,-0.016c0.157,-0 0.393,-0.01 0.707,-0.031c0.229,-0.147 0.436,-0.257 0.622,-0.33c0.185,-0.074 0.464,-0.152 0.835,-0.236c0.343,0.063 0.722,0.105 1.136,0.126c0.414,0.021 0.779,0.089 1.093,0.204c0.028,0.105 0.114,0.186 0.257,0.243c0.143,0.058 0.3,0.11 0.471,0.157c0.172,0.048 0.336,0.097 0.493,0.15c0.157,0.052 0.264,0.125 0.322,0.22c0.114,0.01 0.192,0.005 0.235,-0.016c0.043,-0.021 0.122,-0.026 0.236,-0.016c0.086,0.147 0.186,0.244 0.3,0.291c0.114,0.047 0.229,0.138 0.343,0.275c-0.143,0.104 -0.25,0.212 -0.322,0.322c-0.071,0.11 -0.25,0.191 -0.535,0.243c-0.029,0.073 0.028,0.113 0.171,0.118c0.143,0.005 0.229,0.034 0.257,0.086c0.029,0.094 -0.014,0.163 -0.128,0.204c0.685,0.409 1.3,0.841 1.842,1.296c0.543,0.456 1.158,0.888 1.843,1.296Zm-5.357,1.492c0.115,-0.115 0.265,-0.209 0.45,-0.283c0.186,-0.073 0.293,-0.183 0.322,-0.329c-0.143,-0.084 -0.229,-0.15 -0.257,-0.197c-0.029,-0.047 -0.043,-0.123 -0.043,-0.228c-0.629,-0.324 -1.172,-0.672 -1.629,-1.044c-0.457,-0.372 -0.971,-0.72 -1.543,-1.045c-0.057,0.042 -0.157,0.084 -0.3,0.126c-0.142,0.042 -0.3,0.032 -0.471,-0.031c-0.057,0.084 -0.157,0.144 -0.3,0.18c-0.143,0.037 -0.3,0.053 -0.471,0.047c-0.172,-0.005 -0.35,-0.02 -0.536,-0.047c-0.186,-0.026 -0.35,-0.06 -0.493,-0.102c-0.828,0.241 -1.657,0.477 -2.485,0.707c-0.829,0.23 -1.572,0.497 -2.229,0.801c-0.114,0.021 -0.186,0.029 -0.214,0.024c-0.029,-0.006 -0.114,0.002 -0.257,0.023c-0.229,0.199 -0.507,0.38 -0.836,0.542c-0.329,0.162 -0.65,0.327 -0.964,0.495c-0.314,0.167 -0.586,0.345 -0.814,0.534c-0.229,0.188 -0.358,0.408 -0.386,0.66c0.486,0.146 1.057,0.235 1.714,0.267c0.657,0.031 1.336,0.036 2.036,0.015c0.7,-0.021 1.385,-0.055 2.057,-0.102c0.671,-0.047 1.293,-0.071 1.864,-0.071c1.2,-0.104 2.228,-0.243 3.085,-0.416c0.858,-0.173 1.758,-0.348 2.7,-0.526Z" style="fill:rgb(200,4,27);fill-rule:nonzero;"/>
                <path d="M1983.72,2154.91c-0.029,0.053 -0.057,0.097 -0.086,0.134c-0.028,0.036 -0.057,0.07 -0.086,0.102c-0.028,0.031 -0.042,0.07 -0.042,0.118l-0,0.18c-0.857,0.555 -1.936,1.021 -3.236,1.398c-1.3,0.377 -2.728,0.709 -4.285,0.997c-1.558,0.288 -3.179,0.55 -4.864,0.786c-1.686,0.235 -3.329,0.489 -4.929,0.761c-0.685,-0.062 -1.207,-0.167 -1.564,-0.314c-0.357,-0.146 -0.629,-0.316 -0.814,-0.51c-0.186,-0.194 -0.315,-0.408 -0.386,-0.644c-0.071,-0.236 -0.136,-0.479 -0.193,-0.73c0.086,-0.116 0.207,-0.212 0.364,-0.291c0.158,-0.079 0.236,-0.191 0.236,-0.338c0.229,-0.272 0.457,-0.539 0.686,-0.801c0.228,-0.261 0.371,-0.528 0.428,-0.801c0.086,-0.083 0.243,-0.141 0.472,-0.172c0.143,-0.503 0.15,-1.014 0.021,-1.532c-0.128,-0.518 -0.364,-1.002 -0.707,-1.453c0.029,-0.104 0.064,-0.18 0.107,-0.227c0.043,-0.048 0.036,-0.082 -0.021,-0.103c-0.029,-0.083 0.05,-0.125 0.236,-0.125l0.578,-0c0,-0.157 -0.078,-0.314 -0.236,-0.471c-0.157,-0.157 -0.307,-0.335 -0.45,-0.534c0.2,-0.157 0.329,-0.312 0.386,-0.464c0.057,-0.152 0.186,-0.285 0.386,-0.4c1.543,0.178 3.021,0.392 4.435,0.644c1.414,0.251 2.807,0.434 4.179,0.549c1.028,0.273 2.085,0.542 3.171,0.809c1.086,0.267 2.071,0.561 2.957,0.88c0.886,0.319 1.628,0.683 2.228,1.091c0.6,0.409 0.943,0.896 1.029,1.461Zm-10.157,0.864c0.6,-0.084 1.193,-0.173 1.779,-0.267c0.585,-0.094 1.128,-0.202 1.628,-0.322c0.5,-0.12 0.95,-0.259 1.35,-0.416c0.4,-0.157 0.729,-0.346 0.986,-0.566c-0.172,-0.125 -0.4,-0.238 -0.686,-0.337c-0.286,-0.1 -0.571,-0.194 -0.857,-0.283c-0.286,-0.089 -0.564,-0.181 -0.836,-0.275c-0.271,-0.094 -0.492,-0.209 -0.664,-0.345c-0.371,-0.021 -0.7,-0.061 -0.986,-0.118c-0.285,-0.058 -0.564,-0.115 -0.835,-0.173c-0.272,-0.058 -0.557,-0.113 -0.857,-0.165c-0.3,-0.052 -0.65,-0.084 -1.05,-0.094c-0.629,-0.115 -1.193,-0.199 -1.693,-0.251c-0.5,-0.053 -0.879,-0.121 -1.136,-0.205c-0.2,0 -0.357,0.016 -0.471,0.047c0.286,0.398 0.5,0.773 0.643,1.123c0.143,0.351 0.221,0.702 0.235,1.053c0.015,0.351 -0.035,0.709 -0.15,1.076c-0.114,0.366 -0.271,0.764 -0.471,1.193c0.286,-0.01 0.55,-0.034 0.793,-0.07c0.243,-0.037 0.486,-0.076 0.728,-0.118c0.243,-0.042 0.5,-0.081 0.772,-0.118c0.271,-0.037 0.593,-0.06 0.964,-0.071c0.086,-0.062 0.207,-0.115 0.364,-0.157c0.157,-0.042 0.307,-0.089 0.45,-0.141Z" style="fill:rgb(200,4,27);fill-rule:nonzero;"/>
                <path d="M2009.39,2154.44c-0.029,0.126 0,0.246 0.086,0.361c0.085,0.115 0.193,0.228 0.321,0.338c0.129,0.11 0.25,0.222 0.364,0.338c0.115,0.115 0.2,0.23 0.258,0.345c0.057,0.147 0.057,0.306 -0,0.479c-0.058,0.173 -0.158,0.34 -0.3,0.503c-0.143,0.162 -0.329,0.309 -0.558,0.44c-0.228,0.13 -0.5,0.227 -0.814,0.29c-0.4,0.189 -0.885,0.335 -1.457,0.44c-0.571,0.105 -1.1,0.23 -1.586,0.377c-0.314,0.073 -0.664,0.125 -1.049,0.157c-0.386,0.031 -0.779,0.063 -1.179,0.094c-0.314,0.063 -0.686,0.128 -1.114,0.196c-0.429,0.069 -0.872,0.131 -1.329,0.189c-0.457,0.058 -0.914,0.099 -1.371,0.126c-0.457,0.026 -0.857,0.034 -1.2,0.023c-0.857,0.115 -1.693,0.191 -2.507,0.228c-0.814,0.037 -1.764,0.013 -2.85,-0.071c-1.028,0.053 -1.978,0.037 -2.85,-0.047c-0.871,-0.084 -1.643,-0.217 -2.314,-0.4c-0.671,-0.184 -1.257,-0.404 -1.757,-0.66c-0.5,-0.257 -0.907,-0.526 -1.221,-0.809c-0.229,-0.597 -0.172,-1.139 0.171,-1.626c0.343,-0.486 0.836,-0.937 1.479,-1.35c0.642,-0.414 1.378,-0.796 2.207,-1.147c0.828,-0.351 1.628,-0.694 2.399,-1.029c0.172,0.021 0.308,0.019 0.408,-0.007c0.1,-0.027 0.192,-0.063 0.278,-0.11c0.086,-0.048 0.179,-0.092 0.279,-0.134c0.1,-0.042 0.221,-0.068 0.364,-0.078c0.2,-0.158 0.493,-0.275 0.879,-0.354c0.385,-0.078 0.692,-0.191 0.921,-0.338c0.257,-0.02 0.471,-0.052 0.643,-0.094c0.171,-0.042 0.335,-0.089 0.493,-0.141c0.157,-0.053 0.321,-0.102 0.492,-0.149c0.172,-0.047 0.372,-0.082 0.6,-0.102l0,-0.173c0.515,-0.084 0.893,-0.181 1.136,-0.291c0.243,-0.11 0.536,-0.243 0.879,-0.4c0.257,-0.011 0.464,-0.016 0.621,-0.016c0.157,-0 0.393,-0.01 0.707,-0.031c0.229,-0.147 0.436,-0.257 0.621,-0.33c0.186,-0.074 0.465,-0.152 0.836,-0.236c0.343,0.063 0.722,0.105 1.136,0.126c0.414,0.021 0.778,0.089 1.093,0.204c0.028,0.105 0.114,0.186 0.257,0.243c0.143,0.058 0.3,0.11 0.471,0.157c0.172,0.048 0.336,0.097 0.493,0.15c0.157,0.052 0.264,0.125 0.321,0.22c0.115,0.01 0.193,0.005 0.236,-0.016c0.043,-0.021 0.121,-0.026 0.236,-0.016c0.085,0.147 0.185,0.244 0.3,0.291c0.114,0.047 0.228,0.138 0.343,0.275c-0.143,0.104 -0.25,0.212 -0.322,0.322c-0.071,0.11 -0.25,0.191 -0.536,0.243c-0.028,0.073 0.029,0.113 0.172,0.118c0.143,0.005 0.228,0.034 0.257,0.086c0.029,0.094 -0.014,0.163 -0.129,0.204c0.686,0.409 1.3,0.841 1.843,1.296c0.543,0.456 1.157,0.888 1.843,1.296Zm-5.357,1.492c0.114,-0.115 0.264,-0.209 0.45,-0.283c0.186,-0.073 0.293,-0.183 0.322,-0.329c-0.143,-0.084 -0.229,-0.15 -0.258,-0.197c-0.028,-0.047 -0.042,-0.123 -0.042,-0.228c-0.629,-0.324 -1.172,-0.672 -1.629,-1.044c-0.457,-0.372 -0.971,-0.72 -1.543,-1.045c-0.057,0.042 -0.157,0.084 -0.3,0.126c-0.143,0.042 -0.3,0.032 -0.471,-0.031c-0.057,0.084 -0.157,0.144 -0.3,0.18c-0.143,0.037 -0.3,0.053 -0.472,0.047c-0.171,-0.005 -0.349,-0.02 -0.535,-0.047c-0.186,-0.026 -0.35,-0.06 -0.493,-0.102c-0.829,0.241 -1.657,0.477 -2.486,0.707c-0.828,0.23 -1.571,0.497 -2.228,0.801c-0.114,0.021 -0.186,0.029 -0.214,0.024c-0.029,-0.006 -0.115,0.002 -0.257,0.023c-0.229,0.199 -0.508,0.38 -0.836,0.542c-0.329,0.162 -0.65,0.327 -0.964,0.495c-0.315,0.167 -0.586,0.345 -0.815,0.534c-0.228,0.188 -0.357,0.408 -0.385,0.66c0.485,0.146 1.057,0.235 1.714,0.267c0.657,0.031 1.336,0.036 2.035,0.015c0.7,-0.021 1.386,-0.055 2.058,-0.102c0.671,-0.047 1.292,-0.071 1.864,-0.071c1.2,-0.104 2.228,-0.243 3.085,-0.416c0.857,-0.173 1.757,-0.348 2.7,-0.526Z" style="fill:rgb(200,4,27);fill-rule:nonzero;"/>
                <path d="M1945.24,2168.8c-0.057,-0.136 -0.128,-0.22 -0.214,-0.251c0.2,-0.189 0.35,-0.375 0.45,-0.558c0.1,-0.183 0.178,-0.359 0.236,-0.526c0.057,-0.147 0.121,-0.283 0.192,-0.409c0.072,-0.125 0.165,-0.246 0.279,-0.361c0.486,-0.042 0.85,-0.118 1.093,-0.228c0.243,-0.11 0.435,-0.206 0.578,-0.29c0.515,-0.011 0.85,0.016 1.007,0.078c0.158,0.063 0.336,0.168 0.536,0.315c0.143,0.115 0.343,0.238 0.6,0.369c0.257,0.131 0.643,0.233 1.157,0.306c0.086,0.115 0.186,0.225 0.3,0.33c0.114,0.104 0.243,0.214 0.386,0.33c0.257,0.219 0.5,0.447 0.728,0.683c0.229,0.235 0.357,0.458 0.386,0.667c-0.343,0.241 -0.607,0.519 -0.793,0.833c-0.186,0.314 -0.3,0.631 -0.343,0.95c-0.042,0.319 -0.021,0.626 0.065,0.919c0.085,0.293 0.228,0.539 0.428,0.738l0.257,0.251l0.943,-0.031c1.029,-0.094 1.957,-0.202 2.786,-0.322c0.828,-0.121 1.6,-0.264 2.314,-0.432c0.714,-0.168 1.4,-0.359 2.057,-0.573c0.657,-0.215 1.343,-0.469 2.057,-0.762c0.686,-0.293 1.3,-0.626 1.843,-0.997c0.543,-0.372 0.993,-0.757 1.35,-1.155c0.357,-0.398 0.635,-0.796 0.835,-1.194c0.2,-0.397 0.329,-0.769 0.386,-1.115c0.543,-0.094 0.843,-0.246 0.9,-0.455l-0.129,-0.204c-0.085,-0.053 -0.121,-0.102 -0.107,-0.15c0.015,-0.047 0.05,-0.091 0.107,-0.133c0.229,-0.241 0.715,-0.419 1.457,-0.534c0.515,0.126 0.993,0.262 1.436,0.408c0.443,0.147 0.85,0.293 1.221,0.44c0.058,0.283 0.172,0.526 0.343,0.73c0.172,0.205 0.357,0.401 0.557,0.589c0.2,0.178 0.379,0.351 0.536,0.519c0.157,0.167 0.264,0.371 0.322,0.612c-0.286,0.314 -0.493,0.61 -0.622,0.888c-0.128,0.277 -0.25,0.568 -0.364,0.871l-0.086,0.173c-0.514,0.325 -1.021,0.657 -1.521,0.998c-0.5,0.34 -0.907,0.636 -1.222,0.887c-0.171,0.063 -0.321,0.136 -0.45,0.22c-0.128,0.084 -0.25,0.167 -0.364,0.251c-0.057,0.032 -0.136,0.084 -0.236,0.157c-0.1,0.073 -0.192,0.126 -0.278,0.157l-1.029,-0.141l-0.257,0.487l-0.685,0.063l-0.515,0.219c-0.657,0.419 -1.35,0.77 -2.078,1.053c-0.729,0.283 -1.543,0.534 -2.443,0.754c-0.9,0.22 -1.914,0.426 -3.043,0.62c-1.128,0.194 -2.421,0.401 -3.878,0.621c-0.571,-0.032 -1.064,-0.05 -1.478,-0.055c-0.415,-0.006 -0.822,-0.014 -1.222,-0.024c-0.4,-0 -0.785,-0.005 -1.157,-0.016c-0.371,-0.01 -0.8,-0.026 -1.286,-0.047c-0.114,-0.094 -0.271,-0.162 -0.471,-0.204c-0.2,-0.042 -0.386,-0.063 -0.557,-0.063c-0.571,-0.105 -1,-0.251 -1.286,-0.44c-0.285,-0.188 -0.585,-0.398 -0.9,-0.628c-0.142,-0.126 -0.292,-0.251 -0.45,-0.377c-0.157,-0.125 -0.35,-0.246 -0.578,-0.361l0.857,-0.094l-1.114,-0.471c-0.086,-0.032 -0.179,-0.063 -0.279,-0.095c-0.1,-0.031 -0.193,-0.068 -0.278,-0.11l-0,-0.298c-0.115,-0.859 -0.165,-1.652 -0.15,-2.38c0.014,-0.727 0.278,-1.369 0.792,-1.924l0.086,-0.078Z" style="fill-rule:nonzero;"/>
                <path d="M1981.45,2173.72c-0.258,0.021 -0.443,0.076 -0.558,0.165c-0.114,0.089 -0.221,0.18 -0.321,0.275c-0.1,0.094 -0.2,0.18 -0.3,0.259c-0.1,0.078 -0.25,0.118 -0.45,0.118c-0.028,0.083 -0.107,0.157 -0.236,0.22c-0.128,0.062 -0.25,0.128 -0.364,0.196c-0.114,0.068 -0.2,0.141 -0.257,0.22c-0.057,0.078 -0.029,0.17 0.086,0.275c-0.229,0.062 -0.372,0.151 -0.429,0.267c-0.057,0.115 -0.121,0.225 -0.193,0.329c-0.071,0.105 -0.193,0.194 -0.364,0.267c-0.171,0.074 -0.486,0.105 -0.943,0.095c-0.085,0.042 -0.1,0.068 -0.043,0.078c0.057,0.011 0.1,0.047 0.129,0.11c-0.314,-0.021 -0.55,-0.013 -0.707,0.024c-0.157,0.036 -0.35,0.06 -0.579,0.07c-0.543,-0.062 -0.993,-0.172 -1.35,-0.329c-0.357,-0.157 -0.671,-0.333 -0.942,-0.527c-0.272,-0.193 -0.515,-0.39 -0.729,-0.589c-0.214,-0.199 -0.421,-0.371 -0.621,-0.518c0.085,-0.115 0.1,-0.228 0.042,-0.338c-0.057,-0.11 -0.157,-0.201 -0.3,-0.274c1.4,-1.089 2.929,-2.252 4.586,-3.487c1.657,-1.236 3.228,-2.456 4.714,-3.66c0.657,0.094 1.307,0.202 1.95,0.322c0.643,0.121 1.228,0.259 1.757,0.416c0.529,0.157 0.978,0.338 1.35,0.542c0.371,0.204 0.614,0.432 0.728,0.683c-0.057,0.063 -0.121,0.087 -0.192,0.071c-0.072,-0.016 -0.136,-0.008 -0.193,0.024c0.114,0.052 0.178,0.089 0.193,0.11c0.014,0.021 0.014,0.042 -0,0.062c-0.015,0.021 -0.022,0.05 -0.022,0.087c0,0.037 0.043,0.086 0.129,0.149c-0.115,-0.01 -0.193,-0.005 -0.236,0.016c-0.043,0.021 -0.136,0.021 -0.279,-0c0.115,0.115 0.15,0.209 0.108,0.282c-0.043,0.074 -0.108,0.139 -0.193,0.197c-0.086,0.057 -0.157,0.12 -0.215,0.188c-0.057,0.068 -0.042,0.155 0.043,0.259c-0.085,0 -0.15,0.008 -0.193,0.024c-0.042,0.016 -0.078,0.031 -0.107,0.047c-0.028,0.016 -0.064,0.032 -0.107,0.047c-0.043,0.016 -0.107,0.019 -0.193,0.008c0.086,0.23 0.115,0.461 0.086,0.691c-0.029,0.231 -0.05,0.464 -0.064,0.699c-0.015,0.236 -0.007,0.482 0.021,0.738c0.029,0.257 0.129,0.521 0.3,0.793c1.029,-0.219 1.85,-0.502 2.464,-0.848c0.615,-0.345 1.115,-0.733 1.5,-1.162c0.386,-0.429 0.679,-0.89 0.879,-1.382c0.2,-0.492 0.414,-0.995 0.643,-1.508c0.257,-0.094 0.457,-0.209 0.6,-0.345c0.142,-0.137 0.271,-0.281 0.385,-0.432c0.115,-0.152 0.229,-0.304 0.343,-0.456c0.114,-0.152 0.257,-0.29 0.429,-0.416c0.428,0.021 0.792,0.071 1.092,0.149c0.3,0.079 0.579,0.162 0.836,0.251c0.257,0.089 0.529,0.173 0.814,0.252c0.286,0.078 0.643,0.128 1.072,0.149c0.343,0.178 0.657,0.351 0.943,0.518c0.285,0.168 0.471,0.346 0.557,0.534c-0.143,0.084 -0.25,0.178 -0.322,0.283c-0.071,0.105 -0.15,0.209 -0.235,0.314c-0.086,0.105 -0.2,0.202 -0.343,0.291c-0.143,0.089 -0.343,0.165 -0.6,0.227c-0.086,0.273 -0.193,0.521 -0.322,0.746c-0.128,0.226 -0.257,0.448 -0.385,0.668c-0.129,0.22 -0.236,0.448 -0.322,0.683c-0.085,0.236 -0.114,0.495 -0.085,0.778c-0.229,0.241 -0.472,0.497 -0.729,0.769c-0.257,0.273 -0.457,0.519 -0.6,0.739c-0.457,0.136 -0.814,0.298 -1.071,0.486c-0.257,0.189 -0.529,0.377 -0.815,0.566c-0.114,0.042 -0.185,0.052 -0.214,0.031c-0.028,-0.021 -0.128,-0.036 -0.3,-0.047c0.029,0.042 0.029,0.073 0,0.094c-0.028,0.021 -0.064,0.04 -0.107,0.055c-0.043,0.016 -0.071,0.04 -0.086,0.071c-0.014,0.031 0.007,0.073 0.065,0.126c-0.4,0.063 -0.758,0.152 -1.072,0.267c-0.314,0.115 -0.65,0.22 -1.007,0.314c-0.357,0.094 -0.786,0.157 -1.286,0.188c-0.499,0.032 -1.149,-0.005 -1.949,-0.11c-1.172,-0.314 -2.207,-0.675 -3.107,-1.083c-0.9,-0.409 -1.636,-0.896 -2.207,-1.461Z" style="fill-rule:nonzero;"/>
                <path d="M2018.56,2172.33c-0.029,0.052 -0.057,0.097 -0.086,0.133c-0.028,0.037 -0.057,0.071 -0.085,0.102c-0.029,0.032 -0.043,0.071 -0.043,0.118l-0,0.181c-0.857,0.555 -1.936,1.021 -3.236,1.398c-1.3,0.377 -2.728,0.709 -4.285,0.997c-1.557,0.288 -3.179,0.55 -4.864,0.785c-1.686,0.236 -3.329,0.49 -4.929,0.762c-0.685,-0.063 -1.207,-0.167 -1.564,-0.314c-0.357,-0.147 -0.628,-0.317 -0.814,-0.511c-0.186,-0.193 -0.314,-0.408 -0.386,-0.643c-0.071,-0.236 -0.136,-0.48 -0.193,-0.731c0.086,-0.115 0.207,-0.212 0.365,-0.29c0.157,-0.079 0.235,-0.191 0.235,-0.338c0.229,-0.272 0.457,-0.539 0.686,-0.801c0.229,-0.262 0.371,-0.529 0.428,-0.801c0.086,-0.084 0.243,-0.141 0.472,-0.173c0.143,-0.502 0.15,-1.013 0.021,-1.531c-0.128,-0.519 -0.364,-1.003 -0.707,-1.453c0.029,-0.105 0.064,-0.181 0.107,-0.228c0.043,-0.047 0.036,-0.081 -0.021,-0.102c-0.029,-0.084 0.05,-0.126 0.236,-0.126l0.578,0c0,-0.157 -0.078,-0.314 -0.236,-0.471c-0.157,-0.157 -0.307,-0.335 -0.45,-0.534c0.2,-0.157 0.329,-0.311 0.386,-0.463c0.057,-0.152 0.186,-0.285 0.386,-0.401c1.543,0.178 3.021,0.393 4.435,0.644c1.415,0.252 2.807,0.435 4.179,0.55c1.028,0.272 2.085,0.542 3.171,0.809c1.086,0.267 2.071,0.56 2.957,0.879c0.886,0.32 1.628,0.684 2.228,1.092c0.6,0.408 0.943,0.895 1.029,1.461Zm-10.157,0.864c0.6,-0.084 1.193,-0.173 1.779,-0.267c0.586,-0.095 1.128,-0.202 1.628,-0.322c0.5,-0.121 0.95,-0.26 1.35,-0.417c0.4,-0.157 0.729,-0.345 0.986,-0.565c-0.172,-0.126 -0.4,-0.238 -0.686,-0.338c-0.285,-0.099 -0.571,-0.193 -0.857,-0.282c-0.286,-0.089 -0.564,-0.181 -0.836,-0.275c-0.271,-0.095 -0.492,-0.21 -0.664,-0.346c-0.371,-0.021 -0.7,-0.06 -0.985,-0.118c-0.286,-0.057 -0.565,-0.115 -0.836,-0.172c-0.272,-0.058 -0.557,-0.113 -0.857,-0.165c-0.3,-0.053 -0.65,-0.084 -1.05,-0.095c-0.629,-0.115 -1.193,-0.199 -1.693,-0.251c-0.5,-0.052 -0.878,-0.12 -1.136,-0.204c-0.2,-0 -0.357,0.016 -0.471,0.047c0.286,0.398 0.5,0.772 0.643,1.123c0.143,0.351 0.221,0.702 0.236,1.052c0.014,0.351 -0.036,0.71 -0.15,1.076c-0.115,0.367 -0.272,0.765 -0.472,1.194c0.286,-0.01 0.55,-0.034 0.793,-0.071c0.243,-0.036 0.486,-0.076 0.728,-0.117c0.243,-0.042 0.5,-0.082 0.772,-0.118c0.271,-0.037 0.593,-0.061 0.964,-0.071c0.086,-0.063 0.207,-0.115 0.364,-0.157c0.157,-0.042 0.307,-0.089 0.45,-0.141Z" style="fill-rule:nonzero;"/>
                <path d="M2042.73,2167.73c0.029,0.073 0.036,0.128 0.022,0.165c-0.015,0.036 -0.029,0.07 -0.043,0.102c-0.015,0.031 -0.022,0.065 -0.022,0.102c0,0.037 0.029,0.092 0.086,0.165c-0.6,0.356 -1.293,0.599 -2.078,0.73c-0.786,0.131 -1.636,0.225 -2.55,0.283c-0.915,0.057 -1.85,0.118 -2.807,0.18c-0.957,0.063 -1.907,0.199 -2.85,0.409c-0.372,-0.053 -0.707,-0.053 -1.007,-0c-0.3,0.052 -0.736,0.068 -1.307,0.047c-0.172,0.063 -0.386,0.107 -0.643,0.133c-0.257,0.027 -0.514,0.055 -0.772,0.087c0.115,0.094 0.165,0.191 0.15,0.29c-0.014,0.1 0.022,0.181 0.108,0.244c1,0.031 2.107,0.026 3.321,-0.016c1.214,-0.042 2.407,-0.068 3.578,-0.078c0.029,0.052 0.015,0.086 -0.043,0.102c-0.057,0.015 -0.071,0.044 -0.042,0.086c0.2,0.052 0.399,0.118 0.599,0.196c0.2,0.079 0.4,0.155 0.6,0.228c0.2,0.073 0.408,0.134 0.622,0.181c0.214,0.047 0.464,0.065 0.75,0.055c0.114,0.084 0.193,0.175 0.236,0.275c0.042,0.099 0.007,0.201 -0.108,0.306c-0.457,0.115 -0.914,0.233 -1.371,0.353c-0.457,0.121 -0.936,0.228 -1.436,0.322c-0.5,0.095 -1.028,0.17 -1.585,0.228c-0.557,0.058 -1.179,0.081 -1.864,0.071l-0.322,-0c-0.071,-0 -0.164,-0.016 -0.278,-0.047c-0.229,0.052 -0.55,0.068 -0.965,0.047c-0.414,-0.021 -0.735,-0.006 -0.964,0.047c-0.314,-0.053 -0.693,-0.076 -1.136,-0.071c-0.442,0.005 -0.835,-0.013 -1.178,-0.055c-0.457,0.22 -0.871,0.456 -1.243,0.707c-0.371,0.251 -0.7,0.518 -0.986,0.801c0.972,0.052 1.779,0.073 2.422,0.063c0.643,-0.011 1.25,-0.029 1.821,-0.055c0.572,-0.026 1.157,-0.053 1.757,-0.079c0.6,-0.026 1.357,-0.034 2.271,-0.023c0.572,-0.115 1.25,-0.191 2.036,-0.228c0.786,-0.037 1.507,-0.097 2.164,-0.181c0.229,0.032 0.429,0.087 0.6,0.165c0.172,0.079 0.336,0.152 0.493,0.22c0.157,0.068 0.321,0.128 0.493,0.181c0.171,0.052 0.386,0.073 0.643,0.063c0.114,0.042 0.193,0.091 0.235,0.149c0.043,0.057 0.079,0.112 0.108,0.165c0.028,0.052 0.078,0.097 0.15,0.133c0.071,0.037 0.192,0.05 0.364,0.04c-0.429,0.345 -0.922,0.609 -1.479,0.793c-0.557,0.183 -1.192,0.322 -1.907,0.416c-0.714,0.094 -1.507,0.167 -2.378,0.22c-0.872,0.052 -1.836,0.115 -2.893,0.188c-0.257,0.021 -0.471,0.019 -0.643,-0.008c-0.171,-0.026 -0.371,-0.039 -0.6,-0.039c-0.657,0.053 -1.442,0.1 -2.357,0.142c-0.914,0.041 -1.842,0.057 -2.785,0.047c-0.943,-0.011 -1.843,-0.055 -2.7,-0.134c-0.857,-0.078 -1.557,-0.217 -2.1,-0.416c-0.229,-0.073 -0.379,-0.16 -0.45,-0.259c-0.071,-0.1 -0.264,-0.176 -0.579,-0.228c-0.028,-0.136 -0.085,-0.288 -0.171,-0.455c-0.086,-0.168 -0.171,-0.343 -0.257,-0.527c-0.086,-0.183 -0.15,-0.363 -0.193,-0.541c-0.043,-0.178 -0.021,-0.341 0.064,-0.487c0.086,-0.157 0.265,-0.299 0.536,-0.424c0.271,-0.126 0.364,-0.262 0.279,-0.409c0.142,-0.01 0.228,-0.039 0.257,-0.086c0.028,-0.047 0.143,-0.066 0.343,-0.055c0.171,-0.189 0.357,-0.367 0.557,-0.534c0.2,-0.168 0.407,-0.33 0.621,-0.487c0.214,-0.157 0.429,-0.317 0.643,-0.479c0.214,-0.162 0.421,-0.343 0.621,-0.542c-0.4,-0.136 -0.693,-0.285 -0.878,-0.448c-0.186,-0.162 -0.322,-0.324 -0.407,-0.487c-0.086,-0.162 -0.157,-0.329 -0.215,-0.502c-0.057,-0.173 -0.157,-0.348 -0.3,-0.526c0.286,-0.157 0.636,-0.286 1.05,-0.385c0.415,-0.1 0.865,-0.181 1.35,-0.244c0.486,-0.062 1.015,-0.115 1.586,-0.157c0.571,-0.042 1.171,-0.089 1.8,-0.141c1.143,-0.136 2.164,-0.241 3.064,-0.314c0.9,-0.073 1.786,-0.134 2.657,-0.181c0.871,-0.047 1.778,-0.091 2.721,-0.133c0.943,-0.042 2.014,-0.105 3.214,-0.189c0.257,0.095 0.5,0.142 0.729,0.142c0.114,-0.095 0.25,-0.123 0.407,-0.087c0.157,0.037 0.221,0.008 0.193,-0.086c0.286,0.178 0.65,0.327 1.093,0.448c0.443,0.12 0.935,0.222 1.478,0.306Z" style="fill-rule:nonzero;"/>
                <path d="M2048.18,2174.94c-0.315,0.419 -0.593,0.736 -0.836,0.95c-0.243,0.215 -0.607,0.437 -1.093,0.668c-0.371,-0.021 -0.628,-0.005 -0.771,0.047c-0.143,0.052 -0.3,0.099 -0.472,0.141c-0.257,0.021 -0.442,0.021 -0.557,0c-0.114,-0.021 -0.214,-0.044 -0.3,-0.07c-0.085,-0.027 -0.192,-0.053 -0.321,-0.079c-0.129,-0.026 -0.321,-0.039 -0.579,-0.039c-0.057,-0.084 -0.121,-0.163 -0.192,-0.236c-0.072,-0.073 -0.265,-0.099 -0.579,-0.078c0.057,-0.084 0.071,-0.155 0.043,-0.212c-0.029,-0.058 -0.064,-0.11 -0.107,-0.157c-0.043,-0.048 -0.079,-0.095 -0.107,-0.142c-0.029,-0.047 -0.015,-0.107 0.042,-0.18c-0.142,-0 -0.257,-0.037 -0.342,-0.11c-0.086,-0.074 -0.186,-0.147 -0.3,-0.22c0.085,-0.189 0.171,-0.367 0.257,-0.534c0.085,-0.168 0.193,-0.325 0.321,-0.471c0.129,-0.147 0.236,-0.294 0.322,-0.44c0.085,-0.147 0.042,-0.299 -0.129,-0.456c0.114,0.032 0.2,0.024 0.257,-0.023c0.057,-0.047 0.1,-0.11 0.129,-0.189c0.028,-0.078 0.043,-0.157 0.043,-0.235c-0,-0.079 -0.015,-0.144 -0.043,-0.197c0.285,-0.272 0.521,-0.552 0.707,-0.84c0.186,-0.288 0.357,-0.573 0.514,-0.856c0.157,-0.283 0.322,-0.56 0.493,-0.832c0.171,-0.273 0.4,-0.524 0.686,-0.754c0.314,-0.021 0.664,-0.008 1.05,0.039c0.385,0.047 0.621,0.107 0.707,0.181c0.742,-0.21 1.4,-0.464 1.971,-0.762c0.571,-0.299 1.157,-0.589 1.757,-0.872c0.6,-0.283 1.264,-0.534 1.993,-0.754c0.728,-0.22 1.65,-0.351 2.764,-0.392c0.571,0.157 1.207,0.316 1.907,0.479c0.7,0.162 1.278,0.374 1.736,0.636c0.228,0.042 0.421,0.086 0.578,0.133c0.157,0.047 0.35,0.097 0.579,0.149l-0,0.189c0.343,0.115 0.621,0.249 0.835,0.4c0.215,0.152 0.407,0.315 0.579,0.487c0.171,0.173 0.343,0.346 0.514,0.519c0.172,0.172 0.372,0.337 0.6,0.494c-0.057,0.053 -0.086,0.097 -0.086,0.134c0,0.036 0.022,0.076 0.065,0.118c0.043,0.042 0.078,0.083 0.107,0.125c0.028,0.042 0.028,0.1 -0,0.173c-0.086,0.461 -0.493,0.833 -1.222,1.115c-0.728,0.283 -1.607,0.516 -2.635,0.699c-1.029,0.183 -2.129,0.338 -3.3,0.463c-1.171,0.126 -2.228,0.262 -3.171,0.409c-0,0.042 0.05,0.063 0.15,0.063c0.1,-0 0.136,0.026 0.107,0.078c0.686,0.157 1.228,0.283 1.628,0.377c0.4,0.094 0.779,0.173 1.136,0.236c0.357,0.063 0.743,0.118 1.157,0.165c0.414,0.047 0.993,0.102 1.736,0.165c0.743,0.062 1.321,0.112 1.735,0.149c0.415,0.036 0.793,0.068 1.136,0.094c0.343,0.026 0.693,0.047 1.05,0.063c0.357,0.016 0.864,0.034 1.521,0.055c0.258,0.094 0.479,0.207 0.665,0.338c0.185,0.13 0.307,0.261 0.364,0.392c0.057,0.131 0.071,0.257 0.043,0.377c-0.029,0.121 -0.129,0.217 -0.3,0.291c0.028,0.031 0.093,0.044 0.193,0.039c0.1,-0.005 0.207,-0.003 0.321,0.008c-0.171,0.042 -0.314,0.094 -0.429,0.157c-0.114,0.063 -0.228,0.126 -0.342,0.188c-0.115,0.063 -0.243,0.118 -0.386,0.165c-0.143,0.047 -0.343,0.076 -0.6,0.087c-0.886,0.125 -2,0.133 -3.343,0.023c-1.343,-0.11 -3.042,-0.311 -5.099,-0.604c-1.029,-0.147 -1.865,-0.275 -2.507,-0.385c-0.643,-0.11 -1.2,-0.22 -1.672,-0.33c-0.471,-0.11 -0.9,-0.228 -1.285,-0.354c-0.386,-0.125 -0.85,-0.277 -1.393,-0.455Zm6.128,-5.387c-0.314,0.167 -0.664,0.319 -1.05,0.455c-0.386,0.136 -0.757,0.275 -1.114,0.416c-0.357,0.142 -0.679,0.299 -0.964,0.472c-0.286,0.172 -0.486,0.374 -0.6,0.604c1,-0.042 2.042,-0.144 3.128,-0.306c1.086,-0.162 2.114,-0.317 3.086,-0.463c-0.115,-0.325 -0.422,-0.587 -0.922,-0.786c-0.5,-0.199 -1.021,-0.329 -1.564,-0.392Z" style="fill-rule:nonzero;"/>
                <path d="M2081.17,2166.84c1.2,0.052 2.271,0.141 3.214,0.267c0.943,0.125 1.743,0.293 2.4,0.502c0.457,0.262 0.893,0.545 1.307,0.848c0.414,0.304 0.729,0.621 0.943,0.951c0.214,0.329 0.314,0.667 0.3,1.013c-0.014,0.345 -0.221,0.696 -0.621,1.052c-0.829,0.377 -1.836,0.683 -3.022,0.919c-1.185,0.235 -2.464,0.426 -3.835,0.573c-1.372,0.147 -2.793,0.272 -4.264,0.377c-1.472,0.105 -2.907,0.209 -4.307,0.314c0.028,0.241 0.035,0.495 0.021,0.762c-0.014,0.267 -0.086,0.534 -0.214,0.801c-0.129,0.267 -0.322,0.526 -0.579,0.777c-0.257,0.252 -0.6,0.482 -1.028,0.691c-0.486,0 -0.986,0.024 -1.5,0.071c-0.514,0.047 -0.971,0.086 -1.371,0.118c-0.2,-0.042 -0.379,-0.081 -0.536,-0.118c-0.157,-0.037 -0.379,-0.06 -0.664,-0.071c0.057,-0.104 -0.015,-0.212 -0.215,-0.322c-0.2,-0.11 -0.4,-0.222 -0.6,-0.337c-0.2,-0.115 -0.335,-0.225 -0.407,-0.33c-0.071,-0.105 0.065,-0.204 0.407,-0.299c-0.2,-0.073 -0.3,-0.167 -0.3,-0.282c0.2,-0.126 0.379,-0.299 0.536,-0.519c0.157,-0.219 0.286,-0.437 0.386,-0.651c0.1,-0.215 0.121,-0.411 0.064,-0.589c-0.057,-0.178 -0.343,-0.309 -0.857,-0.393c0.029,-0.021 0.086,-0.031 0.171,-0.031c0.086,-0 0.172,-0.006 0.258,-0.016c-0.229,-0.063 -0.365,-0.152 -0.408,-0.267c-0.042,-0.115 -0.15,-0.215 -0.321,-0.299c0.057,-0.052 0.1,-0.099 0.129,-0.141c0.028,-0.042 0.128,-0.057 0.3,-0.047c-0.086,-0.188 -0.079,-0.366 0.021,-0.534c0.1,-0.168 0.25,-0.327 0.45,-0.479c0.2,-0.152 0.443,-0.301 0.728,-0.448c0.286,-0.146 0.558,-0.293 0.815,-0.439c0.2,-0.011 0.321,-0 0.364,0.031c0.043,0.031 0.136,0.026 0.279,-0.016c0.371,-0.104 0.628,-0.214 0.771,-0.33c0.143,-0.115 0.214,-0.246 0.214,-0.392c0.2,-0.22 0.443,-0.443 0.729,-0.668c0.285,-0.225 0.6,-0.432 0.943,-0.62c0.342,-0.189 0.721,-0.356 1.135,-0.503c0.414,-0.146 0.85,-0.256 1.307,-0.33c0.343,-0.104 0.772,-0.201 1.286,-0.29c0.514,-0.089 1.071,-0.157 1.671,-0.204c0.6,-0.048 1.207,-0.074 1.822,-0.079c0.614,-0.005 1.178,0.018 1.692,0.071c0.143,0.021 0.222,0.01 0.236,-0.032c0.014,-0.042 0.064,-0.062 0.15,-0.062Zm-1.757,3.753c0.714,-0.115 1.479,-0.206 2.293,-0.275c0.814,-0.068 1.493,-0.196 2.035,-0.384c-0.342,-0.116 -0.842,-0.218 -1.5,-0.307c-0.657,-0.089 -1.371,-0.144 -2.142,-0.165c-0.772,-0.02 -1.55,0.003 -2.336,0.071c-0.786,0.068 -1.464,0.196 -2.036,0.385c-0.171,0.188 -0.314,0.338 -0.428,0.448c-0.114,0.11 -0.271,0.243 -0.471,0.4c0.057,0.052 0.15,0.092 0.278,0.118c0.129,0.026 0.222,0.065 0.279,0.118c0.657,-0.126 1.321,-0.197 1.992,-0.212c0.672,-0.016 1.35,-0.081 2.036,-0.197Z" style="fill-rule:nonzero;"/>
                <path d="M2109.84,2175.26c-0.171,0.178 -0.421,0.359 -0.75,0.542c-0.328,0.183 -0.714,0.346 -1.157,0.487c-0.443,0.141 -0.936,0.259 -1.479,0.353c-0.542,0.095 -1.114,0.147 -1.714,0.157c-0.371,-0.031 -0.621,-0.065 -0.75,-0.102c-0.128,-0.036 -0.264,-0.07 -0.407,-0.102c-0.085,-0.021 -0.164,-0.039 -0.235,-0.055c-0.072,-0.015 -0.136,-0.029 -0.193,-0.039l-0.515,-0.079l0.172,-0.204c0.057,-0.084 0.043,-0.149 -0.043,-0.196c-0.086,-0.047 -0.257,-0.113 -0.514,-0.196c-0.086,-0.032 -0.172,-0.063 -0.257,-0.095c-0.086,-0.031 -0.158,-0.062 -0.215,-0.094l-0.728,-0.298l1.157,-0.11c0.714,-0.074 1.193,-0.168 1.435,-0.283c0.243,-0.115 0.336,-0.309 0.279,-0.581c-0.571,-0.042 -1.05,-0.047 -1.436,-0.016c-0.385,0.032 -0.778,0.068 -1.178,0.11c-0.514,0.052 -1.036,0.097 -1.564,0.134c-0.529,0.036 -1.107,0.055 -1.736,0.055c-0.228,-0 -0.443,-0.003 -0.643,-0.008c-0.2,-0.005 -0.414,-0.013 -0.643,-0.024l-0.428,-0.031c-0.057,-0.115 -0.114,-0.181 -0.172,-0.197c-0.057,-0.015 -0.114,-0.034 -0.171,-0.055c-0.143,-0.052 -0.293,-0.123 -0.45,-0.212c-0.157,-0.089 -0.193,-0.201 -0.107,-0.337c-0.143,-0.094 -0.229,-0.189 -0.257,-0.283c-0.172,0.126 -0.3,0.257 -0.386,0.393l-0.171,0.157l-0.429,0.031c-0.057,0.011 -0.1,0.034 -0.128,0.071c-0.029,0.036 -0.043,0.065 -0.043,0.086l-0.215,0.267c-0.057,0.021 -0.114,0.04 -0.171,0.055c-0.057,0.016 -0.114,0.034 -0.171,0.055c-0.058,0.094 -0.129,0.189 -0.215,0.283c-0.085,0.094 -0.171,0.183 -0.257,0.267c-0.143,0.136 -0.264,0.27 -0.364,0.4c-0.1,0.131 -0.136,0.26 -0.107,0.385l-0.172,0.173c-0.142,0.063 -0.3,0.113 -0.471,0.149c-0.171,0.037 -0.343,0.071 -0.514,0.102c-0.057,0.021 -0.136,0.04 -0.236,0.055c-0.1,0.016 -0.179,0.029 -0.236,0.04l-0.128,0.172l-0.515,0.032c-0.314,0.021 -0.535,0.036 -0.664,0.047c-0.128,0.01 -0.278,0.016 -0.45,0.016l-0.428,-0.016c-0.315,-0.094 -0.557,-0.17 -0.729,-0.228c-0.171,-0.057 -0.371,-0.112 -0.6,-0.165c-0.257,-0.125 -0.4,-0.22 -0.428,-0.283c-0.029,-0.062 -0.058,-0.12 -0.086,-0.172c-0.057,-0.063 -0.093,-0.115 -0.107,-0.157c-0.014,-0.042 -0.05,-0.074 -0.107,-0.095l-0.557,-0.188l0.471,-0.141l0.043,-0.267c0.571,-0.534 1.178,-1.048 1.821,-1.54c0.643,-0.492 1.307,-0.994 1.993,-1.507c0.228,-0.168 0.45,-0.336 0.664,-0.503c0.214,-0.168 0.436,-0.335 0.664,-0.503c-0.028,-0.031 -0.042,-0.068 -0.042,-0.11c-0,-0.042 0.028,-0.089 0.085,-0.141c0.315,-0.178 0.572,-0.338 0.772,-0.479c0.2,-0.141 0.4,-0.285 0.6,-0.432c0.228,-0.178 0.464,-0.351 0.707,-0.518c0.243,-0.168 0.55,-0.341 0.921,-0.519l0.686,-0.11c0.085,-0.01 0.185,-0.023 0.3,-0.039c0.114,-0.016 0.243,-0.023 0.385,-0.023l0.643,0.031c0.8,-0.136 1.5,-0.327 2.1,-0.573c0.6,-0.246 1.214,-0.542 1.843,-0.888l0.428,-0.22l0.558,0.126c0.142,0.032 0.342,0.06 0.6,0.087c0.257,0.026 0.528,0.054 0.814,0.086c0.514,0.042 1,0.089 1.457,0.141c0.457,0.053 0.828,0.131 1.114,0.236c0.172,0.167 0.272,0.293 0.3,0.377c0.029,0.084 0.072,0.167 0.129,0.251c0.085,0.178 0.164,0.356 0.235,0.534c0.072,0.178 0.122,0.377 0.15,0.597c0.143,0.178 0.265,0.353 0.365,0.526c0.1,0.173 0.192,0.348 0.278,0.526c0.143,0.252 0.286,0.495 0.429,0.731c0.143,0.235 0.328,0.458 0.557,0.667c0.228,0 0.371,0.005 0.428,0.016c0.143,-0.021 0.293,-0.037 0.45,-0.047c0.158,-0.011 0.336,-0.021 0.536,-0.032l0.471,-0.015l0.172,0.157c0.028,0.052 0.171,0.104 0.428,0.157c0.372,0.01 0.643,0.039 0.815,0.086c0.171,0.047 0.328,0.097 0.471,0.149c0.114,0.042 0.229,0.074 0.343,0.095l0.643,0.094l-0.343,0.235c-0.286,0.189 -0.693,0.37 -1.221,0.542c-0.529,0.173 -1.122,0.317 -1.779,0.432c0.029,0.063 0.05,0.123 0.064,0.181c0.015,0.057 0.05,0.118 0.107,0.18c0.086,0.178 0.158,0.362 0.215,0.55c0.057,0.189 0.057,0.382 -0,0.581l-0.086,0.063Zm-12.385,-2.717c0.857,-0.021 1.636,-0.045 2.336,-0.071c0.7,-0.026 1.478,-0.07 2.335,-0.133c-0.2,-0.314 -0.414,-0.642 -0.643,-0.982c-0.228,-0.34 -0.471,-0.678 -0.728,-1.013l-0.257,0.157c-0.572,0.22 -1.122,0.466 -1.65,0.738c-0.529,0.273 -0.979,0.529 -1.35,0.77c-0.172,0.094 -0.343,0.188 -0.514,0.283c-0.172,0.094 -0.329,0.188 -0.472,0.282c0.172,-0.01 0.336,-0.015 0.493,-0.015c0.157,-0 0.307,-0.006 0.45,-0.016Z" style="fill-rule:nonzero;"/>
                <path d="M2121.46,2173.72c-0.257,0.021 -0.443,0.076 -0.557,0.165c-0.115,0.089 -0.222,0.18 -0.322,0.275c-0.1,0.094 -0.2,0.18 -0.3,0.259c-0.1,0.078 -0.25,0.118 -0.45,0.118c-0.028,0.083 -0.107,0.157 -0.235,0.22c-0.129,0.062 -0.25,0.128 -0.365,0.196c-0.114,0.068 -0.2,0.141 -0.257,0.22c-0.057,0.078 -0.028,0.17 0.086,0.275c-0.229,0.062 -0.372,0.151 -0.429,0.267c-0.057,0.115 -0.121,0.225 -0.193,0.329c-0.071,0.105 -0.192,0.194 -0.364,0.267c-0.171,0.074 -0.485,0.105 -0.943,0.095c-0.085,0.042 -0.1,0.068 -0.042,0.078c0.057,0.011 0.1,0.047 0.128,0.11c-0.314,-0.021 -0.55,-0.013 -0.707,0.024c-0.157,0.036 -0.35,0.06 -0.579,0.07c-0.542,-0.062 -0.992,-0.172 -1.349,-0.329c-0.358,-0.157 -0.672,-0.333 -0.943,-0.527c-0.272,-0.193 -0.515,-0.39 -0.729,-0.589c-0.214,-0.199 -0.421,-0.371 -0.621,-0.518c0.085,-0.115 0.1,-0.228 0.043,-0.338c-0.058,-0.11 -0.158,-0.201 -0.3,-0.274c1.4,-1.089 2.928,-2.252 4.585,-3.487c1.657,-1.236 3.229,-2.456 4.714,-3.66c0.657,0.094 1.307,0.202 1.95,0.322c0.643,0.121 1.229,0.259 1.757,0.416c0.529,0.157 0.979,0.338 1.35,0.542c0.371,0.204 0.614,0.432 0.729,0.683c-0.058,0.063 -0.122,0.087 -0.193,0.071c-0.072,-0.016 -0.136,-0.008 -0.193,0.024c0.114,0.052 0.178,0.089 0.193,0.11c0.014,0.021 0.014,0.042 -0,0.062c-0.015,0.021 -0.022,0.05 -0.022,0.087c0,0.037 0.043,0.086 0.129,0.149c-0.114,-0.01 -0.193,-0.005 -0.236,0.016c-0.043,0.021 -0.136,0.021 -0.278,-0c0.114,0.115 0.15,0.209 0.107,0.282c-0.043,0.074 -0.107,0.139 -0.193,0.197c-0.086,0.057 -0.157,0.12 -0.214,0.188c-0.058,0.068 -0.043,0.155 0.042,0.259c-0.085,0 -0.15,0.008 -0.192,0.024c-0.043,0.016 -0.079,0.031 -0.107,0.047c-0.029,0.016 -0.065,0.032 -0.108,0.047c-0.042,0.016 -0.107,0.019 -0.192,0.008c0.085,0.23 0.114,0.461 0.085,0.691c-0.028,0.231 -0.05,0.464 -0.064,0.699c-0.014,0.236 -0.007,0.482 0.021,0.738c0.029,0.257 0.129,0.521 0.3,0.793c1.029,-0.219 1.85,-0.502 2.465,-0.848c0.614,-0.345 1.114,-0.733 1.499,-1.162c0.386,-0.429 0.679,-0.89 0.879,-1.382c0.2,-0.492 0.414,-0.995 0.643,-1.508c0.257,-0.094 0.457,-0.209 0.6,-0.345c0.143,-0.137 0.271,-0.281 0.385,-0.432c0.115,-0.152 0.229,-0.304 0.343,-0.456c0.115,-0.152 0.257,-0.29 0.429,-0.416c0.428,0.021 0.793,0.071 1.093,0.149c0.3,0.079 0.578,0.162 0.835,0.251c0.257,0.089 0.529,0.173 0.815,0.252c0.285,0.078 0.642,0.128 1.071,0.149c0.343,0.178 0.657,0.351 0.943,0.518c0.285,0.168 0.471,0.346 0.557,0.534c-0.143,0.084 -0.25,0.178 -0.322,0.283c-0.071,0.105 -0.15,0.209 -0.235,0.314c-0.086,0.105 -0.2,0.202 -0.343,0.291c-0.143,0.089 -0.343,0.165 -0.6,0.227c-0.086,0.273 -0.193,0.521 -0.321,0.746c-0.129,0.226 -0.258,0.448 -0.386,0.668c-0.129,0.22 -0.236,0.448 -0.322,0.683c-0.085,0.236 -0.114,0.495 -0.085,0.778c-0.229,0.241 -0.472,0.497 -0.729,0.769c-0.257,0.273 -0.457,0.519 -0.6,0.739c-0.457,0.136 -0.814,0.298 -1.071,0.486c-0.257,0.189 -0.529,0.377 -0.814,0.566c-0.115,0.042 -0.186,0.052 -0.215,0.031c-0.028,-0.021 -0.128,-0.036 -0.3,-0.047c0.029,0.042 0.029,0.073 0,0.094c-0.028,0.021 -0.064,0.04 -0.107,0.055c-0.043,0.016 -0.071,0.04 -0.086,0.071c-0.014,0.031 0.008,0.073 0.065,0.126c-0.4,0.063 -0.757,0.152 -1.072,0.267c-0.314,0.115 -0.65,0.22 -1.007,0.314c-0.357,0.094 -0.785,0.157 -1.285,0.188c-0.5,0.032 -1.15,-0.005 -1.95,-0.11c-1.172,-0.314 -2.207,-0.675 -3.107,-1.083c-0.9,-0.409 -1.636,-0.896 -2.207,-1.461Z" style="fill-rule:nonzero;"/>
                <path d="M2161.83,2169.02c-0.714,-0 -1.486,0.018 -2.314,0.055c-0.829,0.036 -1.643,0.076 -2.443,0.117c-0.571,0.032 -1.121,0.058 -1.65,0.079c-0.528,0.021 -1.007,0.037 -1.435,0.047c-0.2,0.23 -0.4,0.435 -0.6,0.613c-0.2,0.178 -0.415,0.35 -0.643,0.518c-0.229,0.178 -0.436,0.359 -0.622,0.542c-0.185,0.183 -0.364,0.379 -0.535,0.589c-0.286,0.167 -0.522,0.322 -0.707,0.463c-0.186,0.142 -0.336,0.301 -0.45,0.479c-0.343,0.157 -0.6,0.322 -0.772,0.495c-0.171,0.173 -0.3,0.322 -0.385,0.448l-0.172,0.188c-0.171,0.063 -0.271,0.113 -0.3,0.149c-0.028,0.037 -0.1,0.071 -0.214,0.102c-0.029,0.116 -0.129,0.231 -0.3,0.346c-0.057,0.052 -0.1,0.102 -0.129,0.149c-0.028,0.047 -0.042,0.081 -0.042,0.102c-0,0.105 -0.072,0.173 -0.215,0.204c0.029,0.053 0.029,0.108 0,0.165c-0.028,0.058 -0.057,0.113 -0.085,0.165c-0.086,0.126 -0.115,0.225 -0.086,0.299c0.086,0.042 0.164,0.078 0.236,0.11c0.071,0.031 0.121,0.073 0.15,0.125c0.171,0.042 0.3,0.068 0.385,0.079c0.114,0.031 0.286,0.068 0.514,0.11l0.386,0.157c0.143,0.303 0.014,0.544 -0.386,0.722c-0.428,0.199 -1.157,0.299 -2.185,0.299l-0.514,-0c-0.143,-0.053 -0.229,-0.095 -0.258,-0.126c-0.228,-0.031 -0.414,-0.058 -0.557,-0.078c-0.142,-0.021 -0.271,-0.063 -0.385,-0.126c-0.372,-0.063 -0.672,-0.115 -0.9,-0.157l-0.386,-0.079l0,-0.188c-0.2,-0.094 -0.35,-0.199 -0.45,-0.314c-0.1,-0.115 -0.179,-0.231 -0.236,-0.346c-0.057,-0.094 -0.121,-0.183 -0.193,-0.267c-0.071,-0.084 -0.164,-0.157 -0.278,-0.22c-0.057,-0.607 0.1,-1.12 0.471,-1.539c0.372,-0.419 0.757,-0.822 1.157,-1.209c0.229,-0.21 0.458,-0.422 0.686,-0.636c0.229,-0.215 0.429,-0.438 0.6,-0.668l0.386,-0.157c0.2,-0.168 0.364,-0.306 0.493,-0.416c0.128,-0.11 0.264,-0.223 0.407,-0.338c0.085,-0.073 0.164,-0.144 0.235,-0.212c0.072,-0.068 0.136,-0.128 0.193,-0.181c-0.171,0 -0.328,0.003 -0.471,0.008c-0.143,0.005 -0.286,0.013 -0.429,0.024c-0.171,0.01 -0.328,0.018 -0.471,0.023c-0.143,0.006 -0.286,0.008 -0.429,0.008c-0.2,0 -0.342,-0.005 -0.428,-0.016c-0.314,0.053 -0.657,0.079 -1.029,0.079l-0.428,0c-0.086,0 -0.165,-0.003 -0.236,-0.008c-0.071,-0.005 -0.136,-0.008 -0.193,-0.008c-0.285,0 -0.514,0.016 -0.685,0.047l-1.415,0c-0.057,0 -0.128,0.003 -0.214,0.008c-0.086,0.006 -0.157,0.008 -0.214,0.008c-0.2,0 -0.415,-0.008 -0.643,-0.023c-0.229,-0.016 -0.471,-0.05 -0.729,-0.103c-0.342,-0.167 -0.571,-0.256 -0.685,-0.267l-0.386,-0.188c-0.029,-0.063 -0.071,-0.123 -0.129,-0.181c-0.057,-0.057 -0.114,-0.123 -0.171,-0.196c-0.114,-0.105 -0.221,-0.217 -0.321,-0.338c-0.1,-0.12 -0.15,-0.264 -0.15,-0.432c0.028,-0.083 0.085,-0.146 0.171,-0.188c0.086,-0.042 0.157,-0.079 0.214,-0.11l0.129,-0.236l0.557,0.016l1.2,0c0.914,0 1.843,-0.013 2.786,-0.039c0.942,-0.026 1.914,-0.055 2.914,-0.087c0.571,-0.02 1.15,-0.041 1.735,-0.062c0.586,-0.021 1.193,-0.042 1.822,-0.063c0.114,-0.094 0.228,-0.183 0.342,-0.267l0.429,-0.079c0.514,-0.01 0.879,0.013 1.093,0.071c0.214,0.058 0.393,0.113 0.536,0.165c0.628,-0.021 1.264,-0.045 1.907,-0.071c0.642,-0.026 1.292,-0.06 1.949,-0.102c0.972,-0.052 1.95,-0.099 2.936,-0.141c0.986,-0.042 1.936,-0.063 2.85,-0.063c0.4,-0 0.786,0.005 1.157,0.016c0.371,0.01 0.714,0.026 1.028,0.047l0.429,0.11c0.086,0.063 0.207,0.12 0.364,0.172c0.157,0.053 0.322,0.105 0.493,0.158c0.343,0.115 0.686,0.251 1.029,0.408c0.342,0.157 0.471,0.387 0.385,0.691c-0.228,0.126 -0.4,0.199 -0.514,0.22l-0.386,0.188l-0.428,-0.015c-0.172,-0 -0.329,0.007 -0.472,0.023c-0.142,0.016 -0.285,0.034 -0.428,0.055c-0.114,0.021 -0.229,0.039 -0.343,0.055c-0.114,0.016 -0.243,0.029 -0.386,0.039c-0.257,0 -0.464,-0.002 -0.621,-0.007c-0.157,-0.006 -0.321,-0.008 -0.493,-0.008Z" style="fill-rule:nonzero;"/>
                <path d="M2159.17,2169.51c0.2,-0.22 0.522,-0.409 0.964,-0.566c0.443,-0.157 0.929,-0.29 1.457,-0.4c0.529,-0.11 1.079,-0.202 1.65,-0.275c0.572,-0.073 1.115,-0.136 1.629,-0.189c1.143,-0.178 2.364,-0.348 3.664,-0.51c1.3,-0.162 2.628,-0.306 3.985,-0.432c1.357,-0.126 2.75,-0.207 4.179,-0.244c1.428,-0.036 2.928,0.029 4.5,0.197c0.085,0.105 0.214,0.204 0.385,0.298c0.172,0.094 0.35,0.189 0.536,0.283c0.186,0.094 0.35,0.186 0.493,0.275c0.143,0.089 0.228,0.18 0.257,0.275c0.286,0.094 0.514,0.196 0.686,0.306c0.171,0.11 0.2,0.254 0.085,0.432c-0.285,0.084 -0.564,0.16 -0.835,0.228c-0.272,0.068 -0.565,0.128 -0.879,0.18c-1.057,-0.094 -2.128,-0.125 -3.214,-0.094c-1.086,0.031 -2.057,0.058 -2.914,0.079c-0.257,-0.095 -0.564,-0.142 -0.922,-0.142c-0.357,0 -0.728,0.021 -1.114,0.063c-0.385,0.042 -0.771,0.084 -1.157,0.126c-0.386,0.042 -0.75,0.052 -1.093,0.031c-0.285,0.084 -0.635,0.139 -1.05,0.165c-0.414,0.026 -0.864,0.05 -1.35,0.071c-0.028,0.052 0,0.086 0.086,0.102c0.086,0.015 0.1,0.049 0.043,0.102c0.171,0.073 0.393,0.126 0.664,0.157c0.272,0.031 0.557,0.063 0.857,0.094c0.3,0.032 0.565,0.071 0.793,0.118c0.229,0.047 0.386,0.123 0.472,0.228c0.428,-0 0.8,0.036 1.114,0.11c0.314,0.073 0.571,0.162 0.771,0.267c0.2,0.104 0.35,0.217 0.45,0.337c0.1,0.121 0.15,0.228 0.15,0.322c0.086,0.084 0.186,0.121 0.3,0.11c0.114,-0.01 0.243,0.011 0.386,0.063c0.086,0.136 0.3,0.275 0.643,0.416c0.343,0.142 0.614,0.296 0.814,0.464c0.057,0.261 0.1,0.494 0.128,0.699c0.029,0.204 -0.071,0.411 -0.299,0.62c-0.429,0.387 -1.022,0.733 -1.779,1.037c-0.757,0.303 -1.614,0.573 -2.571,0.808c-0.957,0.236 -1.979,0.438 -3.064,0.605c-1.086,0.168 -2.143,0.309 -3.172,0.424c-0.114,-0.01 -0.228,-0.01 -0.343,0c-0.114,0.011 -0.142,-0.015 -0.085,-0.078c-0.229,0.073 -0.479,0.12 -0.75,0.141c-0.272,0.021 -0.564,0.029 -0.879,0.024c-0.314,-0.006 -0.635,-0.013 -0.964,-0.024c-0.328,-0.01 -0.636,-0.005 -0.921,0.016c-0.2,-0.074 -0.379,-0.144 -0.536,-0.212c-0.157,-0.068 -0.279,-0.155 -0.364,-0.259c-0.143,-0 -0.207,-0.027 -0.193,-0.079c0.014,-0.052 -0.036,-0.078 -0.15,-0.078c0.171,-0.105 0.25,-0.165 0.236,-0.181c-0.015,-0.016 -0.058,-0.029 -0.129,-0.039c-0.071,-0.011 -0.136,-0.024 -0.193,-0.04c-0.057,-0.015 -0.071,-0.039 -0.043,-0.07c0.115,-0.084 0.157,-0.181 0.129,-0.291c-0.029,-0.11 -0.057,-0.222 -0.086,-0.338c-0.028,-0.115 -0.007,-0.225 0.064,-0.329c0.072,-0.105 0.279,-0.189 0.622,-0.252c0.971,0.042 1.893,0.029 2.764,-0.039c0.871,-0.068 1.693,-0.165 2.464,-0.291c0.772,-0.125 1.507,-0.261 2.207,-0.408c0.7,-0.146 1.393,-0.277 2.079,-0.393c0.085,-0.094 0.207,-0.172 0.364,-0.235c0.157,-0.063 0.321,-0.121 0.493,-0.173c0.171,-0.052 0.328,-0.11 0.471,-0.173c0.143,-0.063 0.243,-0.141 0.3,-0.235c0.029,-0.074 -0.021,-0.118 -0.15,-0.134c-0.128,-0.016 -0.193,-0.055 -0.193,-0.118l-0.471,-0.047c-0.543,-0.115 -1.157,-0.212 -1.843,-0.29c-0.686,-0.079 -1.271,-0.165 -1.757,-0.259c-0.314,0.062 -0.607,0.078 -0.878,0.047c-0.272,-0.032 -0.622,-0.063 -1.05,-0.095c-0.972,-0.02 -1.907,-0.057 -2.807,-0.109c-0.9,-0.053 -1.765,-0.147 -2.593,-0.283c-0.057,-0.053 -0.129,-0.1 -0.214,-0.142c-0.086,-0.041 -0.243,-0.052 -0.472,-0.031c-0.171,-0.084 -0.343,-0.165 -0.514,-0.243c-0.171,-0.079 -0.329,-0.165 -0.471,-0.26c0.057,-0.125 0.1,-0.233 0.128,-0.322c0.029,-0.089 -0.057,-0.175 -0.257,-0.259c0.114,-0.136 0.2,-0.246 0.257,-0.33c0.057,-0.083 0.057,-0.193 0,-0.329Z" style="fill-rule:nonzero;"/>
                <path d="M1968.04,2183.18c0.2,0.084 0.371,0.171 0.514,0.26c0.143,0.089 0.357,0.154 0.643,0.196c-0.143,0.262 -0.186,0.51 -0.129,0.746c0.058,0.236 0.1,0.489 0.129,0.762c-0.4,0.795 -1.286,1.432 -2.657,1.908c-1.371,0.476 -2.957,0.804 -4.757,0.982c0,0.104 -0.086,0.178 -0.257,0.22c-0.571,0.031 -1,0.083 -1.286,0.157c-0.285,0.073 -0.55,0.151 -0.792,0.235c-0.243,0.084 -0.529,0.165 -0.858,0.244c-0.328,0.078 -0.835,0.138 -1.521,0.18c-0.143,0.115 -0.336,0.189 -0.578,0.22c-0.243,0.032 -0.486,0.055 -0.729,0.071c-0.243,0.016 -0.479,0.042 -0.707,0.078c-0.229,0.037 -0.4,0.123 -0.514,0.26l-2.443,0.832c-0.686,-0.063 -1.286,-0.092 -1.8,-0.086c-0.514,0.005 -0.943,-0.003 -1.286,-0.024c-0.342,-0.021 -0.607,-0.084 -0.792,-0.188c-0.186,-0.105 -0.308,-0.304 -0.365,-0.597c0.029,-0.105 0.136,-0.176 0.322,-0.212c0.185,-0.037 0.307,-0.097 0.364,-0.181c-0,-0.23 0.093,-0.4 0.279,-0.51c0.185,-0.11 0.421,-0.202 0.707,-0.275c0.285,-0.074 0.585,-0.155 0.9,-0.244c0.314,-0.089 0.585,-0.227 0.814,-0.416c0.457,-0.073 0.964,-0.191 1.521,-0.353c0.557,-0.163 1.064,-0.322 1.522,-0.479c0.714,-0.136 1.321,-0.257 1.821,-0.362c0.5,-0.104 0.964,-0.209 1.393,-0.314c0.428,-0.104 0.857,-0.22 1.285,-0.345c0.429,-0.126 0.943,-0.283 1.543,-0.471c-0.143,-0.137 -0.407,-0.213 -0.793,-0.228c-0.385,-0.016 -0.821,-0.013 -1.307,0.008c-0.828,-0.095 -1.635,-0.155 -2.421,-0.181c-0.786,-0.026 -1.707,-0.05 -2.764,-0.071c-0.4,0.011 -0.693,0.024 -0.879,0.04c-0.186,0.015 -0.464,0.013 -0.835,-0.008c-0.172,0.052 -0.365,0.094 -0.579,0.125c-0.214,0.032 -0.443,0.061 -0.686,0.087c-0.243,0.026 -0.485,0.052 -0.728,0.078c-0.243,0.026 -0.464,0.061 -0.664,0.102c-0.572,-0.052 -1.029,-0.151 -1.372,-0.298c-0.343,-0.147 -0.757,-0.262 -1.243,-0.346c-0.057,-0.073 -0.014,-0.12 0.129,-0.141c0.143,-0.021 0.186,-0.084 0.128,-0.188c-0.285,-0.053 -0.421,-0.095 -0.407,-0.126c0.015,-0.031 -0.078,-0.073 -0.278,-0.126c0.114,-0.167 0.278,-0.311 0.493,-0.432c0.214,-0.12 0.45,-0.235 0.707,-0.345c0.257,-0.11 0.514,-0.217 0.771,-0.322c0.257,-0.105 0.486,-0.225 0.686,-0.361c0.457,-0.042 0.85,-0.108 1.178,-0.197c0.329,-0.089 0.65,-0.186 0.965,-0.29c1.542,-0.063 3.042,-0.081 4.499,-0.055c1.457,0.026 2.907,0.081 4.35,0.165c1.443,0.083 2.886,0.199 4.328,0.345c1.443,0.147 2.922,0.304 4.436,0.471Zm-16.456,9.032c-0.057,0.157 -0.107,0.272 -0.15,0.345c-0.043,0.073 -0.065,0.141 -0.065,0.204c0,0.063 0.022,0.142 0.065,0.236c0.043,0.094 0.121,0.241 0.235,0.44l0.129,0.251l-0.6,0.047c-0.143,0.011 -0.379,0.058 -0.707,0.141c-0.329,0.084 -0.622,0.152 -0.879,0.205c-0.4,0.083 -0.778,0.175 -1.135,0.274c-0.357,0.1 -0.722,0.15 -1.093,0.15c-0.429,-0.084 -0.729,-0.147 -0.9,-0.189c-0.172,-0.042 -0.343,-0.084 -0.514,-0.125c-0.143,-0.095 -0.272,-0.189 -0.386,-0.283c-0.114,-0.094 -0.243,-0.189 -0.386,-0.283c-0.085,-0.073 -0.143,-0.12 -0.171,-0.141c-0.029,-0.021 -0.05,-0.037 -0.064,-0.047c-0.015,-0.011 -0.043,-0.019 -0.086,-0.024c-0.043,-0.005 -0.136,-0.034 -0.279,-0.086l-0.257,-0.189c-0.028,-0.084 -0.007,-0.165 0.064,-0.243c0.072,-0.079 0.136,-0.155 0.193,-0.228c0.029,-0.031 0.065,-0.071 0.107,-0.118c0.043,-0.047 0.065,-0.081 0.065,-0.102l-0.257,-0.157l0.342,-0.173c0.172,-0.115 0.3,-0.193 0.386,-0.235c0.086,-0.042 0.2,-0.089 0.343,-0.142l0.386,-0.11c0.771,-0.01 1.4,-0.036 1.885,-0.078c0.486,0.031 0.8,0.065 0.943,0.102c0.143,0.037 0.286,0.076 0.429,0.118c0.314,0.084 0.542,0.125 0.685,0.125l0.857,0l-0.085,0.236l0.9,0.079Z" style="fill:rgb(200,4,27);fill-rule:nonzero;"/>
                <path d="M1992.46,2183.18c0.2,0.084 0.372,0.171 0.515,0.26c0.142,0.089 0.357,0.154 0.642,0.196c-0.142,0.262 -0.185,0.51 -0.128,0.746c0.057,0.236 0.1,0.489 0.128,0.762c-0.4,0.795 -1.285,1.432 -2.657,1.908c-1.371,0.476 -2.957,0.804 -4.757,0.982c0,0.104 -0.085,0.178 -0.257,0.22c-0.571,0.031 -1,0.083 -1.285,0.157c-0.286,0.073 -0.55,0.151 -0.793,0.235c-0.243,0.084 -0.529,0.165 -0.857,0.244c-0.329,0.078 -0.836,0.138 -1.522,0.18c-0.142,0.115 -0.335,0.189 -0.578,0.22c-0.243,0.032 -0.486,0.055 -0.729,0.071c-0.242,0.016 -0.478,0.042 -0.707,0.078c-0.228,0.037 -0.4,0.123 -0.514,0.26l-2.443,0.832c-0.685,-0.063 -1.285,-0.092 -1.8,-0.086c-0.514,0.005 -0.942,-0.003 -1.285,-0.024c-0.343,-0.021 -0.607,-0.084 -0.793,-0.188c-0.186,-0.105 -0.307,-0.304 -0.364,-0.597c0.028,-0.105 0.135,-0.176 0.321,-0.212c0.186,-0.037 0.307,-0.097 0.364,-0.181c0,-0.23 0.093,-0.4 0.279,-0.51c0.186,-0.11 0.421,-0.202 0.707,-0.275c0.286,-0.074 0.586,-0.155 0.9,-0.244c0.314,-0.089 0.586,-0.227 0.814,-0.416c0.457,-0.073 0.964,-0.191 1.521,-0.353c0.558,-0.163 1.065,-0.322 1.522,-0.479c0.714,-0.136 1.321,-0.257 1.821,-0.362c0.5,-0.104 0.964,-0.209 1.393,-0.314c0.429,-0.104 0.857,-0.22 1.286,-0.345c0.428,-0.126 0.942,-0.283 1.542,-0.471c-0.142,-0.137 -0.407,-0.213 -0.792,-0.228c-0.386,-0.016 -0.822,-0.013 -1.307,0.008c-0.829,-0.095 -1.636,-0.155 -2.422,-0.181c-0.785,-0.026 -1.707,-0.05 -2.764,-0.071c-0.4,0.011 -0.693,0.024 -0.878,0.04c-0.186,0.015 -0.465,0.013 -0.836,-0.008c-0.172,0.052 -0.364,0.094 -0.579,0.125c-0.214,0.032 -0.443,0.061 -0.685,0.087c-0.243,0.026 -0.486,0.052 -0.729,0.078c-0.243,0.026 -0.464,0.061 -0.664,0.102c-0.572,-0.052 -1.029,-0.151 -1.372,-0.298c-0.342,-0.147 -0.757,-0.262 -1.242,-0.346c-0.057,-0.073 -0.015,-0.12 0.128,-0.141c0.143,-0.021 0.186,-0.084 0.129,-0.188c-0.286,-0.053 -0.422,-0.095 -0.407,-0.126c0.014,-0.031 -0.079,-0.073 -0.279,-0.126c0.114,-0.167 0.279,-0.311 0.493,-0.432c0.214,-0.12 0.45,-0.235 0.707,-0.345c0.257,-0.11 0.514,-0.217 0.771,-0.322c0.258,-0.105 0.486,-0.225 0.686,-0.361c0.457,-0.042 0.85,-0.108 1.179,-0.197c0.328,-0.089 0.65,-0.186 0.964,-0.29c1.543,-0.063 3.043,-0.081 4.5,-0.055c1.457,0.026 2.907,0.081 4.349,0.165c1.443,0.083 2.886,0.199 4.329,0.345c1.443,0.147 2.921,0.304 4.435,0.471Zm-16.456,9.032c-0.057,0.157 -0.107,0.272 -0.15,0.345c-0.043,0.073 -0.064,0.141 -0.064,0.204c-0,0.063 0.021,0.142 0.064,0.236c0.043,0.094 0.121,0.241 0.236,0.44l0.128,0.251l-0.6,0.047c-0.143,0.011 -0.378,0.058 -0.707,0.141c-0.328,0.084 -0.621,0.152 -0.878,0.205c-0.4,0.083 -0.779,0.175 -1.136,0.274c-0.357,0.1 -0.721,0.15 -1.093,0.15c-0.428,-0.084 -0.728,-0.147 -0.9,-0.189c-0.171,-0.042 -0.343,-0.084 -0.514,-0.125c-0.143,-0.095 -0.271,-0.189 -0.386,-0.283c-0.114,-0.094 -0.243,-0.189 -0.385,-0.283c-0.086,-0.073 -0.143,-0.12 -0.172,-0.141c-0.028,-0.021 -0.05,-0.037 -0.064,-0.047c-0.014,-0.011 -0.043,-0.019 -0.086,-0.024c-0.043,-0.005 -0.136,-0.034 -0.278,-0.086l-0.258,-0.189c-0.028,-0.084 -0.007,-0.165 0.065,-0.243c0.071,-0.079 0.135,-0.155 0.193,-0.228c0.028,-0.031 0.064,-0.071 0.107,-0.118c0.043,-0.047 0.064,-0.081 0.064,-0.102l-0.257,-0.157l0.343,-0.173c0.171,-0.115 0.3,-0.193 0.385,-0.235c0.086,-0.042 0.2,-0.089 0.343,-0.142l0.386,-0.11c0.771,-0.01 1.4,-0.036 1.886,-0.078c0.485,0.031 0.8,0.065 0.942,0.102c0.143,0.037 0.286,0.076 0.429,0.118c0.314,0.084 0.543,0.125 0.686,0.125l0.857,0l-0.086,0.236l0.9,0.079Z" style="fill:rgb(200,4,27);fill-rule:nonzero;"/>
                <path d="M2016.89,2183.18c0.2,0.084 0.371,0.171 0.514,0.26c0.143,0.089 0.357,0.154 0.643,0.196c-0.143,0.262 -0.186,0.51 -0.129,0.746c0.057,0.236 0.1,0.489 0.129,0.762c-0.4,0.795 -1.286,1.432 -2.657,1.908c-1.372,0.476 -2.957,0.804 -4.757,0.982c-0,0.104 -0.086,0.178 -0.257,0.22c-0.572,0.031 -1,0.083 -1.286,0.157c-0.286,0.073 -0.55,0.151 -0.793,0.235c-0.243,0.084 -0.528,0.165 -0.857,0.244c-0.328,0.078 -0.836,0.138 -1.521,0.18c-0.143,0.115 -0.336,0.189 -0.579,0.22c-0.243,0.032 -0.485,0.055 -0.728,0.071c-0.243,0.016 -0.479,0.042 -0.707,0.078c-0.229,0.037 -0.4,0.123 -0.515,0.26l-2.442,0.832c-0.686,-0.063 -1.286,-0.092 -1.8,-0.086c-0.515,0.005 -0.943,-0.003 -1.286,-0.024c-0.343,-0.021 -0.607,-0.084 -0.793,-0.188c-0.186,-0.105 -0.307,-0.304 -0.364,-0.597c0.029,-0.105 0.136,-0.176 0.321,-0.212c0.186,-0.037 0.307,-0.097 0.365,-0.181c-0,-0.23 0.092,-0.4 0.278,-0.51c0.186,-0.11 0.422,-0.202 0.707,-0.275c0.286,-0.074 0.586,-0.155 0.9,-0.244c0.315,-0.089 0.586,-0.227 0.814,-0.416c0.458,-0.073 0.965,-0.191 1.522,-0.353c0.557,-0.163 1.064,-0.322 1.521,-0.479c0.714,-0.136 1.322,-0.257 1.822,-0.362c0.499,-0.104 0.964,-0.209 1.392,-0.314c0.429,-0.104 0.857,-0.22 1.286,-0.345c0.428,-0.126 0.943,-0.283 1.543,-0.471c-0.143,-0.137 -0.407,-0.213 -0.793,-0.228c-0.386,-0.016 -0.821,-0.013 -1.307,0.008c-0.829,-0.095 -1.636,-0.155 -2.421,-0.181c-0.786,-0.026 -1.708,-0.05 -2.765,-0.071c-0.4,0.011 -0.692,0.024 -0.878,0.04c-0.186,0.015 -0.464,0.013 -0.836,-0.008c-0.171,0.052 -0.364,0.094 -0.578,0.125c-0.215,0.032 -0.443,0.061 -0.686,0.087c-0.243,0.026 -0.486,0.052 -0.729,0.078c-0.242,0.026 -0.464,0.061 -0.664,0.102c-0.571,-0.052 -1.028,-0.151 -1.371,-0.298c-0.343,-0.147 -0.757,-0.262 -1.243,-0.346c-0.057,-0.073 -0.014,-0.12 0.129,-0.141c0.142,-0.021 0.185,-0.084 0.128,-0.188c-0.286,-0.053 -0.421,-0.095 -0.407,-0.126c0.014,-0.031 -0.079,-0.073 -0.279,-0.126c0.115,-0.167 0.279,-0.311 0.493,-0.432c0.215,-0.12 0.45,-0.235 0.707,-0.345c0.258,-0.11 0.515,-0.217 0.772,-0.322c0.257,-0.105 0.485,-0.225 0.685,-0.361c0.458,-0.042 0.85,-0.108 1.179,-0.197c0.329,-0.089 0.65,-0.186 0.964,-0.29c1.543,-0.063 3.043,-0.081 4.5,-0.055c1.457,0.026 2.907,0.081 4.35,0.165c1.443,0.083 2.885,0.199 4.328,0.345c1.443,0.147 2.921,0.304 4.436,0.471Zm-16.457,9.032c-0.057,0.157 -0.107,0.272 -0.15,0.345c-0.043,0.073 -0.064,0.141 -0.064,0.204c0,0.063 0.021,0.142 0.064,0.236c0.043,0.094 0.122,0.241 0.236,0.44l0.129,0.251l-0.6,0.047c-0.143,0.011 -0.379,0.058 -0.707,0.141c-0.329,0.084 -0.622,0.152 -0.879,0.205c-0.4,0.083 -0.779,0.175 -1.136,0.274c-0.357,0.1 -0.721,0.15 -1.092,0.15c-0.429,-0.084 -0.729,-0.147 -0.9,-0.189c-0.172,-0.042 -0.343,-0.084 -0.515,-0.125c-0.143,-0.095 -0.271,-0.189 -0.385,-0.283c-0.115,-0.094 -0.243,-0.189 -0.386,-0.283c-0.086,-0.073 -0.143,-0.12 -0.171,-0.141c-0.029,-0.021 -0.05,-0.037 -0.065,-0.047c-0.014,-0.011 -0.043,-0.019 -0.085,-0.024c-0.043,-0.005 -0.136,-0.034 -0.279,-0.086l-0.257,-0.189c-0.029,-0.084 -0.007,-0.165 0.064,-0.243c0.072,-0.079 0.136,-0.155 0.193,-0.228c0.029,-0.031 0.064,-0.071 0.107,-0.118c0.043,-0.047 0.064,-0.081 0.064,-0.102l-0.257,-0.157l0.343,-0.173c0.172,-0.115 0.3,-0.193 0.386,-0.235c0.085,-0.042 0.2,-0.089 0.343,-0.142l0.385,-0.11c0.772,-0.01 1.4,-0.036 1.886,-0.078c0.486,0.031 0.8,0.065 0.943,0.102c0.143,0.037 0.285,0.076 0.428,0.118c0.315,0.084 0.543,0.125 0.686,0.125l0.857,0l-0.086,0.236l0.9,0.079Z" style="fill:rgb(200,4,27);fill-rule:nonzero;"/>
                <path d="M1968.04,2200.6c0.2,0.084 0.371,0.17 0.514,0.259c0.143,0.089 0.357,0.155 0.643,0.196c-0.143,0.262 -0.186,0.511 -0.129,0.747c0.058,0.235 0.1,0.489 0.129,0.761c-0.4,0.796 -1.286,1.432 -2.657,1.909c-1.371,0.476 -2.957,0.803 -4.757,0.981c0,0.105 -0.086,0.178 -0.257,0.22c-0.571,0.032 -1,0.084 -1.286,0.157c-0.285,0.074 -0.55,0.152 -0.792,0.236c-0.243,0.084 -0.529,0.165 -0.858,0.243c-0.328,0.079 -0.835,0.139 -1.521,0.181c-0.143,0.115 -0.336,0.188 -0.578,0.22c-0.243,0.031 -0.486,0.055 -0.729,0.07c-0.243,0.016 -0.479,0.042 -0.707,0.079c-0.229,0.037 -0.4,0.123 -0.514,0.259l-2.443,0.833c-0.686,-0.063 -1.286,-0.092 -1.8,-0.087c-0.514,0.005 -0.943,-0.002 -1.286,-0.023c-0.342,-0.021 -0.607,-0.084 -0.792,-0.189c-0.186,-0.105 -0.308,-0.304 -0.365,-0.597c0.029,-0.104 0.136,-0.175 0.322,-0.212c0.185,-0.036 0.307,-0.097 0.364,-0.18c-0,-0.231 0.093,-0.401 0.279,-0.511c0.185,-0.11 0.421,-0.201 0.707,-0.275c0.285,-0.073 0.585,-0.154 0.9,-0.243c0.314,-0.089 0.585,-0.228 0.814,-0.416c0.457,-0.074 0.964,-0.191 1.521,-0.354c0.557,-0.162 1.064,-0.322 1.522,-0.479c0.714,-0.136 1.321,-0.256 1.821,-0.361c0.5,-0.105 0.964,-0.209 1.393,-0.314c0.428,-0.105 0.857,-0.22 1.285,-0.346c0.429,-0.125 0.943,-0.282 1.543,-0.471c-0.143,-0.136 -0.407,-0.212 -0.793,-0.228c-0.385,-0.015 -0.821,-0.013 -1.307,0.008c-0.828,-0.094 -1.635,-0.154 -2.421,-0.18c-0.786,-0.027 -1.707,-0.05 -2.764,-0.071c-0.4,0.01 -0.693,0.023 -0.879,0.039c-0.186,0.016 -0.464,0.013 -0.835,-0.008c-0.172,0.053 -0.365,0.095 -0.579,0.126c-0.214,0.031 -0.443,0.06 -0.686,0.086c-0.243,0.027 -0.485,0.053 -0.728,0.079c-0.243,0.026 -0.464,0.06 -0.664,0.102c-0.572,-0.052 -1.029,-0.152 -1.372,-0.298c-0.343,-0.147 -0.757,-0.262 -1.243,-0.346c-0.057,-0.073 -0.014,-0.12 0.129,-0.141c0.143,-0.021 0.186,-0.084 0.128,-0.189c-0.285,-0.052 -0.421,-0.094 -0.407,-0.125c0.015,-0.032 -0.078,-0.074 -0.278,-0.126c0.114,-0.168 0.278,-0.312 0.493,-0.432c0.214,-0.12 0.45,-0.236 0.707,-0.346c0.257,-0.11 0.514,-0.217 0.771,-0.322c0.257,-0.104 0.486,-0.225 0.686,-0.361c0.457,-0.042 0.85,-0.107 1.178,-0.196c0.329,-0.089 0.65,-0.186 0.965,-0.291c1.542,-0.063 3.042,-0.081 4.499,-0.055c1.457,0.027 2.907,0.081 4.35,0.165c1.443,0.084 2.886,0.199 4.328,0.346c1.443,0.146 2.922,0.303 4.436,0.471Zm-16.456,9.031c-0.057,0.157 -0.107,0.272 -0.15,0.346c-0.043,0.073 -0.065,0.141 -0.065,0.204c0,0.063 0.022,0.141 0.065,0.235c0.043,0.095 0.121,0.241 0.235,0.44l0.129,0.252l-0.6,0.047c-0.143,0.01 -0.379,0.057 -0.707,0.141c-0.329,0.084 -0.622,0.152 -0.879,0.204c-0.4,0.084 -0.778,0.176 -1.135,0.275c-0.357,0.1 -0.722,0.149 -1.093,0.149c-0.429,-0.083 -0.729,-0.146 -0.9,-0.188c-0.172,-0.042 -0.343,-0.084 -0.514,-0.126c-0.143,-0.094 -0.272,-0.188 -0.386,-0.283c-0.114,-0.094 -0.243,-0.188 -0.386,-0.282c-0.085,-0.074 -0.143,-0.121 -0.171,-0.142c-0.029,-0.021 -0.05,-0.036 -0.064,-0.047c-0.015,-0.01 -0.043,-0.018 -0.086,-0.023c-0.043,-0.006 -0.136,-0.034 -0.279,-0.087l-0.257,-0.188c-0.028,-0.084 -0.007,-0.165 0.064,-0.244c0.072,-0.078 0.136,-0.154 0.193,-0.227c0.029,-0.032 0.065,-0.071 0.107,-0.118c0.043,-0.047 0.065,-0.081 0.065,-0.102l-0.257,-0.157l0.342,-0.173c0.172,-0.115 0.3,-0.194 0.386,-0.236c0.086,-0.042 0.2,-0.089 0.343,-0.141l0.386,-0.11c0.771,-0.01 1.4,-0.037 1.885,-0.079c0.486,0.032 0.8,0.066 0.943,0.103c0.143,0.036 0.286,0.075 0.429,0.117c0.314,0.084 0.542,0.126 0.685,0.126l0.857,0l-0.085,0.236l0.9,0.078Z" style="fill:rgb(200,4,27);fill-rule:nonzero;"/>
                <path d="M1992.46,2200.6c0.2,0.084 0.372,0.17 0.515,0.259c0.142,0.089 0.357,0.155 0.642,0.196c-0.142,0.262 -0.185,0.511 -0.128,0.747c0.057,0.235 0.1,0.489 0.128,0.761c-0.4,0.796 -1.285,1.432 -2.657,1.909c-1.371,0.476 -2.957,0.803 -4.757,0.981c0,0.105 -0.085,0.178 -0.257,0.22c-0.571,0.032 -1,0.084 -1.285,0.157c-0.286,0.074 -0.55,0.152 -0.793,0.236c-0.243,0.084 -0.529,0.165 -0.857,0.243c-0.329,0.079 -0.836,0.139 -1.522,0.181c-0.142,0.115 -0.335,0.188 -0.578,0.22c-0.243,0.031 -0.486,0.055 -0.729,0.07c-0.242,0.016 -0.478,0.042 -0.707,0.079c-0.228,0.037 -0.4,0.123 -0.514,0.259l-2.443,0.833c-0.685,-0.063 -1.285,-0.092 -1.8,-0.087c-0.514,0.005 -0.942,-0.002 -1.285,-0.023c-0.343,-0.021 -0.607,-0.084 -0.793,-0.189c-0.186,-0.105 -0.307,-0.304 -0.364,-0.597c0.028,-0.104 0.135,-0.175 0.321,-0.212c0.186,-0.036 0.307,-0.097 0.364,-0.18c0,-0.231 0.093,-0.401 0.279,-0.511c0.186,-0.11 0.421,-0.201 0.707,-0.275c0.286,-0.073 0.586,-0.154 0.9,-0.243c0.314,-0.089 0.586,-0.228 0.814,-0.416c0.457,-0.074 0.964,-0.191 1.521,-0.354c0.558,-0.162 1.065,-0.322 1.522,-0.479c0.714,-0.136 1.321,-0.256 1.821,-0.361c0.5,-0.105 0.964,-0.209 1.393,-0.314c0.429,-0.105 0.857,-0.22 1.286,-0.346c0.428,-0.125 0.942,-0.282 1.542,-0.471c-0.142,-0.136 -0.407,-0.212 -0.792,-0.228c-0.386,-0.015 -0.822,-0.013 -1.307,0.008c-0.829,-0.094 -1.636,-0.154 -2.422,-0.18c-0.785,-0.027 -1.707,-0.05 -2.764,-0.071c-0.4,0.01 -0.693,0.023 -0.878,0.039c-0.186,0.016 -0.465,0.013 -0.836,-0.008c-0.172,0.053 -0.364,0.095 -0.579,0.126c-0.214,0.031 -0.443,0.06 -0.685,0.086c-0.243,0.027 -0.486,0.053 -0.729,0.079c-0.243,0.026 -0.464,0.06 -0.664,0.102c-0.572,-0.052 -1.029,-0.152 -1.372,-0.298c-0.342,-0.147 -0.757,-0.262 -1.242,-0.346c-0.057,-0.073 -0.015,-0.12 0.128,-0.141c0.143,-0.021 0.186,-0.084 0.129,-0.189c-0.286,-0.052 -0.422,-0.094 -0.407,-0.125c0.014,-0.032 -0.079,-0.074 -0.279,-0.126c0.114,-0.168 0.279,-0.312 0.493,-0.432c0.214,-0.12 0.45,-0.236 0.707,-0.346c0.257,-0.11 0.514,-0.217 0.771,-0.322c0.258,-0.104 0.486,-0.225 0.686,-0.361c0.457,-0.042 0.85,-0.107 1.179,-0.196c0.328,-0.089 0.65,-0.186 0.964,-0.291c1.543,-0.063 3.043,-0.081 4.5,-0.055c1.457,0.027 2.907,0.081 4.349,0.165c1.443,0.084 2.886,0.199 4.329,0.346c1.443,0.146 2.921,0.303 4.435,0.471Zm-16.456,9.031c-0.057,0.157 -0.107,0.272 -0.15,0.346c-0.043,0.073 -0.064,0.141 -0.064,0.204c-0,0.063 0.021,0.141 0.064,0.235c0.043,0.095 0.121,0.241 0.236,0.44l0.128,0.252l-0.6,0.047c-0.143,0.01 -0.378,0.057 -0.707,0.141c-0.328,0.084 -0.621,0.152 -0.878,0.204c-0.4,0.084 -0.779,0.176 -1.136,0.275c-0.357,0.1 -0.721,0.149 -1.093,0.149c-0.428,-0.083 -0.728,-0.146 -0.9,-0.188c-0.171,-0.042 -0.343,-0.084 -0.514,-0.126c-0.143,-0.094 -0.271,-0.188 -0.386,-0.283c-0.114,-0.094 -0.243,-0.188 -0.385,-0.282c-0.086,-0.074 -0.143,-0.121 -0.172,-0.142c-0.028,-0.021 -0.05,-0.036 -0.064,-0.047c-0.014,-0.01 -0.043,-0.018 -0.086,-0.023c-0.043,-0.006 -0.136,-0.034 -0.278,-0.087l-0.258,-0.188c-0.028,-0.084 -0.007,-0.165 0.065,-0.244c0.071,-0.078 0.135,-0.154 0.193,-0.227c0.028,-0.032 0.064,-0.071 0.107,-0.118c0.043,-0.047 0.064,-0.081 0.064,-0.102l-0.257,-0.157l0.343,-0.173c0.171,-0.115 0.3,-0.194 0.385,-0.236c0.086,-0.042 0.2,-0.089 0.343,-0.141l0.386,-0.11c0.771,-0.01 1.4,-0.037 1.886,-0.079c0.485,0.032 0.8,0.066 0.942,0.103c0.143,0.036 0.286,0.075 0.429,0.117c0.314,0.084 0.543,0.126 0.686,0.126l0.857,0l-0.086,0.236l0.9,0.078Z" style="fill:rgb(200,4,27);fill-rule:nonzero;"/>
                <path d="M2016.89,2200.6c0.2,0.084 0.371,0.17 0.514,0.259c0.143,0.089 0.357,0.155 0.643,0.196c-0.143,0.262 -0.186,0.511 -0.129,0.747c0.057,0.235 0.1,0.489 0.129,0.761c-0.4,0.796 -1.286,1.432 -2.657,1.909c-1.372,0.476 -2.957,0.803 -4.757,0.981c-0,0.105 -0.086,0.178 -0.257,0.22c-0.572,0.032 -1,0.084 -1.286,0.157c-0.286,0.074 -0.55,0.152 -0.793,0.236c-0.243,0.084 -0.528,0.165 -0.857,0.243c-0.328,0.079 -0.836,0.139 -1.521,0.181c-0.143,0.115 -0.336,0.188 -0.579,0.22c-0.243,0.031 -0.485,0.055 -0.728,0.07c-0.243,0.016 -0.479,0.042 -0.707,0.079c-0.229,0.037 -0.4,0.123 -0.515,0.259l-2.442,0.833c-0.686,-0.063 -1.286,-0.092 -1.8,-0.087c-0.515,0.005 -0.943,-0.002 -1.286,-0.023c-0.343,-0.021 -0.607,-0.084 -0.793,-0.189c-0.186,-0.105 -0.307,-0.304 -0.364,-0.597c0.029,-0.104 0.136,-0.175 0.321,-0.212c0.186,-0.036 0.307,-0.097 0.365,-0.18c-0,-0.231 0.092,-0.401 0.278,-0.511c0.186,-0.11 0.422,-0.201 0.707,-0.275c0.286,-0.073 0.586,-0.154 0.9,-0.243c0.315,-0.089 0.586,-0.228 0.814,-0.416c0.458,-0.074 0.965,-0.191 1.522,-0.354c0.557,-0.162 1.064,-0.322 1.521,-0.479c0.714,-0.136 1.322,-0.256 1.822,-0.361c0.499,-0.105 0.964,-0.209 1.392,-0.314c0.429,-0.105 0.857,-0.22 1.286,-0.346c0.428,-0.125 0.943,-0.282 1.543,-0.471c-0.143,-0.136 -0.407,-0.212 -0.793,-0.228c-0.386,-0.015 -0.821,-0.013 -1.307,0.008c-0.829,-0.094 -1.636,-0.154 -2.421,-0.18c-0.786,-0.027 -1.708,-0.05 -2.765,-0.071c-0.4,0.01 -0.692,0.023 -0.878,0.039c-0.186,0.016 -0.464,0.013 -0.836,-0.008c-0.171,0.053 -0.364,0.095 -0.578,0.126c-0.215,0.031 -0.443,0.06 -0.686,0.086c-0.243,0.027 -0.486,0.053 -0.729,0.079c-0.242,0.026 -0.464,0.06 -0.664,0.102c-0.571,-0.052 -1.028,-0.152 -1.371,-0.298c-0.343,-0.147 -0.757,-0.262 -1.243,-0.346c-0.057,-0.073 -0.014,-0.12 0.129,-0.141c0.142,-0.021 0.185,-0.084 0.128,-0.189c-0.286,-0.052 -0.421,-0.094 -0.407,-0.125c0.014,-0.032 -0.079,-0.074 -0.279,-0.126c0.115,-0.168 0.279,-0.312 0.493,-0.432c0.215,-0.12 0.45,-0.236 0.707,-0.346c0.258,-0.11 0.515,-0.217 0.772,-0.322c0.257,-0.104 0.485,-0.225 0.685,-0.361c0.458,-0.042 0.85,-0.107 1.179,-0.196c0.329,-0.089 0.65,-0.186 0.964,-0.291c1.543,-0.063 3.043,-0.081 4.5,-0.055c1.457,0.027 2.907,0.081 4.35,0.165c1.443,0.084 2.885,0.199 4.328,0.346c1.443,0.146 2.921,0.303 4.436,0.471Zm-16.457,9.031c-0.057,0.157 -0.107,0.272 -0.15,0.346c-0.043,0.073 -0.064,0.141 -0.064,0.204c0,0.063 0.021,0.141 0.064,0.235c0.043,0.095 0.122,0.241 0.236,0.44l0.129,0.252l-0.6,0.047c-0.143,0.01 -0.379,0.057 -0.707,0.141c-0.329,0.084 -0.622,0.152 -0.879,0.204c-0.4,0.084 -0.779,0.176 -1.136,0.275c-0.357,0.1 -0.721,0.149 -1.092,0.149c-0.429,-0.083 -0.729,-0.146 -0.9,-0.188c-0.172,-0.042 -0.343,-0.084 -0.515,-0.126c-0.143,-0.094 -0.271,-0.188 -0.385,-0.283c-0.115,-0.094 -0.243,-0.188 -0.386,-0.282c-0.086,-0.074 -0.143,-0.121 -0.171,-0.142c-0.029,-0.021 -0.05,-0.036 -0.065,-0.047c-0.014,-0.01 -0.043,-0.018 -0.085,-0.023c-0.043,-0.006 -0.136,-0.034 -0.279,-0.087l-0.257,-0.188c-0.029,-0.084 -0.007,-0.165 0.064,-0.244c0.072,-0.078 0.136,-0.154 0.193,-0.227c0.029,-0.032 0.064,-0.071 0.107,-0.118c0.043,-0.047 0.064,-0.081 0.064,-0.102l-0.257,-0.157l0.343,-0.173c0.172,-0.115 0.3,-0.194 0.386,-0.236c0.085,-0.042 0.2,-0.089 0.343,-0.141l0.385,-0.11c0.772,-0.01 1.4,-0.037 1.886,-0.079c0.486,0.032 0.8,0.066 0.943,0.103c0.143,0.036 0.285,0.075 0.428,0.117c0.315,0.084 0.543,0.126 0.686,0.126l0.857,0l-0.086,0.236l0.9,0.078Z" style="fill:rgb(200,4,27);fill-rule:nonzero;"/>
                <path d="M1944.08,2224.42c0.029,-0.042 0.093,-0.06 0.193,-0.055c0.1,0.005 0.193,0.003 0.278,-0.008c-0.228,-0.084 -0.371,-0.196 -0.428,-0.337c-0.057,-0.142 -0.2,-0.26 -0.429,-0.354c0.057,-0.052 0.107,-0.105 0.15,-0.157c0.043,-0.052 0.165,-0.073 0.365,-0.063c-0.086,-0.23 -0.072,-0.445 0.042,-0.644c0.115,-0.199 0.293,-0.387 0.536,-0.565c0.243,-0.178 0.529,-0.353 0.857,-0.526c0.329,-0.173 0.65,-0.348 0.964,-0.526c0.258,-0.021 0.415,-0.014 0.472,0.023c0.057,0.037 0.157,0.029 0.3,-0.023c0.457,-0.116 0.771,-0.244 0.943,-0.385c0.171,-0.142 0.257,-0.296 0.257,-0.464c0.257,-0.272 0.55,-0.541 0.878,-0.808c0.329,-0.267 0.707,-0.516 1.136,-0.747c0.429,-0.23 0.886,-0.431 1.371,-0.604c0.486,-0.173 1.015,-0.306 1.586,-0.401c0.4,-0.125 0.907,-0.241 1.521,-0.345c0.615,-0.105 1.272,-0.186 1.972,-0.244c0.7,-0.057 1.421,-0.089 2.164,-0.094c0.743,-0.005 1.428,0.024 2.057,0.086c0.143,0.021 0.228,0.008 0.257,-0.039c0.029,-0.047 0.1,-0.07 0.214,-0.07c1.429,0.062 2.707,0.167 3.836,0.314c1.128,0.146 2.093,0.35 2.893,0.612c0.542,0.314 1.057,0.652 1.542,1.013c0.486,0.361 0.865,0.738 1.136,1.131c0.271,0.393 0.393,0.799 0.364,1.217c-0.028,0.419 -0.271,0.838 -0.728,1.257c-1,0.461 -2.214,0.83 -3.643,1.107c-1.428,0.278 -2.964,0.508 -4.607,0.691c-1.643,0.183 -3.343,0.333 -5.1,0.448c-1.757,0.115 -3.464,0.241 -5.121,0.377c0.029,0.283 0.029,0.584 0,0.903c-0.028,0.319 -0.121,0.639 -0.278,0.958c-0.158,0.319 -0.386,0.631 -0.686,0.935c-0.3,0.303 -0.707,0.586 -1.221,0.848c-0.572,-0.011 -1.165,0.01 -1.779,0.063c-0.614,0.052 -1.164,0.104 -1.65,0.157c-0.228,-0.053 -0.45,-0.103 -0.664,-0.15c-0.214,-0.047 -0.479,-0.076 -0.793,-0.086c0.086,-0.126 0.007,-0.257 -0.236,-0.393c-0.242,-0.136 -0.485,-0.269 -0.728,-0.4c-0.243,-0.131 -0.4,-0.262 -0.472,-0.393c-0.071,-0.131 0.093,-0.249 0.493,-0.353c-0.228,-0.074 -0.343,-0.189 -0.343,-0.346c0.115,0.042 0.258,0.063 0.429,0.063c-0.057,-0.188 0.007,-0.414 0.193,-0.675c0.186,-0.262 0.343,-0.521 0.471,-0.778c0.129,-0.256 0.15,-0.492 0.065,-0.707c-0.086,-0.214 -0.429,-0.369 -1.029,-0.463Zm11.142,-3.675c-0.114,0.115 -0.207,0.217 -0.278,0.306c-0.072,0.089 -0.15,0.17 -0.236,0.244c-0.086,0.073 -0.178,0.146 -0.278,0.219c-0.1,0.074 -0.208,0.157 -0.322,0.252c0.057,0.063 0.172,0.11 0.343,0.141c0.171,0.031 0.286,0.079 0.343,0.141c0.4,-0.073 0.8,-0.128 1.2,-0.164c0.4,-0.037 0.8,-0.066 1.2,-0.087c0.4,-0.021 0.8,-0.047 1.2,-0.078c0.4,-0.032 0.814,-0.084 1.242,-0.157c0.429,-0.074 0.879,-0.134 1.35,-0.181c0.472,-0.047 0.936,-0.097 1.393,-0.149c0.457,-0.053 0.9,-0.113 1.329,-0.181c0.428,-0.068 0.8,-0.16 1.114,-0.275c-0.4,-0.136 -1,-0.256 -1.8,-0.361c-0.8,-0.105 -1.664,-0.17 -2.593,-0.196c-0.928,-0.027 -1.857,-0.003 -2.785,0.07c-0.929,0.074 -1.736,0.225 -2.422,0.456Z" style="fill-rule:nonzero;"/>
                <path d="M1977.12,2227.21c-0.314,0.419 -0.593,0.735 -0.835,0.95c-0.243,0.215 -0.608,0.437 -1.093,0.668c-0.372,-0.021 -0.629,-0.006 -0.772,0.047c-0.142,0.052 -0.3,0.099 -0.471,0.141c-0.257,0.021 -0.443,0.021 -0.557,0c-0.114,-0.021 -0.214,-0.044 -0.3,-0.071c-0.086,-0.026 -0.193,-0.052 -0.322,-0.078c-0.128,-0.026 -0.321,-0.039 -0.578,-0.039c-0.057,-0.084 -0.122,-0.163 -0.193,-0.236c-0.071,-0.073 -0.264,-0.099 -0.578,-0.079c0.057,-0.083 0.071,-0.154 0.042,-0.212c-0.028,-0.057 -0.064,-0.11 -0.107,-0.157c-0.043,-0.047 -0.078,-0.094 -0.107,-0.141c-0.028,-0.047 -0.014,-0.107 0.043,-0.181c-0.143,0 -0.257,-0.036 -0.343,-0.11c-0.086,-0.073 -0.186,-0.146 -0.3,-0.219c0.086,-0.189 0.172,-0.367 0.257,-0.534c0.086,-0.168 0.193,-0.325 0.322,-0.472c0.128,-0.146 0.235,-0.293 0.321,-0.439c0.086,-0.147 0.043,-0.299 -0.128,-0.456c0.114,0.031 0.199,0.024 0.257,-0.023c0.057,-0.048 0.1,-0.11 0.128,-0.189c0.029,-0.079 0.043,-0.157 0.043,-0.236c0,-0.078 -0.014,-0.144 -0.043,-0.196c0.286,-0.272 0.522,-0.552 0.707,-0.84c0.186,-0.288 0.357,-0.573 0.515,-0.856c0.157,-0.283 0.321,-0.56 0.492,-0.833c0.172,-0.272 0.4,-0.523 0.686,-0.754c0.314,-0.02 0.664,-0.007 1.05,0.04c0.386,0.047 0.621,0.107 0.707,0.18c0.743,-0.209 1.4,-0.463 1.971,-0.761c0.572,-0.299 1.158,-0.589 1.758,-0.872c0.599,-0.283 1.264,-0.534 1.992,-0.754c0.729,-0.22 1.65,-0.351 2.764,-0.393c0.572,0.157 1.207,0.317 1.907,0.479c0.7,0.163 1.279,0.375 1.736,0.636c0.229,0.042 0.421,0.087 0.579,0.134c0.157,0.047 0.35,0.097 0.578,0.149l0,0.189c0.343,0.115 0.622,0.248 0.836,0.4c0.214,0.152 0.407,0.314 0.578,0.487c0.172,0.173 0.343,0.346 0.515,0.518c0.171,0.173 0.371,0.338 0.6,0.495c-0.058,0.053 -0.086,0.097 -0.086,0.134c-0,0.036 0.021,0.076 0.064,0.117c0.043,0.042 0.079,0.084 0.107,0.126c0.029,0.042 0.029,0.1 0,0.173c-0.085,0.461 -0.493,0.832 -1.221,1.115c-0.729,0.283 -1.607,0.516 -2.636,0.699c-1.028,0.183 -2.128,0.338 -3.299,0.463c-1.172,0.126 -2.229,0.262 -3.172,0.409c0,0.042 0.05,0.062 0.15,0.062c0.1,0 0.136,0.027 0.107,0.079c0.686,0.157 1.229,0.283 1.629,0.377c0.4,0.094 0.778,0.173 1.136,0.236c0.357,0.062 0.742,0.117 1.157,0.164c0.414,0.048 0.992,0.103 1.735,0.165c0.743,0.063 1.322,0.113 1.736,0.15c0.414,0.036 0.793,0.068 1.136,0.094c0.342,0.026 0.692,0.047 1.049,0.063c0.358,0.015 0.865,0.034 1.522,0.055c0.257,0.094 0.478,0.206 0.664,0.337c0.186,0.131 0.307,0.262 0.364,0.393c0.058,0.131 0.072,0.257 0.043,0.377c-0.028,0.12 -0.128,0.217 -0.3,0.291c0.029,0.031 0.093,0.044 0.193,0.039c0.1,-0.005 0.207,-0.003 0.321,0.008c-0.171,0.042 -0.314,0.094 -0.428,0.157c-0.114,0.063 -0.229,0.125 -0.343,0.188c-0.114,0.063 -0.243,0.118 -0.386,0.165c-0.142,0.047 -0.342,0.076 -0.6,0.086c-0.885,0.126 -1.999,0.134 -3.342,0.024c-1.343,-0.11 -3.043,-0.311 -5.1,-0.605c-1.029,-0.146 -1.864,-0.275 -2.507,-0.384c-0.643,-0.11 -1.2,-0.22 -1.671,-0.33c-0.472,-0.11 -0.9,-0.228 -1.286,-0.354c-0.386,-0.125 -0.85,-0.277 -1.393,-0.455Zm6.128,-5.387c-0.314,0.167 -0.664,0.319 -1.049,0.455c-0.386,0.136 -0.758,0.275 -1.115,0.416c-0.357,0.142 -0.678,0.299 -0.964,0.471c-0.286,0.173 -0.486,0.375 -0.6,0.605c1,-0.042 2.043,-0.144 3.129,-0.306c1.085,-0.162 2.114,-0.317 3.085,-0.463c-0.114,-0.325 -0.421,-0.587 -0.921,-0.786c-0.5,-0.199 -1.022,-0.33 -1.565,-0.392Z" style="fill-rule:nonzero;"/>
                <path d="M2018.95,2224.13c-0.029,0.126 -0,0.246 0.085,0.362c0.086,0.115 0.193,0.227 0.322,0.337c0.128,0.11 0.25,0.223 0.364,0.338c0.114,0.115 0.2,0.23 0.257,0.346c0.057,0.146 0.057,0.306 0,0.479c-0.057,0.172 -0.157,0.34 -0.3,0.502c-0.143,0.162 -0.328,0.309 -0.557,0.44c-0.228,0.131 -0.5,0.228 -0.814,0.291c-0.4,0.188 -0.886,0.335 -1.457,0.439c-0.572,0.105 -1.1,0.231 -1.586,0.377c-0.314,0.074 -0.664,0.126 -1.05,0.157c-0.386,0.032 -0.778,0.063 -1.178,0.095c-0.315,0.062 -0.686,0.128 -1.115,0.196c-0.428,0.068 -0.871,0.131 -1.328,0.188c-0.457,0.058 -0.914,0.1 -1.371,0.126c-0.458,0.026 -0.858,0.034 -1.2,0.024c-0.857,0.115 -1.693,0.191 -2.507,0.227c-0.815,0.037 -1.765,0.013 -2.85,-0.07c-1.029,0.052 -1.979,0.036 -2.85,-0.047c-0.871,-0.084 -1.643,-0.218 -2.314,-0.401c-0.672,-0.183 -1.257,-0.403 -1.757,-0.66c-0.5,-0.256 -0.907,-0.526 -1.222,-0.809c-0.228,-0.596 -0.171,-1.138 0.172,-1.625c0.343,-0.487 0.835,-0.937 1.478,-1.351c0.643,-0.413 1.379,-0.796 2.207,-1.146c0.829,-0.351 1.629,-0.694 2.4,-1.029c0.172,0.021 0.307,0.018 0.407,-0.008c0.1,-0.026 0.193,-0.063 0.279,-0.11c0.086,-0.047 0.178,-0.092 0.278,-0.134c0.1,-0.041 0.222,-0.068 0.365,-0.078c0.2,-0.157 0.492,-0.275 0.878,-0.353c0.386,-0.079 0.693,-0.192 0.922,-0.338c0.257,-0.021 0.471,-0.052 0.642,-0.094c0.172,-0.042 0.336,-0.089 0.493,-0.142c0.157,-0.052 0.322,-0.102 0.493,-0.149c0.171,-0.047 0.371,-0.081 0.6,-0.102l0,-0.173c0.514,-0.084 0.893,-0.18 1.136,-0.29c0.243,-0.11 0.535,-0.244 0.878,-0.401c0.257,-0.01 0.464,-0.016 0.622,-0.016c0.157,0 0.392,-0.01 0.707,-0.031c0.228,-0.147 0.435,-0.257 0.621,-0.33c0.186,-0.073 0.464,-0.152 0.836,-0.235c0.343,0.062 0.721,0.104 1.135,0.125c0.415,0.021 0.779,0.089 1.093,0.204c0.029,0.105 0.115,0.186 0.257,0.244c0.143,0.057 0.3,0.11 0.472,0.157c0.171,0.047 0.335,0.097 0.493,0.149c0.157,0.052 0.264,0.126 0.321,0.22c0.114,0.01 0.193,0.005 0.236,-0.016c0.043,-0.021 0.121,-0.026 0.235,-0.015c0.086,0.146 0.186,0.243 0.3,0.29c0.115,0.047 0.229,0.139 0.343,0.275c-0.143,0.105 -0.25,0.212 -0.321,0.322c-0.072,0.11 -0.25,0.191 -0.536,0.243c-0.028,0.074 0.029,0.113 0.172,0.118c0.142,0.005 0.228,0.034 0.257,0.087c0.028,0.094 -0.015,0.162 -0.129,0.204c0.686,0.408 1.3,0.84 1.843,1.296c0.543,0.455 1.157,0.887 1.843,1.295Zm-5.357,1.492c0.114,-0.115 0.264,-0.209 0.45,-0.282c0.185,-0.074 0.293,-0.183 0.321,-0.33c-0.143,-0.084 -0.228,-0.149 -0.257,-0.196c-0.029,-0.048 -0.043,-0.123 -0.043,-0.228c-0.628,-0.325 -1.171,-0.673 -1.628,-1.045c-0.457,-0.371 -0.972,-0.719 -1.543,-1.044c-0.057,0.042 -0.157,0.084 -0.3,0.126c-0.143,0.041 -0.3,0.031 -0.471,-0.032c-0.058,0.084 -0.158,0.144 -0.3,0.181c-0.143,0.036 -0.3,0.052 -0.472,0.047c-0.171,-0.005 -0.35,-0.021 -0.536,-0.047c-0.185,-0.026 -0.35,-0.06 -0.492,-0.102c-0.829,0.241 -1.657,0.476 -2.486,0.706c-0.828,0.231 -1.571,0.498 -2.228,0.801c-0.115,0.021 -0.186,0.029 -0.215,0.024c-0.028,-0.005 -0.114,0.003 -0.257,0.024c-0.228,0.199 -0.507,0.379 -0.835,0.541c-0.329,0.163 -0.65,0.328 -0.965,0.495c-0.314,0.168 -0.585,0.346 -0.814,0.534c-0.229,0.189 -0.357,0.409 -0.386,0.66c0.486,0.147 1.057,0.236 1.715,0.267c0.657,0.031 1.335,0.037 2.035,0.016c0.7,-0.021 1.386,-0.055 2.057,-0.102c0.672,-0.048 1.293,-0.071 1.864,-0.071c1.2,-0.105 2.229,-0.244 3.086,-0.416c0.857,-0.173 1.757,-0.349 2.7,-0.527Z" style="fill-rule:nonzero;"/>
                <path d="M2027.56,2228.31c-0.172,0.356 -0.658,0.602 -1.458,0.738c-0.371,0.011 -0.65,0.006 -0.835,-0.015c-0.186,-0.021 -0.379,-0.047 -0.579,-0.079c-0.257,-0.042 -0.485,-0.068 -0.685,-0.078l-0.472,-0.126c-0.057,-0.052 -0.128,-0.105 -0.214,-0.157c-0.086,-0.052 -0.186,-0.105 -0.3,-0.157c-0.229,-0.105 -0.457,-0.236 -0.686,-0.393c-0.171,-0.303 -0.2,-0.557 -0.086,-0.762c0.115,-0.204 0.258,-0.405 0.429,-0.604c0.057,-0.063 0.114,-0.128 0.171,-0.197c0.058,-0.068 0.115,-0.133 0.172,-0.196c-0.743,-0.146 -1.3,-0.356 -1.671,-0.628c-0.372,-0.272 -0.586,-0.534 -0.643,-0.785c0.085,-0.199 0.243,-0.359 0.471,-0.479c0.229,-0.121 0.493,-0.218 0.793,-0.291c0.3,-0.073 0.614,-0.131 0.943,-0.173c0.328,-0.042 0.65,-0.078 0.964,-0.11l0.557,0.079c0.257,0.094 0.514,0.167 0.771,0.22c0.2,-0.032 0.336,-0.081 0.408,-0.15c0.071,-0.068 0.135,-0.144 0.192,-0.227c0.086,-0.095 0.179,-0.189 0.279,-0.283c0.1,-0.094 0.221,-0.188 0.364,-0.283c-0.028,-0.136 0.029,-0.261 0.172,-0.377c-0.2,-0.052 -0.415,-0.083 -0.643,-0.094c-0.057,0 -0.2,-0.01 -0.429,-0.031c-0.343,-0.095 -0.578,-0.176 -0.707,-0.244c-0.128,-0.068 -0.25,-0.133 -0.364,-0.196c-0.171,-0.136 -0.386,-0.246 -0.643,-0.33l-0.428,-0.11l0.214,-0.157c0.057,-0.021 0.086,-0.047 0.086,-0.078c-0,-0.032 -0.058,-0.079 -0.172,-0.142c-0.057,-0.115 -0.057,-0.194 0,-0.235l0.086,-0.157c0.228,-0.116 0.343,-0.178 0.343,-0.189l0.385,-0.141c0.572,-0.053 1.136,-0.113 1.693,-0.181c0.557,-0.068 1.122,-0.139 1.693,-0.212c0.543,-0.063 1.093,-0.128 1.65,-0.196c0.557,-0.068 1.121,-0.129 1.693,-0.181c0.2,-0.052 0.414,-0.086 0.642,-0.102c0.229,-0.016 0.443,-0.029 0.643,-0.039c0.172,-0.011 0.329,-0.019 0.472,-0.024c0.143,-0.005 0.243,-0.023 0.3,-0.055c0.342,-0.042 0.742,-0.089 1.2,-0.141c0.714,-0.073 1.657,-0.155 2.828,-0.244c1.171,-0.089 2.486,-0.159 3.943,-0.212l0.728,-0.015c0.143,0.01 0.286,0.013 0.429,0.007c0.143,-0.005 0.285,-0.007 0.428,-0.007c1.286,-0 2.1,0.141 2.443,0.424c0.257,0.052 0.486,0.11 0.686,0.172c0.2,0.063 0.385,0.126 0.557,0.189c0.086,0.042 0.178,0.078 0.278,0.11c0.1,0.031 0.179,0.052 0.236,0.063c0.486,0.272 0.643,0.513 0.472,0.722c-0.258,0.136 -0.586,0.215 -0.986,0.236l-0.472,0.094c-0.314,-0.01 -0.55,-0.016 -0.707,-0.016l-0.493,0c-0.714,0 -1.542,0.016 -2.485,0.047c-0.943,0.032 -1.907,0.076 -2.893,0.134c-0.985,0.058 -1.935,0.128 -2.85,0.212c-0.914,0.084 -1.714,0.173 -2.4,0.267l-0.771,0.141c-0.2,0.116 -0.314,0.207 -0.343,0.275c-0.028,0.068 -0.057,0.134 -0.085,0.197c-0.029,0.041 -0.05,0.083 -0.065,0.125c-0.014,0.042 -0.035,0.089 -0.064,0.142c-0.486,0.219 -0.729,0.481 -0.729,0.785c-0.2,0.126 -0.328,0.217 -0.385,0.275c-0.057,0.057 -0.057,0.128 -0,0.212c0.543,0.084 1.057,0.115 1.543,0.094c0.485,-0.021 0.971,-0.047 1.457,-0.079c0.657,-0.041 1.335,-0.078 2.035,-0.109c0.7,-0.032 1.422,-0.048 2.164,-0.048l1.372,0l-0.343,0.126l0.214,0.22c0.172,0.031 0.293,0.052 0.364,0.063c0.072,0.01 0.15,0.026 0.236,0.047l0.214,0.141c0.115,0.021 0.222,0.058 0.322,0.11c0.1,0.053 0.164,0.131 0.193,0.236l-1.757,0.911l-0.6,0.063c-0.486,-0.011 -0.915,0.01 -1.286,0.062c-0.2,0.021 -0.4,0.04 -0.6,0.055c-0.2,0.016 -0.414,0.024 -0.643,0.024c-0.571,0.042 -1.05,0.073 -1.435,0.094c-0.386,0.021 -0.779,0.042 -1.179,0.063c-0.514,0.021 -1.014,0.05 -1.5,0.086c-0.486,0.037 -0.943,0.087 -1.371,0.15l-0.6,-0c-0.229,-0 -0.464,0.013 -0.707,0.039c-0.243,0.026 -0.465,0.05 -0.665,0.071c-0.142,0.041 -0.242,0.086 -0.3,0.133c-0.057,0.047 -0.114,0.097 -0.171,0.149c-0.114,0.147 -0.271,0.267 -0.471,0.362l-0,0.235c-0.229,0.105 -0.365,0.186 -0.407,0.244c-0.043,0.057 -0.093,0.112 -0.15,0.164c-0.058,0.032 -0.1,0.061 -0.129,0.087c-0.029,0.026 -0.043,0.055 -0.043,0.086c0.229,0.157 0.286,0.335 0.172,0.534Zm24.598,-0.565c0.143,0.314 0.093,0.56 -0.15,0.738c-0.243,0.178 -0.585,0.312 -1.028,0.401c-0.443,0.089 -0.95,0.138 -1.522,0.149c-0.571,0.01 -1.114,-0 -1.628,-0.032c-0.286,-0.146 -0.543,-0.329 -0.771,-0.549c-0.229,-0.22 -0.443,-0.448 -0.643,-0.684c-0.2,-0.235 -0.379,-0.468 -0.536,-0.699c-0.157,-0.23 -0.293,-0.434 -0.407,-0.612c0.143,-0.126 0.236,-0.27 0.278,-0.432c0.043,-0.162 0.072,-0.327 0.086,-0.495c0.014,-0.167 0.029,-0.337 0.043,-0.51c0.014,-0.173 0.05,-0.338 0.107,-0.495c0.2,-0.44 0.493,-0.859 0.879,-1.256c0.385,-0.398 0.692,-0.812 0.921,-1.241c0.057,-0.095 0.036,-0.184 -0.064,-0.267c-0.1,-0.084 -0.122,-0.163 -0.065,-0.236c0.029,-0.042 0.115,-0.071 0.258,-0.086c0.142,-0.016 0.228,-0.05 0.257,-0.102c0.085,-0.116 0.107,-0.21 0.064,-0.283c-0.043,-0.073 0.007,-0.162 0.15,-0.267c0.143,-0.084 0.321,-0.207 0.536,-0.369c0.214,-0.162 0.293,-0.333 0.235,-0.511c0.258,-0.062 0.5,-0.136 0.729,-0.22c0.229,-0.083 0.464,-0.159 0.707,-0.227c0.243,-0.068 0.514,-0.129 0.814,-0.181c0.3,-0.052 0.665,-0.078 1.093,-0.078c0.229,0.104 0.379,0.219 0.45,0.345c0.071,0.126 0.143,0.251 0.214,0.377c0.072,0.126 0.179,0.244 0.322,0.353c0.143,0.11 0.385,0.197 0.728,0.26l0,0.314c0,0.125 0.015,0.248 0.043,0.369c0.029,0.12 0.093,0.23 0.193,0.33c0.1,0.099 0.264,0.165 0.493,0.196c-0.514,0.503 -0.993,1 -1.436,1.492c-0.443,0.492 -0.807,0.987 -1.093,1.484c-0.285,0.498 -0.464,0.998 -0.535,1.5c-0.072,0.503 0.021,1.011 0.278,1.524Z" style="fill-rule:nonzero;"/>
                <path d="M2081.52,2221.29c-0.714,-0 -1.486,0.018 -2.314,0.054c-0.829,0.037 -1.643,0.076 -2.443,0.118c-0.571,0.032 -1.121,0.058 -1.65,0.079c-0.528,0.021 -1.007,0.036 -1.436,0.047c-0.2,0.23 -0.4,0.434 -0.6,0.612c-0.2,0.178 -0.414,0.351 -0.642,0.519c-0.229,0.178 -0.436,0.358 -0.622,0.542c-0.185,0.183 -0.364,0.379 -0.535,0.589c-0.286,0.167 -0.522,0.322 -0.708,0.463c-0.185,0.141 -0.335,0.301 -0.45,0.479c-0.342,0.157 -0.599,0.322 -0.771,0.495c-0.171,0.173 -0.3,0.322 -0.386,0.447l-0.171,0.189c-0.171,0.063 -0.271,0.112 -0.3,0.149c-0.029,0.037 -0.1,0.071 -0.214,0.102c-0.029,0.115 -0.129,0.231 -0.3,0.346c-0.057,0.052 -0.1,0.102 -0.129,0.149c-0.028,0.047 -0.043,0.081 -0.043,0.102c0,0.105 -0.071,0.173 -0.214,0.204c0.029,0.053 0.029,0.108 0,0.165c-0.029,0.058 -0.057,0.113 -0.086,0.165c-0.085,0.126 -0.114,0.225 -0.085,0.298c0.085,0.042 0.164,0.079 0.235,0.11c0.072,0.032 0.122,0.074 0.15,0.126c0.172,0.042 0.3,0.068 0.386,0.079c0.114,0.031 0.286,0.068 0.514,0.11l0.386,0.157c0.143,0.303 0.014,0.544 -0.386,0.722c-0.428,0.199 -1.157,0.299 -2.185,0.299l-0.515,-0c-0.142,-0.053 -0.228,-0.095 -0.257,-0.126c-0.228,-0.032 -0.414,-0.058 -0.557,-0.079c-0.143,-0.021 -0.271,-0.062 -0.386,-0.125c-0.371,-0.063 -0.671,-0.115 -0.899,-0.157l-0.386,-0.079l-0,-0.188c-0.2,-0.095 -0.35,-0.199 -0.45,-0.315c-0.1,-0.115 -0.179,-0.23 -0.236,-0.345c-0.057,-0.094 -0.121,-0.183 -0.193,-0.267c-0.071,-0.084 -0.164,-0.157 -0.278,-0.22c-0.057,-0.607 0.1,-1.12 0.471,-1.539c0.372,-0.419 0.757,-0.822 1.157,-1.21c0.229,-0.209 0.457,-0.421 0.686,-0.636c0.228,-0.214 0.428,-0.437 0.6,-0.667l0.386,-0.157c0.2,-0.168 0.364,-0.307 0.492,-0.416c0.129,-0.11 0.265,-0.223 0.408,-0.338c0.085,-0.073 0.164,-0.144 0.235,-0.212c0.072,-0.068 0.136,-0.128 0.193,-0.181c-0.171,0 -0.328,0.003 -0.471,0.008c-0.143,0.005 -0.286,0.013 -0.429,0.024c-0.171,0.01 -0.328,0.018 -0.471,0.023c-0.143,0.005 -0.286,0.008 -0.429,0.008c-0.2,0 -0.343,-0.005 -0.428,-0.016c-0.315,0.053 -0.657,0.079 -1.029,0.079l-0.428,-0c-0.086,-0 -0.165,-0.003 -0.236,-0.008c-0.072,-0.005 -0.136,-0.008 -0.193,-0.008c-0.286,0 -0.514,0.016 -0.686,0.047l-1.414,0c-0.057,0 -0.128,0.003 -0.214,0.008c-0.086,0.005 -0.157,0.008 -0.214,0.008c-0.2,-0 -0.415,-0.008 -0.643,-0.024c-0.229,-0.015 -0.472,-0.049 -0.729,-0.102c-0.343,-0.167 -0.571,-0.256 -0.685,-0.267l-0.386,-0.188c-0.029,-0.063 -0.072,-0.123 -0.129,-0.181c-0.057,-0.057 -0.114,-0.123 -0.171,-0.196c-0.114,-0.105 -0.222,-0.217 -0.322,-0.338c-0.1,-0.12 -0.15,-0.264 -0.15,-0.432c0.029,-0.084 0.086,-0.146 0.172,-0.188c0.086,-0.042 0.157,-0.079 0.214,-0.11l0.129,-0.236l0.557,0.016l1.2,-0c0.914,-0 1.843,-0.013 2.785,-0.039c0.943,-0.027 1.915,-0.055 2.914,-0.087c0.572,-0.021 1.15,-0.042 1.736,-0.063c0.586,-0.02 1.193,-0.041 1.821,-0.062c0.115,-0.095 0.229,-0.184 0.343,-0.267l0.429,-0.079c0.514,-0.01 0.878,0.013 1.093,0.071c0.214,0.057 0.392,0.112 0.535,0.165c0.629,-0.021 1.265,-0.045 1.907,-0.071c0.643,-0.026 1.293,-0.06 1.95,-0.102c0.972,-0.052 1.95,-0.1 2.936,-0.141c0.985,-0.042 1.935,-0.063 2.85,-0.063c0.4,-0 0.785,0.005 1.157,0.015c0.371,0.011 0.714,0.027 1.028,0.048l0.429,0.11c0.086,0.062 0.207,0.12 0.364,0.172c0.157,0.053 0.321,0.105 0.493,0.157c0.343,0.116 0.686,0.252 1.028,0.409c0.343,0.157 0.472,0.387 0.386,0.691c-0.228,0.125 -0.4,0.199 -0.514,0.22l-0.386,0.188l-0.428,-0.016c-0.172,0 -0.329,0.008 -0.472,0.024c-0.143,0.016 -0.285,0.034 -0.428,0.055c-0.115,0.021 -0.229,0.039 -0.343,0.055c-0.114,0.016 -0.243,0.029 -0.386,0.039c-0.257,0 -0.464,-0.002 -0.621,-0.008c-0.157,-0.005 -0.322,-0.007 -0.493,-0.007Z" style="fill-rule:nonzero;"/>
            </g>
            <g transform="matrix(0.739155,-0.44563,0.853503,0.514569,-694.554,-37.4439)">
                <rect x="1869.24" y="2223.29" width="30" height="25.981" style="fill:none;stroke:black;stroke-width:3.19px;"/>
            </g>
            <g transform="matrix(0.739155,-0.44563,0.853503,0.514569,-652.284,-11.9594)">
                <rect x="1869.24" y="2223.29" width="30" height="25.981" style="fill:none;stroke:black;stroke-width:3.19px;"/>
            </g>
            <g transform="matrix(0.739155,-0.44563,0.853503,0.514569,-610.706,13.1073)">
                <rect x="1869.24" y="2223.29" width="30" height="25.981" style="fill:none;stroke:black;stroke-width:3.19px;"/>
            </g>
            <g transform="matrix(0.739155,-0.44563,0.853503,0.514569,-569.129,38.1739)">
                <rect x="1869.24" y="2223.29" width="30" height="25.981" style="fill:none;stroke:black;stroke-width:3.19px;"/>
            </g>
            <g transform="matrix(0.692958,-0.417778,0.800159,0.482408,-486.615,62.2101)">
                <path d="M2004.44,2124.51l-0.355,-1.296c-3.699,0.216 -7.041,1.008 -9.672,2.376c-2.632,1.44 -7.254,7.992 -9.103,10.728l-17.424,26.424c-1.991,-2.016 -3.129,-8.784 -4.978,-8.784c-0.64,0 -1.209,0.144 -1.849,0.432l-4.339,2.448c-0.711,0.432 -1.066,1.44 -1.066,1.944c-0,3.6 4.693,17.496 6.614,17.496l4.622,0c1.351,0 2.276,-0.72 2.916,-1.728c5.547,-8.928 11.023,-18.072 17.068,-27c3.2,-4.68 13.797,-18.792 15.788,-21.096l1.778,-1.944Z" style="fill:rgb(200,4,27);fill-rule:nonzero;"/>
            </g>
        </g>
    </g>
</svg>
