<?xml version="1.0" encoding="UTF-8" standalone="no"?>
<!DOCTYPE svg PUBLIC "-//W3C//DTD SVG 1.1//EN" "http://www.w3.org/Graphics/SVG/1.1/DTD/svg11.dtd">
<svg class="object object--pc" width="100%" height="100%" viewBox="0 0 174 240" version="1.1" xmlns="http://www.w3.org/2000/svg" xmlns:xlink="http://www.w3.org/1999/xlink" xml:space="preserve" xmlns:serif="http://www.serif.com/" style="fill-rule:evenodd;clip-rule:evenodd;stroke-linecap:square;stroke-linejoin:round;stroke-miterlimit:1;">
    
    <title id="svg-title">{{ post.data.title | default: title }}</title>
    <desc id="svg-desc">A PC monitor showing cover art work for {{ post.data.title | default: title }}</desc>

    <rect id="Computer" x="0" y="0" width="173.205" height="239.667" style="fill:none;"/>
    <path d="M98.498,178.953L131.946,198.264C141.176,203.593 142.18,211.667 134.187,216.282L102.543,234.551C94.549,239.166 80.566,238.587 71.336,233.258L37.888,213.947C28.658,208.618 27.654,200.544 35.647,195.929L67.291,177.66C75.285,173.045 89.268,173.624 98.498,178.953Z" style="fill:rgb(228,223,180);stroke:black;stroke-width:1px;"/>
    <path d="M112.498,202.178C112.013,205.17 109.787,208.086 105.822,210.376C96.785,215.593 82.111,215.593 73.074,210.376C68.533,207.754 66.274,204.31 66.297,200.871L66.297,176.939C66.297,173.517 68.556,170.094 73.074,167.485C82.111,162.268 96.785,162.268 105.822,167.485C110.919,170.428 113.141,174.406 112.489,178.252L112.6,178.187L112.6,202.119L112.498,202.178Z" style="fill:rgb(214,206,143);stroke:black;stroke-width:1px;"/>
    <path d="M42.044,34.992L19.368,21.9L76.058,2.764C77.218,2.379 78.62,2.571 80.128,3.442L163.977,52.233C167.971,54.539 171.214,60.735 171.214,66.06L171.214,163.518C171.214,165.672 170.684,167.355 169.788,168.444C169.752,168.487 169.716,168.53 169.679,168.571L125.509,212.117L98.009,188.749L113.988,172.906L49.281,135.547C45.287,133.241 42.044,127.045 42.044,121.719L42.044,34.992Z" style="fill:rgb(228,223,180);stroke:black;stroke-width:1px;"/>
    <path d="M114.211,224.536C112.957,225.203 111.345,225.109 109.588,224.095L9.237,166.157C5.243,163.851 2,157.655 2,152.33L2,31.549C2,28.567 3.017,26.486 4.613,25.637L4.611,25.636L22.129,15.522C23.404,14.76 25.078,14.817 26.91,15.874L127.261,73.812C131.255,76.118 134.498,82.314 134.498,87.639L134.498,208.42C134.498,211.505 133.41,213.625 131.718,214.415L131.731,214.423L114.213,224.537L114.211,224.536Z" style="fill:rgb(234,231,199);stroke:black;stroke-width:1px;"/>
    {% if post.data.object.image or object.image %}
        <image href="{{ post.data.object.image | default: object.image }}" width="512px" height="512px"  x="0" y="0" transform="matrix(0.197882,0.114247,1.69933e-18,0.228495,8.75437,33.5989)"/>
    {% else %}
        <image id="opengraphImage" href="/images/me/me.svg" width="512px" height="512px"  x="0" y="0" transform="matrix(0.197882,0.114247,1.69933e-18,0.228495,8.75437,33.5989)"/>
    {% endif %}
    <path d="M8.754,33.599L110.07,92.093L110.07,209.083L8.754,150.588L8.754,33.599Z" style="fill:none;stroke:black;stroke-width:1px;stroke-linecap:butt;stroke-miterlimit:2;"/>
    <path d="M116.824,93.174C70.677,105.005 34.128,126.288 8.754,158.575L8.754,30.78L116.824,93.174Z" style="fill:white;fill-opacity:0.2;"/>
    <path d="M101.557,84.359C61.929,94.519 30.543,112.795 8.754,140.521L8.754,30.78L101.557,84.359Z" style="fill:white;fill-opacity:0.2;"/>
    <path d="M113.93,212.425L113.93,89.865L7.789,29.699L7.789,151.145L113.93,212.425ZM112.706,203.124C112.706,205.787 111.085,207.012 109.088,205.859C77.281,189.096 45.611,170.977 14.173,150.578C12.176,149.425 11.391,147.292 11.391,144.629C9.971,108.277 9.3,71.865 11.391,37.289C11.391,34.627 13.012,33.401 15.009,34.554L109.088,88.87C111.085,90.023 112.706,93.121 112.706,95.784L112.706,203.124Z" style="fill:rgb(242,239,218);stroke:black;stroke-width:1px;"/>
    <path d="M116.824,97.843L116.824,218.624C116.824,223.949 113.582,226.401 109.588,224.095L9.237,166.157C5.243,163.851 2,157.655 2,152.33L2,31.549C2,26.224 5.243,23.772 9.237,26.078L109.588,84.016C113.582,86.322 116.824,92.517 116.824,97.843ZM110.07,96.918C110.07,94.255 108.449,91.157 106.452,90.004L12.373,35.688C10.376,34.535 8.754,35.761 8.754,38.423L8.754,145.764C8.754,148.426 10.376,151.524 12.373,152.677L106.452,206.994C108.449,208.147 110.07,206.921 110.07,204.258L110.07,96.918Z" style="fill:rgb(228,223,180);stroke:black;stroke-width:1px;"/>
    <path d="M109.624,214.166L109.624,218.857C109.624,220.152 108.836,220.747 107.865,220.187L103.258,217.527C102.288,216.967 101.499,215.461 101.499,214.166L101.499,209.475C101.499,208.181 102.288,207.585 103.258,208.145L107.865,210.805C108.836,211.366 109.624,212.872 109.624,214.166Z" style="fill:rgb(242,239,218);stroke:black;stroke-width:1px;"/>
    <path d="M109.624,213.366L109.624,217.993C109.624,218.845 109.105,219.238 108.465,218.869L104.1,216.348C103.46,215.979 102.941,214.987 102.941,214.134L102.941,209.507C102.941,208.655 103.46,208.262 104.1,208.631L108.465,211.152C109.105,211.521 109.624,212.513 109.624,213.366Z" style="fill:rgb(228,223,180);stroke:black;stroke-width:1px;"/>
</svg>
