<?xml version="1.0" encoding="UTF-8" standalone="no"?>
<!DOCTYPE svg PUBLIC "-//W3C//DTD SVG 1.1//EN" "http://www.w3.org/Graphics/SVG/1.1/DTD/svg11.dtd">
<svg width="100%" height="100%" viewBox="0 0 624 360" version="1.1" xmlns="http://www.w3.org/2000/svg" xmlns:xlink="http://www.w3.org/1999/xlink" xml:space="preserve" xmlns:serif="http://www.serif.com/" style="fill-rule:evenodd;clip-rule:evenodd;stroke-linecap:round;stroke-linejoin:round;stroke-miterlimit:1;">
    <g transform="matrix(1,0,0,1,-4438.22,-547.047)">
        <g id="Polaroid" transform="matrix(0.731707,0,0,0.638298,2660.09,543.856)">
            <g transform="matrix(0.965926,-0.171297,0.39106,0.965926,-16.1368,499.144)">
                <g transform="matrix(1.47946,-0.979167,2.05,1.35677,-4284.3,-1625.5)">
                    <path d="M1312.76,2344.07l3.851,-1.604l240,-0l-0,207.846l-4.8,2l-239.29,0.248l0.239,-208.49Z" style="fill:white;stroke:black;stroke-width:1.5px;"/>
                </g>
                <g transform="matrix(1.47946,-0.979167,2.05,1.35677,-4284.3,-1631.77)">
                    <rect x="1313.41" y="2344.77" width="240" height="207.846" style="fill:white;stroke:black;stroke-width:1.5px;"/>
                </g>
                <g transform="matrix(1.33151,-0.88125,1.5375,1.01758,-2852.79,-965.046)">
                    <rect x="1313.41" y="2344.77" width="240" height="207.846" style="fill:lightblue;stroke:black;stroke-width:1.5px;"/>
                </g>
            </g>
            <g>
                <g transform="matrix(1.47946,-0.979167,2.05,1.35677,-4284.3,-1625.5)">
                    <path d="M1313.41,2344.77l3.2,-2.309l240,-0l-0,207.846l-3.2,2.309l-240,0l-0,-207.846Z" style="fill:white;stroke:black;stroke-width:1.5px;"/>
                </g>
                <g transform="matrix(1.47946,-0.979167,2.05,1.35677,-4284.3,-1631.77)">
                    <rect x="1313.41" y="2344.77" width="240" height="207.846" style="fill:white;stroke:black;stroke-width:1.5px;"/>
                </g>
                <g transform="matrix(1.33151,-0.88125,1.5375,1.01758,-2852.79,-965.046)">
                    {% if post.data.image %}
                        <image id="photoImage" x="1313.41" y="2344.77" width="240" height="207.846" href="{{ og-image }}" preserveAspectRatio="xMidYMid slice"/>
                    {% else %}
                        <image id="photoImage" x="1313.41" y="2344.77" width="240" height="207.846" href="/assets/images/site/holofoil.jpg" preserveAspectRatio="xMidYMid slice"/>
                        <image id="photoImage" x="1323.41" y="2362.091" width="220" height="190.526" href="/assets/images/me/me.svg" preserveAspectRatio="xMidYMid slice"/>
                    {% endif %}
                    <rect id="photoImage" x="1313.41" y="2344.77" width="240" height="207.846" style="fill:none;stroke:black;stroke-width:1.5px;"/>
                </g>
                <g transform="matrix(1.47946,-0.979167,2.05,1.35677,-4284.3,-1631.77)">
                    <path d="M1313.41,2552.62l-0,-207.846l240,0" style="fill:white;fill-opacity:0.2;stroke:black;stroke-width:1.64px;"/>
                </g>
            </g>
        </g>
    </g>
</svg>
