<?xml version="1.0" encoding="UTF-8" standalone="no"?>
<!DOCTYPE svg PUBLIC "-//W3C//DTD SVG 1.1//EN" "http://www.w3.org/Graphics/SVG/1.1/DTD/svg11.dtd">
<svg class="object object--playstation" width="100%" height="100%" viewBox="0 0 161 279" version="1.1" xmlns="http://www.w3.org/2000/svg" xmlns:xlink="http://www.w3.org/1999/xlink" xml:space="preserve" xmlns:serif="http://www.serif.com/" style="fill-rule:evenodd;clip-rule:evenodd;stroke-linecap:square;stroke-linejoin:round;stroke-miterlimit:1;">
	
	<title id="svg-title">{{ post.data.title | default: title }}</title>
	<desc id="svg-desc">A PS5 jewel case with cover art work for {{ post.data.title | default: title }}</desc>

	<path d="M134.699,276.926C134.204,277.293 133.524,277.303 132.773,276.87L5.05,203.128C3.537,202.255 2.309,199.909 2.309,197.893L2.309,11.694C2.309,10.612 2.663,9.842 3.225,9.497C3.246,9.485 3.268,9.472 3.29,9.46L15.771,2.254C16.253,1.967 16.886,1.989 17.578,2.389L145.301,76.13C146.814,77.003 148.042,79.349 148.042,81.366L148.042,267.565C148.042,268.57 147.737,269.305 147.243,269.681L147.255,269.687L134.709,276.931L134.699,276.926Z" style="fill:rgb(40,138,255);stroke:black;stroke-width:1px;"/>
	<path d="M134.699,276.926C134.204,277.293 133.524,277.303 132.773,276.87L5.05,203.128C3.537,202.255 2.309,199.909 2.309,197.893L2.309,11.694C2.309,10.612 2.663,9.842 3.225,9.497C3.246,9.485 3.268,9.472 3.29,9.46L9.805,5.753C10.288,5.467 10.92,5.489 11.613,5.889L139.336,79.63C140.848,80.503 142.076,82.849 142.076,84.866L142.076,271.065C142.076,272.07 141.771,272.804 141.278,273.18L141.29,273.187L134.709,276.931L134.699,276.926Z" style="fill:rgb(40,138,255);stroke:black;stroke-width:1px;"/>
	<path d="M135.513,88.41L135.513,274.988C135.513,276.899 134.349,277.78 132.915,276.952L4.907,203.046C3.474,202.218 2.309,199.994 2.309,198.082L2.309,11.504C2.309,9.592 3.474,8.712 4.907,9.54L132.915,83.446C134.349,84.273 135.513,86.498 135.513,88.41Z" style="fill:rgb(117,179,255);stroke:black;stroke-width:1px;"/>
	<path d="M146.101,148.744L146.101,202.892C146.101,205.199 144.696,207.883 142.966,208.881L140.769,210.15C139.039,211.148 137.635,210.087 137.635,207.78L137.635,153.632C137.635,151.325 139.039,148.642 140.769,147.643L142.966,146.375C144.696,145.376 146.101,146.438 146.101,148.744Z" style="fill:rgb(117,179,255);stroke:black;stroke-width:1px;"/>
	<path d="M143.546,148.958L143.546,202.915C143.546,204.525 142.565,206.399 141.357,207.097L139.824,207.982C138.616,208.68 137.635,207.938 137.635,206.328L137.635,152.371C137.635,150.76 138.616,148.886 139.824,148.189L141.357,147.303C142.565,146.606 143.546,147.347 143.546,148.958Z" style="fill:#0074FF;stroke:black;stroke-width:1px;"/>
	{% if post.data.object.image or object.image %}
		<image href="{{ post.data.object.image | default: object.image }}" width="512px" height="512px"  x="0" y="0" transform="matrix(0.253269,0.146225,-1.40592e-17,0.292449,2.42358,47.5619)"/>
	{% else %}
		<image id="opengraphImage" href="/images/me/me.svg" width="512px" height="512px"  x="0" y="0" transform="matrix(0.253269,0.146225,-1.40592e-17,0.292449,2.42358,47.5619)"/>
	{% endif %}
	<path id="BottomShine" d="M2.424,197.296L2.424,47.562L132.097,122.429" style="fill:white;fill-opacity:0.2;stroke:black;stroke-width:1px;"/>
	<path id="TopShine" d="M2.424,181.399L2.424,47.562L118.33,114.481" style="fill:white;fill-opacity:0.2;stroke:black;stroke-width:1px;"/>
	<path d="M135.513,88.41L135.513,274.988C135.513,276.899 134.349,277.78 132.915,276.952L4.907,203.046C3.474,202.218 2.309,199.994 2.309,198.082L2.309,11.504C2.309,9.592 3.474,8.712 4.907,9.54L132.915,83.446C134.349,84.273 135.513,86.498 135.513,88.41ZM132.097,122.429L2.424,47.562L2.424,197.296L130.751,271.386C131.494,271.815 132.097,271.359 132.097,270.368L132.097,122.429Z" style="fill:rgb(117,179,255);stroke:black;stroke-width:1px;"/>
	<path d="M132.097,88.717L132.097,122.367L2.424,47.562L2.309,12.134L130.453,86.117C131.36,86.641 132.097,87.806 132.097,88.717Z" style="fill:white;stroke:black;stroke-width:1px;"/>
	<path id="ps_logo" d="M10.135,41.483C8.346,39.859 8.042,38.464 8.86,38.234C9.616,38.019 10.902,38.275 10.902,38.275L16.213,39.151L16.213,41.647L12.391,41.027C11.715,40.921 11.612,41.256 12.161,41.781C12.711,42.306 13.704,42.82 14.379,42.929L16.212,43.216L16.212,45.449C16.096,45.407 15.965,45.355 15.846,45.309C13.934,44.565 11.974,43.252 10.135,41.483ZM21.341,48.213L27.301,49.198C27.978,49.304 28.081,48.971 27.532,48.446C26.982,47.921 25.989,47.407 25.314,47.299L21.342,46.623L21.342,44.045L21.572,44.088C22.47,44.27 23.395,44.578 24.333,45.005C25.946,45.731 27.922,47.106 29.473,48.68C31.222,50.329 31.419,51.385 30.974,51.777C30.53,52.169 29.441,52.002 29.441,52.002L21.342,50.692L21.341,48.213ZM22.038,32.629C25.176,35.692 26.24,37.863 26.24,41.372C26.24,44.791 24.421,45.037 22.112,42.41L22.112,36.034C22.112,35.287 21.994,34.53 21.389,33.985C20.926,33.545 20.639,33.879 20.639,34.627L20.639,50.582L16.933,47.077L16.933,28.054C18.509,29.303 20.804,31.427 22.038,32.626L22.038,32.629Z"/>
	
</svg>
