{%- if post.data.artwork -%}{% assign artwork = post.data.artwork %}{%- endif -%}
{%- if post.data.title -%}{% assign title = post.data.title | downcase | slugify %}{%- endif -%}
{%- if post.data.label -%}{% assign label = post.data.label %}{%- endif -%}
{%- if post.data.date -%}{% assign date = post.data.date %}{%- endif -%}
<?xml version="1.0" encoding="UTF-8" standalone="no"?>
<!DOCTYPE svg PUBLIC "-//W3C//DTD SVG 1.1//EN" "http://www.w3.org/Graphics/SVG/1.1/DTD/svg11.dtd">
<svg width="330px" height="518px" viewBox="0 0 165 259" version="1.1" xmlns="http://www.w3.org/2000/svg" xmlns:xlink="http://www.w3.org/1999/xlink" xml:space="preserve" xmlns:serif="http://www.serif.com/" style="fill-rule:evenodd;clip-rule:evenodd;stroke-linejoin:round;stroke-miterlimit:2;">
    <g transform="matrix(1,0,0,1,-25,0)">
        <g id="gamepak" transform="matrix(0.119913,0,0,0.229989,-77.8852,-288.646)">
            <rect x="858" y="1255.04" width="1376" height="1125.96" style="fill:none;"/>
            <g transform="matrix(8.61289,0,0,21.3756,-6806.73,-28976)">
                <rect x="1026.16" y="1445.34" width="7.365" height="21.552" style="fill:rgb(116,115,115);"/>
            </g>
            <g transform="matrix(29.7893,7.76584,2.15156e-15,13.075,-25640.8,-22575.7)">
                <rect x="889.913" y="1305.68" width="40.087" height="8.323" style="fill:rgb(123,123,123);"/>
            </g>
            <g transform="matrix(29.7893,7.76584,2.15156e-15,13.075,-25640.8,-22624)">
                <rect x="889.913" y="1305.68" width="40.087" height="8.323" style="fill:rgb(123,123,123);"/>
            </g>
            <g transform="matrix(29.7893,7.76584,2.15156e-15,34.0641,-25640.8,-50055.2)">
                <rect x="889.913" y="1305.68" width="40.087" height="8.323" style="fill:rgb(123,123,123);"/>
            </g>
            <g transform="matrix(7.45898,-1.9445,784.231,204.443,-71722,-17766.3)">
                <path d="M-78.307,93.308L-78.307,93.516L-79.785,93.53L-79.785,93.308L-78.307,93.308ZM-65.858,93.19L-65.858,93.398L-67.336,93.412L-67.336,93.19L-65.858,93.19ZM-59.633,93.13L-59.633,93.338L-61.111,93.352L-61.111,93.13L-59.633,93.13ZM-53.409,93.071L-53.409,93.279L-54.886,93.293L-54.886,93.071L-53.409,93.071ZM-72.082,93.249L-72.082,93.457L-73.56,93.471L-73.56,93.249L-72.082,93.249Z" style="fill:rgb(178,178,178);"/>
            </g>
            <g transform="matrix(7.45898,-1.9445,784.231,204.443,-70690.8,-17497.5)">
                <path d="M-78.307,93.334L-78.307,93.516L-79.785,93.53L-79.785,93.334L-78.307,93.334ZM-65.858,93.265L-65.858,93.398L-67.336,93.412L-67.336,93.265L-65.858,93.265ZM-59.633,93.202L-59.633,93.338L-61.111,93.352L-61.111,93.202L-59.633,93.202ZM-53.409,93.121L-53.409,93.279L-54.886,93.293L-54.886,93.121L-53.409,93.121ZM-72.083,93.312L-72.082,93.457L-73.56,93.471L-73.56,93.312L-72.083,93.312Z" style="fill:rgb(178,178,178);"/>
            </g>
            <g transform="matrix(-3.84001,1.00106,-1.80368e-15,34.1307,5634.4,-43851.2)">
                <rect x="889.913" y="1305.68" width="40.087" height="8.323" style="fill:rgb(75,75,75);"/>
            </g>
            <g transform="matrix(2.36897,0.617573,-6.00266e-18,1.92204,-2096.42,-2878.01)">
                <path d="M1247.13,1935.9L1247.13,1858.87L1312.11,1858.87C1309.31,1857 1306.8,1854.92 1304.64,1852.66L1247.13,1852.66L1247.13,1846.28L1299.73,1846.28C1298.55,1844.29 1297.61,1842.21 1296.93,1840.07L1247.13,1840.07L1247.13,1833.68L1295.75,1833.68C1295.71,1833.16 1295.7,1832.63 1295.7,1832.11L1295.7,1828.54C1295.7,1828.18 1295.71,1827.83 1295.72,1827.47L1247.13,1827.47L1247.13,1821.09L1296.78,1821.09C1297.4,1818.95 1298.3,1816.87 1299.43,1814.88L1247.13,1814.88L1247.13,1808.49L1304.15,1808.49C1306.23,1806.25 1308.65,1804.16 1311.36,1802.29L1247.13,1802.29L1247.13,1772L1706.78,1772L1706.78,1788.38L1755.87,1788.38L1755.87,1802.29L1691.64,1802.29C1694.35,1804.16 1696.77,1806.25 1698.85,1808.49L1755.87,1808.49L1755.87,1814.88L1703.57,1814.88C1704.7,1816.87 1705.6,1818.95 1706.22,1821.09L1755.87,1821.09L1755.87,1827.47L1707.28,1827.47C1707.29,1827.83 1707.3,1828.18 1707.3,1828.54L1707.3,1832.11C1707.3,1832.63 1707.29,1833.16 1707.25,1833.68L1755.87,1833.68L1755.87,1840.07L1706.07,1840.07C1705.39,1842.21 1704.45,1844.29 1703.27,1846.28L1755.87,1846.28L1755.87,1852.66L1698.36,1852.66C1696.2,1854.92 1693.69,1857 1690.89,1858.87L1755.87,1858.87L1755.87,1935.9L1742.48,1935.9L1742.48,2175.58L1260.52,2175.58L1260.52,1935.9L1247.13,1935.9Z" style="fill:rgb(140,140,140);"/>
            </g>
            <g transform="matrix(-0.324175,0.08451,-7.03972e-18,0.0739246,2516.1,1302.52)">
                <rect x="1247.13" y="1772" width="508.737" height="426" style="fill:rgb(91,91,91);"/>
            </g>
            <g transform="matrix(-7.45898,-1.9445,-784.231,204.443,74817.2,-17497.5)">
                <path d="M-78.307,93.32L-78.307,93.516L-79.785,93.53L-79.785,93.32L-78.307,93.32ZM-65.858,93.201L-65.858,93.398L-67.336,93.412L-67.336,93.201L-65.858,93.201ZM-59.633,93.142L-59.633,93.338L-61.111,93.352L-61.111,93.142L-59.633,93.142ZM-53.409,93.083L-53.409,93.279L-54.886,93.293L-54.886,93.083L-53.409,93.083ZM-72.083,93.261L-72.082,93.457L-73.56,93.471L-73.56,93.261L-72.083,93.261Z" style="fill:rgb(140,140,140);"/>
            </g>
            <g transform="matrix(-1.68571,0.439452,5.63178e-16,1.84811,5023.07,-2402.77)">
                <path d="M1737.05,1786.46L1755.87,1786.46L1755.87,1772L1658.03,1772L1658.03,1786.46L1718.24,1786.46L1718.24,1792.91L1658.03,1792.91L1658.03,1799.56L1718.24,1799.56L1718.24,1806.01L1658.03,1806.01L1658.03,1812.65L1718.24,1812.65L1718.24,1819.11L1658.03,1819.11L1658.03,1825.75L1718.24,1825.75L1718.24,1832.21L1658.03,1832.21L1658.03,1838.85L1718.24,1838.85L1718.24,1845.31L1658.03,1845.31L1658.03,2174.68L1737.05,2174.68L1737.05,1925.41L1755.87,1925.41L1755.87,1845.31L1737.05,1845.31L1737.05,1838.85L1755.87,1838.85L1755.87,1832.21L1737.05,1832.21L1737.05,1825.75L1755.87,1825.75L1755.87,1819.11L1737.05,1819.11L1737.05,1812.65L1755.87,1812.65L1755.87,1806.01L1737.05,1806.01L1737.05,1799.56L1755.87,1799.56L1755.87,1792.91L1737.05,1792.91L1737.05,1786.46Z" style="fill:rgb(91,91,91);"/>
            </g>
            <g transform="matrix(2.03363,0,0,1.0603,-464.471,1267)">
                <path d="M1258.52,372.683L1258.52,383.938L1253.1,381.228L1253.1,375.392L1258.52,372.683ZM1258.52,395.531L1258.52,406.786L1253.1,404.076L1253.1,398.241L1258.52,395.531ZM1258.52,441.173L1258.52,452.428L1253.1,449.719L1253.1,443.883L1258.52,441.173ZM1258.52,464.005L1258.52,475.26L1253.1,472.55L1253.1,466.715L1258.52,464.005ZM1258.52,418.341L1258.52,429.596L1253.1,426.887L1253.1,421.051L1258.52,418.341Z" style="fill:rgb(129,129,129);"/>
            </g>
            <g transform="matrix(-7.35817,-1.91822,12.6861,-3.30718,-7374.44,7499.23)">
                <rect x="909" y="1262" width="147.984" height="13" style="fill:rgb(178,178,178);"/>
            </g>
            <g transform="matrix(-0.785824,-0.204858,12.6861,-3.30718,-13232.4,6003.59)">
                <rect x="909" y="1262" width="147.984" height="13" style="fill:rgb(178,178,178);"/>
            </g>
            <g id="thumb-grip" transform="matrix(1.73243,0.451632,6.48182e-17,0.334839,-1140.66,224.346)">
                <path d="M1770,1985C1770,2102.56 1741.7,2198 1706.83,2198L1296.17,2198C1261.3,2198 1233,2102.56 1233,1985C1233,1867.44 1261.3,1772 1296.17,1772L1706.83,1772C1741.7,1772 1770,1867.44 1770,1985Z" style="fill:rgb(91,91,91);"/>
            </g>
            <g id="thumb-grip1" serif:id="thumb-grip" transform="matrix(1.73243,0.451632,6.48182e-17,0.334839,-1140.66,224.346)">
                <path d="M1770,1985C1770,2102.56 1741.7,2198 1706.83,2198L1290.94,2197.28L1297.39,2179.9L1305.79,1772L1706.83,1772C1741.7,1772 1770,1867.44 1770,1985Z" style="fill:rgb(178,178,178);"/>
            </g>
            <g id="thumb-grip2" serif:id="thumb-grip" transform="matrix(1.70151,0.44357,6.29452e-17,0.321344,-1085.92,262.531)">
                <path d="M1770,1985C1770,2102.56 1742.34,2198 1708.28,2198L1294.72,2198C1260.66,2198 1233,2102.56 1233,1985C1233,1867.44 1260.66,1772 1294.72,1772L1708.28,1772C1742.34,1772 1770,1867.44 1770,1985Z" style="fill:rgb(129,129,129);"/>
            </g>
            <g id="thumb-grip--text--shadow-light" transform="matrix(3.18394,0.83003,3.47876e-16,1.79707,-1733.13,-1533.37)">
                <path d="M922.596,1267.65L921.522,1264.43L923.172,1262.9L933.545,1262.9L931.663,1278.15C931.385,1278.24 930.417,1279.59 930.013,1279.67C929.339,1279.81 929.115,1278.66 928.09,1278.77C926.45,1278.94 924.926,1279.03 923.518,1279.03C920.905,1279.03 918.613,1278.64 916.64,1277.87C914.668,1277.09 913.125,1276.04 912.011,1274.71C910.897,1273.38 910.071,1271.95 909.533,1270.4C908.995,1268.86 908.726,1267.24 908.726,1265.52C908.726,1263.94 908.931,1262.38 909.341,1260.83C909.75,1259.29 910.442,1257.76 911.415,1256.23C912.389,1254.7 913.58,1253.35 914.988,1252.19C916.397,1251.02 918.19,1250.08 920.367,1249.37C922.544,1248.66 924.952,1248.31 927.59,1248.31C930.382,1248.31 932.918,1248.68 935.197,1249.43L934.544,1254.98L932.895,1256.51C932.895,1256.51 929.162,1253.86 927.59,1253.86C923.723,1253.86 920.572,1254.91 918.139,1257.03C915.706,1259.15 914.489,1261.91 914.489,1265.32C914.489,1267.97 915.264,1270 916.813,1271.39C918.363,1272.79 920.367,1273.48 922.826,1273.48C924.107,1273.48 925.413,1273.31 926.745,1272.96L927.398,1267.65L922.596,1267.65ZM940.499,1278.67L938.85,1280.19L945.535,1250.31L947.185,1248.79L953.101,1248.79L957.712,1278.67L956.062,1280.19L951.18,1272.24L943.035,1272.24L940.499,1278.67ZM944.649,1268.78L950.719,1268.78L949.336,1256.63L949.259,1256.63L944.649,1268.78ZM973.349,1248.31L977.575,1267.41L984.762,1249.83L986.412,1248.31L992.328,1248.31L993.558,1278.67L991.908,1280.19L987.372,1258.12L987.295,1258.12L977.575,1278.67L975.926,1280.19L970.314,1257.56L970.237,1257.56L964.32,1278.67L962.671,1280.19L965.591,1249.83L967.24,1248.31L973.349,1248.31ZM1016.5,1278.67L1014.85,1280.19L997.323,1278.67L999.362,1250.07L1001.01,1248.55L1017.38,1248.55L1016.76,1253.57L1015.11,1255.1L1005.97,1253.57L1005.08,1260.69L1014.57,1260.69L1013.96,1265.72L1012.31,1267.24L1004.47,1265.72L1003.51,1273.64L1017.11,1273.64L1016.5,1278.67ZM1034.09,1267.61L1032.71,1278.67L1031.06,1280.19L1029.14,1250.84L1030.79,1249.31L1039.36,1249.31C1041.84,1249.31 1043.9,1250.07 1045.54,1251.58C1047.18,1253.1 1048,1255.25 1048,1258.04C1048,1259.81 1047.72,1261.34 1047.17,1262.62C1046.62,1263.91 1045.87,1264.9 1044.93,1265.6C1043.98,1266.3 1042.97,1266.81 1041.91,1267.13C1040.85,1267.45 1039.71,1267.61 1038.51,1267.61L1034.09,1267.61ZM1035.78,1253.98L1034.67,1262.99L1037.01,1262.99C1038.75,1262.99 1040.06,1262.55 1040.93,1261.68C1041.8,1260.81 1042.24,1259.69 1042.24,1258.32C1042.24,1257.01 1041.81,1255.95 1040.97,1255.16C1040.12,1254.37 1038.84,1253.98 1037.13,1253.98L1035.78,1253.98ZM1053.07,1278.67L1051.42,1280.19L1046.27,1280.19L1059.1,1250.31L1058.11,1250.31L1059.76,1248.79L1065.67,1248.79L1070.28,1278.67L1068.63,1280.19L1064.56,1280.19L1063.75,1272.24L1055.61,1272.24L1053.07,1278.67ZM1057.22,1268.78L1063.29,1268.78L1061.91,1256.63L1061.83,1256.63L1057.22,1268.78ZM1081.16,1261.58L1081.23,1261.7L1090.65,1250.39L1092.3,1248.87L1098.91,1248.87L1087.15,1262.34L1097.33,1278.67L1095.68,1280.19L1081,1262.86L1079.04,1278.67L1077.39,1280.19L1076.96,1250.39L1075.51,1250.39L1077.16,1248.87L1082.73,1248.87L1081.16,1261.58Z" style="fill:rgb(178,178,178);"/>
            </g>
            <g id="thumb-grip--text--shadow-dark" transform="matrix(3.18394,0.83003,3.47876e-16,1.79707,-1733.13,-1533.37)">
                <path d="M926.745,1272.96L931.896,1264.43L933.545,1262.9L931.663,1278.15C931.385,1278.24 930.417,1279.59 930.013,1279.67C929.339,1279.81 929.115,1278.66 928.09,1278.77C926.45,1278.94 924.926,1279.03 923.518,1279.03C920.905,1279.03 918.613,1278.64 916.64,1277.87C914.668,1277.09 913.125,1276.04 912.011,1274.71C910.897,1273.38 910.071,1271.95 909.533,1270.4C908.995,1268.86 908.726,1267.24 908.726,1265.52C908.726,1263.94 909.341,1260.83 909.341,1260.83C913.237,1257.69 914.448,1255.13 933.548,1250.96L935.197,1249.43L934.544,1254.98L932.895,1256.51C932.895,1256.51 929.162,1253.86 927.59,1253.86C923.723,1253.86 920.572,1254.91 918.139,1257.03C915.706,1259.15 914.489,1261.91 914.489,1265.32C914.489,1267.97 915.264,1270 916.813,1271.39C918.363,1272.79 920.367,1273.48 922.826,1273.48C924.107,1273.48 925.413,1273.31 926.745,1272.96ZM940.499,1278.67L938.85,1280.19L933.698,1280.19L951.452,1250.31L953.101,1248.79L957.712,1278.67L956.062,1280.19L951.987,1280.19L951.18,1272.24L943.035,1272.24L940.499,1278.67ZM944.649,1268.78L942.999,1270.3L949.07,1270.3L949.336,1256.63L949.259,1256.63L944.649,1268.78ZM973.349,1248.31L977.575,1267.41L984.762,1249.83L990.679,1249.83L992.328,1248.31L993.558,1278.67L991.908,1280.19L987.372,1258.12L987.295,1258.12L977.575,1278.67L975.926,1280.19L970.314,1257.56L970.237,1257.56L964.32,1278.67L962.671,1280.19L965.591,1249.83L971.699,1249.83L973.349,1248.31ZM1016.5,1278.67L1014.85,1280.19L997.323,1278.67L999.362,1250.07L1015.73,1250.07L1017.38,1248.55L1016.76,1253.57L1015.11,1255.1L1005.97,1253.57L1005.08,1260.69L1003.44,1262.22L1012.92,1262.22L1014.57,1260.69L1013.96,1265.72L1012.31,1267.24L1004.47,1265.72L1003.51,1273.64L1001.86,1275.17L1015.46,1275.17L1017.11,1273.64L1016.5,1278.67ZM1038.51,1267.61C1046.46,1261.47 1043.58,1252.84 1043.58,1252.84L1045.46,1251.51C1045.46,1251.51 1045.51,1251.56 1045.54,1251.58C1047.18,1253.1 1048,1255.25 1048,1258.04C1048,1259.81 1047.72,1261.34 1047.17,1262.62C1046.62,1263.91 1045.87,1264.9 1044.93,1265.6C1043.98,1266.3 1042.97,1266.81 1041.91,1267.13C1040.85,1267.45 1039.71,1267.61 1038.51,1267.61ZM1034.09,1267.61L1032.71,1278.67L1031.06,1280.19L1034.13,1255.5L1035.59,1255.5L1034.67,1262.99L1033.02,1264.51L1034.09,1267.61ZM1053.07,1278.67L1051.42,1280.19L1046.27,1280.19L1064.02,1250.31L1065.67,1248.79L1070.28,1278.67L1068.63,1280.19L1064.56,1280.19L1063.75,1272.24L1055.61,1272.24L1053.07,1278.67ZM1057.22,1268.78L1055.57,1270.3L1061.64,1270.3L1061.91,1256.63L1061.83,1256.63L1057.22,1268.78ZM1081.16,1261.58L1081.23,1261.7L1097.26,1250.39L1098.91,1248.87L1087.15,1262.34L1097.33,1278.67L1095.68,1280.19L1081,1262.86L1079.04,1278.67L1077.39,1280.19L1081.08,1250.39L1082.73,1248.87L1081.16,1261.58Z" style="fill:rgb(91,91,91);"/>
            </g>
            <g id="thumb-grip--text" transform="matrix(3.18394,0.83003,3.47876e-16,1.79707,-1738.38,-1532.01)">
                <path d="M922.596,1267.65L923.172,1262.9L933.545,1262.9L931.663,1278.15C930.92,1278.39 929.729,1278.6 928.09,1278.77C926.45,1278.94 924.926,1279.03 923.518,1279.03C920.905,1279.03 918.613,1278.64 916.64,1277.87C914.668,1277.09 913.125,1276.04 912.011,1274.71C910.897,1273.38 910.071,1271.95 909.533,1270.4C908.995,1268.86 908.726,1267.24 908.726,1265.52C908.726,1263.94 908.931,1262.38 909.341,1260.83C909.75,1259.29 910.442,1257.76 911.415,1256.23C912.389,1254.7 913.58,1253.35 914.988,1252.19C916.397,1251.02 918.19,1250.08 920.367,1249.37C922.544,1248.66 924.952,1248.31 927.59,1248.31C930.382,1248.31 932.918,1248.68 935.197,1249.43L934.544,1254.98C932.137,1254.23 929.819,1253.86 927.59,1253.86C923.723,1253.86 920.572,1254.91 918.139,1257.03C915.706,1259.15 914.489,1261.91 914.489,1265.32C914.489,1267.97 915.264,1270 916.813,1271.39C918.363,1272.79 920.367,1273.48 922.826,1273.48C924.107,1273.48 925.413,1273.31 926.745,1272.96L927.398,1267.65L922.596,1267.65ZM940.499,1278.67L934.352,1278.67L947.185,1248.79L953.101,1248.79L957.712,1278.67L951.987,1278.67L951.18,1272.24L943.035,1272.24L940.499,1278.67ZM944.649,1268.78L950.719,1268.78L949.336,1256.63L949.259,1256.63L944.649,1268.78ZM973.349,1248.31L977.575,1267.41L986.412,1248.31L992.328,1248.31L993.558,1278.67L988.179,1278.67L987.372,1258.12L987.295,1258.12L977.575,1278.67L974.924,1278.67L970.314,1257.56L970.237,1257.56L964.32,1278.67L958.711,1278.67L967.24,1248.31L973.349,1248.31ZM1016.5,1278.67L997.323,1278.67L1001.01,1248.55L1017.38,1248.55L1016.76,1253.57L1005.97,1253.57L1005.08,1260.69L1014.57,1260.69L1013.96,1265.72L1004.47,1265.72L1003.51,1273.64L1017.11,1273.64L1016.5,1278.67ZM1034.09,1267.61L1032.71,1278.67L1027.14,1278.67L1030.79,1249.31L1039.36,1249.31C1041.84,1249.31 1043.9,1250.07 1045.54,1251.58C1047.18,1253.1 1048,1255.25 1048,1258.04C1048,1259.81 1047.72,1261.34 1047.17,1262.62C1046.62,1263.91 1045.87,1264.9 1044.93,1265.6C1043.98,1266.3 1042.97,1266.81 1041.91,1267.13C1040.85,1267.45 1039.71,1267.61 1038.51,1267.61L1034.09,1267.61ZM1035.78,1253.98L1034.67,1262.99L1037.01,1262.99C1038.75,1262.99 1040.06,1262.55 1040.93,1261.68C1041.8,1260.81 1042.24,1259.69 1042.24,1258.32C1042.24,1257.01 1041.81,1255.95 1040.97,1255.16C1040.12,1254.37 1038.84,1253.98 1037.13,1253.98L1035.78,1253.98ZM1053.07,1278.67L1046.92,1278.67L1059.76,1248.79L1065.67,1248.79L1070.28,1278.67L1064.56,1278.67L1063.75,1272.24L1055.61,1272.24L1053.07,1278.67ZM1057.22,1268.78L1063.29,1268.78L1061.91,1256.63L1061.83,1256.63L1057.22,1268.78ZM1081.16,1261.58L1081.23,1261.7L1092.3,1248.87L1098.91,1248.87L1087.15,1262.34L1097.33,1278.67L1090.88,1278.67L1081,1262.86L1079.04,1278.67L1073.47,1278.67L1077.16,1248.87L1082.73,1248.87L1081.16,1261.58Z" style="fill:rgb(140,140,140);"/>
            </g>
            <g transform="matrix(1.73243,0.451632,2.17082e-16,1.1214,-1140.66,-1004.73)">
                <path d="M1770,1790.43L1770,2179.57C1770,2189.74 1761.8,2198 1751.69,2198L1251.31,2198C1241.2,2198 1233,2189.74 1233,2179.57L1233,1790.43C1233,1780.26 1241.2,1772 1251.31,1772L1751.69,1772C1761.8,1772 1770,1780.26 1770,1790.43Z" style="fill:rgb(91,91,91);"/>
            </g>
            <g transform="matrix(1.73243,0.451632,2.17082e-16,1.1214,-1140.66,-1004.73)">
                <path d="M1770,1790.43L1770,2179.57C1770,2189.74 1761.8,2198 1751.69,2198L1251.31,2198L1257.02,2192.76L1257.02,1772L1751.69,1772C1761.8,1772 1770,1780.26 1770,1790.43Z" style="fill:rgb(178,178,178);"/>
            </g>
            <g id="label--box-art" transform="matrix(1.6947,0.441795,8.43312e-17,0.883097,1045.04,1566.08)">
                <use xlink:href="#boxArt-{{ title }}" x="0" y="0" width="500px" height="500px"/>
            </g>
            <g transform="matrix(1.71191,0.446282,2.14209e-16,1.1076,-1104.33,-970.805)">
                <path d="M1770,1790L1770,2180C1770,2189.93 1761.99,2198 1752.13,2198L1250.87,2198C1241.01,2198 1233,2189.93 1233,2180L1233,1790C1233,1780.07 1241.01,1772 1250.87,1772L1752.13,1772C1761.99,1772 1770,1780.07 1770,1790ZM1762.68,1803.19C1762.68,1792.89 1754.38,1784.53 1744.15,1784.53L1262.47,1784.53C1252.25,1784.53 1243.94,1792.89 1243.94,1803.19L1243.94,2164.52C1243.94,2174.82 1252.25,2183.18 1262.47,2183.18L1744.15,2183.18C1754.38,2183.18 1762.68,2174.82 1762.68,2164.52L1762.68,1803.19Z" style="fill:rgb(129,129,129);"/>
            </g>
            <g id="label--holofoil" transform="matrix(1.77606,0.463005,2.31465e-16,0.883098,1025.19,1560.9)">
                <clipPath id="_clip2">
                    <path d="M43.387,500L17.857,500C8.002,500 0,489.512 0,476.594L-0,23.406C-0,10.488 8.002,0 17.857,0L43.387,0L43.387,500ZM455.867,0L482.143,0C491.998,0 500,10.488 500,23.406L500,476.594C500,489.512 491.998,500 482.143,500L455.867,500L455.867,0Z"/>
                </clipPath>
                <g clip-path="url(#_clip2)">
                    <use xlink:href="#holofoil" x="0" y="0" width="500px" height="500px"/>
                </g>
            </g>
            <g id="label--shine-2" transform="matrix(1.65369,0.431104,3.75173e-16,1.0365,-1013.81,-807.33)">
                <path d="M1770,1791.94L1252.18,2198C1241.59,2198 1233,2189.06 1233,2178.06L1233,1791.94C1233,1780.94 1241.59,1772 1252.18,1772L1750.82,1772C1761.41,1772 1770,1780.94 1770,1791.94Z" style="fill:white;fill-opacity:0.09;"/>
            </g>
            <g id="label--shine-1" transform="matrix(1.65369,0.431104,3.75173e-16,1.0365,-1013.81,-807.33)">
                <path d="M1722.43,1772C1733.02,1772 1233,2159.7 1233,2148.69L1233,1791.94C1233,1780.94 1241.59,1772 1252.18,1772L1722.43,1772Z" style="fill:white;fill-opacity:0.09;"/>
            </g>
            <g id="label--text" transform="matrix(-6.43256e-16,-4.34803,8.33939,2.17402,-98.1504,1811.27)">
                <g transform="matrix(1.1031,0,0,1,-5.6889,0)">
                    <g transform="matrix(8,0,0,8,89.537,141.5)">
                    </g>
                    <text x="55.179px" y="141.5px" style="font-family:'NittiGrotesk-Bold', 'Nitti Grotesk', sans-serif;font-weight:700;font-size:8px;">PLA<tspan x="67.675px " y="141.5px ">T</tspan>INUM</text>
                </g>
            </g>
            <g id="label--date" transform="matrix(1.66454e-15,4.34803,-8.33939,-2.17402,3036.06,1983.71)">
                <g transform="matrix(1.1031,0,0,1,-5.28641,0)">
                    <g transform="matrix(8,0,0,8,92.7111,141.5)">
                    </g>
                    <text x="51.275px" y="141.5px" style="font-family:'NittiGrotesk-Bold', 'Nitti Grotesk', sans-serif;font-weight:700;font-size:8px;">29 A<tspan x="65.434px " y="141.5px ">U</tspan>G 2024</text>
                </g>
            </g>
            <g transform="matrix(2.9329,-0.764585,-1.82026e-16,32.573,1612.72,-2944.14)">
                <path d="M127.098,141.625L-244.171,124.196L-242.328,124.196L128.94,141.625L128.94,142.592L168.591,144.454L168.591,167.301L166.748,167.301L166.748,144.454L127.098,142.592L127.098,141.625Z" style="fill:rgb(75,75,75);"/>
            </g>
        </g>
    </g>
    <defs>
        <image id="boxArt-{{ title }}" width="500px" height="500px" xlink:href="{{ artwork }}"/>
        <image id="holofoil" width="500px" height="500px" xlink:href="/assets/images/site/holofoil.jpg"/>
    </defs>
</svg>
