<?xml version="1.0" encoding="UTF-8" standalone="no"?>
<!DOCTYPE svg PUBLIC "-//W3C//DTD SVG 1.1//EN" "http://www.w3.org/Graphics/SVG/1.1/DTD/svg11.dtd">
<svg id="gameboy" width="100%" height="100%" viewBox="0 0 1200 1200" version="1.1" xmlns="http://www.w3.org/2000/svg" xmlns:xlink="http://www.w3.org/1999/xlink" xml:space="preserve" xmlns:serif="http://www.serif.com/" style="fill-rule:evenodd;clip-rule:evenodd;stroke-linecap:round;stroke-linejoin:round;stroke-miterlimit:1.5;" aria-labelledby="svg-title" aria-describedby="svg-desc">
    <title id="svg-title">Game Boy</title>
    <desc id="svg-desc">A black Game Boy. On the screen is a game.</desc>
    <g transform="matrix(1,0,0,1,-1215,0)">
        <g id="Pocket" transform="matrix(1.04167,0,0,1.5625,1215,0)">
            <g id="Pocket1" serif:id="Pocket" transform="matrix(0.96,0,0,0.935,23.04,35.52)">
                <g id="AnaloguePocket" transform="matrix(1,0,0,1,-18.5,0)">
                    <g id="VolumePower" transform="matrix(2,0,0,1,-299,0)">
                        <g transform="matrix(1,0,0,0.684492,-1202,0)">
                            <path d="M1501,256L1501,288L1500,288C1499.45,288 1499,287.104 1499,286L1499,258C1499,256.896 1499.45,256 1500,256L1501,256ZM1501,291L1501,323L1500,323C1499.45,323 1499,322.104 1499,321L1499,293C1499,291.896 1499.45,291 1500,291L1501,291Z" style="fill:var(--gb-shell--fill);"/>
                        </g>
                        <g transform="matrix(1,0,0,1.30481,-1202,-98.5668)">
                            <path d="M1501,256L1501,288L1500,288C1499.45,288 1499,287.53 1499,286.951L1499,257.049C1499,256.47 1499.45,256 1500,256L1501,256Z" style="fill:var(--gb-power);"/>
                        </g>
                    </g>
                    <g id="Shell" transform="matrix(1.01195,0,0,0.939885,-1223.98,-14.057)">
                        <path d="M2091,58.768L2091,745.769C2091,762.454 2072.62,776 2049.98,776L1543.09,776C1522.07,776 1505,763.421 1505,747.928L1505,58.768C1505,52.273 1512.15,47 1520.97,47L2075.03,47C2083.85,47 2091,52.273 2091,58.768Z" style="fill:var(--gb-shell--fill);stroke:var(--gb-shell--stroke);stroke-width:1.66px;"/>
                    </g>
                    <g id="Lens">
                        <g transform="matrix(1.00873,0,0,0.693724,-1218.18,-3.24573)">
                            <path d="M2084,63.676L2084,565.324C2084,570.113 2080.09,574 2075.28,574L1519.72,574C1514.91,574 1511,570.113 1511,565.324L1511,63.676C1511,58.887 1514.91,55 1519.72,55L2075.28,55C2080.09,55 2084,58.887 2084,63.676Z" style="fill:var(--gb-lens--fill-1);"/>
                        </g>
                        <g transform="matrix(0.998255,0,0,0.689767,-1197.36,-3.02812)">
                            <path d="M2084,62.358L2084,566.642C2084,570.703 2080.67,574 2076.57,574L1518.43,574C1514.33,574 1511,570.703 1511,566.642L1511,62.358C1511,58.297 1514.33,55 1518.43,55L2076.57,55C2080.67,55 2084,58.297 2084,62.358Z" style="fill:var(--gb-lens--fill-2);"/>
                        </g>
                        <g transform="matrix(1.00524,0,0,0.689767,-1212.91,-3.02812)">
                            <path d="M2084,63.505L2084,565.495C2084,570.189 2080.18,574 2075.47,574L1519.53,574C1514.82,574 1511,570.189 1511,565.495L1511,63.505C1511,58.811 1514.82,55 1519.53,55L2075.47,55C2080.18,55 2084,58.811 2084,63.505Z" style="fill:var(--gb-lens--fill-3);"/>
                        </g>
                        <g transform="matrix(1,0,0,0.688406,-1203,-2.2464)">
                            <path d="M2084,62.662L2084,566.338C2084,570.567 2080.55,574 2076.3,574L1518.7,574C1514.45,574 1511,570.567 1511,566.338L1511,62.662C1511,58.433 1514.45,55 1518.7,55L2076.3,55C2080.55,55 2084,58.433 2084,62.662Z" style="fill:var(--gb-lens--fill-4);"/>
                        </g>
                        <g transform="matrix(1,0,0,0.684492,-1183.5,0)">
                            <rect x="1551.5" y="110.264" width="453" height="407.7"/>
                        </g>
                    </g>
                    <g id="DPad">
                        <g id="_15" serif:id="15" transform="matrix(1.07843,0,0,0.713414,-1334.8,-18.5681)">
                            <path d="M1604,739.385L1568.74,739.385C1564.4,739.385 1560.88,735.744 1560.88,731.259L1560.88,694.741C1560.88,690.256 1564.4,686.615 1568.74,686.615L1604,686.615L1604,650.126C1604,645.641 1607.52,642 1611.85,642L1647.15,642C1651.48,642 1655,645.641 1655,650.126L1655,686.615L1690.27,686.615C1694.6,686.615 1698.12,690.256 1698.12,694.741L1698.12,731.259C1698.12,735.744 1694.6,739.385 1690.27,739.385L1655,739.385L1655,775.874C1655,780.359 1651.48,784 1647.15,784L1611.85,784C1607.52,784 1604,780.359 1604,775.874L1604,739.385Z" style="fill:var(--gb-dpad--fill-1);stroke:var(--gb-dpad--stroke);stroke-width:1.89px;"/>
                        </g>
                        <g id="_0" serif:id="0" transform="matrix(1.01471,0,0,0.70041,-1235.41,-11.7478)">
                            <path d="M1604.32,738L1562.7,738C1560.11,738 1558,735.912 1558,733.34L1558,699.66C1558,697.088 1560.11,695 1562.7,695L1604.32,695L1604.32,653.728C1604.32,651.156 1606.42,649.068 1609.02,649.068L1642.98,649.068C1645.58,649.068 1647.68,651.156 1647.68,653.728L1647.68,695L1686.54,695C1689.13,695 1691.24,697.088 1691.24,699.66L1691.24,733.34C1691.24,735.912 1689.13,738 1686.54,738L1647.68,738L1647.68,779.272C1647.68,781.844 1645.58,783.932 1642.98,783.932L1609.02,783.932C1606.42,783.932 1604.32,781.844 1604.32,779.272L1604.32,738Z" style="fill:var(--gb-shared-fill-black);"/>
                        </g>
                        <g id="_20" serif:id="20" transform="matrix(1.01471,0,0,0.70041,-1227.41,-11.7478)">
                            <path d="M1604.32,738L1562.7,738C1560.11,738 1558,735.912 1558,733.34L1558,699.66C1558,697.088 1560.11,695 1562.7,695L1604.32,695L1604.32,653.728C1604.32,651.156 1606.42,649.068 1609.02,649.068L1642.98,649.068C1645.58,649.068 1647.68,651.156 1647.68,653.728L1647.68,695L1690.48,695C1693.07,695 1695.18,697.088 1695.18,699.66L1695.18,733.34C1695.18,735.912 1693.07,738 1690.48,738L1647.68,738L1647.68,779.272C1647.68,781.844 1645.58,783.932 1642.98,783.932L1609.02,783.932C1606.42,783.932 1604.32,781.844 1604.32,779.272L1604.32,738Z" style="fill:var(--gb-dpad--fill-2);"/>
                        </g>
                        <g id="_130" serif:id="130" transform="matrix(1.01471,0,0,0.70041,-1226.91,-11.7478)">
                            <path d="M1604.32,738L1565.66,738C1563.06,738 1560.96,735.912 1560.96,733.34L1560.96,699.66C1560.96,697.088 1563.06,695 1565.66,695L1604.32,695L1604.32,653.728C1604.32,651.156 1606.42,649.068 1609.02,649.068L1642.98,649.068C1645.58,649.068 1647.68,651.156 1647.68,653.728L1647.68,695L1688.51,695C1691.1,695 1693.21,697.088 1693.21,699.66L1693.21,733.34C1693.21,735.912 1691.1,738 1688.51,738L1647.68,738L1647.68,779.272C1647.68,781.844 1645.58,783.932 1642.98,783.932L1609.02,783.932C1606.42,783.932 1604.32,781.844 1604.32,779.272L1604.32,738Z" style="fill:var(--gb-shared-fill-grey);"/>
                        </g>
                        <g id="_50" serif:id="50" transform="matrix(0.973684,0,0,0.684492,-1162.34,6.82121e-13)">
                            <path d="M1605,737.386L1564.17,737.386C1560.92,737.386 1558.27,734.81 1558.27,731.637L1558.27,699.901C1558.27,696.728 1560.92,694.151 1564.17,694.151L1605,694.151L1605,651.92C1605,649.205 1607.26,647 1610.05,647L1643.08,647C1645.87,647 1648.13,649.205 1648.13,651.92L1648.13,694.151L1689.99,694.151C1693.25,694.151 1695.89,696.728 1695.89,699.901L1695.89,731.637C1695.89,734.81 1693.25,737.386 1689.99,737.386L1648.13,737.386L1648.13,780.08C1648.13,782.795 1645.87,785 1643.08,785L1610.05,785C1607.26,785 1605,782.795 1605,780.08L1605,737.386Z" style="fill:var(--gb-shared-fill-dark-grey);stroke:var(--gb-shared-stroke);stroke-width:2.03px;"/>
                        </g>
                    </g>
                    <g id="StartSelect">
                        <g id="_151" serif:id="15" transform="matrix(1.07843,0,0,0.713414,-1334.8,-18.5681)">
                            <path d="M1740.98,912.297C1750.33,912.297 1757.93,920.157 1757.93,929.838C1757.93,939.519 1750.33,947.378 1740.98,947.378C1731.62,947.378 1724.02,939.519 1724.02,929.838C1724.02,920.157 1731.62,912.297 1740.98,912.297ZM1840.19,912.297C1849.55,912.297 1857.14,920.157 1857.14,929.838C1857.14,939.519 1849.55,947.378 1840.19,947.378C1830.84,947.378 1823.24,939.519 1823.24,929.838C1823.24,920.157 1830.84,912.297 1840.19,912.297ZM1790.12,912.297C1799.48,912.297 1807.07,920.157 1807.07,929.838C1807.07,939.519 1799.48,947.378 1790.12,947.378C1780.76,947.378 1773.17,939.519 1773.17,929.838C1773.17,920.157 1780.76,912.297 1790.12,912.297Z" style="fill:var(--    );stroke:var(--gb-shared-stroke);stroke-width:2px;"/>
                        </g>
                        <g id="_1301" serif:id="130" transform="matrix(1.01471,0,0,0.70041,-1226.91,-11.7478)">
                            <path d="M1743.98,920.337C1752.92,920.337 1760.17,927.529 1760.17,936.386C1760.17,945.244 1752.92,952.436 1743.98,952.436C1735.05,952.436 1727.8,945.244 1727.8,936.386C1727.8,927.529 1735.05,920.337 1743.98,920.337ZM1849.43,920.337C1858.37,920.337 1865.62,927.529 1865.62,936.386C1865.62,945.244 1858.37,952.436 1849.43,952.436C1840.5,952.436 1833.25,945.244 1833.25,936.386C1833.25,927.529 1840.5,920.337 1849.43,920.337ZM1796.22,920.337C1805.15,920.337 1812.4,927.529 1812.4,936.386C1812.4,945.244 1805.15,952.436 1796.22,952.436C1787.28,952.436 1780.03,945.244 1780.03,936.386C1780.03,927.529 1787.28,920.337 1796.22,920.337Z" style="fill:var(--gb-shared-fill-grey);stroke:var(--gb-start-select--stroke);stroke-width:1.96px;"/>
                        </g>
                        <g id="_501" serif:id="50" transform="matrix(0.973684,0,0,0.684492,-1162.34,6.82121e-13)">
                            <path d="M1750.5,926.817C1759.46,926.817 1766.73,933.898 1766.73,942.62C1766.73,951.342 1759.46,958.423 1750.5,958.423C1741.54,958.423 1734.27,951.342 1734.27,942.62C1734.27,933.898 1741.54,926.817 1750.5,926.817ZM1860.39,926.817C1869.35,926.817 1876.62,933.898 1876.62,942.62C1876.62,951.342 1869.35,958.423 1860.39,958.423C1851.43,958.423 1844.16,951.342 1844.16,942.62C1844.16,933.898 1851.43,926.817 1860.39,926.817ZM1804.93,926.817C1813.89,926.817 1821.16,933.898 1821.16,942.62C1821.16,951.342 1813.89,958.423 1804.93,958.423C1795.98,958.423 1788.7,951.342 1788.7,942.62C1788.7,933.898 1795.98,926.817 1804.93,926.817Z" style="fill:var(--gb-shared-fill-dark-grey);stroke:var(--gb-shared-stroke);stroke-width:2.03px;"/>
                        </g>
                    </g>
                    <g id="ABXY">
                        <g id="_01" serif:id="0" transform="matrix(1.01471,0,0,0.70041,-1235.41,-11.7478)">
                            <path d="M1954.17,746.795C1973.48,746.795 1989.16,759.714 1989.16,775.625C1989.16,791.536 1973.48,804.455 1954.17,804.455C1934.87,804.455 1919.19,791.536 1919.19,775.625C1919.19,759.714 1934.87,746.795 1954.17,746.795ZM1893.07,688.159C1912.38,688.159 1928.06,701.077 1928.06,716.989C1928.06,732.9 1912.38,745.818 1893.07,745.818C1873.76,745.818 1858.09,732.9 1858.09,716.989C1858.09,701.077 1873.76,688.159 1893.07,688.159ZM1953.19,628.545C1972.5,628.545 1988.17,641.464 1988.17,657.375C1988.17,673.286 1972.5,686.205 1953.19,686.205C1933.88,686.205 1918.2,673.286 1918.2,657.375C1918.2,641.464 1933.88,628.545 1953.19,628.545ZM2013.3,688.159C2032.61,688.159 2048.29,701.077 2048.29,716.989C2048.29,732.9 2032.61,745.818 2013.3,745.818C1994,745.818 1978.32,732.9 1978.32,716.989C1978.32,701.077 1994,688.159 2013.3,688.159Z" style="fill:var(--gb-shared-fill-black);"/>
                        </g>
                        <g id="_152" serif:id="15" transform="matrix(1.07843,0,0,0.713414,-1334.8,-18.5681)">
                            <path d="M1936.43,742.743C1951.53,742.743 1963.78,755.426 1963.78,771.047C1963.78,786.669 1951.53,799.351 1936.43,799.351C1921.33,799.351 1909.07,786.669 1909.07,771.047C1909.07,755.426 1921.33,742.743 1936.43,742.743ZM1878.94,685.176C1894.03,685.176 1906.29,697.858 1906.29,713.48C1906.29,729.101 1894.03,741.784 1878.94,741.784C1863.84,741.784 1851.58,729.101 1851.58,713.48C1851.58,697.858 1863.84,685.176 1878.94,685.176ZM1935.5,626.649C1950.6,626.649 1962.86,639.331 1962.86,654.953C1962.86,670.574 1950.6,683.257 1935.5,683.257C1920.4,683.257 1908.14,670.574 1908.14,654.953C1908.14,639.331 1920.4,626.649 1935.5,626.649ZM1992.06,685.176C2007.16,685.176 2019.42,697.858 2019.42,713.48C2019.42,729.101 2007.16,741.784 1992.06,741.784C1976.97,741.784 1964.71,729.101 1964.71,713.48C1964.71,697.858 1976.97,685.176 1992.06,685.176Z" style="fill:var(--gb-abxy--fill-1);stroke:var(--gb-shared-stroke);stroke-width:2px;"/>
                        </g>
                        <g id="_1302" serif:id="130" transform="matrix(1.01471,0,0,0.70041,-1228.91,-11.0633)">
                            <path d="M1951.71,749.727C1966.12,749.727 1977.83,761.332 1977.83,775.625C1977.83,789.918 1966.12,801.523 1951.71,801.523C1937.3,801.523 1925.59,789.918 1925.59,775.625C1925.59,761.332 1937.3,749.727 1951.71,749.727ZM1890.61,691.091C1905.02,691.091 1916.73,702.695 1916.73,716.989C1916.73,731.282 1905.02,742.886 1890.61,742.886C1876.19,742.886 1864.49,731.282 1864.49,716.989C1864.49,702.695 1876.19,691.091 1890.61,691.091ZM1950.73,631.477C1965.14,631.477 1976.84,643.082 1976.84,657.375C1976.84,671.668 1965.14,683.273 1950.73,683.273C1936.31,683.273 1924.61,671.668 1924.61,657.375C1924.61,643.082 1936.31,631.477 1950.73,631.477ZM2010.84,691.091C2025.25,691.091 2036.96,702.695 2036.96,716.989C2036.96,731.282 2025.25,742.886 2010.84,742.886C1996.43,742.886 1984.73,731.282 1984.73,716.989C1984.73,702.695 1996.43,691.091 2010.84,691.091Z" style="fill:var(--gb-abxy--fill-2);stroke:var(--gb-shared-stroke);stroke-width:2px;"/>
                        </g>
                        <g id="_502" serif:id="50" transform="matrix(0.973684,0,0,0.684492,-1162.34,-1.36898)">
                            <path d="M1967.62,752C1982.07,752 1993.8,763.426 1993.8,777.5C1993.8,791.574 1982.07,803 1967.62,803C1953.16,803 1941.43,791.574 1941.43,777.5C1941.43,763.426 1953.16,752 1967.62,752ZM1902.91,692C1917.37,692 1929.1,703.426 1929.1,717.5C1929.1,731.574 1917.37,743 1902.91,743C1888.46,743 1876.72,731.574 1876.72,717.5C1876.72,703.426 1888.46,692 1902.91,692ZM1965.56,631C1980.02,631 1991.75,642.426 1991.75,656.5C1991.75,670.574 1980.02,682 1965.56,682C1951.11,682 1939.37,670.574 1939.37,656.5C1939.37,642.426 1951.11,631 1965.56,631ZM2028.21,692C2042.66,692 2054.4,703.426 2054.4,717.5C2054.4,731.574 2042.66,743 2028.21,743C2013.76,743 2002.02,731.574 2002.02,717.5C2002.02,703.426 2013.76,692 2028.21,692Z" style="fill:var(--gb-shared-fill-dark-grey);stroke:var(--gb-abxy--stroke);stroke-width:2px;"/>
                        </g>
                    </g>
                </g>
                <g id="Screen" transform="matrix(2.83125,0,0,1.93797,349.5,75.4745)">
                    <image filter="url(#pixelate)" x="0" y="0" width="160px" height="144px" xlink:href="{{ screenshot }}{{ screenshotCount | default: '001' }}{{ screenshotFormat | default: '.png' }}"/>
                </g>
                <g id="LensShine" transform="matrix(-1.00873,0,0,-0.693724,2389.68,433.107)">
                    <path d="M2084,63.676L1519.72,574C1514.91,574 1511,570.113 1511,565.324L1511,63.676C1511,58.887 1514.91,55 1519.72,55L2075.28,55C2080.09,55 2084,58.887 2084,63.676Z" style="fill:white;fill-opacity:0.22;"/>
                </g>
            </g>
        </g>
    </g>
    <filter id="pixelate" x="0" y="0">
        <feFlood x="1" y="1" height="1" width="1"/>    
        <feComposite width="1" height="1"/>
        <feTile result="a"/>
        <feComposite in="SourceGraphic" in2="a" operator="in"/>
        <feMorphology operator="dilate" radius="0"/>
    </filter>
</svg>