<?xml version="1.0" encoding="UTF-8" standalone="no"?>
<!DOCTYPE svg PUBLIC "-//W3C//DTD SVG 1.1//EN" "http://www.w3.org/Graphics/SVG/1.1/DTD/svg11.dtd">
<svg width="100%" height="100%" viewBox="0 0 650 400" version="1.1" xmlns="http://www.w3.org/2000/svg" xmlns:xlink="http://www.w3.org/1999/xlink" xml:space="preserve" xmlns:serif="http://www.serif.com/" style="fill-rule:evenodd;clip-rule:evenodd;stroke-linecap:square;stroke-linejoin:round;stroke-miterlimit:1;" aria-labelledby="svg-title" aria-describedby="svg-desc">
    
    <title id="svg-title">Search</title>
    <desc id="svg-desc">A magnifying glass.</desc>
    <g id="Glass">
        <path d="M21.139,122.808C20.67,95.306 38.591,67.72 74.902,46.755C146.598,5.362 263.014,5.362 334.71,46.755C370.574,67.462 388.498,94.629 388.482,121.793L388.482,146.755C388.482,173.907 370.558,201.058 334.71,221.755C263.014,263.149 146.598,263.149 74.902,221.755C38.614,200.804 20.693,173.239 21.138,145.755L21.13,145.755L21.139,122.808ZM374.87,134.236C370.259,113.214 353.986,92.884 326.049,76.755C259.133,38.121 150.478,38.121 83.562,76.755C55.629,92.883 39.356,113.209 34.744,134.229L34.744,134.282C39.356,155.301 55.629,175.628 83.562,191.755C150.478,230.389 259.133,230.389 326.049,191.755C353.986,175.626 370.259,155.297 374.87,134.274L374.87,134.236Z" style="fill:rgb(186,191,196);stroke:black;stroke-width:3px;"/>
        <path d="M83.562,60.755C16.646,99.389 16.646,162.121 83.562,200.755C150.478,239.389 259.133,239.389 326.049,200.755C392.966,162.121 392.966,99.389 326.049,60.755C259.133,22.121 150.478,22.121 83.562,60.755Z" style="fill:rgb(0,255,243);fill-opacity:0.15;stroke:black;stroke-width:3px;"/>
        <path d="M83.562,67.755C16.646,106.389 16.646,169.121 83.562,207.755C150.478,246.389 259.133,246.389 326.049,207.755C392.966,169.121 392.966,106.389 326.049,67.755C259.133,29.121 150.478,29.121 83.562,67.755Z" style="fill:rgb(0,255,243);fill-opacity:0.15;stroke:black;stroke-width:3px;"/>
        <path d="M300.405,198.174C320.131,190.276 335.974,179.385 345.493,166.011C373.973,125.996 335.123,78.806 258.79,60.697C210.178,49.164 158.012,52.189 119.179,66.243C158.474,50.511 213.178,46.657 263.998,58.714C340.331,76.823 379.181,124.013 350.701,164.028C340.358,178.56 322.549,190.16 300.405,198.174Z" style="fill:white;fill-opacity:0.71;"/>
        <path d="M21.139,122.808C22.083,122.646 55.932,192.427 99.821,204.689C141.551,229.769 282.414,225.492 316.523,202.255C359.118,189.577 388.482,121.793 388.482,121.793L388.482,146.755C388.482,173.907 370.558,201.058 334.71,221.755C263.014,263.149 146.598,263.149 74.902,221.755C38.614,200.804 20.693,173.239 21.138,145.755L21.13,145.755L21.139,122.808Z" style="fill:rgb(186,191,196);stroke:black;stroke-width:3px;"/>
        <path d="M74.902,46.755C146.598,5.362 263.014,5.362 334.71,46.755C406.406,88.149 406.406,155.362 334.71,196.755C263.014,238.149 146.598,238.149 74.902,196.755C3.206,155.362 3.206,88.149 74.902,46.755ZM83.562,51.755C16.646,90.389 16.646,153.121 83.562,191.755C150.478,230.389 259.133,230.389 326.049,191.755C392.966,153.121 392.966,90.389 326.049,51.755C259.133,13.121 150.478,13.121 83.562,51.755Z" style="fill:rgb(212,215,218);stroke:black;stroke-width:3px;"/>
    </g>
    <g id="Handle">
        <path d="M329.607,218.326C328.215,217.582 327.348,215.91 327.348,213.505C327.348,211.101 328.215,208.427 329.607,206.077C330.931,203.842 332.729,201.899 334.71,200.755C336.78,199.56 338.651,199.468 339.989,200.286L339.99,200.286L378.011,222.237L378.003,222.242C379.459,222.954 380.372,224.651 380.372,227.119C380.372,231.81 377.074,237.523 373.011,239.869C370.887,241.095 368.972,241.16 367.628,240.272L367.628,240.279L329.607,218.328L329.607,218.326Z" style="fill:rgb(200,204,208);stroke:black;stroke-width:3px;"/>
        <path d="M362.988,250.15C360.321,248.535 358.676,245.171 358.676,240.418C358.676,235.665 360.321,230.403 362.988,225.707C365.741,220.862 369.583,216.621 373.832,214.168C378.164,211.667 382.075,211.513 384.838,213.288L384.846,213.283L623.469,351.053L601.612,387.919L363.248,250.3C363.161,250.251 363.074,250.201 362.988,250.15Z" style="fill:rgb(186,191,196);stroke:black;stroke-width:3px;"/>
        <path d="M612.989,352.246C621.353,347.416 628.144,351.337 628.144,360.996C628.144,370.654 621.353,382.416 612.989,387.246C604.624,392.075 597.833,388.154 597.833,378.496C597.833,368.837 604.624,357.075 612.989,352.246Z" style="fill:rgb(156,163,170);stroke:black;stroke-width:3px;"/>
    </g>
</svg>
