<?xml version="1.0" encoding="UTF-8" standalone="no"?>
<!DOCTYPE svg PUBLIC "-//W3C//DTD SVG 1.1//EN" "http://www.w3.org/Graphics/SVG/1.1/DTD/svg11.dtd">
<svg class="object object--switch" width="100%" height="100%" viewBox="0 0 138 275" version="1.1" xmlns="http://www.w3.org/2000/svg" xmlns:xlink="http://www.w3.org/1999/xlink" xml:space="preserve" xmlns:serif="http://www.serif.com/" style="fill-rule:evenodd;clip-rule:evenodd;stroke-linecap:square;stroke-linejoin:round;stroke-miterlimit:1;">
    
    <title id="svg-title">{{ post.data.title | default: title }}</title>
    <desc id="svg-desc">A Nintendo Switch game cartridge with cover art work for {{ post.data.title | default: title }}</desc>
    
    <path d="M125.135,267.269L119.605,270.462L119.589,270.453C117.88,271.265 115.723,271.093 113.379,269.74L12.204,211.326C6.666,208.129 2.17,199.538 2.17,192.154L2.17,16.912C2.17,12.873 3.515,10.026 5.64,8.799L16.912,2.291L16.929,2.301C18.637,1.493 20.791,1.666 23.132,3.017L124.307,61.43C129.845,64.628 134.341,73.219 134.341,80.603L134.341,221.426L128.615,224.732L128.615,244.26L134.341,240.954L134.341,254.426L128.615,257.732L128.608,259.155C128.608,263.195 127.262,266.043 125.135,267.269Z" style="fill:rgb(62,62,62);stroke:black;stroke-width:1px;"/>
    <path d="M123.413,86.912L123.413,262.154C123.413,269.538 118.917,272.937 113.379,269.74L12.204,211.326C6.666,208.129 2.17,199.538 2.17,192.154L2.17,16.912C2.17,9.528 6.666,6.129 12.204,9.326L113.379,67.74C118.917,70.937 123.413,79.528 123.413,86.912Z" style="fill:rgb(100,100,104);stroke:black;stroke-width:1px;"/>
    <path d="M115.413,94.843L115.413,238.986C115.413,242.81 113.085,244.57 110.217,242.914L15.366,188.152C12.498,186.496 10.17,182.048 10.17,178.224L10.17,34.08C10.17,30.256 12.498,28.496 15.366,30.152L110.217,84.914C113.085,86.57 115.413,91.019 115.413,94.843Z" style="fill:rgb(62,62,62);stroke:black;stroke-width:1px;"/>
    {% if page.url contains '/opengraph/' %}
        <image id="opengraphImage" href="" width="512px" height="512px"  x="0" y="0" transform="matrix(0.194966,0.112563,-1.08228e-17,0.225127,14.1058,66.8203)"/>
    {% elsif post.data.object.image or object.image %}
        <image href="{{ post.data.object.image | default: object.image }}" width="512px" height="512px"  x="0" y="0" transform="matrix(0.194966,0.112563,-1.08228e-17,0.225127,14.1058,66.8203)"/>
    {% else %}
        <image href="/images/me/me.svg" width="462px" height="462px"  x="25px" y="50px" transform="matrix(0.194966,0.112563,-1.08228e-17,0.225127,14.1058,66.8203)"/>
    {% endif %}
    <path d="M14.161,67.917L113.914,125.51L113.914,240.696L14.161,183.103L14.161,67.917Z" style="fill:none;stroke:black;stroke-width:1px;stroke-linecap:butt;stroke-miterlimit:2;"/>
    <path d="M115.413,93.669L115.413,237.266C115.413,240.442 113.479,241.904 111.097,240.529L16.775,186.072C14.393,184.697 12.459,181.001 12.459,177.825L12.459,34.229C12.459,31.052 14.393,29.59 16.775,30.966L111.097,85.422C113.479,86.798 115.413,90.493 115.413,93.669ZM14.161,176.362C14.161,179.545 16.103,183.245 18.496,184.62L110.405,237.428C112.319,238.528 113.873,237.354 113.873,234.808L113.873,124.421L14.161,67.129L14.161,176.362Z" style="fill:rgb(100,100,104);stroke:black;stroke-width:1px;"/>
    <path d="M73.32,228.533L61.15,232.533L50.803,215.533L73.32,228.533Z" style="fill:none;stroke:black;stroke-width:1px;"/>
    <path d="M50.803,215.533L61.15,232.533L59.529,233.066L47.803,213.801L50.803,215.533Z" style="fill:rgb(62,62,62);stroke:black;stroke-width:1px;"/>
    <path d="M113.866,95.013L113.866,125.205L14.153,67.913L14.153,35.373C14.153,33.463 15.319,32.582 16.754,33.407L109.499,86.696C111.909,88.081 113.866,91.808 113.866,95.013Z" style="fill:rgb(230,0,18);stroke:black;stroke-width:1px;"/>
    <path d="M14.161,176.362L14.161,67.917L113.873,125.209L113.873,234.808C113.873,237.354 112.319,238.528 110.405,237.428L18.496,184.62C16.103,183.245 14.161,179.545 14.161,176.362Z" style="fill:none;stroke:black;stroke-width:1px;"/>
    <path d="M76.291,59.327C76.291,60.594 75.52,61.176 74.571,60.628L51.012,47.027C50.062,46.478 49.291,45.005 49.291,43.739C49.291,42.473 50.062,41.89 51.012,42.438L74.571,56.04C75.52,56.588 76.291,58.061 76.291,59.327Z" style="fill:rgb(62,62,62);stroke:black;stroke-width:1px;"/>
    <path d="M76.291,58.468C76.291,59.261 75.809,59.625 75.215,59.282L51.88,45.81C51.285,45.467 50.803,44.545 50.803,43.753C50.803,42.961 51.285,42.596 51.88,42.939L75.215,56.412C75.809,56.755 76.291,57.676 76.291,58.468Z" style="fill:rgb(100,100,104);stroke:black;stroke-width:1px;"/>
    <path d="M128.615,237.648L134.341,240.954L128.615,244.26L128.615,237.648Z" style="fill:rgb(25,25,25);stroke:black;stroke-width:1px;"/>
    <path d="M32.515,51.14C32.725,51.219 33.202,51.483 34.79,52.396C36.745,53.521 36.802,53.558 36.835,53.646C36.858,53.714 36.868,56.662 36.868,62.911C36.868,71.34 36.865,72.081 36.815,72.11C36.765,72.139 36.571,72.031 34.703,70.937C32.898,69.883 32.618,69.71 32.398,69.525C30.71,68.096 29.522,66.035 29.152,63.891C29.085,63.494 29.082,63.385 29.072,58.741C29.055,53.681 29.065,53.305 29.212,52.739C29.619,51.171 30.91,50.545 32.515,51.14ZM35.534,69.933L35.534,54.324L34.243,53.583C32.815,52.762 32.611,52.668 32.171,52.618C31.294,52.516 30.643,53.038 30.443,54.004C30.373,54.345 30.373,63.93 30.446,64.361C30.67,65.734 31.467,67.15 32.541,68.09C32.792,68.308 32.925,68.393 34.176,69.13L35.534,69.933ZM32.802,55.1C33.642,55.393 34.456,56.526 34.6,57.599C34.723,58.502 34.286,59.062 33.562,58.926C33.385,58.893 33.292,58.851 33.028,58.687C32.738,58.508 32.681,58.46 32.458,58.203C32.134,57.832 31.897,57.421 31.741,56.957C31.634,56.649 31.617,56.558 31.604,56.246C31.577,55.645 31.751,55.249 32.101,55.1C32.271,55.025 32.591,55.025 32.802,55.1ZM38.493,54.557C38.503,54.548 39.17,54.921 39.971,55.384C41.132,56.054 41.492,56.273 41.726,56.454C43.467,57.807 44.792,60.085 45.122,62.283C45.169,62.591 45.175,63.254 45.175,67.672C45.175,73.208 45.182,73.019 44.972,73.622C44.915,73.778 44.805,74.019 44.722,74.152C44.071,75.19 42.877,75.452 41.522,74.847C41.202,74.701 38.613,73.221 38.523,73.131C38.473,73.079 38.47,72.226 38.47,63.824C38.47,58.731 38.48,54.561 38.493,54.557ZM42.056,65.004C41.222,64.273 40.355,64.327 40.104,65.126C40.021,65.378 40.018,65.869 40.091,66.204C40.335,67.3 41.222,68.394 42.056,68.626C42.57,68.764 42.97,68.568 43.174,68.077C43.284,67.809 43.287,67.279 43.177,66.854C43.003,66.168 42.576,65.463 42.056,65.004ZM53.766,63.495L55.057,64.24L55.057,71.323L53.417,70.376L51.216,64.117L51.216,69.105L49.925,68.36L49.925,61.277L51.565,62.224L53.766,68.483L53.766,63.495ZM56.264,65.978L56.264,64.937L59.237,66.654L59.237,67.694L58.422,67.224L58.422,72.225L59.237,72.695L59.237,73.736L56.264,72.019L56.264,70.978L57.078,71.449L57.078,66.448L56.264,65.978ZM64.285,69.568L65.576,70.313L65.576,77.396L63.935,76.449L61.734,70.19L61.734,75.178L60.443,74.432L60.443,67.35L62.084,68.297L64.285,74.556L64.285,69.568ZM71.3,73.618L71.3,75.002L69.597,74.018L69.597,79.717L68.253,78.941L68.253,73.242L66.549,72.259L66.549,70.875L71.3,73.618ZM73.618,76.314L73.618,77.749L75.956,79.099L75.956,80.457L73.618,79.107L73.618,80.681L76.507,82.348L76.507,83.707L72.274,81.263L72.274,74.18L76.507,76.624L76.507,77.982L73.618,76.314ZM81.66,79.599L82.951,80.345L82.951,87.427L81.311,86.48L79.11,80.221L79.11,85.209L77.819,84.464L77.819,77.382L79.459,78.329L81.66,84.588L81.66,79.599ZM86.644,82.477C87.152,82.77 87.594,83.11 87.969,83.496C88.345,83.882 88.656,84.302 88.903,84.756C89.15,85.209 89.335,85.689 89.456,86.195C89.578,86.701 89.639,87.218 89.639,87.747C89.639,88.276 89.578,88.723 89.456,89.089C89.335,89.454 89.15,89.721 88.903,89.89C88.656,90.058 88.345,90.118 87.969,90.071C87.594,90.023 87.152,89.853 86.644,89.559L84.538,88.344L84.538,81.261L86.644,82.477ZM86.623,88.227C86.954,88.419 87.225,88.509 87.435,88.499C87.645,88.489 87.811,88.415 87.932,88.276C88.054,88.136 88.138,87.948 88.184,87.71C88.23,87.472 88.253,87.218 88.253,86.947C88.253,86.676 88.23,86.395 88.184,86.104C88.138,85.813 88.054,85.528 87.932,85.248C87.811,84.969 87.645,84.703 87.435,84.45C87.225,84.198 86.954,83.976 86.623,83.785L85.882,83.357L85.882,87.799L86.623,88.227ZM93.66,93.737C93.18,93.46 92.762,93.131 92.406,92.75C92.05,92.368 91.752,91.948 91.514,91.489C91.276,91.03 91.098,90.541 90.98,90.022C90.862,89.504 90.803,88.969 90.803,88.419C90.803,87.869 90.862,87.403 90.98,87.021C91.098,86.638 91.276,86.355 91.514,86.171C91.752,85.987 92.05,85.91 92.406,85.94C92.762,85.97 93.18,86.124 93.66,86.401C94.14,86.678 94.558,87.007 94.914,87.388C95.27,87.769 95.567,88.189 95.805,88.648C96.043,89.107 96.222,89.596 96.34,90.115C96.458,90.634 96.517,91.168 96.517,91.718C96.517,92.268 96.458,92.734 96.34,93.117C96.222,93.499 96.043,93.782 95.805,93.966C95.567,94.151 95.27,94.228 94.914,94.197C94.558,94.167 94.14,94.014 93.66,93.737ZM93.66,92.341C93.956,92.512 94.2,92.587 94.39,92.566C94.58,92.544 94.73,92.457 94.84,92.305C94.949,92.152 95.025,91.953 95.067,91.706C95.11,91.46 95.131,91.197 95.131,90.918C95.131,90.639 95.11,90.351 95.067,90.056C95.025,89.761 94.949,89.474 94.84,89.195C94.73,88.916 94.58,88.656 94.39,88.415C94.2,88.174 93.956,87.968 93.66,87.797C93.364,87.626 93.12,87.551 92.93,87.572C92.739,87.593 92.589,87.68 92.48,87.833C92.371,87.985 92.295,88.185 92.252,88.431C92.21,88.678 92.189,88.94 92.189,89.22C92.189,89.499 92.21,89.786 92.252,90.081C92.295,90.376 92.371,90.663 92.48,90.942C92.589,91.221 92.739,91.481 92.93,91.722C93.12,91.964 93.364,92.17 93.66,92.341ZM50.907,77.177C50.926,77.446 50.984,77.701 51.082,77.941C51.18,78.181 51.306,78.405 51.459,78.614C51.612,78.823 51.787,79.012 51.986,79.181C52.184,79.35 52.393,79.498 52.613,79.625C53.048,79.876 53.382,79.969 53.614,79.905C53.846,79.841 53.961,79.646 53.961,79.319C53.961,79.05 53.88,78.776 53.718,78.499C53.555,78.222 53.287,77.915 52.914,77.579L51.308,76.136C50.639,75.531 50.127,74.906 49.774,74.261C49.42,73.615 49.243,72.936 49.243,72.225C49.243,71.721 49.329,71.339 49.501,71.08C49.673,70.821 49.903,70.661 50.189,70.6C50.476,70.539 50.805,70.564 51.175,70.675C51.546,70.785 51.93,70.955 52.326,71.184C52.761,71.436 53.168,71.732 53.546,72.073C53.923,72.415 54.253,72.793 54.535,73.208C54.817,73.623 55.044,74.072 55.216,74.556C55.388,75.04 55.491,75.552 55.525,76.093L53.689,75.033C53.675,74.778 53.626,74.538 53.542,74.312C53.458,74.086 53.35,73.878 53.216,73.689C53.082,73.5 52.929,73.33 52.757,73.179C52.585,73.028 52.403,72.897 52.212,72.787C51.839,72.572 51.554,72.496 51.358,72.561C51.162,72.625 51.064,72.813 51.064,73.122C51.064,73.374 51.14,73.632 51.29,73.893C51.441,74.155 51.71,74.464 52.097,74.819L53.703,76.263C54.024,76.551 54.312,76.846 54.567,77.149C54.823,77.451 55.041,77.766 55.22,78.093C55.399,78.42 55.538,78.758 55.636,79.108C55.734,79.457 55.783,79.82 55.783,80.199C55.783,80.738 55.691,81.139 55.507,81.403C55.323,81.666 55.078,81.826 54.772,81.881C54.466,81.937 54.117,81.903 53.725,81.78C53.333,81.657 52.929,81.475 52.513,81.235C52.016,80.948 51.562,80.617 51.15,80.242C50.739,79.867 50.384,79.46 50.085,79.021C49.787,78.582 49.549,78.118 49.372,77.628C49.195,77.139 49.09,76.633 49.056,76.109L50.907,77.177ZM61.207,76.484L63.014,77.527L64.506,85.252L65.926,79.208L67.618,80.185L65.438,88.526L63.617,87.474L62.082,79.621L60.547,85.702L58.726,84.65L56.546,73.793L58.296,74.803L59.73,82.495L61.207,76.484ZM68.518,82.115L68.518,80.705L72.548,83.031L72.548,84.442L71.444,83.804L71.444,90.582L72.548,91.22L72.548,92.631L68.518,90.304L68.518,88.893L69.622,89.531L69.622,82.753L68.518,82.115ZM79.758,87.194L79.758,89.069L77.449,87.736L77.449,95.46L75.628,94.409L75.628,86.685L73.319,85.351L73.319,83.476L79.758,87.194ZM87.969,98.059C87.931,98.627 87.815,99.082 87.621,99.424C87.428,99.765 87.173,99.999 86.857,100.127C86.542,100.254 86.174,100.275 85.753,100.19C85.332,100.105 84.876,99.92 84.383,99.636C83.771,99.282 83.232,98.852 82.766,98.345C82.3,97.838 81.911,97.278 81.597,96.664C81.284,96.05 81.049,95.392 80.891,94.691C80.733,93.989 80.654,93.262 80.654,92.511C80.654,91.766 80.733,91.132 80.891,90.609C81.049,90.087 81.284,89.699 81.597,89.447C81.911,89.195 82.3,89.085 82.766,89.116C83.232,89.147 83.771,89.339 84.383,89.693C84.876,89.977 85.332,90.319 85.753,90.72C86.174,91.12 86.542,91.567 86.857,92.058C87.173,92.55 87.428,93.079 87.621,93.643C87.815,94.208 87.931,94.797 87.969,95.41L86.119,94.341C86.104,94.098 86.059,93.848 85.983,93.592C85.906,93.336 85.796,93.086 85.653,92.842C85.509,92.599 85.335,92.371 85.129,92.157C84.924,91.944 84.685,91.759 84.412,91.601C84.034,91.383 83.725,91.293 83.483,91.332C83.242,91.37 83.051,91.495 82.91,91.706C82.769,91.917 82.671,92.19 82.616,92.525C82.561,92.861 82.533,93.217 82.533,93.596C82.533,93.974 82.561,94.363 82.616,94.762C82.671,95.16 82.769,95.547 82.91,95.921C83.051,96.295 83.242,96.64 83.483,96.957C83.725,97.274 84.034,97.542 84.412,97.76C84.685,97.917 84.924,98.008 85.129,98.032C85.335,98.056 85.509,98.029 85.653,97.952C85.796,97.874 85.906,97.751 85.983,97.583C86.059,97.415 86.104,97.218 86.119,96.991L87.969,98.059ZM94.695,99.568L94.695,95.818L96.517,96.87L96.517,106.469L94.695,105.417L94.695,101.461L91.468,99.598L91.468,103.554L89.647,102.503L89.647,92.903L91.468,93.955L91.468,97.705L94.695,99.568Z" style="fill:white;"/>
</svg>
