<?xml version="1.0" encoding="UTF-8" standalone="no"?>
<!DOCTYPE svg PUBLIC "-//W3C//DTD SVG 1.1//EN" "http://www.w3.org/Graphics/SVG/1.1/DTD/svg11.dtd">
<svg width="100%" height="100%" viewBox="0 0 700 475" version="1.1" xmlns="http://www.w3.org/2000/svg" xmlns:xlink="http://www.w3.org/1999/xlink" xml:space="preserve" xmlns:serif="http://www.serif.com/" style="fill-rule:evenodd;clip-rule:evenodd;stroke-linecap:round;stroke-linejoin:round;stroke-miterlimit:1;">

    {% if 
        page.url == '/weeknotes/' or 
        page.url == '/social/weeknotes/' 
    %}
        {% assign date = "today" %}
    {% elsif page.url contains '/social/' %}
        {% assign date = post.data.date %}
    {% else %}
        {% assign date = date %}
    {% endif %}

    <path d="M25.981,270L25.981,255L350.74,442.5L350.74,457.5L25.981,270Z" style="fill:rgb(125,125,130);stroke:black;stroke-width:3px;"/>
    <path d="M350.74,457.5L350.74,442.5L675.5,255L675.5,270L350.74,457.5Z" style="fill:rgb(75,75,78);stroke:black;stroke-width:3px;"/>
    <path d="M350.74,67.5L675.5,255L350.74,442.5L25.981,255L350.74,67.5Z" style="fill:rgb(151,151,155);stroke:black;stroke-width:3px;"/>
    <path d="M51.962,255L51.962,195L350.74,367.5C350.74,367.5 649.519,195 649.519,195L644.323,198L649.519,201L644.323,204L649.519,207L644.519,209.887L649.519,213L644.519,215.887L649.519,219L645.051,221.58L649.519,225L645.519,227.309L649.519,231L645.519,233.309L649.519,237L645.519,239.309L649.519,243L645.519,245.332L649.519,249L645.643,251.238L649.519,255L350.74,427.5L51.962,255Z" style="fill:white;stroke:black;stroke-width:3px;"/>
    <path d="M51.962,195L51.962,255L128.183,299.006L128.183,239.006L51.962,195Z" style="fill:rgb(150,3,20);stroke:black;stroke-width:3px;"/>
    <g>
        <path d="M649.519,201L350.74,373.5L51.962,201" style="fill:none;stroke:black;stroke-width:3px;"/>
        <path d="M649.519,207L350.74,379.5L51.962,207" style="fill:none;stroke:black;stroke-width:3px;"/>
        <path d="M649.519,213L350.74,385.5L51.962,213" style="fill:none;stroke:black;stroke-width:3px;"/>
        <path d="M649.519,219L350.74,391.5L51.962,219" style="fill:none;stroke:black;stroke-width:3px;"/>
        <path d="M649.519,225L350.74,397.5L51.962,225" style="fill:none;stroke:black;stroke-width:3px;"/>
        <path d="M649.519,231L350.74,403.5L51.962,231" style="fill:none;stroke:black;stroke-width:3px;"/>
        <path d="M649.519,237L350.74,409.5L51.962,237" style="fill:none;stroke:black;stroke-width:3px;"/>
        <path d="M649.519,243L350.74,415.5L51.962,243" style="fill:none;stroke:black;stroke-width:3px;"/>
        <path d="M649.519,249L350.74,421.5L51.962,249" style="fill:none;stroke:black;stroke-width:3px;"/>
    </g>
    <path d="M350.74,22.5L649.519,195L350.74,367.5L51.962,195L350.74,22.5Z" style="fill:white;stroke:black;stroke-width:3px;"/>
    <path d="M344.874,25.887L639.519,196L346.606,365.113L51.962,195L344.874,25.887Z" style="fill-opacity:0.25;"/>
    <path d="M350.74,22.5C450.813,79.876 550.796,132.902 649.519,185L350.74,357.5C251.17,308.648 151.56,252.218 51.962,195L350.74,22.5Z" style="fill:white;stroke:black;stroke-width:3px;"/>
    <path d="M350.74,22.5L427.889,65.95L128.183,239L51.967,194.997L350.74,22.5Z" style="fill:rgb(200,4,27);stroke:black;stroke-width:3px;"/>
    <path d="M143.176,175.982C146.453,174.09 151.773,174.09 155.05,175.982C158.326,177.874 158.326,180.945 155.05,182.837C151.773,184.729 146.453,184.729 143.176,182.837C139.9,180.945 139.9,177.874 143.176,175.982Z" style="fill:rgb(150,3,20);stroke:black;stroke-width:3px;"/>
    <path d="M105.315,164.196L96.923,169.041L96.923,146.041C96.923,136.569 101.095,130.14 106.102,127.249C111.109,124.358 118.763,123.96 126.966,128.696C141.305,136.975 152.947,157.139 152.947,173.696L153.398,183.421L148.885,184.254L144.575,183.489L144.554,175.541C144.554,161.744 134.853,144.94 122.904,138.041C117.964,135.189 113.408,134.474 109.763,135.59C106.973,138.189 105.315,142.492 105.315,148.196L105.315,164.196Z" style="fill:rgb(135,135,135);stroke:black;stroke-width:3px;"/>
    <path d="M101.253,166.541L96.923,169.041L96.923,146.041C96.923,129.484 108.565,122.763 122.904,131.041C137.243,139.32 148.885,159.484 148.885,176.041L148.885,184.041L144.553,182.572L144.554,175.541C144.554,161.744 134.853,144.94 122.904,138.041C110.954,131.143 101.253,136.744 101.253,150.541L101.253,166.541Z" style="fill:rgb(188,188,188);stroke:black;stroke-width:3px;"/>
    <path d="M318.176,74.946C321.453,73.054 326.773,73.054 330.05,74.946C333.326,76.837 333.326,79.909 330.05,81.801C326.773,83.693 321.453,83.693 318.176,81.801C314.9,79.909 314.9,76.837 318.176,74.946Z" style="fill:rgb(150,3,20);stroke:black;stroke-width:3px;"/>
    <path d="M280.315,63.16L271.923,68.005L271.923,45.005C271.923,35.533 276.095,29.103 281.102,26.213C286.109,23.322 293.763,22.924 301.966,27.66C316.305,35.939 327.947,56.102 327.947,72.66L328.398,82.384L323.885,83.218L319.575,82.452L319.554,74.505C319.554,60.707 309.853,43.904 297.904,37.005C292.964,34.153 288.408,33.437 284.763,34.554C281.973,37.152 280.315,41.456 280.315,47.16L280.315,63.16Z" style="fill:rgb(135,135,135);stroke:black;stroke-width:3px;"/>
    <path d="M276.253,65.505L271.923,68.005L271.923,45.005C271.923,28.448 283.565,21.726 297.904,30.005C312.243,38.284 323.885,58.448 323.885,75.005L323.885,83.005L319.553,81.535L319.554,74.505C319.554,60.707 309.853,43.904 297.904,37.005C285.954,30.106 276.253,35.707 276.253,49.505L276.253,65.505Z" style="fill:rgb(188,188,188);stroke:black;stroke-width:3px;"/>
    <g transform="matrix(0.821436,0,0,1.24089,-1996.18,-126.789)">
        <text x="3055px" y="1330px" style="font-family: 'JP', sans-serif;font-weight:700;font-size:144px;font-variant-numeric: tabular-nums;"  transform="matrix(1.05429,-0.402857,1.21738,0.465179,-2007.51,922.716)">{{ date | date: "%d" | default: '01' }}</text>
        <text x="3070px" y="1280px" style="font-family: 'JP', sans-serif;font-weight:700;font-size:72px;fill:white; text-align: center;" transform="matrix(1.05429,-0.402857,1.21738,0.465179,-2111.09,883.136)">{{ date | date: "%b" | default: 'Jan' | upcase }}</text>
    </g>
    <path d="M365.127,318.168L363.735,317.871C363.067,317.737 362.586,317.665 362.485,317.651C360.724,317.3 359.842,317.12 359.612,317.073C359.388,317.027 358.384,316.821 356.848,316.406L354.549,314.929C352.671,313.748 351.337,312.946 351.054,312.775C349.176,311.644 347.565,310.719 347.258,310.543C347.001,310.395 345.19,309.355 344.119,308.659C343.372,308.16 342.624,307.661 341.876,307.162C340.69,306.369 340.05,305.79 339.911,305.664C339.8,305.564 339.115,304.944 338.834,304.337C338.642,303.921 338.797,303.576 339.213,303.319C339.837,303.34 340.244,303.3 340.33,303.291C340.821,303.243 341.092,303.186 341.155,303.173C342.97,303.238 344.165,303.206 344.424,303.199C344.674,303.192 345.88,303.159 347.502,302.996C347.718,303.089 348.764,303.542 350.061,304.27C351.426,305.037 352.491,305.696 352.697,305.823C353.999,306.628 355.007,307.302 355.203,307.433C356.518,308.313 357.157,308.71 357.332,308.818C357.468,308.906 358.006,309.252 359.078,309.886C359.246,309.984 359.718,310.262 361.212,311.104C361.808,311.44 363.827,312.565 364.054,312.692C364.418,312.325 364.521,311.807 364.537,311.726C364.656,311.128 364.631,310.664 364.626,310.571C364.619,309.913 364.498,309.358 364.475,309.252C364.28,308.364 364.048,307.822 363.995,307.699C363.711,307.037 363.328,306.517 363.254,306.417C363.176,306.31 362.79,305.787 362.182,305.105L360.705,303.491C360.588,303.355 360.002,302.68 359.169,301.813C358.314,300.925 357.769,300.259 357.657,300.122C356.974,299.288 356.573,298.69 356.489,298.564C356.423,298.465 355.994,297.827 355.946,297.302C356.119,297.285 356.938,297.205 358.091,297.044C359.262,296.879 360.031,296.615 360.183,296.562L361.68,296.511L362.989,296.443L364.55,296.375C364.664,296.37 365.256,296.345 365.991,296.377L366.878,296.746L368.051,297.271L369.329,297.871L370.58,298.476C370.799,298.585 371.864,299.119 373.29,299.863L374.757,300.603C375.317,300.866 375.644,300.993 375.724,301.025L376.915,301.46C377.01,301.494 377.496,301.666 378.155,301.832L379.423,302.129C379.533,302.154 380.08,302.279 380.84,302.302L380.98,300.519C380.994,300.39 381.059,299.78 380.471,298.87C380.369,298.713 379.877,297.95 378.865,296.961C378.692,296.793 377.835,295.955 376.51,294.916C376.292,294.745 375.195,293.885 373.712,292.814C372.578,292.016 371.766,291.422 371.599,291.3C370.547,290.532 369.841,289.938 369.696,289.817C368.824,289.084 368.298,288.547 368.187,288.433C368.096,288.34 367.545,287.778 367.251,287.227C369.221,286.692 370.523,286.434 370.817,286.376C372.46,286.051 373.776,285.944 374.043,285.922C375.649,285.791 377.019,285.905 377.281,285.926C377.568,285.95 378.945,286.064 380.842,286.481C381.026,286.682 381.964,287.703 383.357,288.93C384.283,289.746 385.209,290.562 386.134,291.378C388.001,292.996 389.441,294.396 389.716,294.662C389.993,294.932 391.446,296.343 392.702,298.157C392.9,298.442 393.942,299.945 394.475,301.814C394.797,302.944 394.826,304.236 394.422,305.521C393.717,305.781 393.395,305.968 393.317,306.013C392.875,306.27 392.747,306.464 392.717,306.511C392.559,306.752 392.557,306.963 392.556,307.004C390.943,307.331 389.107,307.43 387.221,307.264C386.745,307.222 384.587,307.031 381.269,306.614L380.363,306.486L379.415,306.384L377.248,306.152L375.935,306.007L376.002,306.56L376.077,307.386L376.175,307.883C376.2,308.086 376.33,309.132 376.369,310.405C376.375,310.61 376.407,311.678 376.083,312.941C376.03,313.146 375.757,314.206 374.846,315.393C374.694,315.592 373.93,316.588 372.186,317.594L371.277,317.738L370.495,317.863C369.062,318.093 368.193,318.157 367.987,318.172C366.921,318.251 365.357,318.178 365.127,318.168Z" style="fill:rgb(200,4,27);fill-rule:nonzero;"/>
    <path d="M406.764,296.329C406.064,296.34 405.503,296.201 405.398,296.175C404.735,296.01 403.987,296.155 403.876,296.177C403.73,296.124 403.044,295.876 402.011,295.551L399.818,294.872C398.692,294.528 397.823,294.215 397.653,294.153C397.505,294.1 396.602,293.774 395.915,293.369C395.563,293.141 395.393,292.913 395.362,292.87L394.981,292.338C394.802,292.077 394.565,291.896 394.519,291.861C394.474,291.827 394.235,291.644 393.769,291.548C393.872,291.455 393.913,291.336 393.76,291.23C393.571,291.098 393.834,290.973 393.977,290.913C393.194,290.314 392.71,289.859 392.61,289.765C392.014,289.205 391.596,288.739 391.514,288.648L390.502,287.508C390.415,287.409 389.991,286.925 389.207,286.319C389.003,286.349 387.737,286.531 386.531,286.446C385.322,286.362 384.42,286.211 384.238,286.181C383.144,285.999 382.285,285.802 382.118,285.763C381.942,285.723 381.084,285.525 379.865,285.404C379.802,285.304 379.479,284.793 379.616,284.124C379.639,284.008 379.753,283.455 380.231,282.728C380.314,282.601 380.708,282.003 381.479,281.201C381.611,281.064 382.258,280.391 383.073,279.468C384.357,277.7 385.282,276.624 385.491,276.382C386.831,274.822 387.675,273.984 387.88,273.781C388.08,273.583 389.12,272.551 390.485,271.339C391.678,270.28 393.276,268.768 393.515,268.543C393.632,268.554 393.732,268.54 393.804,268.491L394.069,268.311C394.142,268.314 394.532,268.333 394.858,268.113L394.57,268.044L394.33,267.991L394.603,267.855L394.945,267.721C395.025,267.693 395.097,267.652 395.104,267.592C395.112,267.517 394.903,267.481 394.828,267.468C395.072,267.466 396.338,267.454 397.769,267.157C398.005,267.108 399.184,266.863 400.615,266.426C401.09,266.541 401.22,266.598 401.267,266.619L401.571,266.778C401.669,266.84 401.795,266.891 401.919,266.933C401.971,266.95 402.134,267.005 402.606,267.087C403.267,267.947 403.175,268.634 403.158,268.766C403.14,268.9 403.049,269.581 402.496,270.368C402.401,270.503 401.979,271.104 401.088,271.983C400.948,272.121 400.248,272.812 399.355,273.715C399.214,273.859 398.484,274.598 397.754,275.568C397.638,275.722 397.028,276.532 396.728,277.608C396.256,277.79 396.056,277.957 396.012,277.994C395.971,278.028 395.769,278.197 395.577,278.443L395.133,278.977C395.083,279.033 394.88,279.265 394.29,279.586C394.292,279.648 394.299,279.949 394.013,280.313L393.42,281.053C394.155,281.099 394.579,281.275 394.667,281.311C395.178,281.523 395.601,281.572 395.687,281.582C396.021,281.382 397.611,280.432 399.476,278.872C401.404,277.259 402.951,276.083 403.263,275.845C403.383,275.877 403.545,275.933 403.557,276.018C403.569,276.101 403.699,276.172 403.81,276.221C403.918,276.199 404.47,276.086 405.223,276.05L406.733,275.961C407.49,275.907 408.009,275.803 408.115,275.781C408.219,275.76 408.745,275.654 409.185,275.305C409.862,275.393 410.371,275.561 410.468,275.592C410.567,275.625 411.071,275.79 411.438,276.204C411.243,277.038 411.133,277.722 411.112,277.854C411.091,277.985 410.981,278.67 410.671,279.466C410.619,279.599 410.362,280.261 409.719,281.058C409.61,281.194 409.081,281.85 407.892,282.58L407.546,282.808C407.424,282.888 407.184,282.928 407.009,282.949C406.842,283.325 406.193,283.686 406.099,283.738C406.001,283.792 405.356,284.15 405.147,284.554C405.004,284.602 404.341,284.824 403.585,285.326C402.835,285.825 402.166,286.055 402.023,286.104C402.106,286.268 402.533,287.112 403.25,288.138C403.366,288.305 403.955,289.149 405.003,290.163C405.258,290.041 406.961,289.226 407.996,288.513C409.044,287.791 409.731,287.222 409.872,287.105L411.592,285.693C412.499,284.955 413.816,284.177 414.025,284.054C414.103,283.893 414.47,283.126 415.569,282.203C416.672,281.276 417.253,280.519 417.373,280.364C417.458,280.337 417.92,280.193 418.6,280.244L419.942,280.365C420.601,280.445 421.066,280.445 421.163,280.445C421.252,280.445 421.725,280.445 422.072,280.137C422.139,280.14 422.507,280.156 422.895,280.311L423.625,280.593C423.816,280.665 424.033,280.727 424.251,280.746C424.535,280.771 424.778,280.583 424.809,280.559C424.953,280.762 425.875,282.054 425.917,283.167C425.924,283.342 425.959,284.279 425.315,285.273C425.205,285.444 424.672,286.268 423.466,287.261C423.25,287.439 422.26,288.255 420.831,289.513C420.785,289.554 420.484,289.822 420.066,289.928C419.999,289.945 419.653,290.033 419.326,290.225C419.157,290.376 418.446,291.01 417.123,292.068C416.912,292.237 415.815,293.116 414.193,294.037C412.583,294.952 411.004,295.509 410.699,295.616C409.279,296.117 407.876,296.299 406.764,296.329Z" style="fill:rgb(200,4,27);fill-rule:nonzero;"/>
    <path d="M432.57,281.058C432.46,281.053 431.874,281.027 431.218,280.81C430.562,280.593 429.825,280.69 429.713,280.705L427.875,279.899L425.719,278.978C424.618,278.504 423.761,278.068 423.597,277.984C422.576,277.464 422.017,277.027 421.899,276.935C421.557,276.645 421.394,276.375 421.363,276.324L420.997,275.696C420.826,275.389 420.596,275.159 420.551,275.115C420.269,274.833 419.893,274.697 419.821,274.671C419.94,274.568 419.95,274.442 419.817,274.321C419.658,274.175 419.844,274.066 420.034,274.006C419.25,273.215 418.809,272.681 418.712,272.563C418.138,271.869 417.735,271.297 417.656,271.186L416.683,269.797C416.6,269.68 416.184,269.096 415.421,268.388C413.97,268.42 413,268.243 412.793,268.205C411.601,267.986 410.713,267.752 410.536,267.705C409.457,267.419 408.609,267.156 408.444,267.105C408.273,267.052 407.424,266.788 406.216,266.585C405.83,265.973 405.936,265.468 405.956,265.375C405.977,265.274 406.082,264.775 406.54,264.18C406.619,264.078 407,263.582 407.738,262.983C407.861,262.882 408.429,262.42 409.259,261.721C410.4,260.52 411.322,259.794 411.523,259.636C412.596,258.79 413.563,258.184 413.753,258.065C413.942,257.947 414.913,257.338 416.201,256.647C416.434,256.522 417.355,256.027 419.046,255.051C419.134,255.067 419.249,255.079 419.327,255.051L419.578,254.961C420.033,255.038 420.294,254.943 420.343,254.925L420.057,254.84L419.82,254.772L420.081,254.712L420.41,254.661C420.473,254.653 420.556,254.636 420.56,254.59C420.565,254.529 420.304,254.473 420.284,254.468C421.769,254.649 422.933,254.601 423.158,254.592C423.384,254.582 424.554,254.534 425.93,254.346C425.983,254.36 426.406,254.473 426.581,254.545L426.887,254.687C426.989,254.742 427.118,254.791 427.237,254.83C427.289,254.847 427.456,254.902 427.922,254.999C428.61,255.68 428.551,256.157 428.538,256.257C428.527,256.349 428.466,256.832 427.957,257.336C427.87,257.422 427.445,257.841 426.646,258.318C426.515,258.396 425.818,258.812 425.028,259.305C424.204,259.819 423.647,260.316 423.542,260.411C423.433,260.508 422.87,261.01 422.62,261.778C422.162,261.851 421.977,261.949 421.932,261.972C421.895,261.992 421.701,262.094 421.523,262.256L421.107,262.609C421.059,262.647 420.868,262.8 420.303,262.967C420.306,263.014 420.323,263.261 420.053,263.516L419.492,264.048C420.174,264.177 420.631,264.413 420.716,264.457C421.222,264.719 421.63,264.824 421.717,264.846C422.033,264.726 423.527,264.158 425.354,263.125C425.633,262.967 427.066,262.156 428.967,261.232C429.05,261.256 429.247,261.315 429.264,261.389C429.28,261.459 429.44,261.531 429.521,261.565C429.63,261.559 430.162,261.528 430.907,261.569L432.394,261.629C433.135,261.649 433.646,261.607 433.752,261.598C434.369,261.547 434.728,261.347 434.794,261.311C435.474,261.421 435.977,261.575 436.076,261.605C436.169,261.634 436.684,261.791 437.06,262.129C437.033,262.231 436.894,262.767 436.789,263.417C436.772,263.524 436.684,264.069 436.396,264.716C436.348,264.826 436.109,265.364 435.49,266.011C435.383,266.122 434.868,266.66 433.711,267.215L433.373,267.392C433.25,267.457 433.004,267.469 432.846,267.472C432.685,267.803 432.049,268.077 431.958,268.116C431.862,268.158 431.23,268.43 431.027,268.795C430.888,268.826 430.227,268.973 429.495,269.379C428.749,269.792 428.1,269.942 427.961,269.974C428.514,271.182 429.044,272.054 429.153,272.233C429.266,272.419 429.847,273.374 430.866,274.518C431.119,274.415 432.791,273.731 433.827,273.079C434.862,272.427 435.545,271.898 435.684,271.79L437.388,270.482C437.556,270.354 438.26,269.818 439.793,269.028C439.867,268.882 440.224,268.177 441.305,267.38C442.385,266.585 442.951,265.936 443.069,265.801C443.157,265.779 443.609,265.666 444.29,265.721L445.632,265.842C446.295,265.908 446.759,265.904 446.856,265.904C446.942,265.903 447.418,265.9 447.761,265.624C448.198,265.638 448.527,265.751 448.588,265.772L449.323,266.017C449.519,266.081 449.737,266.134 449.952,266.15C450.237,266.17 450.477,266 450.508,265.977C450.658,266.161 451.597,267.305 451.649,268.372C451.658,268.542 451.7,269.419 451.058,270.411C450.947,270.582 450.414,271.405 449.208,272.399C448.992,272.577 448.003,273.393 446.573,274.651C446.527,274.692 446.226,274.96 445.808,275.066C445.742,275.083 445.39,275.172 445.069,275.357C444.901,275.505 444.181,276.14 442.872,277.167C442.662,277.331 441.562,278.194 439.952,279.069C438.341,279.945 436.78,280.439 436.476,280.535C435.057,280.984 433.667,281.094 432.57,281.058Z" style="fill:rgb(200,4,27);fill-rule:nonzero;"/>
    <path d="M449.787,263.63L449.561,263.466C449.481,263.408 449.248,263.423 449.184,263.426C449.007,263.377 448.788,263.288 448.874,263.168L449.079,262.88C448.702,262.681 446.374,261.454 444.649,260.22C442.793,258.892 441.599,257.986 441.34,257.789C441.097,257.605 439.841,256.653 438.216,255.527C437.943,255.338 436.643,254.438 434.377,253.391C434.356,253.321 434.252,252.975 433.707,252.568L432.591,251.751C432.019,251.341 431.701,250.98 431.639,250.909C431.578,250.839 431.259,250.475 431.503,249.982C431.906,249.843 432.253,249.763 432.321,249.748L433.159,249.571C433.227,249.557 433.581,249.489 433.992,249.374C434.404,249.259 434.702,249.122 434.758,249.096C434.825,249.095 435.161,249.092 435.596,249.125C435.667,249.13 436.034,249.158 436.474,249.134L437.036,248.76C437.212,248.744 438.094,248.664 439.29,248.693C440.504,248.722 441.333,248.851 441.509,248.878C441.646,248.9 442.526,249.036 443.134,249.359C443.744,249.683 443.505,250.102 443.472,250.16C443.58,250.181 443.811,250.228 443.911,250.286L444.081,250.412C444.125,250.456 444.188,250.489 444.267,250.512C444.387,250.546 444.653,250.531 444.742,250.526C444.743,250.582 444.747,250.867 445.05,251.237C445.1,251.298 445.353,251.606 445.848,251.946C445.927,252.001 446.342,252.285 446.934,252.582C447.53,252.881 448.019,253.065 448.119,253.103C448.065,252.926 447.807,252.068 448.082,250.912C448.359,249.751 448.381,248.999 448.386,248.83C448.517,248.13 448.506,247.665 448.504,247.563C448.502,247.472 448.49,246.995 448.596,246.44C448.613,246.347 448.701,245.884 448.916,245.3C448.952,245.203 449.132,244.715 449.246,244.077C449.273,244.04 449.451,243.796 449.769,243.694L450.435,243.515C450.262,243.449 450.065,243.422 449.898,243.475C449.718,243.532 449.496,243.488 449.312,243.422C449.748,242.964 449.912,242.626 449.948,242.552C449.981,242.482 450.146,242.143 450.456,241.702L452.415,241.516C452.575,241.502 453.435,241.431 454.166,241.022C455.049,241.041 455.593,240.935 455.708,240.913L457.008,240.648C457.648,240.511 458.197,240.477 458.305,240.471C458.968,240.431 459.764,240.619 459.886,240.648L460.358,241.129C460.403,241.179 460.599,241.397 461.124,241.693C461.23,242.603 461.078,243.3 461.048,243.436C461.019,243.57 460.867,244.27 460.575,245.092C460.527,245.226 460.281,245.917 460,246.763C459.954,246.902 459.718,247.611 459.661,248.539C459.693,248.584 459.859,248.811 459.839,249.122L459.757,249.745C459.693,250.057 459.694,250.307 459.694,250.356C459.694,250.402 459.695,250.654 459.981,250.927L459.726,251.088L459.519,251.264C459.555,251.298 459.748,251.482 459.691,251.728C459.635,251.973 459.862,252.142 459.903,252.173C460.544,252.24 462.61,252.443 464.631,252.173C464.973,252.127 466.773,251.886 468.63,251.239C468.944,251.129 470.516,250.581 472.239,249.623C472.528,249.462 473.992,248.647 475.784,247.572C475.864,247.498 475.872,247.413 475.7,247.361C475.492,247.299 475.652,247.207 475.753,247.163C476.602,246.89 477.203,246.798 477.338,246.777C478.082,246.663 478.705,246.605 478.826,246.594L480.325,246.48C480.456,246.473 481.075,246.436 481.952,246.342C483.657,247.108 484.315,247.95 484.508,248.575C484.895,249.827 484.202,250.975 484.06,251.212C483.749,251.411 481.846,252.62 479.862,253.521C479.541,253.666 477.907,254.407 475.406,255.002C475.263,255.042 475.053,255.022 474.899,255C474.753,254.979 474.537,254.951 474.384,254.954C473.825,255.03 473.527,255.239 473.473,255.277C473.121,255.523 472.771,255.6 472.697,255.617C472.146,255.734 470.823,255.881 470.657,255.899C469.174,256.064 468.135,256.17 467.915,256.192C466.261,256.306 464.952,256.383 464.694,256.398C463.141,256.488 461.82,256.429 461.568,256.417C461.35,256.397 461.14,256.42 460.989,256.5C460.953,256.519 460.771,256.616 460.427,256.662C460.2,257.452 460.328,258.248 460.716,258.974C460.818,259.164 461.329,260.119 462.058,261.341C462.173,261.533 462.776,262.545 463.2,263.775C463.436,264.461 463.435,265.319 462.9,266.218C462.46,266.461 462.06,266.534 461.976,266.549C461.898,266.564 461.492,266.638 460.952,266.655L459.898,266.7C459.815,266.705 459.382,266.729 458.929,266.876C458.826,266.821 458.272,266.528 457.458,266.34C456.656,266.154 456.055,266.039 455.932,266.016C455.218,265.879 454.742,265.725 454.643,265.693C454.556,265.664 454.071,265.506 453.914,265.101C453.051,265.121 452.489,265.178 452.368,265.19C452.362,265.153 452.314,264.88 452.009,264.751C451.958,264.729 451.705,264.623 451.3,264.547C450.897,264.471 450.587,264.372 450.528,264.353C450.16,264.236 450.001,263.99 449.977,263.953C450.034,263.9 450.047,263.834 449.926,263.792C449.813,263.753 449.772,263.697 449.787,263.63Z" style="fill:rgb(200,4,27);fill-rule:nonzero;"/>
    <path d="M492.278,243.994C492.256,244.419 492.693,244.699 492.77,244.748C493.283,245.076 493.661,245.369 493.734,245.425C494.183,245.771 494.268,246.092 494.284,246.153C494.386,246.534 493.664,246.926 493.572,246.976C493.589,247.022 493.646,247.19 493.797,247.151C493.957,247.11 494.299,247.218 494.405,247.25C494.332,247.283 493.746,247.545 493.695,247.784C493.685,247.828 493.643,248.023 493.375,248.288C493.182,248.349 492.127,248.68 490.613,248.637C490.373,248.631 489.122,248.595 487.597,248.394C486.09,248.195 484.877,247.965 484.643,247.92C483.229,247.652 482.233,247.549 482.022,247.527C481.901,247.477 481.895,247.418 481.995,247.372L482.281,247.223C482.169,247.21 481.604,247.145 480.9,246.959C480.202,246.776 479.639,246.791 479.532,246.794C477.777,244.95 476.089,243.2 475.788,242.888C475.48,242.568 473.986,241.019 471.836,238.918C470.303,237.419 468.074,235.299 467.744,234.985C466.341,233.651 463.927,231.392 463.628,231.111C465.291,230.401 466.74,229.896 467.02,229.798C468.79,229.181 470.259,228.851 470.556,228.784C472.351,228.38 473.824,228.296 474.122,228.279C475.905,228.176 477.295,228.463 477.564,228.519C477.67,228.599 477.717,228.693 477.553,228.736C477.424,228.77 477.368,228.835 477.444,228.92C477.518,228.912 477.933,228.867 478.082,228.894C478.175,228.911 478.25,228.943 478.304,228.992C478.369,229.05 478.48,229.096 478.578,229.13C478.771,229.196 479.26,229.167 479.317,229.164C479.227,229.211 479.065,229.302 479.102,229.398C479.14,229.497 478.932,229.579 478.838,229.615C478.937,229.625 479.72,229.699 480.028,229.895C480.333,230.09 480.459,230.282 480.483,230.318C480.507,230.354 480.634,230.546 480.894,230.747C481.153,230.947 481.859,231.044 481.948,231.056C481.895,231.094 481.785,231.177 481.795,231.242L481.862,231.375L481.929,231.508C481.939,231.576 481.786,231.649 481.727,231.676C483.105,232.038 484.148,232.464 484.346,232.545L486.868,233.595C487.081,233.686 488.114,234.124 489.584,234.683C489.829,234.777 490.989,235.218 492.785,235.685C493.207,234.406 492.945,233.285 492.502,232.465C491.959,231.463 491.078,230.435 489.947,229.516C489.662,229.284 488.208,228.102 485.879,226.827C484.07,225.836 481.482,224.446 481.098,224.24C481.021,223.702 480.595,223.29 480.517,223.214C480.437,223.136 480.012,222.724 479.379,222.279L478.078,221.425C477.413,221.004 477.12,220.622 477.062,220.546C477.897,220.033 478.666,219.833 478.829,219.791C479.757,219.549 480.563,219.415 480.719,219.389C480.873,219.363 481.679,219.229 482.611,219.023C482.774,218.986 483.536,218.817 484.423,218.349C485.954,218.27 487.118,218.247 487.354,218.242C488.75,218.215 489.81,218.463 490.015,218.511C490.054,218.567 490.253,218.856 490.709,219.163L491.599,219.8C492.008,220.113 492.224,220.473 492.261,220.535C492.302,220.602 492.493,220.92 492.377,221.388C493.679,222.093 494.516,222.702 494.685,222.825C494.841,222.938 495.667,223.539 496.669,224.233C496.834,224.347 497.631,224.899 498.78,225.63C499.872,226.326 501.233,226.956 501.461,227.062C501.629,227.214 502.474,227.977 503.47,228.992C504.467,230.007 505.313,230.644 505.494,230.78C505.435,231.624 505.937,232.32 506.03,232.449C506.126,232.582 506.623,233.272 507.177,234.129C507.174,234.173 507.172,234.354 507.006,234.313C506.83,234.268 506.537,234.415 506.478,234.443C506.527,234.464 506.943,234.647 506.879,234.821C506.816,234.992 507.514,235.165 507.582,235.182C507.274,235.798 507.349,236.343 507.363,236.447C507.377,236.552 507.452,237.096 507.346,237.753C507.328,237.861 507.24,238.409 506.58,238.993C505.931,239.566 504.258,240.012 504.025,240.074C503.438,240.121 500.39,240.366 496.54,240.29C494.51,240.25 491.819,240.046 488.729,239.517C488.467,239.839 488.702,240.121 488.744,240.171C488.789,240.226 489.019,240.503 489.385,240.833L490.018,241.454C490.287,241.745 490.006,241.922 489.962,241.95C490.017,241.987 490.311,242.189 490.448,242.489L490.739,243.075C490.764,243.121 490.895,243.361 491.224,243.619C491.551,243.876 492.186,243.979 492.278,243.994Z" style="fill:rgb(200,4,27);fill-rule:nonzero;"/>
    <path d="M527.497,228.309C527.183,228.559 525.988,229.497 524.101,230.052C522.189,230.615 520.405,230.692 520.062,230.707C519.725,230.721 517.935,230.798 515.754,230.488C515.407,230.439 513.572,230.178 511.504,229.586C507.916,227.935 506.262,226.535 505.9,226.228C505.298,225.718 503.763,224.371 502.714,222.67C502.533,222.376 501.58,220.829 501.043,218.941C500.656,217.579 500.05,215.859 499.956,215.592C500.005,215.579 500.382,215.482 500.419,215.316C500.444,215.201 500.42,215.086 500.356,214.969L500.196,214.588C500.187,214.557 500.137,214.388 500.281,214.211C500.008,213.949 499.984,213.732 499.979,213.69C499.974,213.648 499.95,213.431 499.985,213.163C500.019,212.894 499.994,212.686 499.989,212.644C499.984,212.602 499.959,212.393 499.723,212.128C500.026,211.873 500.072,211.671 500.082,211.626C500.139,211.379 500.112,211.18 500.107,211.14C500.075,210.901 500.105,210.709 500.111,210.672C500.118,210.63 500.147,210.442 500.398,210.187L499.767,209.977C499.814,209.903 500.154,209.365 499.967,208.979C499.93,208.902 499.774,208.581 499.408,208.029L500.05,207.676C500.113,207.646 500.298,207.556 500.762,207.258C500.704,207.206 500.287,206.831 500.213,206.567C500.197,206.512 500.138,206.301 500.24,205.882C501.221,205.729 501.835,205.502 501.96,205.456C502.704,205.182 503.761,205.165 503.929,205.163C504.553,205.331 505.009,205.333 505.102,205.334L506.193,205.312L507.297,205.275C507.39,205.273 507.862,205.262 508.472,205.415C508.514,205.398 508.668,205.339 508.628,205.281C508.586,205.219 508.804,205.171 508.832,205.164L509.615,205.339L510.224,205.434L510.853,205.521L511.607,205.668C511.673,205.718 511.992,205.956 512.489,206.261C512.548,206.298 512.985,206.567 512.759,206.845C512.959,206.922 513.203,206.973 513.402,206.908C513.592,206.846 513.827,206.874 514.036,206.937C514.093,206.955 514.509,207.087 514.642,207.261C518.177,207.71 520.843,208.17 521.379,208.262C524.798,208.851 527.611,209.18 528.155,209.243C528.253,209.295 528.752,209.558 529.533,209.764C529.661,209.798 530.323,209.972 531.158,210.134L532.816,210.471C533.639,210.646 534.219,210.842 534.336,210.882C534.485,210.935 535.237,211.206 536.078,211.667C536.93,212.134 537.446,212.576 537.547,212.662C538.165,213.191 538.448,213.67 538.503,213.762C538.841,214.332 538.725,214.722 538.702,214.802C538.752,214.936 539.012,215.623 538.644,216.461C538.585,216.595 538.276,217.298 538.275,218.195C538.245,218.281 538.087,218.731 537.612,219.194L536.641,220.161C536.614,220.255 536.494,220.678 536.124,221.298C536.064,221.398 535.754,221.918 535.273,222.52C534.793,223.122 534.292,223.57 534.195,223.657C534.111,223.732 533.597,224.191 532.902,224.484C532.068,225.67 531.129,226.437 530.939,226.592C529.81,227.514 527.812,228.201 527.497,228.309ZM510.955,218.16C511.624,218.99 511.904,219.688 511.959,219.824C512.011,219.954 512.284,220.637 512.654,221.452C512.713,221.584 513.023,222.267 513.65,223.069C513.76,223.21 514.277,223.871 515.596,224.679C516.563,224.677 517.574,224.514 518.462,224.134C518.668,224.046 519.728,223.592 520.774,222.853C520.942,222.734 521.82,222.114 522.748,221.308C523.677,220.501 524.431,220.065 524.599,219.968C524.554,219.942 524.177,219.725 524.498,219.54C525.452,218.851 526.176,217.995 526.515,217.158C526.597,216.953 527.031,215.88 527.63,214.612C527.26,214.227 527.168,213.921 527.149,213.86C527.038,213.491 526.365,213.14 526.27,213.09C525.644,212.986 525.373,212.903 525.299,212.881C525.22,212.857 524.96,212.778 524.382,212.511C523.937,212.463 521.677,212.22 518.864,211.648C518.423,211.559 516.164,211.099 513.29,210.724C513.414,210.832 513.452,210.959 513.454,211.076C513.457,211.29 512.907,211.266 512.848,211.263C512.89,211.294 513.208,211.531 513.139,211.716C513.127,211.747 513.07,211.901 512.775,212.037C512.724,212.061 512.479,212.174 512.042,212.244C511.972,212.255 511.603,212.315 511.13,212.313C511.122,212.521 511.085,213.581 510.947,214.909C510.924,215.135 510.81,216.233 511.334,217.786C511.313,217.856 511.315,217.98 511.188,217.974C511.046,217.968 511.01,218.089 510.955,218.16Z" style="fill:rgb(200,4,27);fill-rule:nonzero;"/>
    <path d="M520.062,205.038C519.638,204.92 519.292,204.862 519.223,204.851L518.306,204.696C518.177,204.675 517.533,204.575 516.695,204.403C516.55,204.373 515.869,204.233 514.94,203.917C514.894,203.895 514.532,203.722 514.431,203.604C514.373,203.537 514.322,203.463 514.3,203.391L513.581,203.039L514.164,202.817L514.853,202.587L515.494,202.338C515.734,202.245 516.979,201.76 518.383,201.086C518.616,200.974 519.835,200.39 521.243,199.651C521.511,199.498 522.619,198.869 524.684,197.806L524.254,197.499L524.049,197.341L524.188,197.06C524.294,197.006 525.052,196.624 525.718,196.543C526.397,196.46 526.787,196.448 526.882,196.445C527.034,196.36 527.815,195.921 528.707,195.342L530.561,194.107C530.783,193.959 531.938,193.189 533.297,192.238C533.523,192.081 534.7,191.257 536.257,190.341C536.95,189.933 537.483,189.647 537.593,189.588C538.251,189.235 538.801,188.969 538.909,188.917L539.835,188.735C539.92,188.733 540.341,188.725 540.876,188.652C540.97,188.639 541.416,188.578 542.031,188.454C542.237,188.415 543.234,188.228 544.695,188.091C545.442,188.021 546.5,188.073 547.718,188.519L548.006,188.781C548.032,188.901 548.019,189.029 547.993,189.144L548.225,189.572L547.78,189.849C547.376,190.1 547.28,190.207 547.248,190.243L546.984,190.601L546.793,190.87L546.521,191.186L545.788,191.584L545.224,191.92C545.021,192.041 544.036,192.627 542.811,193.496C541.563,194.382 540.713,195.009 540.533,195.142C540.41,195.228 539.742,195.695 538.969,196.21L537.598,197.111C538.442,197.658 539.011,198.048 539.132,198.131C539.238,198.204 539.793,198.585 540.408,199.065C540.509,199.144 541.02,199.543 541.706,200.029C541.828,200.115 542.369,200.498 543.322,201.057C543.72,201.596 544.119,201.961 544.202,202.036C544.679,202.473 545.385,202.88 545.501,202.946C545.726,203.55 546.324,203.972 546.434,204.049L547.615,204.917L548.178,205.285C548.185,205.316 548.237,205.565 548.369,205.673C548.474,205.759 548.54,205.867 548.583,205.963C549.088,206.28 549.404,206.57 549.465,206.626L549.809,206.922C549.898,206.996 550.024,207.083 550.176,207.116C550.623,207.383 550.725,207.551 550.752,207.594C551.039,207.719 551.246,207.842 551.286,207.866L551.779,208.163L552.257,208.494C552.41,208.59 552.592,208.657 552.797,208.7L553.418,208.747C553.472,208.751 553.729,208.77 554.094,208.859C554.216,208.86 554.33,208.845 554.436,208.818C554.542,208.791 554.656,208.776 554.778,208.777C554.861,208.774 555.43,208.759 555.757,208.63L556.727,208.681C556.939,208.754 558.666,209.319 558.95,210.198C559.343,211.18 557.794,211.979 557.645,212.061L557.038,212.345C556.979,212.344 556.427,212.33 556.293,212.304L555.387,212.475C555.322,212.488 555.03,212.546 554.498,212.487C554.379,212.484 554.274,212.502 554.181,212.536C554.087,212.571 553.982,212.588 553.863,212.585C553.322,212.731 552.976,212.759 552.893,212.765L552.171,212.86L551.547,212.505C551.414,212.491 550.711,212.417 549.911,212.208C549.782,212.175 549.121,212.002 548.331,211.743L547.161,211.403C546.636,211.252 546.188,211.208 546.102,211.2C545.661,211.002 542.624,209.644 541.005,208.438C539.262,207.14 538.106,206.214 537.862,206.018C537.739,205.917 537.099,205.387 536.245,204.783C536.107,204.685 535.393,204.179 534.406,203.618L534.306,203.232C534.304,203.201 534.289,203.007 534.321,202.95C533.69,202.741 533.347,202.499 533.279,202.45L532.472,201.849L531.988,201.466C531.737,201.28 531.529,201.191 531.483,201.171L531.015,201.409L530.636,201.642C530.27,201.925 529.874,202.107 529.799,202.141C529.447,202.303 529.289,202.346 529.239,202.359C529.119,202.564 528.91,202.675 528.869,202.697L528.344,202.953L527.873,203.164L527.402,203.374C527.346,203.399 526.931,203.584 526.803,203.753L526.097,204.064L525.745,204.219L525.275,204.424L524.805,204.628C524.746,204.654 524.49,204.765 524.027,204.908C523.941,204.935 523.561,205.053 522.842,205.135L522.181,205.116C522.1,205.107 521.414,205.03 521.17,205.095L520.595,205.224L520.062,205.038Z" style="fill:rgb(200,4,27);fill-rule:nonzero;"/>
    <path d="M571.629,201.47C570.929,201.482 570.367,201.35 570.262,201.326C569.599,201.17 568.852,201.304 568.74,201.324C568.593,201.274 567.909,201.04 566.87,200.73L564.672,200.082C563.549,199.756 562.673,199.457 562.502,199.398C562.354,199.348 561.45,199.039 560.757,198.659C560.403,198.446 560.231,198.237 560.198,198.197L559.811,197.708C559.629,197.469 559.389,197.302 559.343,197.27C559.296,197.238 559.056,197.071 558.589,196.979C558.692,196.894 558.728,196.786 558.576,196.691C558.383,196.569 558.653,196.457 558.788,196.407C557.995,195.858 557.507,195.448 557.404,195.362C556.8,194.855 556.375,194.438 556.292,194.356L555.261,193.338C555.171,193.248 554.739,192.818 553.945,192.282C552.488,192.46 551.493,192.391 551.275,192.376C550.07,192.291 549.162,192.151 548.979,192.123C547.888,191.954 547.023,191.773 546.854,191.738C546.677,191.7 545.822,191.522 544.598,191.401C544.534,191.317 544.199,190.873 544.32,190.306C544.341,190.207 544.442,189.739 544.902,189.124C544.984,189.016 545.361,188.513 546.115,187.829C546.244,187.712 546.88,187.136 547.671,186.346C548.925,184.815 549.824,183.877 550.025,183.667C551.179,182.464 552.176,181.529 552.372,181.346C552.576,181.155 553.564,180.23 554.968,178.966C555.226,178.733 556.398,177.679 558.026,175.984C558.149,175.993 558.247,175.973 558.316,175.92L558.585,175.715C559.05,175.73 559.338,175.511 559.381,175.478L559.093,175.408L558.853,175.353L559.13,175.195L559.475,175.036C559.561,175.001 559.63,174.952 559.637,174.886C559.646,174.806 559.462,174.768 559.363,174.751C559.613,174.743 560.883,174.701 562.323,174.318C562.565,174.254 563.768,173.933 565.202,173.373C565.256,173.387 565.679,173.491 565.853,173.575L566.154,173.747C566.25,173.814 566.374,173.869 566.501,173.913C566.552,173.93 566.717,173.988 567.189,174.06C567.836,175.014 567.737,175.748 567.718,175.891C567.698,176.032 567.599,176.767 567.041,177.589C566.947,177.727 566.482,178.412 565.629,179.231C565.055,179.785 564.481,180.339 563.907,180.894C563.768,181.028 563.041,181.734 562.323,182.631C561.607,183.524 561.371,184.336 561.325,184.492C560.853,184.669 560.657,184.822 560.612,184.857C560.572,184.888 560.371,185.045 560.183,185.268L559.746,185.754C559.696,185.806 559.497,186.017 558.911,186.313C558.914,186.368 558.926,186.634 558.646,186.961L558.064,187.626C558.165,187.63 558.803,187.656 559.319,187.836C559.835,188.016 560.261,188.052 560.346,188.059C560.678,187.876 562.266,186.998 564.105,185.543C566.028,184.023 567.565,182.879 567.872,182.65C567.979,182.671 568.157,182.714 568.17,182.795C568.184,182.872 568.322,182.931 568.428,182.968C568.536,182.943 569.091,182.814 569.849,182.743L571.37,182.581C572.132,182.49 572.656,182.362 572.762,182.336C572.866,182.311 573.396,182.182 573.837,181.828C574.524,181.868 575.035,181.991 575.136,182.015C575.231,182.038 575.747,182.162 576.121,182.527C575.931,183.325 575.827,183.972 575.807,184.098C575.787,184.223 575.683,184.872 575.378,185.632C575.327,185.761 575.073,186.394 574.436,187.164C574.326,187.297 573.798,187.934 572.613,188.651L572.268,188.873C572.146,188.953 571.902,188.997 571.731,189.022C571.566,189.376 570.918,189.727 570.825,189.777C570.73,189.829 570.084,190.179 569.88,190.553C569.739,190.6 569.075,190.821 568.323,191.296C567.578,191.766 566.908,191.986 566.767,192.032C566.853,192.182 567.29,192.941 568.023,193.876C568.142,194.028 568.742,194.793 569.804,195.721C570.058,195.605 571.734,194.843 572.786,194.145C573.825,193.456 574.513,192.903 574.653,192.79L576.367,191.416C577.253,190.708 578.594,189.9 578.801,189.775C578.879,189.616 579.239,188.885 580.341,187.945C581.443,187.005 582.029,186.237 582.149,186.08C582.701,185.879 583.282,185.878 583.388,185.878L584.747,185.894C585.42,185.911 585.888,185.872 585.985,185.864C586.078,185.856 586.555,185.816 586.904,185.488C587.345,185.472 587.676,185.574 587.738,185.593L588.477,185.815C588.678,185.873 588.896,185.916 589.11,185.92C589.398,185.926 589.642,185.725 589.674,185.7C589.822,185.892 590.754,187.095 590.799,188.195C590.807,188.369 590.845,189.287 590.199,190.293C590.087,190.467 589.554,191.299 588.342,192.328C588.126,192.512 587.159,193.333 585.697,194.648C585.65,194.69 585.349,194.963 584.928,195.088C584.861,195.108 584.507,195.212 584.184,195.408C584.016,195.559 583.282,196.218 581.981,197.257C581.77,197.425 580.669,198.304 579.052,199.214C577.442,200.121 575.867,200.666 575.562,200.771C574.167,201.253 572.772,201.439 571.629,201.47Z" style="fill:rgb(200,4,27);fill-rule:nonzero;"/>
</svg>
