<?xml version="1.0" encoding="UTF-8" standalone="no"?>
<!DOCTYPE svg PUBLIC "-//W3C//DTD SVG 1.1//EN" "http://www.w3.org/Graphics/SVG/1.1/DTD/svg11.dtd">
<svg width="100%" height="100%" viewBox="0 0 700 475" version="1.1" xmlns="http://www.w3.org/2000/svg" xmlns:xlink="http://www.w3.org/1999/xlink" xml:space="preserve" xmlns:serif="http://www.serif.com/" style="fill-rule:evenodd;clip-rule:evenodd;stroke-linecap:round;stroke-linejoin:round;stroke-miterlimit:1;">
    <g transform="matrix(1,0,0,1,-2752.66,-1070.05)">
        <g id="Layer1">
        </g>
        <g id="Post-it-note" serif:id="Post it note" transform="matrix(0.821182,0,0,0.842199,757.093,1065.84)">
            <rect x="2430.11" y="5" width="852.169" height="564" style="fill:none;"/>
            <g transform="matrix(1.88323,-1.06015,2.17456,1.22416,-3750.07,-2452.1)">
                <path d="M339.201,2562.83l8.4,-7.274l-0,181.865l-8.4,7.275l-0,-181.866Z" style="fill:rgb(125,125,130);stroke:black;stroke-width:1.27px;"/>
            </g>
            <g transform="matrix(1.88323,-1.06015,2.17456,1.22416,-3750.07,-2452.1)">
                <path d="M339.201,2744.69l8.4,-7.275l210,-0l-8.4,7.275l-210,-0Z" style="fill:rgb(75,75,78);stroke:black;stroke-width:1.27px;"/>
            </g>
            <g transform="matrix(1.88323,-1.06015,2.17456,1.22416,-3750.07,-2469.92)">
                <rect x="339.201" y="2562.83" width="210" height="181.865" style="fill:rgb(151,151,155);stroke:black;stroke-width:1.27px;"/>
            </g>
            <g transform="matrix(1.73257,-0.975338,2.0006,1.12622,-3221.49,-2247.7)">
                <path d="M339.201,2562.83l36.522,-31.629l-0,181.866c-0,-0 210,-0 210,-0l-3.653,-0l0,3.163l-3.652,-0l0,3.163l-3.514,-0l-0.138,3.162l-3.514,0l-0.138,3.163l-3.141,0l-0.511,3.163l-2.812,0l-0.84,3.163l-2.812,0l-0.841,3.163l-2.811,-0l-0.841,3.163l-2.825,0.012l-0.827,3.151l-2.724,-0l-0.928,3.163l-210,-0l-0,-181.866Z" style="fill:white;stroke:black;stroke-width:1.38px;"/>
            </g>
            <g transform="matrix(-0.441995,-0.248818,0,0.39173,2736.13,-630.748)">
                <rect x="339.201" y="2562.83" width="210" height="181.865" style="fill:rgb(150,3,20);stroke:black;stroke-width:11.09px;"/>
            </g>
            <g transform="matrix(1.00031,0,0,1.47368,-0.742788,-144.853)">
                <g transform="matrix(1.73204,-0.661837,1.99999,0.764223,-3219.76,-1470.44)">
                    <path d="M549.201,2744.69l-210,-0l-0,-181.866" style="fill:none;stroke:black;stroke-width:1.38px;"/>
                </g>
                <g transform="matrix(1.73204,-0.661837,1.99999,0.764223,-3219.76,-1465.61)">
                    <path d="M549.201,2744.69l-210,-0l-0,-181.866" style="fill:none;stroke:black;stroke-width:1.38px;"/>
                </g>
                <g transform="matrix(1.73204,-0.661837,1.99999,0.764223,-3219.76,-1460.77)">
                    <path d="M549.201,2744.69l-210,-0l-0,-181.866" style="fill:none;stroke:black;stroke-width:1.38px;"/>
                </g>
                <g transform="matrix(1.73204,-0.661837,1.99999,0.764223,-3219.76,-1455.94)">
                    <path d="M549.201,2744.69l-210,-0l-0,-181.866" style="fill:none;stroke:black;stroke-width:1.38px;"/>
                </g>
                <g transform="matrix(1.73204,-0.661837,1.99999,0.764223,-3219.76,-1451.1)">
                    <path d="M549.201,2744.69l-210,-0l-0,-181.866" style="fill:none;stroke:black;stroke-width:1.38px;"/>
                </g>
                <g transform="matrix(1.73204,-0.661837,1.99999,0.764223,-3219.76,-1446.27)">
                    <path d="M549.201,2744.69l-210,-0l-0,-181.866" style="fill:none;stroke:black;stroke-width:1.38px;"/>
                </g>
                <g transform="matrix(1.73204,-0.661837,1.99999,0.764223,-3219.76,-1441.43)">
                    <path d="M549.201,2744.69l-210,-0l-0,-181.866" style="fill:none;stroke:black;stroke-width:1.38px;"/>
                </g>
                <g transform="matrix(1.73204,-0.661837,1.99999,0.764223,-3219.76,-1436.6)">
                    <path d="M549.201,2744.69l-210,-0l-0,-181.866" style="fill:none;stroke:black;stroke-width:1.38px;"/>
                </g>
                <g transform="matrix(1.73204,-0.661837,1.99999,0.764223,-3219.76,-1431.77)">
                    <path d="M549.201,2744.69l-210,-0l-0,-181.866" style="fill:none;stroke:black;stroke-width:1.38px;"/>
                </g>
            </g>
            <g transform="matrix(1.73257,-0.975338,2.0006,1.12622,-3221.49,-2318.94)">
                <rect x="339.201" y="2562.83" width="210" height="181.865" style="fill:white;stroke:black;stroke-width:1.38px;"/>
            </g>
            <g transform="matrix(1.69855,-0.956189,1.97292,1.11064,-3139.01,-2285.5)">
                <rect x="339.201" y="2562.83" width="210" height="181.865" style="fill-opacity:0.25;"/>
            </g>
            <g transform="matrix(1.73257,-0.975338,2.0006,1.12622,-3221.49,-2318.94)">
                <path d="M549.201,2562.83c0.244,60.703 3.104,119.084 6.087,176.594l-210,0c-5.256,-56.056 -5.913,-116.119 -6.087,-176.594l210,0Z" style="fill:white;stroke:black;stroke-width:1.38px;"/>
            </g>
            <g transform="matrix(1.73254,-0.97532,0.510335,0.287289,597.819,-168.91)">
                <path d="M549.201,2562.83l0.664,181.836l-210.664,0.03l-0,-181.866l210,0Z" style="fill:rgb(200,4,27);stroke:black;stroke-width:2.2px;"/>
            </g>
            <g transform="matrix(1.00031,0,0,1.47368,-0.742788,-144.853)">
                <text x="3055px" y="1330px" style="font-family: 'JP', sans-serif;font-weight:700;font-size:144px;font-variant-numeric: tabular-nums;"  transform="matrix(1.05429,-0.402857,1.21738,0.465179,-2007.51,922.716)">{{ post.data.date | date: "%d" | default: '01' }}</text>
                <text x="3070px" y="1280px" style="font-family: 'JP', sans-serif;font-weight:700;font-size:72px;fill:white; text-align: center;" transform="matrix(1.05429,-0.402857,1.21738,0.465179,-2111.09,883.136)">{{ post.data.date | date: "%b" | default: 'Jan' | upcase }}</text>
                <g transform="matrix(1.21738,0,0,0.805714,-920.931,-857.152)">
                    <g transform="matrix(0.866025,-0.5,1,0.57735,221.697,127.997)">
                        <g>
                            <path d="M291.839,2643.35l-0.507,-0.952c-0.251,-0.45 -0.458,-0.753 -0.501,-0.816c-0.666,-1.184 -0.995,-1.782 -1.081,-1.937c-0.083,-0.152 -0.457,-0.832 -0.928,-1.96l0.149,-2.428c0.096,-1.962 0.129,-3.324 0.136,-3.613c0.046,-1.919 0.041,-3.525 0.041,-3.831c-0.001,-0.256 -0.007,-2.062 0.071,-3.201c0.067,-0.806 0.134,-1.612 0.202,-2.418c0.108,-1.279 0.318,-2.101 0.363,-2.28c0.036,-0.142 0.261,-1.021 0.706,-1.687c0.305,-0.457 0.739,-0.678 1.237,-0.693c0.339,0.33 0.614,0.499 0.672,0.535c0.332,0.203 0.545,0.29 0.595,0.31c0.983,0.964 1.705,1.533 1.861,1.657c0.151,0.119 0.881,0.694 1.98,1.363c0.031,0.189 0.183,1.104 0.203,2.383c0.022,1.346 -0.022,2.449 -0.03,2.662c-0.054,1.349 -0.146,2.437 -0.164,2.648c-0.121,1.42 -0.148,2.083 -0.156,2.264c-0.009,0.144 -0.045,0.713 -0.059,1.797c-0.002,0.17 -0.006,0.646 0.014,2.122c0.008,0.59 0.048,2.573 0.053,2.797c0.576,-0.136 1.154,-0.533 1.245,-0.596c0.666,-0.457 1.115,-0.872 1.206,-0.955c0.654,-0.573 1.139,-1.115 1.231,-1.218c0.777,-0.866 1.184,-1.452 1.277,-1.585c0.498,-0.715 0.796,-1.357 0.854,-1.481c0.061,-0.131 0.362,-0.777 0.692,-1.671l0.762,-2.137c0.068,-0.176 0.405,-1.054 0.791,-2.221c0.395,-1.197 0.746,-2.046 0.818,-2.221c0.44,-1.063 0.806,-1.782 0.884,-1.933c0.06,-0.118 0.452,-0.886 0.948,-1.365c0.117,0.073 0.67,0.413 1.497,0.849c0.84,0.444 1.549,0.599 1.69,0.63l0.914,0.704l0.825,0.595l0.969,0.722c0.071,0.052 0.438,0.326 0.83,0.722l0.143,0.763l0.152,1.041l0.138,1.159l0.118,1.149c0.017,0.205 0.098,1.2 0.177,2.556l0.107,1.375c0.06,0.508 0.122,0.781 0.137,0.849l0.251,0.972c0.022,0.078 0.13,0.469 0.345,0.942l0.435,0.891c0.038,0.077 0.229,0.459 0.646,0.859l1.863,-1.474c0.137,-0.105 0.784,-0.601 1.355,-1.683c0.098,-0.187 0.577,-1.094 0.981,-2.456c0.069,-0.232 0.412,-1.387 0.686,-2.949c0.045,-0.256 0.271,-1.55 0.486,-3.219c0.144,-1.258 0.268,-2.178 0.294,-2.368c0.162,-1.191 0.347,-2.058 0.385,-2.236c0.23,-1.071 0.463,-1.799 0.513,-1.953c0.04,-0.125 0.284,-0.888 0.665,-1.512c1.673,0.522 2.682,0.949 2.91,1.046c1.274,0.54 2.141,1.105 2.316,1.22c1.058,0.689 1.736,1.473 1.866,1.623c0.142,0.164 0.823,0.951 1.501,2.261c-0.094,0.265 -0.574,1.619 -0.997,3.378c-0.282,1.169 -0.563,2.339 -0.844,3.508c-0.541,2.335 -1.109,4.267 -1.217,4.635c-0.109,0.373 -0.682,2.321 -1.77,4.52c-0.171,0.347 -1.073,2.169 -2.634,4.053c-0.944,1.14 -2.22,2.274 -3.738,3.185c-0.666,-0.128 -1.039,-0.127 -1.13,-0.127c-0.511,0.001 -0.78,0.106 -0.843,0.131c-0.333,0.13 -0.545,0.312 -0.587,0.347c-1.258,-0.523 -2.417,-1.356 -3.339,-2.443c-0.234,-0.274 -1.289,-1.518 -2.787,-3.538l-0.396,-0.564l-0.444,-0.563l-1.02,-1.284l-0.613,-0.782l-0.515,0.513l-0.782,0.752l-0.441,0.48c-0.188,0.188 -1.159,1.159 -2.409,2.28c-0.202,0.182 -1.252,1.123 -2.701,2.054c-0.236,0.151 -1.453,0.932 -3.167,1.505c-0.286,0.096 -1.723,0.577 -3.736,0.576l-0.67,-0.33l-0.576,-0.283c-1.057,-0.517 -1.623,-0.896 -1.757,-0.986c-0.694,-0.464 -1.524,-1.309 -1.647,-1.434Z" style="fill:rgb(200,4,27);fill-rule:nonzero;"/>
                            <path d="M337.717,2645.26c-0.416,-0.341 -0.6,-0.742 -0.634,-0.817c-0.218,-0.474 -0.795,-0.723 -0.881,-0.759c-0.032,-0.12 -0.18,-0.677 -0.451,-1.475l-0.587,-1.685c-0.306,-0.861 -0.494,-1.566 -0.531,-1.704c-0.032,-0.121 -0.228,-0.855 -0.219,-1.549c0.025,-0.373 0.154,-0.655 0.179,-0.709l0.312,-0.65c0.158,-0.316 0.202,-0.591 0.211,-0.645c0.008,-0.052 0.052,-0.33 -0.121,-0.646c0.153,-0.029 0.296,-0.111 0.314,-0.28c0.022,-0.208 0.299,-0.186 0.442,-0.166c0.147,-0.91 0.322,-1.546 0.359,-1.678c0.216,-0.783 0.44,-1.395 0.484,-1.515l0.555,-1.493c0.05,-0.13 0.288,-0.761 0.441,-1.678c-0.147,-0.076 -1.06,-0.551 -1.672,-1.227c-0.613,-0.678 -0.984,-1.259 -1.058,-1.376c-0.45,-0.705 -0.748,-1.305 -0.806,-1.422c-0.062,-0.124 -0.36,-0.723 -0.942,-1.438c0.063,-0.118 0.388,-0.722 1.136,-1.233c0.13,-0.089 0.748,-0.511 1.751,-0.901c0.175,-0.069 1.001,-0.39 2.248,-0.699c0.213,-0.052 1.259,-0.311 2.653,-0.703c2.51,-0.89 4.12,-1.359 4.482,-1.465c2.334,-0.68 3.659,-0.983 3.98,-1.057c0.314,-0.072 1.946,-0.446 3.947,-0.813c1.747,-0.32 4.182,-0.83 4.544,-0.906c0.058,0.068 0.129,0.106 0.22,0.099l0.333,-0.023c0.039,0.039 0.245,0.25 0.653,0.223l-0.097,-0.203l-0.085,-0.167l0.293,0.019l0.331,0.056c0.075,0.015 0.157,0.016 0.221,-0.033c0.08,-0.061 -0.004,-0.196 -0.036,-0.245c0.144,0.12 0.887,0.742 2.01,1.2c0.186,0.076 1.111,0.453 2.374,0.791c0.16,0.336 0.177,0.451 0.184,0.493l0.016,0.289c-0.005,0.103 0.016,0.211 0.046,0.309c0.012,0.041 0.052,0.17 0.242,0.477c-0.478,1.075 -1.218,1.625 -1.359,1.729c-0.145,0.108 -0.878,0.652 -1.985,1.057c-0.19,0.07 -1.035,0.379 -2.428,0.695c-0.219,0.049 -1.314,0.297 -2.733,0.634c-0.225,0.053 -1.385,0.329 -2.777,0.803c-0.221,0.076 -1.384,0.473 -2.632,1.254c-0.455,-0.078 -0.737,-0.033 -0.8,-0.023c-0.057,0.009 -0.343,0.054 -0.699,0.171l-0.791,0.24c-0.085,0.024 -0.434,0.124 -1.096,0.107c-0.061,0.053 -0.358,0.318 -0.886,0.49l-1.083,0.344c0.378,0.408 0.447,0.772 0.462,0.848c0.083,0.439 0.278,0.692 0.318,0.744c0.393,-0.006 2.261,-0.034 4.898,-0.453c2.725,-0.432 4.794,-0.677 5.212,-0.727c0.038,0.088 0.076,0.217 -0.003,0.297c-0.076,0.078 -0.072,0.204 -0.056,0.302c0.084,0.035 0.515,0.213 0.986,0.559l0.961,0.677c0.491,0.332 0.895,0.501 0.978,0.536c0.081,0.034 0.49,0.205 1.094,0.122c0.303,0.415 0.429,0.814 0.453,0.891c0.025,0.077 0.15,0.472 -0.051,1.014c-0.947,0.625 -1.694,1.162 -1.839,1.266c-0.143,0.104 -0.891,0.642 -1.866,1.176c-0.163,0.089 -0.974,0.534 -2.141,0.902c-0.199,0.063 -1.161,0.367 -2.578,0.405l-0.427,0.024c-0.151,0.009 -0.329,-0.077 -0.451,-0.146c-0.473,0.242 -1.208,0.23 -1.315,0.228c-0.111,-0.002 -0.841,-0.014 -1.365,0.231c-0.131,-0.03 -0.736,-0.169 -1.674,-0.112c-0.932,0.057 -1.548,-0.079 -1.68,-0.108c-0.116,0.184 -0.714,1.128 -1.326,2.375c-0.099,0.203 -0.603,1.228 -1.013,2.631c0.27,0.022 2.068,0.167 3.379,0.067c1.327,-0.101 2.292,-0.25 2.49,-0.281l2.405,-0.363c1.263,-0.186 2.801,-0.201 3.045,-0.203c0.206,-0.101 1.184,-0.581 2.742,-0.831c1.564,-0.251 2.656,-0.616 2.881,-0.691c0.075,0.02 0.485,0.126 0.828,0.51l0.653,0.776c0.301,0.398 0.569,0.631 0.625,0.68c0.052,0.044 0.324,0.281 0.834,0.187c0.036,0.036 0.231,0.234 0.301,0.563l0.139,0.609c0.038,0.157 0.101,0.32 0.208,0.445c0.139,0.164 0.468,0.123 0.509,0.117c-0.119,0.248 -0.88,1.829 -1.968,2.813c-0.171,0.155 -1.088,0.984 -2.453,1.523c-0.235,0.093 -1.366,0.539 -3.056,0.797c-0.303,0.046 -1.69,0.258 -3.774,0.633c-0.067,0.012 -0.509,0.094 -0.856,-0.023c-0.056,-0.019 -0.343,-0.116 -0.724,-0.113c-0.248,0.046 -1.293,0.239 -3.115,0.495c-0.291,0.04 -1.803,0.252 -3.661,0.24c-1.844,-0.012 -3.313,-0.32 -3.596,-0.379c-1.321,-0.277 -2.313,-0.821 -2.985,-1.35Z" style="fill:rgb(200,4,27);fill-rule:nonzero;"/>
                            <path d="M367.887,2644.93c-0.058,-0.059 -0.37,-0.375 -0.532,-0.891c-0.162,-0.515 -0.684,-0.8 -0.764,-0.843l-0.255,-1.618l-0.324,-1.875c-0.162,-0.961 -0.22,-1.767 -0.232,-1.922c-0.069,-0.96 0.046,-1.619 0.07,-1.757c0.092,-0.422 0.268,-0.738 0.301,-0.797l0.416,-0.727c0.209,-0.351 0.306,-0.666 0.325,-0.726c0.118,-0.385 0.037,-0.692 0.022,-0.75c0.171,-0.03 0.302,-0.133 0.347,-0.305c0.055,-0.206 0.27,-0.207 0.441,-0.164c0.338,-1.078 0.618,-1.761 0.679,-1.911c0.363,-0.888 0.702,-1.585 0.768,-1.72l0.827,-1.69c0.069,-0.142 0.412,-0.856 0.68,-1.851c-0.87,-0.698 -1.252,-1.336 -1.334,-1.473c-0.47,-0.785 -0.747,-1.432 -0.803,-1.561c-0.337,-0.787 -0.563,-1.439 -0.608,-1.566c-0.045,-0.131 -0.272,-0.784 -0.767,-1.564c0.389,-0.723 0.956,-1.107 1.061,-1.178c0.113,-0.077 0.673,-0.457 1.532,-0.743c0.147,-0.049 0.864,-0.288 1.889,-0.438c0.171,-0.025 0.961,-0.141 2.14,-0.332c1.859,-0.469 3.118,-0.637 3.392,-0.674c1.466,-0.196 2.629,-0.237 2.859,-0.245c0.226,-0.008 1.396,-0.049 2.831,-0.004c0.259,0.008 1.286,0.04 3.238,0.04c0.035,0.059 0.089,0.126 0.162,0.141l0.235,0.048c0.186,0.293 0.431,0.342 0.478,0.351l-0.08,-0.217l-0.069,-0.178l0.211,0.079l0.241,0.121c0.044,0.024 0.109,0.05 0.158,0.013c0.063,-0.05 -0.031,-0.23 -0.038,-0.244c0.677,0.9 1.396,1.44 1.535,1.545c0.14,0.105 0.864,0.648 1.847,1.172c0.016,0.039 0.147,0.349 0.177,0.498l0.034,0.276c0.004,0.099 0.03,0.206 0.059,0.299c0.013,0.041 0.055,0.172 0.227,0.489c-0.284,0.934 -0.796,1.318 -0.902,1.397c-0.099,0.075 -0.617,0.463 -1.415,0.644c-0.136,0.031 -0.801,0.182 -1.739,0.196c-0.154,0.002 -0.973,0.014 -1.921,0.045c-0.99,0.033 -1.808,0.186 -1.964,0.215c-0.16,0.029 -0.987,0.183 -1.899,0.723c-0.338,-0.165 -0.542,-0.174 -0.591,-0.176c-0.042,-0.001 -0.255,-0.01 -0.52,0.041l-0.594,0.098c-0.066,0.009 -0.329,0.046 -0.822,-0.092c-0.046,0.043 -0.282,0.264 -0.693,0.35l-0.856,0.18c0.265,0.453 0.292,0.886 0.297,0.967c0.03,0.48 0.161,0.775 0.189,0.838c0.302,0.054 1.733,0.309 3.822,0.327c0.318,0.003 1.957,0.018 3.979,0.167c0.023,0.063 0.077,0.212 0.013,0.285c-0.06,0.069 -0.039,0.211 -0.027,0.281c0.069,0.049 0.407,0.289 0.797,0.696l0.798,0.796c0.408,0.388 0.745,0.607 0.815,0.652c0.407,0.264 0.814,0.271 0.888,0.272c0.283,0.435 0.419,0.821 0.446,0.896c0.026,0.072 0.165,0.466 0.044,0.946c-0.117,0.075 -0.733,0.469 -1.444,0.98c-0.116,0.084 -0.713,0.512 -1.526,0.929c-0.138,0.07 -0.814,0.417 -1.817,0.668c-0.174,0.043 -1.009,0.251 -2.232,0.154l-0.372,-0.016c-0.136,-0.006 -0.29,-0.118 -0.384,-0.195c-0.424,0.206 -1.065,0.126 -1.157,0.114c-0.097,-0.012 -0.734,-0.093 -1.217,0.123c-0.111,-0.043 -0.639,-0.246 -1.468,-0.261c-0.843,-0.015 -1.369,-0.21 -1.481,-0.251c-0.889,1.322 -1.454,2.342 -1.571,2.551c-0.121,0.219 -0.74,1.336 -1.296,2.836c0.25,0.037 1.898,0.282 3.148,0.235c1.251,-0.047 2.174,-0.164 2.362,-0.188l2.292,-0.281c0.226,-0.027 1.168,-0.139 2.842,-0.057c0.189,-0.089 1.101,-0.522 2.521,-0.671c1.419,-0.149 2.395,-0.427 2.598,-0.485c0.072,0.024 0.446,0.153 0.784,0.541l0.655,0.775c0.317,0.389 0.588,0.618 0.644,0.666c0.051,0.043 0.329,0.278 0.802,0.21c0.239,0.231 0.316,0.493 0.33,0.542l0.179,0.58c0.05,0.153 0.122,0.308 0.231,0.429c0.144,0.16 0.453,0.133 0.493,0.129c-0.096,0.234 -0.699,1.694 -1.735,2.644c-0.165,0.151 -1.017,0.932 -2.381,1.47c-0.235,0.093 -1.366,0.539 -3.056,0.797c-0.302,0.046 -1.689,0.258 -3.773,0.633c-0.067,0.012 -0.509,0.094 -0.857,-0.023c-0.055,-0.019 -0.347,-0.118 -0.717,-0.118c-0.245,0.045 -1.297,0.235 -3.079,0.469c-0.285,0.038 -1.783,0.235 -3.588,0.188c-1.806,-0.047 -3.201,-0.4 -3.473,-0.469c-1.267,-0.321 -2.18,-0.92 -2.778,-1.5Z" style="fill:rgb(200,4,27);fill-rule:nonzero;"/>
                            <path d="M395.256,2638.45l0.033,-0.255c0.011,-0.09 -0.137,-0.193 -0.178,-0.223c-0.053,-0.131 -0.09,-0.317 0.08,-0.379l0.406,-0.146c-0.019,-0.361 -0.137,-2.587 0.102,-4.519c0.257,-2.078 0.473,-3.46 0.52,-3.76c0.044,-0.28 0.272,-1.733 0.459,-3.52c0.031,-0.3 0.181,-1.73 -0.08,-3.77c0.057,-0.071 0.343,-0.423 0.436,-1.048l0.172,-1.265c0.08,-0.641 0.258,-1.113 0.293,-1.206c0.034,-0.09 0.214,-0.565 0.848,-0.87c0.372,0.08 0.652,0.185 0.707,0.206l0.66,0.265c0.053,0.023 0.326,0.141 0.678,0.247c0.354,0.106 0.662,0.137 0.72,0.142c0.039,0.033 0.237,0.198 0.456,0.444c0.035,0.04 0.219,0.248 0.498,0.447l0.698,-0.043c0.118,0.074 0.707,0.446 1.369,1.069c0.671,0.632 1.021,1.158 1.095,1.27c0.058,0.087 0.429,0.645 0.457,1.228c0.029,0.586 -0.528,0.829 -0.606,0.863c0.042,0.072 0.128,0.229 0.128,0.329l-0.027,0.194c-0.02,0.061 -0.016,0.12 0.007,0.179c0.035,0.091 0.204,0.21 0.26,0.25c-0.056,0.05 -0.338,0.298 -0.534,0.771c-0.031,0.077 -0.194,0.471 -0.248,1.012c-0.009,0.088 -0.054,0.541 -0.009,1.094c0.045,0.557 0.144,0.961 0.164,1.043c0.145,-0.179 0.854,-1.052 2.169,-1.915c1.321,-0.868 2.086,-1.508 2.258,-1.651c0.775,-0.541 1.234,-0.949 1.335,-1.039c0.089,-0.079 0.56,-0.498 1.176,-0.927c0.103,-0.071 0.616,-0.428 1.325,-0.827c0.117,-0.065 0.709,-0.398 1.413,-0.894c0.052,-0.018 0.4,-0.141 0.685,-0.07l0.564,0.178c-0.035,-0.143 -0.121,-0.265 -0.27,-0.303c-0.161,-0.041 -0.246,-0.189 -0.286,-0.338c0.71,-0.18 1.143,-0.39 1.237,-0.436c0.089,-0.044 0.524,-0.256 1.144,-0.483l1.317,0.819c0.105,0.068 0.673,0.437 1.505,0.448c0.49,0.458 0.91,0.638 0.999,0.676l1.016,0.421c0.507,0.201 0.857,0.447 0.926,0.495c0.423,0.297 0.694,0.858 0.735,0.944l-0.208,0.652c-0.024,0.066 -0.129,0.353 -0.122,0.871c-0.849,0.842 -1.633,1.369 -1.787,1.473c-0.151,0.101 -0.938,0.631 -1.929,1.197c-0.161,0.092 -0.995,0.568 -2.003,1.16c-0.166,0.097 -1.011,0.593 -1.972,1.368c-0.026,0.055 -0.158,0.335 -0.48,0.594l-0.67,0.498c-0.349,0.239 -0.598,0.455 -0.648,0.498c-0.045,0.04 -0.297,0.259 -0.405,0.638l-0.308,0.012l-0.295,0.049c-0.014,0.047 -0.087,0.304 -0.365,0.488c-0.277,0.184 -0.316,0.444 -0.323,0.491c0.303,0.379 1.293,1.587 2.73,2.364c0.243,0.131 1.523,0.823 3.243,1.191c0.291,0.062 1.746,0.373 3.699,0.404c0.328,0.006 1.988,0.032 4.098,-0.003c0.12,-0.023 0.21,-0.094 0.162,-0.224c-0.058,-0.158 0.127,-0.157 0.228,-0.145c0.764,0.188 1.203,0.408 1.302,0.458c0.544,0.273 0.961,0.534 1.042,0.585l0.979,0.651c0.084,0.059 0.478,0.337 1.078,0.694c0.219,1.516 -0.244,2.574 -0.758,3.212c-1.028,1.278 -2.576,1.925 -2.895,2.06c-0.378,0.016 -2.686,0.113 -4.732,-0.1c-0.331,-0.035 -2.016,-0.21 -4.055,-0.945c-0.122,-0.037 -0.223,-0.159 -0.29,-0.256c-0.063,-0.091 -0.16,-0.222 -0.252,-0.296c-0.398,-0.214 -0.779,-0.183 -0.848,-0.177c-0.449,0.037 -0.729,-0.071 -0.788,-0.093c-0.436,-0.174 -1.346,-0.708 -1.46,-0.775c-1.021,-0.599 -1.727,-1.027 -1.877,-1.118c-1.069,-0.728 -1.9,-1.316 -2.065,-1.432c-0.987,-0.699 -1.69,-1.41 -1.824,-1.547c-0.106,-0.126 -0.25,-0.211 -0.417,-0.217c-0.04,-0.002 -0.242,-0.01 -0.487,-0.14c-0.92,0.569 -1.642,1.323 -2.144,2.145c-0.131,0.216 -0.792,1.299 -1.593,2.722c-0.126,0.224 -0.789,1.401 -1.774,2.679c-0.55,0.712 -1.409,1.454 -2.617,1.965c-0.497,-0.01 -0.8,-0.146 -0.865,-0.175c-0.059,-0.027 -0.368,-0.165 -0.696,-0.421l-0.654,-0.488c-0.052,-0.037 -0.326,-0.232 -0.735,-0.332c-0.005,-0.099 -0.032,-0.629 -0.313,-1.2c-0.277,-0.562 -0.51,-0.961 -0.557,-1.043c-0.276,-0.475 -0.396,-0.847 -0.421,-0.924c-0.022,-0.068 -0.145,-0.448 0.17,-0.877c-0.518,-0.415 -0.899,-0.646 -0.981,-0.696c0.033,-0.035 0.279,-0.296 0.232,-0.56c-0.008,-0.045 -0.048,-0.263 -0.205,-0.531c-0.157,-0.267 -0.238,-0.508 -0.253,-0.554c-0.095,-0.285 0.059,-0.577 0.082,-0.622c0.086,-0.017 0.159,-0.068 0.132,-0.165c-0.026,-0.09 0.005,-0.159 0.082,-0.21Z" style="fill:rgb(200,4,27);fill-rule:nonzero;"/>
                            <path d="M439.424,2642.69c-0.438,0.358 -0.466,0.819 -0.47,0.9c-0.032,0.54 -0.106,0.983 -0.12,1.067c-0.088,0.525 -0.359,0.846 -0.411,0.907c-0.322,0.38 -1.131,0.359 -1.234,0.356c-0.037,0.049 -0.171,0.222 -0.045,0.264c0.133,0.045 0.222,0.31 0.252,0.39c-0.076,-0.008 -0.675,-0.074 -0.944,0.107c-0.05,0.033 -0.27,0.181 -0.689,0.277c-0.172,-0.044 -1.113,-0.284 -1.944,-1.078c-0.132,-0.126 -0.819,-0.783 -1.498,-1.719c-0.67,-0.926 -1.141,-1.732 -1.232,-1.888c-0.548,-0.938 -1.02,-1.526 -1.12,-1.65c-0.019,-0.105 0.036,-0.159 0.141,-0.149l0.314,0.014c-0.052,-0.067 -0.313,-0.406 -0.535,-0.919c-0.219,-0.507 -0.559,-0.776 -0.624,-0.827c0.831,-2.474 1.606,-4.834 1.745,-5.254c0.141,-0.431 0.828,-2.52 1.688,-5.414c0.613,-2.066 1.446,-5.015 1.57,-5.452c0.524,-1.858 1.389,-5.021 1.497,-5.413c1.671,0.217 3.012,0.503 3.272,0.559c1.638,0.35 2.818,0.799 3.055,0.889c1.441,0.548 2.376,1.212 2.565,1.346c1.131,0.803 1.647,1.746 1.747,1.929c-0.02,0.122 -0.086,0.227 -0.224,0.182c-0.108,-0.035 -0.205,-0.007 -0.247,0.105c0.051,0.031 0.336,0.199 0.395,0.297c0.036,0.061 0.047,0.126 0.03,0.196c-0.021,0.082 -0.003,0.178 0.02,0.256c0.045,0.154 0.356,0.373 0.393,0.399c-0.099,-0.004 -0.284,-0.006 -0.359,0.095c-0.077,0.105 -0.279,0.072 -0.369,0.056c0.047,0.058 0.425,0.514 0.407,0.838c-0.019,0.32 -0.137,0.55 -0.16,0.594c-0.022,0.043 -0.141,0.272 -0.192,0.577c-0.05,0.302 0.26,0.739 0.299,0.794c-0.068,0.006 -0.214,0.023 -0.274,0.085l-0.094,0.148l-0.095,0.149c-0.061,0.064 -0.222,0.05 -0.283,0.044c0.433,1.003 0.609,1.893 0.642,2.063l0.406,2.17c0.032,0.185 0.19,1.081 0.48,2.3c0.048,0.204 0.277,1.166 0.847,2.468c1.522,-0.896 2.492,-1.998 3.056,-2.93c0.689,-1.139 1.208,-2.47 1.475,-3.831c0.067,-0.344 0.409,-2.094 0.339,-4.363c-0.054,-1.762 -0.158,-4.261 -0.173,-4.631c0.493,-0.504 0.66,-1.074 0.691,-1.179c0.031,-0.108 0.198,-0.677 0.277,-1.379l0.104,-1.39c0.036,-0.697 0.249,-1.174 0.292,-1.269c0.995,-0.026 1.639,0.185 1.775,0.229c0.778,0.255 1.377,0.542 1.493,0.597c0.115,0.055 0.714,0.342 1.459,0.629c0.13,0.05 0.739,0.285 1.72,0.323c0.963,0.697 1.658,1.259 1.799,1.373c0.833,0.674 1.197,1.419 1.268,1.563c-0.034,0.068 -0.208,0.418 -0.252,0.912l-0.124,0.997c-0.076,0.475 -0.311,0.895 -0.351,0.967c-0.044,0.078 -0.252,0.449 -0.787,0.797c0.046,1.261 -0.079,2.208 -0.104,2.398c-0.024,0.177 -0.147,1.109 -0.263,2.212c-0.019,0.18 -0.111,1.057 -0.179,2.265c-0.065,1.149 0.091,2.375 0.117,2.58c-0.055,0.216 -0.331,1.3 -0.77,2.676c-0.44,1.378 -0.588,2.352 -0.62,2.561c-0.878,0.702 -1.284,1.555 -1.359,1.713c-0.078,0.164 -0.481,1.009 -1.018,2.028c-0.046,0.037 -0.229,0.193 -0.283,0.074c-0.057,-0.126 -0.373,-0.145 -0.434,-0.151c0.006,0.043 0.064,0.409 -0.147,0.528c-0.208,0.117 0.022,0.616 0.045,0.664c-0.794,0.38 -1.296,0.889 -1.392,0.986c-0.097,0.099 -0.598,0.607 -1.316,1.123c-0.118,0.085 -0.717,0.515 -1.682,0.69c-0.947,0.172 -2.359,-0.278 -2.556,-0.341c-0.386,-0.252 -2.39,-1.564 -4.537,-3.555c-1.132,-1.05 -2.482,-2.572 -3.737,-4.575c-0.473,0.148 -0.62,0.51 -0.646,0.574c-0.028,0.069 -0.172,0.425 -0.292,0.894l-0.255,0.854c-0.136,0.386 -0.475,0.399 -0.528,0.401c-0.006,0.06 -0.038,0.382 -0.259,0.71l-0.417,0.653c-0.032,0.052 -0.197,0.326 -0.265,0.714c-0.068,0.386 0.196,0.792 0.234,0.851Z" style="fill:rgb(200,4,27);fill-rule:nonzero;"/>
                            <path d="M475.443,2646.71c-0.432,0.06 -2.06,0.275 -3.704,-0.187c-1.667,-0.469 -2.774,-1.295 -2.987,-1.453c-0.209,-0.157 -1.319,-0.985 -2.269,-2.344c-0.15,-0.216 -0.949,-1.36 -1.551,-2.906c-0.421,-3.223 0.025,-5.264 0.122,-5.71c0.163,-0.743 0.624,-2.677 1.719,-4.675c0.189,-0.345 1.186,-2.161 2.764,-4.064c1.139,-1.374 2.509,-3.166 2.722,-3.445c0.041,0.014 0.356,0.118 0.543,-0.007c0.129,-0.086 0.231,-0.199 0.31,-0.332l0.289,-0.409c0.026,-0.032 0.166,-0.204 0.426,-0.285c0.105,-0.364 0.307,-0.563 0.347,-0.602c0.04,-0.039 0.242,-0.239 0.531,-0.454c0.288,-0.215 0.482,-0.408 0.521,-0.447c0.039,-0.039 0.234,-0.233 0.363,-0.58c0.428,-0.069 0.658,-0.221 0.708,-0.254c0.28,-0.186 0.464,-0.372 0.5,-0.409c0.221,-0.223 0.431,-0.374 0.471,-0.404c0.046,-0.033 0.251,-0.181 0.651,-0.276l-0.154,-0.498c0.1,-0.04 0.835,-0.336 1.113,-0.764c0.055,-0.085 0.287,-0.441 0.627,-1.102l0.724,0.016c0.066,0.005 0.263,0.02 0.828,-0.007c0.019,-0.073 0.154,-0.607 0.375,-0.872c0.046,-0.056 0.223,-0.268 0.7,-0.58c0.72,0.358 1.301,0.468 1.419,0.491c0.705,0.134 1.331,0.649 1.43,0.73c0.193,0.458 0.453,0.688 0.507,0.735l0.651,0.527l0.675,0.519c0.056,0.045 0.339,0.272 0.539,0.709c0.041,0.006 0.188,0.033 0.224,-0.038c0.037,-0.075 0.212,-0.007 0.234,0.001l0.277,0.543l0.257,0.387l0.276,0.39l0.288,0.504c-0.011,0.076 -0.065,0.441 -0.084,0.955c-0.002,0.061 -0.019,0.512 -0.428,0.64c0.039,0.167 0.128,0.333 0.308,0.376c0.172,0.042 0.28,0.183 0.338,0.342c0.015,0.044 0.123,0.366 0.025,0.584c1.592,2.157 2.672,3.887 2.889,4.235c1.385,2.22 2.68,3.911 2.931,4.238c0.005,0.094 0.03,0.571 0.275,1.14c0.04,0.093 0.248,0.576 0.568,1.133l0.621,1.121c0.3,0.563 0.438,1.023 0.466,1.115c0.033,0.121 0.196,0.732 0.22,1.552c0.026,0.83 -0.118,1.47 -0.146,1.595c-0.172,0.768 -0.488,1.324 -0.548,1.431c-0.376,0.663 -0.832,0.943 -0.925,1c-0.105,0.142 -0.642,0.866 -1.693,1.408c-0.167,0.087 -1.05,0.542 -1.947,1.318c-0.103,0.059 -0.644,0.37 -1.381,0.533l-1.528,0.352c-0.11,0.068 -0.602,0.375 -1.436,0.726c-0.134,0.057 -0.833,0.352 -1.713,0.633c-0.88,0.281 -1.616,0.419 -1.759,0.445c-0.124,0.024 -0.88,0.165 -1.574,0.071c-1.667,0.609 -2.976,0.804 -3.241,0.844c-1.575,0.234 -3.414,-0.171 -3.704,-0.235Zm0.598,-17.06c-0.444,1.054 -0.981,1.799 -1.085,1.943c-0.1,0.139 -0.625,0.867 -1.227,1.758c-0.097,0.143 -0.601,0.89 -1.041,1.898c-0.078,0.177 -0.44,1.008 -0.486,2.367c0.559,0.482 1.306,0.846 2.199,0.961c0.207,0.027 1.273,0.164 2.616,0.047c0.216,-0.019 1.342,-0.117 2.685,-0.351c1.343,-0.235 2.214,-0.235 2.408,-0.235c-0,-0.045 -0,-0.422 0.37,-0.422c1.24,-0.119 2.514,-0.498 3.546,-1.054c0.253,-0.136 1.576,-0.848 3.19,-1.647c0.172,-0.519 0.424,-0.829 0.475,-0.892c0.304,-0.374 0.267,-1.016 0.262,-1.106c-0.257,-0.404 -0.331,-0.61 -0.352,-0.667c-0.021,-0.06 -0.092,-0.258 -0.159,-0.779c-0.208,-0.264 -1.27,-1.604 -2.323,-3.506c-0.165,-0.298 -1.01,-1.825 -2.294,-3.587c-0.037,0.156 -0.141,0.284 -0.257,0.387c-0.212,0.187 -0.506,-0.11 -0.537,-0.141c-0.007,0.048 -0.061,0.412 -0.285,0.538c-0.038,0.021 -0.225,0.125 -0.532,0.096c-0.052,-0.005 -0.307,-0.03 -0.63,-0.188c-0.051,-0.025 -0.324,-0.158 -0.595,-0.396c-0.212,0.176 -1.294,1.076 -2.702,2.157c-0.239,0.184 -1.403,1.078 -2.653,2.685c-0.082,0.05 -0.206,0.158 -0.273,0.09c-0.075,-0.077 -0.218,0.01 -0.32,0.044Z" style="fill:rgb(200,4,27);fill-rule:nonzero;"/>
                            <path d="M494.421,2622.84c-0.127,-0.314 -0.269,-0.538 -0.297,-0.582l-0.374,-0.593c-0.055,-0.082 -0.326,-0.491 -0.638,-1.059c-0.054,-0.098 -0.308,-0.56 -0.528,-1.298c-0.004,-0.042 -0.04,-0.373 0.02,-0.526c0.034,-0.087 0.078,-0.177 0.137,-0.25l-0.063,-0.663l0.558,0.098l0.628,0.145l0.619,0.106c0.232,0.039 1.436,0.242 2.92,0.36c0.247,0.02 1.535,0.122 3.087,0.186c0.307,0.003 1.576,0.012 3.831,0.124l0.06,-0.481l0.039,-0.24l0.361,-0.173c0.115,0.006 0.935,0.054 1.4,0.316c0.475,0.269 0.713,0.453 0.771,0.498c0.172,0.002 1.062,0.013 2.156,-0.042l2.305,-0.143c0.276,-0.018 1.714,-0.107 3.449,-0.251c0.288,-0.023 1.791,-0.148 3.606,-0.163c0.808,-0.006 1.402,0.012 1.524,0.016c0.733,0.024 1.317,0.068 1.431,0.077l0.717,0.305c0.051,0.041 0.302,0.245 0.684,0.449c0.067,0.036 0.385,0.206 0.864,0.406c0.158,0.069 0.921,0.406 1.902,1.018c0.501,0.313 1.06,0.887 1.317,1.882l-0.096,0.371c-0.105,0.117 -0.24,0.221 -0.37,0.307l-0.294,0.487l-0.534,0.018c-0.485,0.015 -0.647,0.06 -0.702,0.075l-0.51,0.178l-0.379,0.137l-0.473,0.138l-0.822,-0.022l-0.661,0.01c-0.238,0.003 -1.392,0.017 -2.969,0.158c-1.606,0.143 -2.724,0.261 -2.961,0.286c-0.157,0.013 -1.009,0.083 -1.971,0.143l-1.692,0.095c-0.06,0.895 -0.122,1.518 -0.135,1.65c-0.012,0.116 -0.072,0.724 -0.197,1.447c-0.021,0.118 -0.125,0.72 -0.215,1.484c-0.016,0.135 -0.086,0.738 -0.095,1.698c-0.309,0.666 -0.444,1.182 -0.472,1.288c-0.161,0.617 -0.16,1.322 -0.16,1.438c-0.473,0.635 -0.549,1.3 -0.563,1.421l-0.186,1.343l-0.043,0.6c-0.028,0.03 -0.246,0.271 -0.278,0.432c-0.026,0.127 -0.095,0.253 -0.167,0.358c-0.025,0.526 -0.133,0.935 -0.154,1.015l-0.097,0.428c-0.022,0.108 -0.036,0.247 0.018,0.352c-0.009,0.454 -0.118,0.651 -0.145,0.701c0.04,0.252 0.036,0.462 0.036,0.503l-0.012,0.503l-0.056,0.526c-0.007,0.16 0.031,0.309 0.107,0.449l0.311,0.35c0.028,0.031 0.156,0.176 0.278,0.436c0.07,0.061 0.151,0.105 0.239,0.135c0.088,0.03 0.169,0.074 0.238,0.135c0.05,0.04 0.395,0.312 0.712,0.363l0.51,0.529c0.049,0.169 0.481,1.522 -0.234,2.425c-0.756,1.048 -2.448,0.965 -2.617,0.961l-0.634,-0.057c-0.033,-0.031 -0.337,-0.319 -0.389,-0.409l-0.695,-0.304c-0.05,-0.021 -0.277,-0.117 -0.525,-0.434c-0.065,-0.062 -0.144,-0.1 -0.232,-0.116c-0.089,-0.017 -0.167,-0.055 -0.233,-0.117c-0.457,-0.144 -0.685,-0.293 -0.739,-0.329l-0.512,-0.279l-0.005,-0.619c-0.063,-0.079 -0.395,-0.494 -0.648,-1.075c-0.041,-0.093 -0.25,-0.573 -0.447,-1.193l-0.335,-0.879c-0.153,-0.393 -0.367,-0.656 -0.409,-0.706c-0.057,-0.391 -0.452,-3.086 -0.181,-4.94c0.292,-1.996 0.55,-3.375 0.605,-3.667c0.031,-0.15 0.191,-0.928 0.302,-1.879c0.018,-0.153 0.112,-0.949 0.103,-1.928l0.328,-0.384c0.03,-0.028 0.216,-0.204 0.291,-0.237c-0.155,-0.497 -0.111,-0.878 -0.102,-0.954l0.135,-0.924l0.105,-0.574c0.04,-0.286 0.009,-0.467 0.002,-0.507l-0.507,-0.028l-0.453,0.012c-0.494,0.062 -0.904,0.021 -0.982,0.014c-0.365,-0.037 -0.499,-0.078 -0.541,-0.091c-0.274,0.117 -0.506,0.108 -0.551,0.107l-0.559,-0.041l-0.484,-0.053l-0.482,-0.053c-0.057,-0.007 -0.482,-0.054 -0.724,0.028l-0.719,-0.083l-0.358,-0.043l-0.477,-0.057l-0.475,-0.058c-0.059,-0.007 -0.319,-0.039 -0.729,-0.146c-0.077,-0.02 -0.414,-0.108 -0.911,-0.396l-0.363,-0.347c-0.038,-0.048 -0.357,-0.458 -0.563,-0.524l-0.461,-0.175l-0.121,-0.428Z" style="fill:rgb(200,4,27);fill-rule:nonzero;"/>
                            <path d="M527.761,2645.54c-0.416,-0.34 -0.609,-0.735 -0.645,-0.81c-0.227,-0.465 -0.793,-0.723 -0.877,-0.761c-0.035,-0.117 -0.196,-0.662 -0.486,-1.45l-0.621,-1.66c-0.322,-0.844 -0.528,-1.541 -0.569,-1.677c-0.034,-0.118 -0.248,-0.838 -0.268,-1.513c0.008,-0.362 0.118,-0.629 0.139,-0.68l0.265,-0.617c0.135,-0.298 0.163,-0.563 0.169,-0.613c0.005,-0.052 0.034,-0.316 -0.144,-0.629c0.144,-0.022 0.272,-0.098 0.28,-0.256c0.01,-0.202 0.279,-0.164 0.406,-0.14c0.092,-0.872 0.219,-1.47 0.246,-1.597c0.159,-0.741 0.33,-1.314 0.364,-1.427l0.423,-1.397c0.038,-0.123 0.219,-0.711 0.296,-1.573c-1.02,-0.574 -1.525,-1.132 -1.635,-1.254c-0.611,-0.675 -0.995,-1.251 -1.072,-1.367c-0.462,-0.691 -0.78,-1.281 -0.842,-1.396c-0.065,-0.12 -0.38,-0.703 -0.966,-1.42c0.047,-0.104 0.297,-0.656 0.934,-1.086c0.112,-0.076 0.637,-0.431 1.518,-0.733c0.156,-0.053 0.876,-0.3 1.995,-0.515c0.192,-0.037 1.135,-0.218 2.381,-0.506c2.256,-0.699 3.713,-1.062 4.039,-1.143c1.87,-0.466 3.38,-0.776 3.675,-0.837c0.31,-0.064 1.805,-0.371 3.879,-0.763c0.383,-0.073 2.113,-0.4 4.749,-1.054c0.061,0.07 0.138,0.101 0.231,0.09l0.36,-0.043c0.254,0.245 0.639,0.199 0.697,0.192l-0.096,-0.204l-0.084,-0.167l0.318,0.001l0.358,0.035c0.085,0.012 0.173,0.005 0.244,-0.049c0.085,-0.065 0.016,-0.19 -0.024,-0.254c0.152,0.118 0.927,0.717 2.142,1.105c0.204,0.065 1.219,0.39 2.607,0.621c0.018,0.039 0.157,0.341 0.175,0.5l0.001,0.3c-0.012,0.106 0.005,0.215 0.034,0.317c0.012,0.041 0.051,0.173 0.25,0.472c-0.58,1.149 -1.371,1.735 -1.525,1.849c-0.153,0.113 -0.944,0.7 -2.089,1.133c-0.192,0.072 -1.145,0.433 -2.457,0.716c-0.886,0.193 -1.771,0.386 -2.657,0.578c-0.214,0.048 -1.34,0.295 -2.651,0.713c-1.307,0.416 -2.256,1.001 -2.438,1.113c-0.45,-0.083 -0.716,-0.048 -0.777,-0.04c-0.054,0.006 -0.327,0.042 -0.659,0.141l-0.738,0.202c-0.081,0.021 -0.407,0.103 -1.041,0.067c-0.053,0.049 -0.312,0.286 -0.801,0.429l-1,0.284c0.054,0.054 0.396,0.396 0.514,0.81c0.118,0.414 0.328,0.658 0.369,0.707c0.376,0.007 2.171,0.04 4.687,-0.3c2.631,-0.355 4.662,-0.577 5.068,-0.622c0.041,0.072 0.101,0.198 0.028,0.275c-0.07,0.073 -0.05,0.193 -0.025,0.278c0.088,0.033 0.537,0.198 1.046,0.516l1.04,0.62c0.531,0.303 0.961,0.454 1.048,0.484c0.085,0.031 0.521,0.184 1.129,0.097c0.356,0.379 0.529,0.741 0.563,0.812c0.032,0.068 0.205,0.433 0.057,0.936c-0.908,0.596 -1.615,1.105 -1.753,1.204c-0.136,0.098 -0.845,0.608 -1.782,1.114c-0.158,0.086 -0.937,0.507 -2.075,0.855c-0.197,0.06 -1.139,0.348 -2.539,0.376l-0.422,0.021c-0.151,0.007 -0.336,-0.076 -0.459,-0.14c-0.45,0.224 -1.175,0.204 -1.279,0.201c-0.106,-0.003 -0.829,-0.023 -1.321,0.199c-0.128,-0.03 -0.732,-0.17 -1.642,-0.135c-0.9,0.035 -1.507,-0.11 -1.634,-0.14c-0.1,0.172 -0.607,1.049 -1.119,2.224c-0.083,0.192 -0.501,1.154 -0.817,2.489c0.263,0.027 1.993,0.204 3.298,0.126c1.288,-0.077 2.24,-0.212 2.433,-0.24l2.364,-0.333c1.219,-0.17 2.801,-0.199 3.046,-0.204c0.204,-0.099 1.143,-0.552 2.719,-0.815c1.576,-0.263 2.682,-0.635 2.909,-0.711c0.519,0.102 0.855,0.392 0.917,0.445l0.769,0.693c0.371,0.351 0.681,0.551 0.745,0.593c0.061,0.04 0.376,0.244 0.906,0.134c0.271,0.207 0.36,0.46 0.377,0.508l0.205,0.561c0.057,0.151 0.139,0.298 0.259,0.409c0.161,0.148 0.503,0.097 0.547,0.09c-0.107,0.241 -0.772,1.749 -1.846,2.724c-0.17,0.155 -1.065,0.968 -2.444,1.517c-0.24,0.095 -1.379,0.548 -3.108,0.834c-0.308,0.051 -1.688,0.279 -3.847,0.686c-0.069,0.013 -0.516,0.099 -0.884,-0.003c-0.058,-0.017 -0.367,-0.103 -0.749,-0.095c-0.248,0.047 -1.332,0.251 -3.121,0.499c-0.29,0.041 -1.804,0.251 -3.649,0.231c-1.836,-0.019 -3.29,-0.335 -3.571,-0.396c-1.288,-0.28 -2.279,-0.817 -2.97,-1.361Z" style="fill:rgb(200,4,27);fill-rule:nonzero;"/>
                        </g>
                    </g>
                </g>
            </g>
            <g transform="matrix(1.65999,-0.934481,1.91679,1.07905,-2450.11,3637.28)">
                <ellipse cx="3354.14" cy="-264.004" rx="4.355" ry="3.772" style="fill:rgb(150,3,20);stroke:black;stroke-width:1.44px;"/>
            </g>
            <g transform="matrix(1.05461,0.593684,-6.75991e-17,1.37105,-830.618,-1397.7)">
                <path d="M3213.5,-226.207l-9.69,8.393l-0,-19.919c-0,-8.203 4.817,-15.857 10.599,-20.864c5.781,-5.007 14.619,-9.179 24.091,-9.179c16.558,0 30,11.642 30,25.981l0.522,8.196l-5.212,2.979l-4.977,1.492l-0.023,-6.873c-0,-11.949 -11.202,-21.65 -25,-21.65c-5.704,-0 -10.965,1.658 -15.174,4.447c-3.221,3.645 -5.136,8.201 -5.136,13.141l0,13.856Z" style="fill:rgb(135,135,135);stroke:black;stroke-width:2.27px;"/>
            </g>
            <g transform="matrix(1.05461,0.593684,-6.75991e-17,1.37105,-835.565,-1394.91)">
                <path d="M3213.5,-226.207l-5,4.331l0,-19.919c0,-14.339 13.443,-25.981 30,-25.981c16.558,0 30,11.642 30,25.981l0,6.928l-5.001,0.893l0.001,-6.089c0,-11.949 -11.202,-21.651 -25,-21.651c-13.797,0 -25,9.702 -25,21.651l0,13.856Z" style="fill:rgb(188,188,188);stroke:black;stroke-width:2.27px;"/>
            </g>
            <g transform="matrix(1.65999,-0.934481,1.91679,1.07905,-2237,3517.31)">
                <ellipse cx="3354.14" cy="-264.004" rx="4.355" ry="3.772" style="fill:rgb(150,3,20);stroke:black;stroke-width:1.44px;"/>
            </g>
            <g transform="matrix(1.05461,0.593684,-6.75991e-17,1.37105,-617.511,-1517.67)">
                <path d="M3213.5,-226.207l-9.69,8.393l-0,-19.919c-0,-8.203 4.817,-15.857 10.599,-20.864c5.781,-5.007 14.619,-9.179 24.091,-9.179c16.558,0 30,11.642 30,25.981l0.522,8.196l-5.212,2.979l-4.977,1.492l-0.023,-6.873c-0,-11.949 -11.202,-21.65 -25,-21.65c-5.704,-0 -10.965,1.658 -15.174,4.447c-3.221,3.645 -5.136,8.201 -5.136,13.141l0,13.856Z" style="fill:rgb(135,135,135);stroke:black;stroke-width:2.27px;"/>
            </g>
            <g transform="matrix(1.05461,0.593684,-6.75991e-17,1.37105,-622.457,-1514.88)">
                <path d="M3213.5,-226.207l-5,4.331l0,-19.919c0,-14.339 13.443,-25.981 30,-25.981c16.558,0 30,11.642 30,25.981l0,6.928l-5.001,0.893l0.001,-6.089c0,-11.949 -11.202,-21.651 -25,-21.651c-13.797,0 -25,9.702 -25,21.651l0,13.856Z" style="fill:rgb(188,188,188);stroke:black;stroke-width:2.27px;"/>
            </g>
        </g>
    </g>
</svg>
