<?xml version="1.0" encoding="UTF-8" standalone="no"?>
<!DOCTYPE svg PUBLIC "-//W3C//DTD SVG 1.1//EN" "http://www.w3.org/Graphics/SVG/1.1/DTD/svg11.dtd">
<svg xmlns:xl="http://www.w3.org/1999/xlink" version="1.1" xmlns="http://www.w3.org/2000/svg" xmlns:dc="http://purl.org/dc/elements/1.1/" viewBox="240 191 91 39" width="91" height="39">
  <defs/>
  <g id="Canvas_1" stroke="none" fill="none" fill-opacity="1" stroke-dasharray="none" stroke-opacity="1">
    <title>Canvas 1</title>
    <g id="Canvas_1_Layer_1">
      <title>Layer 1</title>
      <g id="Graphic_5">
        <path d="M 295.4 200.4 L 277.8 202.4 L 280.6 194.4 L 283.4 194.2 L 285.6 196.4 L 288.4 193.2 L 293.6 192.4 Z" fill="#2c5aa6"/>
      </g>
      <g id="Graphic_4">
        <path d="M 285.8 210.8 L 295.6 200.4 L 277.6 202.4 Z" fill="#ffdb00"/>
      </g>
      <g id="Graphic_54">
        <path d="M 316.8654 208.78062 C 315.67026 208.71988 314.9874 207.2965 315.07084 205.84244 C 315.21747 203.27974 317.3464 200.6925 317.3464 200.6925 C 317.84337 201.14896 319.33853 203.62209 319.25693 205.51482 C 319.1778 207.36337 318.05933 208.84136 316.8654 208.78062 M 318.28756 199.84153 C 318.8017 199.23905 319.15386 198.88811 319.0747 198.47092 C 318.99496 198.0531 317.59 197.76352 316.9648 198.34453 C 315.115 196.86777 315.49356 198.59792 315.76106 198.9832 C 313.5763 200.5299 312.0977 204.60005 313.28732 207.77566 C 314.44995 210.8801 317.9575 211.26356 319.79684 209.08125 C 321.42452 207.14925 321.13433 203.59816 318.28756 199.84153" fill="white"/>
      </g>
      <g id="Graphic_53">
        <path d="M 249.79245 193.66933 C 245.67017 193.3687 241.11412 196.80445 241.28836 201.25375 C 241.30492 201.68076 241.66384 202.0722 242.1792 202.0722 C 242.81727 202.0722 244.68423 202.00103 244.68423 202.00103 C 244.68423 202.00103 241 204.92387 241 208.34612 C 241 210.15234 242.34608 212.31502 245.15664 212.31502 C 249.0961 212.31502 252.03182 209.07008 252.0263 206.32087 C 252.0263 206.11166 251.78764 205.81655 251.40296 206.2859 C 250.7925 207.03072 247.51872 210.4137 244.28298 210.4137 C 243.19643 210.4137 242.2516 209.79527 242.2516 208.48907 C 242.2516 206.77795 244.94436 203.45018 249.57342 202.14336 C 250.70722 201.81083 250.8017 200.21873 249.36053 200.14756 C 247.9445 200.07762 243.0547 200.62243 242.7007 200.62243 C 242.34608 200.62243 242.31417 200.54574 242.44056 200.21873 C 242.6062 199.7905 244.40078 196.63021 249.7857 196.0357 C 251.6048 195.89337 251.42198 193.78836 249.79245 193.66933" fill="white"/>
      </g>
      <g id="Graphic_52">
        <path d="M 255.62102 198.86627 C 255.62102 197.79137 254.03505 197.13122 253.43748 198.65338 C 252.2865 201.58358 251.9368 210.46254 255.7879 210.46254 C 257.47878 210.46254 259.63655 206.73475 259.63655 203.09593 C 259.63655 200.09455 258.41563 198.1331 258.15734 197.7791 C 257.89904 197.4251 257.54688 197.61406 257.5935 198.27545 C 257.64075 198.93683 257.8285 205.05676 255.92594 207.27772 C 255.17498 208.10476 254.62097 207.24398 254.5406 206.42738 C 254.30623 204.04076 255.62102 200.42586 255.62102 198.86627" fill="white"/>
      </g>
      <g id="Graphic_51">
        <path d="M 273.22212 208.40348 C 272.14047 208.40348 271.53983 206.9979 271.53983 205.47144 C 271.53983 202.78174 273.462 200.33377 273.462 200.33377 C 273.99087 201.01233 275.26455 202.92714 275.26455 204.86528 C 275.26455 206.80402 274.30315 208.40348 273.22212 208.40348 M 274.0872 199.48587 C 274.0872 199.48587 274.69826 198.65086 274.33076 198.17906 C 273.91725 197.64836 272.59264 197.4827 271.35086 198.88155 C 269.71704 200.72336 268.5722 204.61005 269.80968 207.87033 C 270.99318 210.98766 274.3056 211.25086 275.84127 208.88817 C 277.21066 206.77948 276.85052 203.2658 274.0872 199.48587" fill="white"/>
      </g>
      <g id="Graphic_50">
        <path d="M 263.21955 202.6664 C 263.31403 201.45468 263.4085 200.1951 263.4085 200.1951 C 263.4085 200.1951 266.10128 199.5055 267.0222 199.6006 C 267.82407 199.68343 267.99033 200.02823 267.58234 200.6663 C 266.62094 202.1682 264.4098 202.68848 263.21955 202.6664 M 268.99958 210.7042 C 267.848 209.09554 266.4013 205.87575 264.1877 203.92597 C 266.43197 203.78363 269.24254 202.02465 269.24254 200.14725 C 269.24254 198.757 267.80505 197.75511 265.9393 197.75511 C 264.07296 197.75511 262.0152 198.38889 261.2354 198.86376 C 260.22 199.45826 260.97588 200.86017 261.9207 200.4804 C 261.9207 200.4804 261.5667 202.14367 261.4716 203.02285 C 260.7047 202.92776 260.5507 203.0701 260.59795 203.23698 C 260.6452 203.40324 260.97588 203.5462 261.3538 204.02106 C 261.2354 205.06651 261.0268 209.71643 261.07404 210.12075 C 261.1213 210.52751 261.36486 210.59807 261.7115 210.16799 C 262.01888 209.78821 262.67658 208.86915 262.98334 205.39966 C 263.33796 205.70826 264.3061 207.01385 265.48714 208.53662 C 267.21913 210.77047 267.79032 210.93121 268.502 211.18337 C 268.88608 211.31958 269.2818 211.09748 268.99958 210.7042" fill="white"/>
      </g>
      <g id="Graphic_49">
        <path d="M 297.6978 198.06335 C 297.76037 200.4788 295.64984 204.31887 295.51486 207.12207 C 295.41547 209.16573 295.7799 209.99215 295.95292 210.2615 C 296.1339 210.5437 296.53025 210.56764 296.63577 210.05534 C 296.95174 208.52398 299.12485 204.4876 299.4034 201.24142 C 299.57395 199.25236 298.96104 198.03451 298.25487 197.80444 C 297.9395 197.70198 297.6892 197.74063 297.6978 198.06335" fill="white"/>
      </g>
      <g id="Graphic_48">
        <path d="M 305.5694 197.755 C 302.6165 197.755 300.48633 198.80842 300.48633 201.20056 C 300.48633 202.67425 301.5729 203.6884 303.30487 203.9737 C 304.3129 204.16328 305.29392 204.23813 305.651 204.36942 C 306.29704 204.60686 304.75034 205.35597 302.34347 206.99839 C 300.69922 208.12053 299.49794 209.30647 298.8562 210.56543 C 298.63348 211.00103 298.93472 211.41762 299.39916 211.09552 C 300.30166 210.46972 302.28028 209.42795 304.19878 208.36532 C 306.02525 207.35423 307.74558 206.24313 307.74558 204.86086 C 307.74558 203.60865 306.8124 203.13685 306.09212 203.05464 C 304.8485 202.9123 302.15574 203.02273 302.15574 201.45456 C 302.15574 200.86803 302.92694 200.0999 305.4068 200.0999 C 307.3204 200.0999 307.12776 197.755 305.5694 197.755" fill="white"/>
      </g>
      <g id="Graphic_47">
        <path d="M 309.28792 198.19115 C 310.25423 200.0575 308.60998 205.13443 308.60998 207.06336 C 308.60998 208.99167 308.82594 209.67146 309.33332 210.29664 C 309.59285 210.6169 309.93335 210.42487 309.96464 210.07946 C 310.12232 208.37937 311.93713 203.76504 312.0543 201.62076 C 312.204 198.88995 310.86346 197.83162 310.07876 197.76475 C 309.64315 197.72793 309.06767 197.80708 309.28792 198.19115" fill="white"/>
      </g>
      <g id="Graphic_46">
        <path d="M 309.9528 195.55764 C 309.90372 197.33626 312.8517 197.62278 312.8517 195.44905 C 312.8517 193.55387 311.27618 191.98692 310.9596 191.72617 C 310.46755 191.32247 309.77242 191.39548 309.93624 192.04766 C 310.31294 193.4146 309.96998 194.93614 309.9528 195.55764" fill="white"/>
      </g>
      <g id="Graphic_45">
        <path d="M 330.17605 210.27793 C 329.79076 207.88886 330.32085 204.8151 330.32085 201.91924 C 330.32085 199.7081 328.49438 198.57123 327.4109 198.57123 C 326.00285 198.57123 325.1666 199.2099 325.1666 199.2099 C 325.18256 198.78903 325.25496 198.14176 325.24146 197.93745 C 325.22612 197.7037 324.94758 197.7037 324.5451 197.9215 C 322.3321 199.30746 322.01247 203.28373 322.01247 206.0397 C 322.01247 208.79626 322.44807 209.77239 322.4941 210.14664 C 322.53826 210.50126 322.97202 210.55402 323.14197 210.24296 C 324.3181 207.93794 324.45553 203.7408 324.8574 201.4051 C 325.4151 200.64188 327.68943 200.502 327.7827 202.32356 C 327.87717 204.17825 327.69925 208.86498 329.584 210.50126 C 329.838 210.72212 330.2319 210.6209 330.17605 210.27793" fill="white"/>
      </g>
      <g id="Graphic_44">
        <path d="M 279.02473 200.5988 C 279.0738 196.15504 281.3721 194.76417 282.62368 194.76417 C 284.37162 194.76417 285.09374 196.10718 285.21154 196.7017 C 285.32933 197.29558 285.99133 197.77045 286.2036 196.79617 C 286.4165 195.8219 288.47305 192.8512 290.99955 192.8512 C 293.3144 192.8512 294.11565 195.25254 294.04632 197.29558 C 293.85736 202.8566 286.73738 207.29484 285.80052 210.09743 C 284.9655 208.3998 278.96583 205.9463 279.02473 200.5988 M 291.82658 191.47321 C 289.74795 191.47321 287.29017 193.01746 285.80236 195.58446 C 285.4005 194.65742 283.97037 193.64755 282.26968 193.64755 C 280.89967 193.64755 277.0541 195.37034 277.0541 200.93134 C 277.0541 208.109 284.2704 209.58268 285.72935 211.81347 C 285.82936 211.96685 286.1527 212.0828 286.276 211.71592 C 287.43987 208.2593 296.46607 204.3536 296.46607 197.3195 C 296.46607 193.37453 293.9052 191.47321 291.82658 191.47321" fill="white"/>
      </g>
      <g id="Graphic_43">
        <path d="M 264.94853 223.62643 L 264.94853 221.99323 L 265.5737 221.99323 L 265.5737 223.60987 C 265.5737 224.07554 265.805 224.31665 266.18662 224.31665 C 266.56824 224.31665 266.79954 224.08412 266.79954 223.63073 L 266.79954 221.99323 L 267.42472 221.99323 L 267.42472 223.6062 C 267.42472 224.47187 266.94188 224.89643 266.17865 224.89643 C 265.41542 224.89643 264.94853 224.46758 264.94853 223.62643" fill="white"/>
      </g>
      <g id="Graphic_42">
        <path d="M 268.35446 221.99304 L 268.93117 221.99304 L 270.26253 223.75325 L 270.26253 221.99304 L 270.87974 221.99304 L 270.87974 224.85146 L 270.3478 224.85146 L 268.97167 223.0342 L 268.97167 224.85146 L 268.35446 224.85146 Z" fill="white"/>
      </g>
      <g id="Graphic_41">
        <rect x="271.88236" y="221.99298" width=".6251838" height="2.8584212" fill="white"/>
      </g>
      <g id="Graphic_40">
        <path d="M 274.1718 222.57282 L 273.30734 222.57282 L 273.30734 221.99304 L 275.66144 221.99304 L 275.66144 222.57282 L 274.79698 222.57282 L 274.79698 224.85146 L 274.1718 224.85146 Z" fill="white"/>
      </g>
      <g id="Graphic_39">
        <path d="M 276.4329 221.99304 L 278.57655 221.99304 L 278.57655 222.55258 L 277.05378 222.55258 L 277.05378 223.13236 L 278.39372 223.13236 L 278.39372 223.6919 L 277.05378 223.6919 L 277.05378 224.29193 L 278.5968 224.29193 L 278.5968 224.85146 L 276.4329 224.85146 Z" fill="white"/>
      </g>
      <g id="Graphic_38">
        <path d="M 280.5534 224.28383 C 281.06508 224.28383 281.40988 223.93718 281.40988 223.4304 L 281.40988 223.42244 C 281.40988 222.91566 281.06508 222.56043 280.5534 222.56043 L 280.07055 222.56043 L 280.07055 224.28383 Z M 279.44537 221.99292 L 280.5534 221.99292 C 281.4467 221.99292 282.0633 222.6095 282.0633 223.41385 L 282.0633 223.42244 C 282.0633 224.22677 281.4467 224.85134 280.5534 224.85134 L 279.44537 224.85134 Z" fill="white"/>
      </g>
      <g id="Graphic_37">
        <path d="M 284.42205 221.99304 L 285.04723 221.99304 L 285.04723 223.2428 L 286.20005 221.99304 L 286.9553 221.99304 L 285.7982 223.20598 L 287.00807 224.85146 L 286.2571 224.85146 L 285.3761 223.63484 L 285.04723 223.9778 L 285.04723 224.85146 L 284.42205 224.85146 Z" fill="white"/>
      </g>
      <g id="Graphic_36">
        <rect x="287.70644" y="221.99298" width=".6251838" height="2.8584212" fill="white"/>
      </g>
      <g id="Graphic_35">
        <path d="M 289.33395 221.99304 L 289.91066 221.99304 L 291.242 223.75325 L 291.242 221.99304 L 291.85922 221.99304 L 291.85922 224.85146 L 291.3273 224.85146 L 289.95115 223.0342 L 289.95115 224.85146 L 289.33395 224.85146 Z" fill="white"/>
      </g>
      <g id="Graphic_34">
        <path d="M 292.62638 223.43035 L 292.62638 223.42237 C 292.62638 222.60945 293.25585 221.94377 294.11602 221.94377 C 294.6277 221.94377 294.9363 222.08243 295.23264 222.33582 L 294.83875 222.81376 C 294.61972 222.6297 294.42462 222.52356 294.09577 222.52356 C 293.64115 222.52356 293.27978 222.92849 293.27978 223.41379 L 293.27978 223.42237 C 293.27978 223.9451 293.63747 224.32855 294.14056 224.32855 C 294.36818 224.32855 294.57064 224.2715 294.72893 224.15738 L 294.72893 223.74877 L 294.10007 223.74877 L 294.10007 223.2058 L 295.33387 223.2058 L 295.33387 224.44696 C 295.04183 224.69606 294.63997 224.90036 294.1203 224.90036 C 293.2356 224.90036 292.62638 224.2758 292.62638 223.43035" fill="white"/>
      </g>
      <g id="Graphic_33">
        <path d="M 297.33544 224.28383 C 297.84712 224.28383 298.19192 223.93718 298.19192 223.4304 L 298.19192 223.42244 C 298.19192 222.91566 297.84712 222.56043 297.33544 222.56043 L 296.8526 222.56043 L 296.8526 224.28383 Z M 296.2274 221.99292 L 297.33544 221.99292 C 298.22873 221.99292 298.84533 222.6095 298.84533 223.41385 L 298.84533 223.42244 C 298.84533 224.22677 298.22873 224.85134 297.33544 224.85134 L 296.2274 224.85134 Z" fill="white"/>
      </g>
      <g id="Graphic_32">
        <path d="M 301.85376 223.43035 L 301.85376 223.42237 C 301.85376 222.93217 301.4967 222.52356 300.99298 222.52356 C 300.4899 222.52356 300.1408 222.9242 300.1408 223.41379 L 300.1408 223.42237 C 300.1408 223.91197 300.49786 224.32058 301.00157 224.32058 C 301.50466 224.32058 301.85376 223.92056 301.85376 223.43035 M 299.48677 223.43035 L 299.48677 223.42237 C 299.48677 222.60945 300.12423 221.94377 301.00157 221.94377 C 301.8783 221.94377 302.50716 222.60148 302.50716 223.41379 L 302.50716 223.42237 C 302.50716 224.23468 301.8697 224.90036 300.99298 224.90036 C 300.11625 224.90036 299.48677 224.24266 299.48677 223.43035" fill="white"/>
      </g>
      <g id="Graphic_31">
        <path d="M 303.1932 221.99304 L 303.86747 221.99304 L 304.61414 223.2017 L 305.3608 221.99304 L 306.03506 221.99304 L 306.03506 224.85146 L 305.41356 224.85146 L 305.41356 222.98511 L 304.61414 224.20603 L 304.59757 224.20603 L 303.80612 222.99738 L 303.80612 224.85146 L 303.1932 224.85146 Z" fill="white"/>
      </g>
      <g id="Graphic_30">
        <path d="M 265.92262 226.40099 L 266.2441 226.40099 L 266.2441 228.96614 L 267.84603 228.96614 L 267.84603 229.26431 L 265.92262 229.26431 Z" fill="white"/>
      </g>
      <g id="Graphic_29">
        <rect x="268.8135" y="226.40117" width=".3208745" height="2.8633294" fill="white"/>
      </g>
      <g id="Graphic_28">
        <path d="M 270.07013 226.40099 L 270.4278 226.40099 L 271.44074 228.86736 L 272.45736 226.40099 L 272.80277 226.40099 L 271.5788 229.28517 L 271.2941 229.28517 Z" fill="white"/>
      </g>
      <g id="Graphic_27">
        <path d="M 273.7095 226.40099 L 275.76727 226.40099 L 275.76727 226.69548 L 274.031 226.69548 L 274.031 227.67283 L 275.58444 227.67283 L 275.58444 227.96793 L 274.031 227.96793 L 274.031 228.96982 L 275.78752 228.96982 L 275.78752 229.26431 L 273.7095 229.26431 Z" fill="white"/>
      </g>
      <g id="Graphic_26">
        <path d="M 277.97517 227.86124 C 278.4022 227.86124 278.7071 227.64037 278.7071 227.27225 L 278.7071 227.26428 C 278.7071 226.91211 278.439 226.69983 277.97947 226.69983 L 277.1009 226.69983 L 277.1009 227.86124 Z M 276.7794 226.40105 L 278.0034 226.40105 C 278.35372 226.40105 278.6341 226.5072 278.81264 226.68756 C 278.9513 226.82622 279.03228 227.02684 279.03228 227.252 L 279.03228 227.25998 C 279.03228 227.73424 278.7071 228.01278 278.25985 228.09438 L 279.13412 229.26438 L 278.73963 229.26438 L 277.91443 228.15205 L 277.1009 228.15205 L 277.1009 229.26438 L 276.7794 229.26438 Z" fill="white"/>
      </g>
      <g id="Graphic_25">
        <path d="M 281.08993 227.95953 C 281.56173 227.95953 281.87094 227.70614 281.87094 227.32944 L 281.87094 227.32146 C 281.87094 226.91224 281.5654 226.69934 281.1065 226.69934 L 280.3862 226.69934 L 280.3862 227.95953 Z M 280.06534 226.40117 L 281.13042 226.40117 C 281.7734 226.40117 282.1961 226.74474 282.1961 227.3092 L 282.1961 227.31717 C 282.1961 227.935 281.68382 228.25402 281.07765 228.25402 L 280.3862 228.25402 L 280.3862 229.2645 L 280.06534 229.2645 Z" fill="white"/>
      </g>
      <g id="Graphic_24">
        <path d="M 285.48983 227.84093 L 285.48983 227.83296 C 285.48983 227.182 285.01803 226.6507 284.3677 226.6507 C 283.71674 226.6507 283.2529 227.17403 283.2529 227.82437 L 283.2529 227.83296 C 283.2529 228.4833 283.7247 229.0146 284.37567 229.0146 C 285.02662 229.0146 285.48983 228.49127 285.48983 227.84093 M 282.91977 227.84093 L 282.91977 227.83296 C 282.91977 227.04335 283.50937 226.3519 284.37567 226.3519 C 285.24197 226.3519 285.82298 227.03476 285.82298 227.82437 L 285.82298 227.83296 C 285.82298 228.62195 285.234 229.3134 284.3677 229.3134 C 283.5014 229.3134 282.91977 228.63054 282.91977 227.84093" fill="white"/>
      </g>
      <g id="Graphic_23">
        <path d="M 289.1291 227.84093 L 289.1291 227.83296 C 289.1291 227.182 288.6573 226.6507 288.00695 226.6507 C 287.356 226.6507 286.89217 227.17403 286.89217 227.82437 L 286.89217 227.83296 C 286.89217 228.4833 287.36397 229.0146 288.01492 229.0146 C 288.66588 229.0146 289.1291 228.49127 289.1291 227.84093 M 286.55903 227.84093 L 286.55903 227.83296 C 286.55903 227.04335 287.14862 226.3519 288.01492 226.3519 C 288.88122 226.3519 289.46223 227.03476 289.46223 227.82437 L 289.46223 227.83296 C 289.46223 228.62195 288.87325 229.3134 288.00695 229.3134 C 287.14065 229.3134 286.55903 228.63054 286.55903 227.84093" fill="white"/>
      </g>
      <g id="Graphic_22">
        <path d="M 290.4056 226.40099 L 290.72708 226.40099 L 290.72708 228.96614 L 292.329 228.96614 L 292.329 229.26431 L 290.4056 229.26431 Z" fill="white"/>
      </g>
      <g id="Graphic_21">
        <path d="M 294.62635 229.01492 L 295.6589 228.09892 C 296.09452 227.70565 296.2528 227.48478 296.2528 227.19888 C 296.2528 226.86328 295.98838 226.65038 295.67978 226.65038 C 295.354 226.65038 295.14294 226.82217 294.91532 227.1412 L 294.6791 226.96942 C 294.93557 226.58474 295.20368 226.36019 295.7037 226.36019 C 296.2166 226.36019 296.58657 226.70376 296.58657 227.17004 L 296.58657 227.17802 C 296.58657 227.59522 296.36693 227.8535 295.8669 228.29095 L 295.10613 228.97013 L 296.6148 228.97013 L 296.6148 229.26462 L 294.62635 229.26462 Z" fill="white"/>
      </g>
      <g id="Graphic_20">
        <path d="M 299.53463 227.84093 L 299.53463 227.83296 C 299.53463 227.20655 299.1929 226.6464 298.66403 226.6464 C 298.1315 226.6464 297.79835 227.19428 297.79835 227.82437 L 297.79835 227.83296 C 297.79835 228.45875 298.14008 229.0189 298.67262 229.0189 C 299.20516 229.0189 299.53463 228.46673 299.53463 227.84093 M 297.4646 227.84093 L 297.4646 227.83296 C 297.4646 227.03108 297.94007 226.3519 298.67262 226.3519 C 299.40456 226.3519 299.86777 227.0225 299.86777 227.82437 L 299.86777 227.83296 C 299.86777 228.63484 299.3966 229.3134 298.66403 229.3134 C 297.9284 229.3134 297.4646 228.6428 297.4646 227.84093" fill="white"/>
      </g>
      <g id="Graphic_19">
        <path d="M 300.45743 229.01492 L 301.4906 228.09892 C 301.9256 227.70565 302.0839 227.48478 302.0839 227.19888 C 302.0839 226.86328 301.82007 226.65038 301.51086 226.65038 C 301.1857 226.65038 300.97402 226.82217 300.7464 227.1412 L 300.5102 226.96942 C 300.76665 226.58474 301.03476 226.36019 301.5354 226.36019 C 302.0477 226.36019 302.41765 226.70376 302.41765 227.17004 L 302.41765 227.17802 C 302.41765 227.59522 302.198 227.8535 301.698 228.29095 L 300.9372 228.97013 L 302.44587 228.97013 L 302.44587 229.26462 L 300.45743 229.26462 Z" fill="white"/>
      </g>
      <g id="Graphic_18">
        <path d="M 303.16566 228.80215 L 303.39757 228.59355 C 303.6172 228.8635 303.88165 229.01872 304.23136 229.01872 C 304.57677 229.01872 304.85347 228.79785 304.85347 228.46225 L 304.85347 228.45428 C 304.85347 228.09843 304.524 227.9021 304.0565 227.9021 L 303.87306 227.9021 L 303.80802 227.71007 L 304.70684 226.691 L 303.31598 226.691 L 303.31598 226.4008 L 305.13386 226.4008 L 305.13386 226.63824 L 304.23933 227.63644 C 304.73568 227.67694 305.17864 227.91867 305.17864 228.442 L 305.17864 228.44998 C 305.17864 228.96166 304.75592 229.3132 304.22706 229.3132 C 303.75097 229.3132 303.39757 229.10461 303.16566 228.80215" fill="white"/>
      </g>
      <g id="Graphic_17">
        <path d="M 256.3934 219.1059 L 256.99464 218.38195 C 257.4106 218.72736 257.84622 218.9464 258.37446 218.9464 C 258.79044 218.9464 259.04137 218.78012 259.04137 218.50772 L 259.04137 218.49483 C 259.04137 218.2353 258.88308 218.1028 258.11003 217.9034 C 257.1793 217.66412 256.57806 217.4052 256.57806 216.48185 L 256.57806 216.46836 C 256.57806 215.62476 257.2517 215.06645 258.19593 215.06645 C 258.86958 215.06645 259.44446 215.27934 259.9132 215.65789 L 259.38494 216.42848 C 258.9751 216.14257 258.57263 215.97017 258.18304 215.97017 C 257.79345 215.97017 257.58854 216.14932 257.58854 216.3751 L 257.58854 216.3886 C 257.58854 216.69413 257.7867 216.79414 258.58552 217.00028 C 259.5236 217.2457 260.05185 217.58436 260.05185 218.39544 L 260.05185 218.40833 C 260.05185 219.33168 259.3518 219.85011 258.35483 219.85011 C 257.6548 219.85011 256.948 219.6041 256.3934 219.1059" fill="white"/>
      </g>
      <g id="Graphic_16">
        <path d="M 264.92466 217.47166 L 264.92466 217.45816 C 264.92466 216.66119 264.34365 215.99674 263.5246 215.99674 C 262.70615 215.99674 262.13802 216.6477 262.13802 217.44527 L 262.13802 217.45816 C 262.13802 218.25574 262.71903 218.9202 263.5381 218.9202 C 264.35653 218.9202 264.92466 218.26863 264.92466 217.47166 M 261.07478 217.47166 L 261.07478 217.45816 C 261.07478 216.136 262.11164 215.05313 263.5381 215.05313 C 264.96454 215.05313 265.9879 216.12312 265.9879 217.44527 L 265.9879 217.45816 C 265.9879 218.7803 264.95104 219.86318 263.5246 219.86318 C 262.09814 219.86318 261.07478 218.7938 261.07478 217.47166" fill="white"/>
      </g>
      <g id="Graphic_15">
        <path d="M 267.23514 215.13308 L 268.1726 215.13308 L 270.33897 217.9964 L 270.33897 215.13308 L 271.3427 215.13308 L 271.3427 219.7836 L 270.47763 219.7836 L 268.23887 216.82702 L 268.23887 219.7836 L 267.23514 219.7836 Z" fill="white"/>
      </g>
      <g id="Graphic_14">
        <path d="M 272.58994 217.47166 L 272.58994 217.45816 C 272.58994 216.136 273.6133 215.05313 275.01337 215.05313 C 275.8453 215.05313 276.34718 215.2789 276.8294 215.6912 L 276.1889 216.46854 C 275.83243 216.16975 275.51524 215.99674 274.98024 215.99674 C 274.24094 215.99674 273.65318 216.65444 273.65318 217.44527 L 273.65318 217.45816 C 273.65318 218.3085 274.2342 218.93308 275.05325 218.93308 C 275.4226 218.93308 275.75267 218.84043 276.01035 218.65454 L 276.01035 217.99009 L 274.987 217.99009 L 274.987 217.106 L 276.99445 217.106 L 276.99445 219.12634 C 276.51897 219.53126 275.86556 219.86318 275.02012 219.86318 C 273.58017 219.86318 272.58994 218.84718 272.58994 217.47166" fill="white"/>
      </g>
      <g id="Graphic_13">
        <path d="M 280.434 217.47166 L 280.434 217.45816 C 280.434 216.136 281.42424 215.05313 282.84394 215.05313 C 283.71576 215.05313 284.23787 215.34579 284.66672 215.77096 L 284.01945 216.52192 C 283.663 216.19613 283.2998 215.99674 282.8378 215.99674 C 282.05862 215.99674 281.49725 216.6477 281.49725 217.44527 L 281.49725 217.45816 C 281.49725 218.25574 282.04513 218.9202 282.8378 218.9202 C 283.36605 218.9202 283.68938 218.7073 284.0526 218.37538 L 284.69986 219.03308 C 284.22437 219.54476 283.69613 219.86318 282.80467 219.86318 C 281.44448 219.86318 280.434 218.8073 280.434 217.47166" fill="white"/>
      </g>
      <g id="Graphic_12">
        <path d="M 289.368 217.47166 L 289.368 217.45816 C 289.368 216.66119 288.787 215.99674 287.96793 215.99674 C 287.1495 215.99674 286.58136 216.6477 286.58136 217.44527 L 286.58136 217.45816 C 286.58136 218.25574 287.16237 218.9202 287.98143 218.9202 C 288.79987 218.9202 289.368 218.26863 289.368 217.47166 M 285.5181 217.47166 L 285.5181 217.45816 C 285.5181 216.136 286.55498 215.05313 287.98143 215.05313 C 289.40726 215.05313 290.43124 216.12312 290.43124 217.44527 L 290.43124 217.45816 C 290.43124 218.7803 289.39438 219.86318 287.96793 219.86318 C 286.54148 219.86318 285.5181 218.7938 285.5181 217.47166" fill="white"/>
      </g>
      <g id="Graphic_11">
        <path d="M 291.67848 215.13308 L 292.61595 215.13308 L 294.7823 217.9964 L 294.7823 215.13308 L 295.78604 215.13308 L 295.78604 219.7836 L 294.92097 219.7836 L 292.6822 216.82702 L 292.6822 219.7836 L 291.67848 219.7836 Z" fill="white"/>
      </g>
      <g id="Graphic_10">
        <path d="M 298.3144 216.07637 L 296.90757 216.07637 L 296.90757 215.13338 L 300.7378 215.13338 L 300.7378 216.07637 L 299.331 216.07637 L 299.331 219.7833 L 298.3144 219.7833 Z" fill="white"/>
      </g>
      <g id="Graphic_9">
        <path d="M 301.8599 215.13308 L 305.34657 215.13308 L 305.34657 216.04355 L 302.87037 216.04355 L 302.87037 216.98654 L 305.0496 216.98654 L 305.0496 217.89701 L 302.87037 217.89701 L 302.87037 218.87375 L 305.3797 218.87375 L 305.3797 219.7836 L 301.8599 219.7836 Z" fill="white"/>
      </g>
      <g id="Graphic_8">
        <path d="M 306.3103 219.1059 L 306.91094 218.38195 C 307.3269 218.72736 307.76312 218.9464 308.29137 218.9464 C 308.70734 218.9464 308.95827 218.78012 308.95827 218.50772 L 308.95827 218.49483 C 308.95827 218.2353 308.8 218.1028 308.02694 217.9034 C 307.09622 217.66412 306.49496 217.4052 306.49496 216.48185 L 306.49496 216.46836 C 306.49496 215.62476 307.1686 215.06645 308.11283 215.06645 C 308.7865 215.06645 309.36136 215.27934 309.8301 215.65789 L 309.30185 216.42848 C 308.892 216.14257 308.48954 215.97017 308.09995 215.97017 C 307.71036 215.97017 307.50544 216.14932 307.50544 216.3751 L 307.50544 216.3886 C 307.50544 216.69413 307.7036 216.79414 308.50242 217.00028 C 309.4405 217.2457 309.96875 217.58436 309.96875 218.39544 L 309.96875 218.40833 C 309.96875 219.33168 309.26872 219.85011 308.27174 219.85011 C 307.5717 219.85011 306.86492 219.6041 306.3103 219.1059" fill="white"/>
      </g>
      <g id="Graphic_7">
        <path d="M 312.17365 216.07637 L 310.76683 216.07637 L 310.76683 215.13338 L 314.59708 215.13338 L 314.59708 216.07637 L 313.19087 216.07637 L 313.19087 219.7833 L 312.17365 219.7833 Z" fill="white"/>
      </g>
    </g>
  </g>
</svg>
