<?xml version="1.0" encoding="UTF-8" standalone="no"?>
<!DOCTYPE svg PUBLIC "-//W3C//DTD SVG 1.1//EN" "http://www.w3.org/Graphics/SVG/1.1/DTD/svg11.dtd">
<svg xmlns:xl="http://www.w3.org/1999/xlink" version="1.1" xmlns="http://www.w3.org/2000/svg" xmlns:dc="http://purl.org/dc/elements/1.1/" viewBox="0 0 400 300" width="400" height="300">
  <defs/>
  <g id="Canvas_1" stroke="none" fill="none" fill-opacity="1" stroke-dasharray="none" stroke-opacity="1">
    <title>Canvas 1</title>
    <rect fill="white" x="0" y="0" width="400" height="300"/>
    <g id="Canvas_1_Layer_1">
      <title>Layer 1</title>
      <g id="Group_2">
        <title>Canvas_1</title>
        <g id="Graphic_90">
          <rect x="0" y="0" width="400" height="300" fill="white"/>
        </g>
        <g id="Group_3">
          <title>Canvas_1_Layer_1</title>
          <g id="Group_88">
            <title>Graphic_2</title>
            <g id="Graphic_89">
              <rect x="-5684342e-20" y="-5684342e-20" width="651.969" height="651.969" fill="black"/>
            </g>
          </g>
          <g id="Group_86">
            <title>Graphic_3</title>
            <g id="Graphic_87">
              <rect x="42.52" y="58.606" width="145.586" height="61.677" fill="black"/>
            </g>
          </g>
          <g id="Group_84">
            <title>Graphic_4</title>
            <g id="Graphic_85">
              <path d="M 116.198 111.606 C 115.853 110.019 114.773 110.793 114.582 111.761 C 114.389 112.73 113.213 114.918 110.363 114.918 C 108.324 114.918 104.578 112.651 104.497 105.409 C 104.402 96.693 114.181 92.695 115.541 89.927 C 117.068 94.495 128.674 101.729 128.982 110.793 C 129.095 114.123 127.788 118.037 124.016 118.037 C 119.897 118.037 116.546 113.195 116.198 111.606" fill="black"/>
            </g>
          </g>
          <g id="Group_82">
            <title>Graphic_5</title>
            <g id="Graphic_83">
              <rect x="253.191" y="60.26" width="145.587" height="58.298" fill="black"/>
            </g>
          </g>
          <g id="Group_4">
            <title>Group_6</title>
            <g id="Group_80">
              <title>Graphic_113</title>
              <g id="Graphic_81">
                <rect x="-33819413e-14" y="-1822845e-12" width="400" height="300" fill="#01025e"/>
              </g>
            </g>
            <g id="Group_5">
              <title>Group_75</title>
              <g id="Group_78">
                <title>Graphic_112</title>
                <g id="Graphic_79">
                  <path d="M 389.29126 174.31453 C 392.6497 167.7915 398.68375 168.421 401.89004 175.1428 C 408.737 167.22768 414.5888 170.82847 415.1686 178.33497 C 415.4588 182.0879 414.4305 186.8176 411.55 191.57242 C 408.6695 196.32726 403.93676 201.10724 396.81617 204.96142 C 391.946 199.36728 389.2164 193.35042 388.12863 187.90967 C 387.04085 182.4689 387.59486 177.60426 389.29126 174.31453" fill="#02025e"/>
                </g>
              </g>
              <g id="Group_76">
                <title>Graphic_111</title>
                <g id="Graphic_77">
                  <path d="M 375.43366 169.96966 C 379.62773 161.89135 386.0403 164.41417 389.1607 171.0648 C 397.24085 159.91088 404.16144 164.20128 404.90564 173.67597 C 405.27744 178.413 404.105 184.44705 400.76127 190.49397 C 397.41816 196.5409 391.90317 202.60192 383.5899 207.39356 C 378.3393 201.24602 375.23365 193.94076 373.97346 187.14718 C 372.7139 180.35298 373.30043 174.07108 375.43366 169.96966" fill="#ff0087"/>
                </g>
              </g>
              <g id="Group_74">
                <title>Graphic_110</title>
                <g id="Graphic_75">
                  <path d="M 357.0789 162.19014 C 362.8172 151.14481 371.54157 154.66953 375.77183 163.69082 C 386.8061 148.3821 396.2575 154.24067 397.27595 167.20388 C 397.78517 173.68517 396.18694 181.94202 391.6235 190.21727 C 387.0601 198.4919 379.53275 206.78494 368.18435 213.3374 C 361.03737 204.9646 356.80097 194.98253 355.08187 185.69128 C 353.36215 176.40003 354.15974 167.7996 357.0789 162.19014" fill="#fff800"/>
                </g>
              </g>
              <g id="Group_72">
                <title>Graphic_109</title>
                <g id="Graphic_73">
                  <path d="M 345.7002 158.564 C 351.979 146.67815 361.32855 150.6219 365.79626 160.31992 C 377.80666 143.80869 387.9593 150.1955 388.96916 164.20723 C 389.4741 171.2137 387.69303 180.1258 382.71487 189.03604 C 377.73733 197.94568 369.5633 206.85286 357.2811 213.8483 C 349.6556 204.7908 345.16274 193.98843 343.37553 183.94132 C 341.5877 173.8936 342.50555 164.60111 345.7002 158.564" fill="#0043ff"/>
                </g>
              </g>
              <g id="Group_70">
                <title>Graphic_108</title>
                <g id="Graphic_71">
                  <path d="M 341.83853 161.31923 C 347.01363 151.52244 354.72013 154.7729 358.40314 162.76654 C 368.3018 149.1573 376.6709 154.42135 377.50284 165.971 C 377.9188 171.7455 376.45125 179.09188 372.348 186.4358 C 368.24533 193.7797 361.5076 201.12178 351.3844 206.8877 C 345.0988 199.42232 341.39556 190.5182 339.9225 182.23682 C 338.4488 173.95482 339.20527 166.29555 341.83853 161.31923" fill="#02025e"/>
                </g>
              </g>
              <g id="Group_68">
                <title>Graphic_107</title>
                <g id="Graphic_69">
                  <path d="M 366.23284 168.25196 C 365.74386 157.99502 357.03485 155.56116 350.30446 165.92608 C 349.6719 164.55178 348.75776 163.26767 347.6712 162.31119 C 347.40984 162.62531 347.1411 162.92594 346.8632 163.20387 C 344.30417 165.76227 340.54877 167.36603 336.92037 167.47647 C 335.7976 170.957 335.705 175.4603 336.6277 180.1955 C 337.87134 186.50807 340.9261 193.20226 345.5711 198.26324 C 351.57753 194.8416 357.99134 189.6119 361.8682 183.46375 C 365.11684 178.3132 366.4537 172.88164 366.23284 168.25196" fill="#ff0087"/>
                </g>
              </g>
              <g id="Group_66">
                <title>Graphic_106</title>
                <g id="Graphic_67">
                  <path d="M 331.23286 163.65438 C 334.24037 156.99761 340.618 156.50004 344.4108 164.0004 C 350.9958 156.53072 356.91386 160.03273 357.6832 167.45334 C 358.0679 171.16395 357.1654 175.85375 354.41497 180.6417 C 351.66453 185.43028 347.06676 190.3158 340.0609 194.41845 C 334.7588 188.57093 331.79546 182.55162 330.5365 177.1581 C 329.27693 171.7646 329.72113 166.99749 331.23286 163.65438" fill="#fff800"/>
                </g>
              </g>
              <g id="Group_64">
                <title>Graphic_105</title>
                <g id="Graphic_65">
                  <path d="M 328.9444 165.51085 C 331.69423 159.5173 336.43925 161.03763 338.9492 165.8354 C 344.4163 157.55157 349.5583 160.43514 350.40864 167.26615 C 350.8338 170.68165 350.18593 175.0831 347.96987 179.5692 C 345.7538 184.0553 341.96896 188.62486 336.1196 192.37596 C 332.0973 188.0598 329.60456 182.86445 328.46647 177.98753 C 327.329 173.11122 327.54618 168.55272 328.9444 165.51085" fill="#0043ff"/>
                </g>
              </g>
              <g id="Group_62">
                <title>Graphic_104</title>
                <g id="Graphic_63">
                  <path d="M 314.896 199.20684 C 314.896 199.20684 344.8398 186.1418 344.3729 164.31987 C 343.94096 144.16613 321.7454 148.96207 317.1096 162.66826 C 317.1096 162.66826 311.0995 152.45733 303.2586 161.14671 C 295.08582 170.2036 304.66114 192.61695 314.896 199.20684" fill="#02025e"/>
                </g>
              </g>
              <g id="Group_60">
                <title>Graphic_103</title>
                <g id="Graphic_61">
                  <path d="M 300.1635 205.66115 C 300.1635 205.66115 338.0586 189.1266 337.46715 161.50992 C 336.9217 136.005 308.832 142.07462 302.96486 159.41963 C 302.96486 159.41963 295.35958 146.49753 285.4358 157.49439 C 275.09295 168.9563 287.2107 197.32086 300.1635 205.66115" fill="#ff0087"/>
                </g>
              </g>
              <g id="Group_58">
                <title>Graphic_102</title>
                <g id="Graphic_59">
                  <path d="M 276.4219 217.63713 C 276.4219 217.63713 331.9786 193.39668 331.1123 152.90821 C 330.31165 115.51621 289.1299 124.41419 280.52886 149.84426 C 280.52886 149.84426 269.37862 130.89917 254.83006 147.02142 C 239.66675 163.8253 257.43203 205.41015 276.4219 217.63713" fill="#fff800"/>
                </g>
              </g>
              <g id="Group_56">
                <title>Graphic_101</title>
                <g id="Graphic_57">
                  <path d="M 270.10584 216.52855 C 270.10584 216.52855 326.0325 190.25978 327.0485 144.22932 C 327.98595 101.71928 286.949 110.88414 277.289 139.58431 C 277.289 139.58431 267.1646 117.7992 252.06815 135.78536 C 236.3324 154.5329 251.93747 202.19717 270.10584 216.52855" fill="#0043ff"/>
                </g>
              </g>
              <g id="Group_54">
                <title>Graphic_100</title>
                <g id="Graphic_55">
                  <path d="M 236.07246 238.8586 C 236.07246 238.8586 317.91448 203.30717 322.06008 135.97138 C 325.8891 73.78369 266.4267 85.06767 250.87993 126.58319 C 250.87993 126.58319 237.61364 94.16321 214.88493 119.71108 C 191.19543 146.33937 210.8203 216.93298 236.07246 238.8586" fill="#02025e"/>
                </g>
              </g>
              <g id="Group_52">
                <title>Graphic_99</title>
                <g id="Graphic_53">
                  <path d="M 236.3796 235.22933 C 236.3796 235.22933 313.21032 189.6768 313.12014 116.13152 C 313.0367 48.209194 256.3315 65.4947 243.84928 111.93499 C 243.84928 111.93499 229.07494 77.81309 208.69052 107.50226 C 187.4441 138.44733 210.67466 213.52705 236.3796 235.22933" fill="#ff0087"/>
                </g>
              </g>
              <g id="Group_50">
                <title>Graphic_98</title>
                <g id="Graphic_51">
                  <path d="M 208.06564 261.18618 C 208.06564 261.18618 311.66454 197.2794 311.7719 94.48727 C 311.8707 -.445565 235.4596 23.889974 218.50664 88.8373 C 218.50664 88.8373 198.71856 41.192043 171.17734 82.75173 C 142.47165 126.06856 173.5198 230.9338 208.06564 261.18618" fill="#fff800"/>
                </g>
              </g>
              <g id="Group_48">
                <title>Graphic_97</title>
                <g id="Graphic_49">
                  <path d="M 305.36485 90.58175 C 306.32134 209.844 168.61403 282.88435 168.61403 282.88435 C 166.30594 281.12475 164.0089 279.1492 161.72903 276.97793 L 161.7235 276.9724 C 139.512 255.83825 119.10242 216.27866 109.17065 176.2767 C 99.60208 137.72637 99.76774 98.75944 117.4324 75.46567 C 148.60201 34.364287 172.8584 69.32734 179.13356 80.11559 C 180.1741 81.90586 180.72014 83.03046 180.72014 83.03046 C 183.60187 73.157585 187.86282 64.10929 193.0919 56.08866 C 227.67457 3.0296347 304.59794 -5.0953 305.36485 90.58175" fill="#0043ff"/>
                </g>
              </g>
              <g id="Group_46">
                <title>Graphic_96</title>
                <g id="Graphic_47">
                  <path d="M 290.11988 95.69592 C 290.91194 206.0387 161.72897 276.97836 161.72897 276.97836 L 161.72345 276.97284 C 139.51194 255.83868 119.10236 216.27847 109.17059 176.27653 C 101.26713 139.95636 102.18497 103.33678 118.30784 81.83328 C 151.5702 37.46671 176.16525 88.79129 176.16525 88.79129 C 177.02665 85.81691 178.01995 82.92168 179.1335 80.11541 C 182.69502 71.14565 187.4879 63.06611 193.09184 56.08847 C 226.72293 14.195024 289.51862 12.071608 290.11988 95.69592" fill="#02025e"/>
                </g>
              </g>
              <g id="Group_44">
                <title>Graphic_95</title>
                <g id="Graphic_45">
                  <path d="M 155.5434 270.64553 C 155.5434 270.64553 273.02273 207.52467 272.28343 104.60003 C 271.59996 9.544491 184.76015 33.2708 165.99237 98.16046 C 165.99237 98.16046 143.05137 50.28819 112.02594 91.67057 C 79.6894 134.80273 115.93717 240.0643 155.5434 270.64553" fill="#fff800"/>
                </g>
              </g>
              <g id="Group_42">
                <title>Graphic_94</title>
                <g id="Graphic_43">
                  <path d="M 153.13665 252.8691 C 153.13665 252.8691 257.0785 199.19776 256.22326 111.30944 C 255.43365 30.140462 178.5569 50.231624 162.05794 105.60487 C 162.05794 105.60487 141.64345 64.681406 114.2415 99.95797 C 85.68061 136.7254 117.99384 226.67886 153.13665 252.8691" fill="#ff0087"/>
                </g>
              </g>
              <g id="Group_40">
                <title>Graphic_93</title>
                <g id="Graphic_41">
                  <path d="M 147.49963 248.0894 C 147.49963 248.0894 244.32397 196.42677 243.681 112.12451 C 243.0871 34.267964 171.50816 53.673816 156.05833 106.81628 C 156.05833 106.81628 137.13102 67.59842 111.56843 101.48289 C 84.92542 136.80056 113.87038 223.24893 147.49963 248.0894" fill="#0043ff"/>
                </g>
              </g>
              <g id="Group_38">
                <title>Graphic_92</title>
                <g id="Graphic_39">
                  <path d="M 141.83358 234.50402 C 141.83358 234.50402 225.35728 189.5043 224.84253 116.14919 C 224.36766 48.402946 162.62969 65.32217 149.28119 111.57166 C 149.28119 111.57166 132.97733 77.45528 110.91674 106.9518 C 87.92299 137.69625 114.32734 212.06857 141.83358 234.50402" fill="#fff800"/>
                </g>
              </g>
              <g id="Group_36">
                <title>Graphic_91</title>
                <g id="Graphic_37">
                  <path d="M 135.26658 217.16864 C 135.26658 217.16864 203.19135 181.17548 202.7177 122.39961 C 202.27965 68.11783 152.06003 81.6283 141.23313 118.67489 C 141.23313 118.67489 127.9423 91.32694 110.01443 114.94465 C 91.32947 139.56057 112.50596 199.11868 135.26658 217.16864" fill="#ff0087"/>
                </g>
              </g>
              <g id="Group_34">
                <title>Graphic_90</title>
                <g id="Graphic_35">
                  <path d="M 129.59287 203.34398 C 129.59287 203.34398 182.83104 174.7389 182.49605 128.09676 C 182.18684 85.01982 142.83339 95.77249 134.32807 125.17883 C 134.32807 125.17883 123.93186 103.48391 109.87228 122.23758 C 95.21758 141.78393 111.64414 189.48564 129.59287 203.34398" fill="#02025e"/>
                </g>
              </g>
              <g id="Group_32">
                <title>Graphic_89</title>
                <g id="Graphic_33">
                  <path d="M 128.08224 184.90725 C 128.08224 184.90725 163.91343 165.6554 163.68827 134.26307 C 163.47967 105.27086 136.99372 112.50741 131.26951 132.29917 C 131.26951 132.29917 124.27224 117.69785 114.8092 130.31932 C 104.94676 143.47518 116.0019 175.5798 128.08224 184.90725" fill="#fff800"/>
                </g>
              </g>
              <g id="Group_30">
                <title>Graphic_88</title>
                <g id="Graphic_31">
                  <path d="M 102.97274 197.79886 C 102.97274 197.79886 152.81933 171.2307 152.48558 127.87276 C 152.17758 87.8291 115.32733 97.8075 107.37418 125.1395 C 107.37418 125.1395 101.6782 122.04364 94.96744 121.13072 C 91.5458 120.66566 80.635455 129.35995 79.85321 133.70065 C 76.05425 154.7845 89.0285 187.10877 102.97274 197.79886" fill="#0043ff"/>
                </g>
              </g>
              <g id="Group_28">
                <title>Graphic_87</title>
                <g id="Graphic_29">
                  <path d="M 99.69055 183.8378 C 99.69055 183.8378 134.22904 162.18216 134.29714 127.40133 C 134.35972 95.28013 108.89284 103.5382 103.22324 125.51841 C 103.22324 125.51841 96.64501 109.40352 87.4556 123.47414 C 77.87722 138.13989 88.18938 173.61216 99.69055 183.8378" fill="#02025e"/>
                </g>
              </g>
              <g id="Group_26">
                <title>Graphic_86</title>
                <g id="Graphic_27">
                  <path d="M 99.00893 171.45494 C 99.00893 171.45494 122.09103 156.3088 122.19901 132.08248 C 122.29779 109.70838 105.29144 115.5056 101.4704 130.82659 C 101.4704 130.82659 97.11006 119.61377 90.95332 129.43081 C 84.53706 139.66321 91.35395 164.35276 99.00893 171.45494" fill="#fff800"/>
                </g>
              </g>
              <g id="Group_24">
                <title>Graphic_85</title>
                <g id="Graphic_25">
                  <path d="M 85.55342 175.22206 C 85.55342 175.22206 112.94126 156.67208 113.15415 127.04548 C 113.35048 99.68342 93.19061 106.79419 88.61124 125.53498 C 88.61124 125.53498 83.48707 111.82756 76.16217 123.84103 C 68.52744 136.36189 76.51311 166.54679 85.55342 175.22206" fill="#ff0087"/>
                </g>
              </g>
              <g id="Group_22">
                <title>Graphic_84</title>
                <g id="Graphic_23">
                  <path d="M 77.527635 166.70152 C 77.527635 166.70152 100.1226 151.39219 100.29868 126.94192 C 100.46127 104.36168 83.82978 110.23006 80.05107 125.69585 C 80.05107 125.69585 75.824485 114.38364 69.78125 124.29823 C 63.48217 134.63125 70.0696 159.54166 77.527635 166.70152" fill="#0043ff"/>
                </g>
              </g>
              <g id="Group_20">
                <title>Graphic_83</title>
                <g id="Graphic_21">
                  <path d="M 64.64701 169.41908 C 64.64701 169.41908 91.9103 150.94701 92.12196 121.44558 C 92.31829 94.20008 72.25106 101.28079 67.69194 119.94244 C 67.69194 119.94244 62.591694 106.29331 55.29993 118.25524 C 47.70017 130.72333 55.64841 160.78062 64.64701 169.41908" fill="#02025e"/>
                </g>
              </g>
              <g id="Group_18">
                <title>Graphic_82</title>
                <g id="Graphic_19">
                  <path d="M 45.36699 118.94466 C 50.26232 109.19817 55.17483 117.67159 56.393294 120.00606 C 64.331104 102.08188 72.11369 106.26551 73.69168 117.96731 C 74.48068 123.81852 73.71806 131.54957 70.64859 139.33645 C 67.5785 147.12333 62.20094 154.96666 53.759424 161.04303 C 49.548176 156.50906 46.18298 148.50438 44.504373 140.3733 C 42.82515 132.24224 42.83251 123.98417 45.36699 118.94466" fill="#fff800"/>
                </g>
              </g>
              <g id="Group_16">
                <title>Graphic_81</title>
                <g id="Graphic_17">
                  <path d="M 45.57228 153.11657 C 42.198494 149.33479 39.546217 142.62464 38.287874 135.82002 C 37.02953 129.016 37.164507 122.11813 39.36584 117.96148 C 43.61574 109.92674 47.49139 117.2142 48.39818 119.03884 C 55.28502 104.13259 61.68226 107.73276 62.806244 117.51913 C 63.368235 122.412 62.61176 128.8522 59.93862 135.29852 C 57.265484 141.74485 52.67569 148.1973 45.57228 153.11657" fill="#ff0087"/>
                </g>
              </g>
              <g id="Group_14">
                <title>Graphic_80</title>
                <g id="Graphic_15">
                  <path d="M 34.73531 150.51816 C 31.51552 146.90878 28.957727 140.40846 27.741103 133.8014 C 26.523866 127.19432 26.647185 120.4805 28.789007 116.44472 C 32.92295 108.64864 36.61454 115.86126 37.42869 117.5006 C 44.090365 102.92995 50.28453 106.41049 51.379676 115.92077 C 51.92694 120.67622 51.19991 126.93848 48.618806 133.20566 C 46.0377 139.47284 41.603127 145.74492 34.73531 150.51816" fill="#0043ff"/>
                </g>
              </g>
              <g id="Group_12">
                <title>Graphic_79</title>
                <g id="Graphic_13">
                  <path d="M 20.677447 147.62078 C 17.537417 144.10097 15.017049 137.6663 13.814537 131.11077 C 12.61141 124.55585 12.72614 117.87945 14.855691 113.87619 C 18.963253 106.14575 22.556066 113.43384 23.300274 114.93207 C 29.88587 100.38228 36.013776 103.8211 37.104013 113.2645 C 37.64944 117.98621 36.93468 124.2086 34.38793 130.43405 C 31.84118 136.6595 27.461826 142.88803 20.677447 147.62078" fill="#02025e"/>
                </g>
              </g>
              <g id="Group_10">
                <title>Graphic_78</title>
                <g id="Graphic_11">
                  <path d="M 6.4346684 146.46121 C 3.2210152 142.85858 .6147535 136.17482 -.63254644 129.35056 C -1.88046 122.5263 -1.768798 115.56094 .4527824 111.39386 C 4.735813 103.35237 8.405316 111.07299 9.115167 112.5025 C 15.946174 97.26127 22.308447 100.82648 23.447152 110.66499 C 24.016505 115.58364 23.27966 122.07045 20.642108 128.55911 C 18.00517 135.04777 13.467526 141.53705 6.4346684 146.46121" fill="#fff800"/>
                </g>
              </g>
              <g id="Group_8">
                <title>Graphic_77</title>
                <g id="Graphic_9">
                  <path d="M -3.3289966 148.24584 C -7.029177 144.09717 -10.061226 136.2882 -11.517125 128.2964 C -12.97241 120.3046 -12.850932 112.13058 -10.244057 107.25182 C -5.2204996 97.84093 -1.0043437 107.03463 -.24602457 108.55986 C 7.724302 90.60377 15.154724 94.76287 16.492213 106.29165 C 17.16157 112.05635 16.306928 119.66347 13.234999 127.26997 C 10.162457 134.87709 4.872629 142.48298 -3.3289966 148.24584" fill="#ff0087"/>
                </g>
              </g>
              <g id="Group_6">
                <title>Graphic_76</title>
                <g id="Graphic_7">
                  <path d="M -20.619776 158.29927 C -25.981387 152.28794 -30.41964 140.80762 -32.556553 129.03282 C -34.692853 117.25863 -34.5272 105.18994 -30.67916 98.00247 C -23.265917 84.14597 -17.169915 97.91045 -16.159437 99.9449 C -4.4576404 73.3344 6.4625226 79.43777 8.439306 96.43614 C 9.427697 104.93533 8.181011 116.15857 3.6777245 127.37814 C -.825562 138.5977 -8.584835 149.81358 -20.619776 158.29927" fill="#0043ff"/>
                </g>
              </g>
            </g>
          </g>
        </g>
      </g>
    </g>
  </g>
</svg>
