<?xml version="1.0" encoding="UTF-8" standalone="no"?>
<!DOCTYPE svg PUBLIC "-//W3C//DTD SVG 1.1//EN" "http://www.w3.org/Graphics/SVG/1.1/DTD/svg11.dtd">
<svg xmlns:xl="http://www.w3.org/1999/xlink" version="1.1" xmlns="http://www.w3.org/2000/svg" xmlns:dc="http://purl.org/dc/elements/1.1/" viewBox="-3 -4 96 45" width="96" height="45">
  <defs>
    <filter id="Shadow" filterUnits="userSpaceOnUse" x="-12.6" y="-8.5">
      <feGaussianBlur in="SourceAlpha" result="blur" stdDeviation="2.18"/>
      <feFlood flood-color="#01025e" result="flood"/>
      <feComposite in="flood" in2="blur" operator="in"/>
    </filter>
  </defs>
  <g id="Canvas_1" stroke="none" fill="none" fill-opacity="1" stroke-dasharray="none" stroke-opacity="1">
    <title>Canvas 1</title>
    <g id="Canvas_1_Layer_1">
      <title>Layer 1</title>
      <g id="Graphic_7_shadow" filter="url(#Shadow)">
        <path d="M 71.17361 24.60316 L 69.76679 24.60316 L 69.76679 23.66017 L 73.59704 23.66017 L 73.59704 24.60316 L 72.190835 24.60316 L 72.190835 28.31009 L 71.17361 28.31009 Z" fill="white"/>
      </g>
      <g id="Graphic_8_shadow" filter="url(#Shadow)">
        <path d="M 65.31026 27.632694 L 65.9109 26.908732 C 66.32687 27.254148 66.76309 27.473177 67.291336 27.473177 C 67.70731 27.473177 67.95824 27.30691 67.95824 27.034505 L 67.95824 27.02162 C 67.95824 26.7621 67.79995 26.629577 67.02691 26.43018 C 66.09619 26.190906 65.49493 25.931997 65.49493 25.00864 L 65.49493 24.995142 C 65.49493 24.151543 66.16858 23.593233 67.1128 23.593233 C 67.78645 23.593233 68.36133 23.806127 68.83006 24.184673 L 68.30181 24.955263 C 67.89198 24.66936 67.489505 24.496958 67.099916 24.496958 C 66.71033 24.496958 66.50541 24.676108 66.50541 24.901886 L 66.50541 24.915384 C 66.50541 25.22092 66.70358 25.320925 67.50239 25.52707 C 68.44047 25.77248 68.96872 26.111147 68.96872 26.92223 L 68.96872 26.935114 C 68.96872 27.85847 68.26868 28.3769 67.2717 28.3769 C 66.57167 28.3769 65.86489 28.130877 65.31026 27.632694" fill="white"/>
      </g>
      <g id="Graphic_9_shadow" filter="url(#Shadow)">
        <path d="M 60.85986 23.659862 L 64.34653 23.659862 L 64.34653 24.570336 L 61.87034 24.570336 L 61.87034 25.513327 L 64.049585 25.513327 L 64.049585 26.4238 L 61.87034 26.4238 L 61.87034 27.400535 L 64.37966 27.400535 L 64.37966 28.310395 L 60.85986 28.310395 Z" fill="white"/>
      </g>
      <g id="Graphic_10_shadow" filter="url(#Shadow)">
        <path d="M 57.31435 24.60316 L 55.907537 24.60316 L 55.907537 23.66017 L 59.73778 23.66017 L 59.73778 24.60316 L 58.330966 24.60316 L 58.330966 28.31009 L 57.31435 28.31009 Z" fill="white"/>
      </g>
      <g id="Graphic_11_shadow" filter="url(#Shadow)">
        <path d="M 50.67845 23.659862 L 51.61592 23.659862 L 53.78228 26.523192 L 53.78228 23.659862 L 54.78601 23.659862 L 54.78601 28.310395 L 53.92094 28.310395 L 51.68218 25.35381 L 51.68218 28.310395 L 50.67845 28.310395 Z" fill="white"/>
      </g>
      <g id="Graphic_12_shadow" filter="url(#Shadow)">
        <path d="M 48.36797 25.998442 L 48.36797 25.984945 C 48.36797 25.187973 47.78696 24.523524 46.967904 24.523524 C 46.14946 24.523524 45.581334 25.174476 45.581334 25.97206 L 45.581334 25.984945 C 45.581334 26.78253 46.162344 27.44698 46.9814 27.44698 C 47.799846 27.44698 48.36797 26.795414 48.36797 25.998442 M 44.518093 25.998442 L 44.518093 25.984945 C 44.518093 24.662795 45.55495 23.57992 46.9814 23.57992 C 48.407237 23.57992 49.43121 24.64991 49.43121 25.97206 L 49.43121 25.984945 C 49.43121 27.307095 48.394353 28.38997 46.967904 28.38997 C 45.541455 28.38997 44.518093 27.320593 44.518093 25.998442" fill="white"/>
      </g>
      <g id="Graphic_13_shadow" filter="url(#Shadow)">
        <path d="M 39.433983 25.998442 L 39.433983 25.984945 C 39.433983 24.662795 40.424215 23.57992 41.843915 23.57992 C 42.715736 23.57992 43.237847 23.872572 43.6667 24.297746 L 43.01943 25.048703 C 42.662973 24.72292 42.299765 24.523524 41.83778 24.523524 C 41.0586 24.523524 40.497225 25.174476 40.497225 25.97206 L 40.497225 25.984945 C 40.497225 26.78253 41.045104 27.44698 41.83778 27.44698 C 42.366026 27.44698 42.689355 27.234085 43.05256 26.902167 L 43.699833 27.559868 C 43.22435 28.07155 42.696103 28.38997 41.80465 28.38997 C 40.44446 28.38997 39.433983 27.33409 39.433983 25.998442" fill="white"/>
      </g>
      <g id="Graphic_14_shadow" filter="url(#Shadow)">
        <path d="M 31.589925 25.998442 L 31.589925 25.984945 C 31.589925 24.662795 32.613287 23.57992 34.013354 23.57992 C 34.845296 23.57992 35.34716 23.805698 35.829393 24.217988 L 35.18887 24.995326 C 34.832412 24.69654 34.51522 24.523524 33.980224 24.523524 C 33.240925 24.523524 32.653166 25.181225 32.653166 25.97206 L 32.653166 25.984945 C 32.653166 26.835293 33.234176 27.459863 34.053234 27.459863 C 34.422577 27.459863 34.752654 27.36722 35.010335 27.181322 L 35.010335 26.516872 L 33.986973 26.516872 L 33.986973 25.63278 L 35.99443 25.63278 L 35.99443 27.653124 C 35.51895 28.058052 34.865543 28.38997 34.020103 28.38997 C 32.580157 28.38997 31.589925 27.37397 31.589925 25.998442" fill="white"/>
      </g>
      <g id="Graphic_15_shadow" filter="url(#Shadow)">
        <path d="M 26.235127 23.659862 L 27.172596 23.659862 L 29.338958 26.523192 L 29.338958 23.659862 L 30.342687 23.659862 L 30.342687 28.310395 L 29.477615 28.310395 L 27.238857 25.35381 L 27.238857 28.310395 L 26.235127 28.310395 Z" fill="white"/>
      </g>
      <g id="Graphic_16_shadow" filter="url(#Shadow)">
        <path d="M 23.924648 25.998442 L 23.924648 25.984945 C 23.924648 25.187973 23.343639 24.523524 22.52458 24.523524 C 21.706136 24.523524 21.13801 25.174476 21.13801 25.97206 L 21.13801 25.984945 C 21.13801 26.78253 21.71902 27.44698 22.538078 27.44698 C 23.356523 27.44698 23.924648 26.795414 23.924648 25.998442 M 20.07477 25.998442 L 20.07477 25.984945 C 20.07477 24.662795 21.11163 23.57992 22.538078 23.57992 C 23.964527 23.57992 24.98789 24.64991 24.98789 25.97206 L 24.98789 25.984945 C 24.98789 27.307095 23.95103 28.38997 22.52458 28.38997 C 21.098132 28.38997 20.07477 27.320593 20.07477 25.998442" fill="white"/>
      </g>
      <g id="Graphic_17_shadow" filter="url(#Shadow)">
        <path d="M 15.393379 27.632694 L 15.994635 26.908732 C 16.410606 27.254148 16.84621 27.473177 17.374456 27.473177 C 17.790427 27.473177 18.041359 27.30691 18.041359 27.034505 L 18.041359 27.02162 C 18.041359 26.7621 17.88307 26.629577 17.110026 26.43018 C 16.179306 26.190906 15.57805 25.931997 15.57805 25.00864 L 15.57805 24.995142 C 15.57805 24.151543 16.251702 23.593233 17.19592 23.593233 C 17.869571 23.593233 18.444446 23.806127 18.91318 24.184673 L 18.384934 24.955263 C 17.975098 24.66936 17.572625 24.496958 17.183035 24.496958 C 16.793446 24.496958 16.588528 24.676108 16.588528 24.901886 L 16.588528 24.915384 C 16.588528 25.22092 16.786697 25.320925 17.585509 25.52707 C 18.52359 25.77248 19.051837 26.111147 19.051837 26.92223 L 19.051837 26.935114 C 19.051837 27.85847 18.351803 28.3769 17.354823 28.3769 C 16.65479 28.3769 15.948007 28.130877 15.393379 27.632694" fill="white"/>
      </g>
      <g id="Graphic_18_shadow" filter="url(#Shadow)">
        <path d="M 62.16563 37.32893 L 62.39754 37.120333 C 62.617185 37.390285 62.881615 37.545507 63.231325 37.545507 C 63.57674 37.545507 63.85344 37.324637 63.85344 36.98904 L 63.85344 36.981062 C 63.85344 36.625217 63.52398 36.42889 63.05647 36.42889 L 62.873025 36.42889 L 62.80799 36.236854 L 63.70681 35.217786 L 62.31594 35.217786 L 62.31594 34.92759 L 64.13382 34.92759 L 64.13382 35.165023 L 63.2393 36.16323 C 63.73564 36.203724 64.17861 36.445454 64.17861 36.96879 L 64.17861 36.976768 C 64.17861 37.48845 63.75589 37.84 63.22703 37.84 C 62.75093 37.84 62.39754 37.6314 62.16563 37.32893" fill="white"/>
      </g>
      <g id="Graphic_19_shadow" filter="url(#Shadow)">
        <path d="M 59.4574 37.541703 L 60.49058 36.625708 C 60.92557 36.232437 61.08386 36.011567 61.08386 35.725664 C 61.08386 35.390065 60.82004 35.17717 60.510826 35.17717 C 60.18566 35.17717 59.97399 35.34896 59.74637 35.667992 L 59.510164 35.496205 C 59.76662 35.111524 60.03473 34.886973 60.53537 34.886973 C 61.04766 34.886973 61.41762 35.230548 61.41762 35.69683 L 61.41762 35.704804 C 61.41762 36.122002 61.197975 36.380297 60.69795 36.81774 L 59.93718 37.496916 L 61.44584 37.496916 L 61.44584 37.79141 L 59.4574 37.79141 Z" fill="white"/>
      </g>
      <g id="Graphic_20_shadow" filter="url(#Shadow)">
        <path d="M 58.534596 36.36772 L 58.534596 36.359744 C 58.534596 35.733333 58.19286 35.173183 57.664 35.173183 C 57.13146 35.173183 56.798316 35.721062 56.798316 36.351154 L 56.798316 36.359744 C 56.798316 36.98554 57.14005 37.54569 57.67259 37.54569 C 58.20513 37.54569 58.534596 36.993517 58.534596 36.36772 M 56.46456 36.36772 L 56.46456 36.359744 C 56.46456 35.557864 56.94004 34.87869 57.67259 34.87869 C 58.40453 34.87869 58.86774 35.549275 58.86774 36.351154 L 58.86774 36.359744 C 58.86774 37.161623 58.39655 37.840184 57.664 37.840184 C 56.92838 37.840184 56.46456 37.1696 56.46456 36.36772" fill="white"/>
      </g>
      <g id="Graphic_21_shadow" filter="url(#Shadow)">
        <path d="M 53.62632 37.541703 L 54.65889 36.625708 C 55.09449 36.232437 55.25278 36.011567 55.25278 35.725664 C 55.25278 35.390065 54.98835 35.17717 54.67975 35.17717 C 54.353965 35.17717 54.14291 35.34896 53.915294 35.667992 L 53.679086 35.496205 C 53.93554 35.111524 54.20365 34.886973 54.703675 34.886973 C 55.21658 34.886973 55.58654 35.230548 55.58654 35.69683 L 55.58654 35.704804 C 55.58654 36.122002 55.3669 36.380297 54.86687 36.81774 L 54.1061 37.496916 L 55.61476 37.496916 L 55.61476 37.79141 L 53.62632 37.79141 Z" fill="white"/>
      </g>
      <g id="Graphic_22_shadow" filter="url(#Shadow)">
        <path d="M 49.40557 34.927772 L 49.727055 34.927772 L 49.727055 37.492928 L 51.32897 37.492928 L 51.32897 37.7911 L 49.40557 37.7911 Z" fill="white"/>
      </g>
      <g id="Graphic_23_shadow" filter="url(#Shadow)">
        <path d="M 48.129064 36.36772 L 48.129064 36.359744 C 48.129064 35.70879 47.65726 35.177478 47.006924 35.177478 C 46.355973 35.177478 45.892147 35.700816 45.892147 36.351154 L 45.892147 36.359744 C 45.892147 37.01008 46.36395 37.541396 47.0149 37.541396 C 47.66585 37.541396 48.129064 37.01806 48.129064 36.36772 M 45.559 36.36772 L 45.559 36.359744 C 45.559 35.570135 46.1486 34.87869 47.0149 34.87869 C 47.8812 34.87869 48.46221 35.561545 48.46221 36.351154 L 48.46221 36.359744 C 48.46221 37.14874 47.873224 37.840184 47.006924 37.840184 C 46.140625 37.840184 45.559 37.15733 45.559 36.36772" fill="white"/>
      </g>
      <g id="Graphic_24_shadow" filter="url(#Shadow)">
        <path d="M 44.48981 36.36772 L 44.48981 36.359744 C 44.48981 35.70879 44.01801 35.177478 43.36767 35.177478 C 42.71672 35.177478 42.25289 35.700816 42.25289 36.351154 L 42.25289 36.359744 C 42.25289 37.01008 42.724694 37.541396 43.375645 37.541396 C 44.026597 37.541396 44.48981 37.01806 44.48981 36.36772 M 41.919747 36.36772 L 41.919747 36.359744 C 41.919747 35.570135 42.509346 34.87869 43.375645 34.87869 C 44.241945 34.87869 44.822954 35.561545 44.822954 36.351154 L 44.822954 36.359744 C 44.822954 37.14874 44.23397 37.840184 43.36767 37.840184 C 42.50137 37.840184 41.919747 37.15733 41.919747 36.36772" fill="white"/>
      </g>
      <g id="Graphic_25_shadow" filter="url(#Shadow)">
        <path d="M 40.089904 36.486314 C 40.561706 36.486314 40.870924 36.232928 40.870924 35.856222 L 40.870924 35.848247 C 40.870924 35.439024 40.565387 35.22613 40.10647 35.22613 L 39.38619 35.22613 L 39.38619 36.486314 Z M 39.065315 34.927956 L 40.130397 34.927956 C 40.773373 34.927956 41.196093 35.27153 41.196093 35.835976 L 41.196093 35.84395 C 41.196093 36.461773 40.6838 36.780807 40.077634 36.780807 L 39.38619 36.780807 L 39.38619 37.791286 L 39.065315 37.791286 Z" fill="white"/>
      </g>
      <g id="Graphic_26_shadow" filter="url(#Shadow)">
        <path d="M 36.975153 36.388027 C 37.402168 36.388027 37.70709 36.167158 37.70709 35.79904 L 37.70709 35.791066 C 37.70709 35.4389 37.43898 35.22662 36.97945 35.22662 L 36.10088 35.22662 L 36.10088 36.388027 Z M 35.77939 34.927834 L 37.003376 34.927834 C 37.3537 34.927834 37.63408 35.033974 37.812617 35.21435 C 37.951274 35.353008 38.03226 35.55363 38.03226 35.778795 L 38.03226 35.78677 C 38.03226 36.261027 37.70709 36.53957 37.25983 36.621168 L 38.134105 37.791163 L 37.739607 37.791163 L 36.914414 36.67884 L 36.10088 36.67884 L 36.10088 37.791163 L 35.77939 37.791163 Z" fill="white"/>
      </g>
      <g id="Graphic_27_shadow" filter="url(#Shadow)">
        <path d="M 32.709488 34.927772 L 34.767256 34.927772 L 34.767256 35.222265 L 33.030976 35.222265 L 33.030976 36.199613 L 34.584425 36.199613 L 34.584425 36.49472 L 33.030976 36.49472 L 33.030976 37.49661 L 34.7875 37.49661 L 34.7875 37.7911 L 32.709488 37.7911 Z" fill="white"/>
      </g>
      <g id="Graphic_28_shadow" filter="url(#Shadow)">
        <path d="M 29.07011 34.927772 L 29.427796 34.927772 L 30.44073 37.39415 L 31.45734 34.927772 L 31.802757 34.927772 L 30.578772 37.81196 L 30.294096 37.81196 Z" fill="white"/>
      </g>
      <g id="Graphic_29_shadow" filter="url(#Shadow)">
        <rect x="27.813485" y="34.927956" width=".32087433" height="2.8633294" fill="white"/>
      </g>
      <g id="Graphic_30_shadow" filter="url(#Shadow)">
        <path d="M 24.92261 34.927772 L 25.244098 34.927772 L 25.244098 37.492928 L 26.846016 37.492928 L 26.846016 37.7911 L 24.92261 37.7911 Z" fill="white"/>
      </g>
      <g id="Graphic_31_shadow" filter="url(#Shadow)">
        <path d="M 62.19318 30.519828 L 62.86744 30.519828 L 63.6141 31.728476 L 64.360765 30.519828 L 65.03503 30.519828 L 65.03503 33.37825 L 64.41353 33.37825 L 64.41353 31.5119 L 63.6141 32.73282 L 63.59754 32.73282 L 62.80609 31.52417 L 62.80609 33.37825 L 62.19318 33.37825 Z" fill="white"/>
      </g>
      <g id="Graphic_32_shadow" filter="url(#Shadow)">
        <path d="M 60.853726 31.957137 L 60.853726 31.94916 C 60.853726 31.458953 60.49665 31.050344 59.99295 31.050344 C 59.489856 31.050344 59.14076 31.450977 59.14076 31.94057 L 59.14076 31.94916 C 59.14076 32.438756 59.49783 32.847364 60.00154 32.847364 C 60.50463 32.847364 60.853726 32.447345 60.853726 31.957137 M 58.48674 31.957137 L 58.48674 31.94916 C 58.48674 31.13624 59.124194 30.47056 60.00154 30.47056 C 60.87827 30.47056 61.50713 31.128262 61.50713 31.94057 L 61.50713 31.94916 C 61.50713 32.76147 60.86968 33.427147 59.99295 33.427147 C 59.11622 33.427147 58.48674 32.769446 58.48674 31.957137" fill="white"/>
      </g>
      <g id="Graphic_33_shadow" filter="url(#Shadow)">
        <path d="M 56.33541 32.810614 C 56.84709 32.810614 57.19189 32.46397 57.19189 31.9572 L 57.19189 31.949223 C 57.19189 31.44245 56.84709 31.087217 56.33541 31.087217 L 55.852565 31.087217 L 55.852565 32.810614 Z M 55.22738 30.519705 L 56.33541 30.519705 C 57.228705 30.519705 57.8453 31.1363 57.8453 31.940633 L 57.8453 31.949223 C 57.8453 32.753556 57.228705 33.378126 56.33541 33.378126 L 55.22738 33.378126 Z" fill="white"/>
      </g>
      <g id="Graphic_34_shadow" filter="url(#Shadow)">
        <path d="M 51.62635 31.957137 L 51.62635 31.94916 C 51.62635 31.13624 52.25583 30.47056 53.11599 30.47056 C 53.62767 30.47056 53.936276 30.60922 54.23261 30.862605 L 53.838725 31.340543 C 53.619697 31.156485 53.424595 31.050344 53.095745 31.050344 C 52.64112 31.050344 52.279755 31.455272 52.279755 31.94057 L 52.279755 31.94916 C 52.279755 32.471886 52.63744 32.85534 53.14053 32.85534 C 53.36815 32.85534 53.570614 32.798282 53.728904 32.684166 L 53.728904 32.275557 L 53.10004 32.275557 L 53.10004 31.732586 L 54.33384 31.732586 L 54.33384 32.97375 C 54.0418 33.222843 53.63994 33.427147 53.120286 33.427147 C 52.23558 33.427147 51.62635 32.802577 51.62635 31.957137" fill="white"/>
      </g>
      <g id="Graphic_35_shadow" filter="url(#Shadow)">
        <path d="M 48.33392 30.519828 L 48.910636 30.519828 L 50.24199 32.280036 L 50.24199 30.519828 L 50.859196 30.519828 L 50.859196 33.37825 L 50.32727 33.37825 L 48.95113 31.560983 L 48.95113 33.37825 L 48.33392 33.37825 Z" fill="white"/>
      </g>
      <g id="Graphic_36_shadow" filter="url(#Shadow)">
        <rect x="46.70642" y="30.519767" width=".62518346" height="2.8584212" fill="white"/>
      </g>
      <g id="Graphic_37_shadow" filter="url(#Shadow)">
        <path d="M 43.42203 30.519828 L 44.04721 30.519828 L 44.04721 31.769582 L 45.20003 30.519828 L 45.95528 30.519828 L 44.79817 31.73277 L 46.00804 33.37825 L 45.257086 33.37825 L 44.37606 32.161626 L 44.04721 32.504587 L 44.04721 33.37825 L 43.42203 33.37825 Z" fill="white"/>
      </g>
      <g id="Graphic_38_shadow" filter="url(#Shadow)">
        <path d="M 39.553376 32.810614 C 40.065057 32.810614 40.40986 32.46397 40.40986 31.9572 L 40.40986 31.949223 C 40.40986 31.44245 40.065057 31.087217 39.553376 31.087217 L 39.07053 31.087217 L 39.07053 32.810614 Z M 38.445347 30.519705 L 39.553376 30.519705 C 40.44667 30.519705 41.063264 31.1363 41.063264 31.940633 L 41.063264 31.949223 C 41.063264 32.753556 40.44667 33.378126 39.553376 33.378126 L 38.445347 33.378126 Z" fill="white"/>
      </g>
      <g id="Graphic_39_shadow" filter="url(#Shadow)">
        <path d="M 35.43287 30.519828 L 37.57653 30.519828 L 37.57653 31.079364 L 36.05376 31.079364 L 36.05376 31.659147 L 37.3937 31.659147 L 37.3937 32.218684 L 36.05376 32.218684 L 36.05376 32.818713 L 37.59678 32.818713 L 37.59678 33.37825 L 35.43287 33.37825 Z" fill="white"/>
      </g>
      <g id="Graphic_40_shadow" filter="url(#Shadow)">
        <path d="M 33.17178 31.09961 L 32.30732 31.09961 L 32.30732 30.519828 L 34.661422 30.519828 L 34.661422 31.09961 L 33.796964 31.09961 L 33.796964 33.37825 L 33.17178 33.37825 Z" fill="white"/>
      </g>
      <g id="Graphic_41_shadow" filter="url(#Shadow)">
        <rect x="30.882345" y="30.519767" width=".62518346" height="2.8584212" fill="white"/>
      </g>
      <g id="Graphic_42_shadow" filter="url(#Shadow)">
        <path d="M 27.354445 30.519828 L 27.93116 30.519828 L 29.262512 32.280036 L 29.262512 30.519828 L 29.87972 30.519828 L 29.87972 33.37825 L 29.347792 33.37825 L 27.971653 31.560983 L 27.971653 33.37825 L 27.354445 33.37825 Z" fill="white"/>
      </g>
      <g id="Graphic_43_shadow" filter="url(#Shadow)">
        <path d="M 23.948514 32.15322 L 23.948514 30.520012 L 24.573698 30.520012 L 24.573698 32.136655 C 24.573698 32.60232 24.804997 32.843438 25.18661 32.843438 C 25.568224 32.843438 25.799524 32.61091 25.799524 32.157515 L 25.799524 30.520012 L 26.424707 30.520012 L 26.424707 32.132974 C 26.424707 32.99866 25.941862 33.42322 25.178635 33.42322 C 24.415408 33.42322 23.948514 32.994365 23.948514 32.15322" fill="white"/>
      </g>
      <g id="Graphic_44_shadow" filter="url(#Shadow)">
        <path d="M 38.024713 9.125597 C 38.073795 4.681823 40.372065 3.2909576 41.62366 3.2909576 C 43.371596 3.2909576 44.093717 4.6339677 44.211514 5.228475 C 44.32931 5.822369 44.991306 6.297239 45.203586 5.322958 C 45.41648 4.348678 47.47302 1.3779811 49.99952 1.3779811 C 52.31436 1.3779811 53.115623 3.779325 53.046295 5.822369 C 52.85733 11.383376 45.737354 15.821628 44.8005 18.624219 C 43.96549 16.92659 37.965814 14.473097 38.024713 9.125597 M 50.826556 53290705e-22 C 48.74793 53290705e-22 46.29014 1.5442469 44.80234 4.111243 C 44.40048 3.184204 42.97035 2.174339 41.269654 2.174339 C 39.89965 2.174339 36.054066 3.897122 36.054066 9.458129 C 36.054066 16.635778 43.270364 18.10947 44.72933 20.340253 C 44.829335 20.493635 45.152663 20.609591 45.27598 20.242702 C 46.43984 16.786092 55.46604 12.880381 55.46604 5.8462966 C 55.46604 1.9013195 52.905184 8881784e-21 50.826556 8881784e-21" fill="white"/>
      </g>
      <g id="Graphic_45_shadow" filter="url(#Shadow)">
        <path d="M 89.17601 18.804718 C 88.79071 16.415645 89.3208 13.341876 89.3208 10.44603 C 89.3208 8.234879 87.49433 7.098014 86.41084 7.098014 C 85.0028 7.098014 84.16657 7.736695 84.16657 7.736695 C 84.18252 7.315816 84.25491 6.668545 84.24142 6.464241 C 84.22608 6.230487 83.94754 6.230487 83.54506 6.448289 C 81.33207 7.834246 81.01243 11.810513 81.01243 14.566475 C 81.01243 17.323051 81.44803 18.299172 81.49404 18.673424 C 81.53822 19.028042 81.97198 19.080805 82.14193 18.769747 C 83.31806 16.464727 83.45549 12.26759 83.85735 9.931894 C 84.41504 9.168667 86.68939 9.028783 86.78264 10.850344 C 86.87712 12.705035 86.6992 17.391766 88.58396 19.028042 C 88.83796 19.248912 89.23184 19.14768 89.17601 18.804718" fill="white"/>
      </g>
      <g id="Graphic_46_shadow" filter="url(#Shadow)">
        <path d="M 68.952766 4.084432 C 68.90368 5.863046 71.85168 6.149563 71.85168 3.9758375 C 71.85168 2.0806533 70.27614 .51370597 69.95956 .2529571 C 69.467514 -.15074353 68.77239 -.07773384 68.9362 .5744451 C 69.312906 1.9413828 68.969944 3.462929 68.952766 4.084432" fill="white"/>
      </g>
      <g id="Graphic_47_shadow" filter="url(#Shadow)">
        <path d="M 68.28789 6.717934 C 69.25419 8.584283 67.60994 13.661217 67.60994 15.590145 C 67.60994 17.51846 67.8259 18.198247 68.33329 18.82343 C 68.59281 19.143692 68.93332 18.951658 68.96461 18.606242 C 69.12228 16.90616 70.93709 12.291825 71.05428 10.147549 C 71.20398 7.416741 69.86342 6.3584074 69.07872 6.291533 C 68.64312 6.2547214 68.06763 6.333866 68.28789 6.717934" fill="white"/>
      </g>
      <g id="Graphic_48_shadow" filter="url(#Shadow)">
        <path d="M 64.569364 6.281778 C 61.61646 6.281778 59.4863 7.335203 59.4863 9.727344 C 59.4863 11.201036 60.57285 12.215195 62.30484 12.500485 C 63.31286 12.690065 64.29389 12.764915 64.65096 12.89621 C 65.29701 13.133645 63.75031 13.882761 61.34344 15.525172 C 59.69919 16.647313 58.49791 17.83326 57.85616 19.092217 C 57.63345 19.52782 57.93469 19.944406 58.39913 19.622304 C 59.301626 18.996507 61.28025 17.954738 63.19875 16.89211 C 65.025215 15.881018 66.74554 14.76992 66.74554 13.387645 C 66.74554 12.135437 65.81237 11.663635 65.09209 11.581422 C 63.84847 11.439084 61.1557 11.549519 61.1557 9.981344 C 61.1557 9.394813 61.926906 8.626677 64.40678 8.626677 C 66.32037 8.626677 66.12772 6.281778 64.569364 6.281778" fill="white"/>
      </g>
      <g id="Graphic_49_shadow" filter="url(#Shadow)">
        <path d="M 56.69776 6.5901365 C 56.76034 9.005591 54.64981 12.845655 54.51483 15.64886 C 54.41544 17.692517 54.779875 18.518937 54.95289 18.788276 C 55.13388 19.070498 55.53022 19.094426 55.635744 18.58213 C 55.95171 17.050768 58.12482 13.014375 58.40336 9.768205 C 58.57392 7.779151 57.96101 6.561301 57.25484 6.331228 C 56.93949 6.228769 56.68917 6.2674214 56.69776 6.5901365" fill="white"/>
      </g>
      <g id="Graphic_50_shadow" filter="url(#Shadow)">
        <path d="M 22.219535 11.193182 C 22.314018 9.981467 22.408502 8.721897 22.408502 8.721897 C 22.408502 8.721897 25.10127 8.0322925 26.022172 8.127389 C 26.82405 8.210215 26.990317 8.555017 26.582322 9.193085 C 25.620926 10.694999 23.409777 11.21527 22.219535 11.193182 M 27.999568 19.230997 C 26.84798 17.62233 25.401284 14.402541 23.18768 12.452753 C 25.43196 12.310415 28.242525 10.551433 28.242525 8.674041 C 28.242525 7.28379 26.805032 6.2819006 24.939298 6.2819006 C 23.07295 6.2819006 21.015183 6.915674 20.23539 7.3905435 C 19.220005 7.985051 19.97587 9.38696 20.9207 9.007187 C 20.9207 9.007187 20.566695 10.670458 20.471598 11.549641 C 19.70469 11.454545 19.550695 11.596883 19.597937 11.763762 C 19.645178 11.930028 19.97587 12.07298 20.353801 12.54785 C 20.23539 13.593299 20.026792 18.243219 20.074033 18.647533 C 20.121275 19.0543 20.364845 19.124857 20.711487 18.694774 C 21.018864 18.315001 21.676564 17.395938 21.983328 13.926444 C 22.337946 14.235048 23.30609 15.540633 24.48713 17.063407 C 26.219114 19.297258 26.790307 19.458002 27.501998 19.71016 C 27.886066 19.846364 28.28179 19.624267 27.999568 19.230997" fill="white"/>
      </g>
      <g id="Graphic_51_shadow" filter="url(#Shadow)">
        <path d="M 32.222103 16.930271 C 31.140455 16.930271 30.539813 15.524681 30.539813 13.998227 C 30.539813 11.308525 32.46199 8.860554 32.46199 8.860554 C 32.99085 9.539114 34.264532 11.453931 34.264532 13.392062 C 34.264532 15.330807 33.303136 16.930271 32.222103 16.930271 M 33.087175 8.01266 C 33.087175 8.01266 33.698247 7.17765 33.330745 6.705848 C 32.917228 6.175147 31.592624 6.009495 30.350847 7.408336 C 28.717026 9.250143 27.572186 13.136835 28.80967 16.397116 C 29.99316 19.514446 33.30559 19.77765 34.841247 17.414957 C 36.21064 15.306266 35.8505 11.792598 33.087175 8.01266" fill="white"/>
      </g>
      <g id="Graphic_52_shadow" filter="url(#Shadow)">
        <path d="M 14.62101 7.393059 C 14.62101 6.31816 13.035044 5.658005 12.43747 7.180165 C 11.286494 10.110369 10.936784 18.989328 14.78789 18.989328 C 16.478768 18.989328 18.63654 15.26154 18.63654 11.622713 C 18.63654 8.62134 17.415623 6.6598945 17.157329 6.3058895 C 16.899034 5.9518846 16.54687 6.140851 16.593498 6.802233 C 16.64074 7.4636145 16.828478 13.583544 14.925933 15.804511 C 14.174977 16.631545 13.620962 15.770767 13.54059 14.954163 C 13.306223 12.567544 14.62101 8.952644 14.62101 7.393059" fill="white"/>
      </g>
      <g id="Graphic_53_shadow" filter="url(#Shadow)">
        <path d="M 8.792448 2.196119 C 4.6701634 1.895491 .11411592 5.331241 .28835743 9.780537 C .30492265 10.207552 .6638356 10.598982 1.1791978 10.598982 C 1.8172654 10.598982 3.6842263 10.527813 3.6842263 10.527813 C 3.6842263 10.527813 6039613e-20 13.450654 6039613e-20 16.872907 C 6039613e-20 18.67913 1.346077 20.84181 4.1566417 20.84181 C 8.096095 20.84181 11.031819 17.596868 11.026297 14.847655 C 11.026297 14.638442 10.787636 14.343336 10.402955 14.812684 C 9.792496 15.557505 6.5187186 18.940492 3.28298 18.940492 C 2.1964247 18.940492 1.251594 18.322057 1.251594 17.015858 C 1.251594 15.304732 3.9443616 11.976963 8.573419 10.670151 C 9.707216 10.337619 9.801699 8.745517 8.360525 8.674348 C 6.944506 8.604406 2.0547 9.149218 1.7006953 9.149218 C 1.346077 9.149218 1.3141737 9.072527 1.4405601 8.745517 C 1.6062123 8.317276 3.400777 5.156999 8.785699 4.562492 C 10.604805 4.4201536 10.421974 2.3151433 8.792448 2.196119" fill="white"/>
      </g>
      <g id="Graphic_54_shadow" filter="url(#Shadow)">
        <path d="M 75.86537 17.307406 C 74.67022 17.246667 73.98736 15.823285 74.0708 14.369226 C 74.21744 11.806525 76.34637 9.219283 76.34637 9.219283 C 76.84333 9.675747 78.33849 12.148873 78.25689 14.041603 C 78.17775 15.89016 77.05929 17.368145 75.86537 17.307406 M 77.28752 8.368321 C 77.80166 7.765838 78.15382 7.4149005 78.07468 6.997702 C 77.99492 6.5798906 76.58994 6.290306 75.96476 6.871316 C 74.11498 5.394557 74.49352 7.124702 74.76102 7.509997 C 72.57625 9.056698 71.09765 13.126835 72.28728 16.30245 C 73.449914 19.406895 76.957445 19.79035 78.7968 17.608034 C 80.42448 15.676038 80.134285 12.124946 77.28752 8.368321" fill="white"/>
      </g>
      <g id="Group_59">
        <title>UkraineFlag</title>
        <g id="Graphic_5">
          <path d="M 54.399976 8.92679 L 36.799985 10.92679 L 39.599984 2.9267897 L 42.39998 2.7267897 L 44.59998 4.92679 L 47.39998 1.7267897 L 52.59998 .9267897 Z" fill="#2c5aa6"/>
        </g>
        <g id="Graphic_4">
          <path d="M 44.79998 19.32679 L 54.599976 8.92679 L 36.599985 10.92679 Z" fill="#ffdb00"/>
        </g>
      </g>
      <g id="Group_58">
        <title>Eurovision text</title>
        <g id="Graphic_54">
          <path d="M 75.86537 17.307406 C 74.67022 17.246667 73.98736 15.823285 74.0708 14.369226 C 74.21744 11.806525 76.34637 9.219283 76.34637 9.219283 C 76.84333 9.675747 78.33849 12.148873 78.25689 14.041603 C 78.17775 15.89016 77.05929 17.368145 75.86537 17.307406 M 77.28752 8.368321 C 77.80166 7.765838 78.15382 7.4149005 78.07468 6.997702 C 77.99492 6.5798906 76.58994 6.290306 75.96476 6.871316 C 74.11498 5.394557 74.49352 7.124702 74.76102 7.509997 C 72.57625 9.056698 71.09765 13.126835 72.28728 16.30245 C 73.449914 19.406895 76.957445 19.79035 78.7968 17.608034 C 80.42448 15.676038 80.134285 12.124946 77.28752 8.368321" fill="white"/>
        </g>
        <g id="Graphic_53">
          <path d="M 8.792448 2.196119 C 4.6701634 1.895491 .11411592 5.331241 .28835743 9.780537 C .30492265 10.207552 .6638356 10.598982 1.1791978 10.598982 C 1.8172654 10.598982 3.6842263 10.527813 3.6842263 10.527813 C 3.6842263 10.527813 6039613e-20 13.450654 6039613e-20 16.872907 C 6039613e-20 18.67913 1.346077 20.84181 4.1566417 20.84181 C 8.096095 20.84181 11.031819 17.596868 11.026297 14.847655 C 11.026297 14.638442 10.787636 14.343336 10.402955 14.812684 C 9.792496 15.557505 6.5187186 18.940492 3.28298 18.940492 C 2.1964247 18.940492 1.251594 18.322057 1.251594 17.015858 C 1.251594 15.304732 3.9443616 11.976963 8.573419 10.670151 C 9.707216 10.337619 9.801699 8.745517 8.360525 8.674348 C 6.944506 8.604406 2.0547 9.149218 1.7006953 9.149218 C 1.346077 9.149218 1.3141737 9.072527 1.4405601 8.745517 C 1.6062123 8.317276 3.400777 5.156999 8.785699 4.562492 C 10.604805 4.4201536 10.421974 2.3151433 8.792448 2.196119" fill="white"/>
        </g>
        <g id="Graphic_52">
          <path d="M 14.62101 7.393059 C 14.62101 6.31816 13.035044 5.658005 12.43747 7.180165 C 11.286494 10.110369 10.936784 18.989328 14.78789 18.989328 C 16.478768 18.989328 18.63654 15.26154 18.63654 11.622713 C 18.63654 8.62134 17.415623 6.6598945 17.157329 6.3058895 C 16.899034 5.9518846 16.54687 6.140851 16.593498 6.802233 C 16.64074 7.4636145 16.828478 13.583544 14.925933 15.804511 C 14.174977 16.631545 13.620962 15.770767 13.54059 14.954163 C 13.306223 12.567544 14.62101 8.952644 14.62101 7.393059" fill="white"/>
        </g>
        <g id="Graphic_51">
          <path d="M 32.222103 16.930271 C 31.140455 16.930271 30.539813 15.524681 30.539813 13.998227 C 30.539813 11.308525 32.46199 8.860554 32.46199 8.860554 C 32.99085 9.539114 34.264532 11.453931 34.264532 13.392062 C 34.264532 15.330807 33.303136 16.930271 32.222103 16.930271 M 33.087175 8.01266 C 33.087175 8.01266 33.698247 7.17765 33.330745 6.705848 C 32.917228 6.175147 31.592624 6.009495 30.350847 7.408336 C 28.717026 9.250143 27.572186 13.136835 28.80967 16.397116 C 29.99316 19.514446 33.30559 19.77765 34.841247 17.414957 C 36.21064 15.306266 35.8505 11.792598 33.087175 8.01266" fill="white"/>
        </g>
        <g id="Graphic_50">
          <path d="M 22.219535 11.193182 C 22.314018 9.981467 22.408502 8.721897 22.408502 8.721897 C 22.408502 8.721897 25.10127 8.0322925 26.022172 8.127389 C 26.82405 8.210215 26.990317 8.555017 26.582322 9.193085 C 25.620926 10.694999 23.409777 11.21527 22.219535 11.193182 M 27.999568 19.230997 C 26.84798 17.62233 25.401284 14.402541 23.18768 12.452753 C 25.43196 12.310415 28.242525 10.551433 28.242525 8.674041 C 28.242525 7.28379 26.805032 6.2819006 24.939298 6.2819006 C 23.07295 6.2819006 21.015183 6.915674 20.23539 7.3905435 C 19.220005 7.985051 19.97587 9.38696 20.9207 9.007187 C 20.9207 9.007187 20.566695 10.670458 20.471598 11.549641 C 19.70469 11.454545 19.550695 11.596883 19.597937 11.763762 C 19.645178 11.930028 19.97587 12.07298 20.353801 12.54785 C 20.23539 13.593299 20.026792 18.243219 20.074033 18.647533 C 20.121275 19.0543 20.364845 19.124857 20.711487 18.694774 C 21.018864 18.315001 21.676564 17.395938 21.983328 13.926444 C 22.337946 14.235048 23.30609 15.540633 24.48713 17.063407 C 26.219114 19.297258 26.790307 19.458002 27.501998 19.71016 C 27.886066 19.846364 28.28179 19.624267 27.999568 19.230997" fill="white"/>
        </g>
        <g id="Graphic_49">
          <path d="M 56.69776 6.5901365 C 56.76034 9.005591 54.64981 12.845655 54.51483 15.64886 C 54.41544 17.692517 54.779875 18.518937 54.95289 18.788276 C 55.13388 19.070498 55.53022 19.094426 55.635744 18.58213 C 55.95171 17.050768 58.12482 13.014375 58.40336 9.768205 C 58.57392 7.779151 57.96101 6.561301 57.25484 6.331228 C 56.93949 6.228769 56.68917 6.2674214 56.69776 6.5901365" fill="white"/>
        </g>
        <g id="Graphic_48">
          <path d="M 64.569364 6.281778 C 61.61646 6.281778 59.4863 7.335203 59.4863 9.727344 C 59.4863 11.201036 60.57285 12.215195 62.30484 12.500485 C 63.31286 12.690065 64.29389 12.764915 64.65096 12.89621 C 65.29701 13.133645 63.75031 13.882761 61.34344 15.525172 C 59.69919 16.647313 58.49791 17.83326 57.85616 19.092217 C 57.63345 19.52782 57.93469 19.944406 58.39913 19.622304 C 59.301626 18.996507 61.28025 17.954738 63.19875 16.89211 C 65.025215 15.881018 66.74554 14.76992 66.74554 13.387645 C 66.74554 12.135437 65.81237 11.663635 65.09209 11.581422 C 63.84847 11.439084 61.1557 11.549519 61.1557 9.981344 C 61.1557 9.394813 61.926906 8.626677 64.40678 8.626677 C 66.32037 8.626677 66.12772 6.281778 64.569364 6.281778" fill="white"/>
        </g>
        <g id="Graphic_47">
          <path d="M 68.28789 6.717934 C 69.25419 8.584283 67.60994 13.661217 67.60994 15.590145 C 67.60994 17.51846 67.8259 18.198247 68.33329 18.82343 C 68.59281 19.143692 68.93332 18.951658 68.96461 18.606242 C 69.12228 16.90616 70.93709 12.291825 71.05428 10.147549 C 71.20398 7.416741 69.86342 6.3584074 69.07872 6.291533 C 68.64312 6.2547214 68.06763 6.333866 68.28789 6.717934" fill="white"/>
        </g>
        <g id="Graphic_46">
          <path d="M 68.952766 4.084432 C 68.90368 5.863046 71.85168 6.149563 71.85168 3.9758375 C 71.85168 2.0806533 70.27614 .51370597 69.95956 .2529571 C 69.467514 -.15074353 68.77239 -.07773384 68.9362 .5744451 C 69.312906 1.9413828 68.969944 3.462929 68.952766 4.084432" fill="white"/>
        </g>
        <g id="Graphic_45">
          <path d="M 89.17601 18.804718 C 88.79071 16.415645 89.3208 13.341876 89.3208 10.44603 C 89.3208 8.234879 87.49433 7.098014 86.41084 7.098014 C 85.0028 7.098014 84.16657 7.736695 84.16657 7.736695 C 84.18252 7.315816 84.25491 6.668545 84.24142 6.464241 C 84.22608 6.230487 83.94754 6.230487 83.54506 6.448289 C 81.33207 7.834246 81.01243 11.810513 81.01243 14.566475 C 81.01243 17.323051 81.44803 18.299172 81.49404 18.673424 C 81.53822 19.028042 81.97198 19.080805 82.14193 18.769747 C 83.31806 16.464727 83.45549 12.26759 83.85735 9.931894 C 84.41504 9.168667 86.68939 9.028783 86.78264 10.850344 C 86.87712 12.705035 86.6992 17.391766 88.58396 19.028042 C 88.83796 19.248912 89.23184 19.14768 89.17601 18.804718" fill="white"/>
        </g>
        <g id="Graphic_44">
          <path d="M 38.024713 9.125597 C 38.073795 4.681823 40.372065 3.2909576 41.62366 3.2909576 C 43.371596 3.2909576 44.093717 4.6339677 44.211514 5.228475 C 44.32931 5.822369 44.991306 6.297239 45.203586 5.322958 C 45.41648 4.348678 47.47302 1.3779811 49.99952 1.3779811 C 52.31436 1.3779811 53.115623 3.779325 53.046295 5.822369 C 52.85733 11.383376 45.737354 15.821628 44.8005 18.624219 C 43.96549 16.92659 37.965814 14.473097 38.024713 9.125597 M 50.826556 53290705e-22 C 48.74793 53290705e-22 46.29014 1.5442469 44.80234 4.111243 C 44.40048 3.184204 42.97035 2.174339 41.269654 2.174339 C 39.89965 2.174339 36.054066 3.897122 36.054066 9.458129 C 36.054066 16.635778 43.270364 18.10947 44.72933 20.340253 C 44.829335 20.493635 45.152663 20.609591 45.27598 20.242702 C 46.43984 16.786092 55.46604 12.880381 55.46604 5.8462966 C 55.46604 1.9013195 52.905184 8881784e-21 50.826556 8881784e-21" fill="white"/>
        </g>
        <g id="Graphic_43">
          <path d="M 23.948514 32.15322 L 23.948514 30.520012 L 24.573698 30.520012 L 24.573698 32.136655 C 24.573698 32.60232 24.804997 32.843438 25.18661 32.843438 C 25.568224 32.843438 25.799524 32.61091 25.799524 32.157515 L 25.799524 30.520012 L 26.424707 30.520012 L 26.424707 32.132974 C 26.424707 32.99866 25.941862 33.42322 25.178635 33.42322 C 24.415408 33.42322 23.948514 32.994365 23.948514 32.15322" fill="white"/>
        </g>
        <g id="Graphic_42">
          <path d="M 27.354445 30.519828 L 27.93116 30.519828 L 29.262512 32.280036 L 29.262512 30.519828 L 29.87972 30.519828 L 29.87972 33.37825 L 29.347792 33.37825 L 27.971653 31.560983 L 27.971653 33.37825 L 27.354445 33.37825 Z" fill="white"/>
        </g>
        <g id="Graphic_41">
          <rect x="30.882345" y="30.519767" width=".62518346" height="2.8584212" fill="white"/>
        </g>
        <g id="Graphic_40">
          <path d="M 33.17178 31.09961 L 32.30732 31.09961 L 32.30732 30.519828 L 34.661422 30.519828 L 34.661422 31.09961 L 33.796964 31.09961 L 33.796964 33.37825 L 33.17178 33.37825 Z" fill="white"/>
        </g>
        <g id="Graphic_39">
          <path d="M 35.43287 30.519828 L 37.57653 30.519828 L 37.57653 31.079364 L 36.05376 31.079364 L 36.05376 31.659147 L 37.3937 31.659147 L 37.3937 32.218684 L 36.05376 32.218684 L 36.05376 32.818713 L 37.59678 32.818713 L 37.59678 33.37825 L 35.43287 33.37825 Z" fill="white"/>
        </g>
        <g id="Graphic_38">
          <path d="M 39.553376 32.810614 C 40.065057 32.810614 40.40986 32.46397 40.40986 31.9572 L 40.40986 31.949223 C 40.40986 31.44245 40.065057 31.087217 39.553376 31.087217 L 39.07053 31.087217 L 39.07053 32.810614 Z M 38.445347 30.519705 L 39.553376 30.519705 C 40.44667 30.519705 41.063264 31.1363 41.063264 31.940633 L 41.063264 31.949223 C 41.063264 32.753556 40.44667 33.378126 39.553376 33.378126 L 38.445347 33.378126 Z" fill="white"/>
        </g>
        <g id="Graphic_37">
          <path d="M 43.42203 30.519828 L 44.04721 30.519828 L 44.04721 31.769582 L 45.20003 30.519828 L 45.95528 30.519828 L 44.79817 31.73277 L 46.00804 33.37825 L 45.257086 33.37825 L 44.37606 32.161626 L 44.04721 32.504587 L 44.04721 33.37825 L 43.42203 33.37825 Z" fill="white"/>
        </g>
        <g id="Graphic_36">
          <rect x="46.70642" y="30.519767" width=".62518346" height="2.8584212" fill="white"/>
        </g>
        <g id="Graphic_35">
          <path d="M 48.33392 30.519828 L 48.910636 30.519828 L 50.24199 32.280036 L 50.24199 30.519828 L 50.859196 30.519828 L 50.859196 33.37825 L 50.32727 33.37825 L 48.95113 31.560983 L 48.95113 33.37825 L 48.33392 33.37825 Z" fill="white"/>
        </g>
        <g id="Graphic_34">
          <path d="M 51.62635 31.957137 L 51.62635 31.94916 C 51.62635 31.13624 52.25583 30.47056 53.11599 30.47056 C 53.62767 30.47056 53.936276 30.60922 54.23261 30.862605 L 53.838725 31.340543 C 53.619697 31.156485 53.424595 31.050344 53.095745 31.050344 C 52.64112 31.050344 52.279755 31.455272 52.279755 31.94057 L 52.279755 31.94916 C 52.279755 32.471886 52.63744 32.85534 53.14053 32.85534 C 53.36815 32.85534 53.570614 32.798282 53.728904 32.684166 L 53.728904 32.275557 L 53.10004 32.275557 L 53.10004 31.732586 L 54.33384 31.732586 L 54.33384 32.97375 C 54.0418 33.222843 53.63994 33.427147 53.120286 33.427147 C 52.23558 33.427147 51.62635 32.802577 51.62635 31.957137" fill="white"/>
        </g>
        <g id="Graphic_33">
          <path d="M 56.33541 32.810614 C 56.84709 32.810614 57.19189 32.46397 57.19189 31.9572 L 57.19189 31.949223 C 57.19189 31.44245 56.84709 31.087217 56.33541 31.087217 L 55.852565 31.087217 L 55.852565 32.810614 Z M 55.22738 30.519705 L 56.33541 30.519705 C 57.228705 30.519705 57.8453 31.1363 57.8453 31.940633 L 57.8453 31.949223 C 57.8453 32.753556 57.228705 33.378126 56.33541 33.378126 L 55.22738 33.378126 Z" fill="white"/>
        </g>
        <g id="Graphic_32">
          <path d="M 60.853726 31.957137 L 60.853726 31.94916 C 60.853726 31.458953 60.49665 31.050344 59.99295 31.050344 C 59.489856 31.050344 59.14076 31.450977 59.14076 31.94057 L 59.14076 31.94916 C 59.14076 32.438756 59.49783 32.847364 60.00154 32.847364 C 60.50463 32.847364 60.853726 32.447345 60.853726 31.957137 M 58.48674 31.957137 L 58.48674 31.94916 C 58.48674 31.13624 59.124194 30.47056 60.00154 30.47056 C 60.87827 30.47056 61.50713 31.128262 61.50713 31.94057 L 61.50713 31.94916 C 61.50713 32.76147 60.86968 33.427147 59.99295 33.427147 C 59.11622 33.427147 58.48674 32.769446 58.48674 31.957137" fill="white"/>
        </g>
        <g id="Graphic_31">
          <path d="M 62.19318 30.519828 L 62.86744 30.519828 L 63.6141 31.728476 L 64.360765 30.519828 L 65.03503 30.519828 L 65.03503 33.37825 L 64.41353 33.37825 L 64.41353 31.5119 L 63.6141 32.73282 L 63.59754 32.73282 L 62.80609 31.52417 L 62.80609 33.37825 L 62.19318 33.37825 Z" fill="white"/>
        </g>
        <g id="Graphic_30">
          <path d="M 24.92261 34.927772 L 25.244098 34.927772 L 25.244098 37.492928 L 26.846016 37.492928 L 26.846016 37.7911 L 24.92261 37.7911 Z" fill="white"/>
        </g>
        <g id="Graphic_29">
          <rect x="27.813485" y="34.927956" width=".32087433" height="2.8633294" fill="white"/>
        </g>
        <g id="Graphic_28">
          <path d="M 29.07011 34.927772 L 29.427796 34.927772 L 30.44073 37.39415 L 31.45734 34.927772 L 31.802757 34.927772 L 30.578772 37.81196 L 30.294096 37.81196 Z" fill="white"/>
        </g>
        <g id="Graphic_27">
          <path d="M 32.709488 34.927772 L 34.767256 34.927772 L 34.767256 35.222265 L 33.030976 35.222265 L 33.030976 36.199613 L 34.584425 36.199613 L 34.584425 36.49472 L 33.030976 36.49472 L 33.030976 37.49661 L 34.7875 37.49661 L 34.7875 37.7911 L 32.709488 37.7911 Z" fill="white"/>
        </g>
        <g id="Graphic_26">
          <path d="M 36.975153 36.388027 C 37.402168 36.388027 37.70709 36.167158 37.70709 35.79904 L 37.70709 35.791066 C 37.70709 35.4389 37.43898 35.22662 36.97945 35.22662 L 36.10088 35.22662 L 36.10088 36.388027 Z M 35.77939 34.927834 L 37.003376 34.927834 C 37.3537 34.927834 37.63408 35.033974 37.812617 35.21435 C 37.951274 35.353008 38.03226 35.55363 38.03226 35.778795 L 38.03226 35.78677 C 38.03226 36.261027 37.70709 36.53957 37.25983 36.621168 L 38.134105 37.791163 L 37.739607 37.791163 L 36.914414 36.67884 L 36.10088 36.67884 L 36.10088 37.791163 L 35.77939 37.791163 Z" fill="white"/>
        </g>
        <g id="Graphic_25">
          <path d="M 40.089904 36.486314 C 40.561706 36.486314 40.870924 36.232928 40.870924 35.856222 L 40.870924 35.848247 C 40.870924 35.439024 40.565387 35.22613 40.10647 35.22613 L 39.38619 35.22613 L 39.38619 36.486314 Z M 39.065315 34.927956 L 40.130397 34.927956 C 40.773373 34.927956 41.196093 35.27153 41.196093 35.835976 L 41.196093 35.84395 C 41.196093 36.461773 40.6838 36.780807 40.077634 36.780807 L 39.38619 36.780807 L 39.38619 37.791286 L 39.065315 37.791286 Z" fill="white"/>
        </g>
        <g id="Graphic_24">
          <path d="M 44.48981 36.36772 L 44.48981 36.359744 C 44.48981 35.70879 44.01801 35.177478 43.36767 35.177478 C 42.71672 35.177478 42.25289 35.700816 42.25289 36.351154 L 42.25289 36.359744 C 42.25289 37.01008 42.724694 37.541396 43.375645 37.541396 C 44.026597 37.541396 44.48981 37.01806 44.48981 36.36772 M 41.919747 36.36772 L 41.919747 36.359744 C 41.919747 35.570135 42.509346 34.87869 43.375645 34.87869 C 44.241945 34.87869 44.822954 35.561545 44.822954 36.351154 L 44.822954 36.359744 C 44.822954 37.14874 44.23397 37.840184 43.36767 37.840184 C 42.50137 37.840184 41.919747 37.15733 41.919747 36.36772" fill="white"/>
        </g>
        <g id="Graphic_23">
          <path d="M 48.129064 36.36772 L 48.129064 36.359744 C 48.129064 35.70879 47.65726 35.177478 47.006924 35.177478 C 46.355973 35.177478 45.892147 35.700816 45.892147 36.351154 L 45.892147 36.359744 C 45.892147 37.01008 46.36395 37.541396 47.0149 37.541396 C 47.66585 37.541396 48.129064 37.01806 48.129064 36.36772 M 45.559 36.36772 L 45.559 36.359744 C 45.559 35.570135 46.1486 34.87869 47.0149 34.87869 C 47.8812 34.87869 48.46221 35.561545 48.46221 36.351154 L 48.46221 36.359744 C 48.46221 37.14874 47.873224 37.840184 47.006924 37.840184 C 46.140625 37.840184 45.559 37.15733 45.559 36.36772" fill="white"/>
        </g>
        <g id="Graphic_22">
          <path d="M 49.40557 34.927772 L 49.727055 34.927772 L 49.727055 37.492928 L 51.32897 37.492928 L 51.32897 37.7911 L 49.40557 37.7911 Z" fill="white"/>
        </g>
        <g id="Graphic_21">
          <path d="M 53.62632 37.541703 L 54.65889 36.625708 C 55.09449 36.232437 55.25278 36.011567 55.25278 35.725664 C 55.25278 35.390065 54.98835 35.17717 54.67975 35.17717 C 54.353965 35.17717 54.14291 35.34896 53.915294 35.667992 L 53.679086 35.496205 C 53.93554 35.111524 54.20365 34.886973 54.703675 34.886973 C 55.21658 34.886973 55.58654 35.230548 55.58654 35.69683 L 55.58654 35.704804 C 55.58654 36.122002 55.3669 36.380297 54.86687 36.81774 L 54.1061 37.496916 L 55.61476 37.496916 L 55.61476 37.79141 L 53.62632 37.79141 Z" fill="white"/>
        </g>
        <g id="Graphic_20">
          <path d="M 58.534596 36.36772 L 58.534596 36.359744 C 58.534596 35.733333 58.19286 35.173183 57.664 35.173183 C 57.13146 35.173183 56.798316 35.721062 56.798316 36.351154 L 56.798316 36.359744 C 56.798316 36.98554 57.14005 37.54569 57.67259 37.54569 C 58.20513 37.54569 58.534596 36.993517 58.534596 36.36772 M 56.46456 36.36772 L 56.46456 36.359744 C 56.46456 35.557864 56.94004 34.87869 57.67259 34.87869 C 58.40453 34.87869 58.86774 35.549275 58.86774 36.351154 L 58.86774 36.359744 C 58.86774 37.161623 58.39655 37.840184 57.664 37.840184 C 56.92838 37.840184 56.46456 37.1696 56.46456 36.36772" fill="white"/>
        </g>
        <g id="Graphic_19">
          <path d="M 59.4574 37.541703 L 60.49058 36.625708 C 60.92557 36.232437 61.08386 36.011567 61.08386 35.725664 C 61.08386 35.390065 60.82004 35.17717 60.510826 35.17717 C 60.18566 35.17717 59.97399 35.34896 59.74637 35.667992 L 59.510164 35.496205 C 59.76662 35.111524 60.03473 34.886973 60.53537 34.886973 C 61.04766 34.886973 61.41762 35.230548 61.41762 35.69683 L 61.41762 35.704804 C 61.41762 36.122002 61.197975 36.380297 60.69795 36.81774 L 59.93718 37.496916 L 61.44584 37.496916 L 61.44584 37.79141 L 59.4574 37.79141 Z" fill="white"/>
        </g>
        <g id="Graphic_18">
          <path d="M 62.16563 37.32893 L 62.39754 37.120333 C 62.617185 37.390285 62.881615 37.545507 63.231325 37.545507 C 63.57674 37.545507 63.85344 37.324637 63.85344 36.98904 L 63.85344 36.981062 C 63.85344 36.625217 63.52398 36.42889 63.05647 36.42889 L 62.873025 36.42889 L 62.80799 36.236854 L 63.70681 35.217786 L 62.31594 35.217786 L 62.31594 34.92759 L 64.13382 34.92759 L 64.13382 35.165023 L 63.2393 36.16323 C 63.73564 36.203724 64.17861 36.445454 64.17861 36.96879 L 64.17861 36.976768 C 64.17861 37.48845 63.75589 37.84 63.22703 37.84 C 62.75093 37.84 62.39754 37.6314 62.16563 37.32893" fill="white"/>
        </g>
        <g id="Graphic_17">
          <path d="M 15.393379 27.632694 L 15.994635 26.908732 C 16.410606 27.254148 16.84621 27.473177 17.374456 27.473177 C 17.790427 27.473177 18.041359 27.30691 18.041359 27.034505 L 18.041359 27.02162 C 18.041359 26.7621 17.88307 26.629577 17.110026 26.43018 C 16.179306 26.190906 15.57805 25.931997 15.57805 25.00864 L 15.57805 24.995142 C 15.57805 24.151543 16.251702 23.593233 17.19592 23.593233 C 17.869571 23.593233 18.444446 23.806127 18.91318 24.184673 L 18.384934 24.955263 C 17.975098 24.66936 17.572625 24.496958 17.183035 24.496958 C 16.793446 24.496958 16.588528 24.676108 16.588528 24.901886 L 16.588528 24.915384 C 16.588528 25.22092 16.786697 25.320925 17.585509 25.52707 C 18.52359 25.77248 19.051837 26.111147 19.051837 26.92223 L 19.051837 26.935114 C 19.051837 27.85847 18.351803 28.3769 17.354823 28.3769 C 16.65479 28.3769 15.948007 28.130877 15.393379 27.632694" fill="white"/>
        </g>
        <g id="Graphic_16">
          <path d="M 23.924648 25.998442 L 23.924648 25.984945 C 23.924648 25.187973 23.343639 24.523524 22.52458 24.523524 C 21.706136 24.523524 21.13801 25.174476 21.13801 25.97206 L 21.13801 25.984945 C 21.13801 26.78253 21.71902 27.44698 22.538078 27.44698 C 23.356523 27.44698 23.924648 26.795414 23.924648 25.998442 M 20.07477 25.998442 L 20.07477 25.984945 C 20.07477 24.662795 21.11163 23.57992 22.538078 23.57992 C 23.964527 23.57992 24.98789 24.64991 24.98789 25.97206 L 24.98789 25.984945 C 24.98789 27.307095 23.95103 28.38997 22.52458 28.38997 C 21.098132 28.38997 20.07477 27.320593 20.07477 25.998442" fill="white"/>
        </g>
        <g id="Graphic_15">
          <path d="M 26.235127 23.659862 L 27.172596 23.659862 L 29.338958 26.523192 L 29.338958 23.659862 L 30.342687 23.659862 L 30.342687 28.310395 L 29.477615 28.310395 L 27.238857 25.35381 L 27.238857 28.310395 L 26.235127 28.310395 Z" fill="white"/>
        </g>
        <g id="Graphic_14">
          <path d="M 31.589925 25.998442 L 31.589925 25.984945 C 31.589925 24.662795 32.613287 23.57992 34.013354 23.57992 C 34.845296 23.57992 35.34716 23.805698 35.829393 24.217988 L 35.18887 24.995326 C 34.832412 24.69654 34.51522 24.523524 33.980224 24.523524 C 33.240925 24.523524 32.653166 25.181225 32.653166 25.97206 L 32.653166 25.984945 C 32.653166 26.835293 33.234176 27.459863 34.053234 27.459863 C 34.422577 27.459863 34.752654 27.36722 35.010335 27.181322 L 35.010335 26.516872 L 33.986973 26.516872 L 33.986973 25.63278 L 35.99443 25.63278 L 35.99443 27.653124 C 35.51895 28.058052 34.865543 28.38997 34.020103 28.38997 C 32.580157 28.38997 31.589925 27.37397 31.589925 25.998442" fill="white"/>
        </g>
        <g id="Graphic_13">
          <path d="M 39.433983 25.998442 L 39.433983 25.984945 C 39.433983 24.662795 40.424215 23.57992 41.843915 23.57992 C 42.715736 23.57992 43.237847 23.872572 43.6667 24.297746 L 43.01943 25.048703 C 42.662973 24.72292 42.299765 24.523524 41.83778 24.523524 C 41.0586 24.523524 40.497225 25.174476 40.497225 25.97206 L 40.497225 25.984945 C 40.497225 26.78253 41.045104 27.44698 41.83778 27.44698 C 42.366026 27.44698 42.689355 27.234085 43.05256 26.902167 L 43.699833 27.559868 C 43.22435 28.07155 42.696103 28.38997 41.80465 28.38997 C 40.44446 28.38997 39.433983 27.33409 39.433983 25.998442" fill="white"/>
        </g>
        <g id="Graphic_12">
          <path d="M 48.36797 25.998442 L 48.36797 25.984945 C 48.36797 25.187973 47.78696 24.523524 46.967904 24.523524 C 46.14946 24.523524 45.581334 25.174476 45.581334 25.97206 L 45.581334 25.984945 C 45.581334 26.78253 46.162344 27.44698 46.9814 27.44698 C 47.799846 27.44698 48.36797 26.795414 48.36797 25.998442 M 44.518093 25.998442 L 44.518093 25.984945 C 44.518093 24.662795 45.55495 23.57992 46.9814 23.57992 C 48.407237 23.57992 49.43121 24.64991 49.43121 25.97206 L 49.43121 25.984945 C 49.43121 27.307095 48.394353 28.38997 46.967904 28.38997 C 45.541455 28.38997 44.518093 27.320593 44.518093 25.998442" fill="white"/>
        </g>
        <g id="Graphic_11">
          <path d="M 50.67845 23.659862 L 51.61592 23.659862 L 53.78228 26.523192 L 53.78228 23.659862 L 54.78601 23.659862 L 54.78601 28.310395 L 53.92094 28.310395 L 51.68218 25.35381 L 51.68218 28.310395 L 50.67845 28.310395 Z" fill="white"/>
        </g>
        <g id="Graphic_10">
          <path d="M 57.31435 24.60316 L 55.907537 24.60316 L 55.907537 23.66017 L 59.73778 23.66017 L 59.73778 24.60316 L 58.330966 24.60316 L 58.330966 28.31009 L 57.31435 28.31009 Z" fill="white"/>
        </g>
        <g id="Graphic_9">
          <path d="M 60.85986 23.659862 L 64.34653 23.659862 L 64.34653 24.570336 L 61.87034 24.570336 L 61.87034 25.513327 L 64.049585 25.513327 L 64.049585 26.4238 L 61.87034 26.4238 L 61.87034 27.400535 L 64.37966 27.400535 L 64.37966 28.310395 L 60.85986 28.310395 Z" fill="white"/>
        </g>
        <g id="Graphic_8">
          <path d="M 65.31026 27.632694 L 65.9109 26.908732 C 66.32687 27.254148 66.76309 27.473177 67.291336 27.473177 C 67.70731 27.473177 67.95824 27.30691 67.95824 27.034505 L 67.95824 27.02162 C 67.95824 26.7621 67.79995 26.629577 67.02691 26.43018 C 66.09619 26.190906 65.49493 25.931997 65.49493 25.00864 L 65.49493 24.995142 C 65.49493 24.151543 66.16858 23.593233 67.1128 23.593233 C 67.78645 23.593233 68.36133 23.806127 68.83006 24.184673 L 68.30181 24.955263 C 67.89198 24.66936 67.489505 24.496958 67.099916 24.496958 C 66.71033 24.496958 66.50541 24.676108 66.50541 24.901886 L 66.50541 24.915384 C 66.50541 25.22092 66.70358 25.320925 67.50239 25.52707 C 68.44047 25.77248 68.96872 26.111147 68.96872 26.92223 L 68.96872 26.935114 C 68.96872 27.85847 68.26868 28.3769 67.2717 28.3769 C 66.57167 28.3769 65.86489 28.130877 65.31026 27.632694" fill="white"/>
        </g>
        <g id="Graphic_7">
          <path d="M 71.17361 24.60316 L 69.76679 24.60316 L 69.76679 23.66017 L 73.59704 23.66017 L 73.59704 24.60316 L 72.190835 24.60316 L 72.190835 28.31009 L 71.17361 28.31009 Z" fill="white"/>
        </g>
      </g>
    </g>
  </g>
</svg>
