<?xml version="1.0" encoding="UTF-8" standalone="no"?>
<!DOCTYPE svg PUBLIC "-//W3C//DTD SVG 1.1//EN" "http://www.w3.org/Graphics/SVG/1.1/DTD/svg11.dtd">
<svg xmlns="http://www.w3.org/2000/svg" xmlns:dc="http://purl.org/dc/elements/1.1/" xmlns:xl="http://www.w3.org/1999/xlink" version="1.1" viewBox="0 0 800 400" width="800" height="400">
  <defs/>
  <g id="Canvas_1" fill="none" stroke="none" stroke-dasharray="none" fill-opacity="1" stroke-opacity="1">
    <title>Canvas 1</title>
    <g id="Canvas_1_Break">
      <title>Break</title>
      <g id="Graphic_205">
        <path d="M 312.9514 201.88527 L 312.9514 201.88527 C 317.56186 189.0516 311.98294 175.30253 300.49253 171.17413 C 293.54217 168.67716 286.03284 170.29342 280.15385 174.78364 C 274.27378 170.29342 266.76444 168.67716 259.81408 171.17413 C 248.3226 175.30145 242.74367 189.0505 247.35414 201.88419 C 248.94657 206.317 251.55295 210.0489 254.74756 212.88062 C 254.7508 212.88495 254.75406 212.8882 254.7573 212.89145 L 254.7703 212.9012 C 256.07458 214.05382 257.47527 215.05477 258.94962 215.8889 L 277.5832 229.21114 C 278.33068 229.87195 279.27314 230.10485 280.15277 229.95753 C 281.0313 230.10485 281.97377 229.87195 282.72124 229.21114 L 301.3559 215.88998 C 302.83026 215.05585 304.23095 214.05598 305.53523 212.90228 L 305.54822 212.89253 C 305.55147 212.88928 305.55472 212.88495 305.55797 212.8817 C 308.7526 210.05 311.36005 206.31807 312.9514 201.88527 Z M 305.57206 199.29839 L 305.57206 199.29839 C 304.596 202.01527 303.69364 204.275 300.80127 207.02654 L 280.09644 222.32362 C 279.62412 221.75814 259.49993 207.02654 259.49993 207.02654 C 256.32807 204.18942 255.70843 202.01527 254.7324 199.29839 C 251.57137 190.4956 255.02705 181.19777 262.45188 178.53072 C 266.54887 177.05962 270.9936 177.923 274.69084 180.46439 C 274.67568 180.48714 274.66376 180.51313 274.6486 180.5348 C 274.6486 180.5348 277.64713 183.11519 279.3349 183.11519 C 279.61546 183.11519 279.8852 183.0751 280.14843 183.01877 C 280.42034 183.07835 280.7009 183.11519 280.99015 183.11519 C 282.6779 183.11519 285.5042 180.5348 285.5042 180.5348 C 289.22203 177.936 293.71658 177.04446 297.85257 178.53072 C 305.2785 181.19669 308.73417 190.4956 305.57206 199.29839 Z M 432.9514 321.88527 L 432.9514 321.88527 C 437.56186 309.0516 431.98294 295.30253 420.49253 291.17413 C 413.54217 288.67716 406.03284 290.29342 400.15385 294.78364 C 394.2738 290.29342 386.76444 288.67716 379.8141 291.17413 C 368.3226 295.30145 362.74367 309.0505 367.35414 321.8842 C 368.94657 326.317 371.55295 330.0489 374.74756 332.8806 C 374.7508 332.88495 374.75406 332.8882 374.7573 332.89145 L 374.7703 332.9012 C 376.0746 334.0538 377.47527 335.05477 378.9496 335.8889 L 397.5832 349.21114 C 398.3307 349.87195 399.27314 350.10485 400.15277 349.95753 C 401.0313 350.10485 401.97377 349.87195 402.72124 349.21114 L 421.3559 335.89 C 422.83026 335.05585 424.23095 334.056 425.5352 332.9023 L 425.5482 332.89253 C 425.55147 332.8893 425.5547 332.88495 425.55797 332.8817 C 428.7526 330.05 431.36005 326.31807 432.9514 321.88527 Z M 394.6486 300.5348 L 394.6486 300.5348 C 394.6486 300.5348 397.64713 303.1152 399.3349 303.1152 C 399.61546 303.1152 399.8852 303.0751 400.14843 303.01877 C 400.42034 303.07835 400.7009 303.1152 400.99015 303.1152 C 402.6779 303.1152 405.5042 300.5348 405.5042 300.5348 C 409.22203 297.936 413.7166 297.04446 417.85257 298.53072 C 425.2785 301.1967 428.73417 310.4956 425.57206 319.2984 C 424.596 322.01527 423.69364 324.275 420.80127 327.02654 L 400.09644 342.3236 C 399.6241 341.75814 379.49993 327.02654 379.49993 327.02654 C 376.32807 324.1894 375.70843 322.01527 374.7324 319.2984 C 371.57137 310.4956 375.02705 301.19777 382.4519 298.53072 C 386.54887 297.05962 390.9936 297.923 394.69084 300.4644 C 394.67568 300.48714 394.66376 300.51313 394.6486 300.5348 Z M 192.9514 81.88527 L 192.9514 81.88527 C 197.56186 69.05159 191.98294 55.30253 180.49253 51.17413 C 173.54217 48.67716 166.03284 50.29342 160.15385 54.78364 C 154.27378 50.29342 146.76444 48.67716 139.81408 51.17413 C 128.3226 55.30145 122.74367 69.05051 127.35414 81.88419 C 128.94657 86.31699 131.55295 90.04891 134.74756 92.88062 C 134.75081 92.88495 134.75406 92.8882 134.75731 92.89145 L 134.7703 92.9012 C 136.07458 94.05382 137.47527 95.05477 138.94962 95.8889 L 157.58321 109.21114 C 158.33068 109.87195 159.27314 110.10485 160.15277 109.95753 C 161.03131 110.10485 161.97377 109.87195 162.72124 109.21114 L 181.3559 95.88998 C 182.83026 95.05585 184.23095 94.05598 185.53523 92.90228 L 185.54822 92.89253 C 185.55147 92.88928 185.55472 92.88495 185.55797 92.8817 C 188.75258 90.04999 191.36005 86.31807 192.9514 81.88527 Z M 154.6486 60.5348 L 154.6486 60.5348 C 154.6486 60.5348 157.64713 63.115186 159.33489 63.115186 C 159.61546 63.115186 159.8852 63.075105 160.14843 63.01877 C 160.42034 63.078354 160.7009 63.115186 160.99015 63.115186 C 162.6779 63.115186 165.5042 60.5348 165.5042 60.5348 C 169.22203 57.936 173.71658 57.044455 177.85257 58.53072 C 185.27849 61.19669 188.73417 70.49561 185.57206 79.29839 C 184.59602 82.01527 183.69364 84.275 180.80127 87.02654 L 160.09644 102.32362 C 159.62412 101.75814 139.49993 87.02654 139.49993 87.02654 C 136.32807 84.18942 135.70843 82.01527 134.7324 79.29839 C 131.57137 70.49561 135.02705 61.19777 142.45188 58.53072 C 146.54887 57.05962 150.99359 57.923 154.69084 60.46439 C 154.67568 60.487136 154.66376 60.513135 154.6486 60.5348 Z M 552.9514 201.88527 L 552.9514 201.88527 C 557.56186 189.0516 551.98294 175.30253 540.4925 171.17413 C 533.5422 168.67716 526.03284 170.29342 520.15385 174.78364 C 514.2738 170.29342 506.76444 168.67716 499.8141 171.17413 C 488.3226 175.30145 482.7437 189.0505 487.35414 201.88419 C 488.94657 206.317 491.55295 210.0489 494.74756 212.88062 C 494.7508 212.88495 494.75406 212.8882 494.7573 212.89145 L 494.7703 212.9012 C 496.0746 214.05382 497.4753 215.05477 498.9496 215.8889 L 517.5832 229.21114 C 518.3307 229.87195 519.27314 230.10485 520.15277 229.95753 C 521.0313 230.10485 521.9738 229.87195 522.72124 229.21114 L 541.3559 215.88998 C 542.83026 215.05585 544.23095 214.05598 545.5352 212.90228 L 545.5482 212.89253 C 545.5515 212.88928 545.5547 212.88495 545.558 212.8817 C 548.7526 210.05 551.36005 206.31807 552.9514 201.88527 Z M 545.57206 199.29839 L 545.57206 199.29839 C 544.596 202.01527 543.69364 204.275 540.8013 207.02654 L 520.09644 222.32362 C 519.6241 221.75814 499.49993 207.02654 499.49993 207.02654 C 496.3281 204.18942 495.70843 202.01527 494.7324 199.29839 C 491.57137 190.4956 495.02705 181.19777 502.4519 178.53072 C 506.54887 177.05962 510.9936 177.923 514.69084 180.46439 C 514.6757 180.48714 514.66376 180.51313 514.6486 180.5348 C 514.6486 180.5348 517.6471 183.11519 519.3349 183.11519 C 519.61546 183.11519 519.8852 183.0751 520.14843 183.01877 C 520.42034 183.07835 520.7009 183.11519 520.99015 183.11519 C 522.6779 183.11519 525.5042 180.5348 525.5042 180.5348 C 529.222 177.936 533.7166 177.04446 537.85257 178.53072 C 545.2785 181.19669 548.73417 190.4956 545.57206 199.29839 Z M 672.9514 321.88527 L 672.9514 321.88527 C 677.56186 309.0516 671.9829 295.30253 660.4925 291.17413 C 653.5422 288.67716 646.03284 290.29342 640.15385 294.78364 C 634.2738 290.29342 626.76444 288.67716 619.8141 291.17413 C 608.3226 295.30145 602.7437 309.0505 607.3541 321.8842 C 608.9466 326.317 611.55295 330.0489 614.74756 332.8806 C 614.7508 332.88495 614.75406 332.8882 614.7573 332.89145 L 614.7703 332.9012 C 616.0746 334.0538 617.4753 335.05477 618.9496 335.8889 L 637.5832 349.21114 C 638.3307 349.87195 639.27314 350.10485 640.1528 349.95753 C 641.0313 350.10485 641.9738 349.87195 642.7212 349.21114 L 661.3559 335.89 C 662.8303 335.05585 664.23095 334.056 665.5352 332.9023 L 665.5482 332.89253 C 665.5515 332.8893 665.5547 332.88495 665.558 332.8817 C 668.7526 330.05 671.36005 326.31807 672.9514 321.88527 Z M 634.6486 300.5348 L 634.6486 300.5348 C 634.6486 300.5348 637.6471 303.1152 639.3349 303.1152 C 639.61546 303.1152 639.8852 303.0751 640.1484 303.01877 C 640.4203 303.07835 640.7009 303.1152 640.99015 303.1152 C 642.6779 303.1152 645.5042 300.5348 645.5042 300.5348 C 649.222 297.936 653.7166 297.04446 657.8526 298.53072 C 665.2785 301.1967 668.7342 310.4956 665.57206 319.2984 C 664.596 322.01527 663.69364 324.275 660.8013 327.02654 L 640.0964 342.3236 C 639.6241 341.75814 619.4999 327.02654 619.4999 327.02654 C 616.3281 324.1894 615.7084 322.01527 614.7324 319.2984 C 611.5714 310.4956 615.02705 301.19777 622.4519 298.53072 C 626.5489 297.05962 630.9936 297.923 634.69084 300.4644 C 634.6757 300.48714 634.66376 300.51313 634.6486 300.5348 Z M 432.9514 81.88527 L 432.9514 81.88527 C 437.56186 69.05159 431.98294 55.30253 420.49253 51.17413 C 413.54217 48.67716 406.03284 50.29342 400.15385 54.78364 C 394.2738 50.29342 386.76444 48.67716 379.8141 51.17413 C 368.3226 55.30145 362.74367 69.05051 367.35414 81.88419 C 368.94657 86.31699 371.55295 90.04891 374.74756 92.88062 C 374.7508 92.88495 374.75406 92.8882 374.7573 92.89145 L 374.7703 92.9012 C 376.0746 94.05382 377.47527 95.05477 378.9496 95.8889 L 397.5832 109.21114 C 398.3307 109.87195 399.27314 110.10485 400.15277 109.95753 C 401.0313 110.10485 401.97377 109.87195 402.72124 109.21114 L 421.3559 95.88998 C 422.83026 95.05585 424.23095 94.05598 425.5352 92.90228 L 425.5482 92.89253 C 425.55147 92.88928 425.5547 92.88495 425.55797 92.8817 C 428.7526 90.04999 431.36005 86.31807 432.9514 81.88527 Z M 394.6486 60.5348 L 394.6486 60.5348 C 394.6486 60.5348 397.64713 63.115186 399.3349 63.115186 C 399.61546 63.115186 399.8852 63.075105 400.14843 63.01877 C 400.42034 63.078354 400.7009 63.115186 400.99015 63.115186 C 402.6779 63.115186 405.5042 60.5348 405.5042 60.5348 C 409.22203 57.936 413.7166 57.044455 417.85257 58.53072 C 425.2785 61.19669 428.73417 70.49561 425.57206 79.29839 C 424.596 82.01527 423.69364 84.275 420.80127 87.02654 L 400.09644 102.32362 C 399.6241 101.75814 379.49993 87.02654 379.49993 87.02654 C 376.32807 84.18942 375.70843 82.01527 374.7324 79.29839 C 371.57137 70.49561 375.02705 61.19777 382.4519 58.53072 C 386.54887 57.05962 390.9936 57.923 394.69084 60.46439 C 394.67568 60.487136 394.66376 60.513135 394.6486 60.5348 Z M 72.9514 201.88527 L 72.9514 201.88527 C 77.56186 189.0516 71.98294 175.30253 60.49253 171.17413 C 53.54217 168.67716 46.03284 170.29342 40.15385 174.78364 C 34.273777 170.29342 26.764443 168.67716 19.814084 171.17413 C 8.322593 175.30145 2.7436736 189.0505 7.354136 201.88419 C 8.946565 206.317 11.55295 210.0489 14.747558 212.88062 C 14.750808 212.88495 14.754058 212.8882 14.757308 212.89145 L 14.770307 212.9012 C 16.074583 214.05382 17.47527 215.05477 18.949622 215.8889 L 37.583213 229.21114 C 38.33068 229.87195 39.27314 230.10485 40.152766 229.95753 C 41.03131 230.10485 41.97377 229.87195 42.721236 229.21114 L 61.35591 215.88998 C 62.83026 215.05585 64.23095 214.05598 65.535225 212.90228 L 65.548225 212.89253 C 65.551474 212.88928 65.554724 212.88495 65.557974 212.8817 C 68.75258 210.05 71.36005 206.31807 72.9514 201.88527 Z M 65.57206 199.29839 L 65.57206 199.29839 C 64.59602 202.01527 63.69364 204.275 60.80127 207.02654 L 40.096435 222.32362 C 39.624123 221.75814 19.499931 207.02654 19.499931 207.02654 C 16.328072 204.18942 15.708433 202.01527 14.732392 199.29839 C 11.571366 190.4956 15.027046 181.19777 22.451884 178.53072 C 26.54887 177.05962 30.99359 177.923 34.69084 180.46439 C 34.675676 180.48714 34.66376 180.51313 34.648593 180.5348 C 34.648593 180.5348 37.647127 183.11519 39.334886 183.11519 C 39.615457 183.11519 39.885195 183.0751 40.148433 183.01877 C 40.42034 183.07835 40.70091 183.11519 40.990146 183.11519 C 42.677904 183.11519 45.504196 180.5348 45.504196 180.5348 C 49.22203 177.936 53.71658 177.04446 57.852565 178.53072 C 65.27849 181.19669 68.73417 190.4956 65.57206 199.29839 Z M 192.9514 321.88527 L 192.9514 321.88527 C 197.56186 309.0516 191.98294 295.30253 180.49253 291.17413 C 173.54217 288.67716 166.03284 290.29342 160.15385 294.78364 C 154.27378 290.29342 146.76444 288.67716 139.81408 291.17413 C 128.3226 295.30145 122.74367 309.0505 127.35414 321.8842 C 128.94657 326.317 131.55295 330.0489 134.74756 332.8806 C 134.75081 332.88495 134.75406 332.8882 134.75731 332.89145 L 134.7703 332.9012 C 136.07458 334.0538 137.47527 335.05477 138.94962 335.8889 L 157.58321 349.21114 C 158.33068 349.87195 159.27314 350.10485 160.15277 349.95753 C 161.03131 350.10485 161.97377 349.87195 162.72124 349.21114 L 181.3559 335.89 C 182.83026 335.05585 184.23095 334.056 185.53523 332.9023 L 185.54822 332.89253 C 185.55147 332.8893 185.55472 332.88495 185.55797 332.8817 C 188.75258 330.05 191.36005 326.31807 192.9514 321.88527 Z M 154.6486 300.5348 L 154.6486 300.5348 C 154.6486 300.5348 157.64713 303.1152 159.33489 303.1152 C 159.61546 303.1152 159.8852 303.0751 160.14843 303.01877 C 160.42034 303.07835 160.7009 303.1152 160.99015 303.1152 C 162.6779 303.1152 165.5042 300.5348 165.5042 300.5348 C 169.22203 297.936 173.71658 297.04446 177.85257 298.53072 C 185.27849 301.1967 188.73417 310.4956 185.57206 319.2984 C 184.59602 322.01527 183.69364 324.275 180.80127 327.02654 L 160.09644 342.3236 C 159.62412 341.75814 139.49993 327.02654 139.49993 327.02654 C 136.32807 324.1894 135.70843 322.01527 134.7324 319.2984 C 131.57137 310.4956 135.02705 301.19777 142.45188 298.53072 C 146.54887 297.05962 150.99359 297.923 154.69084 300.4644 C 154.67568 300.48714 154.66376 300.51313 154.6486 300.5348 Z M 672.9514 81.88527 L 672.9514 81.88527 C 677.56186 69.05159 671.9829 55.30253 660.4925 51.17413 C 653.5422 48.67716 646.03284 50.29342 640.15385 54.78364 C 634.2738 50.29342 626.76444 48.67716 619.8141 51.17413 C 608.3226 55.30145 602.7437 69.05051 607.3541 81.88419 C 608.9466 86.31699 611.55295 90.04891 614.74756 92.88062 C 614.7508 92.88495 614.75406 92.8882 614.7573 92.89145 L 614.7703 92.9012 C 616.0746 94.05382 617.4753 95.05477 618.9496 95.8889 L 637.5832 109.21114 C 638.3307 109.87195 639.27314 110.10485 640.1528 109.95753 C 641.0313 110.10485 641.9738 109.87195 642.7212 109.21114 L 661.3559 95.88998 C 662.8303 95.05585 664.23095 94.05598 665.5352 92.90228 L 665.5482 92.89253 C 665.5515 92.88928 665.5547 92.88495 665.558 92.8817 C 668.7526 90.04999 671.36005 86.31807 672.9514 81.88527 Z M 634.6486 60.5348 L 634.6486 60.5348 C 634.6486 60.5348 637.6471 63.115186 639.3349 63.115186 C 639.61546 63.115186 639.8852 63.075105 640.1484 63.01877 C 640.4203 63.078354 640.7009 63.115186 640.99015 63.115186 C 642.6779 63.115186 645.5042 60.5348 645.5042 60.5348 C 649.222 57.936 653.7166 57.044455 657.8526 58.53072 C 665.2785 61.19669 668.7342 70.49561 665.57206 79.29839 C 664.596 82.01527 663.69364 84.275 660.8013 87.02654 L 640.0964 102.32362 C 639.6241 101.75814 619.4999 87.02654 619.4999 87.02654 C 616.3281 84.18942 615.7084 82.01527 614.7324 79.29839 C 611.5714 70.49561 615.02705 61.19777 622.4519 58.53072 C 626.5489 57.05962 630.9936 57.923 634.69084 60.46439 C 634.6757 60.487136 634.66376 60.513135 634.6486 60.5348 Z M 792.9514 201.88527 L 792.9514 201.88527 C 797.5619 189.0516 791.9829 175.30253 780.4925 171.17413 C 773.5422 168.67716 766.0328 170.29342 760.15385 174.78364 C 754.2738 170.29342 746.7644 168.67716 739.8141 171.17413 C 728.3226 175.30145 722.7437 189.0505 727.3541 201.88419 C 728.9466 206.317 731.55295 210.0489 734.7476 212.88062 C 734.7508 212.88495 734.7541 212.8882 734.7573 212.89145 L 734.7703 212.9012 C 736.0746 214.05382 737.4753 215.05477 738.9496 215.8889 L 757.5832 229.21114 C 758.3307 229.87195 759.2731 230.10485 760.1528 229.95753 C 761.0313 230.10485 761.9738 229.87195 762.7212 229.21114 L 781.3559 215.88998 C 782.8303 215.05585 784.23095 214.05598 785.5352 212.90228 L 785.5482 212.89253 C 785.5515 212.88928 785.5547 212.88495 785.558 212.8817 C 788.7526 210.05 791.36005 206.31807 792.9514 201.88527 Z M 785.5721 199.29839 L 785.5721 199.29839 C 784.596 202.01527 783.6936 204.275 780.8013 207.02654 L 760.0964 222.32362 C 759.6241 221.75814 739.4999 207.02654 739.4999 207.02654 C 736.3281 204.18942 735.7084 202.01527 734.7324 199.29839 C 731.5714 190.4956 735.02705 181.19777 742.4519 178.53072 C 746.5489 177.05962 750.9936 177.923 754.6908 180.46439 C 754.6757 180.48714 754.6638 180.51313 754.6486 180.5348 C 754.6486 180.5348 757.6471 183.11519 759.3349 183.11519 C 759.6155 183.11519 759.8852 183.0751 760.1484 183.01877 C 760.4203 183.07835 760.7009 183.11519 760.99015 183.11519 C 762.6779 183.11519 765.5042 180.5348 765.5042 180.5348 C 769.222 177.936 773.7166 177.04446 777.8526 178.53072 C 785.2785 181.19669 788.7342 190.4956 785.5721 199.29839 Z" fill="#e6007e"/>
      </g>
      <g id="Graphic_204">
        <path d="M 411.1098 221.10069 L 411.1098 221.10069 C 420.922 221.10069 428.87694 213.09297 428.87786 203.27984 L 428.87786 196.65628 C 428.87786 189.30777 424.41617 183.00177 418.0537 180.29828 C 418.05185 180.30569 418.04814 180.31494 418.04537 180.32235 C 417.62595 180.1344 417.16673 180.01867 416.67695 180.01867 C 414.81784 180.01867 413.31055 181.52596 413.31055 183.38508 C 413.31055 184.65813 414.0438 185.72564 415.0854 186.29782 C 415.06504 186.3256 415.05115 186.35337 415.0308 186.38114 C 419.2888 188.08194 422.2515 192.22514 422.2515 197.0905 L 422.2515 202.93727 C 422.2515 209.3164 417.13433 214.48638 410.7561 214.48638 L 402.73544 214.48638 L 406.2111 210.8913 C 407.0777 210.02376 407.0777 208.61832 406.2111 207.75172 L 404.64085 206.18147 C 403.7733 205.31487 402.3688 205.31487 401.50127 206.18147 L 391.8946 216.11774 C 391.44094 216.5714 391.23818 217.17136 391.25947 217.76576 C 391.23818 218.36016 391.44094 218.9601 391.8946 219.41378 L 401.41147 229.35005 C 402.279 230.21665 403.68444 230.21665 404.55104 229.35005 L 406.1213 227.7798 C 406.9879 226.91228 406.9879 225.50683 406.1213 224.64023 L 402.6799 221.10069 Z M 408.2174 183.88134 L 408.2174 183.88134 C 408.6711 183.42767 408.87293 182.82771 408.85256 182.23424 C 408.87293 181.63984 408.6711 181.03989 408.2174 180.58622 L 398.70056 170.64995 C 397.83396 169.78335 396.4285 169.78335 395.5619 170.64995 L 393.99074 172.2202 C 393.12414 173.08772 393.12414 174.49317 393.99074 175.35977 L 397.37196 178.89005 L 388.8893 178.89005 C 379.07708 178.89005 371.12214 186.845 371.12214 196.6572 L 371.12214 203.28077 C 371.12214 210.5913 375.54124 216.86583 381.85 219.59247 C 381.85 219.59154 381.85 219.59154 381.85094 219.59062 C 382.3111 219.82764 382.81197 219.99336 383.36564 219.99336 C 385.22475 219.99336 386.7311 218.48607 386.7311 216.62696 C 386.7311 215.6363 386.2858 214.76784 385.60435 214.15215 C 385.68398 214.0605 377.817 208.07484 377.817 202.93727 L 377.817 197.0905 C 377.817 190.71136 382.9879 185.5414 389.3661 185.5414 L 397.3479 185.5414 L 393.9 189.10778 C 393.0334 189.9753 393.0334 191.38076 393.9 192.24736 L 395.4712 193.8176 C 396.3378 194.6842 397.74323 194.6842 398.60983 193.8176 Z M 531.1098 341.1007 L 531.1098 341.1007 C 540.922 341.1007 548.87694 333.09297 548.87786 323.27984 L 548.87786 316.65628 C 548.87786 309.30777 544.4162 303.00177 538.0537 300.29828 C 538.05185 300.3057 538.04814 300.31494 538.04537 300.32235 C 537.62595 300.1344 537.1667 300.01867 536.67695 300.01867 C 534.81784 300.01867 533.31055 301.52596 533.31055 303.38508 C 533.31055 304.65813 534.0438 305.72564 535.0854 306.2978 C 535.06504 306.3256 535.05115 306.35337 535.0308 306.38114 C 539.2888 308.08194 542.2515 312.22514 542.2515 317.0905 L 542.2515 322.93727 C 542.2515 329.3164 537.1343 334.4864 530.7561 334.4864 L 522.73544 334.4864 L 526.2111 330.8913 C 527.0777 330.02376 527.0777 328.6183 526.2111 327.7517 L 524.64085 326.18147 C 523.7733 325.31487 522.3688 325.31487 521.5013 326.18147 L 511.8946 336.11774 C 511.44094 336.5714 511.2382 337.17136 511.2595 337.76576 C 511.2382 338.36016 511.44094 338.9601 511.8946 339.4138 L 521.41147 349.35005 C 522.279 350.21665 523.68444 350.21665 524.55104 349.35005 L 526.1213 347.7798 C 526.9879 346.91228 526.9879 345.50683 526.1213 344.64023 L 522.6799 341.1007 Z M 528.2174 303.88134 L 528.2174 303.88134 L 528.2174 303.88134 C 528.6711 303.42767 528.8729 302.8277 528.85256 302.23424 C 528.8729 301.63984 528.6711 301.0399 528.2174 300.58622 L 518.70056 290.64995 C 517.83396 289.78335 516.4285 289.78335 515.5619 290.64995 L 513.99074 292.2202 C 513.12414 293.08772 513.12414 294.49317 513.99074 295.35977 L 517.37196 298.89005 L 508.8893 298.89005 C 499.0771 298.89005 491.12214 306.845 491.12214 316.6572 L 491.12214 323.28077 C 491.12214 330.5913 495.54124 336.86583 501.85 339.59247 C 501.85 339.59154 501.85 339.59154 501.85094 339.5906 C 502.3111 339.82764 502.812 339.99336 503.36564 339.99336 C 505.22475 339.99336 506.7311 338.48607 506.7311 336.62696 C 506.7311 335.6363 506.2858 334.76784 505.60435 334.15215 C 505.684 334.0605 497.817 328.07484 497.817 322.93727 L 497.817 317.0905 C 497.817 310.71136 502.9879 305.5414 509.3661 305.5414 L 517.3479 305.5414 L 513.9 309.1078 C 513.0334 309.9753 513.0334 311.38076 513.9 312.24736 L 515.4712 313.8176 C 516.3378 314.6842 517.7432 314.6842 518.6098 313.8176 Z M 291.1098 101.10069 L 291.1098 101.10069 C 300.922 101.10069 308.87694 93.09297 308.87786 83.27984 L 308.87786 76.65628 C 308.87786 69.30777 304.41617 63.001775 298.0537 60.29828 C 298.05185 60.305686 298.04814 60.314945 298.04537 60.32235 C 297.62595 60.1344 297.16673 60.01867 296.67695 60.01867 C 294.81784 60.01867 293.31055 61.52596 293.31055 63.38508 C 293.31055 64.65813 294.04382 65.72564 295.0854 66.29782 C 295.06504 66.32559 295.05115 66.35337 295.0308 66.38114 C 299.2888 68.08194 302.25152 72.22514 302.25152 77.0905 L 302.25152 82.93727 C 302.25152 89.31641 297.13433 94.48638 290.7561 94.48638 L 282.73544 94.48638 L 286.2111 90.89129 C 287.0777 90.02376 287.0777 88.61832 286.2111 87.75172 L 284.64085 86.18147 C 283.77332 85.31487 282.3688 85.31487 281.50127 86.18147 L 271.8946 96.11774 C 271.44094 96.57141 271.23818 97.17136 271.25947 97.76576 C 271.23818 98.36016 271.44094 98.96011 271.8946 99.41378 L 281.41147 109.35005 C 282.279 110.21665 283.68444 110.21665 284.55104 109.35005 L 286.1213 107.7798 C 286.9879 106.91228 286.9879 105.50683 286.1213 104.64023 L 282.6799 101.10069 Z M 288.21742 63.88134 L 288.21742 63.88134 C 288.6711 63.42767 288.87293 62.827714 288.85256 62.23424 C 288.87293 61.63984 288.6711 61.03989 288.21742 60.58622 L 278.70056 50.64995 C 277.83396 49.78335 276.4285 49.78335 275.56192 50.64995 L 273.99074 52.2202 C 273.12414 53.087725 273.12414 54.49317 273.99074 55.35977 L 277.37196 58.890055 L 268.88928 58.890055 C 259.07708 58.890055 251.12214 66.845 251.12214 76.6572 L 251.12214 83.28077 C 251.12214 90.59131 255.54124 96.86583 261.85 99.59247 C 261.85 99.59154 261.85 99.59154 261.85094 99.59062 C 262.3111 99.82764 262.81197 99.99336 263.36564 99.99336 C 265.22475 99.99336 266.73112 98.48607 266.73112 96.62696 C 266.73112 95.63629 266.28578 94.76784 265.60435 94.15215 C 265.68398 94.06049 257.817 88.07484 257.817 82.93727 L 257.817 77.0905 C 257.817 70.711365 262.9879 65.54139 269.3661 65.54139 L 277.3479 65.54139 L 273.9 69.107785 C 273.0334 69.97531 273.0334 71.38076 273.9 72.24736 L 275.47118 73.81761 C 276.33778 74.68421 277.74323 74.68421 278.60983 73.81761 Z M 651.1098 221.10069 L 651.1098 221.10069 C 660.922 221.10069 668.8769 213.09297 668.8779 203.27984 L 668.8779 196.65628 C 668.8779 189.30777 664.4162 183.00177 658.0537 180.29828 C 658.05185 180.30569 658.04814 180.31494 658.0454 180.32235 C 657.62595 180.1344 657.1667 180.01867 656.67695 180.01867 C 654.8178 180.01867 653.31055 181.52596 653.31055 183.38508 C 653.31055 184.65813 654.0438 185.72564 655.0854 186.29782 C 655.06504 186.3256 655.05115 186.35337 655.0308 186.38114 C 659.2888 188.08194 662.2515 192.22514 662.2515 197.0905 L 662.2515 202.93727 C 662.2515 209.3164 657.1343 214.48638 650.7561 214.48638 L 642.7354 214.48638 L 646.2111 210.8913 C 647.0777 210.02376 647.0777 208.61832 646.2111 207.75172 L 644.64085 206.18147 C 643.7733 205.31487 642.3688 205.31487 641.5013 206.18147 L 631.8946 216.11774 C 631.44094 216.5714 631.2382 217.17136 631.2595 217.76576 C 631.2382 218.36016 631.44094 218.9601 631.8946 219.41378 L 641.4115 229.35005 C 642.279 230.21665 643.6844 230.21665 644.551 229.35005 L 646.1213 227.7798 C 646.9879 226.91228 646.9879 225.50683 646.1213 224.64023 L 642.6799 221.10069 Z M 648.2174 183.88134 L 648.2174 183.88134 C 648.6711 183.42767 648.8729 182.82771 648.85256 182.23424 C 648.8729 181.63984 648.6711 181.03989 648.2174 180.58622 L 638.7006 170.64995 C 637.834 169.78335 636.4285 169.78335 635.5619 170.64995 L 633.99074 172.2202 C 633.12414 173.08772 633.12414 174.49317 633.99074 175.35977 L 637.372 178.89005 L 628.8893 178.89005 C 619.0771 178.89005 611.1221 186.845 611.1221 196.6572 L 611.1221 203.28077 C 611.1221 210.5913 615.54124 216.86583 621.85 219.59247 C 621.85 219.59154 621.85 219.59154 621.85094 219.59062 C 622.3111 219.82764 622.812 219.99336 623.3656 219.99336 C 625.22475 219.99336 626.7311 218.48607 626.7311 216.62696 C 626.7311 215.6363 626.2858 214.76784 625.60435 214.15215 C 625.684 214.0605 617.817 208.07484 617.817 202.93727 L 617.817 197.0905 C 617.817 190.71136 622.9879 185.5414 629.3661 185.5414 L 637.3479 185.5414 L 633.9 189.10778 C 633.0334 189.9753 633.0334 191.38076 633.9 192.24736 L 635.4712 193.8176 C 636.3378 194.6842 637.7432 194.6842 638.6098 193.8176 Z M 51.10979 341.1007 L 51.10979 341.1007 C 60.922 341.1007 68.87694 333.09297 68.877864 323.27984 L 68.877864 316.65628 C 68.877864 309.30777 64.41617 303.00177 58.0537 300.29828 C 58.05185 300.3057 58.048144 300.31494 58.04537 300.32235 C 57.625955 300.1344 57.16673 300.01867 56.676954 300.01867 C 54.81784 300.01867 53.31055 301.52596 53.31055 303.38508 C 53.31055 304.65813 54.043824 305.72564 55.08541 306.2978 C 55.06504 306.3256 55.051153 306.35337 55.030785 306.38114 C 59.28879 308.08194 62.251524 312.22514 62.251524 317.0905 L 62.251524 322.93727 C 62.251524 329.3164 57.134326 334.4864 50.756114 334.4864 L 42.735437 334.4864 L 46.211095 330.8913 C 47.077695 330.02376 47.077695 328.6183 46.211095 327.7517 L 44.640846 326.18147 C 43.77332 325.31487 42.3688 325.31487 41.501273 326.18147 L 31.894607 336.11774 C 31.44094 336.5714 31.238176 337.17136 31.25947 337.76576 C 31.238176 338.36016 31.44094 338.9601 31.894607 339.4138 L 41.411465 349.35005 C 42.27899 350.21665 43.68444 350.21665 44.55104 349.35005 L 46.121287 347.7798 C 46.987887 346.91228 46.987887 345.50683 46.121287 344.64023 L 42.679886 341.1007 Z M 48.21742 303.88134 L 48.21742 303.88134 L 48.21742 303.88134 C 48.67109 303.42767 48.872926 302.8277 48.85256 302.23424 C 48.872926 301.63984 48.67109 301.0399 48.21742 300.58622 L 38.700563 290.64995 C 37.833963 289.78335 36.428516 289.78335 35.561917 290.64995 L 33.99074 292.2202 C 33.12414 293.08772 33.12414 294.49317 33.99074 295.35977 L 37.37196 298.89005 L 28.889283 298.89005 C 19.077077 298.89005 11.122136 306.845 11.122136 316.6572 L 11.122136 323.28077 C 11.122136 330.5913 15.54124 336.86583 21.850012 339.59247 C 21.850012 339.59154 21.850012 339.59154 21.850937 339.5906 C 22.311087 339.82764 22.811974 339.99336 23.365635 339.99336 C 25.22475 339.99336 26.731116 338.48607 26.731116 336.62696 C 26.731116 335.6363 26.28578 334.76784 25.60435 334.15215 C 25.683975 334.0605 17.81699 328.07484 17.81699 322.93727 L 17.81699 317.0905 C 17.81699 310.71136 22.987887 305.5414 29.3661 305.5414 L 37.34789 305.5414 L 33.900008 309.1078 C 33.033408 309.9753 33.033408 311.38076 33.900008 312.24736 L 35.471183 313.8176 C 36.337783 314.6842 37.74323 314.6842 38.60983 313.8176 Z M 531.1098 101.10069 L 531.1098 101.10069 C 540.922 101.10069 548.87694 93.09297 548.87786 83.27984 L 548.87786 76.65628 C 548.87786 69.30777 544.4162 63.001775 538.0537 60.29828 C 538.05185 60.305686 538.04814 60.314945 538.04537 60.32235 C 537.62595 60.1344 537.1667 60.01867 536.67695 60.01867 C 534.81784 60.01867 533.31055 61.52596 533.31055 63.38508 C 533.31055 64.65813 534.0438 65.72564 535.0854 66.29782 C 535.06504 66.32559 535.05115 66.35337 535.0308 66.38114 C 539.2888 68.08194 542.2515 72.22514 542.2515 77.0905 L 542.2515 82.93727 C 542.2515 89.31641 537.1343 94.48638 530.7561 94.48638 L 522.73544 94.48638 L 526.2111 90.89129 C 527.0777 90.02376 527.0777 88.61832 526.2111 87.75172 L 524.64085 86.18147 C 523.7733 85.31487 522.3688 85.31487 521.5013 86.18147 L 511.8946 96.11774 C 511.44094 96.57141 511.2382 97.17136 511.2595 97.76576 C 511.2382 98.36016 511.44094 98.96011 511.8946 99.41378 L 521.41147 109.35005 C 522.279 110.21665 523.68444 110.21665 524.55104 109.35005 L 526.1213 107.7798 C 526.9879 106.91228 526.9879 105.50683 526.1213 104.64023 L 522.6799 101.10069 Z M 528.2174 63.88134 L 528.2174 63.88134 C 528.6711 63.42767 528.8729 62.827714 528.85256 62.23424 C 528.8729 61.63984 528.6711 61.03989 528.2174 60.58622 L 518.70056 50.64995 C 517.83396 49.78335 516.4285 49.78335 515.5619 50.64995 L 513.99074 52.2202 C 513.12414 53.087725 513.12414 54.49317 513.99074 55.35977 L 517.37196 58.890055 L 508.8893 58.890055 C 499.0771 58.890055 491.12214 66.845 491.12214 76.6572 L 491.12214 83.28077 C 491.12214 90.59131 495.54124 96.86583 501.85 99.59247 C 501.85 99.59154 501.85 99.59154 501.85094 99.59062 C 502.3111 99.82764 502.812 99.99336 503.36564 99.99336 C 505.22475 99.99336 506.7311 98.48607 506.7311 96.62696 C 506.7311 95.63629 506.2858 94.76784 505.60435 94.15215 C 505.684 94.06049 497.817 88.07484 497.817 82.93727 L 497.817 77.0905 C 497.817 70.711365 502.9879 65.54139 509.3661 65.54139 L 517.3479 65.54139 L 513.9 69.107785 C 513.0334 69.97531 513.0334 71.38076 513.9 72.24736 L 515.4712 73.81761 C 516.3378 74.68421 517.7432 74.68421 518.6098 73.81761 Z M 171.1098 221.10069 L 171.1098 221.10069 C 180.922 221.10069 188.87694 213.09297 188.87786 203.27984 L 188.87786 196.65628 C 188.87786 189.30777 184.41617 183.00177 178.0537 180.29828 C 178.05185 180.30569 178.04814 180.31494 178.04537 180.32235 C 177.62595 180.1344 177.16673 180.01867 176.67695 180.01867 C 174.81784 180.01867 173.31055 181.52596 173.31055 183.38508 C 173.31055 184.65813 174.04382 185.72564 175.0854 186.29782 C 175.06504 186.3256 175.05115 186.35337 175.03078 186.38114 C 179.2888 188.08194 182.25152 192.22514 182.25152 197.0905 L 182.25152 202.93727 C 182.25152 209.3164 177.13433 214.48638 170.75611 214.48638 L 162.73544 214.48638 L 166.2111 210.8913 C 167.0777 210.02376 167.0777 208.61832 166.2111 207.75172 L 164.64085 206.18147 C 163.77332 205.31487 162.3688 205.31487 161.50127 206.18147 L 151.8946 216.11774 C 151.44094 216.5714 151.23818 217.17136 151.25947 217.76576 C 151.23818 218.36016 151.44094 218.9601 151.8946 219.41378 L 161.41147 229.35005 C 162.279 230.21665 163.68444 230.21665 164.55104 229.35005 L 166.12129 227.7798 C 166.98789 226.91228 166.98789 225.50683 166.12129 224.64023 L 162.67989 221.10069 Z M 168.21742 183.88134 L 168.21742 183.88134 C 168.6711 183.42767 168.87293 182.82771 168.85256 182.23424 C 168.87293 181.63984 168.6711 181.03989 168.21742 180.58622 L 158.70056 170.64995 C 157.83396 169.78335 156.42852 169.78335 155.56192 170.64995 L 153.99074 172.2202 C 153.12414 173.08772 153.12414 174.49317 153.99074 175.35977 L 157.37196 178.89005 L 148.88928 178.89005 C 139.07708 178.89005 131.12214 186.845 131.12214 196.6572 L 131.12214 203.28077 C 131.12214 210.5913 135.54124 216.86583 141.85001 219.59247 C 141.85001 219.59154 141.85001 219.59154 141.85094 219.59062 C 142.31109 219.82764 142.81197 219.99336 143.36564 219.99336 C 145.22475 219.99336 146.73112 218.48607 146.73112 216.62696 C 146.73112 215.6363 146.28578 214.76784 145.60435 214.15215 C 145.68398 214.0605 137.81699 208.07484 137.81699 202.93727 L 137.81699 197.0905 C 137.81699 190.71136 142.98789 185.5414 149.3661 185.5414 L 157.34789 185.5414 L 153.9 189.10778 C 153.0334 189.9753 153.0334 191.38076 153.9 192.24736 L 155.47118 193.8176 C 156.33778 194.6842 157.74323 194.6842 158.60983 193.8176 Z M 291.1098 341.1007 L 291.1098 341.1007 C 300.922 341.1007 308.87694 333.09297 308.87786 323.27984 L 308.87786 316.65628 C 308.87786 309.30777 304.41617 303.00177 298.0537 300.29828 C 298.05185 300.3057 298.04814 300.31494 298.04537 300.32235 C 297.62595 300.1344 297.16673 300.01867 296.67695 300.01867 C 294.81784 300.01867 293.31055 301.52596 293.31055 303.38508 C 293.31055 304.65813 294.04382 305.72564 295.0854 306.2978 C 295.06504 306.3256 295.05115 306.35337 295.0308 306.38114 C 299.2888 308.08194 302.25152 312.22514 302.25152 317.0905 L 302.25152 322.93727 C 302.25152 329.3164 297.13433 334.4864 290.7561 334.4864 L 282.73544 334.4864 L 286.2111 330.8913 C 287.0777 330.02376 287.0777 328.6183 286.2111 327.7517 L 284.64085 326.18147 C 283.77332 325.31487 282.3688 325.31487 281.50127 326.18147 L 271.8946 336.11774 C 271.44094 336.5714 271.23818 337.17136 271.25947 337.76576 C 271.23818 338.36016 271.44094 338.9601 271.8946 339.4138 L 281.41147 349.35005 C 282.279 350.21665 283.68444 350.21665 284.55104 349.35005 L 286.1213 347.7798 C 286.9879 346.91228 286.9879 345.50683 286.1213 344.64023 L 282.6799 341.1007 Z M 288.21742 303.88134 L 288.21742 303.88134 L 288.21742 303.88134 C 288.6711 303.42767 288.87293 302.8277 288.85256 302.23424 C 288.87293 301.63984 288.6711 301.0399 288.21742 300.58622 L 278.70056 290.64995 C 277.83396 289.78335 276.4285 289.78335 275.56192 290.64995 L 273.99074 292.2202 C 273.12414 293.08772 273.12414 294.49317 273.99074 295.35977 L 277.37196 298.89005 L 268.88928 298.89005 C 259.07708 298.89005 251.12214 306.845 251.12214 316.6572 L 251.12214 323.28077 C 251.12214 330.5913 255.54124 336.86583 261.85 339.59247 C 261.85 339.59154 261.85 339.59154 261.85094 339.5906 C 262.3111 339.82764 262.81197 339.99336 263.36564 339.99336 C 265.22475 339.99336 266.73112 338.48607 266.73112 336.62696 C 266.73112 335.6363 266.28578 334.76784 265.60435 334.15215 C 265.68398 334.0605 257.817 328.07484 257.817 322.93727 L 257.817 317.0905 C 257.817 310.71136 262.9879 305.5414 269.3661 305.5414 L 277.3479 305.5414 L 273.9 309.1078 C 273.0334 309.9753 273.0334 311.38076 273.9 312.24736 L 275.47118 313.8176 C 276.33778 314.6842 277.74323 314.6842 278.60983 313.8176 Z M 51.10979 101.10069 L 51.10979 101.10069 C 60.922 101.10069 68.87694 93.09297 68.877864 83.27984 L 68.877864 76.65628 C 68.877864 69.30777 64.41617 63.001775 58.0537 60.29828 C 58.05185 60.305686 58.048144 60.314945 58.04537 60.32235 C 57.625955 60.1344 57.16673 60.01867 56.676954 60.01867 C 54.81784 60.01867 53.31055 61.52596 53.31055 63.38508 C 53.31055 64.65813 54.043824 65.72564 55.08541 66.29782 C 55.06504 66.32559 55.051153 66.35337 55.030785 66.38114 C 59.28879 68.08194 62.251524 72.22514 62.251524 77.0905 L 62.251524 82.93727 C 62.251524 89.31641 57.134326 94.48638 50.756114 94.48638 L 42.735437 94.48638 L 46.211095 90.89129 C 47.077695 90.02376 47.077695 88.61832 46.211095 87.75172 L 44.640846 86.18147 C 43.77332 85.31487 42.3688 85.31487 41.501273 86.18147 L 31.894607 96.11774 C 31.44094 96.57141 31.238176 97.17136 31.25947 97.76576 C 31.238176 98.36016 31.44094 98.96011 31.894607 99.41378 L 41.411465 109.35005 C 42.27899 110.21665 43.68444 110.21665 44.55104 109.35005 L 46.121287 107.7798 C 46.987887 106.91228 46.987887 105.50683 46.121287 104.64023 L 42.679886 101.10069 Z M 48.21742 63.88134 L 48.21742 63.88134 C 48.67109 63.42767 48.872926 62.827714 48.85256 62.23424 C 48.872926 61.63984 48.67109 61.03989 48.21742 60.58622 L 38.700563 50.64995 C 37.833963 49.78335 36.428516 49.78335 35.561917 50.64995 L 33.99074 52.2202 C 33.12414 53.087725 33.12414 54.49317 33.99074 55.35977 L 37.37196 58.890055 L 28.889283 58.890055 C 19.077077 58.890055 11.122136 66.845 11.122136 76.6572 L 11.122136 83.28077 C 11.122136 90.59131 15.54124 96.86583 21.850012 99.59247 C 21.850012 99.59154 21.850012 99.59154 21.850937 99.59062 C 22.311087 99.82764 22.811974 99.99336 23.365635 99.99336 C 25.22475 99.99336 26.731116 98.48607 26.731116 96.62696 C 26.731116 95.63629 26.28578 94.76784 25.60435 94.15215 C 25.683975 94.06049 17.81699 88.07484 17.81699 82.93727 L 17.81699 77.0905 C 17.81699 70.711365 22.987887 65.54139 29.3661 65.54139 L 37.34789 65.54139 L 33.900008 69.107785 C 33.033408 69.97531 33.033408 71.38076 33.900008 72.24736 L 35.471183 73.81761 C 36.337783 74.68421 37.74323 74.68421 38.60983 73.81761 Z M 771.1098 341.1007 L 771.1098 341.1007 C 780.922 341.1007 788.8769 333.09297 788.8779 323.27984 L 788.8779 316.65628 C 788.8779 309.30777 784.4162 303.00177 778.0537 300.29828 C 778.05185 300.3057 778.0481 300.31494 778.0454 300.32235 C 777.626 300.1344 777.1667 300.01867 776.677 300.01867 C 774.8178 300.01867 773.31055 301.52596 773.31055 303.38508 C 773.31055 304.65813 774.0438 305.72564 775.0854 306.2978 C 775.065 306.3256 775.05115 306.35337 775.0308 306.38114 C 779.2888 308.08194 782.2515 312.22514 782.2515 317.0905 L 782.2515 322.93727 C 782.2515 329.3164 777.1343 334.4864 770.7561 334.4864 L 762.7354 334.4864 L 766.2111 330.8913 C 767.0777 330.02376 767.0777 328.6183 766.2111 327.7517 L 764.64085 326.18147 C 763.7733 325.31487 762.3688 325.31487 761.5013 326.18147 L 751.8946 336.11774 C 751.4409 336.5714 751.2382 337.17136 751.2595 337.76576 C 751.2382 338.36016 751.4409 338.9601 751.8946 339.4138 L 761.4115 349.35005 C 762.279 350.21665 763.6844 350.21665 764.551 349.35005 L 766.1213 347.7798 C 766.9879 346.91228 766.9879 345.50683 766.1213 344.64023 L 762.6799 341.1007 Z M 768.2174 303.88134 L 768.2174 303.88134 L 768.2174 303.88134 C 768.6711 303.42767 768.8729 302.8277 768.8526 302.23424 C 768.8729 301.63984 768.6711 301.0399 768.2174 300.58622 L 758.7006 290.64995 C 757.834 289.78335 756.4285 289.78335 755.5619 290.64995 L 753.9907 292.2202 C 753.1241 293.08772 753.1241 294.49317 753.9907 295.35977 L 757.372 298.89005 L 748.8893 298.89005 C 739.0771 298.89005 731.1221 306.845 731.1221 316.6572 L 731.1221 323.28077 C 731.1221 330.5913 735.5412 336.86583 741.85 339.59247 C 741.85 339.59154 741.85 339.59154 741.8509 339.5906 C 742.3111 339.82764 742.812 339.99336 743.3656 339.99336 C 745.22475 339.99336 746.7311 338.48607 746.7311 336.62696 C 746.7311 335.6363 746.2858 334.76784 745.60435 334.15215 C 745.684 334.0605 737.817 328.07484 737.817 322.93727 L 737.817 317.0905 C 737.817 310.71136 742.9879 305.5414 749.3661 305.5414 L 757.3479 305.5414 L 753.9 309.1078 C 753.0334 309.9753 753.0334 311.38076 753.9 312.24736 L 755.4712 313.8176 C 756.3378 314.6842 757.7432 314.6842 758.6098 313.8176 Z M 771.1098 101.10069 L 771.1098 101.10069 C 780.922 101.10069 788.8769 93.09297 788.8779 83.27984 L 788.8779 76.65628 C 788.8779 69.30777 784.4162 63.001775 778.0537 60.29828 C 778.05185 60.305686 778.0481 60.314945 778.0454 60.32235 C 777.626 60.1344 777.1667 60.01867 776.677 60.01867 C 774.8178 60.01867 773.31055 61.52596 773.31055 63.38508 C 773.31055 64.65813 774.0438 65.72564 775.0854 66.29782 C 775.065 66.32559 775.05115 66.35337 775.0308 66.38114 C 779.2888 68.08194 782.2515 72.22514 782.2515 77.0905 L 782.2515 82.93727 C 782.2515 89.31641 777.1343 94.48638 770.7561 94.48638 L 762.7354 94.48638 L 766.2111 90.89129 C 767.0777 90.02376 767.0777 88.61832 766.2111 87.75172 L 764.64085 86.18147 C 763.7733 85.31487 762.3688 85.31487 761.5013 86.18147 L 751.8946 96.11774 C 751.4409 96.57141 751.2382 97.17136 751.2595 97.76576 C 751.2382 98.36016 751.4409 98.96011 751.8946 99.41378 L 761.4115 109.35005 C 762.279 110.21665 763.6844 110.21665 764.551 109.35005 L 766.1213 107.7798 C 766.9879 106.91228 766.9879 105.50683 766.1213 104.64023 L 762.6799 101.10069 Z M 768.2174 63.88134 L 768.2174 63.88134 C 768.6711 63.42767 768.8729 62.827714 768.8526 62.23424 C 768.8729 61.63984 768.6711 61.03989 768.2174 60.58622 L 758.7006 50.64995 C 757.834 49.78335 756.4285 49.78335 755.5619 50.64995 L 753.9907 52.2202 C 753.1241 53.087725 753.1241 54.49317 753.9907 55.35977 L 757.372 58.890055 L 748.8893 58.890055 C 739.0771 58.890055 731.1221 66.845 731.1221 76.6572 L 731.1221 83.28077 C 731.1221 90.59131 735.5412 96.86583 741.85 99.59247 C 741.85 99.59154 741.85 99.59154 741.8509 99.59062 C 742.3111 99.82764 742.812 99.99336 743.3656 99.99336 C 745.22475 99.99336 746.7311 98.48607 746.7311 96.62696 C 746.7311 95.63629 746.2858 94.76784 745.60435 94.15215 C 745.684 94.06049 737.817 88.07484 737.817 82.93727 L 737.817 77.0905 C 737.817 70.711365 742.9879 65.54139 749.3661 65.54139 L 757.3479 65.54139 L 753.9 69.107785 C 753.0334 69.97531 753.0334 71.38076 753.9 72.24736 L 755.4712 73.81761 C 756.3378 74.68421 757.7432 74.68421 758.6098 73.81761 Z" fill="#009fe3"/>
      </g>
    </g>
  </g>
</svg>
