<?xml version="1.0" encoding="UTF-8" standalone="no"?>
<!DOCTYPE svg PUBLIC "-//W3C//DTD SVG 1.1//EN" "http://www.w3.org/Graphics/SVG/1.1/DTD/svg11.dtd">
<svg width="100%" height="100%" viewBox="0 0 476 291" version="1.1" xmlns="http://www.w3.org/2000/svg" xmlns:xlink="http://www.w3.org/1999/xlink" xml:space="preserve" xmlns:serif="http://www.serif.com/" style="fill-rule:evenodd;clip-rule:evenodd;stroke-linecap:square;stroke-linejoin:round;stroke-miterlimit:1.5;">
    <g id="Layer1">
    </g>
    <rect id="Pencil" x="0" y="0" width="475.251" height="291" style="fill:none;"/>
    <path d="M12.169,1.059l10.17,0.526l-0,12.794l-10.17,12.268l-10.169,-0.526l0,-12.794l10.169,-12.268Z" style="fill:#d58220;stroke:#000;stroke-width:1px;"/>
    <path d="M12.169,1.059l10.17,0.526l-0,12.794l-10.17,12.268l-10.169,-0.526l0,-12.794l10.169,-12.268Z" style="fill:#d58220;stroke:#000;stroke-width:1px;"/>
    <path d="M12.303,8.499c2.522,-1.457 4.57,-0.274 4.57,2.638c0,2.913 -2.048,6.46 -4.57,7.917c-2.523,1.456 -4.571,0.274 -4.571,-2.639c0,-2.913 2.048,-6.46 4.571,-7.916Z" style="fill:#3c3c3c;stroke:#000;stroke-width:1px;"/>
    <path d="M22.305,14.596l414.493,239.071l-10.169,12.268l-414.288,-239.189l9.964,-12.15Z" style="fill:#424242;stroke:#000;stroke-width:1px;"/>
    <path d="M12.341,26.746l414.288,239.189l-10.169,-0.525l-414.289,-239.19l10.17,0.526Z" style="fill:#424242;stroke:#000;stroke-width:1px;"/>
    <path d="M436.798,240.873l0,12.794l-414.288,-239.189l0,-12.794l414.288,239.189Z" style="fill:#424242;stroke:#000;stroke-width:1px;"/>
    <path d="M436.798,240.873l-10.169,-0.525l-414.493,-239.071l10.374,0.407l414.288,239.189Z" style="fill:#fffb33;stroke:#000;stroke-width:1px;"/>
    <path d="M416.46,252.616l-0,12.794l-414.289,-239.19l0,-12.794l414.289,239.19Z" style="fill:#ccc800;stroke:#000;stroke-width:1px;"/>
    <path d="M12.136,1.277l414.493,239.071l-10.169,12.268l-414.289,-239.19l9.965,-12.149Z" style="fill:#121212;stroke:#000;stroke-width:1px;"/>
    <path d="M416.46,252.616c-2.068,-9.107 2.133,-12.497 10.169,-12.268c2.05,-2.578 5.478,-2.407 10.169,0.525l29.521,37.97l-49.859,-13.433c-3.881,-4.135 -4.099,-8.505 -0,-12.794Z" style="fill:#d58220;stroke:#000;stroke-width:1px;"/>
    <path d="M451.21,274.773c-0.712,-4.899 1.224,-7.385 6.022,-7.265l9.087,11.335l-15.109,-4.07Z" style="fill:#3c3c3c;stroke:#000;stroke-width:1px;"/>
    <g>
        <path d="M8.038,24.998c-0,0.383 -0.033,0.683 -0.098,0.899c-0.066,0.216 -0.161,0.372 -0.286,0.469c-0.167,0.129 -0.362,0.171 -0.585,0.125c-0.223,-0.046 -0.465,-0.145 -0.727,-0.296c-0.264,-0.153 -0.5,-0.329 -0.708,-0.53c-0.207,-0.2 -0.384,-0.428 -0.53,-0.684c-0.146,-0.255 -0.258,-0.539 -0.334,-0.852c-0.077,-0.313 -0.115,-0.66 -0.115,-1.039l-0,-0.575l1.052,0.607l0,0.564c0,0.361 0.052,0.645 0.157,0.852c0.104,0.207 0.264,0.372 0.478,0.496c0.212,0.122 0.37,0.14 0.476,0.055c0.106,-0.086 0.159,-0.309 0.159,-0.67l-0,-3.033l-1.855,-1.071l0,-1.229l2.916,1.683l-0,4.229Z" style="fill-rule:nonzero;"/>
        <path d="M11.304,27.82c0.234,0.135 0.426,0.187 0.577,0.158c0.15,-0.03 0.268,-0.116 0.355,-0.258c0.086,-0.142 0.146,-0.323 0.179,-0.544c0.034,-0.222 0.05,-0.456 0.05,-0.704c0,-0.249 -0.016,-0.502 -0.05,-0.762c-0.033,-0.26 -0.093,-0.511 -0.179,-0.752c-0.087,-0.242 -0.205,-0.464 -0.355,-0.668c-0.151,-0.203 -0.343,-0.372 -0.577,-0.507c-0.234,-0.135 -0.426,-0.188 -0.576,-0.158c-0.151,0.029 -0.269,0.115 -0.355,0.257c-0.087,0.142 -0.146,0.323 -0.18,0.545c-0.033,0.221 -0.05,0.456 -0.05,0.704c0,0.248 0.017,0.502 0.05,0.762c0.034,0.26 0.093,0.51 0.18,0.752c0.086,0.241 0.204,0.464 0.355,0.667c0.15,0.203 0.342,0.373 0.576,0.508Zm0,1.24c-0.379,-0.219 -0.709,-0.487 -0.99,-0.805c-0.281,-0.319 -0.516,-0.675 -0.704,-1.069c-0.187,-0.394 -0.328,-0.819 -0.421,-1.273c-0.094,-0.454 -0.14,-0.925 -0.14,-1.414c-0,-0.489 0.046,-0.906 0.14,-1.253c0.093,-0.346 0.234,-0.608 0.421,-0.785c0.188,-0.177 0.423,-0.263 0.704,-0.256c0.281,0.006 0.611,0.119 0.99,0.337c0.379,0.219 0.709,0.487 0.99,0.806c0.281,0.318 0.516,0.674 0.704,1.069c0.188,0.394 0.328,0.818 0.422,1.272c0.093,0.454 0.14,0.926 0.14,1.414c-0,0.489 -0.047,0.907 -0.14,1.253c-0.094,0.346 -0.234,0.608 -0.422,0.785c-0.188,0.178 -0.423,0.263 -0.704,0.257c-0.281,-0.007 -0.611,-0.119 -0.99,-0.338Z" style="fill-rule:nonzero;"/>
        <path d="M17.586,28.74l0,-2.458l1.061,0.612l-0,6.293l-1.061,-0.613l0,-2.593l-1.88,-1.086l0,2.594l-1.06,-0.613l-0,-6.292l1.06,0.613l0,2.458l1.88,1.085Z" style="fill-rule:nonzero;"/>
        <path d="M22.932,29.369l1.019,0.588l0,6.292l-1.294,-0.747l-1.738,-5.435l0,4.431l-1.019,-0.588l-0,-6.292l1.295,0.747l1.737,5.435l0,-4.431Z" style="fill-rule:nonzero;"/>
        <path d="M28.721,32.711c0.329,0.19 0.623,0.402 0.884,0.637c0.26,0.235 0.481,0.492 0.664,0.772c0.182,0.28 0.322,0.583 0.42,0.908c0.097,0.325 0.146,0.67 0.146,1.034c-0,0.369 -0.049,0.658 -0.146,0.869c-0.098,0.21 -0.238,0.35 -0.42,0.42c-0.183,0.069 -0.404,0.071 -0.664,0.006c-0.261,-0.066 -0.555,-0.194 -0.884,-0.384l-0.568,-0.328l0,2.03l-1.061,-0.612l0,-6.293l1.629,0.941Zm-0.008,3.085c0.184,0.106 0.34,0.178 0.47,0.218c0.129,0.039 0.235,0.043 0.315,0.012c0.081,-0.03 0.14,-0.094 0.178,-0.193c0.037,-0.099 0.056,-0.234 0.056,-0.407c0,-0.339 -0.078,-0.628 -0.234,-0.868c-0.156,-0.241 -0.417,-0.467 -0.785,-0.679l-0.56,-0.323l0,1.917l0.56,0.323Z" style="fill-rule:nonzero;"/>
        <path d="M32.831,36.29l0,1.275l1.846,1.065l0,1.207l-1.846,-1.066l0,1.398l2.281,1.317l-0,1.207l-3.342,-1.929l0,-6.293l3.342,1.929l-0,1.207l-2.281,-1.317Z" style="fill-rule:nonzero;"/>
        <path d="M39.109,45l-0.292,-1.307l-1.83,-1.056l-0.284,0.974l-1.077,-0.622l1.712,-5.303l1.17,0.675l1.712,7.281l-1.111,-0.642Zm-0.551,-2.539l-0.66,-3.031l-0.652,2.273l1.312,0.758Z" style="fill-rule:nonzero;"/>
        <path d="M42.643,40.748c0.328,0.19 0.623,0.402 0.883,0.637c0.26,0.235 0.482,0.493 0.664,0.773c0.183,0.28 0.322,0.582 0.42,0.907c0.097,0.325 0.146,0.67 0.146,1.035c0,0.248 -0.024,0.456 -0.071,0.624c-0.047,0.168 -0.114,0.303 -0.2,0.403c-0.087,0.101 -0.189,0.17 -0.307,0.209c-0.119,0.039 -0.249,0.053 -0.391,0.042l1.186,3.008l-1.219,-0.704l-0.969,-2.589l-0.71,-0.41l-0,2.03l-1.061,-0.613l-0,-6.292l1.629,0.94Zm-0.009,3.085c0.184,0.106 0.341,0.179 0.47,0.218c0.13,0.039 0.235,0.043 0.316,0.013c0.08,-0.031 0.139,-0.095 0.177,-0.194c0.038,-0.098 0.056,-0.234 0.056,-0.407c0,-0.338 -0.078,-0.627 -0.233,-0.868c-0.156,-0.24 -0.418,-0.467 -0.786,-0.679l-0.559,-0.323l-0,1.917l0.559,0.323Z" style="fill-rule:nonzero;"/>
        <path d="M49.046,44.445l-0,1.229l-1.345,-0.776l-0,5.063l-1.061,-0.613l-0,-5.063l-1.345,-0.776l-0,-1.229l3.751,2.165Z" style="fill-rule:nonzero;"/>
    </g>
</svg>
